<?xml version="1.0" encoding="utf-8"?>
<!DOCTYPE svg PUBLIC "-//W3C//DTD SVG 1.1//EN" "http://www.w3.org/Graphics/SVG/1.1/DTD/svg11.dtd">
<svg xmlns="http://www.w3.org/2000/svg" xmlns:xlink="http://www.w3.org/1999/xlink" version="1.1" width="4800" height="5600"><defs><text id="cid_2" font-size="360" font-family="Hiragino Maru Gothic ProN W4" viewBox="14 9 1784 882"><tspan x="0 360 720 1080" y="320" font-size="360" fill="ff0000">愛うえお</tspan><tspan x="0 360 720 1080 1440" y="860" font-size="360" fill="0000ff">書きくけ子</tspan></text><text id="cid_6" viewBox="16 13 1762 1047"><tspan x="0 360 720 1080 1440" y="300" font-size="360" font-family="MS Gothic" fill="0000cc">さし周世そ</tspan><tspan x="0 360" y="660" font-size="360" font-family="DFPMaruGothic-SB" fill="0000cc">たち</tspan><tspan x="720 1080" y="660" font-size="360" font-family="DFPMaruGothic-SB" fill="ff0000">ひろ</tspan><tspan x="1440" y="660" font-size="360" font-family="DFPMaruGothic-SB" fill="0000cc">し</tspan><tspan x="0 360 720 1080 1440" y="1020" font-size="360" font-family="MS Mincho" fill="009966">太刀つてと</tspan></text><path id="cid_7" d="M 960 438 Q 960 256 819 128 679 0 480 0 281 0 140 128 0 256 0 438 0 620 140 748 281 876 480 876 679 876 819 748 960 620 960 438" viewBox="0 0 960 876" fill="#000000"></path><text id="cid_8" font-size="360" font-family="DFPMaruGothic-SB" fill="ff00ff" viewBox="14 36 2738 1752"><tspan x="0 246 470 693 915 1161 1385 1608 1830 2076 2300 2523" y="300">LoveLoveLove</tspan><tspan x="0 246 470 693 915 1161 1385 1608 1830 2076 2300 2523" y="660">LoveLoveLove</tspan><tspan x="0 246 470 693 915 1161 1385 1608 1830 2076 2300 2523" y="1020">LoveLoveLove</tspan><tspan x="0 246 470 693 915 1161 1385 1608 1830 2076 2300 2523" y="1380">LoveLoveLove</tspan><tspan x="0 246 470 693 915 1161 1385 1608 1830 2076 2300 2523" y="1740">LoveLoveLove</tspan></text></defs></svg>
