<?xml version="1.0" encoding="utf-8"?>
<!DOCTYPE svg PUBLIC "-//W3C//DTD SVG 1.1//EN" "http://www.w3.org/Graphics/SVG/1.1/DTD/svg11.dtd">
<svg xmlns="http://www.w3.org/2000/svg" xmlns:xlink="http://www.w3.org/1999/xlink" version="1.1" width="4800" height="6000"><defs><path id="cid_1" d="M 0 0 L 0 6000 4800 6000 4800 0 0 0" viewBox="0 0 4800 6000" fill="#fb7c1a"></path><g id="cid_2" viewBox="-1402 -1374 7402 7429"><path d="M 3000 -1374 Q 2106 -1374 1286 -1027 498 -694 -112 -84 -722 526 -1055 1315 -1402 2134 -1402 3029 -1402 3924 -1055 4742 -722 5532 -112 6142 498 6750 1286 7082 2104 7429 3000 7429 3896 7429 4714 7082 5503 6750 6113 6142 6722 5532 7056 4742 7402 3924 7402 3029 7402 2134 7056 1315 6722 524 6113 -84 5503 -694 4714 -1027 3895 -1374 3000 -1374" fill="#fb9a1e"></path><path d="M 5997 1763 Q 5750 1179 5300 729 4850 278 4266 31 3662 -224 3000 -224 2339 -224 1734 31 1150 278 701 729 251 1179 4 1763 -252 2368 -252 3029 -252 3691 4 4295 251 4879 701 5329 1150 5779 1734 6026 2339 6281 3000 6281 3662 6281 4266 6026 4850 5779 5300 5329 5750 4879 5997 4295 6253 3691 6253 3029 6253 2368 5997 1763" fill="#fba820"></path><path d="M 5024 1006 Q 4628 610 4114 392 3582 167 3000 167 2418 167 1887 392 1373 610 977 1006 581 1402 363 1915 138 2447 138 3029 138 3611 363 4143 581 4657 977 5053 1373 5448 1887 5665 2418 5890 3000 5890 3582 5890 4114 5665 4628 5448 5024 5053 5419 4657 5636 4143 5861 3611 5861 3029 5861 2447 5636 1915 5419 1402 5024 1006" fill="#fcc625"></path><path d="M 5268 3988 Q 5462 3530 5462 3029 5462 2528 5268 2071 5081 1629 4741 1288 4400 947 3959 760 3502 567 3000 567 2499 567 2042 760 1600 947 1259 1288 918 1629 731 2071 538 2528 538 3029 538 3530 731 3988 918 4429 1259 4770 1600 5111 2042 5298 2499 5492 3000 5492 3502 5492 3959 5298 4400 5111 4741 4770 5081 4429 5268 3988" fill="#fcd728"></path><path d="M 5070 3029 Q 5070 2607 4908 2222 4750 1851 4464 1564 4178 1278 3806 1121 3422 958 3000 958 2579 958 2193 1121 1822 1278 1536 1564 1250 1851 1092 2222 929 2607 929 3029 929 3451 1092 3835 1250 4207 1536 4493 1822 4779 2193 4937 2579 5099 3000 5099 3422 5099 3806 4937 4178 4779 4464 4493 4750 4207 4908 3835 5070 3451 5070 3029" fill="#fce42a"></path></g><path id="cid_3" d="M 1750 -837 L 3898 3902 2559 -1125 Q 2151 -1019 1750 -837 M 3406 -1277 L 3898 3902 4265 -1287 3898 -1300 3406 -1277 M 5115 -1157 L 3898 3902 5931 -888 Q 5535 -1056 5115 -1157 M 9100 3835 L 3898 3902 9041 4693 Q 9101 4294 9101 3902 L 9100 3835 M 8800 2154 L 3898 3902 9020 2985 Q 8945 2568 8800 2154 M 7966 658 L 3898 3902 8445 1372 Q 8238 1002 7966 658 M 8044 7045 L 3898 3902 7470 7684 Q 7780 7392 8044 7045 M 8841 5529 L 3898 3902 8505 6320 Q 8705 5942 8841 5529 M 3898 3902 L -167 7145 Q 101 7481 423 7771 L 3898 3902 -1302 3963 Q -1295 4402 -1222 4818 L 3898 3902 -1001 5649 Q -861 6046 -646 6432 L 3898 3902 1105 8290 Q 1474 8524 1866 8691 L 3898 3902 2683 8959 Q 3098 9061 3532 9090 L 3898 3902 4392 9079 Q 4812 9041 5237 8929 L 3898 3902 6048 8639 Q 6442 8460 6798 8220 L 3898 3902 7375 32 Q 7057 -254 6693 -488 L 3898 3902 999 -417 Q 651 -184 329 119 L 3898 3902 -246 759 Q -504 1101 -707 1484 L 3898 3902 -1042 2276 Q -1175 2680 -1242 3111 L 3898 3902" viewBox="-1302 -1300 9101 9090" fill="#fcf52d"></path><path id="cid_5" d="M -500 -500 L -500 500 500 500 500 -500 -500 -500" viewBox="-500 -500 500 500" fill="#ff0000"></path><use id="cid_8" transform="matrix(20,0,0,20,0,0)" xlink:href="#cid_7" viewBox="0 0 3600 2760"></use><path id="cid_9" d="M 2000 8000 L 2000 2000 6800 2000 6800 8000 2000 8000 M 9800 -1000 L -1000 -1000 -1000 11000 9800 11000 9800 -1000" viewBox="-1000 -1000 9800 11000" fill="#000000"></path><g id="cid_11" viewBox="-884 40 3603 980"><path d="M 3298 383 L 3322 637 3292 637 3292 927 3582 927 3582 637 3553 637 3603 94 2514 94 2514 122 2367 40 2112 183 2112 360 1884 260 1695 343 1505 260 1299 350 1130 255 1028 315 940 94 536 94 536 319 401 260 212 343 22 260 -145 333 -273 253 -400 309 -400 94 -884 94 -884 927 -610 927 -610 655 -574 655 -574 927 -304 927 -304 589 -274 568 -234 594 -234 865 22 977 212 893 401 977 536 927 811 927 811 655 876 655 876 818 1059 969 1375 969 1375 919 1505 977 1695 893 1884 977 2140 865 2140 853 2367 980 2514 899 2514 927 3271 927 3271 383 3298 383" fill="#f54114"></path><path d="M 401 338 L 218 419 218 818 401 898 585 818 585 693 449 693 449 726 400 755 350 726 350 650 585 650 585 419 401 338 M 449 512 L 449 543 350 543 350 512 400 488 449 512" fill="#ffffff"></path><path d="M 811 316 L 839 373 811 432 740 432 740 316 811 316 M 891 166 L 608 166 608 855 740 855 740 583 891 583 974 373 891 166" fill="#ffffff"></path><path d="M 22 338 L -148 413 -272 338 -376 407 -376 381 -502 381 -502 437 -682 437 -682 311 -472 311 -472 166 -813 166 -813 855 -682 855 -682 583 -502 583 -502 855 -376 855 -376 552 -275 482 -162 554 -162 818 22 898 205 818 205 693 70 693 70 726 20 755 -29 726 -29 650 205 650 205 419 22 338 M 70 512 L 70 543 -29 543 -29 512 20 488 70 512" fill="#ffffff"></path><path d="M 2926 166 L 2585 166 2585 855 2926 855 2926 709 2717 709 2717 583 2893 583 2893 437 2717 437 2717 311 2926 311 2926 166" fill="#ffffff"></path><path d="M 3479 662 L 3526 144 3349 144 3396 662 3479 662" fill="#ffffff"></path><path d="M 948 446 L 948 785 1072 898 Q 1118 877 1163 855 L 1163 898 1303 898 1303 434 1130 338 948 446 M 1130 489 L 1163 510 1163 732 1120 753 1087 732 1087 517 1130 489" fill="#ffffff"></path><path d="M 3364 855 L 3510 855 3510 709 3364 709 3364 855" fill="#ffffff"></path><path d="M 3303 166 L 2949 166 2949 311 3053 311 3053 855 3199 855 3199 311 3303 311 3303 166" fill="#ffffff"></path><path d="M 2367 123 L 2184 225 2184 796 2367 898 2551 796 2551 451 2372 451 2372 591 2410 591 2410 726 2367 748 2324 726 2324 295 2367 273 2410 295 2410 381 2551 381 2551 225 2367 123" fill="#ffffff"></path><path d="M 1689 419 L 1505 338 1322 419 1322 613 1559 710 1559 742 1505 764 1451 742 1451 693 1322 693 1322 818 1505 898 1689 818 1689 624 1451 526 1451 494 1505 473 1559 494 1559 543 1689 543 1689 419" fill="#ffffff"></path><path d="M 1701 419 L 1701 613 1939 710 1939 742 1884 764 1831 742 1831 693 1701 693 1701 818 1884 898 2068 818 2068 624 1831 526 1831 494 1884 473 1939 494 1939 543 2068 543 2068 419 1884 338 1701 419" fill="#ffffff"></path></g><path id="cid_12" d="M 758 388 L 345 328 283 -236 221 323 Q 26 366 -168 412 L 216 455 307 964 353 448 758 388" viewBox="-168 -236 758 964" fill="#ffffff"></path><g id="cid_14" viewBox="-1770 -210 1770 210"><path d="M 1770 -210 L 510 -210 510 -150 450 -150 450 -210 -90 -210 -90 210 450 210 450 150 510 150 510 210 690 210 690 -30 750 -30 750 210 930 210 930 -30 990 -30 990 210 1770 210 1770 -210 M -1410 210 L -510 210 -510 90 -450 90 -450 210 -270 210 -270 -210 -450 -210 -450 -90 -510 -90 -510 -210 -1170 -210 -1170 30 -1230 30 -1230 -210 -1770 -210 -1770 210 -1590 210 -1590 90 -1410 90 -1410 210" fill="#ff0302"></path><path d="M 1350 -30 L 1110 -30 1110 -90 1350 -90 1350 -150 1050 -150 1050 150 1350 150 1350 90 1110 90 1110 30 1350 30 1350 -30 M 990 -150 L 690 -150 690 -90 810 -90 810 150 870 150 870 -90 990 -90 990 -150 M 1650 -30 L 1470 -30 1470 -90 1650 -90 1650 -30 M 1710 30 L 1710 -150 1410 -150 1410 150 1470 150 1470 30 1590 30 1590 150 1710 150 1710 90 1650 90 1650 30 1710 30 M -1410 -150 L -1710 -150 -1710 150 -1650 150 -1650 30 -1410 30 -1410 -150 M -1290 -150 L -1350 -150 -1350 150 -1050 150 -1050 -150 -1110 -150 -1110 90 -1290 90 -1290 -150 M -1470 -30 L -1650 -30 -1650 -90 -1470 -90 -1470 -30 M -690 -150 L -990 -150 -990 30 -750 30 -750 90 -990 90 -990 150 -690 150 -690 -30 -930 -30 -930 -90 -690 -90 -690 -150 M 390 -150 L 330 -150 330 150 390 150 390 -30 450 -30 450 -90 390 -90 390 -150 M 450 30 L 510 30 510 -30 450 -30 450 30 M 270 -30 L 30 -30 30 -90 270 -90 270 -150 -30 -150 -30 150 270 150 270 90 30 90 30 30 270 30 270 -30 M -390 -150 L -390 -30 -570 -30 -570 -150 -630 -150 -630 150 -570 150 -570 30 -390 30 -390 150 -330 150 -330 -150 -390 -150 M 510 30 L 510 90 570 90 570 150 630 150 630 -150 570 -150 570 30 510 30" fill="#ffffff"></path></g></defs></svg>
