<?xml version="1.0" encoding="utf-8"?>
<!DOCTYPE svg PUBLIC "-//W3C//DTD SVG 1.1//EN" "http://www.w3.org/Graphics/SVG/1.1/DTD/svg11.dtd">
<svg xmlns="http://www.w3.org/2000/svg" xmlns:xlink="http://www.w3.org/1999/xlink" version="1.1" width="4800" height="4800"><defs><path id="cid_1" d="M 4799 0 L 0 0 0 6000 4799 6000 4799 0" viewBox="0 0 4799 6000" fill="#000000"></path><use id="cid_3" transform="matrix(20,0,0,20,0,0)" xlink:href="#cid_2" viewBox="0 0 400 400"></use><use id="cid_6" transform="matrix(20,0,0,20,0,0)" xlink:href="#cid_5" viewBox="0 0 400 400"></use><use id="cid_9" transform="matrix(20,0,0,20,0,0)" xlink:href="#cid_8" viewBox="0 0 400 400"></use><use id="cid_12" transform="matrix(20,0,0,20,0,0)" xlink:href="#cid_11" viewBox="0 0 400 400"></use><use id="cid_15" transform="matrix(20,0,0,20,0,0)" xlink:href="#cid_14" viewBox="0 0 400 400"></use><use id="cid_18" transform="matrix(20,0,0,20,0,0)" xlink:href="#cid_17" viewBox="0 0 400 400"></use><use id="cid_21" transform="matrix(20,0,0,20,0,0)" xlink:href="#cid_20" viewBox="0 0 400 400"></use><use id="cid_25" transform="matrix(20,0,0,20,-20,-40)" xlink:href="#cid_24" viewBox="-20 -40 380 360"></use><use id="cid_27" transform="matrix(20,0,0,20,-20,-40)" xlink:href="#cid_26" viewBox="-20 -40 380 360"></use><use id="cid_29" transform="matrix(20,0,0,20,-20,-40)" xlink:href="#cid_28" viewBox="-20 -40 380 360"></use><use id="cid_31" transform="matrix(20,0,0,20,-20,-40)" xlink:href="#cid_30" viewBox="-20 -40 380 360"></use><use id="cid_33" transform="matrix(20,0,0,20,-20,-40)" xlink:href="#cid_32" viewBox="-20 -40 380 360"></use><g id="cid_35" viewBox="0 0 180 140"><path d="M 160 40 L 20 40 20 60 40 60 40 80 60 80 60 100 80 100 80 120 100 120 100 100 120 100 120 80 140 80 140 60 160 60 160 40" fill="#ff3232"></path><path d="M 180 0 L 0 0 0 40 180 40 180 0" fill="#000000"></path><path d="M 20 40 L 0 40 0 60 20 60 20 40" fill="#000000"></path><path d="M 40 60 L 20 60 20 80 40 80 40 60" fill="#000000"></path><path d="M 60 80 L 40 80 40 100 60 100 60 80" fill="#000000"></path><path d="M 80 100 L 60 100 60 120 80 120 80 100" fill="#000000"></path><path d="M 100 120 L 80 120 80 140 100 140 100 120" fill="#000000"></path><path d="M 120 100 L 100 100 100 120 120 120 120 100" fill="#000000"></path><path d="M 140 80 L 120 80 120 100 140 100 140 80" fill="#000000"></path><path d="M 160 60 L 140 60 140 80 160 80 160 60" fill="#000000"></path><path d="M 180 40 L 160 40 160 60 180 60 180 40" fill="#000000"></path><path d="M 100 100 L 80 100 80 120 100 120 100 100" fill="#ffb9bb"></path><path d="M 80 80 L 60 80 60 100 80 100 80 80" fill="#ffb9bb"></path><path d="M 60 60 L 40 60 40 80 60 80 60 60" fill="#ffb9bb"></path><path d="M 37 40 L 20 40 20 60 37 60 37 40" fill="#ffb9bb"></path></g><use id="cid_38" transform="matrix(20,0,0,20,0,0)" xlink:href="#cid_37" viewBox="0 0 480 480"></use><use id="cid_40" transform="matrix(20,0,0,20,0,0)" xlink:href="#cid_39" viewBox="0 0 480 480"></use><g id="cid_43" viewBox="0 0 360 320"><path d="M 200 140 L 340 140 340 100 100 100 80 140 80 240 120 240 120 260 160 260 160 280 200 280 200 300 260 300 260 260 220 260 220 240 180 240 180 220 140 220 140 180 200 180 200 140" fill="#cb3232"></path><path d="M 100 280 L 20 280 20 320 100 320 100 280" fill="#cb3232"></path><path d="M 160 140 L 340 140 340 120 160 120 160 140" fill="#909090"></path><path d="M 180 120 L 340 120 340 100 180 100 180 120" fill="#bcbcbc"></path><path d="M 242 300 L 300 300 300 260 242 260 242 300" fill="#000000"></path><path d="M 22 320 L 57 320 57 280 22 280 22 320" fill="#000000"></path><path d="M 200 140 L 240 140 240 120 200 120 200 140" fill="#ff9800"></path><path d="M 140 240 L 180 240 180 220 140 220 140 240" fill="#93a8ff"></path><path d="M 180 260 L 220 260 220 240 180 240 180 260" fill="#93a8ff"></path><path d="M 120 140 L 160 140 160 120 120 120 120 140" fill="#ffb9bb"></path><path d="M 200 140 L 200 160 340 160 340 140 200 140" fill="#000000"></path><path d="M 200 200 L 220 200 220 160 200 160 200 200" fill="#000000"></path><path d="M 140 200 L 200 200 200 180 140 180 140 200" fill="#000000"></path><path d="M 140 240 L 160 240 160 200 140 200 140 240" fill="#000000"></path><path d="M 160 240 L 180 240 180 220 160 220 160 240" fill="#000000"></path><path d="M 240 260 L 240 240 180 240 180 260 240 260" fill="#000000"></path><path d="M 340 140 L 360 140 360 100 340 100 340 140" fill="#000000"></path><path d="M 100 100 L 340 100 340 80 100 80 100 100" fill="#000000"></path><path d="M 60 120 L 60 240 80 240 80 120 60 120" fill="#000000"></path><path d="M 100 300 L 120 300 120 240 100 240 100 300" fill="#000000"></path><path d="M 20 280 L 100 280 100 260 20 260 20 280" fill="#000000"></path><path d="M 20 280 L 0 280 0 320 20 320 20 280" fill="#000000"></path><path d="M 160 280 L 160 260 120 260 120 280 160 280" fill="#000000"></path><path d="M 140 300 L 200 300 200 280 140 280 140 300" fill="#000000"></path><path d="M 200 320 L 280 320 280 300 200 300 200 320" fill="#000000"></path><path d="M 80 260 L 100 260 100 240 80 240 80 260" fill="#000000"></path><path d="M 80 120 L 100 120 100 100 80 100 80 120" fill="#000000"></path><path d="M 121 100 L 158 100 158 20 121 20 121 100" fill="#ffa500"></path><path d="M 180 78 L 180 41 100 41 100 78 180 78" fill="#ffa500"></path><path d="M 120 60 L 160 60 160 25 120 25 120 60" fill="#178c00"></path><path d="M 100 60 L 180 60 180 40 100 40 100 60" fill="#178c00"></path><path d="M 100 80 L 120 80 120 60 100 60 100 80" fill="#178c00"></path><path d="M 180 80 L 200 80 200 40 180 40 180 80" fill="#000000"></path><path d="M 160 40 L 180 40 180 20 160 20 160 40" fill="#000000"></path><path d="M 120 20 L 160 20 160 0 120 0 120 20" fill="#000000"></path><path d="M 100 40 L 120 40 120 20 100 20 100 40" fill="#000000"></path><path d="M 80 80 L 100 80 100 40 80 40 80 80" fill="#000000"></path><path d="M 120 300 L 140 300 140 280 120 280 120 300" fill="#000000"></path><path d="M 60 320 L 100 320 100 300 60 300 60 320" fill="#000000"></path></g><g id="cid_45" viewBox="0 0 360 320"><path d="M 280 140 L 260 100 20 100 20 140 160 140 160 180 220 180 220 220 180 220 180 240 140 240 140 260 100 260 100 300 160 300 160 280 200 280 200 260 240 260 240 240 280 240 280 140" fill="#0032cb"></path><path d="M 260 280 L 260 320 340 320 340 280 260 280" fill="#0024b7"></path><path d="M 200 140 L 200 120 20 120 20 140 200 140" fill="#909090"></path><path d="M 180 120 L 180 100 20 100 20 120 180 120" fill="#bcbcbc"></path><path d="M 117 300 L 117 260 60 260 60 300 117 300" fill="#000000"></path><path d="M 337 320 L 337 280 302 280 302 320 337 320" fill="#000000"></path><path d="M 160 140 L 160 120 120 120 120 140 160 140" fill="#ff9800"></path><path d="M 220 240 L 220 220 180 220 180 240 220 240" fill="#93a8ff"></path><path d="M 180 260 L 180 240 140 240 140 260 180 260" fill="#93a8ff"></path><path d="M 240 140 L 240 120 200 120 200 140 240 140" fill="#93a8ff"></path><path d="M 160 160 L 160 140 20 140 20 160 160 160" fill="#000000"></path><path d="M 160 200 L 160 160 140 160 140 200 160 200" fill="#000000"></path><path d="M 220 200 L 220 180 160 180 160 200 220 200" fill="#000000"></path><path d="M 220 240 L 220 200 200 200 200 240 220 240" fill="#000000"></path><path d="M 200 240 L 200 220 180 220 180 240 200 240" fill="#000000"></path><path d="M 120 260 L 180 260 180 240 120 240 120 260" fill="#000000"></path><path d="M 20 140 L 20 100 0 100 0 140 20 140" fill="#000000"></path><path d="M 260 100 L 260 80 20 80 20 100 260 100" fill="#000000"></path><path d="M 300 240 L 300 120 280 120 280 240 300 240" fill="#000000"></path><path d="M 260 300 L 260 240 240 240 240 300 260 300" fill="#000000"></path><path d="M 340 280 L 340 260 260 260 260 280 340 280" fill="#000000"></path><path d="M 360 320 L 360 280 340 280 340 320 360 320" fill="#000000"></path><path d="M 200 280 L 240 280 240 260 200 260 200 280" fill="#000000"></path><path d="M 220 300 L 220 280 160 280 160 300 220 300" fill="#000000"></path><path d="M 160 320 L 160 300 80 300 80 320 160 320" fill="#000000"></path><path d="M 280 260 L 280 240 260 240 260 260 280 260" fill="#000000"></path><path d="M 280 120 L 280 100 260 100 260 120 280 120" fill="#000000"></path><path d="M 238 100 L 238 20 201 20 201 100 238 100" fill="#ffa500"></path><path d="M 180 78 L 260 78 260 41 180 41 180 78" fill="#ffa500"></path><path d="M 240 60 L 240 25 200 25 200 60 240 60" fill="#178c00"></path><path d="M 260 60 L 260 40 180 40 180 60 260 60" fill="#178c00"></path><path d="M 260 80 L 260 60 240 60 240 80 260 80" fill="#178c00"></path><path d="M 180 80 L 180 40 160 40 160 80 180 80" fill="#000000"></path><path d="M 200 40 L 200 20 180 20 180 40 200 40" fill="#000000"></path><path d="M 240 20 L 240 0 200 0 200 20 240 20" fill="#000000"></path><path d="M 260 40 L 260 20 240 20 240 40 260 40" fill="#000000"></path><path d="M 280 80 L 280 40 260 40 260 80 280 80" fill="#000000"></path><path d="M 240 300 L 240 280 220 280 220 300 240 300" fill="#000000"></path><path d="M 300 320 L 300 300 260 300 260 320 300 320" fill="#000000"></path></g><g id="cid_47" viewBox="45 17 205 377"><path d="M 125 357 L 125 37 105 37 105 357 125 357" fill="#ffcb00"></path><path d="M 145 357 L 145 197 125 197 125 357 145 357" fill="#c6af00"></path><path d="M 85 37 L 85 357 105 357 105 37 85 37" fill="#000000"></path><path d="M 125 37 L 125 17 105 17 105 37 125 37" fill="#000000"></path><path d="M 145 217 L 145 37 125 37 125 217 145 217" fill="#000000"></path><path d="M 205 377 L 205 357 45 357 45 377 205 377" fill="#000000"></path><path d="M 165 197 L 145 197 145 357 165 357 165 197" fill="#000000"></path></g><g id="cid_48" viewBox="-30 -90 30 90"><path d="M 30 70 L -10 70 -10 90 M 30 -70 L 30 -90 -30 -90 -30 -70 M -10 90 L 30 90 30 70 M -30 -70 L 30 -70" fill="#000000"></path><path d="M -10 90 L -10 70 30 70 M -30 -50 L -30 90 -10 90 M 30 70 L 30 -50 -30 -50" fill="#0032cb"></path><path d="M 30 -50 L 30 -70 -30 -70 -30 -50 30 -50" fill="#c1cdff"></path></g><g id="cid_49" viewBox="-20 -70 20 70"><path d="M -20 50 L 20 50 20 -50 -20 -50 -20 50" fill="#0032cb"></path><path d="M -20 70 L 20 70 20 50 -20 50 -20 70" fill="#000000"></path><path d="M -20 -50 L 20 -50 20 -70 -20 -70 -20 -50" fill="#000000"></path><path d="M -20 -30 L 20 -30 20 -50 -20 -50 -20 -30" fill="#c1cdff"></path></g><g id="cid_50" viewBox="-30 -50 30 50"><path d="M -30 30 L 30 30 30 -30 -30 -30 -30 30" fill="#0032cb"></path><path d="M -30 50 L 30 50 30 30 -30 30 -30 50" fill="#000000"></path><path d="M -30 -30 L 30 -30 30 -50 -30 -50 -30 -30" fill="#000000"></path><path d="M -30 -10 L 30 -10 30 -30 -30 -30 -30 -10" fill="#c1cdff"></path></g><g id="cid_51" viewBox="-40 -30 40 30"><path d="M -40 10 L 20 10 20 -10 -40 -10 -40 10" fill="#0032cb"></path><path d="M -40 -10 L 20 -10 20 -30 -40 -30 -40 -10" fill="#000000"></path><path d="M 20 30 L 20 10 -40 10 -40 30 20 30" fill="#000000"></path><path d="M -40 10 L 20 10 20 -10 -40 -10 -40 10" fill="#c1cdff"></path><path d="M 20 10 L 40 10 40 -10 20 -10 20 10" fill="#000000"></path></g><g id="cid_53" viewBox="-30 -90 30 90"><path d="M 30 -50 L 30 -70 -30 -70 -30 -50 30 -50" fill="#ffcbcb"></path><path d="M 30 70 L -10 70 -10 90 M 30 -70 L 30 -90 -30 -90 -30 -70 M -10 90 L 30 90 30 70 M -30 -70 L 30 -70" fill="#000000"></path><path d="M -10 90 L -10 70 30 70 M -30 -50 L -30 90 -10 90 M 30 70 L 30 -50 -30 -50" fill="#cb3232"></path></g><g id="cid_54" viewBox="-20 -70 20 70"><path d="M -20 50 L 20 50 20 -50 -20 -50 -20 50" fill="#cb3232"></path><path d="M -20 70 L 20 70 20 50 -20 50 -20 70" fill="#000000"></path><path d="M -20 -50 L 20 -50 20 -70 -20 -70 -20 -50" fill="#000000"></path><path d="M -20 -30 L 20 -30 20 -50 -20 -50 -20 -30" fill="#ffcbcb"></path></g><g id="cid_55" viewBox="-30 -50 30 50"><path d="M -30 30 L 30 30 30 -30 -30 -30 -30 30" fill="#cb3232"></path><path d="M -30 50 L 30 50 30 30 -30 30 -30 50" fill="#000000"></path><path d="M -30 -30 L 30 -30 30 -50 -30 -50 -30 -30" fill="#000000"></path><path d="M -30 -10 L 30 -10 30 -30 -30 -30 -30 -10" fill="#ffcbcb"></path></g><g id="cid_56" viewBox="-40 -30 40 30"><path d="M -40 10 L 20 10 20 -10 -40 -10 -40 10" fill="#cb3232"></path><path d="M -40 -10 L 20 -10 20 -30 -40 -30 -40 -10" fill="#000000"></path><path d="M 20 30 L 20 10 -40 10 -40 30 20 30" fill="#000000"></path><path d="M -40 10 L 20 10 20 -10 -40 -10 -40 10" fill="#ffcbcb"></path><path d="M 20 10 L 40 10 40 -10 20 -10 20 10" fill="#000000"></path></g><path id="cid_59" d="M 4799 0 L 4799 5999 0 5999 0 0 4799 0 M 8759 -4000 L -4000 -4000 -4000 9999 8759 9999 8759 -4000" viewBox="-4000 -4000 8759 9999" fill="#000000"></path></defs></svg>
