<?xml version="1.0" encoding="utf-8"?>
<!DOCTYPE svg PUBLIC "-//W3C//DTD SVG 1.1//EN" "http://www.w3.org/Graphics/SVG/1.1/DTD/svg11.dtd">
<svg xmlns="http://www.w3.org/2000/svg" xmlns:xlink="http://www.w3.org/1999/xlink" version="1.1" width="4800" height="3000"><defs><g id="cid_1" viewBox="-307 -1331 306 0"><path d="M -298 -556 Q -302 -529 -295 -506 -275 -430 -155 -406 -189 -430 -215 -461 -242 -494 -239 -509 -235 -530 -203 -506 -170 -482 -152 -444 L -134 -409 Q -139 -466 -154 -493 -191 -557 -292 -577 L -298 -556" fill="#ed6b00"></path><path d="M -117 -384 Q -128 -392 -152 -444 -170 -482 -203 -506 -235 -530 -239 -509 -243 -488 -198 -443 -153 -398 -117 -384" fill="#af4b00"></path><path d="M 279 -783 Q 178 -763 142 -699 127 -672 121 -615 L 139 -650 Q 158 -688 190 -713 222 -737 226 -716 229 -701 202 -668 176 -637 143 -612 262 -636 283 -712 289 -736 285 -762 L 279 -783" fill="#ed6b00"></path><path d="M 105 -590 Q 141 -604 185 -649 230 -695 226 -716 222 -737 190 -713 158 -688 139 -650 115 -599 105 -590" fill="#af4b00"></path><path d="M -137 -896 L -128 -897 -138 -898 -137 -896" fill="#ed6b00"></path><path d="M -306 -1052 Q -310 -1026 -303 -1002 -283 -926 -163 -902 -197 -927 -223 -958 -250 -991 -247 -1005 -243 -1026 -211 -1002 -178 -978 -160 -940 L -142 -905 Q -148 -962 -162 -989 -199 -1053 -300 -1073 L -306 -1052" fill="#ed6b00"></path><path d="M -247 -1005 Q -251 -985 -206 -939 -161 -894 -125 -880 -136 -889 -160 -940 -178 -978 -211 -1002 -243 -1026 -247 -1005" fill="#af4b00"></path><path d="M 298 -1266 Q 197 -1246 161 -1182 146 -1155 140 -1098 L 158 -1133 Q 177 -1171 209 -1196 241 -1220 245 -1199 248 -1184 221 -1151 195 -1120 162 -1095 281 -1119 302 -1195 308 -1219 304 -1245 L 298 -1266" fill="#ed6b00"></path><path d="M 124 -1073 Q 160 -1088 204 -1133 249 -1178 245 -1199 241 -1220 209 -1196 177 -1171 158 -1133 L 124 -1073" fill="#af4b00"></path><path d="M 34 -1325 L 27 -1331 Q 20 -1331 21 -1325 L 23 -1310 19 -1119 3 -1119 3 -988 15 -988 5 -590 -9 -590 -9 -433 1 -433 -6 -151 Q -18 -151 -27 -143 -36 -135 -36 -123 -38 -102 -18 -95 L -23 -83 Q -25 -67 -8 -62 L -9 -22 -3 -6 Q 3 0 12 0 21 0 28 -6 L 34 -22 34 -60 Q 53 -62 53 -80 L 50 -91 Q 72 -96 72 -118 73 -130 64 -139 56 -148 44 -149 L 34 -149 33 -433 43 -433 43 -590 33 -590 32 -988 43 -988 43 -1119 31 -1119 31 -1311 34 -1325" fill="#e8452a"></path><path d="M 46 -1151 Q 101 -1110 108 -1083 110 -1074 105 -1068 86 -1042 53 -1026 34 -1016 -9 -1003 -68 -984 -91 -966 -131 -936 -134 -879 -135 -850 -105 -811 L -36 -735 32 -662 Q 65 -621 64 -597 64 -584 49 -572 24 -552 -56 -544 L -125 -532 Q -157 -521 -168 -498 -184 -463 -142 -400 -85 -316 4 -231 10 -225 19 -225 28 -225 34 -232 41 -238 40 -247 L 34 -262 Q -51 -344 -106 -425 -134 -467 -128 -480 -124 -491 -51 -501 L 16 -512 Q 53 -521 75 -538 106 -561 107 -594 110 -631 74 -679 L -5 -766 -62 -827 Q -91 -861 -90 -877 -89 -914 -65 -932 -48 -945 4 -961 54 -977 76 -988 116 -1009 140 -1042 157 -1065 150 -1093 134 -1163 -31 -1250 L -48 -1251 -60 -1240 -61 -1223 -50 -1211 Q 1 -1185 46 -1151" fill="#ed6b00"></path><path d="M 73 -1160 Q 40 -1185 -41 -1225 L -61 -1238 Q -66 -1219 -50 -1211 1 -1185 46 -1151 101 -1110 108 -1083 L 106 -1069 Q 138 -1110 73 -1160" fill="#af4b00"></path><path d="M 62 -1004 Q -58 -957 -85 -934 -120 -905 -86 -861 L -85 -861 -90 -877 Q -89 -914 -65 -932 -48 -945 4 -961 54 -977 76 -988 116 -1009 140 -1042 L 150 -1064 Q 127 -1029 62 -1004" fill="#af4b00"></path><path d="M 81 -621 Q 67 -653 -24 -739 L -125 -843 Q -111 -812 -36 -735 L 32 -662 Q 65 -621 64 -597 64 -584 49 -572 35 -560 0 -553 L 0 -552 Q 105 -565 81 -621" fill="#af4b00"></path><path d="M -128 -480 Q -124 -491 -51 -501 27 -509 59 -528 L -39 -516 -111 -505 Q -142 -496 -130 -464 L -111 -433 Q -134 -469 -128 -480" fill="#af4b00"></path></g><path id="cid_3" d="M 1099 656 Q 971 479 823 456 465 407 328 507 184 611 546 751 352 763 -47 834 368 1037 611 1109 289 1047 -153 1207 1144 1717 781 1761 784 1802 355 1608 -75 1414 -22 1812 24 1896 261 1981 L 544 2085 Q 162 1955 137 2009 352 2282 606 2300 720 2308 826 2273 965 2250 754 2062 L 1112 2089 1152 2048 Q 1254 1937 1315 1812 1430 1680 1253 1571 L 1415 1593 Q 1402 1479 1400 1407 1400 1338 1391 1271 1373 1222 1275 1163 1354 1150 1343 1064 1304 948 1239 842 L 1004 725 Q 1154 771 1099 656" viewBox="-153 440 1415 2301" fill="#ffcccc"></path><g id="cid_4" viewBox="-219 1681 975 2725"><path d="M 200 1894 Q 86 1919 41 2020 -6 2119 44 2233 101 2359 258 2443 425 2533 556 2510 674 2491 715 2391 758 2292 702 2177 638 2046 476 1952 323 1867 200 1894" fill="#ffffff"></path><path d="M 140 1793 Q -9 1825 -70 1960 -131 2092 -64 2243 9 2413 218 2524 440 2644 615 2615 774 2587 830 2455 888 2322 811 2168 729 1995 508 1869 307 1758 140 1793 M 200 1894 Q 323 1867 476 1952 638 2046 702 2177 758 2292 715 2391 674 2491 556 2510 425 2533 258 2443 101 2359 44 2233 -6 2119 41 2020 86 1919 200 1894" fill="#ffccff"></path><path d="M 84 1692 Q -105 1732 -182 1899 -259 2065 -174 2255 -81 2465 181 2606 458 2755 676 2718 872 2685 943 2519 1017 2354 921 2159 817 1943 541 1787 290 1647 84 1692 M 140 1793 Q 307 1758 508 1869 729 1995 811 2168 888 2322 830 2455 774 2587 615 2615 440 2644 218 2524 9 2413 -64 2243 -131 2092 -70 1960 -9 1825 140 1793" fill="#ffcccc"></path></g><g id="cid_5" viewBox="35 479 1335 2215"><path d="M 1183 886 Q 599 634 600 597 L 427 583 Q 334 597 823 806 M 933 606 L 760 479 Q 828 536 721 562 M 42 1770 Q 347 1811 600 1819 M 779 2185 L 813 2189 M 1257 1770 Q 1417 1608 564 1363 M 1326 1278 Q 1275 1137 485 896 M 1072 1803 L 1257 1770 M 747 1997 Q 585 1974 434 1929 708 2089 779 2185 M 813 2189 Q 939 2168 747 1997 M 843 1165 Q 1091 1193 1326 1278 M 564 1363 Q 299 1296 35 1217 M 182 858 L 843 1165 M 35 1217 Q 1102 1684 1072 1803 M 600 1819 Q -1 1544 42 1770 M 721 562 Q 861 565 933 606 M 485 896 L 182 858 M 823 806 Q 1021 822 1183 886" fill="#ffccff"></path><path d="M 1183 886 Q 1021 822 823 806 539 783 182 858 L 485 896 Q 891 960 1283 1090 1247 985 1188 888 L 1183 886 M 600 597 Q 852 628 1061 719 1001 652 937 608 L 933 606 Q 861 565 721 562 L 427 583 M 35 1217 Q 299 1296 564 1363 1193 1468 1335 1425 1335 1339 1326 1278 1091 1193 843 1165 M 434 1929 Q 585 1974 747 1997 M 1257 1770 L 1072 1803 M 813 2189 L 779 2185 Q 380 2131 212 2031 382 2197 613 2214 716 2221 813 2189 M 747 1997 Q 945 2002 1137 1954 1211 1866 1257 1770 M 600 1819 Q 347 1811 42 1770 M 843 1165 Q 456 1122 35 1217 M 1072 1803 L 600 1819 M 42 1770 Q 229 1869 434 1929 M 427 583 L 600 597" fill="#ffffff"></path></g><path id="cid_6" d="M 442 983 Q 273 890 -95 1131 85 1229 240 1303 -56 1265 -116 1555 -87 1696 244 1774 573 1852 605 2036 416 2027 -47 1811 L 111 2039 Q 315 2277 607 2299 780 2311 937 2222 L 936 2222 Q 1123 2124 1064 2008 1100 2022 1167 2032 1415 1926 1332 1673 1015 1350 664 1283 949 1301 1368 1490 1389 1380 1384 1286 L 1378 1188 1376 1187 Q 1274 1128 1172 1085 L 1130 1068 Q 986 974 891 915 1037 959 1358 1089 1258 858 1177 748 900 359 540 453 L 408 512 Q 471 588 553 619 360 659 134 782 173 824 442 983 L 444 984" viewBox="-116 435 1385 2300" fill="#ffcccc"></path><g id="cid_7" viewBox="-35 515 1335 2212"><path d="M 757 1018 Q 924 1033 1088 1095 M 826 2042 Q 943 2015 1004 1893 M 652 1662 Q 242 1500 -35 1573 M 532 534 Q 505 591 825 676 M 1091 1678 Q 1210 1717 1285 1704 M 273 1165 L 52 1153 M 1131 804 Q 1074 660 658 542 L 532 534 M 222 795 Q 218 873 757 1018 M 52 1153 Q 1046 1478 1091 1678 M -35 1573 Q 843 1746 826 2042 M 1004 1893 Q 888 1790 652 1662 M 1285 1704 Q 1051 1353 273 1165 M 1088 1095 Q 804 909 385 789 L 222 795 M 825 676 Q 989 702 1131 804" fill="#ffccff"></path><path d="M 385 789 Q 838 790 1217 943 1205 904 1131 804 989 702 825 676 554 633 222 795 L 385 789 M 658 542 Q 839 562 962 626 820 516 659 515 L 607 518 532 534 658 542 M 52 1153 L 273 1165 M 1285 1704 Q 1210 1717 1091 1678 M -35 1573 Q 242 1500 652 1662 M 1004 1893 Q 943 2015 826 2042 M 1088 1095 Q 924 1033 757 1018 412 986 52 1153 M 1091 1678 Q 58 1180 -35 1573 M 826 2042 Q 389 2139 171 2006 L 207 2058 Q 266 2158 564 2200 862 2242 937 2131 1012 2020 1005 1970 998 1920 1004 1893 M 652 1662 Q 1068 1846 1198 1822 1327 1798 1285 1704 M 273 1165 Q 795 1124 1335 1400 1334 1300 1314 1206 L 1314 1204 1312 1203 Q 1219 1149 1126 1110 L 1088 1095" fill="#ffffff"></path></g><path id="cid_8" d="M 931 777 L 1162 821 Q 1036 575 917 505 778 431 586 434 460 451 314 593 216 659 608 821 508 803 41 922 L 576 1212 -144 1282 Q 720 1630 706 1855 67 1433 61 1732 250 2028 500 2106 L 155 2023 Q 400 2283 603 2298 655 2302 705 2296 L 706 2296 Q 990 2263 914 2178 1173 2152 1197 2072 L 1223 1994 Q 1247 1922 1261 1809 1274 1696 1114 1625 L 1130 1628 Q 1186 1638 1326 1685 1368 1588 1376 1504 1382 1442 1393 1413 L 584 1016 Q 714 1033 916 1096 L 1358 1244 Q 1347 1198 1300 1058 L 1254 927 977 825 Q 833 770 751 729 816 752 931 777" viewBox="-144 434 1393 2300" fill="#ffcccc"></path><g id="cid_9" viewBox="18 519 1331 2214"><path d="M 1201 967 Q 623 753 475 591 M 377 615 Q 287 668 991 912 M 279 2092 Q 468 2190 702 2212 M 892 2105 L 675 2077 M 901 1298 Q 1122 1333 1327 1409 M 1025 1837 Q 1172 1755 1004 1639 M 482 1413 L 18 1310 M 151 1759 Q 310 1914 642 1918 M 597 582 Q 621 675 1100 769 839 587 597 582 M 475 591 L 377 615 M 142 924 L 901 1298 M 18 1310 Q 861 1640 1025 1837 M 642 1918 Q 134 1566 151 1759 M 675 2077 Q 821 2210 279 2092 M 702 2212 L 703 2212 Q 961 2182 892 2105 M 1004 1639 L 1002 1638 1001 1637 975 1620 999 1633 1002 1634 Q 1104 1653 482 1413 M 1327 1409 L 379 951 142 924 M 991 912 Q 1100 933 1201 967" fill="#ffccff"></path><path d="M 379 951 Q 833 1014 1303 1173 1279 1073 1233 979 L 1230 978 1201 967 Q 1100 933 991 912 614 838 142 924 L 379 951 M 1100 769 Q 1003 647 895 584 768 516 594 519 479 535 377 615 L 475 591 597 582 Q 839 587 1100 769 M 642 1918 Q 310 1914 151 1759 M 18 1310 L 482 1413 M 1004 1639 Q 1172 1755 1025 1837 M 1327 1409 Q 1122 1333 901 1298 M 675 2077 L 892 2105 M 702 2212 Q 468 2190 279 2092 M 901 1298 Q 489 1234 18 1310 M 1025 1837 Q 885 1921 642 1918 M 151 1759 Q 356 2020 675 2077 M 279 2092 Q 425 2200 609 2214 L 702 2212 M 892 2105 Q 1149 2037 1181 1878 1203 1764 1023 1647 L 1004 1639 M 482 1413 L 1296 1581 Q 1332 1528 1331 1410 L 1327 1409" fill="#ffffff"></path></g><g id="cid_12" viewBox="-344 -398 345 398"><path d="M 345 -199 L 18 -30 0 -398 -17 -30 -344 -199 -34 0 -344 199 -17 29 1 398 18 29 345 199 35 0 345 -199" fill="#ffffff"></path><path d="M 140 -141 Q 199 -83 199 0 199 81 140 139 83 197 0 197 -81 197 -140 139 -197 81 -197 0 -197 -83 -140 -141 -81 -199 0 -199 83 -199 140 -141 M 156 -156 Q 92 -220 0 -220 -91 -220 -156 -156 -220 -91 -220 0 -220 91 -156 155 -91 220 0 220 92 220 156 155 221 91 221 0 221 -91 156 -156" fill="#ffffff"></path></g><path id="cid_14" d="M 434 420 Q 434 458 424 492 408 546 365 589 341 613 314 628 373 628 424 610 485 587 536 536 627 445 627 315 627 185 536 92 485 42 424 20 373 0 314 0 184 0 91 93 12 172 0 284 L 27 251 Q 97 183 195 183 295 183 365 251 408 294 424 349 434 382 434 420" viewBox="0 0 627 628" fill="#ffcccc"></path><path id="cid_15" d="M 479 -105 Q 553 -109 620 -69 687 -30 686 94 723 54 723 -2 723 -62 682 -105 639 -146 580 -146 521 -146 479 -105" viewBox="479 -146 723 94" fill="#ffcccc"></path><g id="cid_16" viewBox="18 519 1331 2214"><path d="M 1201 967 Q 623 753 475 591 M 377 615 Q 287 668 991 912 M 279 2092 Q 468 2190 702 2212 M 892 2105 L 675 2077 M 901 1298 Q 1122 1333 1327 1409 M 1025 1837 Q 1172 1755 1004 1639 M 482 1413 L 18 1310 M 151 1759 Q 310 1914 642 1918 M 597 582 Q 621 675 1100 769 839 587 597 582 M 475 591 L 377 615 M 142 924 L 901 1298 M 18 1310 Q 861 1640 1025 1837 M 642 1918 Q 134 1566 151 1759 M 675 2077 Q 821 2210 279 2092 M 702 2212 L 703 2212 Q 961 2182 892 2105 M 1004 1639 L 1002 1638 1001 1637 975 1620 999 1633 1002 1634 Q 1104 1653 482 1413 M 1327 1409 L 379 951 142 924 M 991 912 Q 1100 933 1201 967" fill="#ffccff"></path><path d="M 379 951 Q 833 1014 1303 1173 1279 1073 1233 979 L 1230 978 1201 967 Q 1100 933 991 912 614 838 142 924 L 379 951 M 1100 769 Q 1003 647 895 584 768 516 594 519 479 535 377 615 L 475 591 597 582 Q 839 587 1100 769 M 642 1918 Q 310 1914 151 1759 M 18 1310 L 482 1413 M 1004 1639 Q 1172 1755 1025 1837 M 1327 1409 Q 1122 1333 901 1298 M 675 2077 L 892 2105 M 702 2212 Q 468 2190 279 2092 M 901 1298 Q 489 1234 18 1310 M 1025 1837 Q 885 1921 642 1918 M 151 1759 Q 356 2020 675 2077 M 279 2092 Q 425 2200 609 2214 L 702 2212 M 892 2105 Q 1149 2037 1181 1878 1203 1764 1023 1647 L 1004 1639 M 482 1413 L 1296 1581 Q 1332 1528 1331 1410 L 1327 1409" fill="#ffffff"></path></g><path id="cid_18" d="M -489 321 Q -576 321 -638 382 -699 444 -699 531 -699 618 -638 679 -576 741 -489 741 -402 741 -341 679 -279 618 -279 531 -279 444 -341 382 -402 321 -489 321 M -97 -237 Q -59 -275 -59 -329 -59 -383 -97 -421 -135 -459 -189 -459 -243 -459 -281 -421 -319 -383 -319 -329 -319 -275 -281 -237 -243 -199 -189 -199 -135 -199 -97 -237 M 1170 1551 Q 1200 1522 1200 1481 1200 1440 1170 1410 1141 1381 1100 1381 1059 1381 1029 1410 1000 1440 1000 1481 1000 1522 1029 1551 1059 1581 1100 1581 1141 1581 1170 1551 M 573 948 Q 526 901 460 901 394 901 347 948 300 995 300 1061 300 1127 347 1174 394 1221 460 1221 526 1221 573 1174 620 1127 620 1061 620 995 573 948 M 120 860 Q 141 840 141 811 141 782 120 761 100 741 71 741 42 741 21 761 1 782 1 811 1 840 21 860 42 881 71 881 100 881 120 860 M 157 225 Q 113 181 51 181 -11 181 -55 225 -99 269 -99 331 -99 393 -55 437 -11 481 51 481 113 481 157 437 201 393 201 331 201 269 157 225 M 788 413 Q 756 381 710 381 664 381 632 413 600 445 600 491 600 537 632 569 664 601 710 601 756 601 788 569 820 537 820 491 820 445 788 413 M 1040 731 Q 1040 851 1125 936 1210 1021 1330 1021 1450 1021 1535 936 1620 851 1620 731 1620 611 1535 526 1450 441 1330 441 1210 441 1125 526 1040 611 1040 731 M 1104 -77 Q 1055 -77 1020 -42 985 -7 985 42 985 91 1020 126 1055 161 1104 161 1153 161 1188 126 1223 91 1223 42 1223 -7 1188 -42 1153 -77 1104 -77 M 490 -169 Q 440 -119 440 -49 440 21 490 71 540 121 610 121 680 121 730 71 780 21 780 -49 780 -119 730 -169 680 -219 610 -219 540 -219 490 -169" viewBox="-699 -459 1620 1581" fill="#ffcccc"></path><path id="cid_19" d="M 1723 1461 L 1540 944 1540 1375 Q 1465 1344 1392 1309 1256 1243 1126 1160 963 1056 808 926 678 817 552 689 362 495 183 257 L 95 138 0 0 Q 207 453 558 890 642 996 735 1100 863 1244 1007 1387 L 1143 1518 1296 1655 Q 1419 1759 1514 1817 1597 1868 1658 1884 L 1713 1890 Q 1917 1876 1723 1232 L 1723 1461" viewBox="0 0 1818 1890" fill="#ffcccc"></path><g id="cid_20" viewBox="0 0 1532 1418"><path d="M 969 954 Q 926 877 863 831 L 832 811 Q 772 767 777 798 L 777 801 763 787 721 744 721 742 568 612 Q 426 489 374 434 L 371 430 Q 199 245 0 0 236 338 433 569 L 486 623 Q 533 668 585 735 636 802 708 877 L 798 965 803 970 804 969 811 980 Q 848 1055 1008 1134 L 1009 1134 1071 1198 Q 1122 1247 1247 1280 L 1248 1280 1293 1334 Q 1339 1366 1375 1387 L 1376 1388 1417 1408 1442 1417 1460 1418 1462 1418 Q 1555 1410 1525 1140 1473 1331 1346 839 1364 973 1342 1078 1336 1103 1329 1152 1314 1266 1413 1385 1266 1248 1240 1160 1212 1062 1329 1152 1172 1021 1169 1083 1130 1133 1246 1279 1061 1130 1038 1028 1014 924 1169 1083 1115 990 1058 940 1001 889 1015 926 1030 963 983 976 933 1017 1006 1130 755 889 871 867 915 871 969 954" fill="#ffffff"></path><path d="M 721 744 L 723 742 721 742 M 763 787 L 724 743 721 744 M 1008 1134 Q 1002 1132 1017 1147 L 1009 1134 M 983 976 Q 969 961 969 954 915 871 871 867 755 889 1006 1130 933 1017 983 976 M 1169 1083 Q 1014 924 1038 1028 1061 1130 1246 1279 1130 1133 1169 1083 M 1329 1152 Q 1212 1062 1240 1160 1266 1248 1413 1385 1314 1266 1329 1152 M 1009 1134 L 1008 1134 M 721 742 L 721 744 763 787" fill="#ffccff"></path></g><path id="cid_21" d="M -137 1323 Q -99 1285 -99 1231 -99 1177 -137 1139 -175 1101 -229 1101 -283 1101 -321 1139 -359 1177 -359 1231 -359 1285 -321 1323 -283 1361 -229 1361 -175 1361 -137 1323 M -1287 813 Q -1339 866 -1339 941 -1339 1016 -1287 1068 -1234 1121 -1159 1121 -1084 1121 -1032 1068 -979 1016 -979 941 -979 866 -1032 813 -1084 761 -1159 761 -1234 761 -1287 813 M -174 886 Q -139 851 -139 801 -139 751 -174 716 -209 681 -259 681 -309 681 -344 716 -379 751 -379 801 -379 851 -344 886 -309 921 -259 921 -209 921 -174 886 M -339 151 Q -339 213 -295 257 -251 301 -189 301 -127 301 -83 257 -39 213 -39 151 -39 89 -83 45 -127 1 -189 1 -251 1 -295 45 -339 89 -339 151 M 1607 1693 Q 1534 1620 1430 1620 1326 1620 1253 1693 1180 1766 1180 1870 1180 1974 1253 2047 1326 2120 1430 2120 1534 2120 1607 2047 1680 1974 1680 1870 1680 1766 1607 1693 M 540 1670 Q 540 1724 578 1762 616 1800 670 1800 724 1800 762 1762 800 1724 800 1670 800 1616 762 1578 724 1540 670 1540 616 1540 578 1578 540 1616 540 1670 M 228 893 Q 275 940 341 940 407 940 454 893 501 846 501 780 501 714 454 667 407 620 341 620 275 620 228 667 181 714 181 780 181 846 228 893 M 796 185 Q 752 141 690 141 628 141 584 185 540 229 540 291 540 353 584 397 628 441 690 441 752 441 796 397 840 353 840 291 840 229 796 185 M 1200 661 Q 1167 661 1143 684 1120 708 1120 741 1120 774 1143 797 1167 821 1200 821 1233 821 1256 797 1280 774 1280 741 1280 708 1256 684 1233 661 1200 661 M 961 925 Q 916 880 853 880 790 880 745 925 700 970 700 1033 700 1096 745 1141 790 1186 853 1186 916 1186 961 1141 1006 1096 1006 1033 1006 970 961 925 M 1389 30 Q 1360 60 1360 101 1360 142 1389 171 1419 201 1460 201 1501 201 1530 171 1560 142 1560 101 1560 60 1530 30 1501 1 1460 1 1419 1 1389 30 M 1975 1735 Q 1940 1770 1940 1820 1940 1870 1975 1905 2010 1940 2060 1940 2110 1940 2145 1905 2180 1870 2180 1820 2180 1770 2145 1735 2110 1700 2060 1700 2010 1700 1975 1735 M 1687 1288 Q 1740 1236 1740 1161 1740 1086 1687 1033 1635 981 1560 981 1485 981 1432 1033 1405 1060 1393 1093 1354 1059 1301 1059 1243 1059 1201 1100 1160 1142 1160 1200 1160 1258 1201 1299 1243 1341 1301 1341 1359 1341 1400 1299 L 1420 1275 1432 1288 Q 1485 1341 1560 1341 1635 1341 1687 1288 M 660 -467 Q 660 -370 728 -302 796 -234 893 -234 990 -234 1058 -302 1120 -364 1126 -449 1131 -435 1143 -423 1167 -399 1200 -399 1233 -399 1256 -423 1280 -446 1280 -479 1280 -512 1256 -536 1233 -559 1200 -559 1167 -559 1143 -536 1129 -521 1124 -503 1113 -577 1058 -632 990 -700 893 -700 796 -700 728 -632 660 -564 660 -467 M 141 -79 Q 224 -79 282 -138 341 -196 341 -279 341 -362 282 -421 224 -479 141 -479 58 -479 -1 -421 -59 -362 -59 -279 -59 -196 -1 -138 58 -79 141 -79" viewBox="-1339 -700 2180 2120" fill="#ffcccc"></path><path id="cid_22" d="M 1774 1441 Q 1837 78 1422 1105 L 956 749 560 442 396 314 0 0 Q 210 550 418 978 L 516 1173 Q 698 1525 879 1782 L 905 1818 Q 731 1728 505 1352 L 425 1213 Q 288 965 134 621 571 1901 818 2042 1065 2184 1091 2014 2224 2594 1959 1873 2562 961 1774 1441" viewBox="0 0 2220 2273" fill="#ffcccc"></path><g id="cid_23" viewBox="0 0 1822 1860"><path d="M 1738 1088 Q 1723 1505 981 1491 1376 1676 1622 1538 1576 1884 748 1583 M 308 280 Q 215 362 284 669 M 829 1483 Q 1275 1342 1636 1283 572 1341 823 1214 1190 955 1541 1204 M 613 1195 Q 719 705 1303 969 862 919 614 1196 M 563 1136 Q 236 327 664 580 M 790 676 Q 510 552 563 1136 M 259 614 Q 150 361 160 210 180 177 233 213 M 1541 1204 Q 1455 1080 1455 1007 1458 277 1391 612 1359 768 1170 860 1114 859 1045 831 947 790 790 676 M 664 580 Q 508 458 308 280 M 233 213 L 158 146 0 0 Q 76 211 259 614 M 284 669 L 284 670 Q 418 936 563 1136 L 563 1137 613 1195 M 614 1196 L 621 1204 630 1213 646 1231 655 1240 630 1213 743 1327 Q 849 1430 829 1483 M 748 1583 Q 1847 2159 1622 1538 1952 1157 1738 1088" fill="#ffffff"></path><path d="M 233 213 Q 180 177 160 210 150 361 259 614 M 563 1136 Q 510 552 790 676 M 664 580 Q 236 327 563 1136 M 614 1196 Q 862 919 1303 969 719 705 613 1195 M 1541 1204 Q 1190 955 823 1214 572 1341 1636 1283 1275 1342 829 1483 M 284 669 Q 215 362 308 280 M 748 1583 Q 1576 1884 1622 1538 1376 1676 981 1491 1723 1505 1738 1088 1557 1272 1541 1204 M 790 676 L 664 580 M 308 280 L 233 213 M 259 614 L 275 648 284 669 M 613 1195 L 613 1196 614 1196 M 829 1483 Q 851 1568 748 1583" fill="#ffccff"></path></g><path id="cid_24" d="M 1880 2880 Q 1772 2880 1696 2956 1620 3032 1620 3140 1620 3248 1696 3324 1772 3400 1880 3400 1988 3400 2064 3324 2140 3248 2140 3140 2140 3032 2064 2956 1988 2880 1880 2880 M 2864 2304 Q 2920 2249 2920 2170 2920 2091 2864 2035 2809 1980 2730 1980 2651 1980 2595 2035 2540 2091 2540 2170 2540 2249 2595 2304 2651 2360 2730 2360 2809 2360 2864 2304 M 736 2356 Q 780 2312 780 2250 780 2188 736 2144 692 2100 630 2100 568 2100 524 2144 480 2188 480 2250 480 2312 524 2356 568 2400 630 2400 692 2400 736 2356 M 1487 2513 Q 1534 2560 1600 2560 1666 2560 1713 2513 1760 2466 1760 2400 1760 2334 1713 2287 1666 2240 1600 2240 1534 2240 1487 2287 1440 2334 1440 2400 1440 2466 1487 2513 M 1521 1885 Q 1521 1832 1483 1794 1445 1756 1392 1756 1339 1756 1301 1794 1263 1832 1263 1885 1263 1938 1301 1976 1339 2014 1392 2014 1445 2014 1483 1976 1521 1938 1521 1885 M 680 1171 Q 680 1266 747 1333 815 1401 910 1401 1005 1401 1072 1333 1140 1266 1140 1171 1140 1076 1072 1008 1005 941 910 941 815 941 747 1008 680 1076 680 1171 M 384 545 Q 340 589 340 651 340 713 384 757 428 801 490 801 552 801 596 757 640 713 640 651 640 589 596 545 552 501 490 501 428 501 384 545 M 2793 1554 Q 2820 1528 2820 1491 2820 1454 2793 1427 2767 1401 2730 1401 2693 1401 2666 1427 2640 1454 2640 1491 2640 1528 2666 1554 2693 1581 2730 1581 2767 1581 2793 1554 M 2187 1528 Q 2260 1455 2260 1351 2260 1247 2187 1174 2114 1101 2010 1101 1906 1101 1833 1174 1760 1247 1760 1351 1760 1455 1833 1528 1906 1601 2010 1601 2114 1601 2187 1528 M 1633 974 Q 1660 948 1660 911 1660 874 1633 847 1607 821 1570 821 1533 821 1506 847 1480 874 1480 911 1480 948 1506 974 1533 1001 1570 1001 1607 1001 1633 974 M 3585 2665 Q 3620 2630 3620 2580 3620 2530 3585 2495 3550 2460 3500 2460 3450 2460 3415 2495 3380 2530 3380 2580 3380 2630 3415 2665 3450 2700 3500 2700 3550 2700 3585 2665 M 958 -18 Q 897 -79 810 -79 723 -79 661 -18 600 44 600 131 600 218 661 279 723 341 810 341 897 341 958 279 1020 218 1020 131 1020 44 958 -18" viewBox="340 -79 3620 3400" fill="#ffcccc"></path><path id="cid_25" d="M 3383 1494 Q 3485 738 2511 1144 3265 1158 2523 1733 2752 1542 1962 1550 2560 1954 1988 1890 548 1305 135 0 440 1186 1701 2570 1088 2235 465 1174 1039 2664 1850 3407 200 2289 858 3369 248 3064 585 3631 L 0 3734 877 3734 Q 939 4139 1714 3894 2242 4430 3166 3734 4891 4472 4406 3625 L 4998 3603 4308 3198 Q 5586 2260 4268 2596 L 4971 1903 4163 2077 Q 4450 1752 4500 556 3938 1206 3383 1494" viewBox="0 0 4998 4127" fill="#ffcbcb"></path><g id="cid_26" viewBox="0 0 4335 2859"><path d="M 3753 377 Q 3784 781 3373 980 3467 821 3299 887 3662 624 3753 377 M 2638 1423 Q 2812 2037 2006 1462 2063 2276 1705 1972 1664 2377 1080 1648 1937 2009 1850 1832 1661 1500 1221 1011 2267 1820 1723 1083 2827 1971 2394 1095 3035 1641 3007 1147 3719 1387 3226 1093 3981 1272 3166 1345 3217 1774 2638 1423 M 2042 969 Q 2782 708 2759 475 2959 809 2042 969 M 1113 832 Q 1269 823 1597 1078 1235 941 1113 832 M 1122 2351 Q 688 2226 1083 2450 766 2469 560 2125 354 1780 1109 2347 L 1122 2351 M 1993 2222 Q 2336 2544 2604 1891 3549 2190 3363 1795 3761 2206 2857 2110 1909 2731 1993 2222 M 3669 1564 Q 4668 719 3634 1029 4510 -794 2840 612 2964 -257 2481 347 1999 951 1682 905 1364 858 698 508 1787 1839 1387 1632 262 917 1513 2351 1339 2320 1068 2222 -6 1485 524 2342 -156 2003 238 2532 L 0 2571 495 2571 Q 688 2907 1451 2687 1461 3118 2723 2466 4486 3154 3766 2380 4454 2453 3711 2061 4979 1190 3669 1564" fill="#ffffff"></path><path d="M 1993 2222 Q 1909 2731 2857 2110 3761 2206 3363 1795 3549 2190 2604 1891 2336 2544 1993 2222 M 1122 2351 L 1109 2347 Q 354 1780 560 2125 766 2469 1083 2450 688 2226 1122 2351 M 1113 832 Q 1235 941 1597 1078 1269 823 1113 832 M 2042 969 Q 2959 809 2759 475 2782 708 2042 969 M 2638 1423 Q 3217 1774 3166 1345 3981 1272 3226 1093 3719 1387 3007 1147 3035 1641 2394 1095 2827 1971 1723 1083 2267 1820 1221 1011 1661 1500 1850 1832 1937 2009 1080 1648 1664 2377 1705 1972 2063 2276 2006 1462 2812 2037 2638 1423 M 3753 377 Q 3662 624 3299 887 3467 821 3373 980 3784 781 3753 377" fill="#ffccff"></path></g><path id="cid_27" d="M 3087 3767 Q 3140 3715 3140 3640 3140 3565 3087 3512 3035 3460 2960 3460 2885 3460 2832 3512 2780 3565 2780 3640 2780 3715 2832 3767 2885 3820 2960 3820 3035 3820 3087 3767 M 2098 3818 Q 2060 3856 2060 3910 2060 3964 2098 4002 2136 4040 2190 4040 2244 4040 2282 4002 2320 3964 2320 3910 2320 3856 2282 3818 2244 3780 2190 3780 2136 3780 2098 3818 M 2220 2860 Q 2220 2910 2255 2945 2290 2980 2340 2980 2390 2980 2425 2945 2460 2910 2460 2860 2460 2810 2425 2775 2390 2740 2340 2740 2290 2740 2255 2775 2220 2810 2220 2860 M 2833 2673 Q 2880 2626 2880 2560 2880 2494 2833 2447 2786 2400 2720 2400 2654 2400 2607 2447 2560 2494 2560 2560 2560 2626 2607 2673 2654 2720 2720 2720 2786 2720 2833 2673 M 334 3592 Q 381 3545 381 3479 381 3413 334 3366 287 3319 221 3319 155 3319 108 3366 61 3413 61 3479 61 3545 108 3592 155 3639 221 3639 287 3639 334 3592 M 2219 1979 Q 2260 1938 2260 1880 2260 1822 2219 1781 2178 1740 2120 1740 2062 1740 2021 1781 1980 1822 1980 1880 1980 1938 2021 1979 2062 2020 2120 2020 2178 2020 2219 1979 M 4484 3844 Q 4540 3789 4540 3710 4540 3631 4484 3575 4429 3520 4350 3520 4271 3520 4215 3575 4160 3631 4160 3710 4160 3789 4215 3844 4271 3900 4350 3900 4429 3900 4484 3844 M 3642 3202 Q 3680 3164 3680 3110 3680 3056 3642 3018 3604 2980 3550 2980 3496 2980 3458 3018 3420 3056 3420 3110 3420 3164 3458 3202 3496 3240 3550 3240 3604 3240 3642 3202 M 5153 1913 Q 5180 1887 5180 1850 5180 1813 5153 1786 5127 1760 5090 1760 5053 1760 5026 1786 5000 1813 5000 1850 5000 1887 5026 1913 5053 1940 5090 1940 5127 1940 5153 1913" viewBox="61 1740 5180 4040" fill="#ffcccc"></path><path id="cid_28" d="M 7187 5403 Q 7203 5108 6990 4905 6784 4708 6404 4637 L 8831 4637 6268 3859 Q 10217 1910 6008 3277 L 8877 1316 6202 2149 Q 7988 503 5704 609 5678 1887 5123 2175 5305 1928 5389 1595 5473 1264 5435 947 5395 611 5228 380 5043 126 4733 46 4265 -73 3897 113 3576 276 3432 609 3294 929 3397 1212 3508 1518 3852 1602 4305 1711 4564 1857 4807 1994 4840 2139 4872 2281 4695 2398 4512 2518 4145 2584 4981 3630 3349 2325 L 4016 3332 3226 2600 Q 3952 3710 3246 2982 3662 3746 3590 4088 1399 1792 2598 4050 1007 2698 1514 4298 L 0 5082 2160 5082 Q 299 6870 3168 5597 4542 7063 5679 5585 6439 5835 6805 5790 7169 5745 7187 5403" viewBox="0 0 8877 6327" fill="#ffcbcb"></path><path id="cid_29" d="M 2603 4011 Q 786 1908 1965 3997 1684 3234 2603 4011 M 4615 5420 Q 3564 6129 3431 5185 3526 5971 2550 5354 3679 6509 4615 5420 M 4970 5231 Q 6587 5888 5875 4766 5964 5132 5127 4767 5812 5333 4970 5231 M 5606 4028 Q 5967 4161 4931 4339 L 6553 4339 5606 4028 M 1726 4678 Q -99 6299 2368 5190 1171 5393 1726 4678 M 955 4174 L 0 4688 1633 4557 Q 812 4291 1828 4082 382 2854 955 4174 M 5115 2032 Q 6860 458 4987 614 5080 1220 4335 2223 5919 589 5115 2032 M 4883 2327 Q 6946 1696 5066 3024 L 7444 1424 4883 2327 M 4984 3357 Q 6207 2969 5193 3619 8223 2164 4984 3357 M 3243 2956 Q 5350 4344 3414 3606 3550 5292 2878 3305 3061 4016 2820 4482 2327 3715 2394 4482 1681 4578 2394 4901 2971 5122 3676 4901 4077 5350 4657 4967 5237 4547 4552 4155 5510 3592 4500 3017 4904 3855 3243 2956 M 3561 2556 Q 4453 2371 4180 2822 4655 2353 4924 2983 5069 2027 3561 2556 M 4453 931 Q 4442 611 4299 381 4159 157 3922 61 3680 -36 3385 21 2927 154 2803 499 2678 844 2766 1068 2854 1291 3227 1337 3600 1383 3891 1594 3287 905 3802 1100 3876 1133 3940 1177 4178 1339 4256 1817 4465 1274 4453 931" viewBox="0 0 7444 5948" fill="#ffffff"></path><g id="cid_30" viewBox="200 76 2018 1966"><path d="M 1923 1537 L 1740 1020 1740 1451 Q 1665 1420 1592 1385 1456 1319 1326 1236 1163 1132 1008 1002 878 893 752 765 562 571 383 333 L 295 214 200 76 Q 407 529 758 966 L 935 1176 Q 1063 1320 1207 1463 L 1343 1594 1496 1731 Q 1619 1835 1714 1893 1797 1944 1858 1960 L 1913 1966 Q 2117 1952 1923 1308 L 1923 1537" fill="#ffcccc"></path><path d="M 1403 1407 Q 1360 1330 1297 1284 L 1266 1264 Q 1206 1220 1211 1251 L 1211 1254 1197 1240 1155 1197 1155 1195 1002 1065 Q 860 942 808 887 L 805 883 Q 633 698 434 453 670 791 867 1022 L 920 1076 Q 967 1121 1019 1188 1070 1255 1142 1330 L 1232 1418 1237 1423 1238 1422 1245 1433 Q 1282 1508 1442 1587 L 1443 1587 1505 1651 Q 1556 1700 1681 1733 L 1682 1733 1727 1787 1809 1840 1810 1841 1851 1861 1876 1870 1894 1871 1896 1871 Q 1989 1863 1959 1593 1907 1784 1780 1292 1798 1426 1776 1531 1770 1556 1763 1605 1748 1719 1847 1838 1700 1701 1674 1613 1646 1515 1763 1605 1606 1474 1603 1536 1564 1586 1680 1732 1495 1583 1472 1481 1448 1377 1603 1536 1549 1443 1492 1393 1435 1342 1449 1379 1464 1416 1417 1429 1367 1470 1440 1583 1189 1342 1305 1320 1349 1324 1403 1407" fill="#ffffff"></path><path d="M 1155 1197 L 1157 1195 1155 1195 M 1197 1240 L 1158 1196 1155 1197 M 1442 1587 Q 1436 1585 1451 1600 L 1443 1587 M 1417 1429 Q 1403 1414 1403 1407 1349 1324 1305 1320 1189 1342 1440 1583 1367 1470 1417 1429 M 1603 1536 Q 1448 1377 1472 1481 1495 1583 1680 1732 1564 1586 1603 1536 M 1763 1605 Q 1646 1515 1674 1613 1700 1701 1847 1838 1748 1719 1763 1605 M 1443 1587 L 1442 1587 M 1155 1195 L 1155 1197 1197 1240" fill="#ffccff"></path></g><g id="cid_31" viewBox="1090 835 3310 3108"><path d="M 2864 2276 Q 2927 913 2512 1940 L 2046 1584 1650 1277 1486 1149 1090 835 Q 1300 1385 1508 1813 L 1606 2008 Q 1788 2360 1969 2617 L 1995 2653 Q 1821 2563 1595 2187 L 1515 2048 Q 1378 1800 1224 1456 1661 2736 1908 2877 2155 3019 2181 2849 3314 3429 3049 2708 3652 1796 2864 2276" fill="#ffcccc"></path><path d="M 3071 2245 Q 3056 2662 2314 2648 2709 2833 2955 2695 2909 3041 2081 2740 M 1641 1437 Q 1548 1519 1617 1826 M 2162 2640 Q 2608 2499 2969 2440 1905 2498 2156 2371 2523 2112 2874 2361 M 1946 2352 Q 2052 1862 2636 2126 2195 2076 1947 2353 M 1896 2293 Q 1569 1484 1997 1737 M 2123 1833 Q 1843 1709 1896 2293 M 1592 1771 Q 1483 1518 1493 1367 1513 1334 1566 1370 M 2874 2361 Q 2788 2237 2788 2164 2791 1434 2724 1769 2692 1925 2503 2017 2447 2016 2378 1988 2280 1947 2123 1833 M 1997 1737 Q 1841 1615 1641 1437 M 1566 1370 L 1491 1303 1333 1157 Q 1409 1368 1592 1771 M 1617 1826 L 1617 1827 Q 1751 2093 1896 2293 L 1896 2294 1946 2352 M 1947 2353 L 1954 2361 1963 2370 1979 2388 1988 2397 1963 2370 2076 2484 Q 2182 2587 2162 2640 M 2081 2740 Q 3180 3316 2955 2695 3285 2314 3071 2245" fill="#ffffff"></path><path d="M 1566 1370 Q 1513 1334 1493 1367 1483 1518 1592 1771 M 1896 2293 Q 1843 1709 2123 1833 M 1997 1737 Q 1569 1484 1896 2293 M 1947 2353 Q 2195 2076 2636 2126 2052 1862 1946 2352 M 2874 2361 Q 2523 2112 2156 2371 1905 2498 2969 2440 2608 2499 2162 2640 M 1617 1826 Q 1548 1519 1641 1437 M 2081 2740 Q 2909 3041 2955 2695 2709 2833 2314 2648 3056 2662 3071 2245 2890 2429 2874 2361 M 2123 1833 L 1997 1737 M 1641 1437 L 1566 1370 M 1592 1771 L 1608 1805 1617 1826 M 1946 2352 L 1946 2353 1947 2353 M 2162 2640 Q 2184 2725 2081 2740" fill="#ffccff"></path></g><g id="cid_32" viewBox="1321 1158 6319 5285"><path d="M 4704 2652 Q 4806 1896 3832 2302 4586 2316 3844 2891 4073 2700 3283 2708 3881 3112 3309 3048 1869 2463 1456 1158 1761 2344 3022 3728 2409 3393 1786 2332 2360 3822 3171 4565 1521 3447 2179 4527 1569 4222 1906 4789 L 1321 4892 2198 4892 Q 2260 5297 3035 5052 3563 5588 4487 4892 6212 5630 5727 4783 L 6319 4761 5629 4356 Q 6907 3418 5589 3754 L 6292 3061 5484 3235 Q 5771 2910 5821 1714 5259 2364 4704 2652" fill="#ffcbcb"></path><path d="M 5498 2642 Q 5529 3046 5118 3245 5212 3086 5044 3152 5407 2889 5498 2642 M 4383 3688 Q 4557 4302 3751 3727 3808 4541 3450 4237 3409 4642 2825 3913 3682 4274 3595 4097 3406 3765 2966 3276 4012 4085 3468 3348 4572 4236 4139 3360 4780 3906 4752 3412 5464 3652 4971 3358 5726 3537 4911 3610 4962 4039 4383 3688 M 3787 3234 Q 4527 2973 4504 2740 4704 3074 3787 3234 M 2858 3097 Q 3014 3088 3342 3343 2980 3206 2858 3097 M 2867 4616 Q 2433 4491 2828 4715 2511 4734 2305 4390 2099 4045 2854 4612 L 2867 4616 M 3738 4487 Q 4081 4809 4349 4156 5294 4455 5108 4060 5506 4471 4602 4375 3654 4996 3738 4487 M 5414 3829 Q 6413 2984 5379 3294 6255 1471 4585 2877 4709 2008 4226 2612 3744 3216 3427 3170 3109 3123 2443 2773 3532 4104 3132 3897 2007 3182 3258 4616 3084 4585 2813 4487 1739 3750 2269 4607 1589 4268 1983 4797 L 1745 4836 2240 4836 Q 2433 5172 3196 4952 3206 5383 4468 4731 6231 5419 5511 4645 6199 4718 5456 4326 6724 3455 5414 3829" fill="#ffffff"></path><path d="M 3738 4487 Q 3654 4996 4602 4375 5506 4471 5108 4060 5294 4455 4349 4156 4081 4809 3738 4487 M 2867 4616 L 2854 4612 Q 2099 4045 2305 4390 2511 4734 2828 4715 2433 4491 2867 4616 M 2858 3097 Q 2980 3206 3342 3343 3014 3088 2858 3097 M 3787 3234 Q 4704 3074 4504 2740 4527 2973 3787 3234 M 4383 3688 Q 4962 4039 4911 3610 5726 3537 4971 3358 5464 3652 4752 3412 4780 3906 4139 3360 4572 4236 3468 3348 4012 4085 2966 3276 3406 3765 3595 4097 3682 4274 2825 3913 3409 4642 3450 4237 3808 4541 3751 3727 4557 4302 4383 3688 M 5498 2642 Q 5407 2889 5044 3152 5212 3086 5118 3245 5529 3046 5498 2642" fill="#ffccff"></path></g><g id="cid_33" viewBox="-419 477 8458 6804"><path d="M 6768 5880 Q 6784 5585 6571 5382 6365 5185 5985 5114 L 8412 5114 5849 4336 Q 9798 2387 5589 3754 L 8458 1793 5783 2626 Q 7569 980 5285 1086 5259 2364 4704 2652 4886 2405 4970 2072 5054 1741 5016 1424 4976 1088 4809 857 4624 603 4314 523 3846 404 3478 590 3157 753 3013 1086 2875 1406 2978 1689 3089 1995 3433 2079 3886 2188 4145 2334 4388 2471 4421 2616 4453 2758 4276 2875 4093 2995 3726 3061 4562 4107 2930 2802 L 3597 3809 2807 3077 Q 3533 4187 2827 3459 3243 4223 3171 4565 980 2269 2179 4527 588 3175 1095 4775 L -419 5559 1741 5559 Q -120 7347 2749 6074 4123 7540 5260 6062 6020 6312 6386 6267 6750 6222 6768 5880" fill="#ffcbcb"></path><path d="M 3035 4643 Q 1218 2540 2397 4629 2116 3866 3035 4643 M 5722 4433 Q 6045 4765 5603 5060 L 7239 4957 5722 4433 M 5123 5969 Q 4013 6749 3741 5795 3939 6591 2982 5986 4111 7141 5123 5969 M 5402 5863 Q 7095 6607 6266 5302 6273 5655 5559 5399 5844 5697 5402 5863 M 2158 5310 Q 333 6931 2800 5822 1603 6025 2158 5310 M 1387 4806 L 432 5320 2065 5189 Q 1244 4923 2260 4714 814 3486 1387 4806 M 3366 3272 Q 3638 3751 3234 3512 3500 5039 2955 4687 2410 4334 2648 4792 1900 4866 2440 5233 2980 5600 3698 5285 3920 5909 4752 5730 5718 5406 5067 4657 5623 3503 4102 3340 4300 3855 3366 3272 M 5429 3920 Q 5633 4154 5254 4525 8655 2796 5429 3920 M 5419 1246 Q 5665 2217 4798 2763 5273 2502 5506 2740 7292 1090 5419 1246 M 5342 3677 Q 5935 2268 4096 3215 5112 3077 5342 3677 M 5602 2836 Q 6018 3039 5498 3656 L 7876 2056 5602 2836 M 4885 1563 Q 4874 1243 4731 1013 4591 789 4354 693 4112 596 3817 653 3359 786 3235 1131 3110 1476 3198 1700 3286 1923 3659 1969 4032 2015 4323 2226 4467 1877 4571 2800 4897 1906 4885 1563" fill="#ffffff"></path></g><g id="cid_34" viewBox="-50 -50 2002 2130"><path d="M 843 559 L 682 794 595 881 Q 696 251 828 0 549 138 423 414 L 401 492 Q 430 817 574 1040 L 574 1001 Q 595 913 731 859 1264 672 1175 382 1031 568 843 559 M 710 1521 Q 1473 1273 1615 1056 1509 1559 710 1521 M 217 0 Q 115 222 88 462 L 272 643 272 722 Q 74 549 0 679 136 812 451 962 L 332 737 Q 296 626 332 444 331 365 217 0 M 1729 840 Q 1810 532 1651 285 1501 126 1287 77 793 4 703 578 L 932 376 Q 1156 380 1200 293 1458 91 1574 372 1648 654 1434 857 1220 1059 890 1256 559 1452 802 1172 1476 975 1329 566 1310 766 880 861 821 1014 706 1111 658 883 574 1170 424 949 401 1018 272 895 117 919 191 1025 293 1085 10 1352 392 1172 342 1243 475 1265 540 1275 573 1376 457 1394 371 1439 332 1460 279 1502 134 1618 91 1765 46 1916 122 2067 170 2107 203 2023 L 149 1927 Q 116 1865 149 1768 180 1716 302 1647 455 1560 592 1567 L 799 1584 Q 745 1828 899 1999 956 1875 937 1780 917 1684 825 1583 L 1055 1578 Q 1070 1831 1244 1948 1294 1690 1092 1574 L 1264 1539 Q 1334 1681 1565 1707 L 1565 1696 Q 1513 1595 1468 1565 1422 1534 1304 1524 1423 1461 1493 1402 1665 1590 1798 1563 1750 1455 1703 1421 1652 1385 1523 1372 1596 1295 1635 1210 1757 1336 1952 1318 1847 1152 1644 1185 1647 1148 1729 840" fill="#ffffff"></path><path d="M 1729 840 Q 1647 1148 1644 1185 1847 1152 1952 1318 1757 1336 1635 1210 1596 1295 1523 1372 1652 1385 1703 1421 1750 1455 1798 1563 1665 1590 1493 1402 1423 1461 1304 1524 1422 1534 1468 1565 1513 1595 1565 1696 L 1565 1707 Q 1334 1681 1264 1539 L 1092 1574 Q 1294 1690 1244 1948 1070 1831 1055 1578 L 825 1583 Q 917 1684 937 1780 956 1875 899 1999 745 1828 799 1584 L 592 1567 Q 455 1560 302 1647 180 1716 149 1768 116 1865 149 1927 L 203 2023 Q 170 2107 122 2067 46 1916 91 1765 134 1618 279 1502 332 1460 371 1439 457 1394 573 1376 540 1275 475 1265 342 1243 392 1172 10 1352 293 1085 191 1025 117 919 272 895 401 1018 424 949 574 1170 658 883 706 1111 821 1014 880 861 1310 766 1329 566 1476 975 802 1172 559 1452 890 1256 1220 1059 1434 857 1648 654 1574 372 1458 91 1200 293 1156 380 932 376 L 703 578 Q 793 4 1287 77 1501 126 1651 285 1810 532 1729 840 M 843 559 L 682 794 595 881 Q 696 251 828 0 549 138 423 414 L 401 492 Q 430 817 574 1040 L 574 1001 Q 595 913 731 859 1264 672 1175 382 1031 568 843 559 M 217 0 Q 331 365 332 444 296 626 332 737 L 451 962 Q 136 812 0 679 74 549 272 722 L 272 643 88 462 Q 115 222 217 0 M 710 1521 Q 1473 1273 1615 1056 1509 1559 710 1521" fill="none" stroke="#ff99cc" stroke-width="100" stroke-linecap="round" stroke-linejoin="round"></path><path d="M 843 559 L 682 794 595 881 Q 696 251 828 0 549 138 423 414 L 401 492 Q 430 817 574 1040 L 574 1001 Q 595 913 731 859 1264 672 1175 382 1031 568 843 559 M 1615 1056 Q 1509 1559 710 1521 1473 1273 1615 1056 M 217 0 Q 115 222 88 462 L 272 643 272 722 Q 74 549 0 679 136 812 451 962 L 332 737 Q 296 626 332 444 331 365 217 0 M 1729 840 Q 1810 532 1651 285 1501 126 1287 77 793 4 703 578 L 932 376 Q 1156 380 1200 293 1458 91 1574 372 1648 654 1434 857 1220 1059 890 1256 559 1452 802 1172 1476 975 1329 566 1310 766 880 861 821 1014 706 1111 658 883 574 1170 424 949 401 1018 272 895 117 919 191 1025 293 1085 10 1352 392 1172 342 1243 475 1265 540 1275 573 1376 457 1394 371 1439 332 1460 279 1502 134 1618 91 1765 46 1916 122 2067 170 2107 203 2023 L 149 1927 Q 116 1865 149 1768 180 1716 302 1647 455 1560 592 1567 L 799 1584 Q 745 1828 899 1999 956 1875 937 1780 917 1684 825 1583 L 1055 1578 Q 1070 1831 1244 1948 1294 1690 1092 1574 L 1264 1539 Q 1334 1681 1565 1707 L 1565 1696 Q 1513 1595 1468 1565 1422 1534 1304 1524 1423 1461 1493 1402 1665 1590 1798 1563 1750 1455 1703 1421 1652 1385 1523 1372 1596 1295 1635 1210 1757 1336 1952 1318 1847 1152 1644 1185 1647 1148 1729 840" fill="#ffffff"></path></g><path id="cid_36" d="M 2603 4011 Q 786 1908 1965 3997 1684 3234 2603 4011 M 5290 3801 Q 5613 4133 5171 4428 L 6807 4325 5290 3801 M 4691 5337 Q 3581 6117 3309 5163 3507 5959 2550 5354 3679 6509 4691 5337 M 4970 5231 Q 6663 5975 5834 4670 5841 5023 5127 4767 5412 5065 4970 5231 M 1726 4678 Q -99 6299 2368 5190 1171 5393 1726 4678 M 955 4174 L 0 4688 1633 4557 Q 812 4291 1828 4082 382 2854 955 4174 M 2934 2640 Q 3206 3119 2802 2880 3068 4407 2523 4055 1978 3702 2216 4160 1468 4234 2008 4601 2548 4968 3266 4653 3488 5277 4320 5098 5286 4774 4635 4025 5191 2871 3670 2708 3868 3223 2934 2640 M 4997 3288 Q 5201 3522 4822 3893 8223 2164 4997 3288 M 4987 614 Q 5233 1585 4366 2131 4841 1870 5074 2108 6860 458 4987 614 M 4910 3045 Q 5503 1636 3664 2583 4680 2445 4910 3045 M 5170 2204 Q 5586 2407 5066 3024 L 7444 1424 5170 2204 M 4453 931 Q 4442 611 4299 381 4159 157 3922 61 3680 -36 3385 21 2927 154 2803 499 2678 844 2766 1068 2854 1291 3227 1337 3600 1383 3891 1594 4035 1245 4139 2168 4465 1274 4453 931" viewBox="0 0 7444 5927" fill="#ffffff"></path></defs></svg>
