<?xml version="1.0" encoding="utf-8"?>
<!DOCTYPE svg PUBLIC "-//W3C//DTD SVG 1.1//EN" "http://www.w3.org/Graphics/SVG/1.1/DTD/svg11.dtd">
<svg xmlns="http://www.w3.org/2000/svg" xmlns:xlink="http://www.w3.org/1999/xlink" version="1.1" width="4800" height="3900"><defs><use id="cid_101" transform="matrix(20,0,0,20,-2400,-1950)" xlink:href="#cid_102" viewBox="-2400 -1950 2400 1950"></use><path id="cid_54" d="M 433 302 Q 413 260 401 176 389 260 370 302 350 345 308 365 265 384 181 396 265 408 308 428 350 447 370 490 389 532 401 616 413 532 433 490 452 447 495 428 537 408 621 396 537 384 495 365 452 345 433 302" viewBox="181 176 621 616" fill="#ffffff"></path><g id="cid_5" viewBox="-224 -424 214 424"><path d="M 186 -376 Q 128 -453 27 -407 L -63 -346 Q -107 -317 -127 -232 L -162 -20 Q -180 97 -175 210 -169 325 -141 360 -68 450 63 -62 L 171 -180 Q 248 -293 186 -376" fill="#feffbd"></path><path d="M -137 -326 Q -182 -231 -206 1 -215 88 -224 258 -227 341 -195 384 -170 418 -129 423 -92 428 -62 408 -27 384 -8 331 41 189 102 -52 113 -98 74 -103 34 -108 24 -72 L -61 240 Q -92 344 -116 344 -162 344 -133 62 -106 -208 -63 -322 -51 -354 -83 -362 -116 -370 -137 -326" fill="#000000"></path></g><g id="cid_93" viewBox="-1181 -431 123 375"><path d="M -301 -127 Q -349 -179 -426 -156 -490 -138 -509 -106 -525 -79 -670 81 -614 102 -452 -10 L -301 -127" fill="#363636"></path><path d="M -537 -155 Q -537 -201 -704 -92 L -871 25 Q -792 29 -672 -56 -559 -147 -537 -155" fill="#363636"></path><path d="M -418 -156 L -490 -159 Q -569 -152 -607 -106 -668 -31 -759 22 -732 44 -661 10 -592 -23 -546 -77 -508 -122 -459 -143 L -418 -156" fill="#363636"></path><path d="M -404 -159 Q -435 -218 -580 -200 -709 -185 -741 -156 -767 -133 -1000 14 -919 22 -824 -22 -774 -45 -677 -109 -624 -144 -509 -155 L -404 -159" fill="#363636"></path><path d="M -437 -180 Q -437 -236 -580 -225 L -724 -202 Q -732 -188 -1038 -59 -960 -20 -848 -72 -786 -100 -683 -166 -627 -195 -526 -190 L -437 -180" fill="#363636"></path><path d="M -476 -216 Q -506 -238 -564 -254 -679 -286 -817 -257 -928 -233 -1066 -181 L -1181 -134 -1032 -135 Q -860 -144 -746 -183 -686 -204 -575 -212 L -476 -216" fill="#363636"></path><path d="M -271 -98 Q -257 -118 -299 -108 -339 -99 -391 -74 -534 -5 -467 24 -404 51 -331 -21 L -271 -98" fill="#363636"></path><path d="M -225 -79 Q -247 -98 -319 -38 L -386 26 Q -342 27 -293 4 -250 -16 -227 -42 -218 -53 -220 -67 L -225 -79" fill="#363636"></path><path d="M -313 -117 Q -376 -120 -469 -46 L -577 39 -547 41 -480 30 Q -439 18 -271 -130 L -313 -117" fill="#363636"></path><path d="M -198 -131 L -232 -128 -297 -111 Q -339 -92 -370 -95 L -330 -83 Q -272 -78 -179 -111 L -198 -131" fill="#474747"></path><path d="M -211 -171 L -249 -192 Q -261 -191 -350 -219 -452 -252 -506 -281 -557 -309 -598 -309 L -628 -304 Q -582 -305 -523 -242 -493 -210 -437 -196 L -472 -197 Q -454 -173 -425 -164 L -399 -159 -450 -158 Q -401 -109 -298 -115 -246 -118 -204 -131 L -211 -171" fill="#474747"></path><path d="M -437 -198 L -444 -193 -331 -177 -437 -198" fill="#000000"></path><path d="M -400 -161 L -416 -159 Q -388 -153 -369 -165 L -400 -161" fill="#000000"></path><path d="M -226 -169 L -302 -168 -265 -165 Q -226 -157 -213 -138 L -226 -169" fill="#000000"></path><path d="M -164 320 Q -125 203 -67 -29 L 41 -147 Q 118 -260 55 -343 -3 -420 -104 -374 L -193 -313 Q -238 -284 -258 -199 -268 -158 -291 13 L -315 170 Q -327 252 -327 292 L -164 320" fill="#000000"></path><path d="M -164 320 Q -125 203 -67 -29 L 41 -147 Q 118 -260 55 -343 -3 -420 -104 -374 L -193 -313 Q -238 -284 -258 -199 -268 -158 -291 13 L -315 170 Q -327 252 -327 292 L -164 320" fill="none" stroke="#000000" stroke-width="80" stroke-linecap="round" stroke-linejoin="round"></path><path d="M -179 215 Q -257 187 -350 206 -372 210 -384 261 -396 311 -381 316 L -334 317 -233 326 Q -180 336 -143 357 L -105 375 Q -96 375 -99 319 -102 262 -110 254 -136 231 -179 215" fill="#000000"></path><path d="M -171 303 Q -154 303 -154 287 -154 270 -171 270 -187 270 -187 287 -187 303 -171 303" fill="#bfbfbf"></path><path d="M -101 321 Q -91 308 -105 298 -118 289 -128 302 -138 316 -124 326 -111 335 -101 321" fill="#bfbfbf"></path><path d="M -338 210 L -326 206 -288 209 Q -271 211 -273 225 L -279 305 -284 315 -296 318 -334 315 Q -350 315 -350 299 L -344 220 -338 210 M -360 189 L -370 327 -366 339 -355 345 -280 351 -268 346 Q -263 342 -263 335 L -252 197 Q -251 190 -256 185 -260 180 -267 180 L -342 174 Q -349 173 -354 178 -359 182 -360 189" fill="#bfbfbf"></path><path d="M -216 279 Q -213 263 -252 256 -290 249 -288 271 -287 277 -279 276 L -249 278 -225 286 Q -218 288 -216 279" fill="#bfbfbf"></path></g><g id="cid_8" viewBox="-267 -453 200 412"><path d="M -41 -413 Q -82 -432 -147 -448 -205 -462 -238 -435 -270 -409 -267 -355 -262 -226 -100 -85 L -54 150 Q 9 382 94 371 182 359 145 31 111 -267 74 -327 32 -380 -41 -413" fill="#feffbd"></path><path d="M 108 -348 Q 89 -388 57 -368 25 -349 40 -306 102 -133 116 99 131 326 87 332 50 337 -9 122 L -61 -95 Q -73 -138 -113 -130 -152 -123 -139 -76 L -99 88 Q -52 265 -23 331 -8 363 16 384 54 420 102 410 181 393 192 295 212 144 181 -65 153 -257 108 -348" fill="#000000"></path></g><g id="cid_92" viewBox="-272 -491 1096 308"><path d="M 215 -228 L 361 -97 Q 519 31 576 13 437 -163 422 -193 406 -227 342 -251 265 -279 215 -228" fill="#363636"></path><path d="M 453 -242 Q 475 -232 583 -130 700 -32 779 -31 L 617 -165 Q 454 -289 453 -242" fill="#363636"></path><path d="M 333 -251 L 374 -235 Q 422 -209 458 -160 502 -100 570 -61 640 -21 667 -42 L 615 -83 Q 556 -134 520 -185 484 -236 405 -249 L 333 -251" fill="#363636"></path><path d="M 657 -229 Q 625 -261 497 -285 352 -314 319 -255 L 424 -243 Q 539 -224 591 -184 684 -111 734 -83 827 -31 909 -34 682 -203 657 -229" fill="#363636"></path><path d="M 799 -187 Q 646 -269 642 -278 571 -300 499 -311 356 -333 353 -275 L 443 -279 Q 543 -277 599 -243 L 760 -133 Q 871 -72 950 -108 L 799 -187" fill="#363636"></path><path d="M 663 -257 Q 776 -208 947 -187 L 1096 -176 983 -233 Q 848 -297 737 -329 600 -368 483 -343 L 394 -309 493 -298 Q 604 -283 663 -257" fill="#363636"></path><path d="M 183 -200 L 240 -116 Q 310 -36 374 -60 443 -86 303 -167 251 -197 212 -209 170 -221 183 -200" fill="#363636"></path><path d="M 137 -183 L 132 -171 Q 128 -157 137 -145 158 -116 201 -92 249 -64 294 -63 L 229 -134 Q 160 -202 137 -183" fill="#363636"></path><path d="M 226 -217 L 184 -233 270 -149 Q 361 -62 387 -53 427 -38 454 -37 L 484 -37 379 -133 Q 289 -216 226 -217" fill="#363636"></path><path d="M 519 -398 Q 479 -401 426 -375 371 -348 268 -320 L 166 -299 126 -280 117 -239 211 -216 Q 314 -203 365 -251 L 314 -255 340 -258 Q 370 -266 389 -289 L 354 -291 386 -300 Q 422 -314 441 -333 505 -395 549 -390 L 519 -398" fill="#474747"></path><path d="M 354 -293 L 246 -279 286 -279 361 -288 354 -293" fill="#000000"></path><path d="M 315 -257 L 285 -263 298 -256 331 -253 315 -257" fill="#000000"></path><path d="M 141 -278 L 126 -246 Q 140 -265 180 -270 L 214 -270 141 -278" fill="#000000"></path><path d="M 228 231 Q 230 185 209 100 181 -8 175 -55 152 -256 109 -325 67 -378 -6 -411 -47 -430 -112 -446 -170 -460 -203 -433 -235 -407 -232 -353 -227 -224 -65 -83 L -29 63 Q -5 166 26 257 L 228 231" fill="#000000"></path><path d="M 228 231 Q 230 185 209 100 181 -8 175 -55 152 -256 109 -325 67 -378 -6 -411 -47 -430 -112 -446 -170 -460 -203 -433 -235 -407 -232 -353 -227 -224 -65 -83 L -29 63 Q -5 166 26 257 L 228 231" fill="none" stroke="#000000" stroke-width="80" stroke-linecap="round" stroke-linejoin="round"></path><path d="M 116 261 L 217 252 264 252 Q 279 247 267 200 255 152 232 148 139 130 62 157 17 172 -7 194 -15 202 -18 255 -20 308 -12 308 L 26 291 Q 64 271 116 261" fill="#000000"></path><path d="M 65 239 Q 82 239 82 223 82 206 65 206 49 206 49 223 49 239 65 239" fill="#bfbfbf"></path><path d="M 228 157 L 234 237 Q 236 251 219 253 L 181 256 Q 165 258 163 242 L 157 163 Q 156 157 161 152 165 147 172 147 L 210 144 Q 226 142 228 157 M 151 117 Q 144 118 140 123 135 128 136 135 L 147 273 153 284 165 288 240 282 251 276 255 264 244 126 Q 242 111 226 111 L 151 117" fill="#bfbfbf"></path><path d="M 101 217 Q 102 226 110 224 L 133 216 163 214 173 208 Q 174 185 137 193 99 201 101 217" fill="#bfbfbf"></path></g><g id="cid_11" viewBox="-519 -401 530 552"><path d="M 463 -308 Q 231 -421 -125 -396 -404 -377 -489 -326 -510 -274 -509 -193 -508 -99 -475 -14 -490 113 -471 298 -456 447 -442 482 -440 486 -423 476 -406 467 -401 485 -399 498 -377 513 -349 532 -311 532 -273 532 -250 512 L -231 490 -175 501 -3 511 Q 151 511 228 489 L 259 513 Q 299 535 346 529 394 523 421 484 L 438 447 464 416 Q 482 396 483 378 494 278 481 -28 514 -107 492 -215 L 463 -308" fill="#feffbd"></path><path d="M 227 478 Q 217 439 179 449 L 93 467 -4 472 -122 462 -180 451 Q -220 440 -231 478 -242 517 -202 528 L -145 540 -4 552 Q 105 550 199 527 237 517 227 478" fill="#000000"></path><path d="M 449 167 Q 451 317 437 441 433 481 473 485 512 490 517 451 L 517 450 Q 540 295 521 -31 519 -72 479 -70 439 -67 441 -26 L 449 167" fill="#000000"></path><path d="M -515 234 Q -507 394 -480 496 -469 533 -431 524 -392 515 -402 476 -427 382 -433 209 L -435 -12 Q -433 -51 -473 -53 -513 -55 -515 -16 -523 98 -515 234" fill="#000000"></path></g><g id="cid_13" viewBox="-184 -220 184 231"><path d="M -85 49 Q -16 203 54 191 122 178 138 25 L 144 -181 105 -183 Q 28 -217 -40 -197 -83 -185 -109 -158 -132 -151 -144 -139 -144 -80 -85 49" fill="#feffbd"></path><path d="M 104 -184 L 94 9 Q 83 144 42 151 0 159 -47 46 -83 -41 -104 -143 -111 -182 -150 -178 -188 -175 -184 -136 -178 -83 -147 3 L -97 123 Q -68 187 -20 214 18 235 59 230 95 225 121 202 157 170 164 107 180 -38 184 -179 185 -219 147 -220 109 -221 104 -184" fill="#000000"></path></g><path id="cid_94" d="M 538 879 Q 461 845 393 865 350 877 324 904 315 907 289 934 L 256 966 265 1076 Q 276 1191 290 1216 312 1259 388 1281 454 1361 530 1339 554 1332 560 1299 L 561 1267 Q 632 1234 637 1189 643 1124 629 1025 615 921 617 893 L 538 879" viewBox="256 858 639 1344" fill="#000000"></path><g id="cid_16" viewBox="-176 -180 166 241"><path d="M 85 -159 L 20 -178 Q -54 -188 -99 -149 L -136 -133 Q -109 19 -84 85 -36 216 42 201 117 187 123 25 L 114 -133 Q 108 -152 85 -159" fill="#feffbd"></path><path d="M 86 28 Q 89 146 47 158 3 171 -42 58 -77 -29 -97 -140 -104 -180 -143 -173 -182 -166 -175 -126 -150 17 -107 110 -40 256 60 239 156 223 166 63 L 154 -137 Q 151 -178 113 -175 74 -171 74 -129 L 86 28" fill="#000000"></path></g><path id="cid_95" d="M -440 1196 Q -410 1245 -345 1269 -375 1299 -362 1319 -350 1337 -313 1337 -279 1337 -241 1320 -203 1303 -190 1283 -65 1261 -84 1134 -84 1060 -106 1005 L -128 965 Q -178 893 -201 886 -229 873 -266 867 -340 857 -385 896 L -459 918 Q -450 967 -455 1077 -460 1163 -440 1196" viewBox="-459 865 -81 1337" fill="#000000"></path><g id="cid_91" viewBox="-119 -257 1148 958"><path d="M 229 727 L 309 752 Q 408 776 503 776 598 776 708 751 L 798 726 229 727" fill="#ffffff"></path><path d="M 229 727 L 309 752 Q 408 776 503 776 598 776 708 751 L 798 726" fill="none" stroke="#000000" stroke-width="120" stroke-linecap="round" stroke-linejoin="round"></path><path d="M 772 -91 Q 686 243 476 239 366 238 287 104 227 2 218 -93 L 89 -7 229 727 309 752 Q 408 776 503 776 598 776 708 751 L 798 726 875 -37 772 -91" fill="#ffffff"></path><path d="M 758 -23 Q 691 108 631 168 560 239 476 239 398 239 318 135 287 96 213 -32" fill="none" stroke="#000000" stroke-width="40" stroke-linecap="round" stroke-linejoin="round"></path><path d="M 310 236 L 364 274 Q 428 312 483 312 539 312 609 265 645 242 669 218 538 290 481 290 448 290 376 263 L 310 236" fill="#c4c4c4"></path><path d="M 370 656 L 342 751 Q 447 795 635 767 729 754 802 731 L 802 687 Q 707 695 616 729 540 758 527 756 472 749 416 702 L 370 656" fill="#c4c4c4"></path><path d="M 385 513 L 380 628 Q 448 699 512 716 L 562 718 Q 498 718 435 616 L 385 513" fill="#c4c4c4"></path><path d="M 700 646 L 685 576 Q 631 629 558 627 502 626 482 606 464 588 473 615 481 639 517 661 573 695 642 674 677 664 700 646" fill="#c4c4c4"></path><path d="M 583 338 Q 600 349 635 351 615 345 585 301 L 559 258 Q 574 272 635 225 692 222 798 521 851 671 893 821 874 865 873 906 L 875 938 Q 864 927 848 892 L 833 859 Q 823 879 825 899 797 872 778 822 L 765 778 Q 765 809 746 858 746 804 723 758 709 729 704 686 L 703 649 Q 687 665 670 709 664 688 667 634 L 671 583 Q 663 591 651 626 645 602 652 539 L 658 495 Q 652 521 623 561 L 632 530 Q 634 515 628 476 623 442 634 405 L 646 376 Q 633 376 603 354 L 583 338 575 331 M 660 481 L 658 495" fill="none" stroke="#47483d" stroke-width="40" stroke-linecap="round" stroke-linejoin="round"></path><path d="M 559 258 L 585 301 Q 615 345 635 351 600 349 583 338 L 603 354 Q 633 376 646 376 L 634 405 Q 623 442 628 476 634 515 632 530 L 623 561 Q 652 521 658 495 L 652 539 Q 645 602 651 626 663 591 671 583 L 667 634 Q 664 688 670 709 687 665 703 649 L 704 686 Q 709 729 723 758 746 804 746 858 765 809 765 778 L 778 822 Q 797 872 825 899 823 879 833 859 L 848 892 Q 864 927 875 938 L 873 906 Q 874 865 893 821 851 671 798 521 692 222 635 225 574 272 559 258" fill="#e0e1d2"></path><path d="M 672 362 Q 665 381 664 400 664 425 638 451 681 425 712 384 L 696 423 Q 677 474 667 528 L 684 499 Q 703 469 718 462 L 702 490 Q 686 524 686 559 686 625 682 642 L 697 610 Q 717 572 733 569 L 726 622 Q 725 690 749 764 748 711 760 686 L 763 717 Q 768 754 780 786 L 801 825 817 866 825 835 Q 834 803 845 804 L 868 887 Q 884 836 897 823 L 689 232 646 243 591 237 610 258 Q 641 284 689 286 643 310 606 300 L 632 324 Q 662 347 679 347 L 672 362" fill="#9c9d90"></path><path d="M 419 278 L 416 283 Q 380 333 360 338 L 379 364 Q 399 397 401 431 L 410 485 426 512 Q 389 480 377 456 L 393 498 Q 415 558 414 582 L 384 545 401 593 Q 417 646 416 668 388 629 369 617 L 377 653 Q 383 695 375 727 364 780 376 830 347 787 340 756 L 337 802 Q 330 855 310 889 307 869 292 852 L 286 888 Q 278 926 270 938 L 265 906 Q 254 867 225 829 230 673 247 515 279 199 335 189 406 220 417 203 394 294 366 311 402 299 416 283 M 377 456 L 372 443" fill="none" stroke="#47483d" stroke-width="40" stroke-linecap="round" stroke-linejoin="round"></path><path d="M 417 203 Q 406 220 335 189 279 199 247 515 230 673 225 829 254 867 265 906 L 270 938 Q 278 926 286 888 L 292 852 Q 307 869 310 889 330 855 337 802 L 340 756 Q 347 787 376 830 364 780 375 727 383 695 377 653 L 369 617 Q 388 629 416 668 417 646 401 593 L 384 545 414 582 Q 415 558 393 498 L 377 456 Q 389 480 426 512 L 410 485 401 431 Q 399 397 379 364 L 360 338 Q 380 333 416 283 402 299 366 311 394 294 417 203" fill="#e0e1d2"></path><path d="M 330 209 L 285 209 222 832 Q 237 841 264 887 L 267 800 Q 277 798 295 826 L 310 854 Q 309 832 315 811 L 326 768 Q 330 734 327 696 L 323 666 Q 340 687 352 739 358 662 340 596 L 321 546 Q 346 545 387 603 L 364 525 Q 356 491 333 461 L 311 438 Q 337 444 376 490 354 440 324 396 L 298 362 Q 338 394 386 409 355 390 348 366 L 332 331 322 318 Q 348 311 381 254 347 273 297 261 343 248 368 215 L 381 190 Q 370 206 330 209" fill="#9c9d90"></path><path d="M 972 -24 L 882 -61 Q 870 -28 753 101 649 216 649 273 649 291 677 323 708 359 720 411 L 734 568 Q 740 656 783 738 801 772 903 856 L 1078 701 Q 1058 593 1046 452 1035 331 1035 251 1068 172 1023 66 L 972 -24" fill="#000000"></path><path d="M 940 791 Q 857 724 839 690 796 608 790 520 L 776 363 Q 765 311 733 271 705 235 705 217 L 673 249 Q 673 267 701 299 732 335 744 387 L 758 544 Q 764 632 807 714 825 748 913 819 L 940 791" fill="#363636"></path><path d="M 20 -42 Q -12 36 -22 91 -41 190 -10 270 -6 326 -9 406 L -12 526 Q -8 642 -29 746 7 797 121 836 L 228 865 273 803 Q 318 731 322 681 329 596 316 505 L 303 393 Q 305 346 310 324 L 350 200 Q 239 177 184 80 142 5 145 -80 49 -59 20 -42" fill="#000000"></path><path d="M -22 710 Q 21 765 219 821 279 711 282 677 289 592 278 503 L 266 393 Q 268 346 273 324 L 313 200 273 200 233 324 Q 228 346 226 393 L 238 503 Q 249 592 242 678 233 718 199 771 150 763 89 738 19 709 -18 674 L -22 710" fill="#363636"></path><path d="M 1069 652 L 1061 596 Q 1063 624 871 781 L 899 807 1069 652" fill="#363636"></path><path d="M 930 780 L 899 807 928 834 963 799 930 780" fill="#000000"></path><path d="M 747 474 Q 776 483 787 452 L 793 418 Q 782 446 761 446 L 742 441 747 474" fill="#000000"></path><path d="M 783 373 L 763 370 Q 742 370 742 382 742 392 761 396 781 401 783 409 L 783 373" fill="#000000"></path><path d="M 830 672 Q 832 712 812 724 L 847 711 Q 873 694 830 672" fill="#000000"></path><path d="M 776 652 L 795 694 Q 827 649 819 638 L 796 643 776 652" fill="#000000"></path><path d="M 1026 633 L 1004 661 Q 1005 714 1018 702 1041 678 1026 633" fill="#000000"></path><path d="M 982 737 Q 969 709 982 673 L 972 694 Q 961 722 961 753 L 982 737" fill="#000000"></path><path d="M 978 449 L 1063 409 Q 1073 395 1056 370 L 1037 349 Q 997 389 818 430 L 887 516 Q 896 487 978 449" fill="#8f8f8f"></path><path d="M 974 436 L 1049 403 Q 1060 380 1029 356 994 386 833 426 L 888 492 Q 900 467 974 436" fill="#3d3d3d"></path><path d="M 57 464 Q 138 487 151 513 L 199 420 109 411 Q 13 398 -14 378 L -28 401 Q -39 427 -28 439 L 57 464" fill="#8f8f8f"></path><path d="M 58 451 Q 131 468 146 490 L 184 418 Q 32 406 -5 383 L -16 400 Q -25 419 -16 431 L 58 451" fill="#3d3d3d"></path><path d="M 1038 458 L 1038 440 1018 440 1018 458 1038 458" fill="#9c9c9c"></path><path d="M 1040 497 L 1040 474 1013 474 1013 497 1040 497" fill="#9e9e9e"></path><path d="M 1050 523 L 1050 505 1030 505 1030 523 1050 523" fill="#9c9c9c"></path><path d="M 1043 560 L 1043 538 1019 538 1019 560 1043 560" fill="#cfcfcf"></path><path d="M 1017 592 L 1017 566 987 566 987 592 1017 592" fill="#9e9e9e"></path><path d="M 975 576 L 975 556 952 556 952 576 975 576" fill="#d9d9d9"></path><path d="M 949 547 L 949 523 922 523 922 547 949 547" fill="#a8a8a8"></path><path d="M 942 512 L 942 493 921 493 921 512 942 512" fill="#d9d9d9"></path><path d="M -3 686 L 3 717 Q 11 747 23 747 42 747 34 708 L -3 686" fill="#000000"></path><path d="M 78 761 Q 89 747 81 723 L 46 713 62 735 Q 76 759 65 770 L 78 761" fill="#000000"></path><path d="M 209 735 L 233 726 Q 260 718 273 726 L 268 713 Q 258 702 227 706 L 209 735" fill="#000000"></path><path d="M 241 672 Q 240 679 257 689 L 281 692 289 661 265 661 Q 241 663 241 672" fill="#000000"></path><path d="M 244 603 Q 283 580 281 557 279 543 260 548 L 241 556 244 603" fill="#000000"></path><path d="M 278 507 L 277 471 Q 258 483 240 475 L 227 464 Q 238 495 259 504 L 278 507" fill="#000000"></path><path d="M 897 794 L 917 779 934 758 923 759 Q 907 771 900 771 892 771 877 757 864 745 861 748 852 757 897 794" fill="#969696"></path><path d="M 231 748 L 221 762 204 783 178 783 Q 164 782 167 789 169 794 190 800 L 214 803 Q 243 753 231 748" fill="#969696"></path><path d="M 732 -156 Q 757 -59 738 3 L 759 -4 Q 727 52 670 86 L 678 93 693 100 664 125 Q 647 138 576 143 597 169 652 187 594 208 536 198 L 546 215 Q 560 233 581 236 L 514 245 Q 498 245 542 275 584 303 642 295 632 315 608 331 L 647 339 Q 701 340 778 306 789 338 782 361 804 362 815 351 L 802 373 843 370 Q 887 363 906 344 L 913 355 927 370 Q 927 349 946 316 L 964 287 978 287 Q 995 280 1012 251 1023 251 1023 267 1043 247 1046 217 L 1045 191 Q 1069 196 1095 226 L 1115 255 Q 1130 235 1129 225 L 1140 208 Q 1148 181 1129 133 1136 125 1147 139 1150 112 1142 77 1127 8 1073 -28 1029 -110 964 -172 835 -294 704 -241 L 732 -156" fill="#47483d"></path><path d="M 752 -152 Q 777 -61 751 -13 783 -38 805 -97 L 786 -23 Q 754 57 690 85 L 736 84 Q 720 109 683 118 750 115 766 97 759 110 735 123 687 149 601 151 L 642 165 Q 685 180 689 189 L 639 207 557 213 617 234 Q 567 266 539 257 L 580 271 670 279 Q 661 311 627 326 L 688 319 Q 753 307 775 281 L 792 292 Q 807 307 798 330 789 356 824 330 L 854 301 853 320 Q 847 349 825 359 L 892 320 Q 961 265 973 189 997 260 975 270 L 987 259 Q 1000 237 999 181 L 1008 190 Q 1018 205 1024 235 L 1025 198 Q 1023 156 1005 136 L 1025 154 Q 1048 172 1065 178 1089 187 1110 227 1109 212 1100 191 1083 150 1048 124 L 1076 141 Q 1108 166 1125 203 L 1110 139 Q 1085 66 1040 20 L 1081 52 Q 1125 88 1137 114 L 1122 64 Q 1099 9 1058 -14 1023 -82 963 -143 844 -265 722 -233 L 752 -152" fill="#e0e1d2"></path><path d="M 965 222 L 930 276 Q 916 310 919 346 L 923 327 Q 929 309 941 295 960 273 965 222" fill="#e0e1d2"></path><path d="M 925 291 L 900 304 Q 900 322 869 350 901 336 916 312 L 925 291" fill="#e0e1d2"></path><path d="M 1008 139 Q 981 102 972 80 L 976 97 Q 990 140 1022 172 1026 157 1008 139" fill="#47483d"></path><path d="M 999 181 L 984 152 986 168 Q 991 193 999 202 L 999 181" fill="#47483d"></path><path d="M 775 281 L 789 289 791 260 789 240 Q 789 264 775 281" fill="#47483d"></path><path d="M 801 314 Q 817 262 800 217 810 267 789 289 L 801 314" fill="#47483d"></path><path d="M 896 40 L 931 120 Q 959 212 920 276 943 253 951 212 968 129 896 40" fill="#47483d"></path><path d="M 913 138 Q 923 190 911 235 L 897 270 Q 927 233 923 182 L 913 138" fill="#47483d"></path><path d="M 755 -143 Q 776 -58 751 -13 783 -38 805 -97 L 786 -23 Q 754 57 690 85 L 736 84 722 98 745 95 Q 786 91 803 74 803 114 755 136 L 707 150 Q 751 151 772 138 L 783 126 Q 783 149 693 198 L 769 160 813 118 Q 852 71 849 -16 L 839 -94 Q 880 -66 917 -8 L 946 45 Q 935 -12 884 -90 L 835 -156 Q 866 -156 885 -138 L 899 -120 Q 886 -169 842 -208 L 801 -237 765 -239 723 -233 Q 742 -198 755 -143" fill="#9c9d90"></path><path d="M 863 41 Q 858 103 818 137 838 127 853 102 883 53 860 -17 L 863 41" fill="#47483d"></path><path d="M 661 323 Q 753 314 763 292 771 275 761 248 750 221 741 237 719 277 661 323" fill="#9c9d90"></path><path d="M 808 339 Q 820 339 855 303 902 242 875 228 865 223 852 228 840 232 840 241 840 275 808 339" fill="#9c9d90"></path><path d="M 717 216 Q 698 252 620 260 L 546 261 Q 616 287 666 280 697 264 710 239 L 717 216" fill="#9c9d90"></path><path d="M 688 210 L 729 210 Q 781 203 802 164 L 771 187 Q 733 209 688 210" fill="#47483d"></path><path d="M 779 193 Q 756 226 703 225 744 232 765 213 L 779 193" fill="#47483d"></path><path d="M 267 -156 L 293 -241 Q 172 -294 53 -172 -8 -110 -49 -28 -99 8 -113 77 -121 112 -118 139 L -112 133 Q -105 128 -100 133 -117 181 -111 208 L -101 225 Q -102 235 -88 255 L -69 226 Q -45 196 -23 191 L -24 217 Q -21 247 -3 267 L -1 259 8 251 Q 24 280 40 287 L 52 287 69 316 Q 86 349 86 370 L 106 344 Q 134 374 202 373 L 190 351 Q 201 362 221 361 215 338 225 306 297 340 347 339 372 339 383 331 L 358 307 351 295 Q 404 303 444 275 485 245 470 245 L 425 241 407 236 Q 438 231 450 198 L 376 196 342 187 Q 393 169 412 143 347 138 330 125 L 304 100 325 86 Q 292 65 264 28 L 242 -4 262 3 Q 245 -59 267 -156" fill="#47483d"></path><path d="M 248 -152 L 276 -233 Q 164 -265 53 -143 -2 -82 -35 -14 -73 9 -94 64 L -108 114 Q -97 88 -57 52 L -19 20 Q -60 66 -83 139 -94 176 -97 203 -81 166 -52 141 L -26 124 Q -58 150 -74 191 L -83 227 Q -64 187 -41 178 -17 169 14 136 -3 156 -5 198 L -3 235 Q 2 205 12 190 L 20 181 Q 19 237 30 259 L 42 270 Q 30 264 36 226 L 44 189 Q 55 265 119 320 151 347 181 359 160 349 155 320 L 155 301 183 330 Q 215 356 206 330 199 307 212 292 L 227 281 Q 248 307 309 319 L 365 326 Q 346 317 333 297 L 325 279 408 271 449 256 Q 422 267 374 234 L 430 213 354 207 308 189 Q 312 180 351 165 L 389 151 Q 309 149 265 123 L 242 103 Q 261 115 313 118 292 112 275 98 L 263 84 307 85 Q 248 57 218 -23 L 200 -97 Q 220 -38 250 -13 226 -61 248 -152" fill="#e0e1d2"></path><path d="M 73 295 Q 94 322 94 346 96 310 84 276 L 52 222 56 250 Q 62 281 73 295" fill="#e0e1d2"></path><path d="M 89 291 L 97 312 Q 111 336 140 350 112 322 112 304 L 89 291" fill="#e0e1d2"></path><path d="M 11 139 Q -5 157 -2 172 29 140 42 97 L 46 78 11 139" fill="#47483d"></path><path d="M 20 181 L 20 202 Q 28 193 32 168 L 34 153 20 181" fill="#47483d"></path><path d="M 227 281 Q 215 264 215 240 L 214 260 Q 213 282 215 289 L 227 281" fill="#47483d"></path><path d="M 203 314 L 215 289 Q 203 275 202 245 L 204 217 Q 189 262 203 314" fill="#47483d"></path><path d="M 82 120 L 115 40 Q 48 129 64 212 72 253 93 276 57 212 82 120" fill="#47483d"></path><path d="M 99 138 L 90 182 Q 87 233 114 270 L 101 235 Q 90 190 99 138" fill="#47483d"></path><path d="M 246 -143 Q 256 -188 275 -233 L 237 -239 204 -237 Q 186 -227 166 -208 125 -169 112 -120 L 125 -138 Q 143 -156 172 -156 L 127 -90 Q 79 -12 69 45 L 96 -8 Q 131 -66 168 -94 L 159 -16 Q 157 71 193 118 215 147 233 160 L 303 198 Q 220 149 220 126 L 231 138 Q 250 151 291 150 269 147 246 136 201 114 201 74 L 214 83 Q 232 93 256 95 L 276 98 263 84 307 85 Q 248 57 218 -23 L 200 -97 Q 220 -38 250 -13 227 -58 246 -143" fill="#9c9d90"></path><path d="M 146 41 L 148 -17 Q 127 53 156 102 170 127 188 137 151 103 146 41" fill="#47483d"></path><path d="M 333 323 Q 280 277 259 237 251 221 241 248 230 275 238 292 248 314 333 323" fill="#9c9d90"></path><path d="M 197 339 Q 167 275 167 241 167 232 155 228 144 223 135 228 110 242 154 303 186 339 197 339" fill="#9c9d90"></path><path d="M 281 216 L 288 239 Q 300 264 328 280 376 287 440 261 L 371 260 Q 299 252 281 216" fill="#9c9d90"></path><path d="M 203 164 Q 223 203 271 210 294 214 314 210 269 210 232 187 L 203 164" fill="#47483d"></path><path d="M 226 196 L 237 213 Q 257 232 294 225 L 267 221 Q 239 214 226 196" fill="#47483d"></path></g><g id="cid_99" viewBox="317 63 686 719"><path d="M 327 84 L 330 134 Q 337 195 351 245 397 406 506 406 615 406 657 240 670 188 674 125 L 676 73" fill="none" stroke="#000000" stroke-width="20" stroke-linecap="round" stroke-linejoin="round"></path><path d="M 579 493 Q 560 516 539 522 L 523 523 Q 525 494 541 468 L 556 448 524 452 508 422 494 452 462 448 477 468 Q 493 494 495 523 L 479 522 Q 458 516 439 493 L 437 502 Q 436 513 442 523 L 424 542 437 555 435 567 Q 433 580 437 583 L 457 568 Q 481 554 495 557 L 489 608 Q 479 664 458 685 L 463 688 485 685 509 710 533 685 Q 556 692 559 685 538 664 528 608 L 523 557 Q 545 552 581 583 587 578 581 555 L 594 542 575 523 580 502 579 493" fill="none" stroke="#4a4a4a" stroke-width="18" stroke-linecap="round" stroke-linejoin="round"></path><path d="M 579 493 Q 560 516 539 522 L 523 523 Q 525 494 541 468 L 556 448 524 452 508 422 494 452 462 448 477 468 Q 493 494 495 523 L 479 522 Q 458 516 439 493 L 437 502 Q 436 513 442 523 L 424 542 437 555 435 567 Q 433 580 437 583 L 457 568 Q 481 554 495 557 L 489 608 Q 479 664 458 685 L 463 688 485 685 509 710 533 685 Q 556 692 559 685 538 664 528 608 L 523 557 Q 545 552 581 583 587 578 581 555 L 594 542 575 523 580 502 579 493" fill="#333333"></path><path d="M 556 448 L 535 463 Q 515 487 517 529 L 523 523 Q 523 481 556 448" fill="#696969"></path><path d="M 517 529 Q 549 536 580 509 583 498 579 493 552 528 523 523 L 517 529" fill="#bfbfbf"></path><path d="M 529 540 Q 587 545 586 551 L 594 542 582 530 Q 582 540 529 540" fill="#ffffff"></path><path d="M 523 557 Q 544 553 581 583 L 584 577 583 573 Q 556 555 535 552 L 519 553 523 557" fill="#696969"></path><path d="M 519 553 L 518 595 Q 521 645 541 687 L 559 685 543 659 Q 526 620 523 557 L 519 553" fill="#696969"></path><path d="M 462 448 Q 495 481 495 523 L 501 529 Q 503 487 483 463 L 462 448" fill="#bfbfbf"></path><path d="M 501 529 L 495 523 Q 477 526 456 510 L 439 493 Q 434 498 438 509 469 536 501 529" fill="#bfbfbf"></path><path d="M 489 540 Q 435 540 435 530 L 424 542 433 552 437 548 489 540" fill="#ffffff"></path><path d="M 495 557 L 499 553 Q 478 544 434 573 L 434 577 437 583 458 569 Q 482 555 495 557" fill="#696969"></path><path d="M 499 553 L 495 557 Q 491 620 474 659 L 458 685 476 687 Q 497 645 500 595 L 499 553" fill="#bfbfbf"></path><path d="M 508 421 Q 492 421 492 404 492 387 508 387 525 387 525 404 525 421 508 421 M 508 372 Q 477 372 477 404 477 436 508 436 540 436 540 404 540 372 508 372" fill="#fffaf4"></path><path d="M 508 421 Q 492 421 492 404 492 387 508 387 525 387 525 404 525 421 508 421 M 508 382 Q 486 382 486 404 486 426 508 426 531 426 531 404 531 382 508 382" fill="#676462"></path><path d="M 508 439 L 498 457 502 470 507 527 510 495 Q 513 462 518 457 L 508 439" fill="#ffffff"></path><path d="M 507 556 L 506 707 509 710 513 706 507 556" fill="#ffffff"></path><path d="M 507 565 Q 530 565 530 542 530 518 507 518 484 518 484 542 484 565 507 565" fill="#696969"></path><path d="M 507 556 Q 522 556 522 542 522 527 507 527 493 527 493 542 493 556 507 556" fill="#fffaf4"></path></g><g id="cid_22" viewBox="-1038 -752 1038 751"><path d="M 516 -395 Q 631 -285 824 -40 902 63 938 188 1003 415 856 561 803 614 723 642 642 670 543 670 406 670 264 616 54 536 -74 536 -143 536 -216 557 -269 572 -361 611 -492 666 -616 666 -757 666 -849 594 -958 508 -958 344 -958 224 -876 78 -809 -41 -652 -237 -466 -470 -336 -563 -211 -653 -68 -669 -102 -599 -102 -509 -102 -493 -90 -481 -78 -469 -62 -469 -22 -469 -22 -519 -22 -605 27 -670 248 -651 516 -395 M 565 -475 Q 275 -752 -9 -752 -225 -752 -410 -610 -529 -519 -715 -287 -877 -84 -945 37 -1038 203 -1038 344 -1038 605 -821 704 -608 801 -330 684 -174 618 -86 616 31 612 236 691 427 765 611 747 802 728 913 618 1076 455 1027 214 994 55 888 -88 681 -365 565 -475" fill="#000000"></path><path d="M 516 -395 Q 248 -651 27 -670 -22 -605 -22 -519 -22 -469 -62 -469 -78 -469 -90 -481 -102 -493 -102 -509 -102 -599 -68 -669 -211 -653 -336 -563 -466 -470 -652 -237 -809 -41 -876 78 -958 224 -958 344 -958 508 -849 594 -757 666 -616 666 -492 666 -361 611 -269 572 -216 557 -143 536 -74 536 54 536 264 616 406 670 543 670 642 670 723 642 803 614 856 561 1003 415 938 188 902 63 824 -40 631 -285 516 -395" fill="#ffaec1"></path></g><g id="cid_100" viewBox="-318 -170 246 63"><path d="M -76 -169 L -141 -161 Q -225 -137 -318 -51 L -222 -66 Q -118 -96 -76 -169" fill="#1c1211"></path><path d="M 4 -169 Q 46 -96 150 -66 202 -51 246 -51 153 -137 69 -161 L 4 -169" fill="#1c1211"></path><path d="M -185 -51 L -132 -44 Q -104 -39 -86 -28 -66 -14 -35 -15 -7 -17 16 -30 31 -39 65 -42 L 117 -51 Q 85 -47 40 -64 -8 -83 -35 -83 L -108 -67 Q -153 -51 -185 -51" fill="#1c1211"></path><path d="M -153 1 Q -79 87 8 53 51 36 79 1 -1 54 -85 33 L -153 1" fill="#1c1211"></path></g><g id="cid_69" viewBox="-212 46 967 529"><path d="M 102 464 Q 149 411 145 341 141 271 90 226 38 181 -32 186 -102 191 -149 245 -196 298 -192 368 -188 437 -136 483 -84 528 -14 523 56 517 102 464" fill="#ffffff"></path><path d="M -32 186 L -46 188 Q -95 213 -122 260 -151 309 -148 365 -145 420 -112 463 -80 505 -30 523 L -14 523 Q 56 517 102 464 149 411 145 341 141 271 90 226 38 181 -32 186" fill="#00b9cc"></path><path d="M 113 251 Q 76 212 29 215 -21 219 -54 268 -87 318 -83 384 -81 430 -60 468 -39 504 -7 522 60 514 104 462 149 409 145 341 142 291 113 251" fill="#000000"></path><path d="M 120 259 L 133 227 Q 152 193 180 182" fill="none" stroke="#000000" stroke-width="20" stroke-linecap="round" stroke-linejoin="round"></path><path d="M 127 124 L 103 154 Q 80 189 82 220" fill="none" stroke="#000000" stroke-width="20" stroke-linecap="round" stroke-linejoin="round"></path><path d="M 81 56 L 52 92 Q 27 141 49 200" fill="none" stroke="#000000" stroke-width="20" stroke-linecap="round" stroke-linejoin="round"></path><path d="M 21 339 Q 30 326 29 310 28 293 18 282 9 271 -4 272 -17 273 -25 286 -33 298 -32 315 -31 331 -22 343 -12 354 0 353 13 352 21 339" fill="#ffffff"></path><path d="M -192 368 Q -196 298 -149 245 -102 191 -32 186 38 181 90 226 141 271 145 341" fill="none" stroke="#000000" stroke-width="41" stroke-linecap="round" stroke-linejoin="round"></path><path d="M 879 469 Q 926 416 922 346 918 276 866 231 814 185 744 191 674 196 628 249 581 302 585 372 589 442 641 487 692 532 762 527 832 522 879 469" fill="#ffffff"></path><path d="M 730 192 Q 682 218 654 265 626 314 629 369 632 424 665 467 697 510 746 527 L 762 527 Q 832 522 879 469 926 416 922 346 918 276 866 231 814 185 744 191 L 730 192" fill="#00b9cc"></path><path d="M 889 256 Q 852 216 805 220 755 224 722 273 689 322 693 388 695 435 716 472 737 509 769 526 837 518 881 466 926 413 922 346 919 296 889 256" fill="#000000"></path><path d="M 896 264 L 909 232 Q 928 197 957 186" fill="none" stroke="#000000" stroke-width="20" stroke-linecap="round" stroke-linejoin="round"></path><path d="M 903 129 L 880 159 Q 857 194 858 224" fill="none" stroke="#000000" stroke-width="20" stroke-linecap="round" stroke-linejoin="round"></path><path d="M 858 61 L 829 97 Q 804 145 825 205" fill="none" stroke="#000000" stroke-width="20" stroke-linecap="round" stroke-linejoin="round"></path><path d="M 798 344 Q 806 331 805 314 804 298 795 287 785 276 773 277 760 278 752 290 743 303 744 319 745 335 755 347 764 358 777 357 790 356 798 344" fill="#ffffff"></path><path d="M 585 372 Q 581 302 628 249 674 196 744 191 814 185 866 231 918 276 922 346" fill="none" stroke="#000000" stroke-width="41" stroke-linecap="round" stroke-linejoin="round"></path></g><g id="cid_70" viewBox="-222 52 956 237"><path d="M -163 147 Q -213 125 -213 136 -213 186 -141 217 -69 247 11 231 93 216 142 175 185 139 190 95 190 84 170 84 164 84 114 133 50 183 -23 181 -90 179 -163 147" fill="#000000"></path><path d="M -156 111 L -220 100 Q -233 109 -169 148 -100 190 -34 193 L -19 193 Q 51 193 114 148 174 106 178 64 178 52 158 52 L 118 74 Q 67 99 -14 113 -83 125 -156 111" fill="#000000"></path><path d="M 757 181 Q 684 183 620 133 L 564 84 Q 543 84 545 95 549 139 592 175 641 216 723 231 803 247 875 217 947 186 947 136 947 125 897 147 824 179 757 181" fill="#000000"></path><path d="M 768 193 Q 834 190 903 148 967 109 954 100 L 890 111 Q 817 125 748 113 667 99 616 74 582 52 576 52 556 52 556 64 560 106 620 148 683 193 753 193 L 768 193" fill="#000000"></path></g><g id="cid_57" viewBox="-222 52 956 237"><path d="M -163 147 Q -213 125 -213 136 -213 186 -141 217 -69 247 11 231 93 216 142 175 185 139 190 95 190 84 170 84 164 84 114 133 50 183 -23 181 -90 179 -163 147" fill="#000000"></path><path d="M -156 111 L -220 100 Q -233 109 -169 148 -100 190 -34 193 L -19 193 Q 51 193 114 148 174 106 178 64 178 52 158 52 L 118 74 Q 67 99 -14 113 -83 125 -156 111" fill="#000000"></path><path d="M 757 181 Q 684 183 620 133 L 564 84 Q 543 84 545 95 549 139 592 175 641 216 723 231 803 247 875 217 947 186 947 136 947 125 897 147 824 179 757 181" fill="#000000"></path><path d="M 768 193 Q 834 190 903 148 967 109 954 100 L 890 111 Q 817 125 748 113 667 99 616 74 582 52 576 52 556 52 556 64 560 106 620 148 683 193 753 193 L 768 193" fill="#000000"></path></g><g id="cid_58" viewBox="-216 40 965 515"><path d="M 120 253 L 133 221 Q 152 186 180 175" fill="none" stroke="#000000" stroke-width="20" stroke-linecap="round" stroke-linejoin="round"></path><path d="M 127 118 L 103 148 Q 80 183 82 213" fill="none" stroke="#000000" stroke-width="20" stroke-linecap="round" stroke-linejoin="round"></path><path d="M 81 50 L 52 86 Q 27 134 49 194" fill="none" stroke="#000000" stroke-width="20" stroke-linecap="round" stroke-linejoin="round"></path><path d="M 109 466 Q 153 445 150 378 147 295 96 221 40 138 -33 146 -106 154 -156 246 -199 328 -196 404 -193 464 -143 478 L -13 482 Q 81 479 109 466" fill="#ffffff"></path><path d="M -49 149 Q -100 178 -131 246 -160 308 -157 366 -154 416 -120 443 -94 464 -31 482 L -13 482 Q 81 479 109 466 153 445 150 378 147 295 96 221 40 138 -33 146 L -49 149" fill="#00b9cc"></path><path d="M 121 261 Q 86 191 35 182 -18 172 -57 230 -95 285 -91 353 -86 437 -5 482 83 479 112 465 153 443 150 378 146 316 121 261" fill="#000000"></path><path d="M 27 304 Q 36 293 35 277 34 260 24 246 13 233 -1 232 -15 232 -25 245 -34 257 -33 274 -32 290 -21 301 -11 312 3 313 17 314 27 304" fill="#ffffff"></path><path d="M -196 404 Q -199 328 -156 246 -106 154 -33 146 40 138 96 221 147 295 150 378" fill="none" stroke="#000000" stroke-width="41" stroke-linecap="round" stroke-linejoin="round"></path><path d="M -142 500 L -57 479 136 472" fill="none" stroke="#000000" stroke-width="30" stroke-linecap="round" stroke-linejoin="round"></path><path d="M 895 253 L 908 221 Q 927 186 955 175" fill="none" stroke="#000000" stroke-width="20" stroke-linecap="round" stroke-linejoin="round"></path><path d="M 902 118 L 878 148 Q 855 183 857 213" fill="none" stroke="#000000" stroke-width="20" stroke-linecap="round" stroke-linejoin="round"></path><path d="M 856 50 L 827 86 Q 802 134 824 194" fill="none" stroke="#000000" stroke-width="20" stroke-linecap="round" stroke-linejoin="round"></path><path d="M 895 253 L 908 221 Q 927 186 955 175" fill="none" stroke="#000000" stroke-width="20" stroke-linecap="round" stroke-linejoin="round"></path><path d="M 902 118 L 878 148 Q 855 183 857 213" fill="none" stroke="#000000" stroke-width="20" stroke-linecap="round" stroke-linejoin="round"></path><path d="M 856 50 L 827 86 Q 802 134 824 194" fill="none" stroke="#000000" stroke-width="20" stroke-linecap="round" stroke-linejoin="round"></path><path d="M 884 466 Q 928 445 925 378 922 295 871 221 815 138 742 146 669 154 619 246 576 328 579 404 582 464 632 478 L 762 482 Q 856 479 884 466" fill="#ffffff"></path><path d="M 726 149 Q 675 178 644 246 615 308 618 366 621 416 655 443 681 464 744 482 L 762 482 Q 856 479 884 466 928 445 925 378 922 295 871 221 815 138 742 146 L 726 149" fill="#2400ff"></path><path d="M 896 261 Q 861 191 810 182 757 172 718 230 680 285 684 353 689 437 770 482 858 479 887 465 928 443 925 378 921 316 896 261" fill="#000000"></path><path d="M 802 304 Q 811 293 810 277 809 260 799 246 788 233 774 232 760 232 750 245 741 257 742 274 743 290 754 301 764 312 778 313 792 314 802 304" fill="#ffffff"></path><path d="M 579 404 Q 576 328 619 246 669 154 742 146 815 138 871 221 922 295 925 378" fill="none" stroke="#000000" stroke-width="20" stroke-linecap="round" stroke-linejoin="round"></path><path d="M 884 466 Q 928 445 925 378 922 295 871 221 815 138 742 146 669 154 619 246 576 328 579 404 582 464 632 478 L 762 482 Q 856 479 884 466" fill="#ffffff"></path><path d="M 726 149 Q 675 178 644 246 615 308 618 366 621 416 655 443 681 464 744 482 L 762 482 Q 856 479 884 466 928 445 925 378 922 295 871 221 815 138 742 146 L 726 149" fill="#00b9cc"></path><path d="M 896 261 Q 861 191 810 182 757 172 718 230 680 285 684 353 689 437 770 482 858 479 887 465 928 443 925 378 921 316 896 261" fill="#000000"></path><path d="M 802 304 Q 811 293 810 277 809 260 799 246 788 233 774 232 760 232 750 245 741 257 742 274 743 290 754 301 764 312 778 313 792 314 802 304" fill="#ffffff"></path><path d="M 579 404 Q 576 328 619 246 669 154 742 146 815 138 871 221 922 295 925 378" fill="none" stroke="#000000" stroke-width="41" stroke-linecap="round" stroke-linejoin="round"></path><path d="M 633 500 L 718 479 911 472" fill="none" stroke="#000000" stroke-width="30" stroke-linecap="round" stroke-linejoin="round"></path></g><g id="cid_59" viewBox="-242 202 1045 494"><path d="M 944 293 L 960 331 Q 986 368 1036 365" fill="none" stroke="#000000" stroke-width="18" stroke-linecap="round" stroke-linejoin="round"></path><path d="M 933 418 Q 983 356 952 307 905 230 755 236 597 244 564 324 542 378 606 437 675 499 777 493 878 486 933 418" fill="#ffffff"></path><path d="M 744 237 Q 691 258 670 275 636 301 628 345 619 397 648 436 680 479 752 493 L 777 493 Q 878 486 933 418 983 356 952 307 905 230 755 236 L 744 237" fill="#00b9cc"></path><path d="M 892 260 L 809 255 Q 758 266 727 294 688 327 688 380 688 432 724 463 750 485 788 492 885 481 936 416 982 355 952 307 935 278 892 260" fill="#000000"></path><path d="M 807 345 Q 816 334 813 321 810 308 798 301 L 774 295 Q 760 297 751 306 742 316 743 329 744 343 756 351 767 360 783 358 798 357 807 345" fill="#ffffff"></path><path d="M 541 289 Q 575 279 631 272 L 746 254 Q 870 232 952 301" fill="none" stroke="#000000" stroke-width="40" stroke-linecap="round" stroke-linejoin="round"></path><path d="M 532 222 Q 575 254 693 250 828 245 887 266" fill="none" stroke="#000000" stroke-width="40" stroke-linecap="round" stroke-linejoin="round"></path><path d="M 147 277 L 171 310 Q 204 340 252 326" fill="none" stroke="#000000" stroke-width="18" stroke-linecap="round" stroke-linejoin="round"></path><path d="M 0 493 Q 99 486 151 416 201 351 170 301 122 220 -21 228 -175 236 -207 319 -229 375 -166 435 -100 499 0 493" fill="#ffffff"></path><path d="M -32 229 Q -82 250 -104 268 -138 296 -145 340 -154 394 -126 434 -95 478 -25 493 L 0 493 Q 99 486 151 416 201 351 170 301 122 220 -21 228 L -32 229" fill="#00b9cc"></path><path d="M 31 247 Q -19 259 -49 287 -87 322 -87 377 -87 430 -52 462 -26 485 10 491 105 480 154 413 199 350 170 301 153 271 111 252 L 31 247" fill="#000000"></path><path d="M 24 345 Q 33 334 30 321 27 308 16 301 L -9 295 Q -22 297 -31 306 -41 317 -40 329 -39 343 -27 351 -16 360 0 358 15 357 24 345" fill="#ffffff"></path><path d="M -223 319 Q -210 286 -142 256 -70 225 -11 238 L 90 258 Q 135 270 169 301" fill="none" stroke="#000000" stroke-width="39" stroke-linecap="round" stroke-linejoin="round"></path><path d="M -35 238 L 77 246 Q 192 250 211 231" fill="none" stroke="#000000" stroke-width="40" stroke-linecap="round" stroke-linejoin="round"></path></g><g id="cid_71" viewBox="-575 -7 642 335"><path d="M -182 64 L -156 92 Q -125 121 -95 124" fill="none" stroke="#000000" stroke-width="20" stroke-linecap="round" stroke-linejoin="round"></path><path d="M -213 39 L -206 85 Q -188 136 -130 161" fill="none" stroke="#000000" stroke-width="20" stroke-linecap="round" stroke-linejoin="round"></path><path d="M -483 298 Q -399 357 -306 321 -213 286 -176 190 -143 101 -182 49 -239 -27 -391 20 -549 69 -556 174 -562 244 -483 298" fill="#ffffff"></path><path d="M -403 24 Q -501 112 -499 192 -498 246 -451 287 -401 330 -330 329 L -306 321 Q -214 286 -177 190 -143 101 -182 49 -239 -27 -391 20 L -403 24" fill="#00b9cc"></path><path d="M -332 30 Q -375 60 -399 110 -426 165 -417 221 -410 264 -377 292 -343 320 -297 317 -208 279 -175 186 -144 100 -182 49 -205 18 -250 9 -295 6 -332 30" fill="#000000"></path><path d="M -302 153 Q -297 137 -303 122 -308 107 -321 101 -333 96 -345 101 -357 107 -363 122 -369 136 -365 151 L -348 174 Q -335 181 -322 174 -308 168 -302 153" fill="#ffffff"></path><path d="M -239 222 Q -235 212 -239 203 -243 193 -251 190 -258 186 -266 190 -274 193 -277 202 L -279 222 -268 236 -251 237 Q -242 233 -239 222" fill="#ffffff"></path><path d="M -509 153 Q -416 106 -366 93 -271 69 -182 66 -168 63 -163 52 -158 41 -167 30 -223 -33 -385 11 -447 28 -510 82 -575 136 -575 173 -575 187 -509 153" fill="#000000"></path><path d="M 553 198 Q 591 110 554 57 499 -22 346 19 185 60 174 165 166 234 242 293 323 355 417 324 511 293 553 198" fill="#ffffff"></path><path d="M 334 22 Q 232 106 230 186 228 240 274 282 322 328 393 330 L 417 324 Q 512 292 553 198 591 110 554 57 499 -22 346 19 L 334 22" fill="#00b9cc"></path><path d="M 488 14 Q 441 9 404 31 360 58 334 108 305 162 311 218 316 262 347 291 380 321 427 320 517 285 555 194 590 109 554 57 531 24 488 14" fill="#000000"></path><path d="M 428 155 Q 434 139 429 124 425 109 412 103 L 388 102 Q 376 107 369 121 362 136 366 151 369 167 381 174 L 408 176 Q 422 170 428 155" fill="#ffffff"></path><path d="M 564 72 Q 579 62 569 46 546 13 477 4 L 341 11 Q 283 25 226 74 172 120 155 163 145 188 201 157 290 109 334 96 393 79 483 76 L 564 72" fill="#000000"></path><path d="M 547 55 L 572 84 Q 602 113 632 117" fill="none" stroke="#000000" stroke-width="20" stroke-linecap="round" stroke-linejoin="round"></path><path d="M 519 51 L 533 96 Q 559 143 620 158" fill="none" stroke="#000000" stroke-width="20" stroke-linecap="round" stroke-linejoin="round"></path><path d="M 496 222 Q 500 212 496 203 492 193 484 190 477 186 469 190 461 193 458 202 454 212 456 222 L 467 236 484 237 496 222" fill="#ffffff"></path></g><g id="cid_72" viewBox="-222 52 956 237"><path d="M -163 147 Q -213 125 -213 136 -213 186 -141 217 -69 247 11 231 93 216 142 175 185 139 190 95 190 84 170 84 164 84 114 133 50 183 -23 181 -90 179 -163 147" fill="#000000"></path><path d="M -156 111 L -220 100 Q -233 109 -169 148 -100 190 -34 193 L -19 193 Q 51 193 114 148 174 106 178 64 178 52 158 52 L 118 74 Q 67 99 -14 113 -83 125 -156 111" fill="#000000"></path><path d="M 757 181 Q 684 183 620 133 L 564 84 Q 543 84 545 95 549 139 592 175 641 216 723 231 803 247 875 217 947 186 947 136 947 125 897 147 824 179 757 181" fill="#000000"></path><path d="M 768 193 Q 834 190 903 148 967 109 954 100 L 890 111 Q 817 125 748 113 667 99 616 74 582 52 576 52 556 52 556 64 560 106 620 148 683 193 753 193 L 768 193" fill="#000000"></path></g><g id="cid_61" viewBox="-222 51 967 529"><path d="M 879 469 Q 926 416 922 346 918 276 866 231 814 185 744 191 674 196 628 249 581 302 585 372 589 442 641 487 692 532 762 527 832 522 879 469" fill="#ffffff"></path><path d="M 730 192 Q 682 218 654 265 626 314 629 369 632 424 665 467 697 510 746 527 L 762 527 Q 832 522 879 469 926 416 922 346 918 276 866 231 814 185 744 191 L 730 192" fill="#00b9cc"></path><path d="M 889 256 Q 852 216 805 220 755 224 722 273 689 322 693 388 695 435 716 472 737 509 769 526 837 518 881 466 926 413 922 346 919 296 889 256" fill="#000000"></path><path d="M 896 264 L 909 232 Q 928 197 957 186" fill="none" stroke="#000000" stroke-width="20" stroke-linecap="round" stroke-linejoin="round"></path><path d="M 903 129 L 880 159 Q 857 194 858 224" fill="none" stroke="#000000" stroke-width="20" stroke-linecap="round" stroke-linejoin="round"></path><path d="M 858 61 L 829 97 Q 804 145 825 205" fill="none" stroke="#000000" stroke-width="20" stroke-linecap="round" stroke-linejoin="round"></path><path d="M 798 344 Q 806 331 805 314 804 298 795 287 785 276 773 277 760 278 752 290 743 303 744 319 745 335 755 347 764 358 777 357 790 356 798 344" fill="#ffffff"></path><path d="M 585 372 Q 581 302 628 249 674 196 744 191 814 185 866 231 918 276 922 346" fill="none" stroke="#000000" stroke-width="41" stroke-linecap="round" stroke-linejoin="round"></path><path d="M -163 361 Q -90 314 -23 312 50 309 114 380 L 170 451 184 446 190 434 Q 185 372 142 321 93 264 11 241 -69 218 -141 262 -213 305 -213 377 -213 392 -163 361" fill="#000000"></path><path d="M -156 413 L -14 409 Q 67 429 118 465 143 482 158 496 178 494 178 479 174 419 114 359 51 295 -19 295 L -34 295 Q -101 299 -169 359 -233 415 -220 428 L -156 413" fill="#000000"></path></g><g id="cid_73" viewBox="-19 -16 1242 278"><path d="M 1129 39 L 1152 72 Q 1185 103 1233 90" fill="none" stroke="#000000" stroke-width="18" stroke-linecap="round" stroke-linejoin="round"></path><path d="M 1144 163 Q 1180 92 1140 50 1078 -16 940 19 792 56 776 142 766 199 838 244 916 292 1011 266 1106 240 1144 163" fill="#ffffff"></path><path d="M 929 22 Q 883 53 867 73 840 106 841 150 843 203 878 235 916 271 987 271 L 1011 266 Q 1106 240 1144 163 1180 92 1140 50 1078 -16 940 19 L 929 22" fill="#00b9cc"></path><path d="M 1073 16 Q 1030 11 994 27 948 48 924 81 894 121 904 173 915 224 955 247 985 264 1021 263 1111 234 1146 160 1178 91 1140 50 1119 27 1073 16" fill="#000000"></path><path d="M 1005 117 Q 1011 104 1006 92 1000 80 988 75 L 963 74 Q 950 79 943 90 936 101 939 114 942 127 956 133 L 984 134 1005 117" fill="#ffffff"></path><path d="M 733 107 Q 772 115 826 86 899 47 927 40 L 1038 22 Q 1095 21 1138 44" fill="none" stroke="#000000" stroke-width="40" stroke-linecap="round" stroke-linejoin="round"></path><path d="M 776 51 Q 820 61 907 38 999 14 1068 23" fill="none" stroke="#000000" stroke-width="40" stroke-linecap="round" stroke-linejoin="round"></path><path d="M 168 271 Q 260 293 329 242 393 194 381 137 362 48 229 13 88 -24 32 47 -4 93 35 168 76 249 168 271" fill="#ffffff"></path><path d="M 218 11 Q 166 17 142 27 103 44 83 85 58 133 72 180 87 231 146 265 L 168 271 Q 260 293 329 242 393 194 381 137 362 48 229 13 L 218 11" fill="#00b9cc"></path><path d="M 270 46 Q 221 43 185 61 140 84 124 136 108 187 131 227 147 257 178 273 267 290 332 240 392 193 381 137 373 105 342 74 307 49 270 46" fill="#000000"></path><path d="M 228 136 Q 240 128 241 114 242 101 233 91 L 211 78 187 82 Q 175 89 172 101 168 114 177 126 185 138 201 141 216 144 228 136" fill="#ffffff"></path><path d="M 0 36 Q 26 6 104 3 187 -1 261 33 L 317 71 Q 350 95 396 107" fill="none" stroke="#000000" stroke-width="39" stroke-linecap="round" stroke-linejoin="round"></path><path d="M 376 54 Q 335 52 237 24" fill="none" stroke="#000000" stroke-width="40" stroke-linecap="round" stroke-linejoin="round"></path></g><g id="cid_74" viewBox="-221 368 969 536"><path d="M -159 457 L -86 451 Q 0 451 52 480 125 521 164 532 195 541 212 532 229 523 227 504 226 485 200 485 182 485 133 452 L 68 409 Q -2 377 -86 377 -183 379 -217 418 L -221 432 -214 445 Q -199 461 -159 457" fill="#000000"></path><path d="M 226 416 Q 209 449 158 446 L 36 418" fill="none" stroke="#000000" stroke-width="40" stroke-linecap="round" stroke-linejoin="round"></path><path d="M 17 509 L 104 518 166 532 Q 197 539 212 532 242 519 158 504 69 488 -24 506 L 17 509" fill="#000000"></path><path d="M 585 532 Q 623 521 696 480 748 451 834 451 L 908 457 Q 947 461 962 445 L 969 432 965 418 Q 931 379 834 377 751 377 680 409 L 616 452 Q 566 485 548 485 522 485 521 504 519 523 536 532 553 541 585 532" fill="#000000"></path><path d="M 494 388 Q 512 460 577 455 L 712 418" fill="none" stroke="#000000" stroke-width="40" stroke-linecap="round" stroke-linejoin="round"></path><path d="M 644 518 L 772 506 Q 679 488 590 504 506 519 536 532 552 539 582 532 L 644 518" fill="#000000"></path><path d="M 295 419 Q 286 461 223 473 259 469 286 455 339 428 291 380 L 295 419" fill="#000000"></path></g><g id="cid_63" viewBox="-212 -13 974 527"><path d="M 102 455 Q 148 393 143 311 139 229 86 176 34 122 -36 127 -106 133 -152 195 -197 257 -193 339 -188 421 -136 475 -84 528 -14 523 56 517 102 455" fill="#ffffff"></path><path d="M -127 262 Q -151 307 -148 365 -145 420 -112 463 -80 505 -30 523 L -14 523 Q 55 517 100 464 145 412 145 341 145 234 71 192 6 155 -54 188 -103 215 -127 262" fill="#00b9cc"></path><path d="M 123 439 Q 148 394 145 341 142 291 113 251 76 212 29 215 -21 219 -54 268 -87 318 -83 384 -78 455 -26 489 18 517 51 504 97 486 123 439" fill="#000000"></path><path d="M 120 200 L 133 168 Q 152 133 180 122" fill="none" stroke="#000000" stroke-width="20" stroke-linecap="round" stroke-linejoin="round"></path><path d="M 127 65 L 103 95 Q 80 130 82 161" fill="none" stroke="#000000" stroke-width="20" stroke-linecap="round" stroke-linejoin="round"></path><path d="M 81 -3 L 52 33 Q 27 82 49 141" fill="none" stroke="#000000" stroke-width="20" stroke-linecap="round" stroke-linejoin="round"></path><path d="M 21 339 Q 30 326 29 310 28 293 18 282 9 271 -4 272 -17 273 -25 286 -33 298 -32 315 -31 331 -22 343 -12 354 0 353 13 352 21 339" fill="#ffffff"></path><path d="M -192 308 Q -196 238 -149 185 -102 132 -32 127 38 122 90 167 141 212 145 282" fill="none" stroke="#000000" stroke-width="41" stroke-linecap="round" stroke-linejoin="round"></path><path d="M 885 459 Q 932 397 927 315 923 233 870 180 818 126 748 131 678 136 632 198 586 260 590 342 595 424 647 478 699 532 769 526 839 521 885 459" fill="#ffffff"></path><path d="M 656 265 Q 633 311 636 368 639 423 672 467 703 509 753 527 L 769 526 Q 838 521 884 468 929 416 929 345 929 238 854 196 789 159 730 192 681 219 656 265" fill="#00b9cc"></path><path d="M 906 443 Q 931 398 929 345 926 295 896 255 859 215 812 219 762 223 729 272 696 321 700 387 705 458 758 492 802 520 835 507 880 489 906 443" fill="#000000"></path><path d="M 903 204 L 916 172 Q 935 137 964 126" fill="none" stroke="#000000" stroke-width="20" stroke-linecap="round" stroke-linejoin="round"></path><path d="M 910 68 L 887 98 Q 864 134 865 164" fill="none" stroke="#000000" stroke-width="20" stroke-linecap="round" stroke-linejoin="round"></path><path d="M 865 1 L 836 37 Q 811 85 832 145" fill="none" stroke="#000000" stroke-width="20" stroke-linecap="round" stroke-linejoin="round"></path><path d="M 805 343 L 812 314 Q 811 297 802 286 792 275 780 276 767 277 759 289 750 302 751 318 753 335 762 346 771 357 784 356 797 355 805 343" fill="#ffffff"></path><path d="M 592 312 Q 588 242 635 189 681 136 751 131 821 125 873 171 925 216 929 286" fill="none" stroke="#000000" stroke-width="41" stroke-linecap="round" stroke-linejoin="round"></path></g><g id="cid_75" viewBox="0 0 1217 307"><path d="M 393 36 L 419 64 Q 450 93 480 96" fill="none" stroke="#000000" stroke-width="20" stroke-linecap="round" stroke-linejoin="round"></path><path d="M 362 11 L 369 57 Q 387 108 445 133" fill="none" stroke="#000000" stroke-width="20" stroke-linecap="round" stroke-linejoin="round"></path><path d="M 92 270 Q 176 329 269 293 363 258 399 170 432 89 393 38 363 -3 300 6 L 184 39 Q 105 57 75 70 23 92 19 146 13 216 92 270" fill="#ffffff"></path><path d="M 172 43 L 105 94 Q 75 121 76 164 77 218 124 259 174 302 245 301 L 269 293 Q 362 258 398 170 432 89 393 38 363 -3 300 6 L 184 39 172 43" fill="#00b9cc"></path><path d="M 325 27 Q 277 25 243 49 192 83 176 105 150 140 158 193 165 236 198 264 232 292 278 289 367 251 400 166 431 87 393 38 383 24 362 26 L 325 27" fill="#000000"></path><path d="M 209 124 L 332 100 407 81 Q 443 62 408 22 386 -3 333 0 284 2 190 28 116 48 65 76 0 111 0 145 0 177 209 124" fill="#000000"></path><path d="M 1128 198 Q 1164 135 1129 84 1094 34 926 55 756 76 749 137 741 206 817 265 898 327 992 296 1089 264 1128 198" fill="#ffffff"></path><path d="M 849 254 Q 897 300 968 302 L 992 296 Q 1089 264 1128 198 1164 135 1129 84 1096 36 951 70 807 105 805 158 803 212 849 254" fill="#00b9cc"></path><path d="M 1063 41 Q 1016 36 979 58 919 96 909 108 880 138 886 190 891 234 922 263 955 293 1002 292 1094 256 1130 194 1163 134 1129 84 1107 53 1063 41" fill="#000000"></path><path d="M 927 36 Q 857 47 806 71 745 98 730 135 719 164 775 164 L 909 154 1076 141 1144 127 1162 111 Q 1168 94 1144 68 1092 12 927 36" fill="#000000"></path><path d="M 1122 73 L 1147 102 Q 1177 132 1207 136" fill="none" stroke="#000000" stroke-width="20" stroke-linecap="round" stroke-linejoin="round"></path><path d="M 1094 58 L 1108 103 Q 1134 150 1195 165" fill="none" stroke="#000000" stroke-width="20" stroke-linecap="round" stroke-linejoin="round"></path></g><g id="cid_76" viewBox="-222 52 956 237"><path d="M -163 147 Q -213 125 -213 136 -213 186 -141 217 -69 247 11 231 93 216 142 175 185 139 190 95 190 84 170 84 164 84 114 133 50 183 -23 181 -90 179 -163 147" fill="#000000"></path><path d="M -156 111 L -220 100 Q -233 109 -169 148 -100 190 -34 193 L -19 193 Q 51 193 114 148 174 106 178 64 178 52 158 52 L 118 74 Q 67 99 -14 113 -83 125 -156 111" fill="#000000"></path><path d="M 757 181 Q 684 183 620 133 L 564 84 Q 543 84 545 95 549 139 592 175 641 216 723 231 803 247 875 217 947 186 947 136 947 125 897 147 824 179 757 181" fill="#000000"></path><path d="M 768 193 Q 834 190 903 148 967 109 954 100 L 890 111 Q 817 125 748 113 667 99 616 74 582 52 576 52 556 52 556 64 560 106 620 148 683 193 753 193 L 768 193" fill="#000000"></path></g><g id="cid_65" viewBox="-232 278 953 508"><path d="M -158 278 Q -219 278 -219 299 -219 311 -168 324 L -118 336 -192 341 Q -232 348 -232 362 -232 375 -206 382 L -170 388 -130 394 Q -110 394 -110 400 L -170 404 -196 412 Q -212 420 -210 432 -208 445 -184 446 L -134 444 -32 456 Q 25 468 90 502 116 514 122 502 131 490 128 470 L 114 436 Q 66 370 12 334 -27 307 -84 288 L -158 278" fill="#000000"></path><path d="M 926 284 L 912 280 878 278 802 288 Q 749 306 708 334 654 370 606 436 599 445 592 470 589 490 598 502 604 514 630 502 694 469 754 456 L 854 444 908 450 922 446 Q 930 441 930 432 933 427 928 418 925 410 916 410 L 890 404 830 400 Q 830 394 850 394 L 890 388 930 380 952 362 Q 957 353 930 344 L 838 336 Q 838 332 850 332 L 886 328 920 320 Q 937 314 940 308 L 938 292 Q 934 284 926 284" fill="#000000"></path></g><g id="cid_66" viewBox="-213 205 946 462"><path d="M -19 205 L -34 205 Q -107 209 -161 265 -213 317 -213 377 -213 391 -163 356 -91 304 -23 302 50 299 102 339 L 146 379 161 374 Q 167 370 166 363 162 304 108 256 52 205 -19 205" fill="#000000"></path><path d="M -163 436 Q -91 384 -23 382 50 379 102 419 L 146 459 161 454 166 443 Q 162 384 108 336 52 285 -19 285 L -34 285 Q -107 289 -161 345 -213 397 -213 456 -213 471 -163 436" fill="#000000"></path><path d="M 746 205 Q 673 209 619 265 567 317 567 377 567 391 617 356 689 304 756 302 829 299 882 339 L 926 379 940 374 946 363 Q 941 304 888 256 832 205 761 205 L 746 205" fill="#000000"></path><path d="M 746 285 Q 673 289 619 345 567 397 567 456 567 471 617 436 689 384 756 382 829 379 882 419 L 926 459 940 454 946 443 Q 941 384 888 336 832 285 761 285 L 746 285" fill="#000000"></path></g><g id="cid_67" viewBox="-201 19 965 502"><path d="M -126 437 Q -79 490 -9 496 61 501 113 456 164 410 168 341 172 271 125 218 79 164 9 159 -61 154 -113 199 -165 244 -169 314 -173 384 -126 437" fill="#ffffff"></path><path d="M 23 161 L 9 159 Q -61 154 -113 199 -165 244 -169 314 -173 384 -126 437 -79 490 -9 496 L 7 496 Q 57 478 88 436 121 393 124 338 127 282 99 233 71 186 23 161" fill="#00b9cc"></path><path d="M -136 224 Q -166 264 -169 314 -172 382 -128 435 -84 487 -16 495 16 477 37 441 58 403 60 357 64 291 31 241 -2 192 -52 188 -99 185 -136 224" fill="#000000"></path><path d="M 647 232 L 634 200 Q 615 166 586 155" fill="none" stroke="#000000" stroke-width="20" stroke-linecap="round" stroke-linejoin="round"></path><path d="M 640 97 L 663 127 Q 686 162 685 193" fill="none" stroke="#000000" stroke-width="20" stroke-linecap="round" stroke-linejoin="round"></path><path d="M 685 29 L 714 65 Q 739 114 718 173" fill="none" stroke="#000000" stroke-width="20" stroke-linecap="round" stroke-linejoin="round"></path><path d="M -45 312 Q -37 325 -24 326 -11 327 -1 316 8 304 9 288 10 271 1 259 -7 246 -20 245 -32 244 -42 255 -51 267 -52 283 -53 300 -45 312" fill="#ffffff"></path><path d="M -169 341 Q -173 271 -126 218 -79 164 -9 159 61 154 113 199 164 244 168 314" fill="none" stroke="#000000" stroke-width="41" stroke-linecap="round" stroke-linejoin="round"></path><path d="M 651 442 Q 697 495 767 500 837 505 889 460 941 415 945 345 949 275 902 222 855 169 785 164 715 158 664 204 612 249 608 319 604 389 651 442" fill="#ffffff"></path><path d="M 799 165 L 785 164 Q 715 158 664 204 612 249 608 319 604 389 651 442 697 495 767 500 L 784 500 Q 833 483 865 440 898 397 901 342 904 287 876 238 848 191 799 165" fill="#00b9cc"></path><path d="M 641 229 Q 611 269 608 319 604 386 649 439 693 491 760 499 792 482 813 445 834 408 837 361 840 295 807 246 775 197 725 193 677 189 641 229" fill="#000000"></path><path d="M -130 237 L -143 205 Q -162 170 -191 159" fill="none" stroke="#000000" stroke-width="20" stroke-linecap="round" stroke-linejoin="round"></path><path d="M -137 102 L -113 132 Q -90 167 -92 197" fill="none" stroke="#000000" stroke-width="20" stroke-linecap="round" stroke-linejoin="round"></path><path d="M -91 34 L -62 70 Q -37 118 -59 178" fill="none" stroke="#000000" stroke-width="20" stroke-linecap="round" stroke-linejoin="round"></path><path d="M 732 317 Q 740 329 753 330 766 331 775 320 784 309 785 292 787 276 778 263 770 251 757 250 744 249 735 260 726 270 724 287 723 304 732 317" fill="#ffffff"></path><path d="M 608 345 Q 604 275 651 222 697 169 767 164 837 158 889 204 941 249 945 319" fill="none" stroke="#000000" stroke-width="41" stroke-linecap="round" stroke-linejoin="round"></path></g><g id="cid_68" viewBox="-212 46 967 529"><path d="M 102 464 Q 149 411 145 341 141 271 90 226 38 181 -32 186 -102 191 -149 245 -196 298 -192 368 -188 437 -136 483 -84 528 -14 523 56 517 102 464" fill="#ffffff"></path><path d="M -32 186 L -46 188 Q -95 213 -122 260 -151 309 -148 365 -145 420 -112 463 -80 505 -30 523 L -14 523 Q 56 517 102 464 149 411 145 341 141 271 90 226 38 181 -32 186" fill="#00b9cc"></path><path d="M 113 251 Q 76 212 29 215 -21 219 -54 268 -87 318 -83 384 -81 430 -60 468 -39 504 -7 522 60 514 104 462 149 409 145 341 142 291 113 251" fill="#000000"></path><path d="M 120 259 L 133 227 Q 152 193 180 182" fill="none" stroke="#000000" stroke-width="20" stroke-linecap="round" stroke-linejoin="round"></path><path d="M 127 124 L 103 154 Q 80 189 82 220" fill="none" stroke="#000000" stroke-width="20" stroke-linecap="round" stroke-linejoin="round"></path><path d="M 81 56 L 52 92 Q 27 141 49 200" fill="none" stroke="#000000" stroke-width="20" stroke-linecap="round" stroke-linejoin="round"></path><path d="M 21 339 Q 30 326 29 310 28 293 18 282 9 271 -4 272 -17 273 -25 286 -33 298 -32 315 -31 331 -22 343 -12 354 0 353 13 352 21 339" fill="#ffffff"></path><path d="M -192 368 Q -196 298 -149 245 -102 191 -32 186 38 181 90 226 141 271 145 341" fill="none" stroke="#000000" stroke-width="41" stroke-linecap="round" stroke-linejoin="round"></path><path d="M 879 469 Q 926 416 922 346 918 276 866 231 814 185 744 191 674 196 628 249 581 302 585 372 589 442 641 487 692 532 762 527 832 522 879 469" fill="#ffffff"></path><path d="M 730 192 Q 682 218 654 265 626 314 629 369 632 424 665 467 697 510 746 527 L 762 527 Q 832 522 879 469 926 416 922 346 918 276 866 231 814 185 744 191 L 730 192" fill="#00b9cc"></path><path d="M 889 256 Q 852 216 805 220 755 224 722 273 689 322 693 388 695 435 716 472 737 509 769 526 837 518 881 466 926 413 922 346 919 296 889 256" fill="#000000"></path><path d="M 896 264 L 909 232 Q 928 197 957 186" fill="none" stroke="#000000" stroke-width="20" stroke-linecap="round" stroke-linejoin="round"></path><path d="M 903 129 L 880 159 Q 857 194 858 224" fill="none" stroke="#000000" stroke-width="20" stroke-linecap="round" stroke-linejoin="round"></path><path d="M 858 61 L 829 97 Q 804 145 825 205" fill="none" stroke="#000000" stroke-width="20" stroke-linecap="round" stroke-linejoin="round"></path><path d="M 798 344 Q 806 331 805 314 804 298 795 287 785 276 773 277 760 278 752 290 743 303 744 319 745 335 755 347 764 358 777 357 790 356 798 344" fill="#ffffff"></path><path d="M 585 372 Q 581 302 628 249 674 196 744 191 814 185 866 231 918 276 922 346" fill="none" stroke="#000000" stroke-width="41" stroke-linecap="round" stroke-linejoin="round"></path></g><path id="cid_77" d="M 136 157 Q 109 89 102 38 L 100 0 0 5 Q 0 142 38 239 35 280 48 314 59 346 81 362 L 80 362 Q 112 400 133 396 152 392 147 367 198 353 187 295 L 136 157" viewBox="0 0 189 396" fill="#907847"></path><path id="cid_78" d="M 148 242 L 199 24 110 0 77 65 Q 43 140 40 187 L 6 258 Q -16 332 41 348 41 358 55 364 75 372 93 346 L 107 319 Q 138 288 148 242" viewBox="0 0 199 366" fill="#907847"></path><path id="cid_79" d="M 408 216 Q 440 223 440 204 440 189 351 171 L 261 155 Q 144 37 75 0 L 0 71 48 118 142 201 Q 172 224 193 308 211 378 237 374 259 371 250 329 242 288 284 284 L 364 286 420 287 Q 454 281 448 252 443 224 408 216" viewBox="0 0 449 374" fill="#907847"></path><path id="cid_80" d="M 396 114 L 332 0 190 112 96 175 Q 25 221 11 243 -7 273 5 283 16 291 45 275 L 23 296 Q 7 317 25 319 39 320 89 298 135 278 141 284 146 289 135 318 125 345 140 349 162 356 195 318 231 277 238 224 257 204 287 180 345 132 396 114" viewBox="0 0 396 350" fill="#907847"></path><g id="cid_81" viewBox="-677 -2197 684 -998"><path d="M -42 -2034 Q -105 -1988 -257 -1911 -414 -1831 -480 -1785 -592 -1707 -634 -1616 -692 -1489 -671 -1373 -648 -1245 -534 -1170 -379 -1032 -121 -1040 131 -1049 288 -1073 437 -1095 543 -1180 659 -1239 680 -1362 698 -1475 633 -1616 592 -1706 505 -1784 460 -1824 341 -1906 235 -1980 188 -2029 115 -2105 91 -2197 62 -2109 -42 -2034" fill="#ff8661"></path><path d="M 643 -1410 Q 643 -1496 596 -1599 559 -1679 483 -1749 436 -1792 334 -1862 238 -1929 195 -1967 122 -2031 85 -2101 36 -2036 -59 -1974 -117 -1937 -243 -1873 L -454 -1754 Q -560 -1680 -597 -1599 -646 -1491 -633 -1391 -617 -1273 -512 -1204 L -510 -1202 -507 -1200 Q -373 -1080 -150 -1080 L -123 -1081 283 -1113 Q 422 -1134 517 -1211 L 524 -1216 Q 643 -1276 643 -1410" fill="#d43000"></path><path d="M -5 -1522 Q -273 -1492 -423 -1411 -567 -1333 -567 -1229 -567 -1175 -473 -1101 -343 -1001 -131 -1001 L 57 -1011 284 -1039 Q 358 -1049 465 -1135 565 -1217 562 -1248 551 -1367 411 -1451 246 -1550 -5 -1522" fill="#d3af68"></path><path d="M 534 -1249 Q 534 -1185 439 -1132 362 -1091 279 -1079 L 55 -1051 -131 -1041 Q -299 -1041 -420 -1101 -535 -1158 -535 -1229 -535 -1308 -445 -1379 -337 -1464 -135 -1503 -367 -1467 -480 -1379 -567 -1311 -567 -1229 -567 -1122 -418 -1056 -289 -998 -131 -998 3 -998 284 -1037 393 -1051 468 -1094 570 -1153 562 -1248 555 -1322 495 -1387 417 -1470 269 -1508 412 -1456 482 -1372 534 -1310 534 -1249" fill="#907847"></path><path d="M -94 -1170 L -71 -1155 Q -40 -1140 0 -1140 64 -1140 92 -1170 L 94 -1175 91 -1179 62 -1166 Q 29 -1153 0 -1153 -28 -1153 -63 -1167 L -94 -1179 -96 -1174 -94 -1170" fill="#513402"></path><path d="M 58 -1153 L 0 -1145 -59 -1153 -46 -1127 Q -27 -1102 0 -1102 28 -1102 46 -1127 L 58 -1153" fill="#513402"></path><path d="M -87 -1225 L -21 -1235 Q 58 -1239 124 -1215 99 -1229 61 -1237 -17 -1254 -87 -1225" fill="#513402"></path><path d="M -107 -1235 L -46 -1250 93 -1245 Q 68 -1257 31 -1261 -44 -1271 -107 -1235" fill="#513402"></path><path d="M -281 -1131 Q -270 -1131 -270 -1143 -270 -1156 -281 -1156 -292 -1156 -292 -1143 -292 -1131 -281 -1131" fill="#907847"></path><path d="M -248 -1083 Q -236 -1083 -236 -1095 -236 -1108 -248 -1108 -259 -1108 -259 -1095 -259 -1083 -248 -1083" fill="#907847"></path><path d="M -205 -1124 Q -194 -1124 -194 -1136 -194 -1149 -205 -1149 -216 -1149 -216 -1136 -216 -1124 -205 -1124" fill="#907847"></path><path d="M -46 -1684 Q -22 -1684 -22 -1710 -22 -1736 -46 -1736 -71 -1736 -71 -1710 -71 -1684 -46 -1684" fill="#ffffff"></path><path d="M 204 -1130 Q 216 -1130 216 -1142 216 -1155 204 -1155 193 -1155 193 -1142 193 -1130 204 -1130" fill="#907847"></path><path d="M 262 -1089 Q 274 -1089 274 -1101 274 -1114 262 -1114 251 -1114 251 -1101 251 -1089 262 -1089" fill="#907847"></path><path d="M 313 -1132 Q 324 -1132 324 -1144 324 -1157 313 -1157 301 -1157 301 -1144 301 -1132 313 -1132" fill="#907847"></path></g><g id="cid_82" viewBox="-302 -1374 314 -1173"><path d="M -236 -1328 Q -272 -1328 -272 -1268 -272 -1208 -236 -1208 -200 -1208 -200 -1268 -200 -1328 -236 -1328" fill="#ffffff"></path><path d="M 248 -1223 Q 284 -1223 284 -1283 284 -1343 248 -1343 212 -1343 212 -1283 212 -1223 248 -1223" fill="#ffffff"></path><path d="M -211 -1270 Q -212 -1251 -222 -1238 -231 -1225 -242 -1227 -253 -1228 -259 -1242 -265 -1256 -263 -1275 -261 -1294 -252 -1307 -242 -1319 -232 -1318 -221 -1316 -215 -1303 -209 -1289 -211 -1270 M -184 -1337 Q -200 -1369 -226 -1371 -252 -1374 -274 -1347 -296 -1320 -301 -1279 -305 -1239 -285 -1207 -266 -1176 -239 -1173 -213 -1171 -195 -1198 -178 -1223 -173 -1265 -168 -1306 -184 -1337" fill="#513402"></path><path d="M 244 -1325 Q 274 -1325 274 -1279 274 -1244 248 -1240 225 -1238 222 -1273 220 -1294 225 -1308 231 -1325 244 -1325 M 196 -1339 Q 174 -1306 178 -1266 182 -1226 204 -1204 224 -1183 250 -1186 277 -1189 296 -1213 317 -1240 313 -1279 302 -1380 243 -1374 216 -1371 196 -1339" fill="#513402"></path></g><g id="cid_83" viewBox="-759 -2311 736 -1187"><path d="M -46 -1715 Q -22 -1715 -22 -1741 -22 -1767 -46 -1767 -71 -1767 -71 -1741 -71 -1715 -46 -1715" fill="#ffffff"></path><path d="M 235 -2165 Q 235 -2186 218 -2201 L 220 -2215 Q 220 -2240 202 -2259 184 -2277 158 -2277 136 -2277 120 -2264 96 -2291 62 -2291 31 -2291 9 -2269 -13 -2246 -13 -2215 -13 -2194 -2 -2175 -21 -2158 -21 -2131 -21 -2105 -3 -2086 15 -2068 41 -2068 L 53 -2069 Q 77 -2038 114 -2038 146 -2038 168 -2060 190 -2082 190 -2114 L 190 -2117 Q 209 -2118 222 -2132 235 -2146 235 -2165" fill="#ffffff"></path><path d="M 235 -2165 Q 235 -2186 218 -2201 L 220 -2215 Q 220 -2240 202 -2259 184 -2277 158 -2277 136 -2277 120 -2264 96 -2291 62 -2291 31 -2291 9 -2269 -13 -2246 -13 -2215 -13 -2194 -2 -2175 -21 -2158 -21 -2131 -21 -2105 -3 -2086 15 -2068 41 -2068 L 53 -2069 Q 77 -2038 114 -2038 146 -2038 168 -2060 190 -2082 190 -2114 L 190 -2117 Q 209 -2118 222 -2132 235 -2146 235 -2165" fill="none" stroke="#cccccc" stroke-width="40" stroke-linecap="round" stroke-linejoin="round"></path><path d="M 169 -1773 L 81 -1753 Q 57 -1795 10 -1800 -40 -1804 -81 -1763 -113 -1796 -155 -1790 -205 -1782 -227 -1712 -247 -1729 -277 -1733 -336 -1741 -385 -1674 -449 -1711 -490 -1671 -520 -1642 -523 -1605 -561 -1613 -591 -1591 -631 -1563 -628 -1513 -647 -1511 -663 -1501 -735 -1489 -739 -1418 -743 -1346 -669 -1305 -669 -1272 -646 -1249 -623 -1226 -591 -1226 -558 -1226 -535 -1249 -512 -1272 -512 -1305 -512 -1319 -518 -1333 L -511 -1336 Q -472 -1364 -477 -1413 -455 -1391 -421 -1401 -386 -1411 -370 -1446 -345 -1432 -317 -1433 -288 -1434 -265 -1451 -244 -1466 -234 -1494 L -199 -1494 Q -160 -1499 -137 -1527 -109 -1499 -64 -1503 -26 -1507 -5 -1526 16 -1505 52 -1501 96 -1496 127 -1527 L 152 -1497 Q 189 -1468 255 -1475 L 285 -1454 Q 322 -1435 359 -1446 375 -1411 410 -1401 445 -1391 467 -1413 464 -1390 475 -1367 486 -1342 507 -1333 498 -1279 518 -1244 536 -1212 569 -1208 602 -1203 627 -1228 655 -1255 658 -1305 732 -1346 711 -1430 690 -1513 617 -1513 620 -1564 581 -1591 550 -1613 512 -1605 470 -1685 395 -1698 339 -1708 304 -1685 265 -1774 169 -1773" fill="#ffffff"></path><path d="M 169 -1773 L 81 -1753 Q 57 -1795 10 -1800 -40 -1804 -81 -1763 -113 -1796 -155 -1790 -205 -1782 -227 -1712 -247 -1729 -277 -1733 -336 -1741 -385 -1674 -449 -1711 -490 -1671 -520 -1642 -523 -1605 -561 -1613 -591 -1591 -631 -1563 -628 -1513 -647 -1511 -663 -1501 -735 -1489 -739 -1418 -743 -1346 -669 -1305 -669 -1272 -646 -1249 -623 -1226 -591 -1226 -558 -1226 -535 -1249 -512 -1272 -512 -1305 -512 -1319 -518 -1333 L -511 -1336 Q -472 -1364 -477 -1413 -455 -1391 -421 -1401 -386 -1411 -370 -1446 -345 -1432 -317 -1433 -288 -1434 -265 -1451 -244 -1466 -234 -1494 L -199 -1494 Q -160 -1499 -137 -1527 -109 -1499 -64 -1503 -26 -1507 -5 -1526 16 -1505 52 -1501 96 -1496 127 -1527 L 152 -1497 Q 189 -1468 255 -1475 L 285 -1454 Q 322 -1435 359 -1446 375 -1411 410 -1401 445 -1391 467 -1413 464 -1390 475 -1367 486 -1342 507 -1333 498 -1279 518 -1244 536 -1212 569 -1208 602 -1203 627 -1228 655 -1255 658 -1305 732 -1346 711 -1430 690 -1513 617 -1513 620 -1564 581 -1591 550 -1613 512 -1605 470 -1685 395 -1698 339 -1708 304 -1685 265 -1774 169 -1773" fill="none" stroke="#cccccc" stroke-width="40" stroke-linecap="round" stroke-linejoin="round"></path></g><path id="cid_84" d="M 250 -1251 L 296 -1258 Q 317 -1265 313 -1275 302 -1302 243 -1300 L 196 -1291 Q 174 -1282 178 -1272 182 -1262 204 -1256 L 250 -1251 M -173 -1272 Q -168 -1282 -184 -1290 L -226 -1299 -274 -1293 Q -296 -1286 -301 -1275 -305 -1265 -285 -1257 -266 -1249 -239 -1248 L -195 -1254 Q -178 -1261 -173 -1272" viewBox="-302 -1300 314 -1248" fill="#513402"></path><path id="cid_89" d="M 43 -14 L 8 -42 Q -30 -67 -40 -53 -51 -39 -21 11 L 11 58 43 -14" viewBox="-43 -58 43 58" fill="#000000"></path><path id="cid_90" d="M -45 -3 L -13 65 24 9 Q 57 -49 39 -62 22 -74 -13 -40 L -45 -3" viewBox="-45 -65 45 65" fill="#000000"></path><g id="cid_88" viewBox="-327 -367 317 376"><path d="M -3 -357 Q -72 -360 -132 -317 -190 -275 -230 -198 -247 -164 -241 -146 -234 -124 -187 -175 -141 -224 -51 -274 L 30 -315 -3 -357" fill="#ff0000"></path><path d="M 123 -297 Q 57 -337 32 -263 L 14 -288 Q 3 -302 -12 -309 L -41 -313 -68 -304 Q -93 -287 -105 -255 -116 -225 -111 -195 L 156 -189 Q 188 -257 123 -297" fill="#f6c3d7"></path><path d="M 156 -189 Q 188 -257 123 -297 57 -337 32 -263 L 14 -288 Q 3 -302 -12 -309 L -41 -313 -68 -304 Q -93 -287 -105 -255 -116 -225 -111 -195" fill="none" stroke="#000000" stroke-width="37" stroke-linecap="round" stroke-linejoin="round"></path><path d="M 243 52 L 211 2 Q 195 -28 195 -52 L 195 -113 Q 192 -146 172 -170 151 -196 120 -205 L 57 -212 Q -44 -214 -97 -192 -131 -177 -138 -137 L -142 -64 Q -147 -2 -186 118 -208 224 -151 303 -103 368 -7 356 48 350 157 320 251 305 284 257 323 199 258 78 L 243 52" fill="#ffffff"></path><path d="M 243 52 L 211 2 Q 195 -28 195 -52 L 195 -113 Q 192 -146 172 -170 151 -196 120 -205 L 57 -212 Q -44 -214 -97 -192 -131 -177 -138 -137 L -142 -64 Q -147 -2 -186 118 -208 224 -151 303 -103 368 -7 356 48 350 157 320 251 305 284 257 323 199 258 78 L 243 52" fill="none" stroke="#000000" stroke-width="37" stroke-linecap="round" stroke-linejoin="round"></path><path d="M 94 -41 Q 96 -26 106 -16 117 -7 130 -9 143 -10 151 -23 159 -35 157 -50 L 144 -75 Q 133 -84 120 -82 107 -80 100 -68 92 -56 94 -41" fill="#000000"></path><path d="M -44 -24 Q -42 -9 -31 1 -20 10 -7 8 6 7 14 -6 21 -18 19 -33 18 -48 7 -58 -4 -68 -17 -66 -31 -64 -38 -52 -46 -40 -44 -24" fill="#000000"></path><path d="M 117 35 L 84 48 3 52 18 88 Q 38 124 57 121 77 118 90 89 L 99 60 117 35" fill="#000000"></path><path d="M 50 109 Q 69 112 72 95 75 78 54 73 33 68 32 87 31 105 50 109" fill="#000000"></path><path d="M 77 64 L 27 66 33 74 Q 40 82 51 84 69 88 77 64" fill="#ffffff"></path><path d="M 181 -186 Q 162 -229 129 -272 64 -358 -3 -358 -70 -358 -107 -261 -126 -213 -131 -165 L 181 -186" fill="#ff0000"></path><path d="M -234 -190 Q -220 -229 -187 -270 -120 -351 -21 -357 78 -363 140 -271 171 -226 182 -179" fill="none" stroke="#ff8661" stroke-width="20" stroke-linecap="round" stroke-linejoin="round"></path><path d="M 223 -53 Q 247 -65 247 -104 248 -139 238 -145 253 -184 226 -216 191 -256 108 -232 68 -258 5 -245 L -51 -227 Q -99 -252 -155 -216 -212 -179 -207 -121 -229 -69 -210 -31 -194 2 -165 2 -153 2 -136 -22 L -113 -56 -82 -58 Q -43 -68 -9 -102 25 -84 92 -94 L 156 -108 Q 161 -78 178 -61 197 -40 223 -53" fill="#ffffff"></path><path d="M 223 -53 Q 247 -65 247 -104 248 -139 238 -145 253 -184 226 -216 191 -256 108 -232 68 -258 5 -245 L -51 -227 Q -99 -252 -155 -216 -212 -179 -207 -121 -229 -69 -210 -31 -194 2 -165 2 -153 2 -136 -22 L -113 -56 -82 -58 Q -43 -68 -9 -102 25 -84 92 -94 L 156 -108 Q 161 -78 178 -61 197 -40 223 -53" fill="none" stroke="#b3b3b3" stroke-width="40" stroke-linecap="round" stroke-linejoin="round"></path><path d="M -149 -102 Q -149 -135 -172 -158 -195 -181 -228 -181 -260 -181 -284 -158 -307 -135 -307 -102 -307 -70 -284 -47 -260 -24 -228 -24 -195 -24 -172 -47 -149 -70 -149 -102" fill="#ffffff"></path><path d="M -149 -102 Q -149 -70 -172 -47 -195 -24 -228 -24 -260 -24 -284 -47 -307 -70 -307 -102 -307 -135 -284 -158 -260 -181 -228 -181 -195 -181 -172 -158 -149 -135 -149 -102" fill="none" stroke="#b3b3b3" stroke-width="40" stroke-linecap="round" stroke-linejoin="round"></path></g><g id="cid_96" viewBox="502 414 983 894"><path d="M 983 654 Q 983 554 913 484 842 414 743 414 643 414 573 484 502 554 502 654 502 754 573 824 643 894 743 894 842 894 913 824 983 754 983 654" fill="#ffb600"></path><path d="M 952 654 Q 952 568 891 506 829 445 743 445 656 445 595 506 533 568 533 654 533 741 595 802 656 863 743 863 829 863 891 802 952 741 952 654" fill="#ffd408"></path><path d="M 931 654 Q 906 743 823 789 723 845 605 783 662 843 743 843 821 843 876 788 931 732 931 654" fill="#e8ac00"></path></g><g id="cid_97" viewBox="-163 -186 -26 18"><path d="M -160 -87 Q -174 -23 -110 -56 -47 -88 -34 -142 -19 -207 -83 -176 -148 -145 -160 -87" fill="#ffffff"></path><path d="M -53 18 Q -25 18 -26 -9 -27 -36 -53 -36 -78 -36 -79 -9 -80 18 -53 18" fill="#ffffff"></path></g><path id="cid_98" d="M 81 0 Q 26 -3 15 -15 3 -26 0 -81 -4 -26 -15 -15 -27 -3 -82 0 -27 4 -15 16 -4 27 0 82 3 27 15 16 26 4 81 0" viewBox="-82 -81 81 82" fill="#ffffff"></path><path id="cid_55" d="M 822 -1653 L 366 -1623 581 -1103 822 -1653" viewBox="366 -1653 822 -1103" fill="#f7ed00"></path><g id="cid_103" viewBox="0 0 323 231"><path d="M 11 214 L 238 221 312 182 293 79 189 11 23 63 11 214" fill="#e4e4e5"></path><path d="M 241 231 L 323 187 302 73 190 0 13 55 0 224 241 231 M 284 85 L 301 176 236 211 22 205 32 70 187 22 284 85" fill="#231916"></path><path d="M 158 125 L 164 106 56 73 51 92 158 125" fill="#231916"></path><path d="M 191 126 L 273 109 269 89 187 106 191 126" fill="#231916"></path><path d="M 207 195 L 225 185 198 137 180 147 207 195" fill="#231916"></path></g><g id="cid_104" viewBox="0 -149 718 669"><path d="M 580 261 Q 564 253 558 241 562 210 541 174 525 145 515 139 568 65 565 61 562 58 471 105 464 81 440 57 406 22 358 20 L 344 -64 327 -149 Q 324 -149 308 -65 L 292 18 Q 261 13 213 39 153 72 138 130 L 71 81 Q 3 33 1 35 L 50 103 102 168 Q 56 205 54 255 53 291 68 310 50 362 78 407 98 440 124 450 58 531 61 534 L 156 475 Q 179 519 226 534 L 281 537 324 569 Q 338 669 342 669 L 372 579 Q 412 568 432 523 L 484 513 487 511 Q 620 592 623 588 626 585 530 469 547 441 550 417 603 392 611 331 L 718 296 Q 718 292 597 270 596 268 580 261" fill="#72c7d7"></path><path d="M 531 63 L 477 94 Q 470 67 447 44 413 9 363 15 L 349 -67 Q 334 -149 327 -149 320 -149 305 -65 L 292 18 Q 224 9 178 45 137 75 134 119 L 71 73 Q 6 28 1 35 -5 42 44 104 L 93 165 Q 46 191 40 241 35 284 60 310 44 334 50 376 57 431 114 454 L 84 490 Q 55 528 61 534 71 544 151 485 162 512 191 533 232 562 281 545 L 313 572 Q 326 669 342 669 358 669 372 579 412 568 432 523 L 484 513 487 511 Q 612 599 623 588 634 577 530 469 L 547 429 Q 567 419 585 395 606 366 611 331 716 311 718 296 720 280 597 270 583 248 561 234 571 200 553 167 541 146 526 135 600 52 591 40 585 33 531 63 M 480 113 L 550 75 509 127 480 121 480 113 M 466 258 Q 492 283 535 255 L 557 254 567 269 582 285 617 292 664 299 580 320 589 340 Q 593 364 567 385 541 406 514 395 491 380 488 379 478 372 488 398 496 420 529 423 L 517 455 Q 512 459 514 444 L 513 439 512 439 Q 509 436 505 436 498 436 499 454 L 580 550 466 480 456 477 442 481 Q 437 491 454 490 L 469 500 416 502 Q 386 488 377 460 370 437 379 414 L 386 394 Q 384 383 367 409 351 434 362 465 339 499 304 483 277 471 272 446 L 271 422 266 427 260 446 Q 259 460 270 475 280 490 297 498 335 516 367 491 385 509 414 518 397 556 361 563 329 568 297 536 L 314 522 303 521 202 518 Q 175 500 166 475 L 218 441 Q 248 434 209 426 L 108 491 180 393 174 375 Q 169 369 165 372 162 376 164 389 L 125 439 Q 76 415 70 366 66 330 84 302 L 88 287 87 283 72 296 Q 44 247 80 200 116 154 141 179 L 161 203 Q 187 225 233 227 L 264 254 340 256 306 254 Q 270 249 257 224 244 200 264 169 L 281 141 Q 264 136 245 160 225 186 231 212 200 212 174 183 156 162 150 144 148 87 201 52 239 28 289 36 L 287 53 278 56 Q 269 59 274 65 295 85 309 23 L 327 -86 342 25 Q 354 89 375 81 391 75 373 68 L 367 33 Q 423 29 447 78 459 103 464 135 540 139 544 194 548 248 502 251 479 254 463 241 L 450 228 466 258 M 133 155 L 111 158 53 84 132 140 133 155 M 115 251 Q 110 241 101 270 92 298 110 325 141 364 179 351 184 346 175 343 L 157 341 Q 139 336 123 315 110 297 112 273 L 115 251 M 358 582 L 344 637 331 579 358 582" fill="#358c93"></path></g><g id="cid_105" viewBox="0 0 6188 5024"><path d="M 3427 3429 Q 3265 3633 3159 3694 L 2710 2867 Q 2976 2968 3053 2993 3129 3017 3628 3137 3565 3256 3427 3429 M 1687 2914 L 1610 2502 2497 2763 Q 2260 2847 2174 2893 L 1736 2914 1687 2914 M 2042 2934 Q 2101 2925 2508 2802 L 2026 3371 1734 3566 1710 3509 1642 3386 1674 2963 2042 2934 M 2692 3841 Q 2589 3990 2434 4083 2445 3882 2531 3644 2598 3458 2633 3417 L 2501 3510 2626 2833 2894 3244 2793 3306 2905 3266 3123 3725 Q 3113 3764 3058 3783 L 2997 3796 2935 3771 Q 2883 3746 2873 3746 2797 3746 2757 3771 2729 3789 2692 3841 M 3262 4279 Q 3262 4228 3334 4123 L 3539 4441 Q 3381 4375 3326 4344 3262 4308 3262 4279 M 2143 4183 Q 2169 4148 2181 4058 2264 4166 2306 4186 2345 4191 2376 4212 L 2362 4432 Q 2259 4391 2196 4343 2119 4284 2119 4224 2119 4214 2143 4183 M 2765 4181 Q 2792 4190 2830 4206 2858 4218 2939 4242 2745 4365 2663 4450 L 2630 4478 2579 4483 Q 2522 4483 2483 4466 2433 4444 2433 4401 2433 4330 2467 4292 2481 4278 2556 4230 2713 4130 2805 3891 2848 4055 2846 4065 2842 4093 2744 4172 L 2765 4181 M 2159 3949 Q 2028 3852 1763 3636 L 2248 3187 Q 2396 3046 2532 2890 L 2370 4094 2159 3949 M 1732 3864 Q 1808 3815 1843 3815 1954 3815 2037 3906 L 2098 4001 Q 2098 4085 2086 4117 2063 4180 2047 4269 2012 4248 1752 4118 1634 4059 1634 4006 1634 3928 1732 3864 M 1731 3772 L 1723 3788 1709 3791 1679 3793 Q 1643 3793 1630 3754 L 1621 3709 Q 1649 3708 1680 3722 L 1747 3755 1731 3772 M 2123 2257 L 2209 2327 2480 2703 1732 2446 1797 2278 1872 2031 Q 2027 2178 2123 2257 M 1428 3568 L 1572 3657 Q 1464 3887 1397 3887 L 1308 3781 Q 1221 3659 1221 3579 1221 3560 1253 3539 1287 3517 1322 3517 1347 3517 1428 3568 M 1007 3020 Q 1046 3108 1120 3338 L 1301 3889 707 3235 719 2715 Q 840 2785 896 2843 959 2908 1007 3020 M 1274 3058 Q 1457 3165 1457 3411 1457 3475 1399 3475 1333 3475 1213 3333 1090 3187 1090 3096 1090 3037 1147 3027 1203 3017 1274 3058 M 786 3649 Q 710 3426 710 3315 L 1248 3954 1079 4102 Q 895 3967 786 3649 M 655 2251 L 713 2111 1028 2236 585 2367 655 2251 M 1077 2491 Q 1032 2671 992 2866 938 2824 454 2480 L 463 2479 Q 697 2407 1043 2281 1093 2390 1077 2491 M 1120 2834 Q 1120 2826 1138 2741 1159 2642 1170 2337 1436 2426 1525 2531 1634 2658 1634 2942 L 1622 3287 Q 1618 3108 1369 2971 L 1198 2888 Q 1120 2851 1120 2834 M 1211 1946 L 1389 1653 1848 2012 Q 1776 2127 1755 2193 1745 2227 1706 2438 L 1178 2276 1165 2019 1211 1946 M 942 1303 L 1172 1165 1426 997 1664 1357 1549 1430 1319 1556 942 1303 M 43 989 Q 5 917 5 835 5 806 15 744 156 773 195 822 237 873 250 1040 L 90 1048 Q 74 1048 43 989 M 2215 1903 L 2585 1799 2778 2046 Q 2661 2249 2645 2306 2621 2438 2551 2676 L 2541 2660 Q 2375 2464 2255 2334 L 1938 1996 Q 2165 1918 2215 1903 M 2424 1766 Q 2333 1766 2266 1668 2187 1551 2129 1277 L 2532 1155 3222 1473 Q 3178 1576 3156 1612 3128 1656 3091 1672 3061 1685 2984 1692 L 2794 1710 3033 1710 2837 1968 2773 1838 Q 2718 1740 2683 1740 L 2424 1766 M 2237 1729 L 2272 1783 1878 1951 Q 1605 1770 1559 1735 1444 1648 1444 1595 1444 1519 1571 1454 1716 1380 2061 1298 L 2187 1627 2149 1606 2237 1729 M 2506 924 L 2716 949 2888 935 Q 2980 924 2988 984 2984 1059 2909 1106 2834 1152 2721 1152 2643 1152 2588 1120 2542 1093 2474 1018 2387 926 2506 924 M 4990 2891 L 4913 3044 4837 2891 4990 2891 M 4516 3452 L 4808 3342 Q 4761 3521 4672 3534 4602 3544 4511 3452 L 4516 3452 M 3313 3817 L 3459 3945 3413 3987 3358 4025 3313 3817 M 3936 3129 Q 3874 3025 3878 2979 L 4026 3250 Q 3992 3225 3936 3129 M 3679 3291 Q 3778 3320 3798 3339 L 3752 3233 Q 3803 3216 3817 3216 3931 3216 3979 3241 3998 3251 4038 3297 L 3911 3499 3820 3376 Q 3848 3425 3836 3513 3824 3599 3781 3686 3674 3897 3513 3897 3487 3897 3443 3870 3392 3838 3328 3776 3446 3605 3570 3436 L 3679 3291 M 3953 2689 L 3929 2684 3919 2679 4018 2578 Q 4013 2625 3995 2656 3976 2689 3953 2689 M 3405 2694 L 3405 2676 3439 2923 3431 2975 3414 3033 2621 2816 2629 2694 3405 2694 M 3521 2915 Q 3521 2839 3510 2773 3497 2700 3474 2661 L 3819 2590 Q 3840 2842 3809 2961 3772 3101 3653 3101 3608 3101 3568 3087 L 3467 3048 3505 2979 Q 3521 2950 3521 2915 M 3343 2224 Q 3343 2280 3360 2413 L 3382 2587 3382 2637 3093 2657 2635 2692 2650 2503 2662 2305 3099 1716 3376 2085 Q 3343 2204 3343 2224 M 3769 2110 Q 3769 2003 3829 2003 3901 2003 4044 2194 4136 2317 4229 2477 4024 2553 3911 2553 3854 2553 3809 2387 3769 2241 3769 2110 M 4058 2603 Q 4049 2584 4197 2558 L 4347 2536 4291 2779 4198 2764 4213 2781 Q 4233 2807 4255 2870 4275 2927 4275 2946 4275 3117 4220 3198 4194 3236 4130 3270 L 3914 2872 3970 2771 Q 3997 2722 4007 2714 L 4127 2729 4125 2728 4084 2659 4058 2603 M 4076 2157 Q 4076 2133 4116 2114 L 4255 2049 4445 2397 4393 2415 4353 2423 Q 4310 2423 4193 2312 4076 2200 4076 2157 M 4656 2394 Q 4667 2394 4730 2467 4802 2550 4802 2604 4802 2677 4782 2788 4761 2908 4738 2936 4832 2934 4878 3006 4907 3052 4907 3097 4907 3194 4799 3297 4668 3421 4475 3421 4458 3421 4243 3294 L 4371 2896 4555 2901 4456 2882 4377 2860 Q 4391 2817 4404 2721 4416 2627 4416 2575 L 4408 2525 4400 2474 Q 4400 2394 4656 2394 M 3750 1643 Q 3826 1573 3991 1574 L 4217 1984 Q 4201 2085 4117 2097 4044 2108 3943 2049 3846 1993 3777 1905 3703 1810 3703 1728 3703 1686 3750 1643 M 3262 1497 L 3637 1731 3741 2016 3726 1978 3509 2016 3741 2016 Q 3733 2379 3738 2401 3762 2418 3796 2536 L 3432 2615 3416 2482 Q 3399 2343 3399 2201 3399 2181 3417 2023 L 3144 1660 3099 1716 3262 1497 M 3533 1175 Q 3615 1059 3624 1032 L 3646 837 3990 1027 Q 4139 1113 4233 1247 4233 1220 4252 1204 4267 1190 4287 1190 4308 1190 4322 1205 4339 1223 4339 1261 4339 1294 4330 1318 4316 1354 4285 1354 L 4247 1330 Q 4233 1368 4238 1395 4241 1414 4235 1418 L 3946 1508 3533 1175 M 3318 1396 Q 3318 1341 3368 1288 3421 1232 3518 1193 L 3922 1514 Q 3740 1591 3525 1540 3318 1492 3318 1396 M 4425 984 Q 4396 984 4374 970 L 4389 990 4419 1046 4431 1079 Q 4431 1122 4409 1149 4387 1178 4348 1178 4285 1178 4047 1038 L 3661 798 3697 720 3637 720 3518 1033 3474 1134 3359 1082 3432 1135 3459 1152 3254 1416 Q 2982 1271 2908 1223 L 2838 1169 Q 2934 1117 2989 1057 3019 1024 3070 1024 L 3277 1042 3050 937 Q 2977 904 2960 904 L 2698 920 2550 884 Q 2404 828 2404 732 2404 701 2426 577 L 2447 420 2412 0 2394 420 Q 2355 474 2318 565 2281 658 2281 704 2281 773 2313 849 2348 931 2412 995 2299 887 2279 875 2310 937 2369 1012 2424 1081 2434 1107 L 2101 1214 2009 798 Q 1999 799 1913 760 1825 720 1803 720 L 1917 810 1688 886 1838 863 Q 1921 849 1961 834 L 2034 1123 Q 2051 1185 2051 1222 2051 1236 1962 1283 1855 1339 1759 1339 1714 1339 1657 1256 L 1481 999 Q 1522 955 1571 927 L 1495 952 Q 1462 890 1453 860 1413 782 1195 420 1276 706 1295 761 1312 809 1414 979 L 927 1291 582 1012 736 943 547 973 515 974 502 956 Q 433 890 69 720 L 0 720 0 1006 Q 11 1062 53 1088 80 1105 110 1105 143 1105 202 1088 L 190 1312 278 1312 Q 262 1288 282 1176 L 330 899 885 1354 880 1360 Q 1089 1417 1123 1435 1245 1499 1245 1640 1245 1746 1159 1834 1073 1922 1073 1981 L 1088 2048 Q 1103 2106 1103 2129 L 1102 2212 Q 923 2199 845 2152 776 2111 776 2036 L 800 1949 Q 823 1852 823 1792 823 1734 771 1702 741 1684 679 1657 L 793 1737 624 2063 Q 514 2272 473 2317 L 370 2410 Q 305 2460 275 2470 L 121 2498 Q 10 2532 0 2641 L 169 2588 386 2513 704 2691 681 2831 Q 659 2980 659 3229 L 673 3274 686 3325 Q 686 3404 674 3461 L 652 3533 Q 605 3509 584 3491 L 544 3452 Q 544 3462 652 3591 L 764 3726 Q 859 3878 905 3985 L 938 4065 944 4096 Q 944 4276 15 5024 L 860 4402 Q 1121 4209 1147 4209 L 1351 4245 Q 1298 4216 1272 4184 1256 4164 1256 4152 1256 4085 1291 4054 1324 4025 1394 4025 1457 4025 1623 4093 L 1786 4165 Q 1724 4229 1679 4280 L 1729 4280 1810 4177 2362 4456 2375 4501 Q 2385 4538 2384 4553 L 2381 4574 2434 4574 2437 4501 2489 4523 2530 4539 Q 2545 4539 2601 4506 L 2984 4267 Q 2917 4193 2901 4164 2879 4127 2879 4073 2879 4015 2911 3955 2961 3859 3065 3859 3143 3859 3197 3922 3251 3985 3251 4074 3251 4147 3210 4210 3160 4287 3075 4287 L 3046 4286 Q 3317 4396 3452 4440 L 3533 4462 3533 4506 3569 4486 4064 4995 Q 3792 4648 3576 4345 L 3414 4111 Q 3549 3950 3699 3868 3807 3810 3875 3810 3903 3810 3952 3823 L 4036 3846 3818 3728 4089 3330 4165 3327 Q 4201 3327 4282 3360 4386 3402 4473 3470 4730 3669 4730 3985 4730 4026 4670 4052 4631 4069 4600 4071 4813 4218 4871 4353 L 4927 4505 Q 4970 4617 5039 4734 4862 4205 4730 3561 L 4744 3516 Q 4763 3466 4790 3434 L 5053 3651 5053 3582 Q 4968 3520 4932 3454 4895 3385 4895 3284 4895 3191 4944 3100 4991 3012 5053 2981 L 5053 2848 5028 2848 5046 2727 Q 5050 2729 5052 2651 L 5053 2573 5024 2851 4809 2851 4803 2803 4821 2726 4838 2626 4833 2589 4823 2560 4964 2539 Q 5084 2501 5053 2405 5035 2467 4944 2493 L 4808 2510 4770 2466 4695 2370 4998 2201 5025 2223 5053 2248 5019 2189 6188 1775 Q 5433 2014 4906 2170 4840 2170 4769 2045 4648 1832 4554 1721 4593 1777 4643 1894 L 4781 2236 4484 2406 4038 1582 4107 1612 4131 1603 4161 1596 4262 1617 4417 1649 4199 1547 Q 4441 1268 4895 720 L 4854 720 4660 902 Q 4560 984 4425 984" fill="#000000"></path><path d="M 4780 3658 Q 4799 3705 4809 3710 L 4815 3707 Q 4815 3676 4773 3644 L 4780 3658" fill="#231815"></path></g><g id="cid_49" viewBox="-121 47 4309 939"><path d="M 4304 616 Q 4288 568 4226 528 4278 490 4290 448 4302 406 4271 368 4237 328 4163 304 4088 280 3992 280 L 3906 285 Q 3877 223 3792 181 3665 117 3475 117 3305 117 3146 171 3042 112 2897 79 2749 47 2585 47 2450 47 2322 69 2195 91 2090 132 1932 69 1723 69 L 1511 88 Q 1410 108 1337 144 1175 78 977 78 850 78 738 106 626 135 548 187 436 165 334 165 208 165 104 197 1 229 -56 286 -112 341 -108 403 -104 465 -44 519 -104 567 -118 615 -130 663 -91 702 -54 740 20 761 95 781 194 781 L 328 773 Q 389 837 505 871 623 906 784 906 938 906 1115 873 1211 905 1351 922 L 1657 939 Q 1903 939 2084 903 2256 934 2465 934 2729 934 2939 885 3114 938 3301 938 3454 938 3575 902 3694 866 3757 802 L 3943 819 Q 4063 819 4154 789 4247 760 4286 709 4320 664 4304 616" fill="#fff000"></path><path d="M 4214 626 Q 4198 571 4105 529 4183 490 4199 444 4212 402 4169 369 4123 336 4037 328 3942 319 3828 347 3828 282 3762 235 3701 190 3594 172 3359 133 3130 235 2958 105 2633 94 2312 83 2088 194 1934 108 1693 115 1457 122 1345 210 1176 114 941 124 703 134 582 246 414 201 269 213 140 225 61 279 -14 329 -16 396 -17 465 66 519 -12 569 -26 618 -40 664 7 696 114 768 383 716 443 826 655 852 856 877 1128 822 1278 884 1588 892 1884 899 2082 854 2270 892 2506 888 2754 884 2945 832 3180 913 3410 886 3641 858 3706 742 3866 780 3995 771 4110 762 4171 720 4230 679 4214 626" fill="#ffffff"></path></g><path id="cid_52" d="M 3452 -80 L 0 -80 0 401 3452 401 3452 -80" viewBox="0 -80 3452 401" fill="#ffffff"></path></defs></svg>
