<?xml version="1.0" encoding="utf-8"?>
<!DOCTYPE svg PUBLIC "-//W3C//DTD SVG 1.1//EN" "http://www.w3.org/Graphics/SVG/1.1/DTD/svg11.dtd">
<svg xmlns="http://www.w3.org/2000/svg" xmlns:xlink="http://www.w3.org/1999/xlink" version="1.1" width="2000" height="2000"><defs><g id="cid_1" viewBox="-95 -267 543 598"><path d="M 543 435 Q 543 367 495 320 447 272 380 272 346 272 317 284 287 297 265 320 243 341 230 370 217 399 217 435 217 502 265 550 313 598 380 598 447 598 495 550 543 502 543 435" fill="#66ff00"></path><path d="M 543 435 Q 543 367 495 320 447 272 380 272 346 272 317 284 287 297 265 320 243 341 230 370 217 399 217 435 217 502 265 550 313 598 380 598 447 598 495 550 543 502 543 435" fill="#000002"></path><path d="M 494 321 Q 447 274 380 274 352 274 324 284 L 313 271 Q 296 296 262 285 L 175 343 220 419 219 435 Q 219 502 266 549 313 596 380 596 447 596 494 549 541 502 541 435 541 368 494 321" fill="#142959"></path><path d="M 309 192 Q 280 147 236 171 193 195 219 240 L 128 291 162 351 262 285 Q 302 299 318 264 333 230 309 192" fill="#afc1c6"></path><path d="M 93 235 L 128 291 219 240 Q 206 219 213 199 219 181 237 171 L 228 157 93 235" fill="#680d09"></path><path d="M -82 -87 Q -112 -61 -72 12 L -64 -5 Q -60 -46 -38 -99 -62 -105 -82 -87" fill="#000002"></path><path d="M 256 -137 L 202 -172 176 -181 Q 169 -213 137 -243 L 106 -267 Q 10 -211 -36 -102 -60 -48 -64 -5 L -74 16 Q -82 41 -73 64 -58 100 44 170 L 54 258 344 88 297 45 Q 330 -71 256 -137" fill="#cfdee5"></path><path d="M 176 -181 Q 169 -213 137 -243 L 106 -267 Q 10 -211 -36 -102 -60 -48 -64 -5 L -74 16 Q -82 41 -73 64 L -52 88 Q -14 0 64 -80 117 -135 180 -177 L 176 -181" fill="#829399"></path><path d="M 297 45 L 54 258 344 88 297 45" fill="#829399"></path><path d="M 186 -133 L 130 -101 Q 169 -119 225 -91 257 -75 281 -54 257 -152 186 -133" fill="#ffffff"></path></g></defs></svg>
