<?xml version="1.0" encoding="utf-8"?>
<!DOCTYPE svg PUBLIC "-//W3C//DTD SVG 1.1//EN" "http://www.w3.org/Graphics/SVG/1.1/DTD/svg11.dtd">
<svg xmlns="http://www.w3.org/2000/svg" xmlns:xlink="http://www.w3.org/1999/xlink" version="1.1" width="4800" height="5600"><defs><path id="cid_1" d="M 4600 200 L 4800 200 4800 0 4600 0 4600 200 4600 400 4800 400 4800 200 M 4200 200 L 4400 200 4400 0 4200 0 4200 200 4200 400 4400 400 4400 200 4600 200 M 4400 800 L 4400 600 4200 600 4200 800 4400 800 4600 800 4600 600 4400 600 4400 400 4600 400 4600 600 4800 600 4800 400 M 4600 800 L 4800 800 4800 600 M 4400 0 L 4600 0 M 4200 400 L 4200 600 4000 600 4000 800 4200 800 4200 1000 4400 1000 4400 800 M 3800 200 L 4000 200 4000 0 3800 0 3800 200 3800 400 4000 400 4000 200 4200 200 M 3400 200 L 3600 200 3600 0 3400 0 3400 200 3400 400 3600 400 3600 200 3800 200 M 3600 800 L 3600 600 3400 600 3400 800 3600 800 3800 800 3800 600 3600 600 3600 400 3800 400 3800 600 4000 600 4000 400 4200 400 M 3800 800 L 4000 800 4000 1000 4200 1000 4200 1200 4400 1200 4400 1000 4600 1000 4600 800 M 3600 0 L 3800 0 M 3400 400 L 3400 600 3200 600 3200 800 3400 800 3400 1000 3600 1000 3600 800 M 3800 1200 L 4000 1200 4000 1000 3800 1000 3800 1200 3800 1400 4000 1400 4000 1200 4200 1200 4200 1400 4400 1400 4400 1200 4600 1200 4600 1000 4800 1000 4800 800 M 3400 1000 L 3400 1200 3600 1200 3600 1000 3800 1000 3800 800 M 3400 1200 L 3400 1400 3600 1400 3600 1200 3800 1200 M 3600 1600 L 3400 1600 3400 1800 3600 1800 3600 1600 3600 1400 3800 1400 3800 1600 4000 1600 4000 1400 4200 1400 4200 1600 4400 1600 4400 1400 4600 1400 4600 1200 4800 1200 4800 1000 M 3800 1600 L 3800 1800 4000 1800 4000 1600 4200 1600 4200 1800 4400 1800 4400 1600 4600 1600 4600 1400 4800 1400 4800 1200 M 3400 1400 L 3400 1600 3200 1600 3200 1800 3400 1800 3400 2000 3600 2000 3600 1800 3800 1800 3800 2000 4000 2000 4000 1800 4200 1800 4200 2000 4400 2000 4400 1800 4600 1800 4600 1600 4800 1600 4800 1400 M 3600 1600 L 3800 1600 M 4600 1800 L 4800 1800 4800 1600 M 4000 0 L 4200 0 M 4800 2200 L 4600 2200 4600 2400 4800 2400 4800 2200 4800 2000 4600 2000 4600 2200 4400 2200 4400 2400 4600 2400 4600 2600 4800 2600 4800 2400 M 4400 2200 L 4200 2200 4200 2400 4400 2400 4400 2600 4600 2600 4600 2800 4800 2800 4800 2600 M 4200 2000 L 4200 2200 4000 2200 4000 2400 4200 2400 4200 2600 4400 2600 4400 2800 4600 2800 4600 3000 4800 3000 4800 2800 M 4400 2200 L 4400 2000 4600 2000 4600 1800 M 4200 2600 L 4200 2800 4400 2800 4400 3000 4600 3000 4600 3200 4800 3200 4800 3000 M 4000 2200 L 3800 2200 3800 2400 4000 2400 4000 2600 4200 2600 M 3800 2000 L 3800 2200 3600 2200 3600 2400 3800 2400 3800 2600 4000 2600 4000 2800 4200 2800 4200 3000 4400 3000 4400 3200 4600 3200 4600 3400 4800 3400 4800 3200 M 4200 2000 L 4000 2000 4000 2200 M 3600 2200 L 3400 2200 3400 2400 3600 2400 3600 2600 3800 2600 3800 2800 4000 2800 4000 3000 4200 3000 4200 3200 4400 3200 4400 3400 4600 3400 4600 3600 4800 3600 4800 3400 M 3400 2000 L 3400 2200 3200 2200 3200 2400 3400 2400 3400 2600 3600 2600 3600 2800 3800 2800 3800 3000 4000 3000 4000 3200 4200 3200 4200 3400 4400 3400 4400 3600 4600 3600 4600 3800 4800 3800 4800 3600 M 3600 2200 L 3600 2000 3800 2000 M 3400 2600 L 3400 2800 3600 2800 3600 3000 3800 3000 3800 3200 4000 3200 4000 3400 4200 3400 4200 3600 4400 3600 4400 3800 4600 3800 4600 4000 4800 4000 4800 3800 M 3800 3200 L 3800 3400 4000 3400 4000 3600 4200 3600 4200 3800 4400 3800 4400 4000 4600 4000 4600 4200 4800 4200 4800 4000 M 3400 3200 L 3600 3200 3600 3000 3400 3000 3400 3200 3400 3400 3600 3400 3600 3200 3800 3200 M 3600 3600 L 3400 3600 3400 3800 3600 3800 3600 3600 3600 3400 3800 3400 3800 3600 4000 3600 4000 3800 4200 3800 4200 4000 4400 4000 4400 4200 4600 4200 4600 4400 4800 4400 4800 4200 M 3800 3600 L 3800 3800 4000 3800 4000 4000 4200 4000 4200 4200 4400 4200 4400 4400 4600 4400 4600 4600 4800 4600 4800 4400 M 3400 3400 L 3400 3600 3200 3600 3200 3800 3400 3800 3400 4000 3600 4000 3600 3800 3800 3800 3800 4000 4000 4000 4000 4200 4200 4200 4200 4400 4400 4400 4400 4600 4600 4600 4600 4800 4800 4800 4800 4600 M 3600 3600 L 3800 3600 M 3400 2800 L 3400 3000 3200 3000 3200 3200 3400 3200 M 4800 1800 L 4800 2000 M 3000 200 L 3200 200 3200 0 3000 0 3000 200 3000 400 3200 400 3200 200 3400 200 M 2600 200 L 2800 200 2800 0 2600 0 2600 200 2600 400 2800 400 2800 200 3000 200 M 2800 800 L 2800 600 2600 600 2600 800 2800 800 3000 800 3000 600 2800 600 2800 400 3000 400 3000 600 3200 600 3200 400 3400 400 M 3000 800 L 3200 800 3200 1000 3400 1000 M 2800 0 L 3000 0 M 2600 400 L 2600 600 2400 600 2400 800 2600 800 2600 1000 2800 1000 2800 800 M 2200 200 L 2400 200 2400 0 2200 0 2200 200 2200 400 2400 400 2400 200 2600 200 M 1800 200 L 2000 200 2000 0 1800 0 1800 200 1800 400 2000 400 2000 200 2200 200 M 2000 800 L 2000 600 1800 600 1800 800 2000 800 2200 800 2200 600 2000 600 2000 400 2200 400 2200 600 2400 600 2400 400 2600 400 M 2200 800 L 2400 800 2400 1000 2600 1000 2600 1200 2800 1200 2800 1000 3000 1000 3000 800 M 2000 0 L 2200 0 M 1800 400 L 1800 600 1600 600 1600 800 1800 800 1800 1000 2000 1000 2000 800 M 2200 1200 L 2400 1200 2400 1000 2200 1000 2200 1200 2200 1400 2400 1400 2400 1200 2600 1200 2600 1400 2800 1400 2800 1200 3000 1200 3000 1000 3200 1000 3200 1200 3400 1200 M 1800 1000 L 1800 1200 2000 1200 2000 1000 2200 1000 2200 800 M 1800 1200 L 1800 1400 2000 1400 2000 1200 2200 1200 M 2000 1800 L 2000 1600 1800 1600 1800 1800 2000 1800 2200 1800 2200 1600 2000 1600 2000 1400 2200 1400 2200 1600 2400 1600 2400 1400 2600 1400 2600 1600 2800 1600 2800 1400 3000 1400 3000 1200 3200 1200 3200 1400 3400 1400 M 2200 1800 L 2400 1800 2400 1600 2600 1600 2600 1800 2800 1800 2800 1600 3000 1600 3000 1400 3200 1400 3200 1600 3000 1600 3000 1800 3200 1800 3200 2000 3400 2000 M 1800 1400 L 1800 1600 1600 1600 1600 1800 1800 1800 1800 2000 2000 2000 2000 1800 M 2800 1800 L 3000 1800 3000 2000 3200 2000 3200 2200 3000 2200 3000 2400 3200 2400 3200 2600 3400 2600 M 2400 0 L 2600 0 M 2400 1800 L 2600 1800 2600 2000 2800 2000 2800 1800 M 1400 200 L 1600 200 1600 0 1400 0 1400 200 1400 400 1600 400 1600 200 1800 200 M 1000 200 L 1200 200 1200 0 1000 0 1000 200 1000 400 1200 400 1200 200 1400 200 M 1200 600 L 1000 600 1000 800 1200 800 1200 600 1200 400 1400 400 1400 600 1600 600 1600 400 1800 400 M 1400 600 L 1400 800 1600 800 1600 1000 1800 1000 M 1200 0 L 1400 0 M 1000 400 L 1000 600 800 600 800 800 1000 800 1000 1000 1200 1000 1200 800 1400 800 1400 1000 1600 1000 1600 1200 1800 1200 M 1200 600 L 1400 600 M 600 200 L 800 200 800 0 600 0 600 200 600 400 800 400 800 200 1000 200 M 600 0 L 400 0 400 200 600 200 M 4800 4800 L 4800 5000 4800 5200 4800 5400 4800 5600 4600 5600 4400 5600 4200 5600 4000 5600 3800 5600 3600 5600 3400 5600 3200 5600 3000 5600 2800 5600 2600 5600 2400 5600 2200 5600 2000 5600 1800 5600 1600 5600 1400 5600 1200 5600 1000 5600 800 5600 600 5600 400 5600 200 5600 0 5600 0 5400 0 5200 0 5000 0 4800 0 4600 0 4400 0 4200 0 4000 0 3800 0 3600 0 3400 0 3200 0 3000 0 2800 0 2600 0 2400 0 2200 0 2000 0 1800 0 1600 0 1400 0 1200 0 1000 0 800 0 600 0 400 0 200 0 0 200 0 400 0 M 200 0 L 200 200 400 200 400 400 600 400 600 600 800 600 800 400 1000 400 M 0 200 L 200 200 200 400 400 400 400 600 600 600 600 800 800 800 800 1000 1000 1000 1000 1200 1200 1200 1200 1000 1400 1000 1400 1200 1600 1200 1600 1400 1800 1400 M 0 400 L 200 400 200 600 400 600 400 800 600 800 600 1000 800 1000 800 1200 1000 1200 1000 1400 1200 1400 1200 1200 1400 1200 1400 1400 1600 1400 1600 1600 1400 1600 1400 1800 1600 1800 1600 2000 1800 2000 1800 2200 2000 2200 2000 2000 2200 2000 2200 1800 M 200 600 L 200 800 400 800 400 1000 600 1000 600 1200 800 1200 800 1400 1000 1400 1000 1600 1200 1600 1200 1400 1400 1400 1400 1600 1200 1600 1200 1800 1400 1800 1400 2000 1600 2000 1600 2200 1800 2200 1800 2400 2000 2400 2000 2200 2200 2200 2200 2000 2400 2000 2400 1800 M 200 600 L 0 600 M 0 800 L 200 800 200 1000 400 1000 400 1200 600 1200 600 1400 800 1400 800 1600 1000 1600 1000 1800 1200 1800 1200 2000 1400 2000 1400 2200 1600 2200 1600 2400 1800 2400 1800 2600 2000 2600 2000 2400 2200 2400 2200 2200 2400 2200 2400 2000 2600 2000 2600 2200 2800 2200 2800 2000 3000 2000 3000 2200 2800 2200 2800 2400 3000 2400 3000 2600 3200 2600 3200 2800 3400 2800 M 0 1200 L 200 1200 200 1000 0 1000 M 0 1400 L 200 1400 200 1200 400 1200 400 1400 600 1400 600 1600 800 1600 800 1800 1000 1800 1000 2000 1200 2000 1200 2200 1400 2200 1400 2400 1600 2400 1600 2600 1800 2600 1800 2800 2000 2800 2000 2600 2200 2600 2200 2400 2400 2400 2400 2200 2600 2200 2600 2400 2800 2400 2800 2600 3000 2600 3000 2800 3200 2800 3200 3000 3000 3000 3000 3200 3200 3200 3200 3400 3400 3400 M 200 1400 L 400 1400 400 1600 600 1600 600 1800 800 1800 800 2000 1000 2000 1000 2200 1200 2200 1200 2400 1400 2400 1400 2600 1600 2600 1600 2800 1800 2800 1800 3000 2000 3000 2000 2800 2200 2800 2200 2600 2400 2600 2400 2400 2600 2400 2600 2600 2800 2600 2800 2800 3000 2800 3000 3000 2800 3000 2800 3200 3000 3200 3000 3400 3200 3400 3200 3600 3000 3600 3000 3800 3200 3800 3200 4000 3400 4000 3400 4200 3600 4200 3600 4000 3800 4000 3800 4200 4000 4200 4000 4400 4200 4400 4200 4600 4400 4600 4400 4800 4600 4800 4600 5000 4800 5000 M 200 1600 L 200 1800 400 1800 400 1600 200 1600 200 1400 M 200 1600 L 0 1600 M 0 1800 L 200 1800 200 2000 400 2000 400 1800 600 1800 600 2000 800 2000 800 2200 1000 2200 1000 2400 1200 2400 1200 2600 1400 2600 1400 2800 1600 2800 1600 3000 1800 3000 1800 3200 2000 3200 2000 3000 2200 3000 2200 2800 2400 2800 2400 2600 2600 2600 2600 2800 2800 2800 2800 3000 2600 3000 2600 3200 2800 3200 2800 3400 3000 3400 3000 3600 2800 3600 2800 3800 3000 3800 3000 4000 3200 4000 3200 4200 3400 4200 3400 4400 3600 4400 3600 4200 3800 4200 3800 4400 4000 4400 4000 4600 4200 4600 4200 4800 4400 4800 4400 5000 4600 5000 4600 5200 4800 5200 M 800 0 L 1000 0 M 1200 2800 L 1200 2600 1000 2600 1000 2800 1200 2800 1400 2800 1400 3000 1600 3000 1600 3200 1800 3200 1800 3400 2000 3400 2000 3200 2200 3200 2200 3000 2400 3000 2400 2800 2600 2800 2600 3000 2400 3000 2400 3200 2600 3200 2600 3400 2800 3400 2800 3600 2600 3600 2600 3800 2800 3800 2800 4000 3000 4000 3000 4200 3200 4200 3200 4400 3400 4400 3400 4600 3600 4600 3600 4400 3800 4400 3800 4600 4000 4600 4000 4800 4200 4800 4200 5000 4400 5000 4400 5200 4600 5200 4600 5400 4800 5400 M 1000 2400 L 1000 2600 800 2600 800 2800 1000 2800 1000 3000 1200 3000 1200 2800 M 800 2200 L 600 2200 600 2400 800 2400 800 2200 M 600 2000 L 600 2200 400 2200 400 2400 600 2400 600 2600 800 2600 800 2400 1000 2400 M 600 2000 L 400 2000 400 2200 200 2200 200 2400 400 2400 400 2600 600 2600 600 2800 800 2800 800 3000 1000 3000 1000 3200 1200 3200 1200 3000 1400 3000 1400 3200 1600 3200 1600 3400 1800 3400 1800 3600 2000 3600 2000 3400 2200 3400 2200 3200 2400 3200 2400 3400 2600 3400 2600 3600 2400 3600 2400 3800 2600 3800 2600 4000 2800 4000 2800 4200 3000 4200 3000 4400 3200 4400 3200 4600 3400 4600 3400 4800 3600 4800 3600 4600 3800 4600 3800 4800 4000 4800 4000 5000 4200 5000 4200 5200 4400 5200 4400 5400 4600 5400 4600 5600 M 0 2000 L 200 2000 200 2200 0 2200 M 0 2400 L 200 2400 200 2600 400 2600 400 2800 600 2800 600 3000 800 3000 800 3200 1000 3200 1000 3400 1200 3400 1200 3200 1400 3200 1400 3400 1600 3400 1600 3600 1800 3600 1800 3800 2000 3800 2000 3600 2200 3600 2200 3400 2400 3400 2400 3600 2200 3600 2200 3800 2400 3800 2400 4000 2600 4000 2600 4200 2800 4200 2800 4400 3000 4400 3000 4600 3200 4600 3200 4800 3400 4800 3400 5000 3600 5000 3600 4800 3800 4800 3800 5000 4000 5000 4000 5200 4200 5200 4200 5400 4400 5400 4400 5600 M 200 2600 L 200 2800 400 2800 400 3000 600 3000 600 3200 800 3200 800 3400 1000 3400 1000 3600 1200 3600 1200 3400 1400 3400 1400 3600 1600 3600 1600 3800 1800 3800 1800 4000 2000 4000 2000 3800 2200 3800 2200 4000 2400 4000 2400 4200 2600 4200 2600 4400 2800 4400 2800 4600 3000 4600 3000 4800 3200 4800 3200 5000 3400 5000 3400 5200 3600 5200 3600 5000 3800 5000 3800 5200 4000 5200 4000 5400 4200 5400 4200 5600 M 200 2600 L 0 2600 M 0 2800 L 200 2800 200 3000 400 3000 400 3200 600 3200 600 3400 800 3400 800 3600 1000 3600 1000 3800 1200 3800 1200 3600 1400 3600 1400 3800 1600 3800 1600 4000 1800 4000 1800 4200 2000 4200 2000 4000 2200 4000 2200 4200 2400 4200 2400 4400 2600 4400 2600 4600 2800 4600 2800 4800 3000 4800 3000 5000 3200 5000 3200 5200 3400 5200 3400 5400 3600 5400 3600 5200 3800 5200 3800 5400 4000 5400 4000 5600 M 0 3000 L 200 3000 200 3200 400 3200 400 3400 600 3400 600 3600 800 3600 800 3800 1000 3800 1000 4000 1200 4000 1200 3800 1400 3800 1400 4000 1600 4000 1600 4200 1800 4200 1800 4400 2000 4400 2000 4200 2200 4200 2200 4400 2400 4400 2400 4600 2600 4600 2600 4800 2800 4800 2800 5000 3000 5000 3000 5200 3200 5200 3200 5400 3400 5400 3400 5600 M 0 3200 L 200 3200 200 3400 400 3400 400 3600 600 3600 600 3800 800 3800 800 4000 1000 4000 1000 4200 1200 4200 1200 4000 1400 4000 1400 4200 1600 4200 1600 4400 1800 4400 1800 4600 2000 4600 2000 4400 2200 4400 2200 4600 2400 4600 2400 4800 2600 4800 2600 5000 2800 5000 2800 5200 3000 5200 3000 5400 3200 5400 3200 5600 M 0 3400 L 200 3400 200 3600 400 3600 400 3800 600 3800 600 4000 800 4000 800 4200 1000 4200 1000 4400 1200 4400 1200 4200 1400 4200 1400 4400 1600 4400 1600 4600 1800 4600 1800 4800 2000 4800 2000 4600 2200 4600 2200 4800 2400 4800 2400 5000 2600 5000 2600 5200 2800 5200 2800 5400 3000 5400 3000 5600 M 200 3600 L 200 3800 400 3800 400 4000 600 4000 600 4200 800 4200 800 4400 1000 4400 1000 4600 1200 4600 1200 4400 1400 4400 1400 4600 1600 4600 1600 4800 1800 4800 1800 5000 2000 5000 2000 4800 2200 4800 2200 5000 2400 5000 2400 5200 2600 5200 2600 5400 2800 5400 2800 5600 M 200 3600 L 0 3600 M 0 3800 L 200 3800 200 4000 400 4000 400 4200 600 4200 600 4400 800 4400 800 4600 1000 4600 1000 4800 1200 4800 1200 4600 1400 4600 1400 4800 1600 4800 1600 5000 1800 5000 1800 5200 2000 5200 2000 5000 2200 5000 2200 5200 2400 5200 2400 5400 2600 5400 2600 5600 M 1600 0 L 1800 0 M 2200 5200 L 2200 5400 2400 5400 2400 5600 M 1800 5200 L 1800 5400 2000 5400 2000 5200 2200 5200 M 2200 5600 L 2200 5400 2000 5400 2000 5600 M 1800 5400 L 1800 5600 M 1200 4800 L 1400 4800 1400 5000 1600 5000 1600 5200 1800 5200 M 0 4000 L 200 4000 200 4200 400 4200 400 4400 600 4400 600 4600 800 4600 800 4800 1000 4800 1000 5000 1200 5000 1200 4800 M 0 4200 L 200 4200 200 4400 400 4400 400 4600 600 4600 600 4800 800 4800 800 5000 1000 5000 1000 5200 1200 5200 1200 5000 1400 5000 1400 5200 1600 5200 1600 5400 1800 5400 M 0 4400 L 200 4400 200 4600 400 4600 400 4800 600 4800 600 5000 800 5000 800 5200 1000 5200 1000 5400 1200 5400 1200 5200 1400 5200 1400 5400 1600 5400 1600 5600 M 200 4600 L 200 4800 400 4800 400 5000 600 5000 600 5200 800 5200 800 5400 1000 5400 1000 5600 M 0 4800 L 200 4800 200 5000 400 5000 400 5200 600 5200 600 5400 800 5400 800 5600 M 0 4600 L 200 4600 M 0 5000 L 200 5000 200 5200 400 5200 400 5400 600 5400 600 5600 M 0 5400 L 200 5400 200 5200 0 5200 M 200 5400 L 400 5400 400 5600 M 200 5400 L 200 5600 M 1400 5600 L 1400 5400 1200 5400 1200 5600 M 3800 5600 L 3800 5400 3600 5400 3600 5600 M 3200 0 L 3400 0" viewBox="-10 -10 4810 5610" fill="none" stroke="#999999" stroke-width="20" stroke-linecap="round" stroke-linejoin="round"></path><path id="cid_8" d="M 4400 681 L 4400 0 -400 0 -400 681 4400 681" viewBox="-400 0 4400 681" fill="#0000ff" fill-opacity="0.25098039215686"></path></defs></svg>
