<?xml version="1.0" encoding="utf-8"?>
<!DOCTYPE svg PUBLIC "-//W3C//DTD SVG 1.1//EN" "http://www.w3.org/Graphics/SVG/1.1/DTD/svg11.dtd">
<svg xmlns="http://www.w3.org/2000/svg" xmlns:xlink="http://www.w3.org/1999/xlink" version="1.1" width="11000" height="8000"><defs><path id="cid_1" d="M 3508 1870 Q 3449 1785 3372 1708 3148 1484 2860 1413 L 2860 1980 2600 1980 2600 1333 Q 2467 1300 2320 1300 1856 1300 1528 1628 1200 1956 1200 2420 1200 2817 1440 3115 L 1440 3910 2670 3910 2670 3488 2780 3446 Q 2937 3375 3072 3251 L 3112 3212 Q 3440 2884 3440 2420 L 3436 2320 Q 3425 2184 3385 2060 L 3614 2060 Q 3571 1961 3508 1870" viewBox="1200 1300 3614 3910" fill="#99ff00"></path></defs></svg>
