<?xml version="1.0" encoding="utf-8"?>
<!DOCTYPE svg PUBLIC "-//W3C//DTD SVG 1.1//EN" "http://www.w3.org/Graphics/SVG/1.1/DTD/svg11.dtd">
<svg xmlns="http://www.w3.org/2000/svg" xmlns:xlink="http://www.w3.org/1999/xlink" version="1.1" width="11000" height="8000"><defs><path id="cid_1" d="M 870 -2300 L -870 -2300 -870 2300 870 2300 870 -2300" viewBox="-870 -2300 870 2300" fill="#ffffff"></path><path id="cid_3" d="M 160 7836 L 160 6936 0 6936 0 7996 1064 7996 1064 7836 160 7836 M 1064 160 L 1064 0 4 0 4 1064 164 1064 164 160 1064 160 M 11000 6936 L 10840 6936 10840 7840 9940 7840 9940 8000 11000 8000 11000 6936 M 9940 4 L 9940 164 10844 164 10844 1064 11004 1064 11004 4 9940 4" viewBox="0 0 11004 8000" fill="#000000"></path><text id="cid_5" font-size="800" font-family="Monaco" fill="000000" viewBox="-257 156 5871 819"><tspan x="0 480 960 1440 1920 2400 2880 3360 3840 4320 4800 5280 5760" y="800">SWF on iPhone</tspan></text><text id="cid_6" font-size="500" font-family="Monaco" fill="000000" viewBox="-469 109 3360 1313"><tspan x="900 1200 1500 1800 2100 2400 2700 3000 3300 3600" y="500">KAYAC Inc.</tspan><tspan x="0 300 600 900 1200 1500 1800 2100 2400 2700 3000 3300 3600" y="1200">Kensaku Araga</tspan></text><text id="cid_7" font-size="600" font-family="Monaco" fill="000000" viewBox="33 117 6443 727"><tspan x="0 360 720 1080 1440 1800 2160 2520 2880 3240 3600 3960 4320 4680 5040 5400 5760 6120" y="600">JavaScript Runtime</tspan></text><text id="cid_10" font-size="500" font-family="Hiragino Kaku Gothic ProN W6" fill="000000" viewBox="54 10 6448 481"><tspan x="0 500 1000 1485 1985 2485 2985 3485 3985 4485 4985 5485 5985" y="440">プロジェクト名、きめました</tspan></text><path id="cid_11" d="M 10676 7680 L 10676 0 0 0 0 7680 10676 7680" viewBox="0 0 10676 7680" fill="#ff0000"></path><text id="cid_13" font-size="500" font-family="Hiragino Kaku Gothic ProN W6" fill="000000" viewBox="34 18 6096 1274"><tspan x="0 500 1000 1500 2000 2500 3000 3500 4000 4465 4965" y="440">スマホの時代になっても</tspan><tspan x="0 322 457 774 1070" y="1240">Flash</tspan><tspan x="1407 1907 2407 2907 3407 3907 4407 4907 5407 5907" y="1240">を終わらせたくない。</tspan></text><text id="cid_14" font-size="500" font-family="Hiragino Kaku Gothic ProN W6" fill="000000" viewBox="15 15 5292 1272"><tspan x="0 322 457 774 1070" y="440">Flash</tspan><tspan x="1407 1907 2407 2907" y="440">の資産を</tspan><tspan x="0 500 1000 1500 2000 2500 3000 3500 4000 4500 5000" y="1240">次の時代に生かしたい！</tspan></text><text id="cid_15" font-size="900" font-family="Hiragino Kaku Gothic ProN W6" fill="000000" viewBox="63 22 8778 863"><tspan x="0 579 822 1392 1925" y="800">Flash</tspan><tspan x="2530 3430 4330 5230 6130 7030 7930" y="800">を前進させたい</tspan></text><text id="cid_16" font-size="560" font-family="Hiragino Kaku Gothic ProN W6" fill="000000" viewBox="88 32 3336 530"><tspan x="0 560 1120 1680 2240 2800" y="500">というわけで</tspan></text><path id="cid_17" d="M 11439 0 L 0 0 0 8299 11439 8299 11439 0" viewBox="0 0 11439 8299" fill="#000000"></path><text id="cid_19" font-size="1200" font-family="Copperplate Gothic Bold" fill="ffffff" viewBox="70 221 4523 1098"><tspan x="0 873 1722 2698 3562" y="1060">FLASH</tspan></text><text id="cid_20" font-size="1200" font-family="Copperplate Gothic Bold" fill="ffffff" viewBox="42 366 7939 1074"><tspan x="0 864 1719 2019 2741 3596 4396 5481 6314 7137" y="1060">go forward</tspan></text><text id="cid_21" font-size="1200" font-family="Copperplate Gothic Bold" fill="ffffff" viewBox="9 366 9080 1098"><tspan x="0 681 1536 1836 2519 3390 4160 4460 5191 6020 6702 7530 8353" y="1060">to the future</tspan></text><use id="cid_23" transform="matrix(20,0,0,20,0,0)" xlink:href="#cid_22" viewBox="0 0 38400 21600"></use><text id="cid_25" font-size="600" font-family="Hiragino Kaku Gothic ProN W6" fill="000000" viewBox="33 14 4165 577"><tspan x="0 600 1200 1800 2400 3000 3600" y="520">前回のおさらい</tspan></text><text id="cid_26" font-size="600" font-family="Hiragino Kaku Gothic ProN W6" fill="000000" viewBox="7 42 10488 4340"><tspan x="0 386 772 1257 1686 2182 2568 3071 3535 4134 4619 5083" y="520">FLASHFORWARD</tspan><tspan x="5566 6166" y="520">は、</tspan><tspan x="0 600 1200 1800 2400 3000 3600 4200 4800 5400 6000" y="1460">ガラケー向けサービスを</tspan><tspan x="0 600 1200" y="2400">スマホ</tspan><tspan x="1800 2044 2206 2632 3035 3437 3841 4223 4739 5224 5628 6052 6347 6749 6912 7336" y="2400">(iPhone&amp;Android)</tspan><tspan x="7580 8180 8780 9380 9956" y="2400">でも使える</tspan><tspan x="0 600 1182 1752 2352 2952 3552 4152 4752 5352 5952 6510 7110 7710 8286" y="3340">モバイルクロスプラットフォーム</tspan><tspan x="0 635 1046" y="4280">WEB</tspan><tspan x="1498 2098 2698 3298 3898 4498 5098 5698 6298 6898 7498 8098 8698 9298" y="4280">サービスにするための取り組み</tspan></text><text id="cid_27" font-size="600" font-family="Hiragino Kaku Gothic ProN W6" fill="000000" viewBox="231 14 9301 1524"><tspan x="0" y="520"> </tspan><tspan x="200 800 1400 2000 2600 3200" y="520">ガラケー向け</tspan><tspan x="3800 4297" y="520">UI</tspan><tspan x="4473 5073 5673 6273 6873 7473" y="520">とスマホ向け</tspan><tspan x="8073 8570" y="520">UI</tspan><tspan x="8746" y="520">の</tspan><tspan x="0 200" y="1460"> 2</tspan><tspan x="627 1227 1827 2427 2997 3597 4197 4797 5397" y="1460">種類にして出し分け</tspan></text><text id="cid_28" font-size="600" font-family="Hiragino Kaku Gothic ProN W6" fill="000000" viewBox="238 14 10136 1516"><tspan x="0" y="520"> </tspan><tspan x="200 800 1400 2000 2600" y="520">ガラケー＆</tspan><tspan x="3200 3685 4089 4513 4808 5210 5373" y="520">Android</tspan><tspan x="5797" y="520">は</tspan><tspan x="6397 6783 6946 7326 7682 8086 8472 8634 8894 9277 9704 9866" y="520">FlashLite1.1</tspan><tspan x="0 200 362 788 1191 1593 1997" y="1460"> iPhone</tspan><tspan x="2379" y="1460">は</tspan><tspan x="2979 3475 3900 4493 4879" y="1460">HTML5</tspan><tspan x="5306 5906 6506 7106 7706" y="1460">に出し分け</tspan></text><text id="cid_29" font-size="700" font-family="Hiragino Kaku Gothic ProN W6" fill="000000" viewBox="49 61 2211 630"><tspan x="0 578 1074 1765" y="620">HTML</tspan></text><text id="cid_30" font-size="700" font-family="Hiragino Kaku Gothic ProN W6" fill="000000" viewBox="49 61 1925 635"><tspan x="0 451 640 1083 1498" y="620">Flash</tspan></text><text id="cid_31" font-size="600" font-family="Hiragino Kaku Gothic ProN W6" fill="000000" viewBox="23 36 9078 2462"><tspan x="0 600 1200" y="520">でも、</tspan><tspan x="0 429 1064" y="1460">SWF</tspan><tspan x="1450" y="1460">を</tspan><tspan x="2050 2546 2971 3564 3950" y="1460">HTML5</tspan><tspan x="4377 4977 5577 6177 6777 7377 7977 8535" y="1460">に変換するのって</tspan><tspan x="0 600 1200 1800 2400 3000 3600 4200" y="2400">結構辛い単純作業</tspan></text><text id="cid_32" font-size="600" font-family="Hiragino Kaku Gothic ProN W6" fill="000000" viewBox="65 31 8311 2460"><tspan x="0 600 1200 1800" y="520">じゃあ、</tspan><tspan x="0 600 1200 1800 2400 3000 3600 4200 4800 5400 6000 6600 7200 7800" y="1460">プログラマらしく自動化しよう</tspan><tspan x="0 600 1200 1800 2400 3000 3600 4200" y="2400">という健全な試み</tspan></text><text id="cid_33" font-size="600" font-family="Hiragino Kaku Gothic ProN W6" fill="000000" viewBox="38 14 9554 578"><tspan x="0 600 1200 1800 2400 3000 3600 4200 4800 5382 5982 6582 7182 7782 8382 8982" y="520">ガラケーのシチュエーションを想定</tspan></text><path id="cid_34" d="M 5030 5785 L 5764 4514 4295 4514 5030 5785" viewBox="4295 4514 5764 5785" fill="#000000"></path><text id="cid_35" font-size="760" font-family="Hiragino Kaku Gothic ProN W6" fill="000000" viewBox="26 31 5399 3051"><tspan x="0 410 663 1287 1796 2126" y="660">&gt; Not </tspan><tspan x="2379 3139 3899" y="660">非同期</tspan><tspan x="0 410" y="1840">&gt; </tspan><tspan x="663 1423 2183 2943" y="1840">動的生成</tspan><tspan x="0 410 663 1153 1359 1841 2292 2803 3292 3498 3828 4312 4853 5058" y="3020">&gt; FlashLite1.1</tspan></text><text id="cid_36" font-size="600" font-family="Hiragino Kaku Gothic ProN W6" fill="000000" viewBox="34 44 9994 2533"><tspan x="0 600 1182 1758 2340" y="520">サーバーで</tspan><tspan x="0 600 1200 1800 2400 3000 3600 4200 4770 5370 5940 6540 7110" y="1460">中間コードにコンパイルして</tspan><tspan x="0 600 1200 1800 2400 3000 3600" y="2400">クライアントの</tspan><tspan x="4200 4555 4935 5308 5688 6117 6492 6787 6950 7374" y="2400">JavaScript</tspan><tspan x="7634 8234 8834 9434" y="2400">で動かす</tspan></text><text id="cid_38" font-size="600" font-family="Hiragino Kaku Gothic ProN W6" fill="000000" viewBox="49 19 4184 581"><tspan x="0 600 1200 1800 2400 3000 3600" y="520">中間コード仕様</tspan></text><text id="cid_39" font-size="600" font-family="Hiragino Kaku Gothic ProN W6" fill="000000" viewBox="9 16 8314 582"><tspan x="0 600 1200 1800 2400 3000 3570 4170 4770 5370 5970 6540 7140 7740" y="520">複数のファイルに分割して保存</tspan></text><text id="cid_40" font-size="480" font-family="Monaco" fill="000000" viewBox="53 94 7156 4669"><tspan x="0 288 576 864 1152 1440 1728 2016 2304 2592 2880 3168" y="480">- index.json</tspan><tspan x="0 288 576 864 1152 1440 1728 2016 2304 2592 2880 3168 3456 3744 4032 4320 4608 4896 5184 5472 5760 6048" y="1160">- defines/shape.svg(z)</tspan><tspan x="0 288 576 864 1152 1440 1728 2016 2304 2592 2880 3168 3456 3744 4032 4320 4608 4896 5184 5472 5760" y="1840">- defines/font.svg(z)</tspan><tspan x="0 288 576 864 1152 1440 1728 2016 2304 2592 2880 3168 3456 3744 4032 4320 4608 4896 5184 5472 5760" y="2520">- defines/sprite.json</tspan><tspan x="0 288 576 864 1152 1440 1728 2016 2304 2592 2880 3168 3456 3744 4032 4320 4608 4896 5184 5472 5760" y="3200">- defines/text.svg(z)</tspan><tspan x="0 288 576 864 1152 1440 1728 2016 2304 2592 2880 3168 3456 3744 4032 4320 4608 4896 5184" y="3880">- defines/text.json</tspan><tspan x="0 288 576 864 1152 1440 1728 2016 2304 2592 2880 3168 3456 3744 4032 4320 4608 4896 5184 5472 5760 6048 6336 6624 6912" y="4560">- define/bitmap.(jpg|png)</tspan></text><text id="cid_41" font-size="600" font-family="Hiragino Kaku Gothic ProN W6" fill="000000" viewBox="38 57 3212 652"><tspan x="0 162 565 989 1371 1741 1903 2088 2444 2846" y="520">index.json</tspan></text><text id="cid_42" font-size="480" font-family="Hiragino Kaku Gothic ProN W6" fill="000000" viewBox="16 15 8124 1972"><tspan x="0 198" y="420">- </tspan><tspan x="358 838 1318 1798 2278 2734 3214" y="420">素材ファイルの</tspan><tspan x="3694 4092 4463" y="420">URL</tspan><tspan x="4772 5252 5732 6212 6692 7172 7652" y="420">を示す辞書情報</tspan><tspan x="0 198 358 701 1209" y="1180">- SWF</tspan><tspan x="1518 1998 2478 2958 3424 3904 4384 4864" y="1180">本体のメタデータ</tspan><tspan x="5344 5539 5768 6108" y="1180">(fps</tspan><tspan x="6392 6872" y="1180">とか</tspan><tspan x="7352" y="1180">)</tspan><tspan x="0 198 358 594 916 1237" y="1940">- root</tspan><tspan x="1445 1906 2386 2866 3346" y="1940">アクション</tspan></text><text id="cid_43" font-size="600" font-family="Hiragino Kaku Gothic ProN W6" fill="000000" viewBox="23 50 6704 653"><tspan x="0 424 806 1092 1255 1658 2040 2396 2708 3064 3468 3848 4273 4655 4817 5173 5545 5960 6204 6528" y="520">defines/shape.svg(z)</tspan></text><text id="cid_44" font-size="480" font-family="Hiragino Kaku Gothic ProN W6" fill="000000" viewBox="16 13 8718 1987"><tspan x="0 198 358 701 1024 1328 1668 1974" y="420">- Shape(</tspan><tspan x="2169 2634 3114 3594 4074 4554 5034" y="420">ベクターデータ</tspan><tspan x="5514" y="420">)</tspan><tspan x="5709" y="420">を</tspan><tspan x="6189 6532 6909" y="420">SVG</tspan><tspan x="7289 7769 8249" y="420">に変換</tspan><tspan x="0 480 960 1440" y="1180">したもの</tspan><tspan x="0 198 358 701 1209" y="1940">- SWF</tspan><tspan x="1518 1998 2478 2958 3438 3918 4398 4878 5358" y="1940">の一部機能は非対応</tspan></text><text id="cid_45" font-size="600" font-family="Hiragino Kaku Gothic ProN W6" fill="000000" viewBox="23 50 6109 652"><tspan x="0 424 806 1092 1255 1658 2040 2396 2708 2994 3396 3800 4060 4222 4578 4950 5365 5609 5933" y="520">defines/font.svg(z)</tspan></text><text id="cid_46" font-size="480" font-family="Hiragino Kaku Gothic ProN W6" fill="000000" viewBox="16 13 8614 3505"><tspan x="0 198" y="420">- </tspan><tspan x="358 838 1318 1798" y="420">埋め込み</tspan><tspan x="2278 2507 2829 3152" y="420">font</tspan><tspan x="3360" y="420">を</tspan><tspan x="3840 4183 4560" y="420">SVG</tspan><tspan x="4940 5420 5881 6361 6841 7321 7801" y="420">フォントに変換</tspan><tspan x="0 480 960 1440" y="1180">したもの</tspan><tspan x="1920 2115 2523 2829" y="1180">(web</tspan><tspan x="3168 3648 4109 4589" y="1180">フォント</tspan><tspan x="5069" y="1180">)</tspan><tspan x="0 198 358 766 1072" y="1940">- web</tspan><tspan x="1411 1891 2352 2832 3312 3792 4272 4752 5232 5712 6168 6648 7128 7608 8088" y="1940">フォントは上下反転しているので</tspan><tspan x="0 480 960 1440 1920 2400 2880 3360 3840 4320 4800 5280 5760 6240 6720 7200 7680 8160" y="2700">注意（クライアント側で意識する必要は</tspan><tspan x="0 480 960" y="3460">ない）</tspan></text><text id="cid_47" font-size="600" font-family="Hiragino Kaku Gothic ProN W6" fill="000000" viewBox="23 50 6061 653"><tspan x="0 424 806 1092 1255 1658 2040 2396 2708 3064 3489 3784 3947 4207 4590 4752 4937 5293 5695" y="520">defines/sprite.json</tspan></text><text id="cid_48" font-size="480" font-family="Hiragino Kaku Gothic ProN W6" fill="000000" viewBox="13 7 8436 2742"><tspan x="0 198 358 701 1041 1277 1407 1615 1921" y="420">- Sprite(</tspan><tspan x="2116 2581 3061 3503 3983 4463 4943 5423" y="420">ムービークリップ</tspan><tspan x="5903" y="420">)</tspan><tspan x="6098" y="420">を</tspan><tspan x="6578 6862 7205 7607" y="420">JSON</tspan><tspan x="8001" y="420">に</tspan><tspan x="0 480 960 1440 1920 2400" y="1180">変換したもの</tspan><tspan x="0 198 358 746 1046 1254 1384 1706 2029 2372 2672 2908 3038 3378" y="1940">- ActionScript</tspan><tspan x="3586 4066 4546 4983 5439 5919 6399 6879 7359 7839" y="1940">とタイムラインアニメ</tspan><tspan x="0 480 960 1440 1920 2400 2880" y="2700">ーションを含む</tspan></text><text id="cid_49" font-size="600" font-family="Hiragino Kaku Gothic ProN W6" fill="000000" viewBox="23 50 6031 652"><tspan x="0 424 806 1092 1255 1658 2040 2396 2708 2968 3351 3721 3982 4144 4500 4872 5287 5531 5855" y="520">defines/text.svg(z)</tspan></text><text id="cid_50" font-size="480" font-family="Hiragino Kaku Gothic ProN W6" fill="000000" viewBox="16 13 8616 1986"><tspan x="0 198" y="420">- </tspan><tspan x="358 838 1318 1798 2249 2729 3209" y="420">静的テキストを</tspan><tspan x="3689 4032 4409" y="420">SVG</tspan><tspan x="4789 5269 5749" y="420">に変換</tspan><tspan x="0 198" y="1180">- </tspan><tspan x="358 838 1318 1798 2249 2729 3209" y="1180">静的テキストは</tspan><tspan x="3689 4032 4409" y="1180">SVG</tspan><tspan x="4789 5269 5749 6229 6709 7189 7669 8149" y="1180">の方が奇麗に再現</tspan><tspan x="0 480 960 1440" y="1940">できる（</tspan><tspan x="1920 2220 2524 2847 3145 3449" y="1940">canvas</tspan><tspan x="3734 4214 4694 5174 5654 6134 6614 7094 7574 8054" y="1940">の場合は少し難しい）</tspan></text><text id="cid_51" font-size="600" font-family="Hiragino Kaku Gothic ProN W6" fill="000000" viewBox="23 50 5453 652"><tspan x="0 424 806 1092 1255 1658 2040 2396 2708 2968 3351 3721 3982 4144 4329 4685 5087" y="520">defines/text.json</tspan></text><text id="cid_52" font-size="480" font-family="Hiragino Kaku Gothic ProN W6" fill="000000" viewBox="16 13 6702 1222"><tspan x="0 198" y="420">- </tspan><tspan x="358 838 1318 1798 2249 2729 3209" y="420">動的テキストを</tspan><tspan x="3689 3973 4316 4718" y="420">JSON</tspan><tspan x="5112 5592 6072" y="420">に変換</tspan><tspan x="0 198 358 701 1078" y="1180">- SVG</tspan><tspan x="1458 1938 2418 2898 3378 3858 4338 4818 5298 5778 6258" y="1180">だと情報が足りなかった</tspan></text><text id="cid_53" font-size="600" font-family="Hiragino Kaku Gothic ProN W6" fill="000000" viewBox="23 50 7715 653"><tspan x="0 424 806 1092 1255 1658 2040 2352 2776 2938 3198 3804 4184 4609 4771 5015 5200 5625 6040 6295 6720 7124 7539" y="520">define/bitmap.(jpg|png)</tspan></text><text id="cid_54" font-size="480" font-family="Hiragino Kaku Gothic ProN W6" fill="000000" viewBox="12 7 8502 3502"><tspan x="0 198" y="420">- </tspan><tspan x="358 823 1303 1759 2239 2719 3199 3679 4159 4639 5119 5599 6079 6559 7039 7519" y="420">ビットマッップ素材を抽出したもの</tspan><tspan x="0 198 358 690 820" y="1180">- gif</tspan><tspan x="1049 1529 2009 2489 2969 3415 3895" y="1180">で埋め込んでも</tspan><tspan x="4375 4715 5038" y="1180">png</tspan><tspan x="0 198" y="1940">- </tspan><tspan x="358 838 1318 1798 2278 2758 3238 3718 4198 4678 5158 5638 6118 6598 7078 7558 8038" y="1940">中間コードではあまり気にする必要が</tspan><tspan x="0 480 960 1440" y="2700">無いが、</tspan><tspan x="1920 2263 2771" y="2700">SWF</tspan><tspan x="3080 3560 4040 4520 5000 5480 5960 6440 6920 7400 7880" y="2700">の中でサイズの扱いが特</tspan><tspan x="0 480 960 1440 1920 2400" y="3460">殊なので注意</tspan></text><text id="cid_55" font-size="600" font-family="Hiragino Kaku Gothic ProN W6" fill="000000" viewBox="16 21 8569 4328"><tspan x="0 600 1200 1800 2400 3000 3600 4182 4782" y="520">動的生成については</tspan><tspan x="0 162 565 989 1371 1741 1903 2088 2444 2846" y="1460">index.json</tspan><tspan x="3250 3850 4426 5026 5626 6226 6826 7426 8026" y="1460">のディクショナリを</tspan><tspan x="0 600 1200 1800 2400 3000" y="2400">書き換えれば</tspan><tspan x="3600 4103" y="2400">OK</tspan><tspan x="0 600 1200 1800 2400 3000" y="3340">変数も同じく</tspan><tspan x="3600 3955 4384 4887" y="3340">JSON</tspan><tspan x="5379 5979 6579 7179 7779" y="3340">を書き換え</tspan><tspan x="0 600 1200" y="4280">るだけ</tspan></text><text id="cid_57" font-size="600" font-family="Hiragino Kaku Gothic ProN W6" fill="000000" viewBox="25 22 3525 579"><tspan x="0 600 1200 1800 2400 2982" y="520">実装について</tspan></text><text id="cid_58" font-size="600" font-family="Hiragino Kaku Gothic ProN W6" fill="000000" viewBox="46 1 8365 1526"><tspan x="0 600 1200 1800 2400 3000 3600 4200 4800 5400 6000 6600 7200 7800" y="520">むずしいことは、基本的に無い</tspan><tspan x="0 600 1200 1800 2400 3000 3600 4200 4776 5376 5976 6576 7176" y="1460">ただ知らないだけ、多いだけ</tspan></text><text id="cid_59" font-size="600" font-family="Hiragino Kaku Gothic ProN W6" fill="000000" viewBox="2 23 9158 3399"><tspan x="0 600 1200 1800 2400 3000 3600" y="520">中間コード生成</tspan><tspan x="0" y="1460">　</tspan><tspan x="600 1200" y="1460">→ </tspan><tspan x="1400 2000 2600 3200 3800 4400 5000 5600 6200 6800 7400 8000 8600" y="1460">仕様書を見ながらなぞるだけ</tspan><tspan x="0 354 734 1107 1487 1916 2291 2586 2749 3173" y="2400">JavaScript</tspan><tspan x="3433 4033 4633 5233 5779" y="2400">ランタイム</tspan><tspan x="0" y="3340">　</tspan><tspan x="600 1200" y="3340">→ </tspan><tspan x="1400 2000 2600 3200 3800 4400 5000 5600 6200 6800 7400 8000" y="3340">中間コードを配置するだけ</tspan></text><text id="cid_60" font-size="600" font-family="Hiragino Kaku Gothic ProN W6" fill="000000" viewBox="2 20 5805 653"><tspan x="0 354 734 1107 1487 1916 2291 2586 2749 3173" y="520">JavaScript</tspan><tspan x="3433 4033 4633 5233" y="520">実装の話</tspan></text><text id="cid_61" font-size="600" font-family="Hiragino Kaku Gothic ProN W6" fill="000000" viewBox="20 15 6054 1523"><tspan x="0 386 549 929 1285 1689 2115 2277 2657 3034 3416" y="520">FlashPlayer</tspan><tspan x="3711 4311 4911 5511" y="520">の動作を</tspan><tspan x="0 600 1200 1800 2400 3000 3600 4200 4800" y="1460">少し知る必要が有る</tspan></text><text id="cid_62" font-size="600" font-family="Hiragino Kaku Gothic ProN W6" fill="000000" viewBox="20 15 6054 1523"><tspan x="0 386 549 929 1285 1689 2115 2277 2657 3034 3416" y="520">FlashPlayer</tspan><tspan x="3711 4311 4911 5511" y="520">の動作を</tspan><tspan x="0 600 1200 1800 2400 3000 3600 4200 4800" y="1460">少し知る必要が有る</tspan></text><text id="cid_63" font-size="600" font-family="Hiragino Kaku Gothic ProN W6" fill="000000" viewBox="14 21 9784 582"><tspan x="0 600 1200 1800 2400 3000" y="520">迷った時は、</tspan><tspan x="3600 4074 4478 4858 5214" y="520">Gnash</tspan><tspan x="5618 6218 6818 7418 8018 8618 9218" y="520">のコードを読む</tspan></text><text id="cid_64" font-size="600" font-family="Hiragino Kaku Gothic ProN W6" fill="000000" viewBox="24 1 5291 1520"><tspan x="0 600 1200 1800 2400 2982 3582 4182 4782" y="520">制御オブジェクトと</tspan><tspan x="0 600 1200 1800 2400 2982 3582 4182" y="1460">描画オブジェクト</tspan></text><text id="cid_65" font-size="600" font-family="Hiragino Kaku Gothic ProN W6" fill="000000" viewBox="26 1 5258 581"><tspan x="0 600 1200 1800 2364 2964 3546 4146 4746" y="520">制御オブエジェクト</tspan></text><text id="cid_66" font-size="400" font-family="Hiragino Kaku Gothic ProN W6" fill="000000" viewBox="147 10 7976 4275"><tspan x="0 133 298" y="360"> - </tspan><tspan x="431 831 1231 1631 2031 2431 2831 3231 3631 4031 4431 4831 5231 5631 6031 6431" y="360">それ自身は描画機能をもたないが、</tspan><tspan x="0 133 266" y="1000">   </tspan><tspan x="399 799 1199 1599 1999 2387 2787 3187 3587 3987 4387 4787 5187 5587 5975 6375 6775 7175" y="1000">描画オブジェクトや制御オブジェクトを</tspan><tspan x="0 133 266" y="1640">   </tspan><tspan x="399 799 1199 1599 1999 2399 2799 3199 3599 3999 4399 4799 5199 5599 5999 6399" y="1640">子に持ち配置する事が出来る要素。</tspan><tspan x="0 133 298" y="2280"> - </tspan><tspan x="431 831 1231 1631 2031 2431 2831 3231 3631 4031 4431 4831 5231 5631 6031" y="2280">子をもつことは必須では無いが、</tspan><tspan x="0 133 266" y="2920">   </tspan><tspan x="399 799 1199 1599 1999 2399 2799 3199 3599 3999 4399 4799 5199 5599 5999 6399 6799 7199 7599" y="2920">子をもたないと何も描画する事はできない</tspan><tspan x="0 133 298" y="3560"> - </tspan><tspan x="431 831 1231 1631 2031 2431 2831 3231 3631" y="3560">名前を持つが出来る</tspan><tspan x="0 133 298 431 717 891 1144 1420 1675 1783 1916 2202 2485 2682 2790 2964" y="4200"> - Stage, Sprite</tspan></text><text id="cid_67" font-size="600" font-family="Hiragino Kaku Gothic ProN W6" fill="000000" viewBox="24 1 4694 580"><tspan x="0 600 1200 1800 2400 2982 3582 4182" y="520">描画オブジェクト</tspan></text><text id="cid_68" font-size="400" font-family="Hiragino Kaku Gothic ProN W6" fill="000000" viewBox="147 7 7206 2995"><tspan x="0 133 298" y="360"> - </tspan><tspan x="431 831 1231 1619 2019 2419 2819 3219 3619 4019 4419 4819 5219 5619 6019 6419 6819" y="360">グラフィックを描画する事ができるが</tspan><tspan x="0 133 266" y="1000">   </tspan><tspan x="399 799 1199 1599 1999 2399 2799 3199 3599 3999 4399 4799 5199" y="1000">自分で動く事はできない要素</tspan><tspan x="0 133 298" y="1640"> - </tspan><tspan x="431 831 1231 1631 2031 2431 2831 3219 3619 4019 4419 4819 5219 5619 6019" y="1640">必ず制御オブジェクトを親にもつ</tspan><tspan x="0 133 298" y="2280"> - </tspan><tspan x="431 831 1231 1631 2031 2431 2831 3231 3631 4031 4431" y="2280">名前をもつ事は出来ない</tspan><tspan x="0 133 298 431 717 986 1240 1523 1778 1886 2019 2321 2429 2603 3007 3261 3544 3652 3785 4033 4287 4534 4707 4815 4948 5111 5369 5637 5906 6080" y="2920"> - Shape, Bitmap, Text, (Font)</tspan></text><g id="cid_69" viewBox="-30 -30 2090 950"><path d="M 2060 920 L 2060 0 0 0 0 920 2060 920" fill="#ffffcc"></path><path d="M 2060 920 L 0 920 0 0 2060 0 2060 920" fill="none" stroke="#858585" stroke-width="60" stroke-linecap="round" stroke-linejoin="round"></path></g><text id="cid_70" font-size="400" font-family="Monaco" fill="000000" viewBox="421 88 1566 491"><tspan x="400 640 880 1120 1360" y="400">Stage</tspan></text><path id="cid_71" d="M 4478 5809 L 3259 4560 4478 7069 M 4458 3389 L 3259 4560 4478 4589 M 3259 4560 L 4458 2220" viewBox="3229 2190 4508 7099" fill="none" stroke="#000099" stroke-width="60" stroke-linecap="round" stroke-linejoin="round"></path><g id="cid_72" viewBox="-30 -30 2090 950"><path d="M 2060 920 L 2060 0 0 0 0 920 2060 920" fill="#00ffff"></path><path d="M 2060 920 L 0 920 0 0 2060 0 2060 920" fill="none" stroke="#858585" stroke-width="60" stroke-linecap="round" stroke-linejoin="round"></path></g><text id="cid_73" font-size="400" font-family="Monaco" fill="000000" viewBox="181 78 1809 484"><tspan x="160 400 640 880 1120 1360 1600" y="400">Sprite1</tspan></text><text id="cid_74" font-size="400" font-family="Monaco" fill="000000" viewBox="181 78 1803 484"><tspan x="160 400 640 880 1120 1360 1600" y="400">Sprite2</tspan></text><text id="cid_75" font-size="400" font-family="Monaco" fill="000000" viewBox="301 84 1689 484"><tspan x="280 520 760 1000 1240 1480" y="400">Shape1</tspan></text><text id="cid_76" font-size="400" font-family="Monaco" fill="000000" viewBox="184 78 1809 484"><tspan x="160 400 640 880 1120 1360 1600" y="400">Bitmap1</tspan></text><text id="cid_77" font-size="400" font-family="Monaco" fill="000000" viewBox="399 97 1569 406"><tspan x="400 640 880 1120 1360" y="400">Text1</tspan></text><path id="cid_78" d="M 7767 3680 L 6518 2220 7767 4869 M 7767 1200 L 6518 2220 7767 2420" viewBox="6488 1170 7797 4899" fill="none" stroke="#0066ff" stroke-width="60" stroke-linecap="round" stroke-linejoin="round"></path><text id="cid_79" font-size="400" font-family="Monaco" fill="000000" viewBox="301 84 1683 484"><tspan x="280 520 760 1000 1240 1480" y="400">Shape2</tspan></text><text id="cid_80" font-size="400" font-family="Monaco" fill="000000" viewBox="184 78 1803 484"><tspan x="160 400 640 880 1120 1360 1600" y="400">Bitmap2</tspan></text><text id="cid_81" font-size="400" font-family="Monaco" fill="000000" viewBox="399 88 1563 406"><tspan x="400 640 880 1120 1360" y="400">Text2</tspan></text><text id="cid_82" font-size="400" font-family="Monaco" fill="000000" viewBox="181 78 1806 484"><tspan x="160 400 640 880 1120 1360 1600" y="400">Sprite3</tspan></text><text id="cid_83" font-size="560" font-family="Hiragino Kaku Gothic ProN W6" fill="000000" viewBox="23 1 8283 3181"><tspan x="0 560 1120 1680 2240 2783 3343 3903 4463 5023 5583 6143 6703 7263 7806" y="500">制御オブジェクトで描画オブジェ</tspan><tspan x="0 560 1120 1680 2240 2800 3360 3898 4458 5018 5578 6138" y="1380">クトを毎フレーム配置し、</tspan><tspan x="0 560 1120 1680 2240 2783 3343 3903 4463 5023 5583 6143 6703 7263" y="2260">描画オブジェクトで細かいグラ</tspan><tspan x="0 543 1103 1663 2223 2783 3343 3903 4463" y="3140">フィックを描画する</tspan></text><text id="cid_84" font-size="520" font-family="Hiragino Kaku Gothic ProN W6" fill="000000" viewBox="23 15 8391 1326"><tspan x="0 372 779" y="460">SVG</tspan><tspan x="1189" y="460">と</tspan><tspan x="1709 2121 2451 2801 3124 3454" y="460">Canvas</tspan><tspan x="3762 4282 4802 5322 5842 6362 6882 7402 7922" y="460">の実装の違いは、レ</tspan><tspan x="0 520 1040 1560 2080 2600 3120 3640 4160 4680 5200 5720 6240 6760 7280" y="1280">ンダリング機能を独立させて実装</tspan></text><text id="cid_85" font-size="360" font-family="Hiragino Kaku Gothic ProN W6" fill="000000" viewBox="31 2 8702 931"><tspan x="0 360 644 887 1116 1330" y="320">※Gnash</tspan><tspan x="1573 1933 2293 2653 3013 3359 3719 4079 4439 4799 5141 5501 5861 6221 6581 6941 7301 7661 8003 8363" y="320">も複数のレンダリングエンジンに対応してい</tspan><tspan x="0 360 720 1080 1440 1800 2160 2520 2880 3240" y="900">るため参考にしやすい</tspan></text><text id="cid_86" font-size="520" font-family="Hiragino Kaku Gothic ProN W6" fill="000000" viewBox="26 18 3603 502"><tspan x="0 520 1040 1560 2080 2600 3120" y="460">具体的なフロー</tspan></text><g id="cid_87" viewBox="-30 -30 2090 950"><path d="M 2060 920 L 2060 0 0 0 0 920 2060 920" fill="#ff66cc"></path><path d="M 2060 920 L 0 920 0 0 2060 0 2060 920" fill="none" stroke="#858585" stroke-width="60" stroke-linecap="round" stroke-linejoin="round"></path></g><text id="cid_88" font-size="400" font-family="Monaco" fill="000000" viewBox="304 84 1683 491"><tspan x="280 520 760 1000 1240 1480" y="400">Player</tspan></text><path id="cid_89" d="M 1700 2140 Q 1673 2884 1759 3618 1861 4496 2673 4684 3068 4775 3480 4758 4290 4723 4820 4125 5125 3781 5358 3382 5660 2864 5559 2307 5543 2219 5468 2154 4863 1628 4040 1647 3440 1660 2840 1660 L 3220 1980 M 3040 1440 Q 2930 1450 2920 1460 L 2840 1660" viewBox="1664 1410 5614 4791" fill="none" stroke="#0000ff" stroke-width="60" stroke-linecap="round" stroke-linejoin="round"></path><text id="cid_90" font-size="400" font-family="Monaco" fill="000000" viewBox="1405 78 6871 2804"><tspan x="0 240 480 720 960 1200 1440 1680 1920 2160 2400 2640 2880 3120 3360 3600 3840 4080 4320 4560 4800 5040 5280" y="400">setInterval(function(){</tspan><tspan x="0 240 480 720 960 1200 1440 1680 1920 2160 2400 2640 2880 3120 3360 3600 3840 4080 4320 4560" y="980">  stage.nextFrame();</tspan><tspan x="0 240 480 720 960 1200 1440 1680 1920 2160 2400 2640 2880 3120 3360 3600 3840 4080 4320 4560 4800" y="1560">  stage.frameSetup();</tspan><tspan x="0 240 480 720 960 1200 1440 1680 1920 2160 2400 2640 2880 3120 3360 3600 3840" y="2140">  stage.render();</tspan><tspan x="0 240 480 720 960 1200 1440 1680 1920 2160 2400 2640 2880" y="2720">}, 1000/fps);</tspan></text><path id="cid_91" d="M 2009 1339 L 2009 1653 2281 1496 2011 1340 2009 1339" viewBox="2009 1339 2281 1653" fill="#000000"></path><text id="cid_92" font-size="400" font-family="Monaco" fill="000000" viewBox="1405 78 7351 2804"><tspan x="0 240 480 720 960 1200 1440 1680 1920 2160 2400 2640 2880 3120 3360 3600 3840" y="400">selfPreExecute();</tspan><tspan x="0 240 480 720 960 1200 1440 1680 1920 2160 2400 2640 2880 3120 3360 3600 3840 4080 4320 4560 4800 5040 5280 5520 5760" y="980">for (child in children) {</tspan><tspan x="0 240 480 720 960 1200 1440 1680 1920 2160 2400 2640 2880 3120 3360" y="1560">  child.next();</tspan><tspan x="0" y="2140">}</tspan><tspan x="0 240 480 720 960 1200 1440 1680 1920 2160 2400 2640 2880 3120 3360 3600 3840 4080" y="2720">selfPostExecute();</tspan></text><path id="cid_93" d="M 3538 5577 L 3810 5420 3538 5263 3538 5577" viewBox="3538 5263 3810 5577" fill="#000000"></path><g id="cid_94" viewBox="-30 -30 2090 950"><path d="M 2060 920 L 2060 0 0 0 0 920 2060 920" fill="#ff0033"></path><path d="M 2060 920 L 0 920 0 0 2060 0 2060 920" fill="none" stroke="#858585" stroke-width="60" stroke-linecap="round" stroke-linejoin="round"></path></g><text id="cid_95" font-size="400" font-family="Monaco" fill="000000" viewBox="61 84 1923 406"><tspan x="40 280 520 760 1000 1240 1480 1720" y="400">Renderer</tspan></text><text id="cid_96" font-size="400" font-family="Monaco" fill="000000" viewBox="1386 78 5614 989"><tspan x="0 240 480 720 960 1200 1440 1680 1920 2160 2400 2640 2880 3120 3360 3600 3840 4080" y="400">group.transform();</tspan><tspan x="0 240 480 720 960 1200" y="980">// etc</tspan></text><text id="cid_97" font-size="400" font-family="Monaco" fill="000000" viewBox="304 78 1687 484"><tspan x="280 520 760 1000 1240 1480" y="400">Bitmap</tspan></text><text id="cid_98" font-size="400" font-family="Monaco" fill="000000" viewBox="1386 84 7774 3391"><tspan x="0 240 480 720 960 1200 1440 1680 1920" y="400">// render</tspan><tspan x="0 240 480 720 960 1200 1440 1680 1920 2160 2400 2640 2880 3120 3360 3600" y="980">bitmap.render();</tspan><tspan x="0 240 480 720 960 1200" y="1560">// svg</tspan><tspan x="0 240 480 720 960 1200 1440 1680 1920 2160 2400 2640 2880 3120 3360 3600 3840" y="2140">addChiled(&lt;use&gt;);</tspan><tspan x="0 240 480 720 960 1200 1440 1680 1920" y="2720">// canvas</tspan><tspan x="0 240 480 720 960 1200 1440 1680 1920 2160 2400 2640 2880 3120 3360 3600 3840 4080 4320 4560 4800 5040 5280 5520 5760 6000 6240" y="3300">ctx.drawImage(img,x,y,w,h);</tspan></text><path id="cid_99" d="M 3573 3219 L 3845 3062 3573 2905 3573 3219 M 4493 2096 L 4493 2410 4765 2253 4493 2096" viewBox="3573 2096 4765 3219" fill="#000000"></path><text id="cid_100" font-size="400" font-family="Monaco" fill="000000" viewBox="421 84 1566 484"><tspan x="400 640 880 1120 1360" y="400">Shape</tspan></text><path id="cid_101" d="M 3830 4836 L 3558 4679 3558 4993 3830 4836 M 3834 4188 L 3562 4031 3562 4345 3834 4188 M 5182 3969 L 5182 4283 5454 4126 5182 3969 M 5178 4617 L 5178 4931 5450 4774 5178 4617 M 5189 3331 L 5189 3645 5461 3488 5189 3331 M 5200 2001 L 5200 2315 5472 2158 5200 2001 M 5465 2840 L 5193 2683 5193 2997 5465 2840 M 3569 3393 L 3569 3707 3841 3550 3569 3393 M 3845 2902 L 3573 2745 3573 3059 3845 2902" viewBox="3558 2001 5472 4993" fill="#000000"></path><text id="cid_102" font-size="400" font-family="Monaco" fill="000000" viewBox="519 97 1441 406"><tspan x="520 760 1000 1240" y="400">Text</tspan></text><text id="cid_103" font-size="400" font-family="Monaco" fill="000000" viewBox="301 78 1686 484"><tspan x="280 520 760 1000 1240 1480" y="400">Sprite</tspan></text><path id="cid_104" d="M 8906 6267 L 8906 6581 9178 6424 8906 6267 M 7593 7090 L 7321 6933 7321 7247 7593 7090 M 7286 6329 L 7286 6643 7558 6486 7286 6329 M 7562 5838 L 7290 5681 7290 5995 7562 5838 M 7569 5200 L 7297 5043 7297 5357 7569 5200 M 7573 4552 L 7301 4395 7301 4709 7573 4552 M 9189 5138 L 8917 4981 8917 5295 9189 5138 M 9182 5776 L 8910 5619 8910 5933 9182 5776 M 9193 4490 L 8921 4333 8921 4647 9193 4490 M 7640 3808 L 7368 3651 7368 3965 7640 3808" viewBox="7286 3651 9193 7247" fill="#000000"></path><path id="cid_105" d="M 8800 2829 Q 9712 2939 10299 3540 10644 3939 10858 4438 10943 4636 10948 4860 10974 5867 10420 6740 L 10219 6740 Q 9993 7555 9284 7887 8719 8152 8132 7829 7729 7606 7321 7247 7225 7264 7079 7220 L 6179 5820 Q 6092 5659 6119 5640 L 6459 5640 Q 6968 4937 7060 4074 7106 3646 7139 3220 7828 2713 8800 2829" viewBox="6083 2777 10979 8036" fill="none" stroke="#0000ff" stroke-width="60" stroke-linecap="round" stroke-linejoin="round"></path><text id="cid_106" font-size="600" font-family="Monaco" fill="000000" viewBox="52 127 2119 736"><tspan x="0 360 720 1080 1440 1800" y="600">Player</tspan></text><text id="cid_107" font-size="400" font-family="Hiragino Kaku Gothic ProN W6" fill="000000" viewBox="14 14 8334 2931"><tspan x="0 165" y="360">- </tspan><tspan x="298 698" y="360">唯一</tspan><tspan x="1098 1382 1490 1894 2149" y="360">Timer</tspan><tspan x="2346 2746 3146" y="360">を持つ</tspan><tspan x="0 165 298 535 790 963 1080 1349 1523 1777 1974 2222 2476 2584 2747" y="1000">- setInterval()</tspan><tspan x="2910 3310 3710 4110 4510 4910 5310 5698 6098 6498 6886" y="1000">で所有するインスタンス</tspan><tspan x="0 162 448 622 875 1151 1406" y="1640">(Stage)</tspan><tspan x="1568 1968 2368 2768 3152 3552" y="1640">のフレームを</tspan><tspan x="3952" y="1640">1</tspan><tspan x="4237 4637 5037 5437" y="1640">つ進める</tspan><tspan x="0 165" y="2280">- </tspan><tspan x="298 698 1098 1498 1898 2298 2662 3062 3462" y="2280">ブラウザのイベント</tspan><tspan x="3862 4024 4292 4561 4758 5013 5250 5359 5576 5831" y="2280">(onresize)</tspan><tspan x="5993 6393 6793 7193 7577 7977" y="2280">をハンドルし</tspan><tspan x="0 400" y="2920">てる</tspan></text><text id="cid_108" font-size="600" font-family="Monaco" fill="000000" viewBox="47 117 4283 736"><tspan x="0 360 720 1080 1440 1800 2160 2520 2880 3240 3600 3960" y="600">Stage|Sprite</tspan></text><text id="cid_109" font-size="400" font-family="Hiragino Kaku Gothic ProN W6" fill="000000" viewBox="14 12 6720 2945"><tspan x="0 165 298 621" y="360">- AS</tspan><tspan x="907 1307 1707" y="360">の実行</tspan><tspan x="0 165" y="1000">- </tspan><tspan x="298 698 1098 1498 1886 2286 2686 3086 3486 3866 4266 4630 5030" y="1000">子オブジェクトのグループ化</tspan><tspan x="0 165" y="1640">- </tspan><tspan x="298 698 1098 1498 1886 2286 2686 3086 3486 3886" y="1640">子オブジェクトの配置</tspan><tspan x="4286 4448 4622 4818 5071 5340 5577 5768 6036 6233 6637 6745" y="1640">(transform, </tspan><tspan x="0 250 518 626 894 1091 1338 1534 1787 2056 2293 2484 2752 2949 3353 3461 3594 3848 4130 4413 4521 4654 4851 5106 5510 5778 6026 6281" y="2280">colorTransform, add, remove)</tspan><tspan x="0 165" y="2920">- </tspan><tspan x="298 698 1098 1482 1882 2282 2682" y="2920">フレームの進行</tspan></text><text id="cid_110" font-size="600" font-family="Monaco" fill="000000" viewBox="47 117 8236 727"><tspan x="0 360 720 1080 1440 1800 2160 2520 2880 3240 3600 3960 4320 4680 5040 5400 5760 6120 6480 6840 7200 7560 7920" y="600">Shape|Bitmap|StaticText</tspan></text><text id="cid_111" font-size="400" font-family="Hiragino Kaku Gothic ProN W6" fill="000000" viewBox="14 0 8432 2983"><tspan x="0 165" y="360">- </tspan><tspan x="298 698 1098 1486 1886 2286 2686 3086 3470 3870 4270 4670 5070 5470 5870 6270" y="360">オブジェクトをレンダリングする。</tspan><tspan x="0 165 298 584 898" y="1000">- SVG</tspan><tspan x="1214 1614 2014 2414 2814 3214 3614 4014 4414 4798 5198 5598 5998 6398 6798 7198 7598 7998" y="1000">の場合は、最初のレンダリング以外何も</tspan><tspan x="0 400 800" y="1640">しない</tspan><tspan x="0 165 298 584 898" y="2280">- SVG</tspan><tspan x="1214 1614 2014 2414 2814" y="2280">の場合は、</tspan><tspan x="3214 3411 3666 3857" y="2280">refs</tspan><tspan x="4094 4494 4894 5294 5694 6094 6494 6894 7294 7682 8082" y="2280">で定義されたオブジェク</tspan><tspan x="0 400 800 1200" y="2920">トの参照</tspan><tspan x="1600 1762 2032 2269 2524" y="2920">(use)</tspan><tspan x="2686 3086 3486 3886 4286" y="2920">を配置する</tspan></text><text id="cid_112" font-size="600" font-family="Monaco" fill="000000" viewBox="45 117 3916 736"><tspan x="0 360 720 1080 1440 1800 2160 2520 2880 3240 3600" y="600">DynamicText</tspan></text><text id="cid_113" font-size="400" font-family="Hiragino Kaku Gothic ProN W6" fill="000000" viewBox="14 15 7781 2306"><tspan x="0 165" y="360">- </tspan><tspan x="298 698 1098 1498 1898 2298 2698 3098 3498 3882" y="360">変数の変更をハンドル</tspan><tspan x="0 165" y="1000">- </tspan><tspan x="298 698 1098 1498 1898 2298 2698 3098 3498 3898 4298 4682 5082" y="1000">変更した場合、書き換える。</tspan><tspan x="0 165 298 548 802 1071 1320 1574" y="1640">- canvas</tspan><tspan x="1811 2211 2611 3011 3411 3811 4211 4611 5011 5411 5811 6211 6611 7011 7411" y="1640">の場合は意識する必要が無いため</tspan><tspan x="0 286 460 713 886 994 1244 1492 1746 1993" y="2280">StaticText</tspan><tspan x="2166 2566 2966 3366 3766 4166 4566 4966 5338 5738 6138" y="2280">とほぼ同等に扱っている</tspan></text><text id="cid_114" font-size="600" font-family="Monaco" fill="000000" viewBox="63 145 1396 609"><tspan x="0 360 720 1080" y="600">Font</tspan></text><text id="cid_115" font-size="400" font-family="Hiragino Kaku Gothic ProN W6" fill="000000" viewBox="7 8 8513 3587"><tspan x="0 165" y="360">- </tspan><tspan x="298 698 1098 1498 1898 2298 2698" y="360">基本名前または</tspan><tspan x="3098 3215" y="360">ID</tspan><tspan x="3538 3938 4338 4738 5138 5538 5938 6338 6738" y="360">で参照できれば良い</tspan><tspan x="0 165 298 584 898" y="1000">- SVG</tspan><tspan x="1214 1614 2014 2414 2814 3214 3614 4014 4414 4814 5214 5614 6014 6414 6798 7198 7598 7998" y="1000">の場合は中間コードで解決されているの</tspan><tspan x="0 400 800 1200 1600 2000 2400 2800 3200 3600" y="1640">で意識する必要は無い</tspan><tspan x="0 165 298 548 802 1071 1320 1574" y="2280">- canvas</tspan><tspan x="1811 2211 2611 3011" y="2280">の場合は</tspan><tspan x="3411 3741 4025 4419" y="2280">HTML</tspan><tspan x="4676" y="2280">に</tspan><tspan x="5076 5292 5529 5703 5954 6063 6318" y="2280">&lt;style&gt;</tspan><tspan x="6534 6922 7322 7722 8122" y="2280">ノードを追</tspan><tspan x="0 400 780 1164" y="2920">加して、</tspan><tspan x="1564 1848 1957 2211 2462 2717" y="2920">Player</tspan><tspan x="2914 3314 3714 4114 4514 4914 5314 5714 6114 6514 6914 7314 7714 8114" y="2920">を実行する前に予めロードさせ</tspan><tspan x="0 400 800 1200 1600 2000" y="3560">る必要がある</tspan></text><text id="cid_116" font-size="600" font-family="Monaco" fill="000000" viewBox="47 127 2839 609"><tspan x="0 360 720 1080 1440 1800 2160 2520" y="600">Renderer</tspan></text><text id="cid_117" font-size="400" font-family="Hiragino Kaku Gothic ProN W6" fill="000000" viewBox="9 2 8910 4228"><tspan x="0 165 298 535 784" y="360">- svg</tspan><tspan x="1061" y="360">と</tspan><tspan x="1461 1711 1965 2234 2483 2737" y="360">canvas</tspan><tspan x="2974 3374 3774 4174 4574 4958 5358 5758 6158 6558 6958 7342 7742 8142 8542" y="360">を切り替えるために、レンダリン</tspan><tspan x="0 400 800 1200" y="1000">グ処理を</tspan><tspan x="1600 1909 2164 2433 2716 2971 3168 3423" y="1000">Renderer</tspan><tspan x="3620 4020 4420 4820 5220" y="1000">に集約し、</tspan><tspan x="5620 5870 6124 6393 6642 6896 7133 7241 7478 7727" y="1000">canvas,svg</tspan><tspan x="8004 8404" y="1000">への</tspan><tspan x="0 400 800 1200 1600 2000 2400 2800 3200 3600 4000 4380 4780 5180" y="1640">依存はココだけに限定している</tspan><tspan x="0 165" y="2280">- </tspan><tspan x="298 698 1098 1498" y="2280">見た目は</tspan><tspan x="1898 2184 2498" y="2280">SVG</tspan><tspan x="2814 3214 3614 4014 4414 4814 5214 5614 6014" y="2280">の方が圧倒的に奇麗</tspan><tspan x="0 400 800 1200 1600 2000 2400 2800 3200 3600 4000 4400" y="2920">（見た目で分かるレベル）</tspan><tspan x="0 165" y="3560">- </tspan><tspan x="298 698 1098 1498 1898 2298 2686 3086" y="3560">パフォーマンスは</tspan><tspan x="3486 3736 3990 4259 4508 4762" y="3560">canvas</tspan><tspan x="4999 5399 5799 6199 6599 6999 7399" y="3560">の方が良いはず</tspan><tspan x="0 400 800 1200 1600 2000 2400 2800 3200 3600 4000 4400 4800 5200 5600 5972 6372 6772 7172 7572 7972 8372" y="4200">（実はまだそのクオリティに持っていけてない）</tspan></text><text id="cid_118" font-size="600" font-family="Hiragino Kaku Gothic ProN W6" fill="000000" viewBox="26 22 6129 579"><tspan x="0 476 856 1260 1632 2012" y="520">Canvas</tspan><tspan x="2368" y="520">と</tspan><tspan x="2968 3397 3867" y="520">SVG</tspan><tspan x="4341 4941 5541" y="520">の比較</tspan></text><text id="cid_119" font-size="320" font-family="Hiragino Kaku Gothic ProN W6" fill="000000" viewBox="11 26 8321 4472"><tspan x="0 131 237 490 693 908 1107 1310" y="280">- Canvas</tspan><tspan x="0 106 237 369 475 702 930 1016 1244 1396 1622" y="800"> -- 14.5fps</tspan><tspan x="1811 2131 2451 2771 3091 3411 3731 4041" y="800">くらいまでいける</tspan><tspan x="0 106 237 369 475 716 803 942 1265 1468" y="1320"> -- Bitmap</tspan><tspan x="1694 2014 2334 2654 2974 3294 3604 3924 4244 4564 4884 5204 5511 5831 6151" y="1320">なのでグラフィックがずれやすい</tspan><tspan x="0 106 237 369" y="1840"> -- </tspan><tspan x="475 795 1115 1435 1755 2075 2395 2715 3035 3355 3675" y="1840">実装にテクニックが必要</tspan><tspan x="0 131 237 465 716" y="2880">- SVG</tspan><tspan x="0 106 237 369 475 702 930 1082 1308" y="3400"> -- 10fps</tspan><tspan x="1497 1817 2137 2457 2777 3097 3417 3737 4057" y="3400">くらいがたぶん限界</tspan><tspan x="0 106 237 369" y="3920"> -- </tspan><tspan x="475 785 1105 1425 1745 2065 2385 2705 3025 3345 3665 3985 4305 4625" y="3920">ベクターなので圧倒的にきれい</tspan><tspan x="0 106 237 369 475 732 1000" y="4440"> -- DOM</tspan><tspan x="1316 1636 1956 2276 2596 2916 3236 3556 3876 4196 4516 4836 5156 5476 5796 6100 6420 6740 7060 7380 7700 8020" y="4440">なので差分だけ変更するプログラムを書きやすい</tspan></text><text id="cid_120" font-size="320" font-family="Hiragino Kaku Gothic ProN W6" fill="000000" viewBox="11 11 6346 2893"><tspan x="0 320 640 960 1280 1600 1920 2240" y="280">どっちが良いか？</tspan><tspan x="0 131" y="800">- </tspan><tspan x="237 557 877 1197 1517 1837 2147 2467 2787" y="800">パフォーマンス優先</tspan><tspan x="3107 3214 3433 3540 3793 3996 4211 4410 4613" y="800"> = Canvas</tspan><tspan x="0 131" y="1320">- </tspan><tspan x="237 547 867 1187 1507 1827 2147 2457 2777 3097 3417 3737" y="1320">ベクターグラフィック優先</tspan><tspan x="4057 4164 4383 4490 4718 4969" y="1320"> = SVG</tspan><tspan x="0 320 640 960 1280 1600 1920 2240 2560 2880" y="2360">おそらく汎用的なのは</tspan><tspan x="3200" y="2360">”</tspan><tspan x="3351 3671 3991 4311 4631" y="2360">良く出来た</tspan><tspan x="4951 5205 5408 5623 5822 6025 6215" y="2360">Canvas”</tspan><tspan x="0 106 325 432 689 893 1156" y="2880"> = DeNA</tspan><tspan x="1414" y="2880">に</tspan><tspan x="1734 1820 1907" y="2880">...</tspan><tspan x="1994" y="2880">の</tspan><tspan x="2314 2400 2487" y="2880">...</tspan></text><text id="cid_121" font-size="600" font-family="Hiragino Kaku Gothic ProN W6" fill="000000" viewBox="26 19 9690 2463"><tspan x="0 600 1200 1800 2400 3000 3600 4200 4800 5382 5982 6582" y="520">コードの詳細については、</tspan><tspan x="0 474 637 897 1301 1705" y="1460">Github</tspan><tspan x="2128 2728 3328" y="1460">で公開</tspan><tspan x="3928 4444 4704 5087 5462 5866 6028 6419 6800 7177 7557" y="1460">&amp;tech.kayac</tspan><tspan x="7932 8532 9132" y="1460">で説明</tspan><tspan x="0 600 1200 1800 2400 3000 3600 4200 4800 5400 6000 6600 7200" y="2400">するので少々お待ちください</tspan></text><text id="cid_122" font-size="600" font-family="Hiragino Kaku Gothic ProN W6" fill="000000" viewBox="18 29 9354 5281"><tspan x="0 582 1182 1782 2382 2982 3582 4140 4722 5304 5904 6504 7104 7704 8304" y="520">こういうのやってくれないかな～</tspan><tspan x="8904 9066 9228" y="520">...</tspan><tspan x="0 375 755 1159 1531 1911" y="2400">canvas</tspan><tspan x="2267 2867 3467 4067" y="2400">の高速化</tspan><tspan x="0" y="3340">（</tspan><tspan x="600 1027 1454 1740 2165" y="3340">14fps</tspan><tspan x="2521 3121 3721 4321 4921 5503 6103 6703 7303" y="3340">位まで行けるはず）</tspan><tspan x="0 600 1200 1800 2400 3000 3600 4200" y="4280">パーサーの高速化</tspan><tspan x="0" y="5220">（</tspan><tspan x="600 1027 1522" y="5220">PHP</tspan><tspan x="1948 2548 3148 3748 4348 4948" y="5220">以外で実装）</tspan></text><text id="cid_123" font-size="600" font-family="Hiragino Kaku Gothic ProN W6" fill="000000" viewBox="23 34 8415 3407"><tspan x="0 415 710 1092" y="520">gree</tspan><tspan x="1474 2074" y="520">とか</tspan><tspan x="2674 3158 3540 4033" y="520">DeNA</tspan><tspan x="4517 5117 5717" y="520">とか、</tspan><tspan x="0 474 876 1278 1693 1856" y="1460">Google</tspan><tspan x="2238 2838 3438 4038 4638 5238 5808 6408 7008 7608 8208" y="1460">とかで実現してますが、</tspan><tspan x="0 503 932" y="2400">OSS</tspan><tspan x="1361 1961 2561 3161 3761 4361 4961 5543" y="2400">はまだ無いので、</tspan><tspan x="0 600 1200 1800 2400 3000 3600 4200 4800 5400 6000" y="3340">もうちょっと頑張りたい</tspan></text><g id="cid_125" viewBox="-1378 -88 -972 729"><path d="M -1219 -44 L -1220 -43 M -1215 -48 L -1219 -44 -1220 -44 -1220 -43 Q -1267 -11 -1308 292 -1350 594 -1334 638 -1319 682 -1280 688 -1242 694 -1218 660 -1194 626 -1093 243 -1052 200 -994 112 -937 24 -1029 -42 -1122 -108 -1215 -49 L -1215 -48" fill="#feffbd"></path><path d="M -1093 243 Q -1194 626 -1218 660 -1242 694 -1280 688 -1319 682 -1334 638 -1350 594 -1308 292 -1267 -11 -1220 -43 M -1219 -44 L -1215 -48 M -1220 -43 L -1219 -44" fill="none" stroke="#000000" stroke-width="80" stroke-linecap="round" stroke-linejoin="round"></path></g><g id="cid_128" viewBox="428 77 777 858"><path d="M 480 359 L 514 506 Q 555 671 592 759 620 827 672 816 724 805 731 737 747 597 720 388 693 179 652 119 320 -33 480 359" fill="#feffbd"></path><path d="M 652 119 Q 693 179 720 388 747 597 731 737 724 805 672 816 620 827 592 759 555 671 514 506 L 480 359" fill="none" stroke="#000000" stroke-width="80" stroke-linecap="round" stroke-linejoin="round"></path></g><g id="cid_131" viewBox="-585 -569 458 569"><path d="M 107 487 L 152 518 Q 210 552 260 553 306 553 347 519 390 484 401 374 411 263 392 -311 374 -329 200 -432 L -41 -569 Q -171 -518 -315 -452 -468 -383 -560 -329 L -554 163 Q -551 440 -536 480 -521 520 -481 544 -440 569 -383 569 -335 569 -301 527 L -276 484 -262 487 M -91 510 L -87 510 -81 510 103 484 107 487 M -262 487 L -220 497 -95 510 -91 510 M -545 -18 L -544 208 Q -537 352 -544 208 -537 352 -513 483 M 117 484 L 107 487 M -91 510 L -206 497 -262 487" fill="#feffbd"></path><path d="M -262 487 L -206 497 -91 510 -87 510 -81 510 M 107 487 L 117 484 M 409 -31 Q 428 263 405 442 M -513 483 Q -537 352 -544 208 L -545 -18 M 107 487 Q 6 510 -81 510" fill="none" stroke="#000000" stroke-width="80" stroke-linecap="round" stroke-linejoin="round"></path></g><g id="cid_133" viewBox="-184 -44 184 410"><path d="M 144 -4 Q -40 -14 -144 38 L -122 123 Q -93 221 -61 284 -12 378 54 369 116 360 124 281 L 144 -4" fill="#feffbd"></path><path d="M 144 -4 L 124 281 Q 116 360 54 369 -12 378 -61 284 -93 221 -122 123 L -144 38" fill="none" stroke="#000000" stroke-width="80" stroke-linecap="round" stroke-linejoin="round"></path></g><g id="cid_136" viewBox="-176 -60 167 373"><path d="M 43 333 L 71 328 Q 126 307 133 222 138 161 131 75 L 123 1 Q -2 -121 -128 0 -97 171 -43 261 -2 330 43 333 M 115 1 L 123 75 Q 130 161 123 75 130 161 125 222 118 307 125 222 118 307 63 328 L 43 333" fill="#feffbd"></path><path d="M 43 333 Q -6 336 -51 261 -105 171 -136 0 M 43 333 L 63 328 Q 118 307 125 222 130 161 123 75 L 115 1" fill="none" stroke="#000000" stroke-width="80" stroke-linecap="round" stroke-linejoin="round"></path></g><g id="cid_142" viewBox="-1037 -1312 1038 191"><path d="M -62 -1068 Q -62 -1150 -62 -1068 -62 -1150 -30 -1214 -15 -1246 -30 -1214 -15 -1246 1 -1262 M 995 -296 Q 977 -462 856 -623 701 -830 491 -1041 260 -1272 -9 -1272 -186 -1272 -345 -1169 -476 -1084 -602 -924 L -696 -809 -788 -693 Q -942 -489 -982 -330 -1039 -107 -885 47 -745 187 -475 128 L -236 48 Q -88 -2 7 16 71 28 239 90 382 142 474 148 600 157 694 134 809 106 885 30 1017 -103 995 -296" fill="#ffaec1"></path><path d="M 995 -296 Q 1017 -103 885 30 809 106 694 134 600 157 474 148 382 142 239 90 71 28 7 16 -88 -2 -236 48 L -475 128 Q -745 187 -885 47 -1039 -107 -982 -330 -942 -489 -788 -693 L -696 -809 -602 -924 Q -476 -1084 -345 -1169 -186 -1272 -9 -1272 260 -1272 491 -1041 701 -830 856 -623 977 -462 995 -296 M 1 -1262 Q -15 -1246 -30 -1214 -62 -1150 -62 -1068" fill="none" stroke="#000000" stroke-width="80" stroke-linecap="round" stroke-linejoin="round"></path></g><g id="cid_144" viewBox="0 0 750 540"><path d="M 440 270 Q 440 382 485 461 531 540 595 540 659 540 704 461 750 382 750 270 750 158 704 79 659 0 595 0 531 0 485 79 440 158 440 270" fill="#000000"></path><path d="M 264 79 Q 219 0 155 0 91 0 45 79 0 158 0 270 0 382 45 461 91 540 155 540 219 540 264 461 310 382 310 270 310 158 264 79" fill="#000000"></path><path d="M 510 272 Q 510 326 528 365 545 403 570 403 595 403 612 365 630 326 630 272 630 217 612 179 595 140 570 140 545 140 528 179 510 217 510 272" fill="#ffffff"></path><path d="M 80 272 Q 80 326 98 365 115 403 140 403 165 403 182 365 200 326 200 272 200 217 182 179 165 140 140 140 115 140 98 179 80 217 80 272" fill="#ffffff"></path></g><g id="cid_145" viewBox="0 0 750 32"><path d="M 485 4 Q 440 9 440 16 440 22 485 27 L 595 32 704 27 Q 750 22 750 16 750 9 704 4 L 595 0 485 4" fill="#000000"></path><path d="M 264 4 L 155 0 45 4 Q 0 9 0 16 0 22 45 27 L 155 32 264 27 Q 310 22 310 16 310 9 264 4" fill="#000000"></path></g><g id="cid_146" viewBox="-380 -232 380 233"><path d="M -139 -194 Q -174 -231 -222 -232 -269 -231 -302 -194 -336 -157 -355 -96 -375 -34 -378 38 -383 141 -373 184 -363 227 -342 232 -320 236 -291 224 L -230 204 -168 203 -115 199 Q -92 191 -79 156 -66 120 -65 38 -65 -35 -85 -96 -104 -157 -139 -194" fill="#000000"></path><path d="M -187 -83 Q -201 -104 -227 -105 -252 -104 -267 -83 -282 -62 -290 -28 L -302 41 Q -308 89 -302 106 -296 123 -283 121 L -256 112 Q -241 103 -229 101 L -192 104 Q -173 109 -162 98 -150 87 -155 38 L -165 -29 Q -172 -61 -187 -83" fill="#ffffff"></path><path d="M 353 -97 Q 332 -158 296 -194 261 -231 214 -232 167 -231 132 -194 96 -158 77 -97 57 -37 56 36 56 119 69 155 82 192 105 199 L 157 203 217 202 266 216 313 229 Q 335 233 352 219 368 206 375 163 383 120 378 36 374 -37 353 -97" fill="#000000"></path><path d="M 288 -31 Q 279 -64 262 -85 245 -106 219 -107 194 -106 179 -85 164 -64 157 -31 149 2 146 36 142 84 154 95 167 106 187 101 L 225 97 Q 237 99 253 108 268 117 282 119 295 121 302 104 308 87 302 39 L 288 -31" fill="#ffffff"></path></g><g id="cid_147" viewBox="-375 -313 375 304"><path d="M 307 -190 Q 275 -227 236 -235 204 -203 174 -187 144 -171 114 -164 91 -127 78 -76 65 -25 65 34 65 109 86 170 107 231 142 267 177 303 220 304 263 303 298 267 333 231 354 170 375 109 375 34 375 -37 356 -95 338 -153 307 -190" fill="#000000"></path><path d="M -126 -181 Q -158 -195 -180 -208 L -220 -236 Q -263 -235 -298 -199 -333 -163 -354 -102 -375 -41 -375 34 -375 109 -354 170 -333 231 -298 267 -263 303 -220 304 -177 303 -142 267 -107 231 -86 170 -65 109 -65 34 -65 -33 -82 -88 -98 -144 -126 -181" fill="#000000"></path><path d="M 135 35 Q 136 91 153 128 170 165 195 167 220 165 237 128 254 91 255 35 254 -21 237 -58 220 -95 195 -96 170 -95 153 -58 136 -20 135 35" fill="#ffffff"></path><path d="M -295 35 Q -294 91 -277 128 -260 165 -235 167 -210 165 -193 128 -176 91 -175 35 -176 -21 -193 -58 -210 -95 -235 -96 -260 -95 -277 -58 -294 -20 -295 35" fill="#ffffff"></path><path d="M 68 -162 L 91 -161 147 -171 Q 180 -181 214 -212 249 -242 274 -303" fill="none" stroke="#000000" stroke-width="20" stroke-linecap="round" stroke-linejoin="round"></path><path d="M -98 -173 Q -170 -194 -203 -222 -236 -251 -244 -274 L -252 -297" fill="none" stroke="#000000" stroke-width="20" stroke-linecap="round" stroke-linejoin="round"></path></g><g id="cid_148" viewBox="-10 -10 855 695"><path d="M 52 343 Q 45 382 45 425 45 500 66 561 87 622 122 658 157 694 200 695 243 694 278 658 313 622 334 561 355 500 355 425 354 337 327 270 M 215 312 L 234 352 Q 245 384 245 426 244 482 227 519 210 556 185 557 160 556 143 519 126 482 125 426 125 392 132 363 L 144 329 M 661 340 Q 674 375 675 426 674 482 657 519 640 556 615 557 590 556 573 519 556 482 555 426 555 390 563 360 569 336 580 320 M 506 290 Q 486 350 485 424 485 500 506 561 527 621 562 658 597 694 640 694 683 693 718 657 753 621 774 561 795 500 795 424 L 790 355 788 355 787 355 661 340 M 580 320 L 572 318 Q 535 305 506 290 M 327 270 L 265 297 215 312 M 144 329 L 139 330 52 343" fill="#000000"></path><path d="M 580 320 Q 569 336 563 360 555 390 555 426 556 482 573 519 590 556 615 557 640 556 657 519 674 482 675 426 674 375 661 340 M 144 329 L 132 363 Q 125 392 125 426 126 482 143 519 160 556 185 557 210 556 227 519 244 482 245 426 245 384 234 352 L 215 312 M 641 335 L 639 334 642 336 641 335 M 661 340 L 654 339 648 338 644 337 580 320 M 215 312 L 186 320 154 328 153 328 144 329" fill="#ffffff"></path><path d="M 790 355 L 845 357 852 355 855 348 853 340 846 337 789 335 787 335 658 319 659 320 651 318 648 317 579 299 514 271 Q 465 246 439 216 L 428 203 Q 471 165 497 128 536 71 529 35 L 529 34 Q 522 -9 459 -10 420 -9 394 30 370 67 373 121 375 159 401 199 L 375 218 376 218 Q 321 255 258 278 L 181 301 149 309 150 308 136 310 135 310 38 324 0 327 -7 330 -10 337 -7 344 0 347 40 344 52 343 139 330 144 329 153 328 154 328 186 320 215 312 265 297 327 270 Q 358 254 387 234 L 412 215 424 229 Q 453 262 505 289 L 506 290 Q 535 305 572 318 L 580 320 644 337 648 338 654 339 661 340 787 355 788 355 790 355 M 459 10 Q 502 11 509 38 514 69 481 117 L 416 186 Q 395 152 393 120 390 73 411 41 430 11 459 10 M 641 335 L 642 336 639 334 641 335" fill="#231815"></path></g><path id="cid_149" d="M 846 366 Q 536 362 428 231 500 165 515 91 525 41 506 17 487 -10 439 -10 389 -11 367 55 344 119 378 190 L 378 189 401 228 375 247 Q 286 310 135 339 L 0 356 Q -5 356 -7 359 L -10 367 -7 374 1 376 59 372 Q 58 416 97 455 145 502 209 489 279 476 321 413 360 351 343 293 L 333 296 387 263 412 244 413 245 Q 449 289 508 320 L 498 319 Q 490 377 533 431 579 489 647 489 715 489 764 434 L 793 389 784 384 846 386 853 383 856 376 853 369 846 366 M 490 28 Q 503 48 495 87 481 155 416 215 L 396 181 Q 366 119 386 62 403 11 439 10 475 10 490 28 M 69 371 L 65 371 69 371" viewBox="-10 -10 856 492" fill="#000000"></path><g id="cid_151" viewBox="-8 -79 755 461"><path d="M 445 191 Q 445 303 491 382 536 461 600 461 664 461 710 382 755 303 755 191 755 79 710 0 664 -79 600 -79 536 -79 491 0 445 79 445 191" fill="#000000"></path><path d="M 515 192 Q 515 247 533 285 550 324 575 324 600 324 618 285 635 247 635 192 635 138 618 100 600 61 575 61 550 61 533 100 515 138 515 192" fill="#ffffff"></path><path d="M 43 14 Q 7 84 -4 197 -10 262 -6 327 -3 395 9 395 32 395 44 304 50 237 57 201 71 136 103 111 128 92 157 101 184 109 200 137 219 169 228 213 L 239 294 245 359 Q 253 411 269 411 281 411 291 363 301 315 302 250 304 138 271 49 232 -59 160 -66 87 -73 43 14" fill="#000000"></path></g><g id="cid_152" viewBox="0 -10 765 632"><path d="M 739 206 Q 653 310 557 359 503 387 456 392 470 552 610 625 665 654 716 561 765 471 765 355 765 276 739 206" fill="#000000"></path><path d="M 70 72 Q 38 109 19 167 0 228 0 298 0 410 46 489 91 568 155 568 212 568 256 503 299 439 308 343 174 241 70 72" fill="#000000"></path><path d="M 525 373 Q 528 422 545 455 562 488 585 488 610 488 627 450 645 411 645 357 L 640 306 Q 605 341 525 373" fill="#ffffff"></path><path d="M 80 299 Q 80 354 98 392 115 431 140 431 165 431 183 392 200 354 200 299 200 245 183 207 165 168 140 168 115 168 98 207 80 245 80 299" fill="#ffffff"></path><path d="M 30 0 Q 71 68 127 145 237 298 308 343" fill="none" stroke="#000000" stroke-width="20" stroke-linecap="round" stroke-linejoin="round"></path><path d="M 380 250 Q 380 285 391 324 410 392 450 392 L 537 369 Q 644 322 741 204" fill="none" stroke="#000000" stroke-width="20" stroke-linecap="round" stroke-linejoin="round"></path></g><g id="cid_153" viewBox="-5 202 750 581"><path d="M 641 409 Q 641 404 703 370 760 334 740 314 640 388 547 410 L 451 420 Q 435 437 551 514 668 591 687 579 697 573 635 527 568 479 568 468 568 449 649 458 733 466 736 458 741 447 692 430 641 413 641 409" fill="#000000"></path><path d="M 303 371 L 181 297 Q 127 260 58 202 41 222 103 277 169 334 165 344 160 358 77 357 -5 357 -5 369 -5 381 81 389 169 398 174 415 180 433 111 467 45 499 51 506 63 518 174 475 284 433 327 401 L 313 386 Q 303 378 303 371" fill="#000000"></path><path d="M 378 317 Q 364 345 388 383 412 421 445 421 L 528 414 Q 633 391 740 314" fill="none" stroke="#000000" stroke-width="20" stroke-linecap="round" stroke-linejoin="round"></path><path d="M 312 284 Q 304 309 305 338 305 396 345 413" fill="none" stroke="#000000" stroke-width="20" stroke-linecap="round" stroke-linejoin="round"></path></g><g id="cid_155" viewBox="-94 -27 860 561"><path d="M 719 52 Q 673 -27 609 -27 545 -27 500 52 454 131 454 243 454 355 500 434 545 513 609 513 673 513 719 434 764 355 764 243 764 131 719 52" fill="#000000"></path><path d="M 14 243 Q 14 355 60 434 105 513 169 513 233 513 279 434 324 355 324 243 324 131 279 52 233 -27 169 -27 105 -27 60 52 14 131 14 243" fill="#000000"></path><path d="M 507 244 Q 507 314 530 363 552 413 584 413 616 413 639 363 662 314 662 244 662 174 639 125 616 75 584 75 552 75 530 125 507 174 507 244" fill="#ffffff"></path><path d="M 538 244 Q 538 277 549 300 559 323 574 323 589 323 600 300 611 277 611 244 611 211 600 188 589 165 574 165 559 165 549 188 538 211 538 244" fill="#000000"></path><path d="M 114 244 Q 114 281 126 306 137 332 154 332 171 332 183 306 195 281 195 244 195 207 183 182 171 156 154 156 137 156 126 182 114 207 114 244" fill="#ffffff"></path><path d="M 820 303 Q 819 346 805 399 776 503 707 549 740 536 771 498 833 424 820 303" fill="#000000"></path><path d="M 858 385 L 843 451 Q 818 524 762 561 790 550 816 522 869 466 858 385" fill="#000000"></path><path d="M -53 303 Q -65 424 -4 498 26 536 59 549 -10 503 -38 399 L -53 303" fill="#000000"></path><path d="M -49 522 Q -23 550 5 561 -51 524 -77 451 L -92 385 Q -102 466 -49 522" fill="#000000"></path></g><g id="cid_156" viewBox="0 0 754 504"><path d="M 503 84 Q 479 90 463 132 448 173 448 230 448 341 504 423 558 504 628 504 685 504 721 445 755 388 753 305 752 263 714 226 696 208 614 150 L 554 104 Q 522 80 503 84" fill="#000000"></path><path d="M 8 234 Q 8 346 54 425 99 504 163 504 227 504 273 425 318 346 318 234 318 140 289 113 258 84 184 129 L 69 195 Q 9 229 8 234" fill="#000000"></path><path d="M 543 216 Q 544 271 561 313 579 356 602 360 624 364 638 332 652 300 651 250 650 207 637 183 L 603 144 563 143 Q 543 164 543 216" fill="#ffffff"></path><path d="M 101 205 Q 101 258 116 296 131 333 152 333 172 333 187 296 202 258 202 205 202 156 187 139 174 124 152 136 122 151 117 156 101 171 101 205" fill="#ffffff"></path><path d="M 577 138 L 687 213 Q 740 257 753 305 760 249 703 200 L 587 121 Q 482 55 429 0 L 463 44 Q 509 96 577 138" fill="#000000"></path><path d="M 120 134 Q 54 167 21 209 4 230 0 246 L 130 176 Q 258 110 326 50 231 83 120 134" fill="#000000"></path></g><g id="cid_157" viewBox="0 0 754 329"><path d="M 715 214 L 590 220 Q 527 205 474 168 L 453 156 Q 448 155 448 170 448 234 504 282 558 329 628 329 685 329 721 295 755 262 753 214 753 200 715 214" fill="#000000"></path><path d="M 287 160 Q 226 207 172 219 107 234 48 189 L 18 165 Q 8 158 8 172 8 237 54 283 99 329 163 329 228 329 273 283 318 237 318 172 318 148 311 147 L 287 160" fill="#000000"></path><path d="M 577 100 Q 657 136 687 154 740 185 753 220 760 180 703 144 682 131 587 88 482 40 429 0 469 51 577 100" fill="#000000"></path><path d="M 119 84 Q 53 107 20 138 4 154 0 165 L 130 114 Q 258 67 326 24 231 47 119 84" fill="#000000"></path></g><g id="cid_159" viewBox="-438 -115 438 115"><path d="M -92 43 Q -142 -23 -193 -58 -244 -92 -289 -104 L -364 -115 -398 -113 -411 -110 -423 -101 Q -428 -94 -425 -86 -422 -79 -406 -74 L -370 -66 -336 -61 -324 -57 -417 -48 Q -441 -39 -438 -30 -435 -20 -417 -14 L -376 -5 -335 1 -315 6 -375 12 -400 17 -413 25 Q -418 31 -416 40 L -408 53 -393 56 -339 52 -239 63 Q -180 75 -115 108 L -83 109 Q -75 97 -79 77 -82 56 -92 43" fill="#000000"></path><path d="M 417 -14 Q 435 -20 438 -30 441 -39 417 -48 L 324 -57 337 -61 371 -66 407 -74 426 -86 424 -101 411 -110 398 -113 365 -115 289 -104 Q 244 -92 193 -58 142 -23 92 43 83 56 79 77 75 97 83 109 L 116 108 Q 181 75 240 63 L 340 52 394 56 409 53 417 40 414 25 Q 409 18 401 17 L 375 12 315 6 335 1 376 -5 417 -14" fill="#000000"></path></g><g id="cid_160" viewBox="-388 -239 388 239"><path d="M -337 -158 Q -373 -88 -384 25 -390 90 -386 155 -383 223 -371 223 -348 223 -336 132 L -323 29 Q -309 -36 -277 -61 -252 -80 -223 -71 -196 -63 -180 -35 -161 -3 -152 41 L -141 122 -135 187 Q -127 239 -111 239 -99 239 -89 191 -79 143 -78 78 -76 -34 -109 -123 -148 -231 -220 -238 -293 -245 -337 -158" fill="#000000"></path><path d="M 105 -124 Q 71 -31 71 85 71 147 80 193 90 238 101 238 115 238 121 188 L 130 80 Q 133 33 148 -8 168 -62 202 -75 238 -88 268 -54 289 -30 303 12 L 320 78 332 144 341 192 Q 350 229 363 229 376 229 383 180 391 129 387 66 379 -50 339 -136 291 -238 219 -238 146 -238 105 -124" fill="#000000"></path></g><g id="cid_161" viewBox="-1 0 749 540"><path d="M 439 270 Q 439 382 485 461 530 540 594 540 658 540 704 461 749 382 749 270 749 158 704 79 658 0 594 0 530 0 485 79 439 158 439 270" fill="#000000"></path><path d="M -1 270 Q -1 382 45 461 90 540 154 540 218 540 264 461 309 382 309 270 309 158 264 79 218 0 154 0 90 0 45 79 -1 158 -1 270" fill="#000000"></path><path d="M 466 271 Q 466 326 484 364 501 403 526 403 551 403 568 364 586 326 586 271 586 217 568 179 551 140 526 140 501 140 484 179 466 217 466 271" fill="#ffffff"></path><path d="M 36 271 Q 36 326 54 364 71 403 96 403 121 403 138 364 156 326 156 271 156 217 138 179 121 140 96 140 71 140 54 179 36 217 36 271" fill="#ffffff"></path></g><g id="cid_162" viewBox="-1 0 749 540"><path d="M 439 270 Q 439 382 485 461 530 540 594 540 658 540 704 461 749 382 749 270 749 158 704 79 658 0 594 0 530 0 485 79 439 158 439 270" fill="#000000"></path><path d="M -1 270 Q -1 382 45 461 90 540 154 540 218 540 264 461 309 382 309 270 309 158 264 79 218 0 154 0 90 0 45 79 -1 158 -1 270" fill="#000000"></path><path d="M 592 271 Q 592 326 610 364 627 403 652 403 677 403 694 364 712 326 712 271 712 217 694 179 677 140 652 140 627 140 610 179 592 217 592 271" fill="#ffffff"></path><path d="M 162 271 Q 162 326 180 364 197 403 222 403 247 403 264 364 282 326 282 271 282 217 264 179 247 140 222 140 197 140 180 179 162 217 162 271" fill="#ffffff"></path></g><path id="cid_168" d="M 287 94 L 83 94 83 150 203 150 73 321 73 375 293 375 293 318 156 318 287 147 287 94" viewBox="73 94 293 375" fill="#000000"></path><g id="cid_169" viewBox="-10 -10 889 1009"><path d="M 863 553 Q 910 378 820 220 729 63 553 16 378 -31 220 59 62 151 15 326 -32 502 64 643 160 783 280 839 L 621 999 Q 570 871 659 820 816 729 863 553" fill="#66ffff" fill-opacity="0.20392156862745"></path><path d="M 863 553 Q 816 729 659 820 570 871 621 999 L 280 839 Q 160 783 64 643 -32 502 15 326 62 151 220 59 378 -31 553 16 729 63 820 220 910 378 863 553" fill="none" stroke="#3399ff" stroke-width="20" stroke-linecap="round" stroke-linejoin="round" stroke-opacity="1"></path></g><path id="cid_170" d="M 561 -457 L 750 -579 M 358 -633 L 440 -849 M -223 -187 L -61 -200 M -344 -470 L -74 -376 M 21 -51 L -61 97 M -61 -808 L 48 -538" viewBox="-354 -859 760 107" fill="none" stroke="#3399ff" stroke-width="20" stroke-linecap="round" stroke-linejoin="round"></path><path id="cid_171" d="M 656 -592 L 831 -633 M 413 -808 L 494 -1011 M -61 -741 L -128 -862 M -236 -443 L -385 -511 M -196 -160 L -331 -160 M -61 97 L -88 219" viewBox="-395 -1021 841 229" fill="none" stroke="#3399ff" stroke-width="20" stroke-linecap="round" stroke-linejoin="round"></path><g id="cid_173" viewBox="-121 47 4309 939"><path d="M 4304 616 Q 4288 568 4226 528 4278 490 4290 448 4302 406 4271 368 4237 328 4163 304 4088 280 3992 280 L 3906 285 Q 3877 223 3792 181 3665 117 3475 117 3305 117 3146 171 3042 112 2897 79 2749 47 2585 47 2450 47 2322 69 2195 91 2090 132 1932 69 1723 69 L 1511 88 Q 1410 108 1337 144 1175 78 977 78 850 78 738 106 626 135 548 187 436 165 334 165 208 165 104 197 1 229 -56 286 -112 341 -108 403 -104 465 -44 519 -104 567 -118 615 -130 663 -91 702 -54 740 20 761 95 781 194 781 L 328 773 Q 389 837 505 871 623 906 784 906 938 906 1115 873 1211 905 1351 922 L 1657 939 Q 1903 939 2084 903 2256 934 2465 934 2729 934 2939 885 3114 938 3301 938 3454 938 3575 902 3694 866 3757 802 L 3943 819 Q 4063 819 4154 789 4247 760 4286 709 4320 664 4304 616" fill="#fff000"></path><path d="M 4214 626 Q 4198 571 4105 529 4183 490 4199 444 4212 402 4169 369 4123 336 4037 328 3942 319 3828 347 3828 282 3762 235 3701 190 3594 172 3359 133 3130 235 2958 105 2633 94 2312 83 2088 194 1934 108 1693 115 1457 122 1345 210 1176 114 941 124 703 134 582 246 414 201 269 213 140 225 61 279 -14 329 -16 396 -17 465 66 519 -12 569 -26 618 -40 664 7 696 114 768 383 716 443 826 655 852 856 877 1128 822 1278 884 1588 892 1884 899 2082 854 2270 892 2506 888 2754 884 2945 832 3180 913 3410 886 3641 858 3706 742 3866 780 3995 771 4110 762 4171 720 4230 679 4214 626" fill="#ffffff"></path></g></defs></svg>
