<?xml version="1.0" encoding="utf-8"?>
<!DOCTYPE svg PUBLIC "-//W3C//DTD SVG 1.1//EN" "http://www.w3.org/Graphics/SVG/1.1/DTD/svg11.dtd">
<svg xmlns="http://www.w3.org/2000/svg" xmlns:xlink="http://www.w3.org/1999/xlink" version="1.1" width="11000" height="8000"><defs><font id="cid_4"><font-face font-family="Monaco"></font-face><glyph unicode=" " d=""></glyph><glyph unicode="(" d="M 540 -112 L 540 -188 Q 401 -180 306 -110 210 -40 153 79 96 198 96 317 96 437 153 556 210 675 306 745 401 815 540 824 L 540 748 Q 435 738 359 677 283 616 240 521 196 426 196 318 196 209 240 115 283 20 359 -41 435 -102 540 -112" horiz-adv-x="540"></glyph><glyph unicode=")" d="M 76 748 L 76 824 Q 215 815 311 745 406 675 463 556 520 437 520 317 520 198 463 79 406 -40 311 -110 215 -180 76 -188 L 76 -112 Q 182 -102 257 -41 333 20 377 115 420 209 420 318 420 426 377 521 333 616 257 677 182 738 76 748" horiz-adv-x="520"></glyph><glyph unicode="," d="M 212 -216 L 212 -152 Q 248 -143 267 -125 286 -108 297 -81 308 -54 308 -16 261 -16 239 10 216 36 216 66 216 100 241 124 265 148 298 148 339 148 370 112 400 75 400 12 400 -43 377 -91 353 -140 312 -174 271 -209 212 -216" horiz-adv-x="400"></glyph><glyph unicode="-" d="M 508 276 L 112 276 112 352 508 352 508 276" horiz-adv-x="508"></glyph><glyph unicode="." d="M 306 -24 Q 273 -24 248 0 224 24 224 58 224 92 249 116 273 140 306 140 339 140 364 116 388 92 388 58 388 24 364 0 340 -24 306 -24" horiz-adv-x="388"></glyph><glyph unicode="/" d="M 598 800 L 108 -24 20 -24 510 800 598 800" horiz-adv-x="598"></glyph><glyph unicode="0" d="M 306 800 Q 438 800 507 688 576 577 576 388 576 199 507 87 438 -24 306 -24 175 -24 106 87 36 199 36 388 36 577 106 688 175 800 306 800 M 156 213 L 424 643 Q 399 691 369 707 339 724 307 724 223 724 180 629 136 534 136 388 L 138 317 Q 140 278 156 213 M 456 551 L 191 125 Q 212 88 240 70 268 52 302 52 397 52 436 159 476 266 476 396 476 477 456 551" horiz-adv-x="576"></glyph><glyph unicode="1" d="M 92 76 L 280 76 280 672 200 613 Q 161 589 92 564 L 92 655 Q 201 702 280 776 L 372 776 372 76 560 76 560 0 92 0 92 76" horiz-adv-x="560"></glyph><glyph unicode="2" d="M 544 84 L 544 0 76 0 76 85 Q 76 118 89 156 102 194 138 241 L 217 331 270 386 340 463 Q 394 523 411 555 428 587 428 619 428 669 389 696 350 724 300 724 L 238 717 177 702 92 666 92 748 Q 154 778 217 789 L 320 800 Q 379 800 429 780 479 760 504 719 528 677 528 630 528 578 497 523 465 468 377 381 L 320 324 273 276 Q 227 230 199 187 171 144 168 84 L 544 84" horiz-adv-x="544"></glyph><glyph unicode="3" d="M 76 13 L 76 111 Q 191 52 275 52 352 52 402 99 452 146 452 220 452 294 397 341 343 388 211 388 L 160 388 160 464 232 464 Q 329 464 373 508 416 553 416 607 416 656 381 690 345 724 271 724 188 724 92 675 L 92 764 Q 188 800 267 800 409 800 462 744 516 688 516 616 516 563 488 516 460 469 384 432 450 412 484 383 518 354 535 315 552 275 552 227 552 118 472 47 391 -24 263 -24 L 183 -19 Q 139 -13 76 13" horiz-adv-x="552"></glyph><glyph unicode=";" d="M 212 -216 L 212 -152 Q 248 -143 267 -125 286 -108 297 -81 308 -54 308 -16 261 -16 239 10 216 36 216 66 216 100 241 124 265 148 298 148 339 148 370 112 400 75 400 12 400 -43 377 -91 353 -140 312 -174 271 -209 212 -216 M 298 412 Q 265 412 240 436 216 460 216 494 216 528 241 552 265 576 298 576 331 576 356 552 380 528 380 494 380 460 356 436 332 412 298 412" horiz-adv-x="400"></glyph><glyph unicode="&lt;" d="M 580 0 L 36 270 580 540 580 455 206 270 580 84 580 0" horiz-adv-x="580"></glyph><glyph unicode="&gt;" d="M 36 540 L 580 270 36 0 36 84 410 270 36 455 36 540" horiz-adv-x="580"></glyph><glyph unicode="A" d="M 165 168 L 112 0 16 0 256 776 356 776 596 0 492 0 441 168 165 168 M 281 542 L 189 244 418 244 324 542 302 624 281 542" horiz-adv-x="596"></glyph><glyph unicode="B" d="M 276 0 L 88 0 88 776 240 776 Q 377 776 424 755 470 734 493 694 516 654 516 602 516 561 502 525 489 488 462 458 434 428 383 401 475 364 508 310 540 256 540 201 540 149 513 101 485 52 435 26 385 0 276 0 M 188 700 L 188 428 294 428 Q 345 449 369 473 393 497 405 526 416 555 416 591 416 646 384 673 352 700 259 700 L 188 700 M 188 352 L 188 76 284 76 Q 364 76 402 114 440 152 440 206 440 246 419 279 398 313 354 332 310 352 216 352 L 188 352" horiz-adv-x="540"></glyph><glyph unicode="C" d="M 544 100 L 544 8 Q 458 -24 390 -24 300 -24 224 25 148 73 106 170 64 266 64 388 64 508 106 604 147 701 223 750 299 800 390 800 458 800 544 768 L 544 676 Q 464 724 384 724 325 724 275 682 225 641 195 561 164 482 164 388 164 293 196 212 227 132 276 92 325 52 384 52 463 52 544 100" horiz-adv-x="544"></glyph><glyph unicode="D" d="M 263 0 L 76 0 76 776 263 776 Q 392 776 455 731 517 687 549 598 580 508 580 386 580 270 547 182 514 94 453 47 392 0 263 0 M 176 700 L 176 84 246 84 Q 351 84 397 120 442 157 461 222 480 287 480 402 480 514 458 575 435 635 393 667 350 700 254 700 L 176 700" horiz-adv-x="580"></glyph><glyph unicode="E" d="M 200 84 L 520 84 520 0 100 0 100 776 512 776 512 696 200 696 200 432 480 432 480 356 200 356 200 84" horiz-adv-x="520"></glyph><glyph unicode="F" d="M 208 0 L 108 0 108 776 544 776 544 700 208 700 208 432 512 432 512 356 208 356 208 0" horiz-adv-x="544"></glyph><glyph unicode="I" d="M 528 0 L 84 0 84 76 256 76 256 700 84 700 84 776 528 776 528 700 356 700 356 76 528 76 528 0" horiz-adv-x="528"></glyph><glyph unicode="J" d="M 56 15 L 56 110 Q 166 52 240 52 279 52 311 67 343 82 361 117 380 153 380 269 L 380 700 204 700 204 776 480 776 480 267 Q 480 143 452 89 424 34 373 5 321 -24 242 -24 153 -24 56 15" horiz-adv-x="480"></glyph><glyph unicode="K" d="M 180 0 L 80 0 80 776 180 776 180 395 466 776 574 776 296 406 614 0 488 0 180 394 180 0" horiz-adv-x="614"></glyph><glyph unicode="P" d="M 229 284 L 188 284 188 0 88 0 88 776 282 776 Q 401 776 456 749 510 722 539 671 568 620 568 556 568 482 529 417 490 353 420 318 350 284 229 284 M 188 700 L 188 360 232 360 Q 327 360 373 384 419 409 444 454 468 500 468 554 468 621 424 660 380 700 249 700 L 188 700" horiz-adv-x="568"></glyph><glyph unicode="R" d="M 273 332 L 180 332 180 0 80 0 80 776 282 776 Q 380 776 427 755 473 735 499 694 524 652 524 604 524 560 508 515 491 470 462 435 433 400 378 369 L 598 0 481 0 273 332 M 180 700 L 180 408 312 408 Q 358 434 380 461 402 488 413 519 424 549 424 580 424 635 387 667 350 700 251 700 L 180 700" horiz-adv-x="598"></glyph><glyph unicode="S" d="M 80 16 L 80 112 Q 200 52 298 52 339 52 376 68 414 83 433 113 452 143 452 178 452 218 426 254 399 289 326 332 L 274 362 224 392 Q 88 470 88 590 88 679 149 739 209 800 337 800 419 800 496 776 L 496 692 Q 411 724 331 724 267 724 228 689 188 654 188 605 188 557 218 525 248 492 295 465 L 334 443 Q 358 429 383 414 L 425 390 Q 552 313 552 195 552 105 487 40 422 -24 277 -24 L 190 -17 80 16" horiz-adv-x="552"></glyph><glyph unicode="T" d="M 356 0 L 256 0 256 692 24 692 24 776 588 776 588 692 356 692 356 0" horiz-adv-x="588"></glyph><glyph unicode="W" d="M 204 0 L 108 0 16 776 109 776 165 303 171 225 174 225 183 303 262 776 356 776 447 284 457 209 459 209 466 285 524 776 600 776 508 0 412 0 314 526 304 605 302 605 292 526 204 0" horiz-adv-x="600"></glyph><glyph unicode="Y" d="M 360 0 L 260 0 260 359 26 776 140 776 315 465 489 776 594 776 360 359 360 0" horiz-adv-x="594"></glyph><glyph unicode="a" d="M 443 126 Q 401 55 342 19 282 -16 233 -16 163 -16 108 44 52 105 52 229 52 326 89 402 125 479 186 523 248 568 338 568 L 417 562 440 560 532 560 532 160 Q 532 61 549 0 L 456 0 Q 448 46 443 126 M 440 234 L 440 478 Q 392 492 350 492 265 492 209 424 152 356 152 239 152 154 183 111 214 68 253 68 296 68 348 113 399 158 440 234" horiz-adv-x="549"></glyph><glyph unicode="b" d="M 164 808 L 164 439 Q 207 507 266 541 325 576 375 576 445 576 501 515 556 454 556 331 556 234 519 157 482 81 420 36 359 -8 268 -8 L 188 -3 165 0 72 0 72 808 164 808 M 164 326 L 164 81 Q 215 68 257 68 341 68 399 135 456 203 456 321 456 406 425 449 393 492 354 492 310 492 258 447 206 402 164 326" horiz-adv-x="556"></glyph><glyph unicode="c" d="M 548 104 L 548 15 Q 455 -16 371 -16 287 -16 222 23 157 62 121 128 84 195 84 279 84 407 167 491 249 576 366 576 452 576 548 544 L 548 455 Q 451 500 374 500 323 500 278 474 233 449 209 394 184 340 184 283 184 206 231 137 279 68 380 68 L 439 72 Q 469 76 548 104" horiz-adv-x="548"></glyph><glyph unicode="d" d="M 452 0 L 452 121 Q 410 53 350 18 291 -16 241 -16 171 -16 116 44 60 105 60 229 60 326 97 402 134 479 196 523 258 568 349 568 L 428 562 452 560 452 808 544 808 544 0 452 0 M 452 234 L 452 478 360 492 Q 275 492 217 424 160 356 160 239 160 154 191 111 223 68 263 68 306 68 358 113 411 158 452 234" horiz-adv-x="544"></glyph><glyph unicode="e" d="M 544 120 L 544 35 Q 432 -16 332 -16 256 -16 196 21 136 59 100 129 64 199 64 279 64 355 98 426 133 497 194 536 255 576 331 576 431 576 492 504 552 433 552 284 L 552 264 164 264 Q 164 205 189 157 213 108 253 84 293 60 344 60 434 60 544 120 M 170 332 L 452 332 452 346 Q 452 416 418 458 384 500 328 500 270 500 228 457 187 415 170 332" horiz-adv-x="552"></glyph><glyph unicode="f" d="M 300 0 L 208 0 208 436 84 436 84 512 208 512 208 538 Q 208 649 234 702 259 755 311 790 364 824 451 824 L 584 811 584 724 Q 511 748 454 748 408 748 374 731 339 714 320 676 300 639 300 548 L 300 512 524 512 524 436 300 436 300 0" horiz-adv-x="584"></glyph><glyph unicode="g" d="M 452 43 L 452 121 Q 410 53 350 18 291 -16 241 -16 171 -16 116 44 60 105 60 229 60 326 97 402 134 479 196 523 257 568 349 568 L 428 562 452 560 544 560 544 164 541 -8 528 -72 Q 508 -146 438 -189 368 -232 268 -232 167 -232 64 -181 L 64 -88 Q 103 -115 161 -135 218 -156 271 -156 L 351 -143 Q 389 -130 412 -104 435 -79 444 -46 452 -13 452 43 M 452 234 L 452 478 360 492 Q 275 492 217 424 160 356 160 239 160 154 191 111 223 68 263 68 306 68 358 113 411 158 452 234" horiz-adv-x="544"></glyph><glyph unicode="h" d="M 168 0 L 76 0 76 808 168 808 168 439 Q 208 503 265 540 321 576 378 576 425 576 464 551 503 527 519 492 L 536 436 540 313 540 0 448 0 448 326 Q 448 407 441 433 433 458 412 475 391 492 367 492 318 492 261 445 205 398 168 328 L 168 0" horiz-adv-x="540"></glyph><glyph unicode="i" d="M 480 0 L 232 0 232 484 76 484 76 560 324 560 324 76 480 76 480 0 M 216 761 Q 216 793 238 808 259 824 278 824 297 824 319 808 340 793 340 761 340 731 319 715 297 700 278 700 259 700 238 715 216 731 216 761" horiz-adv-x="480"></glyph><glyph unicode="j" d="M 80 -219 L 80 -133 Q 161 -156 216 -156 264 -156 297 -140 331 -124 349 -85 368 -46 368 50 L 368 484 124 484 124 560 460 560 460 68 Q 460 -74 426 -129 392 -184 343 -208 295 -232 211 -232 L 80 -219 M 352 761 Q 352 793 374 808 395 824 414 824 434 824 455 808 476 793 476 761 476 731 455 715 434 700 414 700 395 700 374 715 352 731 352 761" horiz-adv-x="476"></glyph><glyph unicode="k" d="M 196 0 L 104 0 104 808 196 808 196 300 465 560 585 560 318 302 591 0 468 0 196 300 196 0" horiz-adv-x="591"></glyph><glyph unicode="l" d="M 496 0 L 228 0 228 732 60 732 60 808 320 808 320 76 496 76 496 0" horiz-adv-x="496"></glyph><glyph unicode="m" d="M 112 0 L 36 0 36 560 112 560 112 433 Q 151 514 185 545 219 576 253 576 294 576 319 544 344 512 344 454 L 344 424 Q 361 475 384 507 407 538 432 557 457 576 489 576 525 576 551 545 576 515 576 423 L 576 0 500 0 500 384 497 448 485 475 465 484 Q 438 484 407 444 376 404 344 311 L 344 0 268 0 268 383 Q 268 458 253 471 238 484 226 484 200 484 170 439 140 394 112 324 L 112 0" horiz-adv-x="576"></glyph><glyph unicode="n" d="M 168 0 L 76 0 76 560 168 560 168 439 Q 208 503 265 540 321 576 378 576 427 576 467 549 508 523 524 480 540 438 540 313 L 540 0 448 0 448 326 Q 448 407 441 433 433 458 412 475 391 492 367 492 318 492 261 445 205 398 168 328 L 168 0" horiz-adv-x="540"></glyph><glyph unicode="o" d="M 309 -16 Q 188 -16 116 68 44 152 44 280 44 408 116 492 188 576 309 576 428 576 500 492 572 408 572 280 572 152 500 68 428 -16 309 -16 M 309 60 Q 384 60 428 118 472 177 472 280 472 382 428 441 384 500 309 500 233 500 189 441 144 382 144 280 144 177 189 118 233 60 309 60" horiz-adv-x="572"></glyph><glyph unicode="p" d="M 164 560 L 164 439 Q 207 507 266 541 325 576 375 576 445 576 501 515 556 454 556 331 556 234 519 157 482 81 420 36 359 -8 268 -8 L 188 -3 164 0 164 -216 72 -216 72 560 164 560 M 164 326 L 164 81 Q 215 68 257 68 341 68 399 135 456 203 456 321 456 406 425 449 393 492 354 492 310 492 258 447 206 402 164 326" horiz-adv-x="556"></glyph><glyph unicode="r" d="M 216 0 L 124 0 124 560 216 560 216 439 Q 260 508 317 542 373 576 443 576 493 576 544 560 L 544 360 452 360 452 488 415 492 Q 363 492 314 451 264 409 216 327 L 216 0" horiz-adv-x="544"></glyph><glyph unicode="s" d="M 84 28 L 84 128 Q 141 90 205 75 L 313 60 Q 385 60 417 83 448 106 448 140 448 163 433 179 418 195 359 219 L 326 232 259 258 Q 152 299 126 334 100 368 100 417 100 486 154 531 207 576 327 576 416 576 496 552 L 496 468 Q 403 500 320 500 260 500 226 479 192 458 192 426 192 396 223 378 253 359 319 336 L 383 312 Q 472 280 506 243 540 206 540 150 540 78 484 31 428 -16 305 -16 198 -16 84 28" horiz-adv-x="540"></glyph><glyph unicode="t" d="M 540 103 L 540 21 446 -11 389 -16 Q 330 -16 282 6 234 29 209 73 184 117 184 210 L 184 436 44 436 44 512 184 512 184 732 276 732 276 512 524 512 524 436 276 436 276 210 Q 276 142 292 114 308 86 335 73 362 60 398 60 466 60 540 103" horiz-adv-x="540"></glyph><glyph unicode="u" d="M 448 560 L 540 560 540 0 448 0 448 121 Q 403 52 348 18 293 -16 239 -16 190 -16 149 10 108 36 92 79 76 122 76 247 L 76 560 168 560 168 234 Q 168 153 176 127 184 101 205 84 225 68 249 68 299 68 355 114 411 161 448 232 L 448 560" horiz-adv-x="540"></glyph><glyph unicode="v" d="M 358 0 L 261 0 18 560 118 560 311 115 503 560 602 560 358 0" horiz-adv-x="602"></glyph><glyph unicode="w" d="M 196 0 L 104 0 12 560 99 560 152 219 166 140 180 219 268 560 352 560 453 219 470 140 482 219 536 560 608 560 516 0 428 0 321 360 304 439 303 439 287 361 196 0" horiz-adv-x="608"></glyph><glyph unicode="x" d="M 306 222 L 144 0 30 0 248 298 48 560 163 560 305 374 440 560 554 560 363 298 590 0 476 0 306 222" horiz-adv-x="590"></glyph><glyph unicode="y" d="M 277 0 L 288 26 30 560 132 560 335 140 505 560 598 560 386 38 Q 317 -125 255 -179 194 -232 96 -232 L 19 -225 19 -144 Q 58 -156 93 -156 138 -156 173 -139 208 -121 236 -77 265 -33 277 0" horiz-adv-x="598"></glyph><glyph unicode="z" d="M 540 0 L 68 0 68 84 413 484 76 484 76 560 532 560 532 484 188 84 540 84 540 0" horiz-adv-x="540"></glyph><glyph unicode="{" d="M 272 318 Q 317 293 338 270 L 370 221 Q 380 196 380 164 L 370 90 358 32 Q 348 -15 348 -38 348 -69 372 -91 395 -112 469 -112 L 546 -112 546 -188 469 -188 Q 334 -188 295 -144 256 -100 256 -44 256 -14 263 20 L 272 60 279 104 285 130 288 167 Q 288 213 257 247 226 280 148 280 L 104 280 104 356 148 356 Q 225 356 257 388 288 421 288 470 L 285 505 280 531 272 575 263 615 Q 256 650 256 679 256 735 295 779 334 824 469 824 L 546 824 546 748 469 748 Q 396 748 372 726 348 704 348 673 348 650 358 603 L 370 545 380 470 Q 380 438 370 414 359 389 338 366 317 342 272 318" horiz-adv-x="546"></glyph><glyph unicode="|" d="M 344 -24 L 268 -24 268 800 344 800 344 -24" horiz-adv-x="344"></glyph><glyph unicode="}" d="M 345 318 Q 299 342 278 366 257 389 247 414 236 438 236 470 236 499 246 545 L 258 603 268 673 Q 268 704 244 726 221 748 147 748 L 70 748 70 824 147 824 Q 282 824 321 779 360 735 360 679 L 353 615 345 575 337 531 331 505 328 468 Q 328 422 359 389 390 356 468 356 L 512 356 512 280 468 280 Q 391 280 360 247 328 214 328 165 328 147 331 130 L 337 104 345 60 353 20 360 -45 Q 360 -100 321 -144 282 -188 147 -188 L 70 -188 70 -112 147 -112 Q 221 -112 244 -91 268 -69 268 -37 L 258 32 246 90 Q 236 136 236 164 236 196 247 221 257 246 278 270 299 293 345 318" horiz-adv-x="512"></glyph></font><font id="cid_9"><font-face font-family="Hiragino Kaku Gothic ProN W6"></font-face><glyph unicode=" " d=""></glyph><glyph unicode="&amp;" d="M 866 -12 L 664 -12 609 56 593 73 528 27 Q 501 10 471 -1 403 -28 321 -28 181 -28 109 44 50 107 48 204 48 296 115 361 L 166 403 Q 194 422 243 445 L 212 478 Q 142 552 144 628 145 716 209 767 273 818 386 819 495 818 559 769 623 719 624 636 625 540 541 481 L 501 457 429 422 614 238 Q 652 288 674 333 697 379 713 444 L 819 393 Q 785 306 757 258 730 210 688 163 L 762 88 809 42 866 -12 M 320 533 L 355 497 422 527 451 543 Q 497 574 496 623 492 709 387 712 280 709 276 621 274 576 320 533 M 520 155 L 315 370 258 339 222 311 Q 181 272 180 215 187 89 332 84 434 83 520 155" horiz-adv-x="866"></glyph><glyph unicode="(" d="M 392 -109 L 285 -182 219 -79 Q 196 -37 176 13 115 159 116 318 116 453 156 573 176 635 205 688 233 742 285 816 L 394 746 Q 350 684 326 639 303 594 287 542 252 437 252 316 253 196 285 94 301 44 324 -1 L 392 -109" horiz-adv-x="394"></glyph><glyph unicode=")" d="M 131 -182 L 25 -109 92 -1 Q 116 44 131 94 164 196 164 316 165 437 129 542 114 594 90 639 L 23 746 131 816 Q 183 742 212 688 241 635 261 573 300 453 300 318 301 159 242 13 L 197 -79 131 -182" horiz-adv-x="300"></glyph><glyph unicode="," d="M 212 139 L 212 -12 Q 213 -76 190 -109 167 -143 106 -165 L 69 -111 Q 115 -100 131 -79 147 -58 147 -12 L 60 -12 60 139 212 139" horiz-adv-x="212"></glyph><glyph unicode="-" d="M 35 230 L 35 366 131 360 290 360 387 366 387 230 342 235 290 236 131 236 35 230" horiz-adv-x="387"></glyph><glyph unicode="." d="M 216 -12 L 65 -12 65 139 216 139 216 -12" horiz-adv-x="216"></glyph><glyph unicode="/" d="M 389 804 L 514 804 145 -166 19 -166 389 804" horiz-adv-x="514"></glyph><glyph unicode="0" d="M 362 -28 Q 230 -27 148 56 101 103 80 159 40 269 40 393 41 476 57 552 74 627 103 676 189 817 363 819 495 819 579 735 626 688 647 632 688 523 688 395 686 200 611 94 523 -28 362 -28 M 363 92 Q 433 93 473 135 543 212 545 396 543 578 473 657 434 699 362 700 290 701 248 648 180 568 180 400 182 234 232 158 279 91 363 92" horiz-adv-x="688"></glyph><glyph unicode="1" d="M 460 -12 L 304 -12 Q 313 44 312 121 L 312 684 263 684 158 682 158 812 203 806 260 803 355 803 413 804 460 809 Q 452 724 452 638 L 452 121 Q 452 45 460 -12" horiz-adv-x="460"></glyph><glyph unicode="2" d="M 515 -12 L 186 -12 103 -13 54 -17 Q 62 64 81 113 121 224 221 313 L 280 361 390 437 Q 459 484 487 517 514 550 513 588 507 696 371 700 281 700 241 640 218 610 210 546 L 63 563 Q 73 620 90 658 106 695 134 727 213 818 368 819 504 818 581 758 658 698 660 592 661 494 586 428 L 539 389 413 302 Q 338 248 291 200 251 158 233 108 L 520 108 671 115 671 -20 600 -15 515 -12" horiz-adv-x="671"></glyph><glyph unicode="4" d="M 707 303 L 704 169 654 174 601 176 564 176 564 103 566 40 576 -12 428 -12 Q 437 35 437 106 L 437 176 153 176 25 172 25 300 66 346 107 395 350 691 400 754 435 804 575 804 569 724 568 631 568 295 604 295 707 303 M 436 292 L 436 504 Q 436 570 441 626 L 413 587 372 535 175 292 436 292" horiz-adv-x="707"></glyph><glyph unicode="5" d="M 62 172 L 204 202 Q 215 163 234 143 278 92 360 92 437 93 482 137 527 182 528 258 521 413 367 420 290 420 241 374 221 357 210 328 L 82 341 92 409 95 446 119 700 123 806 168 804 231 803 483 803 563 805 625 812 625 680 484 688 244 688 227 511 221 467 Q 293 532 396 531 521 532 596 453 670 381 668 262 667 127 586 50 505 -27 360 -28 210 -29 127 62 107 83 93 107 L 62 172" horiz-adv-x="668"></glyph><glyph unicode="&lt;" d="M 201 281 L 518 109 518 -30 19 255 19 307 518 592 518 452 201 281" horiz-adv-x="518"></glyph><glyph unicode="=" d="M 653 463 L 653 344 50 344 50 463 653 463 M 653 223 L 653 104 50 104 50 223 653 223" horiz-adv-x="653"></glyph><glyph unicode="&gt;" d="M 353 281 L 35 452 35 592 535 307 535 255 35 -30 35 109 353 281" horiz-adv-x="535"></glyph><glyph unicode="A" d="M 816 -12 L 648 -12 Q 638 44 620 94 L 579 204 251 204 210 94 191 39 179 -12 12 -12 66 107 291 700 Q 318 770 324 804 L 502 804 512 766 537 700 764 107 794 33 816 -12 M 542 323 L 432 628 414 685 399 642 394 628 288 323 542 323" horiz-adv-x="816"></glyph><glyph unicode="B" d="M 457 -12 L 203 -12 130 -13 71 -16 78 45 80 123 80 681 Q 80 748 72 808 L 127 806 202 804 443 804 Q 687 800 692 603 693 511 634 459 606 430 552 416 591 408 614 397 L 660 369 Q 724 311 724 212 718 -7 457 -12 M 216 471 L 429 471 Q 549 475 552 582 551 632 526 656 491 687 428 688 L 216 688 216 471 M 216 356 L 216 104 438 104 Q 578 105 581 232 582 292 545 321 506 356 434 356 L 216 356" horiz-adv-x="724"></glyph><glyph unicode="C" d="M 621 262 L 768 237 737 147 Q 722 112 699 83 608 -26 419 -28 251 -27 156 69 47 188 45 392 47 601 164 723 262 818 420 820 536 821 617 771 687 728 726 660 L 757 581 615 548 Q 598 608 571 636 518 699 421 700 311 699 250 619 189 540 188 397 189 254 251 174 313 93 421 92 534 94 587 168 611 199 621 262" horiz-adv-x="768"></glyph><glyph unicode="D" d="M 80 119 L 80 674 78 746 72 808 128 805 202 804 388 804 Q 573 806 665 714 779 606 780 403 780 191 658 76 565 -14 389 -12 L 202 -12 129 -13 72 -16 78 44 80 119 M 216 108 L 380 108 Q 501 106 561 174 636 255 636 402 636 548 565 622 508 686 381 684 L 216 684 216 108" horiz-adv-x="780"></glyph><glyph unicode="E" d="M 655 115 L 653 -20 597 -15 521 -12 202 -12 129 -13 72 -15 78 44 80 118 80 675 78 743 72 807 129 805 202 804 511 804 643 812 643 677 585 682 511 684 216 684 216 472 466 472 599 479 599 345 541 351 466 352 216 352 216 108 523 108 594 109 655 115" horiz-adv-x="655"></glyph><glyph unicode="F" d="M 216 340 L 216 135 218 49 224 -12 72 -12 Q 81 36 80 133 L 80 674 78 744 72 807 129 804 202 804 489 804 567 805 629 812 629 673 489 680 216 680 216 460 435 460 575 467 575 333 435 340 216 340" horiz-adv-x="629"></glyph><glyph unicode="G" d="M 740 305 L 740 198 741 126 747 65 Q 694 36 657 21 621 5 582 -5 L 432 -24 Q 240 -24 142 93 46 208 44 403 46 654 210 764 300 825 436 824 580 822 672 737 L 715 685 748 615 606 577 Q 582 646 539 675 496 705 419 704 325 702 264 641 188 562 188 405 189 247 258 166 317 94 435 96 535 94 608 142 L 608 308 553 308 493 307 449 302 449 434 501 429 572 428 625 428 687 429 747 432 Q 740 383 740 305" horiz-adv-x="748"></glyph><glyph unicode="H" d="M 620 804 L 772 804 766 744 764 673 764 120 766 48 772 -12 620 -12 626 46 628 120 628 352 216 352 216 120 218 47 224 -12 72 -12 78 46 80 120 80 672 78 746 72 804 224 804 Q 216 747 216 673 L 216 476 628 476 628 672 Q 629 754 620 804" horiz-adv-x="772"></glyph><glyph unicode="I" d="M 72 804 L 228 804 222 746 220 672 220 120 222 46 228 -12 72 -12 79 46 81 120 81 672 79 746 72 804" horiz-adv-x="228"></glyph><glyph unicode="J" d="M 376 804 L 532 804 526 746 524 671 524 212 Q 523 103 469 44 401 -28 270 -28 134 -29 62 49 L 32 88 4 146 139 195 Q 159 130 194 111 226 92 271 92 329 93 360 124 385 152 385 214 L 385 671 383 745 376 804" horiz-adv-x="532"></glyph><glyph unicode="K" d="M 419 471 L 679 118 742 34 782 -12 592 -12 528 95 324 382 212 271 212 120 214 47 221 -12 72 -12 78 51 80 120 80 672 Q 81 747 72 804 L 221 804 Q 212 756 212 672 L 212 433 473 704 Q 528 759 553 804 L 747 804 638 695 419 471" horiz-adv-x="782"></glyph><glyph unicode="L" d="M 652 119 L 652 -20 593 -15 507 -12 204 -12 Q 122 -12 72 -15 81 36 80 120 L 80 652 79 738 72 804 228 804 222 741 220 653 220 112 507 112 590 113 652 119" horiz-adv-x="652"></glyph><glyph unicode="M" d="M 566 -12 L 445 -12 Q 436 38 400 126 L 252 478 228 542 200 635 206 542 208 474 208 137 210 51 216 -12 72 -12 Q 81 42 80 137 L 80 652 Q 81 746 72 804 L 261 804 Q 272 748 299 682 L 507 173 714 682 Q 742 751 751 804 L 940 804 934 735 932 652 932 137 934 49 940 -12 796 -12 802 52 804 137 804 478 813 635 Q 790 546 765 485 L 611 124 583 49 566 -12" horiz-adv-x="940"></glyph><glyph unicode="N" d="M 768 -12 L 608 -12 542 97 275 496 205 619 206 602 209 567 211 524 212 478 212 142 Q 213 41 221 -12 L 72 -12 Q 80 38 80 143 L 80 672 Q 81 746 72 804 L 231 804 Q 243 769 294 695 L 555 305 635 173 630 244 628 318 628 662 Q 629 749 620 804 L 768 804 Q 760 749 760 662 L 760 120 Q 760 38 768 -12" horiz-adv-x="768"></glyph><glyph unicode="O" d="M 427 820 Q 595 821 697 718 811 602 812 398 810 201 708 87 605 -26 428 -28 252 -26 149 87 46 200 44 398 46 602 162 718 267 821 427 820 M 430 92 Q 542 93 605 174 667 255 669 398 667 556 587 637 523 699 429 700 317 698 253 618 189 538 188 397 190 239 271 154 336 92 430 92" horiz-adv-x="812"></glyph><glyph unicode="P" d="M 224 -12 L 72 -12 Q 81 43 80 120 L 80 676 Q 81 744 72 808 L 134 805 203 803 417 803 Q 563 804 636 730 700 666 700 554 699 439 630 367 556 291 411 292 L 216 292 216 121 Q 216 42 224 -12 M 216 411 L 411 411 Q 555 414 557 550 557 612 523 648 490 685 411 684 L 216 684 216 411" horiz-adv-x="700"></glyph><glyph unicode="R" d="M 763 -12 L 593 -12 Q 590 23 539 150 500 253 463 292 426 330 369 328 L 216 328 216 121 218 46 224 -12 72 -12 78 47 80 120 80 674 78 743 72 808 133 805 203 803 449 803 Q 690 798 696 588 696 490 643 436 622 414 597 401 571 388 528 377 573 368 608 315 642 262 715 89 L 737 42 763 -12 M 216 447 L 422 447 Q 482 448 520 484 552 516 553 573 553 684 426 684 L 216 684 216 447" horiz-adv-x="763"></glyph><glyph unicode="S" d="M 46 226 L 195 241 Q 199 180 224 152 270 93 371 92 528 95 533 214 531 279 482 307 464 318 435 326 L 307 357 Q 201 380 153 419 73 481 73 584 74 692 153 755 231 818 363 819 538 818 617 715 653 670 668 596 L 520 579 Q 513 626 489 651 448 699 363 700 224 694 216 589 215 526 284 497 L 322 484 427 460 Q 542 435 593 398 681 336 680 223 679 114 614 50 532 -28 370 -28 239 -26 157 25 95 67 65 142 53 170 46 226" horiz-adv-x="680"></glyph><glyph unicode="T" d="M 432 680 L 432 121 Q 432 44 440 -12 L 284 -12 Q 293 45 292 121 L 292 680 154 680 14 675 14 812 153 804 560 804 649 806 711 812 711 673 649 678 560 680 432 680" horiz-adv-x="711"></glyph><glyph unicode="U" d="M 624 804 L 776 804 Q 768 754 768 665 L 768 301 Q 761 -22 420 -28 246 -26 157 67 79 150 80 302 L 80 664 Q 81 754 72 804 L 224 804 Q 216 757 216 664 L 216 302 Q 218 94 425 92 631 93 632 304 L 632 664 Q 633 754 624 804" horiz-adv-x="776"></glyph><glyph unicode="V" d="M 491 -12 L 315 -12 282 90 63 682 12 804 180 804 Q 189 752 208 696 L 378 190 390 155 403 112 426 190 596 696 614 756 624 804 793 804 771 759 742 682 522 90 Q 497 22 491 -12" horiz-adv-x="793"></glyph><glyph unicode="W" d="M 843 -12 L 706 -12 681 91 572 473 Q 555 529 542 604 L 511 473 403 91 Q 384 23 379 -12 L 243 -12 236 20 215 93 52 682 12 804 175 804 Q 178 756 194 693 L 289 302 302 244 314 183 330 256 342 303 456 699 Q 474 763 478 804 L 604 804 Q 610 763 628 701 L 743 307 754 263 771 183 777 208 783 242 790 277 796 308 891 694 Q 907 757 909 804 L 1072 804 1053 752 1032 682 869 94 854 38 847 10 843 -12" horiz-adv-x="1072"></glyph><glyph unicode="a" d="M 452 -12 L 452 54 Q 399 0 344 -12 L 249 -24 Q 55 -18 48 149 53 262 164 314 212 334 278 343 L 452 354 452 406 Q 452 495 335 496 268 495 228 466 203 451 187 401 L 56 425 Q 73 468 91 493 109 518 137 539 207 593 333 592 474 594 535 530 586 486 584 389 L 584 115 586 48 592 -12 452 -12 M 452 216 L 452 267 Q 307 265 243 237 179 209 180 150 184 74 273 72 359 73 416 126 452 163 452 216" horiz-adv-x="592"></glyph><glyph unicode="b" d="M 199 -12 L 61 -12 67 52 68 130 68 665 Q 69 737 61 804 L 207 804 202 741 200 664 200 561 198 484 Q 273 590 411 588 541 586 612 508 683 430 684 288 684 139 601 51 529 -24 404 -24 268 -26 198 75 L 199 38 199 -12 M 552 288 Q 551 376 509 428 467 479 395 480 307 479 255 424 206 369 204 284 207 181 272 125 320 89 381 87 460 88 506 142 551 196 552 288" horiz-adv-x="684"></glyph><glyph unicode="c" d="M 597 406 L 472 377 Q 458 419 441 438 403 484 335 484 178 477 172 282 178 87 339 80 417 81 457 136 469 153 477 186 L 604 161 Q 586 106 561 75 485 -27 336 -28 199 -26 121 56 42 138 40 279 42 424 127 512 204 591 332 591 485 590 561 479 579 455 597 406" horiz-adv-x="604"></glyph><glyph unicode="d" d="M 521 -12 L 521 42 522 79 Q 484 23 437 -1 389 -25 316 -24 211 -24 146 26 42 111 40 282 42 424 115 505 188 586 315 588 410 588 470 540 493 524 522 484 L 522 497 521 517 520 561 520 664 519 741 513 804 659 804 Q 652 737 652 665 L 652 126 654 51 659 -12 521 -12 M 172 281 L 172 286 Q 179 95 340 87 426 91 476 150 516 204 516 287 514 368 467 423 414 477 335 480 259 479 216 426 173 373 172 281" horiz-adv-x="659"></glyph><glyph unicode="e" d="M 615 248 L 169 248 Q 174 172 207 136 254 81 335 80 412 81 458 130 474 146 488 182 L 608 144 578 89 546 51 Q 465 -28 335 -28 198 -26 119 56 41 138 39 281 41 422 118 506 195 589 328 591 515 586 583 430 L 604 363 613 277 615 248 M 172 351 L 482 351 Q 473 412 436 445 397 484 326 484 201 479 172 351" horiz-adv-x="615"></glyph><glyph unicode="f" d="M 148 468 L 107 468 10 462 10 582 106 576 148 576 148 630 Q 146 817 352 815 415 817 479 795 L 451 688 Q 409 713 360 712 276 717 280 617 L 280 576 328 576 444 582 444 462 330 468 280 468 280 121 282 49 287 -12 141 -12 147 52 148 121 148 468" horiz-adv-x="479"></glyph><glyph unicode="g" d="M 52 -105 Q 103 -70 153 -34 207 -115 312 -113 434 -111 481 -35 506 4 507 101 435 6 306 8 182 9 112 85 42 161 40 293 42 427 114 505 186 582 312 584 446 585 508 495 L 506 529 506 576 643 576 638 516 636 448 636 105 Q 638 -75 550 -146 470 -211 308 -212 219 -213 161 -188 102 -164 52 -105 M 172 290 Q 173 198 220 150 264 106 329 104 421 108 471 184 501 231 500 300 500 399 439 451 395 487 339 488 178 480 172 290" horiz-adv-x="643"></glyph><glyph unicode="h" d="M 65 804 L 211 804 Q 204 751 204 669 L 204 522 202 478 Q 248 538 296 563 344 588 412 588 612 583 616 379 L 616 121 Q 616 41 624 -12 L 477 -12 Q 484 50 484 121 L 484 349 Q 484 419 455 450 427 479 385 480 272 481 204 328 L 204 121 Q 204 50 212 -12 L 64 -12 70 49 72 121 72 670 71 745 65 804" horiz-adv-x="624"></glyph><glyph unicode="i" d="M 64 804 L 216 804 216 672 64 672 64 804 M 64 576 L 211 576 206 518 204 442 204 122 Q 203 45 215 -12 L 64 -12 Q 73 50 72 121 L 72 443 Q 73 520 64 576" horiz-adv-x="216"></glyph><glyph unicode="j" d="M 96 576 L 247 576 242 515 240 443 240 -40 Q 241 -129 182 -173 129 -211 41 -212 -33 -212 -86 -181 -118 -164 -147 -125 L -30 -57 Q -4 -109 45 -108 109 -109 108 -38 L 108 443 Q 110 525 96 576 M 96 804 L 248 804 248 672 96 672 96 804" horiz-adv-x="248"></glyph><glyph unicode="k" d="M 65 804 L 211 804 Q 204 752 204 669 L 204 332 358 485 Q 421 545 439 576 L 630 576 574 525 528 482 382 343 555 107 619 20 649 -12 466 -12 444 34 399 104 288 265 204 185 204 119 205 43 211 -12 65 -12 Q 73 44 72 121 L 72 669 71 745 65 804" horiz-adv-x="649"></glyph><glyph unicode="l" d="M 65 804 L 211 804 206 745 204 669 204 121 Q 204 47 211 -12 L 65 -12 71 49 72 121 72 670 71 746 65 804" horiz-adv-x="211"></glyph><glyph unicode="m" d="M 207 -12 L 61 -12 Q 69 46 68 121 L 68 443 67 519 61 576 200 576 200 521 199 482 Q 222 531 273 559 324 587 389 587 473 587 521 541 545 522 560 479 605 542 647 561 695 588 763 588 864 587 917 529 966 477 964 373 L 964 120 Q 964 43 972 -12 L 824 -12 830 47 832 120 832 349 Q 834 482 731 480 681 481 646 448 595 409 580 321 L 580 120 Q 580 43 588 -12 L 440 -12 446 48 448 120 448 348 Q 449 476 349 476 285 476 244 423 214 387 200 321 L 200 120 202 51 207 -12" horiz-adv-x="972"></glyph><glyph unicode="n" d="M 212 -12 L 64 -12 70 49 72 121 72 443 Q 73 520 64 576 L 204 576 204 522 204 503 202 477 Q 247 537 295 563 342 588 409 587 527 587 582 510 617 464 616 366 L 616 121 Q 616 40 624 -12 L 477 -12 Q 484 50 484 121 L 484 348 Q 485 411 467 438 441 479 382 480 272 480 204 328 L 204 121 Q 204 50 212 -12" horiz-adv-x="624"></glyph><glyph unicode="o" d="M 346 -28 Q 204 -26 123 57 42 140 40 283 42 424 123 507 204 590 345 592 486 590 566 508 647 425 648 285 646 144 566 59 485 -26 346 -28 M 345 484 Q 178 477 172 283 178 91 344 83 510 90 516 281 512 479 345 484" horiz-adv-x="648"></glyph><glyph unicode="p" d="M 199 576 L 199 522 198 485 Q 276 591 409 587 533 586 604 518 685 437 684 282 683 140 611 60 539 -19 407 -20 271 -21 198 78 L 198 65 199 46 200 1 200 -76 202 -151 207 -213 61 -213 Q 69 -148 68 -77 L 68 438 67 513 61 576 199 576 M 552 284 L 552 281 Q 546 469 384 476 306 474 256 421 206 368 204 286 206 197 256 143 306 89 388 88 546 95 552 284" horiz-adv-x="684"></glyph><glyph unicode="r" d="M 492 576 L 456 447 Q 398 465 365 464 289 464 246 413 211 376 204 310 L 204 121 206 52 211 -12 65 -12 71 53 72 121 72 443 71 517 65 576 204 576 204 480 Q 259 588 397 588 L 492 576" horiz-adv-x="492"></glyph><glyph unicode="s" d="M 38 155 L 180 172 Q 201 72 314 76 432 79 436 153 435 185 410 204 398 213 380 218 L 303 236 212 258 156 280 Q 66 324 64 415 65 470 97 510 162 591 302 591 429 591 494 531 530 498 549 429 L 414 412 Q 399 494 302 492 202 489 196 421 197 391 228 373 243 365 265 359 L 329 343 445 313 Q 485 299 509 281 569 238 568 155 566 88 518 39 447 -28 307 -28 147 -27 78 64 53 94 38 155" horiz-adv-x="568"></glyph><glyph unicode="t" d="M 133 733 L 279 733 Q 273 678 272 607 L 272 575 315 575 373 577 419 582 419 458 373 463 318 464 272 464 272 151 Q 269 80 340 84 373 82 415 106 L 433 -3 372 -19 305 -24 Q 134 -30 140 125 L 140 464 101 464 54 463 10 458 10 582 51 577 102 575 140 575 140 607 Q 140 675 133 733" horiz-adv-x="433"></glyph><glyph unicode="u" d="M 476 576 L 624 576 618 514 616 443 616 121 Q 616 44 624 -12 L 484 -12 484 42 484 60 485 86 Q 445 26 396 1 348 -25 277 -24 202 -25 154 6 71 58 72 183 L 72 442 Q 72 523 64 576 L 211 576 Q 203 514 204 442 L 204 215 Q 204 126 251 98 276 85 307 84 416 83 484 235 L 484 442 Q 484 514 476 576" horiz-adv-x="624"></glyph><glyph unicode="v" d="M 391 -12 L 245 -12 235 25 214 79 58 468 9 576 166 576 Q 171 540 192 480 L 296 183 318 115 340 183 445 480 462 535 470 576 626 576 580 468 422 79 402 25 391 -12" horiz-adv-x="626"></glyph><glyph unicode="w" d="M 679 -12 L 560 -12 535 85 456 327 436 395 425 357 416 325 337 85 311 -12 192 -12 182 28 165 85 52 449 9 576 161 576 169 519 Q 175 485 184 454 L 240 254 258 172 269 213 282 255 356 478 371 531 381 576 491 576 Q 493 560 501 531 L 516 478 592 246 606 196 613 172 618 195 624 225 630 249 687 454 Q 706 523 710 576 L 860 576 844 531 818 449 705 85 688 29 679 -12" horiz-adv-x="860"></glyph><glyph unicode="x" d="M 618 -12 L 453 -12 405 72 316 203 223 66 179 -12 15 -12 86 80 240 295 101 490 81 516 35 576 195 576 Q 212 535 238 498 L 317 383 394 498 Q 422 540 437 576 L 596 576 531 488 392 295 542 86 575 42 618 -12" horiz-adv-x="618"></glyph><glyph unicode="y" d="M 259 29 L 68 449 26 542 9 576 165 576 Q 175 525 204 456 L 329 166 443 455 469 527 482 576 634 576 579 449 345 -98 Q 298 -214 157 -212 L 49 -200 73 -83 Q 113 -101 145 -100 201 -99 225 -49 L 259 29" horiz-adv-x="634"></glyph><glyph unicode="z" d="M 526 111 L 526 -20 466 -15 390 -12 155 -12 76 -13 29 -15 29 93 Q 74 137 107 180 L 304 429 333 461 324 461 287 460 183 460 49 456 49 584 183 575 381 575 460 576 505 578 505 476 427 388 234 144 221 130 199 103 260 104 391 104 526 111" horiz-adv-x="526"></glyph><glyph unicode="|" d="M 153 804 L 280 804 280 -211 153 -211 153 804" horiz-adv-x="280"></glyph><glyph unicode="　" d="" horiz-adv-x="153"></glyph><glyph unicode="、" d="M 36 153 L 123 234 244 131 354 9 258 -80 153 48 Q 101 102 36 153" horiz-adv-x="354"></glyph><glyph unicode="。" d="M 214 268 Q 289 266 338 217 386 168 388 94 386 20 337 -29 288 -78 214 -80 140 -78 91 -29 42 20 40 94 42 168 91 217 140 266 214 268 M 214 188 Q 174 187 148 160 121 134 120 94 121 54 148 27 174 1 214 0 254 1 281 27 307 54 308 94 307 134 281 160 254 187 214 188" horiz-adv-x="388"></glyph><glyph unicode="？" d="M 563 205 L 423 205 426 247 425 267 Q 424 346 468 400 L 500 431 566 476 Q 657 535 652 599 648 696 514 700 429 698 389 642 369 616 364 564 L 212 582 Q 224 637 243 672 261 707 293 738 373 811 522 812 649 812 726 748 800 690 800 604 801 531 764 483 L 722 439 Q 697 418 637 378 592 347 576 322 559 296 560 257 L 563 205 M 416 120 L 568 120 568 -20 416 -20 416 120" horiz-adv-x="800"></glyph><glyph unicode="！" d="M 574 204 L 454 204 456 248 455 265 450 320 435 669 426 794 597 794 592 737 588 669 574 320 573 267 572 247 574 204 M 588 -20 L 436 -20 436 120 588 120 588 -20" horiz-adv-x="597"></glyph><glyph unicode="々" d="M 733 552 L 424 552 Q 365 447 307 372 250 298 162 211 L 111 253 59 287 Q 153 372 209 441 266 511 315 601 397 750 404 836 L 536 801 523 774 501 717 494 699 475 656 696 656 814 661 882 583 871 560 866 550 853 524 Q 814 444 758 352 L 702 265 638 180 710 111 774 41 686 -44 608 44 530 119 440 196 334 273 419 352 487 305 551 256 Q 609 326 650 391 690 456 733 552" horiz-adv-x="882"></glyph><glyph unicode="ー" d="M 73 319 L 73 463 135 457 239 456 785 456 889 457 951 463 951 319 895 323 784 324 240 324 129 323 73 319" horiz-adv-x="951"></glyph><glyph unicode="～" d="M 123 310 L 42 386 90 438 144 478 Q 230 534 312 532 380 533 444 501 L 475 483 537 443 Q 649 370 718 372 754 373 794 391 853 418 900 485 L 982 402 931 342 885 303 Q 807 244 708 244 660 244 618 258 590 267 563 282 535 297 477 335 412 376 376 391 339 405 301 404 253 404 211 383 170 362 123 310" horiz-adv-x="982"></glyph><glyph unicode="”" d="M 420 803 L 420 652 Q 421 588 398 555 375 521 314 499 L 277 553 Q 323 564 339 585 355 606 355 652 L 268 652 268 803 420 803 M 212 803 L 212 652 Q 213 588 190 555 167 521 106 499 L 69 553 Q 115 564 131 585 147 606 147 652 L 60 652 60 803 212 803" horiz-adv-x="420"></glyph><glyph unicode="（" d="M 997 -91 L 853 -91 786 12 Q 761 56 740 110 684 249 684 393 683 533 738 666 L 784 765 Q 809 809 852 868 L 996 868 914 758 Q 886 713 865 664 812 541 812 393 812 239 867 112 887 64 915 19 L 997 -91" horiz-adv-x="997"></glyph><glyph unicode="）" d="M 172 -91 L 28 -91 109 19 Q 138 64 158 112 213 238 212 393 213 542 160 664 139 713 110 758 L 29 868 173 868 240 765 287 666 Q 341 533 340 393 341 248 286 110 264 56 239 12 L 172 -91" horiz-adv-x="340"></glyph><glyph unicode="＆" d="M 962 -19 L 759 -19 705 48 689 65 624 19 Q 597 2 567 -9 499 -36 417 -36 277 -36 203 36 142 99 140 195 139 286 211 356 L 263 399 Q 291 417 342 441 L 310 473 Q 238 547 240 623 242 712 307 763 372 815 484 816 591 815 655 765 719 715 720 631 721 535 637 476 L 597 452 Q 573 439 526 417 L 710 234 Q 748 283 770 329 793 374 809 440 L 915 389 Q 881 302 853 254 826 206 784 158 L 858 83 905 36 962 -19 M 419 528 L 453 493 519 522 Q 537 531 548 539 593 570 592 619 588 705 485 708 380 704 376 617 374 572 419 528 M 616 147 L 411 361 Q 374 343 354 330 L 318 302 Q 277 263 276 206 283 81 428 76 530 75 616 147" horiz-adv-x="962"></glyph><glyph unicode="※" d="M 512 424 L 877 788 910 754 545 387 910 22 877 -12 512 350 150 -12 116 22 478 387 116 754 150 788 512 424 M 513 764 Q 585 757 592 684 585 610 513 604 440 611 432 684 440 757 513 764 M 221 468 Q 293 461 300 388 293 314 221 308 148 315 140 388 147 461 221 468 M 806 467 Q 878 460 884 387 878 315 806 308 735 315 728 387 735 460 806 467 M 512 170 Q 584 163 591 91 584 19 512 12 479 13 456 36 432 59 431 91 433 121 455 145 477 168 504 170 L 508 169 Q 509 167 510 168 L 512 170" horiz-adv-x="910"></glyph><glyph unicode="→" d="M 698 579 L 721 602 807 526 875 472 985 392 Q 901 334 846 290 L 721 180 698 208 720 232 747 259 773 287 800 315 851 368 65 368 65 416 851 416 791 475 772 496 726 547 698 579" horiz-adv-x="985"></glyph><glyph unicode="あ" d="M 640 604 L 755 571 743 541 733 514 729 501 Q 787 487 835 450 933 376 932 257 931 90 756 0 L 663 -35 548 -54 529 1 494 63 600 73 Q 645 83 689 105 810 160 808 263 805 363 694 403 653 314 612 252 570 189 516 133 377 -15 249 -16 176 -15 133 34 89 83 88 165 90 293 191 392 246 448 331 486 L 335 610 169 614 149 614 126 613 126 727 317 712 340 712 341 735 344 774 346 832 344 848 471 842 461 796 452 716 677 738 Q 778 752 839 770 L 844 653 804 649 613 625 445 613 440 514 508 525 581 528 619 526 Q 636 572 640 604 M 333 368 Q 273 330 250 298 204 238 204 174 207 103 262 100 304 99 351 138 341 187 337 241 L 333 368 M 448 214 L 450 213 461 228 Q 532 306 588 431 L 561 432 Q 497 433 439 413 L 441 318 446 239 447 226 448 214" horiz-adv-x="932"></glyph><glyph unicode="い" d="M 110 754 L 250 754 Q 242 698 242 598 L 247 451 Q 253 374 261 324 291 158 344 152 368 152 386 196 423 278 441 381 L 486 333 543 288 Q 504 139 456 71 408 3 343 4 240 4 178 154 147 228 132 353 117 478 114 688 L 113 726 110 754 M 627 657 L 734 708 Q 831 593 887 459 943 325 965 157 L 838 108 Q 827 259 772 405 720 544 627 657" horiz-adv-x="965"></glyph><glyph unicode="う" d="M 256 717 L 296 838 Q 473 780 723 779 L 752 779 734 653 482 674 Q 367 689 256 717 M 166 373 L 136 511 171 514 255 528 438 556 577 564 Q 700 564 771 521 870 458 872 332 868 151 675 38 615 3 545 -18 474 -39 352 -58 345 -19 334 8 L 299 70 Q 483 80 607 148 730 219 732 328 732 443 571 444 L 357 421 Q 236 400 166 373" horiz-adv-x="872"></glyph><glyph unicode="え" d="M 260 727 L 297 839 Q 469 786 705 781 L 685 667 449 688 Q 361 701 260 727 M 177 451 L 170 574 231 571 402 576 594 593 Q 657 599 676 609 L 745 521 Q 721 507 658 445 L 561 355 483 288 Q 515 301 545 300 602 301 630 257 L 645 223 653 163 Q 656 104 674 85 691 66 741 68 L 847 78 Q 901 89 942 107 L 958 -23 931 -26 868 -36 789 -45 724 -48 Q 620 -50 581 -8 560 11 551 39 542 67 539 126 537 179 529 192 516 212 486 213 451 214 410 189 369 164 308 105 225 22 164 -51 L 70 58 133 107 307 263 347 300 426 376 546 490 476 479 413 472 389 470 309 464 288 462 256 459 215 455 177 451" horiz-adv-x="958"></glyph><glyph unicode="お" d="M 424 310 L 425 111 Q 426 51 417 24 399 -33 323 -36 273 -36 221 -16 169 3 129 37 73 86 72 153 74 227 161 302 213 348 310 390 L 309 551 298 551 268 549 213 548 156 549 130 550 108 549 107 665 232 656 268 657 308 658 308 725 307 794 302 843 430 843 425 797 424 732 424 666 Q 541 680 621 705 L 625 589 590 583 517 571 424 557 424 422 Q 524 453 632 452 762 449 842 380 922 310 924 200 922 99 858 34 794 -30 692 -32 567 -31 525 82 507 126 508 211 L 567 230 621 256 619 211 Q 618 149 633 122 652 89 697 88 794 95 800 200 799 266 751 305 703 343 620 344 530 344 424 310 M 309 127 L 309 276 Q 192 212 188 153 187 128 222 106 255 84 287 84 311 80 309 127 M 969 559 L 875 483 Q 793 610 671 704 L 767 769 Q 894 672 969 559" horiz-adv-x="969"></glyph><glyph unicode="か" d="M 308 842 L 441 827 433 796 426 761 422 732 409 663 402 625 465 628 Q 567 627 619 573 645 545 657 503 669 461 668 392 668 259 647 161 625 63 587 19 549 -31 473 -28 410 -30 315 2 L 317 48 Q 318 82 307 136 396 97 456 96 498 93 518 165 530 207 537 269 544 332 544 398 545 467 522 494 499 521 440 520 L 380 517 346 384 318 295 265 158 195 6 180 -25 172 -43 53 24 Q 103 94 159 217 L 210 345 259 506 160 491 75 474 63 595 165 602 281 615 Q 308 776 308 822 L 308 842 M 677 645 L 783 696 Q 859 607 910 511 961 414 994 297 L 877 238 Q 851 362 795 470 L 741 566 677 645" horiz-adv-x="994"></glyph><glyph unicode="が" d="M 720 582 L 823 633 Q 881 556 921 473 961 391 990 289 L 873 231 840 348 792 461 754 531 720 582 M 669 774 L 749 814 801 753 845 680 766 638 Q 724 716 669 774 M 961 740 L 883 696 Q 844 767 789 828 L 866 868 Q 923 809 961 740 M 304 834 L 437 820 429 789 422 754 418 725 405 655 401 633 398 618 461 620 Q 563 619 615 565 641 537 653 495 665 453 664 384 664 251 643 153 621 55 583 11 545 -39 469 -36 406 -38 311 -5 L 313 41 Q 314 75 303 129 392 90 452 88 494 85 514 157 L 533 261 Q 540 324 540 390 541 459 518 486 495 513 436 512 L 376 509 342 376 314 287 261 150 191 -2 176 -32 168 -50 49 17 Q 99 85 155 210 L 206 337 255 499 156 484 71 466 59 587 161 594 277 608 Q 304 769 304 815 L 304 834" horiz-adv-x="990"></glyph><glyph unicode="き" d="M 140 593 L 135 701 235 697 341 700 447 708 436 735 395 828 523 846 Q 526 815 565 722 L 709 748 841 783 852 675 840 672 817 668 696 641 603 625 622 581 643 541 784 570 844 586 881 600 891 488 827 475 727 452 703 448 689 444 Q 726 382 752 346 778 311 826 255 L 736 190 Q 682 213 628 222 L 500 232 Q 382 231 328 203 285 178 284 141 286 102 328 82 382 60 475 60 L 648 79 Q 738 98 790 126 L 809 -1 786 -5 742 -17 Q 613 -53 480 -52 310 -53 229 -1 151 50 148 140 150 225 236 283 319 335 476 336 570 336 653 314 633 330 574 429 L 418 412 175 401 133 398 129 510 167 506 236 506 386 510 527 525 509 563 487 609 363 599 211 595 167 594 140 593" horiz-adv-x="891"></glyph><glyph unicode="く" d="M 631 850 L 749 760 713 730 623 647 Q 552 581 379 450 336 420 340 407 338 398 353 384 L 432 322 604 189 755 55 785 29 679 -77 Q 645 -28 546 63 L 446 152 280 281 Q 229 319 210 347 191 374 192 408 192 454 227 491 L 249 512 319 565 Q 401 626 454 671 L 556 765 604 815 631 850" horiz-adv-x="785"></glyph><glyph unicode="け" d="M 377 492 L 377 613 560 600 609 601 668 604 661 771 655 830 788 832 786 797 786 778 788 732 792 616 Q 897 632 945 655 L 952 531 929 528 895 521 844 510 795 503 796 453 Q 796 288 774 208 741 84 655 10 614 -27 543 -68 L 498 -16 444 28 Q 545 73 601 140 640 186 656 251 673 316 672 427 L 672 455 671 492 532 488 439 490 409 492 393 492 377 492 M 312 360 L 403 315 Q 352 220 320 132 289 43 286 -14 L 168 -20 161 19 Q 123 185 124 352 124 432 131 510 139 589 162 743 L 168 789 169 819 304 806 288 750 274 681 257 578 247 475 240 359 241 327 242 248 242 230 244 191 Q 273 283 312 360" horiz-adv-x="952"></glyph><glyph unicode="こ" d="M 217 651 L 226 773 Q 284 760 357 754 L 533 748 692 752 803 767 807 652 Q 760 630 686 584 L 534 482 445 553 595 644 442 636 347 639 254 648 217 651 M 292 419 L 381 352 Q 286 274 288 211 282 113 536 116 L 718 128 Q 806 140 858 159 L 869 18 824 14 673 -4 547 -8 Q 376 -8 291 26 160 77 160 197 157 309 292 419" horiz-adv-x="869"></glyph><glyph unicode="さ" d="M 133 528 L 124 651 224 646 368 651 502 663 464 758 435 825 567 842 Q 576 790 623 678 787 707 874 739 L 889 617 855 611 816 602 665 572 736 442 787 361 845 279 726 225 Q 693 257 655 268 586 291 493 292 278 289 272 178 275 78 487 76 570 76 652 94 734 112 796 144 L 812 12 Q 718 -17 640 -31 L 487 -44 Q 286 -43 202 35 141 94 140 173 142 262 215 325 304 401 477 400 577 400 654 369 626 406 609 436 L 544 555 374 539 179 531 152 530 133 528" horiz-adv-x="889"></glyph><glyph unicode="し" d="M 209 818 L 355 816 Q 350 795 348 765 L 342 678 336 481 332 302 Q 332 231 338 194 344 158 359 137 397 85 496 84 667 87 744 259 776 332 791 431 830 398 855 383 879 368 915 352 885 250 857 191 830 131 793 91 679 -40 486 -40 376 -39 306 5 201 70 204 269 L 206 399 213 682 214 748 209 818" horiz-adv-x="915"></glyph><glyph unicode="じ" d="M 205 814 L 351 812 Q 346 791 344 761 L 338 674 332 477 328 298 Q 328 227 334 190 340 154 355 133 393 81 492 80 663 83 740 255 772 328 787 427 L 851 379 Q 875 364 911 348 881 246 853 187 826 127 789 87 675 -44 482 -44 372 -43 302 1 197 66 200 265 L 202 395 209 678 210 744 205 814 M 589 737 L 668 779 720 718 768 639 688 595 Q 652 671 589 737 M 877 705 L 800 659 Q 761 735 705 798 L 780 839 832 778 877 705" horiz-adv-x="911"></glyph><glyph unicode="す" d="M 659 544 L 658 454 659 430 Q 693 365 692 288 690 113 538 8 508 -14 466 -33 425 -52 356 -76 L 322 -8 283 40 Q 345 51 383 65 422 78 456 99 560 160 573 251 526 177 425 176 357 175 307 214 235 268 236 353 238 435 293 487 349 538 439 540 506 539 543 508 L 542 521 541 555 541 608 257 598 118 588 74 583 70 705 121 703 168 703 295 708 368 710 454 712 489 713 539 715 538 803 533 839 663 840 660 800 658 718 859 720 954 725 955 607 783 612 743 612 659 610 659 544 M 540 374 Q 536 441 450 444 410 443 384 420 357 397 356 363 361 289 442 284 534 290 540 374" horiz-adv-x="955"></glyph><glyph unicode="ず" d="M 655 524 L 654 433 655 410 Q 689 345 688 268 686 92 534 -13 L 461 -53 348 -96 314 -29 275 20 Q 337 31 376 45 415 58 450 78 556 140 569 231 522 157 418 156 349 155 299 194 227 248 228 333 230 415 286 467 342 518 432 520 501 519 539 488 L 538 501 537 535 537 588 249 577 110 567 66 562 62 685 113 683 160 683 287 688 361 690 448 692 484 693 535 694 534 783 529 819 659 819 656 780 654 698 855 700 950 704 951 586 779 591 739 591 655 590 655 524 M 448 424 Q 356 417 348 343 353 269 436 264 530 270 536 354 537 383 517 400 489 423 448 424 M 744 856 L 826 873 868 808 897 739 814 719 Q 790 791 744 856 M 1020 770 L 939 745 Q 917 812 871 878 L 949 900 990 837 1020 770" horiz-adv-x="1020"></glyph><glyph unicode="せ" d="M 876 134 L 885 -4 870 -5 839 -9 697 -20 561 -24 Q 419 -25 348 7 276 39 255 112 244 143 240 203 L 236 393 236 419 237 493 106 483 48 474 40 594 69 593 236 602 237 634 236 748 230 808 369 808 363 755 359 608 466 614 543 617 655 623 654 770 649 825 777 825 773 787 772 755 772 690 772 659 772 638 772 627 920 632 971 636 973 514 914 517 848 517 772 516 Q 770 358 745 298 711 220 620 220 551 219 474 255 L 475 297 468 382 Q 553 333 602 332 639 328 646 385 654 428 655 513 L 540 508 463 505 357 499 357 471 357 460 356 412 356 390 358 284 361 202 Q 365 140 411 117 458 94 581 96 778 95 876 134" horiz-adv-x="973"></glyph><glyph unicode="そ" d="M 231 674 L 225 795 270 790 325 789 483 793 631 801 Q 700 806 728 817 L 794 732 769 713 735 682 601 569 453 459 702 483 837 494 910 501 944 505 951 385 920 385 Q 747 385 636 335 504 270 496 179 500 78 702 76 L 799 85 804 -48 767 -47 714 -48 701 -48 602 -40 511 -19 Q 443 4 404 52 365 101 364 163 365 236 420 296 L 466 336 Q 490 353 531 374 L 404 354 291 340 126 317 79 307 66 432 83 431 125 433 171 437 210 442 268 451 Q 340 494 431 567 523 640 584 702 L 475 690 297 680 231 674" horiz-adv-x="951"></glyph><glyph unicode="ぞ" d="M 223 674 L 217 795 262 790 317 789 475 793 623 801 720 817 786 732 761 713 727 682 Q 670 630 593 569 L 445 459 694 483 829 494 902 501 936 505 943 385 912 385 Q 739 385 628 335 496 270 488 179 492 78 694 76 L 791 85 796 -48 759 -47 706 -48 693 -48 594 -40 503 -19 Q 435 4 396 52 357 101 356 163 357 236 412 296 L 458 336 Q 482 353 523 374 L 396 354 283 340 118 317 71 307 58 432 75 431 117 433 163 437 202 442 260 451 Q 332 494 423 567 515 640 576 702 L 467 690 289 680 223 674 M 719 646 L 794 682 Q 847 623 882 548 L 807 510 Q 770 586 719 646 M 994 603 L 918 564 Q 884 634 833 695 L 907 731 Q 961 670 994 603" horiz-adv-x="994"></glyph><glyph unicode="た" d="M 95 561 L 98 680 235 671 282 672 295 758 301 829 300 847 435 835 428 805 416 736 410 705 406 678 Q 512 687 581 709 L 586 591 576 590 553 586 462 572 385 564 359 443 322 299 279 158 207 -40 78 11 Q 133 113 184 266 234 419 261 561 L 248 560 189 560 156 561 115 562 95 561 M 908 539 L 910 417 846 422 781 424 645 417 510 394 501 507 667 534 806 540 843 540 908 539 M 504 324 L 605 283 Q 575 246 564 221 552 196 552 170 552 92 706 92 L 828 103 Q 892 113 938 130 L 948 3 897 -4 793 -17 707 -20 Q 572 -21 501 21 432 65 428 147 428 186 445 227 462 267 504 324" horiz-adv-x="948"></glyph><glyph unicode="だ" d="M 87 557 L 90 676 227 667 274 668 287 754 293 825 292 843 427 831 420 801 408 732 402 701 398 674 Q 504 683 573 705 L 578 587 568 586 545 582 454 568 377 560 351 438 314 294 271 152 199 -47 70 4 Q 125 107 176 261 226 415 253 557 L 240 556 181 556 148 557 107 558 87 557 M 900 535 L 902 413 838 418 773 420 637 413 502 390 493 503 659 530 798 536 835 536 900 535 M 496 319 L 597 278 Q 567 240 556 215 544 190 544 163 544 84 698 84 L 820 95 Q 884 106 930 123 L 940 -4 889 -11 785 -25 699 -28 Q 564 -29 493 13 424 57 420 139 420 180 437 221 454 261 496 319 M 646 785 L 727 818 774 756 815 679 734 642 Q 695 726 646 785 M 929 731 L 850 694 Q 813 774 765 833 L 842 865 Q 896 805 929 731" horiz-adv-x="940"></glyph><glyph unicode="ち" d="M 104 576 L 106 696 Q 173 678 327 679 L 348 777 356 848 493 836 486 815 477 777 460 707 452 681 587 688 713 699 795 711 846 723 852 599 823 597 792 594 600 575 424 567 384 449 344 357 344 355 Q 449 423 602 424 738 423 815 367 891 312 892 214 890 101 790 33 689 -35 519 -36 380 -36 258 1 L 256 70 247 132 Q 384 84 512 84 624 84 690 119 755 154 756 215 753 310 584 312 466 310 364 263 312 239 289 204 L 165 246 214 338 264 464 300 568 145 575 112 576 104 576" horiz-adv-x="892"></glyph><glyph unicode="っ" d="M 172 341 L 147 464 181 469 253 484 432 518 570 528 Q 744 529 813 422 853 364 852 290 851 187 782 109 714 31 590 -8 L 505 -29 368 -47 352 13 324 70 339 70 485 85 Q 543 96 583 112 622 128 656 155 729 209 728 293 726 414 560 416 L 444 407 291 376 220 358 172 341" horiz-adv-x="852"></glyph><glyph unicode="つ" d="M 97 482 L 67 628 114 634 187 649 434 697 595 708 Q 749 706 840 629 930 551 932 419 927 204 702 91 636 58 557 39 478 21 342 6 L 322 72 289 138 487 157 Q 564 171 626 199 744 254 781 350 792 382 792 423 790 511 714 556 666 584 582 584 424 584 179 511 L 126 495 97 482" horiz-adv-x="932"></glyph><glyph unicode="て" d="M 89 578 L 82 711 121 710 155 712 289 721 802 746 886 751 920 756 927 625 906 626 Q 808 625 703 571 605 519 551 448 497 376 496 298 500 174 632 131 L 714 112 785 104 805 105 787 -34 752 -28 614 -2 Q 558 14 513 40 367 123 364 286 366 421 463 528 492 559 524 582 L 606 631 485 616 259 599 89 578" horiz-adv-x="927"></glyph><glyph unicode="で" d="M 81 580 L 74 714 113 713 147 715 281 724 794 749 878 754 912 759 919 628 898 630 Q 800 628 695 574 597 522 543 451 489 379 488 301 492 177 624 134 663 122 706 115 L 777 107 797 108 779 -31 744 -25 606 1 Q 550 17 505 43 359 126 356 290 358 424 455 530 L 516 585 598 634 477 619 251 601 81 580 M 699 525 L 777 564 826 501 868 426 790 385 Q 749 469 699 525 M 981 483 L 904 442 Q 865 521 816 578 L 891 615 940 554 981 483" horiz-adv-x="981"></glyph><glyph unicode="と" d="M 306 822 L 439 843 Q 443 788 462 696 481 605 506 523 L 560 542 629 566 771 613 810 628 854 499 Q 786 485 695 459 L 517 401 Q 292 317 292 206 286 97 527 100 L 711 111 Q 798 122 857 142 L 869 -1 840 -2 786 -8 651 -21 546 -24 Q 340 -25 249 34 163 91 160 206 162 312 251 390 L 311 434 391 478 Q 372 538 356 600 L 322 755 312 801 306 822" horiz-adv-x="869"></glyph><glyph unicode="ど" d="M 298 814 L 431 834 Q 435 779 454 687 473 596 498 514 L 552 534 621 557 763 604 802 619 846 490 687 451 Q 597 425 509 392 284 309 284 198 278 89 519 92 L 703 103 Q 790 113 849 133 L 861 -9 832 -11 778 -16 643 -29 538 -32 Q 332 -33 241 26 155 82 152 198 154 303 243 382 L 303 425 383 469 Q 364 529 348 591 L 314 747 304 793 298 814 M 640 777 L 718 814 768 753 811 676 732 638 Q 691 720 640 777 M 924 735 L 847 694 Q 809 769 757 829 L 832 865 Q 887 808 924 735" horiz-adv-x="924"></glyph><glyph unicode="な" d="M 313 851 L 445 838 439 814 429 769 407 679 Q 512 689 571 708 L 574 588 541 583 378 564 Q 334 412 265 267 L 235 204 193 126 181 103 174 89 56 154 Q 107 219 155 320 L 204 427 252 561 207 560 187 560 146 561 92 562 92 681 230 672 282 673 Q 309 783 313 851 M 971 583 L 915 477 Q 787 563 619 622 L 681 722 837 656 971 583 M 966 120 L 907 4 Q 846 76 750 132 L 752 112 Q 749 49 711 2 653 -55 540 -56 438 -55 378 -9 318 38 316 118 318 197 379 246 439 294 538 296 L 633 286 628 404 Q 628 460 637 507 L 757 501 Q 749 473 747 451 744 428 744 398 743 341 753 257 L 833 218 915 161 951 134 966 120 M 634 176 Q 586 193 544 192 441 189 436 122 439 58 535 56 637 56 636 141 L 635 162 634 176" horiz-adv-x="971"></glyph><glyph unicode="に" d="M 270 -28 L 147 -35 141 13 121 176 Q 115 247 115 322 115 419 125 514 135 610 157 723 L 168 782 172 819 307 804 Q 289 758 272 677 255 596 243 496 L 232 388 Q 228 336 227 271 L 225 214 241 261 279 349 361 312 Q 318 222 294 139 270 57 269 -1 L 270 -28 M 412 587 L 414 712 Q 478 695 605 696 779 696 884 723 L 890 598 817 588 598 576 Q 548 575 519 577 L 412 587 M 484 419 L 585 372 Q 510 287 512 225 514 137 675 136 816 137 919 175 L 929 42 887 36 675 16 Q 486 15 420 107 389 150 388 208 388 306 484 419" horiz-adv-x="929"></glyph><glyph unicode="の" d="M 591 658 Q 562 415 485 240 401 45 278 48 189 50 133 128 78 205 76 331 78 505 190 629 321 772 541 773 728 770 837 669 946 568 948 393 947 259 882 159 816 60 698 11 L 626 -14 537 -32 512 32 475 88 Q 611 104 678 144 745 182 783 249 820 317 820 400 819 550 695 627 653 653 591 658 M 467 657 Q 393 650 335 607 270 559 234 487 197 414 196 330 197 266 220 224 242 181 277 180 327 179 382 311 412 382 434 475 457 568 467 657" horiz-adv-x="948"></glyph><glyph unicode="は" d="M 367 515 L 369 636 Q 436 619 556 620 L 650 622 649 775 646 825 774 828 Q 767 785 767 677 L 767 630 Q 846 639 905 655 L 928 663 936 665 940 547 911 542 768 518 768 496 769 423 778 265 863 221 939 171 Q 956 159 968 153 L 919 29 Q 889 63 842 94 L 777 137 777 122 Q 777 87 769 65 729 -29 575 -32 473 -32 415 13 357 57 356 137 358 213 416 260 475 306 570 308 623 308 661 293 L 657 358 652 510 560 508 433 513 401 514 383 515 373 516 367 515 M 663 187 Q 618 205 579 204 476 201 472 136 476 75 566 72 625 72 649 104 663 120 663 159 L 663 187 M 260 -32 L 137 -39 132 1 Q 104 174 104 329 104 465 124 602 L 131 644 151 749 163 825 163 829 301 814 Q 268 740 245 589 221 438 219 298 L 218 264 218 244 218 228 217 206 218 206 230 236 243 271 252 294 262 318 274 349 359 312 Q 313 219 286 134 259 49 258 -4 L 260 -32" horiz-adv-x="968"></glyph><glyph unicode="ば" d="M 355 506 L 357 627 544 612 638 613 637 767 634 817 762 819 Q 755 776 755 669 L 755 621 Q 834 631 893 647 L 916 654 924 657 928 539 899 533 756 510 756 487 757 415 766 257 851 214 927 165 956 146 907 23 Q 877 59 830 89 776 124 765 130 L 765 116 Q 765 83 757 60 717 -33 563 -36 461 -35 403 9 345 53 344 131 346 206 404 252 463 298 558 300 L 649 286 645 350 640 502 548 500 421 504 389 506 371 506 361 507 355 506 M 651 181 Q 606 197 567 196 464 193 460 130 464 70 554 68 613 68 637 98 651 114 651 153 L 651 181 M 248 -37 L 125 -44 120 -4 Q 92 167 92 322 92 457 112 593 L 119 635 139 741 151 817 151 820 289 806 Q 256 731 233 581 209 430 207 290 L 206 256 206 236 206 220 205 199 206 199 218 229 231 263 240 286 250 310 262 341 347 305 Q 301 213 274 128 247 44 246 -9 L 248 -37 M 766 804 L 842 831 880 763 908 689 832 660 Q 808 738 766 804 M 1017 731 L 944 701 Q 918 775 879 840 L 952 867 Q 995 801 1017 731" horiz-adv-x="1017"></glyph><glyph unicode="ぶ" d="M 711 740 L 709 619 Q 670 613 621 583 521 519 520 460 521 440 529 423 535 410 548 395 L 605 333 Q 658 276 676 235 696 189 696 145 694 61 630 5 576 -41 492 -40 385 -41 277 40 L 294 96 306 164 Q 396 82 482 80 556 84 560 150 560 176 544 208 L 523 243 482 293 Q 438 341 421 376 404 411 404 448 405 519 460 583 L 489 611 Q 503 623 533 643 L 521 644 500 647 408 664 Q 361 676 295 701 L 260 713 305 827 Q 347 802 441 777 500 761 571 750 L 690 739 711 740 M 179 409 L 298 372 293 354 285 327 244 191 193 66 154 -2 102 37 45 65 87 135 127 228 Q 164 321 179 409 M 712 382 L 822 429 882 333 924 249 962 159 989 75 868 17 Q 854 98 803 217 754 331 712 382 M 735 636 L 814 673 861 609 901 531 822 493 Q 783 578 735 636 M 1015 590 L 937 551 Q 901 628 852 688 L 928 724 Q 980 665 1015 590" horiz-adv-x="1015"></glyph><glyph unicode="へ" d="M 125 217 L 42 345 Q 72 365 120 418 L 265 596 329 661 Q 371 692 411 692 457 691 503 653 L 572 579 Q 709 416 878 265 L 941 212 989 179 927 34 Q 916 48 897 63 L 801 152 688 262 606 349 499 470 438 536 Q 422 550 410 548 393 555 348 492 L 239 351 147 245 125 217" horiz-adv-x="989"></glyph><glyph unicode="ほ" d="M 964 143 L 919 23 Q 879 70 795 119 L 771 133 772 113 Q 773 76 752 39 730 4 680 -16 630 -36 563 -36 360 -29 352 130 354 204 411 249 468 294 563 296 621 295 654 283 L 652 315 647 427 540 424 496 425 404 428 380 429 364 429 367 542 544 528 645 531 644 578 644 601 645 659 541 656 488 657 403 661 384 662 369 661 373 773 556 760 758 770 Q 857 779 919 796 L 922 685 901 683 857 676 763 665 761 629 760 589 761 571 761 537 857 550 928 567 932 455 897 451 762 433 764 346 769 256 Q 864 215 936 162 953 149 964 143 M 654 178 L 608 189 564 192 Q 474 188 468 128 471 70 562 68 658 67 656 147 L 655 166 654 178 M 252 -37 L 129 -43 128 -18 120 45 Q 102 172 101 324 101 416 112 516 123 616 148 764 L 156 807 158 830 291 817 Q 266 753 245 624 223 496 213 355 L 211 314 210 260 209 225 209 204 211 204 216 216 225 243 239 279 253 312 263 334 267 345 350 306 Q 254 115 251 -16 L 252 -37" horiz-adv-x="964"></glyph><glyph unicode="ぼ" d="M 361 653 L 363 764 544 752 677 756 797 767 776 809 754 846 835 866 874 798 903 724 858 711 859 667 825 664 794 660 755 657 753 622 752 582 757 532 853 545 924 562 928 451 893 445 758 428 760 340 765 249 Q 860 208 932 155 L 960 136 915 16 Q 875 62 791 111 L 767 126 768 105 Q 770 68 744 31 722 -4 672 -24 622 -44 555 -44 352 -37 344 122 346 196 403 241 460 286 555 288 L 646 275 644 308 639 422 532 420 488 421 396 424 372 425 356 424 359 537 536 524 637 526 636 572 636 594 637 650 533 648 480 648 395 652 376 653 361 653 M 650 170 L 603 181 558 184 Q 466 180 460 120 463 62 556 60 654 58 652 140 L 651 158 650 170 M 244 -45 L 121 -50 120 -25 112 37 Q 94 164 93 318 93 411 104 510 115 609 140 756 L 148 799 150 822 283 809 Q 258 745 237 618 215 490 205 349 L 203 308 202 253 201 217 201 196 203 196 208 208 217 235 231 271 245 305 255 327 259 338 342 298 Q 246 107 243 -24 L 244 -45 M 1022 758 L 943 733 Q 917 809 878 873 L 955 894 Q 998 828 1022 758" horiz-adv-x="1022"></glyph><glyph unicode="ま" d="M 922 108 L 853 -12 Q 780 67 663 128 637 143 608 154 L 608 143 Q 609 47 551 4 493 -41 382 -40 150 -36 144 120 145 205 217 252 289 299 420 300 L 488 296 487 319 487 341 486 358 485 394 383 392 298 393 196 399 157 400 159 513 259 501 399 496 483 498 482 601 418 600 299 603 165 610 142 611 126 611 127 725 241 710 404 704 481 706 480 799 476 835 606 835 Q 602 817 601 793 L 599 710 Q 801 721 894 749 L 899 635 872 633 818 625 708 612 598 605 599 568 600 503 657 507 745 516 816 526 872 539 875 424 809 417 671 402 601 398 604 311 605 278 Q 671 258 738 224 804 189 886 131 L 922 108 M 490 187 L 405 196 Q 277 193 272 125 276 66 389 64 455 65 478 96 490 116 490 162 L 490 176 490 187" horiz-adv-x="922"></glyph><glyph unicode="み" d="M 186 677 L 180 797 284 792 388 795 474 801 Q 500 803 515 814 L 596 744 Q 584 728 575 701 L 555 642 521 540 498 469 Q 613 453 724 404 L 732 483 734 593 730 648 859 643 855 615 853 574 847 456 835 357 944 299 972 283 991 274 945 139 883 185 804 234 Q 766 128 692 52 625 -20 538 -65 L 490 -10 445 28 Q 501 55 537 80 L 603 138 Q 667 207 694 289 641 315 589 332 L 464 360 408 202 363 107 Q 306 7 222 8 150 10 104 64 58 119 56 205 59 351 186 430 258 476 379 479 L 412 581 444 693 373 688 266 684 186 677 M 347 371 Q 252 359 211 310 173 267 172 212 177 142 222 136 249 133 281 200 313 267 347 371" horiz-adv-x="991"></glyph><glyph unicode="む" d="M 565 737 L 571 623 541 618 458 606 388 599 387 532 387 492 Q 438 451 436 376 437 325 412 279 L 401 260 377 222 Q 339 164 340 128 335 70 506 72 597 72 675 91 755 108 752 180 753 228 730 297 L 715 344 704 369 773 347 841 336 846 322 851 301 854 288 862 261 Q 876 213 876 159 877 50 796 8 767 -9 730 -19 L 638 -35 491 -44 Q 348 -43 281 -10 211 26 212 102 211 146 243 193 L 241 193 Q 226 184 210 184 146 187 106 243 81 284 80 339 82 416 133 467 184 518 259 520 L 271 520 272 565 272 596 224 596 205 596 126 598 102 599 86 598 87 711 229 700 274 700 275 721 275 759 274 804 270 837 401 836 396 809 392 765 391 753 391 730 390 706 491 719 Q 538 727 565 737 M 267 427 L 263 428 Q 199 420 192 346 195 283 248 280 314 287 320 365 321 424 267 427 M 640 689 L 732 760 Q 868 660 966 530 L 867 450 Q 824 517 763 582 701 646 640 689" horiz-adv-x="966"></glyph><glyph unicode="め" d="M 198 784 L 321 808 Q 322 777 329 730 L 345 643 Q 445 685 541 684 L 569 684 591 783 598 843 726 817 716 788 684 669 Q 767 649 820 607 947 515 948 353 947 239 885 151 822 63 707 13 L 635 -13 541 -36 519 24 478 85 566 98 Q 603 107 644 126 746 171 786 236 820 294 820 362 821 462 746 521 711 550 655 565 624 458 575 358 527 258 470 183 413 108 350 68 305 39 255 40 174 41 126 104 77 168 76 273 79 465 243 588 L 228 653 208 749 198 784 M 273 466 Q 190 380 192 276 196 170 261 164 304 164 357 230 L 305 355 Q 288 405 273 466 M 433 331 L 434 331 440 344 Q 470 395 493 450 517 505 541 581 442 582 367 540 378 489 391 447 L 428 346 433 331" horiz-adv-x="948"></glyph><glyph unicode="も" d="M 104 328 L 115 447 184 426 296 408 305 479 315 551 244 561 168 577 133 584 143 697 Q 215 671 330 660 351 786 351 830 L 350 840 487 828 473 777 454 655 592 661 687 676 683 556 642 552 557 546 499 544 480 544 436 545 425 463 416 401 466 400 Q 581 400 661 420 L 658 300 628 297 475 288 451 288 409 290 404 218 Q 403 146 442 113 485 75 568 76 767 79 772 232 772 321 681 407 L 747 415 Q 773 420 807 433 L 856 367 Q 898 292 900 216 898 103 801 25 714 -44 570 -44 286 -40 280 211 280 248 286 297 L 143 321 104 328" horiz-adv-x="900"></glyph><glyph unicode="ゃ" d="M 228 604 L 342 636 352 596 387 482 457 502 532 519 530 619 527 662 641 662 637 620 635 534 668 535 691 536 Q 775 534 827 486 879 438 880 358 880 266 808 211 743 165 658 164 L 599 169 Q 570 174 524 189 L 519 248 505 307 Q 581 270 648 272 760 274 764 359 762 434 669 436 598 435 506 412 L 479 405 432 391 416 386 424 358 445 285 475 166 508 28 520 -25 532 -57 411 -83 Q 410 -43 378 96 L 344 240 314 356 Q 203 321 168 302 L 132 408 153 413 179 421 236 438 247 441 284 453 255 540 228 604" horiz-adv-x="880"></glyph><glyph unicode="や" d="M 358 613 L 457 641 496 651 545 661 544 684 543 718 542 802 537 841 666 841 Q 663 822 663 796 L 661 677 721 680 Q 830 678 895 622 959 565 960 470 958 363 877 293 805 232 688 232 612 232 529 261 L 525 321 511 387 Q 600 347 675 348 742 349 790 381 831 412 832 467 829 565 696 568 L 580 555 Q 515 542 389 505 L 437 335 472 202 519 9 Q 524 -17 534 -41 L 399 -71 Q 394 -4 359 149 L 274 473 257 466 223 455 153 430 Q 113 414 91 403 L 51 521 90 530 144 548 191 563 243 579 Q 200 726 174 772 L 301 808 Q 304 787 310 768 L 337 687 347 653 358 613" horiz-adv-x="960"></glyph><glyph unicode="ょ" d="M 559 549 L 559 512 559 494 Q 719 498 799 521 L 807 414 788 412 746 408 653 399 562 394 566 289 571 215 Q 641 189 687 165 L 805 90 831 74 763 -29 Q 699 42 596 92 588 96 579 101 L 572 105 572 84 Q 573 37 554 7 509 -64 379 -64 277 -63 223 -18 177 24 176 84 177 156 236 197 295 239 397 240 L 461 232 459 252 453 371 451 460 449 598 448 646 445 674 566 672 Q 558 635 559 549 M 462 136 L 427 142 390 144 Q 297 141 292 87 293 40 376 40 469 37 464 108 L 462 136" horiz-adv-x="831"></glyph><glyph unicode="よ" d="M 437 842 L 572 841 Q 564 793 565 683 L 565 662 566 616 738 626 Q 816 635 866 651 L 876 527 852 525 810 521 569 502 572 397 580 275 Q 662 250 740 204 L 791 174 Q 816 157 872 119 L 903 99 823 -17 Q 801 12 750 53 L 684 98 615 134 582 152 584 120 Q 582 -54 350 -56 192 -56 134 35 110 76 108 124 110 205 180 255 249 306 362 308 L 457 297 456 308 451 411 445 588 442 752 440 806 437 842 M 459 185 L 412 194 364 196 Q 243 192 236 122 236 88 271 71 302 56 346 56 406 56 439 83 460 101 460 138 L 460 168 459 185" horiz-adv-x="903"></glyph><glyph unicode="ら" d="M 292 731 L 352 835 Q 411 804 526 770 641 735 734 721 L 692 603 Q 563 633 470 662 378 692 292 731 M 210 641 L 338 634 Q 327 591 315 525 L 292 381 287 351 289 349 Q 336 394 420 420 504 447 600 448 732 446 809 388 887 330 888 231 885 115 783 35 687 -38 513 -36 L 393 -29 251 1 248 74 236 134 Q 384 83 512 84 622 85 688 124 754 163 756 228 751 332 583 336 439 334 328 262 L 282 219 153 223 156 246 161 284 179 411 204 582 210 641" horiz-adv-x="888"></glyph><glyph unicode="り" d="M 234 846 L 366 839 350 778 329 638 Q 319 573 316 536 L 319 536 325 558 Q 344 619 390 681 473 788 584 788 690 786 759 693 834 595 832 420 829 118 568 -1 487 -37 368 -58 L 341 9 307 63 435 84 Q 486 98 532 121 707 206 704 434 702 660 567 664 510 664 457 609 397 546 363 459 329 372 328 279 L 328 257 203 255 204 268 204 288 202 354 201 414 205 552 Q 209 626 216 682 L 231 811 234 846" horiz-adv-x="832"></glyph><glyph unicode="る" d="M 404 426 L 406 424 Q 472 452 518 462 L 619 472 Q 751 470 829 409 906 347 908 241 907 91 766 12 664 -47 520 -48 389 -48 322 0 262 47 260 119 262 185 310 226 359 267 437 268 546 266 613 182 640 150 659 90 783 133 780 240 779 300 726 336 672 371 579 372 350 370 158 199 L 88 311 Q 137 333 233 407 308 464 393 538 478 612 539 673 L 557 692 556 693 466 685 266 676 217 670 212 793 265 789 334 787 484 791 643 799 Q 689 802 706 813 L 769 723 Q 751 715 716 681 L 631 602 557 537 502 495 445 453 421 437 404 426 M 550 60 Q 522 167 436 168 379 166 376 120 380 57 497 56 L 520 56 550 60" horiz-adv-x="908"></glyph><glyph unicode="れ" d="M 339 481 L 340 481 386 526 465 587 Q 593 686 681 684 817 677 824 548 825 503 799 392 L 765 232 Q 756 184 756 163 757 113 798 112 835 114 870 164 909 221 929 280 945 241 959 216 L 998 158 961 97 926 55 Q 859 -21 775 -20 722 -19 686 7 631 47 632 138 631 177 639 225 L 675 394 Q 697 489 696 522 696 559 654 560 604 559 527 505 407 416 341 339 L 339 236 339 215 340 115 341 -6 345 -57 213 -57 218 -5 220 109 220 207 222 245 220 244 200 218 147 159 100 100 41 222 Q 72 243 107 280 L 194 365 223 396 224 449 226 496 227 521 227 549 119 541 71 534 64 650 106 648 158 650 230 654 231 670 232 693 233 777 233 807 230 834 360 832 356 794 353 755 352 726 349 664 361 668 399 625 370 595 355 576 343 560 341 500 339 481" horiz-adv-x="998"></glyph><glyph unicode="わ" d="M 103 126 L 44 243 100 288 229 406 231 471 234 553 121 544 78 537 71 653 104 651 156 653 237 658 239 693 240 735 241 778 241 789 237 834 369 833 363 800 358 734 357 714 355 686 355 668 Q 364 669 370 673 L 409 631 388 610 350 564 346 494 348 495 373 515 Q 455 575 524 602 594 628 668 628 784 625 868 544 947 461 948 334 948 236 904 160 861 84 783 43 705 4 601 4 525 3 449 27 L 445 94 429 161 Q 517 124 611 124 705 125 762 183 819 240 820 335 813 505 645 512 517 511 347 358 L 346 252 348 60 Q 350 -21 354 -56 L 221 -56 226 -1 227 110 227 201 229 261 227 261 182 213 Q 125 158 103 126" horiz-adv-x="948"></glyph><glyph unicode="を" d="M 115 618 L 117 734 202 724 Q 258 721 354 721 L 383 794 395 848 526 834 517 814 486 741 477 723 491 724 540 727 Q 723 738 810 762 L 817 645 785 643 736 637 592 624 429 617 Q 388 532 336 481 L 337 478 357 494 Q 418 538 499 540 619 538 646 431 L 803 487 855 505 878 517 926 400 813 372 Q 791 366 659 320 L 659 309 660 284 660 268 660 227 659 193 Q 659 163 662 139 L 542 136 547 184 548 255 548 279 Q 479 247 452 226 400 187 400 142 394 65 570 68 760 69 872 111 L 882 -22 835 -26 572 -44 Q 419 -46 347 -1 274 43 272 131 270 190 317 245 351 287 401 320 451 353 534 389 527 445 473 444 385 443 265 339 205 289 176 246 L 83 337 Q 122 367 175 428 L 244 519 298 603 306 617 289 616 226 617 160 618 131 619 115 618" horiz-adv-x="926"></glyph><glyph unicode="ん" d="M 320 379 L 322 377 341 399 Q 397 456 473 460 549 457 588 401 603 379 608 340 614 300 614 215 613 161 618 139 623 116 636 106 653 92 690 92 773 93 818 201 848 276 857 362 L 903 323 Q 924 308 970 286 903 -31 671 -32 551 -31 510 58 493 97 493 171 L 493 181 494 252 Q 494 296 486 312 473 335 440 336 354 333 277 193 252 147 227 78 202 9 191 -41 L 59 2 80 52 115 146 281 607 344 787 358 841 496 806 477 766 446 688 Q 356 457 320 379" horiz-adv-x="970"></glyph><glyph unicode="ァ" d="M 418 455 L 544 455 541 430 538 385 536 348 Q 663 401 723 505 L 726 511 731 519 730 520 702 518 296 516 234 515 188 511 187 627 296 620 731 621 787 623 819 630 877 560 864 541 846 505 Q 798 407 722 339 682 300 615 263 L 577 307 536 343 Q 530 222 490 145 457 75 397 27 336 -22 236 -61 L 205 -5 162 44 Q 327 91 381 196 421 271 420 418 L 418 455" horiz-adv-x="877"></glyph><glyph unicode="ア" d="M 890 785 L 959 706 943 683 918 633 Q 859 513 760 427 704 378 637 342 L 597 392 545 435 Q 595 458 630 479 664 500 695 530 757 587 792 660 L 254 660 173 659 115 654 115 784 174 778 256 776 791 776 853 777 890 785 M 404 576 L 543 576 540 550 539 493 Q 536 364 513 279 489 195 437 130 393 72 330 29 268 -15 173 -54 155 -14 138 9 L 92 63 Q 153 81 194 101 235 120 272 150 349 209 379 291 410 372 409 514 L 408 549 404 576" horiz-adv-x="959"></glyph><glyph unicode="ィ" d="M 729 661 L 834 586 818 574 799 553 708 465 Q 658 420 608 385 L 608 37 Q 608 -29 613 -62 L 479 -61 483 -19 484 37 484 311 Q 417 271 351 242 285 212 194 181 L 167 236 131 287 257 327 Q 312 348 374 380 541 465 667 588 711 631 729 661" horiz-adv-x="834"></glyph><glyph unicode="イ" d="M 782 831 L 900 749 862 713 Q 750 596 620 503 L 620 65 Q 620 -13 625 -48 L 482 -48 487 -5 488 62 488 423 Q 404 372 331 338 258 305 123 257 L 94 318 54 374 Q 353 454 592 640 733 751 782 831" horiz-adv-x="900"></glyph><glyph unicode="ウ" d="M 861 685 L 920 623 911 598 905 565 878 424 Q 864 369 840 317 767 143 588 34 543 7 496 -14 L 383 -58 350 4 300 64 Q 373 81 423 100 473 120 520 149 740 282 766 560 L 264 560 264 428 Q 264 380 267 346 L 127 346 132 432 132 581 128 681 177 677 241 676 444 676 444 764 Q 445 808 439 839 L 581 839 Q 577 810 576 765 L 576 677 761 677 830 678 861 685" horiz-adv-x="920"></glyph><glyph unicode="ェ" d="M 568 420 L 568 92 777 92 832 93 872 98 872 -20 831 -17 777 -16 249 -16 194 -17 153 -20 153 98 194 93 248 92 448 92 448 420 311 420 217 414 217 535 310 528 714 528 808 535 808 416 770 419 715 420 568 420" horiz-adv-x="872"></glyph><glyph unicode="エ" d="M 568 600 L 568 180 816 180 895 181 949 187 949 55 895 59 818 60 203 60 126 59 72 55 72 187 126 181 205 180 436 180 436 600 280 600 203 599 149 595 149 723 204 717 282 716 738 716 816 717 871 723 871 595 818 599 740 600 568 600" horiz-adv-x="949"></glyph><glyph unicode="ォ" d="M 496 412 L 268 412 175 408 175 522 215 517 268 516 565 516 565 578 560 659 680 659 677 629 677 582 678 515 767 515 859 521 859 407 766 411 678 411 683 21 Q 683 -36 689 -66 L 564 -66 569 18 568 274 568 305 569 337 534 280 Q 425 131 202 9 L 169 60 126 106 Q 249 160 346 244 444 329 496 412" horiz-adv-x="859"></glyph><glyph unicode="オ" d="M 589 366 L 589 380 590 413 592 454 Q 562 391 488 310 398 214 286 132 L 224 91 134 38 100 94 49 145 Q 225 223 372 367 454 449 509 536 L 229 536 151 534 103 531 103 659 154 653 232 652 586 652 585 734 584 787 580 828 715 828 711 741 711 735 713 652 816 652 889 653 937 659 937 532 891 535 819 536 714 536 719 61 725 -57 586 -57 592 41 592 60 589 366" horiz-adv-x="937"></glyph><glyph unicode="ガ" d="M 835 650 L 893 598 Q 882 576 882 530 L 872 341 857 188 Q 840 58 801 11 762 -35 672 -32 L 545 -20 539 52 521 112 Q 609 87 657 88 689 86 705 110 721 134 732 199 742 255 748 346 755 437 755 527 L 516 527 Q 506 432 487 365 468 298 434 234 351 71 158 -51 L 115 10 66 58 Q 254 156 332 317 372 395 384 494 L 389 526 219 526 153 525 109 521 108 646 221 639 401 640 404 707 406 768 406 793 403 833 540 830 536 797 535 779 533 753 531 704 529 675 527 640 754 641 802 642 835 650 M 691 797 L 771 832 Q 802 799 821 770 L 864 695 784 658 Q 742 741 691 797 M 982 746 L 903 707 Q 863 786 813 842 L 890 876 Q 945 819 982 746" horiz-adv-x="982"></glyph><glyph unicode="キ" d="M 399 635 L 383 722 372 778 359 818 494 839 Q 495 801 506 743 L 522 654 739 688 797 699 837 710 858 588 825 584 760 574 544 540 575 372 815 410 922 434 944 311 921 310 897 306 881 304 840 298 596 259 633 60 646 -5 658 -45 520 -70 Q 519 -29 507 38 L 470 239 217 199 161 189 113 177 92 303 201 313 450 353 419 521 229 491 116 468 95 594 208 605 399 635" horiz-adv-x="944"></glyph><glyph unicode="ク" d="M 831 720 L 896 655 884 632 871 594 Q 798 355 661 198 526 42 296 -62 L 259 -3 209 46 Q 284 76 335 104 387 131 433 167 650 327 732 599 L 424 594 Q 330 444 185 332 L 143 379 85 420 Q 171 478 234 547 296 617 350 717 397 800 403 852 L 543 824 526 792 512 764 499 737 492 722 483 704 532 706 756 709 799 711 831 720" horiz-adv-x="896"></glyph><glyph unicode="グ" d="M 825 696 L 878 644 865 622 852 582 Q 780 344 642 187 508 31 278 -72 L 240 -14 191 36 Q 266 65 317 93 L 415 155 Q 632 316 714 588 L 406 583 Q 312 433 166 320 L 125 368 67 408 Q 153 467 215 536 277 606 332 705 379 789 384 841 L 525 813 516 800 504 776 483 729 464 693 513 695 738 698 789 701 Q 760 766 718 819 L 800 848 845 785 879 716 825 696 M 1004 755 L 922 722 Q 890 792 845 852 L 925 882 Q 974 823 1004 755" horiz-adv-x="1004"></glyph><glyph unicode="ケ" d="M 821 539 L 696 539 693 513 Q 684 384 653 294 621 204 561 134 514 77 451 33 389 -11 295 -53 L 260 7 210 59 Q 335 101 418 177 487 238 522 324 557 410 564 539 L 319 539 239 425 Q 202 380 149 332 L 100 378 44 412 Q 182 523 260 694 L 294 774 312 840 445 809 434 785 406 721 375 654 411 655 527 655 823 655 899 656 952 661 952 535 924 538 889 538 821 539" horiz-adv-x="952"></glyph><glyph unicode="コ" d="M 735 48 L 268 48 190 48 142 44 142 176 194 171 270 169 736 169 736 616 288 616 209 615 157 611 157 747 209 741 289 740 782 740 833 740 871 742 869 706 868 655 868 91 Q 868 20 873 -14 L 735 -14 735 48" horiz-adv-x="873"></glyph><glyph unicode="サ" d="M 380 632 L 646 632 648 678 648 711 646 784 642 824 774 824 771 796 770 756 770 693 769 632 835 632 914 633 968 639 968 511 914 515 837 516 768 516 766 400 761 347 Q 751 250 715 179 680 109 614 53 574 18 528 -6 483 -30 414 -55 401 -23 385 -1 L 336 54 Q 408 75 453 98 497 120 533 151 584 195 610 253 635 310 641 397 L 643 439 645 516 380 516 380 362 381 313 384 276 248 276 252 364 252 516 190 516 112 515 59 511 59 639 113 633 192 632 252 632 252 734 Q 253 792 247 825 L 384 825 381 788 380 737 380 632" horiz-adv-x="968"></glyph><glyph unicode="ザ" d="M 767 796 L 841 822 879 755 908 680 832 651 Q 807 730 767 796 M 1016 723 L 943 692 Q 917 767 879 832 L 951 858 Q 994 792 1016 723 M 368 624 L 634 624 636 670 636 703 634 776 630 817 762 817 759 789 758 748 758 685 757 624 823 624 902 625 956 631 956 503 902 507 825 508 756 508 754 393 749 340 Q 739 243 703 172 668 102 602 46 562 11 516 -13 471 -37 402 -62 389 -30 373 -8 L 324 47 Q 396 68 441 91 485 113 521 144 572 188 598 246 623 303 629 390 L 631 431 633 508 368 508 368 355 369 306 372 269 236 269 240 357 240 508 178 508 100 507 47 503 47 631 101 625 180 624 240 624 240 726 Q 241 784 235 817 L 372 817 369 780 368 730 368 624" horiz-adv-x="1016"></glyph><glyph unicode="シ" d="M 196 709 L 262 813 Q 413 755 535 681 L 469 568 Q 329 663 196 709 M 115 461 L 184 565 Q 262 534 326 501 391 468 456 426 L 392 310 Q 271 400 115 461 M 173 -33 L 137 106 275 125 Q 352 142 433 173 528 209 598 263 669 317 729 398 770 452 798 505 825 557 848 624 L 899 575 955 533 Q 920 449 884 389 848 329 801 274 705 163 569 92 433 20 245 -17 L 173 -33" horiz-adv-x="955"></glyph><glyph unicode="ジ" d="M 177 700 L 244 805 Q 395 747 516 673 L 451 560 Q 311 654 177 700 M 97 451 L 165 557 308 493 437 418 374 302 Q 252 392 97 451 M 155 -42 L 119 98 Q 179 98 256 116 334 134 415 165 509 201 580 254 651 308 711 389 752 444 779 496 807 549 830 616 L 880 567 Q 901 549 936 525 902 441 866 381 829 320 783 266 686 154 550 83 414 11 227 -25 178 -34 155 -42 M 713 760 L 790 801 841 741 886 666 809 622 Q 766 704 713 760 M 995 731 L 920 687 Q 879 763 827 819 L 899 859 Q 955 803 995 731" horiz-adv-x="995"></glyph><glyph unicode="ス" d="M 956 72 L 857 -34 710 125 Q 628 205 543 270 457 174 363 103 269 31 153 -26 L 116 34 70 88 Q 127 110 173 135 219 161 275 200 513 370 619 617 L 630 644 607 643 519 641 291 638 179 630 175 761 265 754 290 754 650 760 708 762 742 771 809 701 Q 791 681 776 646 708 485 617 363 708 304 806 215 L 844 180 956 72" horiz-adv-x="956"></glyph><glyph unicode="ズ" d="M 745 806 L 820 842 870 776 910 703 834 664 Q 795 749 745 806 M 1019 761 L 943 722 Q 906 798 856 858 L 931 893 979 831 1019 761 M 937 53 L 839 -53 Q 774 26 692 105 609 185 525 250 439 154 345 83 251 11 134 -46 L 98 15 51 68 Q 109 90 155 115 200 140 256 180 494 351 600 597 L 612 624 588 623 500 622 273 618 161 610 157 740 247 734 272 734 632 739 690 742 723 751 791 681 Q 773 661 758 626 690 464 598 344 689 283 788 195 L 826 160 937 53" horiz-adv-x="1019"></glyph><glyph unicode="タ" d="M 831 735 L 899 666 885 643 868 598 Q 842 525 805 448 L 736 316 Q 659 190 546 94 432 -1 270 -75 L 229 -14 185 30 294 80 Q 340 103 384 133 L 476 200 Q 514 232 552 275 451 363 342 422 L 420 513 526 449 626 376 Q 696 479 741 617 L 422 614 Q 332 463 183 339 L 139 382 80 421 Q 246 543 337 712 382 796 397 855 L 530 825 517 804 499 768 474 719 495 720 564 721 741 723 Q 797 723 831 735" horiz-adv-x="899"></glyph><glyph unicode="ダ" d="M 842 706 L 885 663 870 640 853 596 Q 827 523 791 445 L 722 314 Q 645 187 531 92 418 -4 255 -78 L 215 -17 170 28 280 77 Q 325 101 370 130 423 164 462 197 L 538 273 Q 437 360 328 419 L 406 510 512 446 612 372 Q 681 477 726 614 L 408 611 Q 316 459 168 336 L 124 380 66 418 Q 232 541 322 710 370 795 382 853 L 515 823 503 802 485 765 460 716 481 717 550 718 726 720 799 727 767 783 734 830 816 859 861 796 895 727 842 706 M 1018 769 L 937 735 Q 906 806 860 866 L 940 896 Q 989 836 1018 769" horiz-adv-x="1018"></glyph><glyph unicode="チ" d="M 778 831 L 860 726 840 721 774 699 697 677 603 657 602 531 600 484 817 484 892 485 942 491 942 367 891 371 819 372 593 372 Q 577 233 525 149 468 57 358 -14 L 317 -39 262 -65 223 -5 173 43 Q 227 62 263 82 299 101 332 129 424 203 450 303 L 461 372 208 372 136 371 85 367 85 491 136 485 210 484 472 484 474 550 474 638 365 625 191 615 176 669 153 725 216 723 440 740 Q 557 756 655 783 698 795 726 806 753 817 778 831" horiz-adv-x="942"></glyph><glyph unicode="ッ" d="M 164 557 L 273 589 325 481 373 346 257 309 218 438 164 557 M 383 600 L 491 631 551 508 Q 572 459 590 395 L 476 359 Q 447 475 383 600 M 735 610 L 860 581 853 561 846 529 Q 802 321 705 188 650 112 577 55 504 -2 392 -59 L 358 -6 311 43 Q 363 63 402 84 L 485 137 Q 574 201 629 286 685 371 717 492 736 565 735 610" horiz-adv-x="860"></glyph><glyph unicode="テ" d="M 813 416 L 594 416 Q 588 244 522 140 483 74 420 26 358 -21 255 -61 L 221 -2 172 51 Q 354 106 415 222 455 294 460 416 L 210 416 133 415 80 411 80 535 134 529 212 528 811 528 889 529 943 535 943 411 891 415 813 416 M 184 667 L 184 795 236 789 316 788 709 788 788 789 841 795 841 667 790 671 711 672 314 672 234 671 184 667" horiz-adv-x="943"></glyph><glyph unicode="デ" d="M 752 730 L 827 759 869 686 898 614 819 582 791 652 752 722 752 667 701 671 622 672 312 672 232 671 181 667 181 795 234 789 314 788 620 788 699 789 752 795 752 730 M 811 416 L 592 416 Q 585 244 520 140 481 74 418 26 356 -21 253 -61 L 218 0 169 52 Q 350 107 412 222 452 293 457 416 L 208 416 131 415 78 411 78 535 132 529 210 528 809 528 887 529 941 535 941 411 889 415 811 416 M 1011 660 L 934 627 905 696 863 770 939 800 983 727 1011 660" horiz-adv-x="1011"></glyph><glyph unicode="ト" d="M 412 -46 L 270 -46 Q 277 -5 276 68 L 276 725 270 829 412 829 409 788 408 722 408 531 Q 623 455 873 315 L 801 194 Q 739 237 652 284 566 331 439 390 L 404 407 407 372 408 338 408 67 409 3 412 -46" horiz-adv-x="873"></glyph><glyph unicode="ド" d="M 610 723 L 687 764 739 701 785 625 709 582 Q 664 665 610 723 M 895 690 L 819 646 Q 777 723 723 782 L 797 822 Q 854 765 895 690 M 396 -46 L 254 -46 Q 261 -5 260 68 L 260 725 254 829 396 829 393 788 392 722 392 531 Q 607 455 857 315 L 785 194 636 284 Q 550 331 423 390 L 388 407 391 372 392 338 392 67 393 3 396 -46" horiz-adv-x="895"></glyph><glyph unicode="ナ" d="M 605 584 L 808 584 887 585 941 591 941 459 887 463 810 464 600 464 Q 594 360 578 296 561 231 527 175 486 106 425 53 364 -1 265 -54 L 222 10 Q 203 33 172 56 353 133 419 258 442 297 453 342 464 388 469 464 L 215 464 138 463 84 459 84 591 139 585 217 584 475 584 476 664 476 724 Q 477 785 471 822 L 613 822 609 785 607 724 606 663 606 602 605 584" horiz-adv-x="941"></glyph><glyph unicode="ニ" d="M 190 571 L 190 707 241 701 311 700 713 700 782 701 834 707 834 571 784 575 714 576 309 576 239 575 190 571 M 86 71 L 86 211 140 205 217 204 805 204 882 205 936 211 936 71 883 75 807 76 215 76 139 75 86 71" horiz-adv-x="936"></glyph><glyph unicode="ノ" d="M 729 808 L 871 760 858 732 835 671 Q 730 397 558 226 486 154 403 96 319 38 204 -20 L 165 46 113 104 Q 292 175 417 284 542 392 627 548 711 703 729 808" horiz-adv-x="871"></glyph><glyph unicode="ハ" d="M 288 767 L 428 741 423 718 415 662 Q 385 456 334 312 300 219 257 143 214 68 153 -4 L 95 47 36 84 Q 123 168 183 302 251 452 279 653 L 288 752 288 767 M 592 742 L 719 767 Q 725 674 762 531 798 392 853 286 908 180 990 89 L 929 46 878 -5 Q 772 121 704 296 670 378 645 474 620 571 606 668 599 723 592 742" horiz-adv-x="990"></glyph><glyph unicode="バ" d="M 284 767 L 424 741 419 718 411 662 Q 381 456 330 312 296 219 253 143 210 68 149 -4 L 91 47 32 84 Q 119 168 178 302 247 452 275 653 L 284 752 284 767 M 588 742 L 715 767 Q 721 674 758 531 794 392 849 286 903 180 986 89 L 925 46 874 -5 Q 768 121 700 296 666 378 641 474 616 571 602 668 L 588 742 M 747 722 L 823 755 864 690 899 611 823 575 Q 795 653 747 722 M 1009 663 L 935 626 901 702 861 768 933 801 974 737 1009 663" horiz-adv-x="1009"></glyph><glyph unicode="パ" d="M 282 767 L 422 741 417 718 409 662 Q 379 454 328 311 294 218 251 142 208 67 147 -6 L 89 45 30 82 Q 117 167 177 300 245 450 273 653 L 282 752 282 767 M 586 742 L 713 767 Q 719 674 756 530 793 391 848 285 903 179 987 87 947 63 924 44 L 873 -7 Q 767 119 698 294 664 376 639 473 614 570 601 669 L 586 742 M 874 796 Q 922 794 955 762 987 730 988 682 987 634 955 601 922 569 874 568 827 569 794 602 762 634 760 682 762 730 794 762 826 794 874 796 M 874 740 Q 822 734 816 682 822 629 874 624 927 629 932 682 928 735 874 740" horiz-adv-x="988"></glyph><glyph unicode="ビ" d="M 312 698 L 312 491 Q 444 519 570 570 696 621 759 673 L 841 557 822 549 769 524 Q 663 470 555 434 446 398 312 372 L 312 240 311 237 311 224 Q 309 141 329 126 355 99 504 100 L 621 104 742 116 802 126 858 141 864 4 834 2 763 -5 618 -16 476 -20 Q 291 -21 238 24 196 55 188 129 L 185 161 185 224 184 699 183 755 179 793 317 793 Q 311 761 312 698 M 726 784 L 802 826 853 765 898 691 821 648 Q 778 730 726 784 M 1008 756 L 932 712 Q 892 787 839 844 L 913 884 Q 968 829 1008 756" horiz-adv-x="1008"></glyph><glyph unicode="フ" d="M 838 758 L 908 691 Q 896 671 890 645 853 500 803 399 753 297 680 216 607 133 516 71 426 9 299 -45 L 261 19 209 77 Q 275 98 327 121 378 145 433 181 671 333 744 628 L 256 628 180 627 127 622 127 755 182 749 258 748 728 748 793 750 838 758" horiz-adv-x="908"></glyph><glyph unicode="ブ" d="M 855 699 L 892 663 Q 880 643 875 617 837 472 787 371 738 269 665 188 591 105 501 43 411 -19 284 -73 L 246 -9 194 49 Q 260 70 311 93 L 418 153 Q 655 305 728 600 L 241 600 164 599 112 594 112 727 166 721 243 720 713 720 803 725 Q 771 784 734 826 L 812 859 862 792 901 720 855 699 M 1018 767 L 940 731 Q 903 808 853 867 L 929 900 977 838 1018 767" horiz-adv-x="1018"></glyph><glyph unicode="プ" d="M 243 744 L 713 744 769 746 Q 772 792 803 823 835 855 882 856 930 854 963 822 995 790 996 744 995 696 963 664 930 632 883 632 L 872 631 Q 820 429 733 300 637 156 478 52 436 24 392 1 L 284 -49 246 15 194 73 Q 260 94 311 117 L 418 177 Q 655 329 728 624 L 241 624 164 623 112 618 112 751 166 745 243 744 M 882 800 Q 829 795 824 744 829 690 882 688 935 694 940 744 936 795 882 800" horiz-adv-x="996"></glyph><glyph unicode="ベ" d="M 126 198 L 39 324 76 354 159 448 259 573 Q 308 639 336 655 369 676 406 676 441 678 472 656 502 635 558 569 713 394 890 241 L 950 191 987 164 923 24 760 175 638 297 490 456 430 519 Q 417 530 407 528 396 529 385 519 L 344 468 161 240 126 198 M 665 648 L 742 690 794 628 841 548 764 504 Q 718 592 665 648 M 949 614 L 875 570 Q 831 652 778 709 L 852 748 904 687 949 614" horiz-adv-x="987"></glyph><glyph unicode="ホ" d="M 444 672 L 444 729 Q 445 799 438 835 L 576 835 573 793 572 726 572 672 807 672 885 673 939 679 939 551 886 555 809 556 572 556 572 59 Q 572 -13 577 -56 L 438 -56 Q 445 -13 444 60 L 444 556 217 556 141 555 88 551 88 679 142 673 219 672 444 672 M 215 482 L 341 450 333 419 Q 280 185 161 21 L 102 60 42 87 Q 91 146 124 208 157 270 185 356 211 430 215 482 M 675 451 L 795 482 808 432 831 367 Q 865 276 898 213 932 150 977 92 L 916 58 859 20 Q 802 110 764 197 726 284 691 403 L 682 432 675 451" horiz-adv-x="977"></glyph><glyph unicode="マ" d="M 204 419 L 304 491 372 433 431 378 482 327 495 314 Q 573 380 629 443 L 699 530 754 610 760 619 762 624 715 622 342 622 227 622 144 621 95 617 95 747 151 741 229 740 798 741 847 743 883 749 955 668 935 646 910 608 Q 766 376 579 220 L 714 49 606 -37 Q 565 31 518 91 L 409 221 305 330 204 419" horiz-adv-x="955"></glyph><glyph unicode="ム" d="M 401 830 L 549 802 537 775 522 728 Q 465 538 417 399 368 260 320 144 L 560 168 746 196 698 290 645 385 600 452 716 497 Q 788 392 852 269 916 147 964 23 L 840 -41 824 6 791 86 776 82 754 78 540 44 174 5 114 -1 81 -7 63 131 89 131 177 134 252 326 326 547 379 722 Q 396 787 401 830" horiz-adv-x="964"></glyph><glyph unicode="メ" d="M 689 820 L 829 772 814 745 793 698 711 518 Q 678 451 648 408 L 761 308 877 191 778 86 Q 704 184 571 302 505 214 411 131 L 301 44 Q 244 5 167 -38 L 129 19 77 68 Q 161 109 222 150 283 191 342 246 414 310 472 385 344 490 201 569 L 291 659 385 602 460 551 528 502 545 490 Q 596 574 637 668 678 761 689 820" horiz-adv-x="877"></glyph><glyph unicode="モ" d="M 396 368 L 209 368 133 367 80 363 80 487 133 481 211 480 396 480 396 656 271 656 192 655 141 651 141 775 194 769 273 768 742 768 822 769 875 775 875 651 825 655 744 656 524 656 524 480 809 480 886 481 940 487 940 363 887 367 811 368 524 368 524 204 Q 524 159 530 141 535 123 552 117 579 103 657 104 L 728 106 810 112 859 118 905 129 908 -1 891 0 874 -1 808 -6 728 -10 645 -12 Q 498 -15 445 23 393 60 396 166 L 396 368" horiz-adv-x="940"></glyph><glyph unicode="ュ" d="M 670 92 L 777 92 832 93 872 98 872 -20 777 -16 246 -16 152 -20 152 98 192 93 246 92 548 92 575 253 597 416 343 416 289 415 252 412 252 530 346 524 605 524 681 533 738 483 725 444 714 365 693 221 670 92" horiz-adv-x="872"></glyph><glyph unicode="ョ" d="M 683 -16 L 291 -16 235 -17 199 -20 199 95 291 88 684 88 684 240 328 240 272 239 236 236 236 351 328 344 684 344 684 484 301 484 246 483 209 480 209 595 301 588 705 588 803 592 Q 800 544 800 483 L 800 14 801 -31 804 -64 683 -64 683 -16" horiz-adv-x="804"></glyph><glyph unicode="ラ" d="M 207 679 L 207 807 255 801 327 800 684 800 756 801 804 807 804 679 758 683 686 684 325 684 253 683 207 679 M 856 561 L 915 494 886 428 Q 807 203 648 81 596 40 535 9 475 -23 380 -58 L 349 2 300 61 Q 393 84 460 116 527 148 585 196 641 242 679 297 717 352 750 436 L 251 436 174 435 120 431 120 559 174 553 253 552 741 552 810 554 856 561" horiz-adv-x="915"></glyph><glyph unicode="リ" d="M 208 808 L 348 807 345 770 344 714 344 432 345 377 Q 345 359 348 342 L 207 342 212 434 212 716 211 771 208 808 M 671 806 L 813 806 809 770 808 710 808 572 Q 808 454 801 381 795 309 782 262 738 110 580 23 541 1 495 -17 L 380 -56 Q 368 -20 353 4 L 308 66 Q 382 80 434 99 485 118 530 148 601 194 632 252 664 310 671 409 L 675 481 676 580 676 708 675 768 671 806" horiz-adv-x="813"></glyph><glyph unicode="ル" d="M 239 801 L 378 793 374 743 368 564 Q 363 417 344 318 324 220 285 143 260 91 227 47 194 3 144 -46 L 95 10 40 53 100 109 146 171 Q 200 255 222 376 244 497 243 707 L 242 765 239 801 M 510 808 L 649 806 644 765 642 708 637 126 Q 690 150 726 177 762 204 794 242 862 321 894 430 919 397 938 378 957 359 990 334 928 184 828 95 786 58 737 30 688 3 610 -28 L 565 -46 500 23 507 68 509 132 514 709 514 740 510 808" horiz-adv-x="990"></glyph><glyph unicode="レ" d="M 205 806 L 350 805 344 701 339 116 Q 501 148 619 229 755 320 828 464 L 875 405 925 359 Q 873 279 819 222 765 166 697 121 622 70 534 37 446 3 324 -20 L 262 -37 197 42 204 83 206 147 210 700 210 767 205 806" horiz-adv-x="925"></glyph><glyph unicode="ロ" d="M 760 56 L 268 56 268 -16 136 -16 140 73 140 661 136 747 223 744 805 744 891 747 Q 888 713 888 662 L 888 75 892 -15 760 -15 760 56 M 760 176 L 760 628 268 628 268 176 760 176" horiz-adv-x="892"></glyph><glyph unicode="ン" d="M 125 657 L 210 759 Q 299 703 358 659 418 615 474 561 L 386 449 Q 266 579 125 657 M 161 -19 L 123 123 Q 191 127 273 147 354 167 426 198 614 278 730 449 L 788 545 835 654 884 600 943 554 Q 879 414 801 318 723 221 619 152 464 49 229 -1 L 188 -10 Q 177 -13 161 -19" horiz-adv-x="943"></glyph><glyph unicode="圧" d="M 532 68 L 532 356 400 356 290 350 290 466 401 460 532 460 532 567 Q 533 626 525 674 L 654 674 Q 647 627 648 567 L 648 460 815 460 930 466 930 350 815 356 648 356 648 68 852 68 974 74 974 -43 854 -36 339 -36 220 -43 220 74 336 68 532 68 M 248 708 L 248 621 Q 249 372 221 213 192 55 126 -61 77 4 34 34 92 130 115 272 137 413 136 681 L 130 817 266 812 836 812 961 818 961 703 836 708 248 708" horiz-adv-x="974"></glyph><glyph unicode="扱" d="M 917 563 L 961 507 956 494 946 466 Q 907 363 871 293 836 223 797 171 847 123 894 91 941 58 1002 29 959 -36 944 -84 880 -46 829 -5 778 36 726 89 L 658 27 586 -29 482 -88 Q 451 -40 406 4 484 38 539 76 594 114 654 176 566 293 529 429 518 289 470 150 429 26 337 -88 L 297 -51 266 -28 Q 255 -59 223 -70 L 116 -80 65 -78 58 -21 41 31 133 24 Q 168 21 164 51 L 164 265 145 259 102 247 55 232 33 347 80 354 164 374 164 568 116 568 41 565 41 674 117 668 164 668 164 756 163 814 158 860 278 860 Q 271 820 272 757 L 272 668 313 668 371 672 371 565 313 568 272 568 272 403 307 414 370 437 373 339 302 311 272 299 272 15 Q 329 81 364 159 399 237 420 340 L 437 459 447 590 449 617 450 724 394 723 357 718 357 830 477 824 763 824 852 828 842 788 831 739 811 643 788 560 852 560 917 563 M 715 724 L 558 724 Q 564 640 576 583 588 526 610 465 651 352 722 257 755 304 776 349 L 819 460 713 460 676 460 648 459 Q 670 522 684 579 L 715 724" horiz-adv-x="1002"></glyph><glyph unicode="以" d="M 769 837 L 898 835 896 809 888 693 Q 884 622 870 545 L 839 407 Q 816 331 774 258 851 123 998 38 956 -11 926 -79 794 15 706 157 587 5 363 -87 331 -24 297 14 431 66 520 132 608 198 663 287 773 466 773 770 L 772 807 769 837 M 150 176 L 145 712 Q 144 786 136 834 L 266 834 Q 262 793 261 734 L 261 711 266 223 Q 338 255 408 292 L 530 362 554 255 Q 464 199 376 154 289 110 152 51 L 111 33 80 18 47 143 94 156 150 176 M 350 712 L 449 775 552 661 652 524 546 451 454 593 Q 417 643 350 712" horiz-adv-x="998"></glyph><glyph unicode="位" d="M 576 688 L 576 775 570 855 694 855 Q 688 827 688 775 L 688 688 844 688 961 694 961 579 843 584 445 584 325 579 325 693 442 688 576 688 M 420 64 L 642 64 Q 688 188 721 316 755 445 766 545 L 891 516 876 460 853 375 Q 819 239 755 64 L 869 64 987 70 987 -47 865 -40 423 -40 302 -47 302 70 420 64 M 140 36 L 140 326 143 441 102 379 64 333 Q 50 395 18 456 126 572 189 737 220 814 229 872 L 347 842 301 715 252 600 252 35 Q 252 -29 259 -84 L 133 -84 139 -28 140 36 M 585 135 L 475 105 Q 453 221 428 314 403 406 367 498 L 473 536 536 345 585 135" horiz-adv-x="987"></glyph><glyph unicode="依" d="M 897 547 L 979 464 Q 889 378 786 308 826 226 876 165 927 104 1007 41 965 -13 938 -71 792 56 713 214 634 372 614 579 L 583 515 532 436 532 78 623 102 735 137 735 28 625 -5 530 -30 369 -68 338 -75 321 -80 303 37 356 42 424 54 424 304 379 261 318 215 Q 285 274 253 312 331 359 400 437 469 516 509 600 L 408 600 303 595 303 709 409 704 564 704 564 783 Q 565 827 559 855 L 685 855 Q 680 824 680 783 L 680 704 861 704 976 710 976 594 861 600 712 600 725 507 748 410 Q 849 479 897 547 M 136 32 L 136 311 137 358 139 423 106 370 70 325 49 391 23 448 Q 122 552 186 723 215 805 225 861 L 340 831 325 785 Q 296 687 244 580 L 244 31 Q 245 -33 249 -87 L 130 -87 135 -30 136 32" horiz-adv-x="1007"></glyph><glyph unicode="意" d="M 450 795 L 450 805 444 869 570 869 Q 564 839 564 805 L 564 795 804 795 914 802 914 700 867 703 803 704 745 704 716 647 856 647 926 648 973 652 973 551 855 556 169 556 100 555 52 551 52 652 174 647 305 647 276 704 219 704 157 703 113 700 113 802 222 795 450 795 M 418 647 L 601 647 631 704 391 704 418 647 M 490 192 L 262 192 160 189 164 267 164 426 160 519 272 516 747 516 816 516 860 519 856 426 856 277 860 189 845 190 825 191 798 191 769 192 538 192 579 162 639 111 554 45 505 99 440 154 490 192 M 272 432 L 272 392 748 392 748 432 272 432 M 272 316 L 272 276 748 276 748 316 272 316 M 128 -74 L 34 -9 Q 79 40 104 79 128 118 147 171 L 247 130 Q 224 71 198 26 L 128 -74 M 396 86 L 396 41 Q 394 25 412 22 L 447 18 500 16 620 20 Q 654 24 660 35 670 51 670 119 L 718 101 775 91 Q 772 -16 745 -39 728 -62 678 -69 L 500 -76 327 -63 Q 285 -48 288 -4 L 288 86 Q 289 134 283 161 L 401 161 Q 396 132 396 86 M 986 3 L 894 -62 Q 858 0 827 41 L 752 131 844 182 922 92 986 3" horiz-adv-x="986"></glyph><glyph unicode="違" d="M 371 676 L 451 676 465 700 476 720 435 720 356 716 356 809 449 804 515 804 528 839 538 871 649 860 625 804 775 804 834 805 880 808 876 710 876 676 900 676 980 681 980 587 886 592 386 592 330 591 288 588 288 648 216 581 130 685 45 768 125 846 217 760 288 680 321 677 371 676 M 565 676 L 768 676 768 720 589 720 578 700 565 676 M 648 376 L 446 376 369 374 372 449 372 486 369 559 447 556 832 556 911 559 909 534 908 487 908 448 911 374 872 376 835 376 756 376 756 340 851 340 908 341 943 344 943 256 853 260 756 260 756 212 879 212 974 217 974 124 878 128 756 128 Q 757 88 763 61 L 642 61 646 92 647 128 399 128 312 124 312 216 383 212 408 212 408 260 368 259 337 257 337 344 422 340 648 340 648 376 M 516 260 L 516 212 648 212 648 260 516 260 M 476 488 L 476 444 800 444 800 488 476 488 M 44 359 L 44 469 125 464 202 464 280 468 Q 277 447 277 424 L 276 358 276 138 Q 298 84 357 61 404 39 572 40 L 809 44 1006 58 Q 989 24 976 -57 L 807 -62 632 -64 Q 414 -65 352 -44 278 -22 223 52 L 163 -2 74 -71 24 45 Q 90 73 168 145 L 168 364 113 364 44 359" horiz-adv-x="1006"></glyph><glyph unicode="一" d="M 972 475 L 972 337 816 344 210 344 53 337 53 475 210 468 816 468 972 475" horiz-adv-x="972"></glyph><glyph unicode="応" d="M 510 660 L 218 660 Q 218 440 210 307 201 174 178 88 155 2 113 -75 71 -21 21 13 48 61 63 101 78 140 87 191 109 310 109 624 L 108 711 105 769 211 764 472 764 472 809 Q 473 840 467 867 L 593 867 Q 588 846 588 808 L 588 764 853 764 974 770 974 655 854 660 514 660 Q 612 606 658 576 L 772 490 693 403 Q 638 459 580 500 523 541 430 590 L 510 660 M 314 -7 L 210 59 245 144 265 227 279 315 288 424 394 397 Q 383 260 366 175 349 90 314 -7 M 442 485 L 565 485 Q 561 451 560 389 L 560 67 Q 559 47 572 41 L 630 36 Q 688 30 701 61 714 91 712 224 771 197 820 188 815 85 806 36 797 -13 780 -32 753 -74 629 -72 523 -73 485 -57 446 -40 448 5 L 448 390 Q 449 453 442 485 M 992 63 L 883 11 Q 863 125 837 206 811 287 765 382 L 862 430 940 243 Q 968 164 992 63" horiz-adv-x="992"></glyph><glyph unicode="下" d="M 424 700 L 189 700 52 694 52 814 189 808 833 808 970 814 970 694 833 700 544 700 544 580 Q 657 532 735 491 L 912 392 853 289 Q 709 389 544 464 L 544 64 546 -16 551 -77 417 -77 Q 425 -27 424 64 L 424 700" horiz-adv-x="970"></glyph><glyph unicode="化" d="M 600 371 L 600 82 Q 599 61 620 54 L 701 48 Q 831 47 843 70 856 86 862 126 L 872 258 Q 930 229 982 218 971 33 935 -9 914 -38 858 -50 L 681 -60 Q 560 -62 520 -39 481 -17 484 53 L 484 728 478 851 606 851 Q 600 806 600 728 L 600 499 Q 690 547 763 605 836 663 880 719 L 969 629 946 611 Q 864 537 783 481 702 425 600 371 M 192 50 L 192 328 193 373 194 443 Q 154 381 89 310 L 66 372 35 431 Q 82 479 114 520 146 561 178 613 264 755 284 867 L 404 832 381 776 353 701 308 598 308 48 Q 308 -19 314 -86 L 185 -86 Q 193 -22 192 50" horiz-adv-x="982"></glyph><glyph unicode="何" d="M 800 704 L 481 704 361 699 361 814 480 808 869 808 984 814 984 700 949 702 908 704 908 43 Q 908 -32 862 -50 825 -65 729 -64 L 684 -63 645 -63 634 2 615 52 743 44 790 49 Q 801 54 800 70 L 800 704 M 268 606 L 268 48 Q 269 -32 273 -85 L 154 -85 160 48 160 334 161 394 163 448 Q 131 392 82 335 57 404 25 449 130 560 191 701 233 801 245 876 L 357 836 313 713 268 606 M 708 519 L 708 275 Q 708 221 711 193 L 630 196 476 196 476 123 367 123 Q 373 160 372 203 L 372 517 368 600 451 596 630 596 711 599 Q 708 571 708 519 M 476 500 L 476 296 605 296 605 500 476 500" horiz-adv-x="984"></glyph><glyph unicode="加" d="M 315 684 L 408 684 523 688 519 639 518 521 Q 515 200 487 68 474 0 445 -27 417 -53 355 -52 L 247 -45 242 13 229 68 329 56 Q 367 51 376 96 394 161 403 338 L 407 435 409 576 311 576 Q 305 474 292 394 280 314 259 238 235 150 198 75 160 0 102 -78 65 -15 18 29 111 137 154 284 173 347 185 416 L 202 576 151 576 48 570 48 690 160 684 206 684 207 718 207 770 201 861 324 861 318 793 318 765 315 684 M 692 20 L 692 -58 578 -58 584 60 584 648 Q 585 713 579 757 L 671 752 867 752 961 757 Q 956 713 956 648 L 956 61 Q 956 -9 962 -53 L 844 -53 844 20 692 20 M 692 648 L 692 124 844 124 844 648 692 648" horiz-adv-x="962"></glyph><glyph unicode="画" d="M 457 728 L 178 728 53 722 53 834 176 828 852 828 978 834 978 722 853 728 564 728 564 640 687 640 772 644 768 566 768 200 772 124 734 127 681 128 349 128 294 127 257 124 260 157 261 200 261 566 257 644 340 640 457 640 457 728 M 457 544 L 360 544 360 436 457 436 457 544 M 564 544 L 564 436 668 436 668 544 564 544 M 457 344 L 360 344 360 220 457 220 457 344 M 564 344 L 564 220 668 220 668 344 564 344 M 835 624 L 954 624 Q 948 566 948 509 L 948 49 Q 948 -27 955 -88 L 837 -88 837 -40 190 -40 190 -88 74 -88 80 48 80 510 74 624 192 624 188 532 188 59 840 59 840 534 Q 841 591 835 624" horiz-adv-x="978"></glyph><glyph unicode="解" d="M 412 800 L 460 746 448 726 429 689 385 616 483 622 481 600 480 569 Q 546 601 578 637 610 667 621 728 L 593 728 503 723 503 830 609 824 862 824 953 828 Q 949 799 944 718 932 590 906 547 894 527 871 519 L 801 512 779 512 725 514 718 569 701 616 781 608 Q 819 606 824 628 833 658 839 728 L 729 728 Q 719 677 706 647 694 616 671 586 629 524 559 485 L 654 465 645 426 641 408 696 408 696 416 690 490 807 490 Q 804 454 804 416 L 804 408 868 408 959 414 959 304 868 308 804 308 804 220 883 220 981 225 981 116 885 120 804 120 804 17 Q 803 -44 810 -83 L 690 -83 696 17 696 120 595 120 504 115 504 225 596 220 696 220 696 308 614 308 601 275 582 234 530 264 491 280 Q 514 316 525 346 537 375 545 414 L 553 452 556 481 555 484 544 477 Q 526 516 480 561 L 480 535 480 20 Q 482 -34 453 -53 424 -73 349 -72 L 286 -71 Q 281 -18 262 31 L 348 24 Q 392 22 388 46 L 388 172 181 172 Q 172 81 160 29 147 -24 119 -80 L 74 -33 34 -1 Q 71 60 84 161 97 262 96 477 L 96 533 Q 79 561 28 602 97 659 144 761 174 822 182 872 L 291 851 284 836 269 796 360 796 412 800 M 200 616 L 284 616 331 704 230 704 177 616 200 616 M 187 263 L 248 263 248 352 188 352 188 314 187 284 187 263 M 388 263 L 388 352 332 352 332 263 388 263 M 388 439 L 388 524 332 524 332 439 388 439 M 248 524 L 190 524 190 439 248 439 248 524" horiz-adv-x="981"></glyph><glyph unicode="回" d="M 404 596 L 621 596 720 600 716 518 716 273 720 192 621 196 404 196 346 195 304 192 308 273 308 518 304 600 404 596 M 416 500 L 416 292 608 292 608 500 416 500 M 950 -84 L 829 -84 829 -28 196 -28 196 -84 74 -84 Q 81 -35 81 50 L 81 696 Q 81 766 74 821 L 197 816 827 816 950 821 Q 944 769 944 696 L 944 49 Q 944 -40 950 -84 M 196 712 L 196 75 829 75 829 712 196 712" horiz-adv-x="950"></glyph><glyph unicode="界" d="M 319 404 L 237 404 127 400 132 508 132 721 131 784 127 833 239 828 785 828 897 833 Q 892 794 892 721 L 892 508 Q 892 438 897 400 L 786 404 698 404 Q 801 302 998 251 L 968 200 943 141 Q 807 191 720 253 L 720 26 Q 719 -39 726 -87 L 602 -87 608 27 608 217 603 298 663 298 608 348 561 404 452 404 412 351 359 298 434 298 430 251 Q 427 111 360 31 294 -48 140 -96 L 112 -51 71 -2 Q 143 17 186 37 229 56 260 83 322 136 322 253 L 321 267 Q 273 228 218 199 162 169 84 141 L 57 198 27 245 Q 225 299 319 404 M 244 732 L 244 656 452 656 452 732 244 732 M 244 568 L 244 492 452 492 452 568 244 568 M 560 732 L 560 656 780 656 780 732 560 732 M 560 568 L 560 492 780 492 780 568 560 568" horiz-adv-x="998"></glyph><glyph unicode="開" d="M 349 271 L 359 271 360 313 361 364 261 360 261 452 362 448 664 448 768 452 768 360 664 364 664 271 679 271 782 275 782 179 679 184 664 184 664 36 665 -18 669 -53 559 -53 563 -16 564 37 564 184 449 184 Q 441 106 411 48 382 -10 324 -67 290 -28 244 5 293 43 318 84 342 125 351 184 L 245 179 245 275 349 271 M 564 364 L 458 364 458 318 456 271 564 271 564 364 M 192 492 L 192 47 Q 192 -40 198 -80 L 78 -80 Q 84 -41 84 49 L 84 719 80 835 186 831 368 831 431 832 475 835 Q 472 791 472 738 L 472 581 473 528 475 489 378 492 192 492 M 192 752 L 192 699 369 699 369 752 192 752 M 192 624 L 192 572 369 572 369 624 192 624 M 944 720 L 944 48 Q 946 -20 914 -45 883 -70 798 -68 L 732 -66 722 -9 705 44 798 36 Q 841 32 836 62 L 836 492 637 492 543 489 544 529 545 581 545 738 542 835 586 832 648 831 841 831 948 835 945 782 944 720 M 648 752 L 648 699 836 699 836 752 648 752 M 648 624 L 648 572 836 572 836 624 648 624" horiz-adv-x="948"></glyph><glyph unicode="外" d="M 223 406 L 284 488 Q 350 438 396 385 L 433 494 Q 447 548 461 628 L 312 628 Q 244 453 115 311 L 88 363 48 410 Q 172 537 235 731 L 254 801 265 865 383 844 364 785 347 728 494 728 577 731 573 704 568 659 Q 587 616 608 585 629 554 668 510 L 668 740 667 804 661 858 787 858 782 805 780 740 780 405 821 376 878 342 Q 930 311 955 299 L 1016 273 Q 983 227 956 162 L 860 216 780 270 780 49 782 -25 787 -87 661 -87 Q 669 -29 668 49 L 668 365 Q 624 408 597 440 570 472 545 513 502 314 407 171 311 30 151 -85 116 -27 70 8 L 132 49 191 98 Q 246 148 281 190 316 233 347 286 295 349 223 406" horiz-adv-x="1016"></glyph><glyph unicode="較" d="M 749 607 L 836 650 Q 872 583 909 537 946 492 1004 444 L 961 394 934 354 880 408 Q 845 281 782 175 827 123 878 88 929 53 1004 21 L 971 -30 944 -87 Q 861 -39 811 0 762 38 718 90 666 31 613 -10 559 -51 489 -87 L 457 -34 419 7 Q 495 40 551 78 606 117 655 173 629 212 605 260 582 308 553 383 L 519 349 468 404 468 332 Q 468 260 471 221 L 436 223 379 224 328 224 328 160 403 160 450 161 489 165 489 59 449 63 403 64 328 64 328 4 Q 328 -42 334 -86 L 221 -86 Q 229 -41 228 8 L 228 64 143 64 89 63 47 59 47 165 87 161 143 160 228 160 228 224 182 224 125 223 76 221 80 336 80 515 76 623 123 620 180 620 228 620 228 672 148 672 53 668 53 773 93 769 148 768 228 768 228 780 Q 229 824 221 864 L 334 864 Q 328 827 328 780 L 328 768 381 768 436 769 476 773 476 668 437 671 381 672 328 672 328 620 383 620 438 620 471 623 Q 468 597 468 522 L 468 448 Q 516 494 547 541 579 588 603 649 L 696 607 642 505 579 415 645 443 Q 662 354 718 262 763 347 781 451 L 875 413 Q 837 455 808 499 779 544 749 607 M 324 308 L 384 308 384 380 324 380 324 308 M 324 463 L 384 463 384 536 324 536 324 463 M 232 536 L 168 536 168 463 232 463 232 536 M 232 380 L 168 380 168 308 232 308 232 380 M 664 752 L 664 785 Q 665 830 659 861 L 781 861 Q 776 833 776 787 L 776 752 881 752 984 757 984 647 880 652 598 652 498 647 498 758 598 752 664 752" horiz-adv-x="1004"></glyph><glyph unicode="割" d="M 288 548 L 209 548 159 547 117 543 117 587 52 587 56 660 56 713 52 788 97 785 157 784 285 784 285 790 Q 286 834 280 861 L 405 861 Q 400 834 400 791 L 400 784 502 784 615 788 Q 612 758 612 714 L 612 664 Q 612 623 618 593 L 560 593 560 543 518 547 469 548 392 548 392 504 484 504 564 507 564 416 531 419 484 420 392 420 392 372 523 372 612 376 612 276 523 280 138 280 47 276 47 376 138 372 288 372 288 420 186 420 138 419 103 416 103 507 186 504 288 504 288 548 M 209 632 L 288 632 283 676 397 676 Q 393 660 392 632 L 469 632 516 633 516 696 156 696 156 633 209 632 M 196 236 L 482 236 564 239 560 147 560 17 Q 560 -45 565 -76 L 452 -76 452 -44 220 -44 220 -87 106 -87 Q 113 -49 112 4 L 112 142 109 239 196 236 M 220 148 L 220 48 452 48 452 148 220 148 M 655 788 L 773 788 Q 768 754 768 682 L 768 270 769 202 773 159 655 159 659 204 660 271 660 680 659 744 655 788 M 835 852 L 955 856 Q 948 819 948 732 L 948 49 Q 950 -22 918 -48 885 -74 796 -72 L 760 -71 701 -68 Q 694 -6 672 41 L 788 32 Q 847 28 840 60 L 840 725 839 800 835 852" horiz-adv-x="955"></glyph><glyph unicode="換" d="M 891 152 L 709 152 Q 754 95 818 66 881 36 1001 16 L 975 -35 Q 965 -58 957 -88 893 -73 847 -54 800 -36 758 -8 682 36 639 101 597 33 522 -12 L 429 -57 318 -88 Q 302 -37 271 13 L 382 33 Q 428 46 468 69 527 102 556 152 L 404 152 354 151 312 148 312 252 368 248 368 532 344 513 309 570 271 572 260 572 260 412 324 439 324 338 289 322 260 310 260 23 Q 262 -36 233 -57 205 -78 123 -76 L 64 -73 57 -21 42 30 125 24 Q 155 21 152 51 L 152 271 78 248 51 237 36 349 82 357 152 376 152 572 114 572 46 568 46 677 115 672 152 672 152 755 146 860 265 860 Q 260 824 260 756 L 260 672 270 672 322 676 322 627 Q 402 689 451 762 491 823 502 871 L 616 859 610 847 601 825 591 808 713 808 788 812 840 757 816 719 754 632 849 632 939 635 Q 936 601 936 536 L 936 248 992 252 992 147 891 152 M 464 248 L 585 248 590 281 590 320 696 317 692 279 689 248 836 248 836 338 784 336 Q 720 335 696 350 671 365 672 404 L 672 540 627 540 Q 624 440 602 383 580 327 525 280 L 464 335 464 248 M 474 632 L 632 632 Q 661 665 694 716 L 539 716 474 632 M 541 540 L 464 540 464 350 504 391 525 433 536 477 541 540 M 836 425 L 836 540 760 540 760 448 Q 753 419 802 424 L 836 425" horiz-adv-x="1001"></glyph><glyph unicode="間" d="M 716 334 L 716 125 Q 716 70 719 35 L 758 33 795 32 Q 835 29 832 57 L 832 488 634 488 537 485 539 526 540 578 540 732 537 828 644 824 837 824 944 828 941 776 940 715 940 42 Q 943 -42 890 -60 L 775 -72 755 -72 706 -69 696 -14 679 35 621 36 404 36 404 -19 293 -19 Q 300 22 300 82 L 300 334 297 428 395 424 623 424 719 428 Q 716 391 716 334 M 644 740 L 644 692 832 692 832 740 644 740 M 644 616 L 644 568 832 568 832 616 644 616 M 404 336 L 404 276 612 276 612 336 404 336 M 404 192 L 404 124 612 124 612 192 404 192 M 192 488 L 192 42 Q 192 -44 198 -82 L 78 -82 84 43 84 714 80 828 186 824 363 824 427 825 471 828 Q 468 785 468 732 L 468 578 470 485 375 488 192 488 M 192 740 L 192 692 364 692 364 740 192 740 M 192 616 L 192 568 364 568 364 616 192 616" horiz-adv-x="944"></glyph><glyph unicode="含" d="M 322 536 L 322 599 204 525 Q 149 494 89 467 L 62 519 22 568 Q 164 621 282 703 379 770 447 858 L 566 858 Q 608 806 651 769 694 731 756 691 818 652 876 624 935 596 1008 572 L 973 525 942 468 Q 871 497 817 526 764 555 707 595 L 707 536 621 540 410 540 322 536 M 405 632 L 623 632 655 632 Q 572 694 508 766 433 680 368 633 L 405 632 M 685 280 L 785 280 868 284 864 198 864 2 Q 864 -46 869 -85 L 748 -85 748 -44 276 -44 276 -85 158 -85 164 4 164 202 159 284 244 280 534 280 662 388 261 388 161 383 161 489 241 484 692 484 783 488 848 428 808 391 685 280 M 276 180 L 276 55 748 55 748 180 276 180" horiz-adv-x="1008"></glyph><glyph unicode="頑" d="M 288 488 L 233 488 228 304 Q 223 240 211 179 190 51 102 -49 78 -2 21 45 64 87 85 128 106 168 116 228 L 129 331 132 488 42 483 42 593 139 588 381 588 470 592 470 484 435 487 388 488 388 199 430 218 472 241 472 138 400 99 Q 372 84 332 68 L 273 43 249 32 229 145 288 160 288 488 M 666 728 L 579 728 469 723 469 834 513 829 579 828 863 828 975 834 975 723 928 727 863 728 773 728 743 655 841 655 939 658 Q 936 620 936 562 L 936 220 Q 936 159 939 113 L 853 116 818 116 Q 858 74 900 45 L 1005 -11 963 -54 929 -102 Q 868 -64 826 -30 784 4 734 57 L 812 116 601 116 679 54 Q 626 0 578 -34 530 -67 461 -101 435 -56 384 -15 457 12 501 40 545 67 596 116 L 582 116 501 114 504 209 504 559 503 616 501 658 587 655 636 655 666 728 M 608 568 L 608 504 832 504 832 568 608 568 M 608 420 L 608 356 832 356 832 420 608 420 M 608 272 L 608 207 832 207 832 272 608 272 M 76 699 L 76 808 113 805 165 804 350 804 402 805 438 808 438 701 405 703 350 704 165 704 113 703 76 699" horiz-adv-x="1005"></glyph><glyph unicode="基" d="M 188 780 L 244 780 Q 245 831 239 856 L 357 856 Q 353 827 352 780 L 672 780 667 856 785 856 Q 781 828 780 780 L 848 780 959 786 959 683 848 688 780 688 780 400 862 400 976 406 976 302 865 308 761 308 Q 851 233 1005 197 973 145 954 90 901 109 859 130 817 151 771 181 L 771 112 677 116 560 116 560 48 809 48 923 54 923 -58 801 -52 231 -52 108 -58 108 53 225 48 452 48 452 116 351 116 258 112 258 183 Q 213 150 172 129 131 108 74 88 L 55 138 24 194 Q 173 227 262 308 L 161 308 51 302 51 406 161 400 244 400 244 688 188 688 75 683 75 786 188 780 M 352 400 L 672 400 672 440 352 440 352 400 M 352 523 L 672 523 672 564 352 564 352 523 M 352 647 L 672 647 672 688 352 688 352 647 M 627 308 L 394 308 Q 356 258 297 213 L 351 212 452 212 Q 453 257 447 282 L 565 282 Q 560 255 560 212 L 677 212 729 213 Q 667 257 627 308" horiz-adv-x="1005"></glyph><glyph unicode="奇" d="M 801 676 L 602 676 Q 693 574 940 569 913 529 899 477 L 969 481 969 370 855 376 840 376 840 37 Q 842 -30 810 -54 777 -78 686 -76 L 642 -75 597 -72 Q 591 -18 565 31 L 633 25 682 24 Q 734 21 728 47 L 728 376 176 376 60 370 60 481 135 476 Q 125 516 89 564 316 576 401 676 L 227 676 105 671 105 782 160 777 232 776 445 776 Q 452 810 452 843 L 450 864 572 859 563 816 556 776 796 776 921 782 921 671 801 676 M 182 476 L 836 476 732 495 654 522 Q 558 563 503 640 459 573 383 535 308 496 182 476 M 616 244 L 616 128 620 45 532 48 296 48 296 -2 184 -2 187 37 188 92 188 244 185 331 274 328 530 328 588 328 620 331 617 292 616 244 M 296 236 L 296 144 508 144 508 236 296 236" horiz-adv-x="969"></glyph><glyph unicode="期" d="M 836 236 L 674 236 Q 664 119 638 46 613 -26 559 -93 520 -47 474 -9 510 33 530 77 550 121 560 181 571 246 575 368 L 580 685 579 765 575 820 692 816 836 816 902 817 948 820 944 705 944 27 Q 944 -50 901 -70 868 -84 799 -84 L 782 -84 737 -81 728 -23 711 34 799 24 Q 840 21 836 46 L 836 236 M 836 480 L 687 480 682 337 836 337 836 480 M 836 580 L 836 712 688 712 688 580 836 580 M 128 748 L 128 765 Q 129 818 123 852 L 237 852 Q 232 818 232 765 L 232 748 376 748 376 765 Q 377 822 371 852 L 485 852 Q 480 819 480 765 L 480 748 548 753 548 648 480 652 480 256 516 257 540 260 540 157 455 160 118 160 39 156 39 260 115 256 128 256 128 652 50 648 50 753 128 748 M 232 256 L 376 256 376 332 232 332 232 256 M 232 424 L 376 424 376 492 232 492 232 424 M 232 584 L 376 584 376 652 232 652 232 584 M 190 151 L 277 97 Q 241 36 208 -2 L 118 -89 85 -50 39 -8 Q 91 28 125 63 158 99 190 151 M 321 95 L 401 148 Q 426 110 442 93 L 498 39 Q 452 4 420 -37 379 7 364 28 L 321 95" horiz-adv-x="948"></glyph><glyph unicode="機" d="M 810 857 L 894 811 853 747 807 685 835 653 862 694 898 752 973 697 948 666 901 606 Q 864 557 820 513 L 856 516 893 520 875 560 939 583 970 513 1000 422 928 399 917 448 842 439 867 421 895 397 856 360 879 360 945 361 986 366 986 258 879 264 844 264 923 214 Q 869 142 811 91 858 29 883 28 897 27 905 54 914 81 921 151 957 114 999 95 984 -11 957 -51 937 -85 890 -84 817 -87 734 29 680 -11 628 -38 577 -65 509 -88 L 485 -40 451 5 Q 519 21 574 45 629 69 686 106 669 141 658 176 L 634 264 498 264 495 231 544 185 Q 570 166 609 145 L 581 100 568 76 559 61 Q 510 91 474 133 455 68 426 18 397 -31 347 -82 L 311 -43 266 -7 Q 385 80 399 264 L 322 260 322 364 357 361 406 360 617 360 612 392 610 417 552 397 548 431 477 420 330 400 326 431 Q 306 393 296 360 268 403 248 454 L 251 394 252 329 252 34 Q 252 -59 257 -94 L 142 -94 148 34 148 214 150 283 157 383 Q 113 228 67 153 50 223 18 266 L 55 332 95 429 111 476 137 568 112 568 43 564 43 673 112 668 147 668 147 753 Q 148 823 142 860 L 256 860 252 754 252 668 271 668 323 670 300 690 360 761 382 739 Q 427 801 448 861 L 532 819 489 743 443 676 467 644 497 692 521 740 593 691 593 739 591 813 586 856 699 856 Q 692 831 693 788 L 694 755 694 723 725 767 748 746 Q 788 798 810 857 M 779 584 Q 741 635 694 676 L 695 586 699 510 713 510 751 551 779 584 M 765 404 L 796 434 777 431 758 429 732 426 707 424 710 397 715 360 830 360 Q 802 389 765 404 M 331 663 L 331 564 273 568 258 568 Q 278 517 321 467 L 318 490 333 489 352 489 390 534 416 568 331 663 M 843 264 L 732 264 745 216 765 168 816 220 843 264 M 511 547 L 576 568 Q 595 528 602 500 L 596 605 594 679 572 646 Q 510 555 455 496 L 494 499 530 504 511 547" horiz-adv-x="1000"></glyph><glyph unicode="気" d="M 803 680 L 269 680 Q 205 586 116 503 80 550 36 583 163 692 221 813 240 849 244 878 L 367 859 355 837 331 788 803 788 931 795 931 674 803 680 M 688 29 L 612 -56 526 24 433 102 Q 377 53 311 12 245 -29 137 -82 L 107 -36 61 14 Q 163 57 227 92 291 127 344 170 L 262 227 166 286 241 355 332 301 422 241 Q 494 317 511 372 L 621 320 577 263 510 178 688 29 M 712 384 L 214 384 97 378 97 485 185 480 705 480 778 481 825 484 Q 819 438 819 391 820 227 848 128 862 75 884 58 905 86 909 210 953 167 997 148 976 -85 886 -78 809 -71 759 53 735 115 724 193 713 272 712 384 M 239 536 L 239 636 316 632 745 632 853 637 853 535 745 540 336 540 239 536" horiz-adv-x="997"></glyph><glyph unicode="義" d="M 801 233 L 879 179 851 154 766 80 Q 825 27 860 24 878 23 891 49 904 76 918 147 954 105 997 84 972 -8 945 -45 917 -82 872 -80 783 -81 680 22 L 576 -32 466 -75 Q 445 -24 411 16 524 39 624 92 L 588 159 Q 573 191 561 234 L 368 232 368 183 441 194 517 206 517 123 440 109 368 98 368 8 Q 370 -47 342 -66 313 -85 235 -84 L 201 -84 146 -80 Q 141 -35 119 13 L 226 4 Q 266 0 260 24 L 260 86 205 80 125 72 94 69 75 65 56 165 89 163 152 165 260 173 260 231 144 230 44 224 44 317 126 312 144 312 260 313 260 348 212 344 118 339 Q 102 390 78 411 L 244 418 378 436 434 452 508 384 417 367 368 359 368 314 545 316 540 353 537 381 530 432 640 432 639 414 Q 640 374 647 317 L 793 318 Q 736 366 679 399 L 745 454 815 412 876 366 828 319 867 319 933 321 976 326 975 234 954 237 930 237 867 237 667 235 Q 684 186 710 146 779 196 801 233 M 204 776 L 320 776 261 842 365 869 409 813 433 776 579 776 Q 611 814 639 870 L 752 845 696 776 817 776 881 777 923 782 923 687 817 692 552 692 552 656 763 656 825 657 865 660 865 572 823 575 763 576 552 576 552 540 870 540 977 545 977 450 932 455 870 456 153 456 45 451 45 545 153 540 444 540 444 576 255 576 195 575 154 572 154 660 194 657 255 656 444 656 444 692 204 692 146 691 97 687 97 782 142 777 204 776" horiz-adv-x="997"></glyph><glyph unicode="業" d="M 451 448 L 195 448 90 443 90 540 195 536 319 536 281 612 171 612 49 607 49 710 166 704 198 704 170 749 129 799 231 838 272 776 310 704 368 704 368 776 363 856 475 856 Q 472 831 472 781 L 472 704 544 704 544 781 541 856 653 856 Q 649 826 648 776 L 648 704 715 704 Q 765 773 789 841 L 894 802 830 704 859 704 975 710 975 607 853 612 751 612 730 568 713 536 832 536 937 540 937 443 832 448 564 448 564 400 778 400 884 405 884 311 778 316 564 316 564 268 848 268 972 273 972 170 849 176 643 176 Q 695 131 782 94 830 74 878 61 926 47 995 36 L 962 -15 937 -69 Q 809 -34 717 15 625 64 557 134 L 560 92 560 61 560 11 Q 560 -51 569 -92 L 446 -92 452 12 452 61 453 89 455 131 387 69 308 18 Q 215 -34 99 -68 75 -16 37 30 255 76 371 176 L 181 176 57 170 57 273 180 268 451 268 451 316 248 316 144 311 144 405 248 400 451 400 451 448 M 428 536 L 597 536 Q 618 575 631 612 L 397 612 428 536" horiz-adv-x="995"></glyph><glyph unicode="具" d="M 348 128 L 169 128 52 122 52 237 170 231 862 231 981 237 981 122 866 128 678 128 Q 743 85 807 61 870 38 973 17 937 -21 903 -86 802 -59 732 -25 661 9 569 75 L 646 128 375 128 454 74 Q 369 6 301 -27 232 -61 125 -87 L 96 -35 60 12 Q 168 34 230 59 291 83 348 128 M 293 824 L 742 824 849 828 845 782 844 717 844 386 Q 845 315 849 275 L 741 280 289 280 179 275 184 387 184 721 183 782 179 828 293 824 M 728 728 L 300 728 300 668 728 668 728 728 M 728 580 L 300 580 300 520 728 520 728 580 M 728 432 L 300 432 300 372 728 372 728 432" horiz-adv-x="981"></glyph><glyph unicode="決" d="M 872 316 L 676 316 Q 764 120 989 31 L 957 -19 Q 944 -44 929 -86 693 39 608 235 571 127 499 48 428 -30 309 -93 286 -39 238 11 474 106 518 316 L 419 316 305 310 305 434 418 428 533 428 541 600 456 600 348 595 348 713 456 708 540 708 540 763 539 818 533 859 659 859 654 818 652 764 652 708 809 708 904 712 900 628 900 428 943 429 986 434 986 310 872 316 M 643 428 L 792 428 792 600 651 600 649 503 643 428 M 71 770 L 143 852 Q 195 822 234 792 L 322 716 250 622 167 702 71 770 M 33 514 L 99 597 Q 152 568 191 541 L 283 470 218 374 127 452 Q 87 483 33 514 M 190 314 L 280 249 227 104 168 -21 150 -53 136 -78 38 7 Q 81 57 116 128 151 200 190 314" horiz-adv-x="989"></glyph><glyph unicode="結" d="M 53 321 L 41 429 109 425 128 425 155 461 177 491 111 569 41 640 98 727 128 694 Q 193 801 210 870 L 313 830 Q 303 817 291 792 243 695 193 623 L 234 576 299 683 329 747 420 695 385 640 306 520 238 428 298 431 351 436 338 474 322 510 396 541 Q 440 450 468 335 L 389 301 378 346 346 343 308 340 308 23 309 -38 314 -85 198 -85 203 -38 204 24 204 332 53 321 M 648 624 L 552 624 440 618 440 730 553 724 648 724 648 778 642 856 762 856 Q 756 822 756 776 L 756 724 871 724 984 730 984 618 871 624 756 624 756 507 848 507 959 512 959 402 849 408 578 408 468 403 468 512 580 507 648 507 648 624 M 83 280 L 176 264 161 94 Q 151 27 132 -35 L 39 8 Q 60 62 70 122 80 182 83 280 M 335 267 L 413 286 432 175 446 40 361 23 353 144 335 267 M 588 -32 L 588 -83 475 -83 Q 481 -43 480 18 L 480 231 479 290 476 332 569 328 846 328 936 332 932 231 932 27 Q 933 -36 937 -82 L 824 -82 824 -32 588 -32 M 588 228 L 588 68 824 68 824 228 588 228" horiz-adv-x="984"></glyph><glyph unicode="健" d="M 386 512 L 429 512 503 515 496 469 469 277 Q 455 206 432 143 488 81 572 58 656 35 817 36 L 898 38 1000 45 979 -11 969 -62 898 -64 846 -64 Q 664 -65 561 -38 458 -11 392 54 L 350 -12 286 -89 Q 261 -38 224 -5 L 226 -45 229 -85 114 -85 120 38 120 309 121 374 123 435 57 327 Q 41 391 15 448 107 576 157 720 189 812 199 867 L 305 836 291 795 350 792 401 792 461 795 504 745 495 727 468 665 Q 433 585 386 512 M 224 611 L 224 38 224 3 Q 287 60 326 136 299 177 279 222 259 268 230 353 L 322 385 Q 334 305 368 238 L 387 319 402 420 322 420 250 417 232 416 264 468 333 591 381 696 336 696 285 692 285 777 258 693 224 611 M 640 647 L 640 704 604 704 562 703 528 701 528 793 604 788 640 788 Q 641 830 635 857 L 744 857 740 788 853 788 930 791 928 721 928 647 993 652 993 551 959 555 928 556 928 476 930 410 850 412 740 412 740 359 849 359 942 363 942 272 848 276 740 276 740 220 875 220 974 225 974 128 875 132 740 132 Q 740 98 745 66 L 635 66 Q 641 93 640 132 L 564 132 471 128 471 224 564 220 640 220 640 276 594 276 510 272 510 363 594 359 640 359 640 412 598 412 529 409 529 500 600 496 640 496 640 556 555 556 487 552 487 652 584 647 640 647 M 740 647 L 832 647 832 704 740 704 740 647 M 740 556 L 740 496 832 496 832 556 740 556" horiz-adv-x="1000"></glyph><glyph unicode="見" d="M 341 216 L 282 216 171 213 Q 177 254 176 322 L 176 695 171 825 279 820 749 820 857 825 Q 853 784 852 695 L 852 322 Q 852 252 857 213 L 749 216 664 216 664 59 Q 662 39 678 33 L 750 28 831 32 Q 854 36 861 49 876 67 880 179 935 149 985 137 978 54 968 15 958 -24 939 -41 920 -61 878 -69 L 751 -76 Q 629 -78 589 -59 549 -40 552 17 L 552 216 460 216 Q 442 99 363 28 273 -61 103 -98 L 77 -44 43 5 Q 114 18 161 33 207 49 243 73 324 123 341 216 M 284 716 L 284 648 744 648 744 716 284 716 M 284 552 L 284 484 744 484 744 552 284 552 M 284 388 L 284 315 744 315 744 388 284 388" horiz-adv-x="985"></glyph><glyph unicode="現" d="M 526 244 L 512 244 464 243 413 241 416 345 416 729 415 790 413 832 454 829 515 828 830 828 928 832 924 729 924 351 928 240 868 244 792 244 792 41 Q 791 30 800 27 L 841 24 Q 882 23 888 35 900 55 902 157 946 131 997 116 L 983 1 Q 975 -34 960 -47 935 -78 821 -76 L 739 -72 Q 712 -67 700 -56 690 -48 687 -37 684 -25 684 2 L 684 244 634 244 621 178 607 136 Q 566 31 468 -34 L 406 -68 Q 373 -83 324 -99 308 -55 260 -4 333 12 377 37 512 107 526 244 M 524 732 L 524 663 816 663 816 732 524 732 M 524 572 L 524 503 816 503 816 572 524 572 M 524 412 L 524 340 816 340 816 412 524 412 M 168 708 L 138 708 52 703 52 814 144 808 296 808 386 814 386 704 303 708 276 708 276 508 307 508 372 512 372 408 307 412 276 412 276 222 322 242 387 272 387 168 Q 325 134 263 107 L 116 51 Q 79 39 63 31 L 34 149 Q 77 155 168 184 L 168 412 130 412 61 407 61 512 132 508 168 508 168 708" horiz-adv-x="997"></glyph><glyph unicode="限" d="M 629 364 L 556 364 556 70 661 95 723 114 726 10 581 -30 398 -71 Q 364 -79 346 -86 L 326 30 448 47 448 718 447 776 444 829 545 824 833 824 891 825 931 829 929 787 928 713 928 475 929 408 932 361 903 363 987 292 958 271 892 218 816 164 Q 891 74 1008 19 972 -21 944 -86 798 2 728 113 692 166 670 224 647 282 629 364 M 847 364 L 725 364 743 301 764 248 Q 862 319 899 363 L 847 364 M 556 724 L 556 640 820 640 820 724 556 724 M 556 548 L 556 460 820 460 820 548 556 548 M 84 35 L 84 739 83 782 81 835 156 832 305 832 380 837 439 764 428 741 406 686 Q 376 605 328 511 L 374 440 400 379 Q 416 329 416 278 416 188 361 161 342 151 314 147 L 233 143 227 202 211 250 256 246 Q 312 244 308 291 308 344 286 397 L 260 444 215 501 265 605 309 732 192 732 192 35 Q 193 -28 197 -82 L 78 -82 84 35" horiz-adv-x="1008"></glyph><glyph unicode="御" d="M 449 109 L 449 464 382 464 289 460 289 538 261 489 228 439 228 15 Q 228 -52 233 -91 L 114 -91 120 29 120 214 121 263 122 328 90 290 58 260 Q 41 335 18 378 97 437 163 534 201 590 216 626 L 306 568 305 566 344 564 382 564 449 564 449 660 400 660 377 620 344 573 262 632 Q 305 688 328 740 351 791 367 865 L 471 839 453 790 441 760 572 760 654 764 654 656 579 660 552 660 552 564 598 564 667 568 667 460 598 464 552 464 552 360 587 360 657 364 657 260 588 264 552 264 552 129 604 140 663 153 663 55 485 15 332 -15 271 -29 253 83 300 87 300 314 296 397 401 397 Q 396 364 396 316 L 396 101 416 104 449 109 M 205 862 L 296 798 280 774 Q 232 706 187 660 141 615 79 574 L 55 628 28 671 Q 154 761 205 862 M 688 25 L 688 713 685 804 764 800 893 800 975 804 973 766 972 707 972 169 Q 974 97 948 76 925 51 858 52 L 813 53 810 110 798 159 846 156 Q 870 153 868 180 L 868 700 792 700 792 20 Q 792 -46 797 -88 L 683 -88 Q 689 -43 688 25" horiz-adv-x="975"></glyph><glyph unicode="公" d="M 938 -19 L 828 -83 798 -22 774 24 Q 513 -17 220 -32 L 142 -37 101 -43 80 88 155 85 182 85 213 86 Q 295 227 364 389 389 446 402 486 L 423 565 558 530 538 485 Q 499 388 444 274 388 160 346 91 L 541 103 717 125 656 217 587 307 687 363 Q 837 172 938 -19 M 332 837 L 458 790 449 775 444 765 430 738 Q 366 609 260 487 L 191 415 103 340 Q 68 402 25 446 188 557 278 710 324 788 332 837 M 565 790 L 678 838 Q 690 797 721 742 752 687 792 637 838 578 904 521 L 942 492 1002 451 961 398 926 339 Q 841 406 788 458 736 511 689 575 632 654 595 730 L 584 753 574 774 565 790" horiz-adv-x="1002"></glyph><glyph unicode="向" d="M 188 720 L 379 720 414 796 438 869 564 855 540 802 505 720 836 720 937 724 Q 931 676 932 622 L 932 45 Q 933 -28 889 -49 859 -64 776 -64 L 738 -63 667 -59 659 -3 640 53 771 44 Q 823 40 817 72 L 817 616 208 616 208 46 209 -21 215 -69 86 -69 91 -22 93 46 93 621 89 724 188 720 M 712 445 L 712 239 Q 712 188 717 158 L 631 160 412 160 412 89 298 89 304 174 304 448 Q 305 488 299 524 L 373 520 642 520 717 524 Q 712 487 712 445 M 412 420 L 412 260 604 260 604 420 412 420" horiz-adv-x="937"></glyph><glyph unicode="更" d="M 311 240 L 257 240 140 235 144 347 144 547 140 659 187 656 257 655 460 655 460 724 179 724 53 718 53 830 179 824 849 824 975 830 975 718 849 724 576 724 576 655 776 655 847 656 892 659 888 546 888 345 892 235 778 240 553 240 527 167 491 105 Q 574 67 668 49 L 880 31 928 32 994 35 Q 965 -26 954 -81 781 -82 653 -55 524 -28 420 28 357 -23 282 -52 206 -82 91 -98 L 71 -45 44 7 Q 153 18 214 37 274 55 325 93 298 114 282 129 L 236 178 221 193 Q 266 217 311 240 M 435 240 L 318 240 Q 347 201 395 162 423 199 435 240 M 459 560 L 252 560 252 492 457 492 459 560 M 575 560 L 574 492 780 492 780 560 575 560 M 455 404 L 252 404 252 335 451 335 453 365 455 404 M 780 404 L 572 404 570 363 568 335 780 335 780 404" horiz-adv-x="994"></glyph><glyph unicode="構" d="M 377 164 L 377 326 375 400 348 369 324 328 Q 291 373 267 440 L 272 290 272 34 Q 272 -44 278 -91 L 161 -91 Q 169 -43 169 34 L 169 234 Q 169 298 177 378 L 132 255 87 167 60 210 20 255 Q 113 398 155 572 L 122 572 53 568 53 676 122 672 168 672 168 755 Q 168 829 161 861 L 277 861 Q 271 824 272 756 L 272 672 294 672 352 676 352 568 296 572 281 572 Q 300 524 337 463 L 337 552 426 547 480 547 480 588 457 588 377 585 377 667 457 664 480 664 480 704 439 704 353 700 353 789 438 783 480 783 480 828 477 857 588 857 584 783 708 783 707 830 704 857 817 857 Q 811 830 812 783 L 879 783 965 789 965 699 879 704 812 704 812 664 857 664 936 667 936 584 857 588 812 588 812 547 885 547 980 553 980 455 884 460 692 460 692 419 822 419 920 423 916 319 916 164 984 169 984 72 916 76 916 18 Q 918 -42 891 -62 864 -82 781 -80 L 702 -78 Q 700 -24 686 15 L 771 8 Q 819 5 813 30 L 813 76 480 76 480 36 480 -40 482 -90 372 -90 376 -36 377 36 377 76 318 72 318 168 377 164 M 480 164 L 593 164 593 212 480 212 480 164 M 480 288 L 593 288 593 336 480 336 480 288 M 692 164 L 813 164 813 212 692 212 692 164 M 692 288 L 813 288 813 336 692 336 692 288 M 373 422 L 472 419 593 419 593 460 431 460 341 456 373 422 M 584 547 L 708 547 708 588 584 588 584 547 M 584 664 L 708 664 708 704 584 704 584 664" horiz-adv-x="984"></glyph><glyph unicode="考" d="M 437 484 L 184 484 52 478 52 590 184 584 408 584 408 664 268 664 152 660 152 770 268 764 408 764 408 775 Q 409 823 402 859 L 526 859 Q 520 829 520 775 L 520 764 599 764 715 770 715 692 Q 796 775 828 837 L 929 770 914 755 Q 826 653 738 584 L 848 584 972 590 972 478 847 484 611 484 538 435 457 388 456 382 636 401 742 418 Q 811 431 841 445 L 912 350 847 338 776 325 596 302 427 288 411 248 752 248 819 249 858 252 855 238 849 189 831 60 Q 821 12 805 -18 788 -53 751 -67 713 -81 638 -80 L 576 -78 497 -73 490 -16 470 38 573 27 642 24 Q 694 22 706 46 723 68 732 148 L 373 148 341 80 225 98 273 196 321 318 235 277 91 219 Q 67 274 29 315 134 345 241 390 348 434 437 484 M 520 584 L 586 584 Q 644 626 683 662 L 650 664 610 664 520 664 520 584" horiz-adv-x="972"></glyph><glyph unicode="行" d="M 708 444 L 514 444 390 438 390 554 514 548 861 548 986 554 986 438 864 444 820 444 820 39 Q 822 -27 790 -50 757 -74 667 -72 L 554 -69 543 -10 525 47 663 36 Q 716 31 708 60 L 708 444 M 279 870 L 377 801 365 787 347 766 Q 250 647 108 558 81 613 44 655 158 717 229 798 261 835 279 870 M 430 702 L 430 818 549 812 824 812 941 818 941 702 826 708 549 708 430 702 M 184 47 L 184 225 185 274 186 343 Q 147 295 93 257 73 318 42 365 125 419 195 494 265 569 297 638 L 393 574 Q 379 559 359 528 L 331 487 300 447 300 46 Q 300 -35 307 -85 L 177 -85 Q 185 -35 184 47" horiz-adv-x="986"></glyph><glyph unicode="高" d="M 449 788 L 449 800 443 865 569 865 Q 563 834 563 801 L 563 788 865 788 973 794 973 691 866 696 158 696 53 691 53 794 164 788 449 788 M 208 502 L 208 588 205 663 306 660 732 660 823 663 Q 820 631 820 588 L 820 502 821 457 823 424 727 428 303 428 205 424 208 502 M 316 576 L 316 515 712 515 712 576 316 576 M 80 24 L 80 300 76 395 182 391 848 391 948 395 944 301 944 38 Q 947 -34 920 -52 897 -78 798 -76 L 772 -76 738 -74 722 -73 705 -73 699 -17 683 30 812 20 Q 839 18 836 44 L 836 300 188 300 188 24 189 -38 195 -89 74 -89 80 24 M 732 200 L 732 112 Q 732 68 735 41 L 649 44 392 44 392 -10 284 -10 288 77 288 198 285 266 370 263 650 263 696 264 735 266 Q 732 242 732 200 M 392 184 L 392 127 632 127 632 184 392 184" horiz-adv-x="973"></glyph><glyph unicode="合" d="M 249 448 L 249 519 Q 202 489 169 472 136 454 85 433 L 60 486 26 538 Q 169 594 287 686 389 766 448 857 L 570 857 Q 602 809 642 769 682 729 742 684 855 597 1004 543 L 973 489 947 430 860 472 Q 825 490 780 520 L 780 448 688 452 337 452 249 448 M 338 560 L 687 560 722 560 Q 656 607 607 653 558 699 511 759 467 695 423 652 378 608 310 560 L 338 560 M 288 -76 L 166 -76 172 32 172 270 167 372 255 368 768 368 857 372 Q 852 332 852 270 L 852 31 Q 851 -34 858 -76 L 736 -76 736 -24 288 -24 288 -76 M 288 268 L 288 76 736 76 736 268 288 268" horiz-adv-x="1004"></glyph><glyph unicode="込" d="M 579 720 L 476 720 391 715 391 825 476 820 622 820 697 824 695 769 Q 696 615 762 473 800 389 853 328 905 267 988 209 948 163 920 103 865 143 828 180 790 216 756 261 719 310 693 366 667 422 642 504 623 424 598 367 572 309 530 254 503 216 472 186 442 155 392 115 L 355 159 311 203 386 264 Q 416 293 446 333 528 445 560 578 L 571 638 579 720 M 64 769 L 145 845 Q 253 753 325 659 L 240 576 158 678 64 769 M 48 363 L 48 477 85 473 130 472 214 472 292 477 289 429 288 363 288 150 Q 299 127 311 114 322 101 347 85 380 63 438 55 L 625 48 1005 69 986 7 974 -54 812 -58 664 -60 469 -55 Q 398 -49 360 -36 285 -15 230 61 L 124 -31 93 -56 78 -68 28 50 Q 62 64 104 92 L 180 149 180 368 118 368 48 363" horiz-adv-x="1005"></glyph><glyph unicode="差" d="M 448 656 L 201 656 91 651 91 758 201 752 318 752 Q 291 800 248 846 L 359 876 Q 403 819 440 752 L 588 752 626 809 658 876 775 850 Q 739 789 707 752 L 828 752 938 758 938 651 828 656 564 656 564 596 799 596 890 601 890 500 799 504 564 504 564 444 865 444 932 445 975 449 975 342 865 348 377 348 365 305 355 275 426 272 809 272 908 277 908 171 810 176 660 176 660 52 855 52 967 58 967 -54 850 -48 355 -48 237 -54 237 58 280 53 331 52 544 52 544 176 425 176 343 172 343 244 Q 306 153 242 72 L 178 -3 101 -70 70 -19 29 30 Q 202 147 261 348 L 166 348 55 342 55 449 100 445 166 444 448 444 448 504 233 504 141 500 141 601 233 596 448 596 448 656" horiz-adv-x="975"></glyph><glyph unicode="再" d="M 144 275 L 144 539 Q 145 594 139 644 L 224 640 456 640 456 724 180 724 53 718 53 830 180 823 856 823 982 830 982 718 856 724 564 724 564 640 803 640 893 644 Q 888 600 888 540 L 888 275 894 275 989 281 989 170 894 176 888 176 888 25 Q 890 -36 855 -59 820 -81 728 -80 L 616 -76 Q 610 -19 591 34 L 723 24 Q 783 20 776 55 L 776 176 252 176 252 31 Q 251 -44 258 -85 L 138 -85 144 32 144 176 135 176 40 170 40 281 136 275 144 275 M 252 275 L 456 275 456 364 252 364 252 275 M 252 456 L 456 456 456 544 252 544 252 456 M 564 275 L 776 275 776 364 564 364 564 275 M 564 456 L 776 456 776 544 564 544 564 456" horiz-adv-x="989"></glyph><glyph unicode="最" d="M 416 18 L 416 27 320 9 213 -8 118 -22 67 -31 44 75 60 74 148 79 148 396 47 391 47 490 152 484 879 484 986 490 986 391 939 395 878 396 520 396 520 22 Q 601 50 659 94 L 613 152 Q 592 181 566 226 L 653 264 626 264 549 260 549 357 636 353 809 353 886 357 940 298 923 268 Q 871 164 806 92 873 49 988 20 958 -25 936 -81 857 -51 818 -30 L 733 26 Q 696 -5 659 -28 L 574 -74 Q 554 -24 520 12 520 -48 525 -86 L 410 -86 Q 416 -54 416 18 M 416 111 L 416 152 252 152 252 88 318 96 416 111 M 416 228 L 416 276 252 276 252 228 416 228 M 416 352 L 416 396 252 396 252 352 416 352 M 808 264 L 658 264 694 203 Q 709 180 731 156 773 198 808 264 M 876 742 L 876 605 880 517 784 520 264 520 156 517 160 604 160 742 157 832 268 828 770 828 880 832 876 742 M 268 748 L 268 708 768 708 768 748 268 748 M 268 636 L 268 596 768 596 768 636 268 636" horiz-adv-x="988"></glyph><glyph unicode="細" d="M 53 323 L 42 428 88 424 123 424 152 462 178 498 Q 113 583 43 651 L 96 742 132 702 Q 192 807 206 869 L 307 832 296 811 278 775 194 631 214 607 234 582 Q 317 709 327 749 L 420 700 381 640 309 533 233 430 288 433 347 438 336 469 319 510 396 544 429 457 452 380 452 695 448 816 500 813 568 812 827 812 907 813 956 816 952 685 952 50 953 -25 958 -78 841 -78 841 -20 555 -20 555 -79 446 -79 452 44 452 337 380 306 372 350 333 345 300 342 300 22 301 -40 306 -86 194 -86 199 -38 200 23 200 334 144 331 105 329 53 323 M 552 709 L 552 453 648 453 648 709 552 709 M 748 708 L 748 452 844 452 844 708 748 708 M 552 353 L 552 80 648 80 648 353 552 353 M 748 352 L 748 80 844 80 844 352 748 352 M 76 285 L 166 274 Q 165 113 132 -33 L 38 7 57 74 68 151 Q 77 218 76 264 L 76 285 M 322 269 L 398 289 418 177 431 45 351 22 Q 345 152 322 269" horiz-adv-x="958"></glyph><glyph unicode="材" d="M 704 572 L 597 572 489 567 489 677 598 672 744 672 744 735 Q 745 805 737 858 L 861 858 Q 856 805 856 735 L 856 672 887 672 988 678 988 566 887 572 857 572 860 42 Q 862 -40 818 -59 792 -73 710 -72 L 607 -68 598 -10 581 46 693 36 Q 755 32 748 61 L 746 444 Q 713 376 651 291 575 188 457 98 L 423 146 383 189 Q 606 341 704 572 M 384 572 L 333 572 Q 376 474 472 389 440 348 417 294 385 329 368 355 L 321 436 327 356 328 266 328 31 Q 328 -40 334 -88 L 214 -88 220 31 220 234 221 270 221 290 222 330 228 396 Q 175 234 92 128 70 195 35 245 76 295 103 339 131 384 159 446 L 184 505 208 572 157 572 64 566 64 677 161 672 220 672 220 759 214 859 334 859 Q 328 821 328 759 L 328 672 383 672 462 677 462 567 384 572" horiz-adv-x="988"></glyph><glyph unicode="作" d="M 560 616 L 541 616 Q 475 480 373 364 L 339 414 299 461 Q 410 575 471 724 509 817 517 872 L 634 839 613 784 598 742 587 716 867 716 977 722 977 611 867 616 672 616 672 484 839 484 941 490 941 378 838 384 672 384 672 256 840 256 943 262 943 150 840 156 672 156 672 38 Q 672 -48 679 -85 L 554 -85 Q 561 -48 560 38 L 560 616 M 260 875 L 374 836 361 806 350 778 329 725 280 614 280 46 Q 280 -25 287 -81 L 165 -81 Q 173 -28 172 46 L 172 337 173 372 175 454 Q 127 386 77 336 58 397 23 456 138 561 217 740 251 818 260 875" horiz-adv-x="977"></glyph><glyph unicode="参" d="M 134 631 L 120 731 276 725 Q 341 802 375 875 L 495 849 486 836 402 726 576 730 686 738 647 768 600 803 686 848 Q 748 804 799 760 L 916 648 825 593 783 640 764 662 665 652 544 644 509 576 851 576 973 582 973 475 852 480 712 480 Q 804 391 996 354 958 314 938 253 703 327 581 480 L 437 480 Q 376 412 298 366 220 320 93 274 L 66 323 29 365 Q 124 389 182 415 239 440 292 480 L 174 480 52 475 52 582 172 576 387 576 Q 412 608 422 639 L 300 636 188 634 134 631 M 786 229 L 878 167 757 79 658 23 Q 569 -21 468 -49 368 -78 231 -98 215 -47 178 1 334 14 454 49 574 83 679 146 747 186 786 229 M 536 445 L 624 378 528 317 475 287 Q 365 230 212 200 L 191 250 162 288 Q 339 312 464 390 511 419 536 445 M 652 338 L 742 277 Q 675 227 624 196 573 165 511 140 450 112 379 92 309 72 215 56 L 192 108 161 148 Q 387 174 552 267 627 309 652 338" horiz-adv-x="996"></glyph><glyph unicode="産" d="M 319 144 L 319 233 266 170 Q 239 211 207 241 193 130 170 55 146 -20 106 -82 L 65 -24 24 20 60 88 83 156 Q 114 276 114 495 L 109 609 226 604 332 604 318 646 297 688 210 688 148 687 105 684 105 794 217 788 468 788 468 798 463 862 589 862 Q 583 833 583 798 L 583 788 834 788 949 794 949 684 904 687 840 688 761 688 738 641 718 604 853 604 968 609 968 503 853 508 220 508 218 375 211 271 Q 251 310 282 367 L 310 424 336 497 439 474 429 448 417 419 531 419 527 484 644 484 640 419 825 419 923 424 923 316 824 320 640 320 640 240 794 240 848 241 886 244 886 144 846 147 794 148 640 148 640 48 872 48 969 53 969 -58 869 -52 300 -52 202 -57 202 53 298 48 532 48 532 148 413 148 319 144 M 532 320 L 373 320 325 243 412 240 532 240 532 320 M 449 604 L 605 604 627 645 644 688 414 688 433 646 449 604" horiz-adv-x="969"></glyph><glyph unicode="仕" d="M 576 556 L 576 739 570 849 698 849 Q 691 808 692 738 L 692 556 868 556 985 563 985 437 869 444 692 444 692 64 843 64 958 71 958 -51 842 -44 453 -44 337 -51 337 71 452 64 576 64 576 444 433 444 317 437 317 563 436 556 576 556 M 160 37 L 160 322 161 378 162 436 121 375 71 316 55 368 24 439 Q 118 537 185 676 242 791 253 869 L 370 835 360 808 338 749 315 690 276 605 276 36 Q 276 -28 281 -85 L 154 -85 160 37" horiz-adv-x="985"></glyph><glyph unicode="使" d="M 836 280 L 667 280 Q 652 190 610 123 689 79 779 58 868 38 995 33 966 -23 951 -81 822 -67 726 -37 629 -7 546 46 503 4 448 -27 394 -58 316 -85 289 -30 255 11 387 47 462 110 428 140 398 180 L 366 218 456 265 Q 473 230 523 183 549 229 559 280 L 408 280 324 276 328 364 328 507 327 559 324 595 365 592 421 592 580 592 579 664 409 664 310 659 310 770 422 764 579 764 577 824 573 867 691 867 688 833 688 764 866 764 982 770 982 659 880 664 688 664 688 634 688 592 839 592 935 595 Q 932 559 932 504 L 932 371 933 314 935 276 836 280 M 579 492 L 436 492 436 380 573 380 577 432 579 492 M 824 492 L 686 492 683 430 678 380 824 380 824 492 M 136 31 L 136 333 137 379 139 449 107 396 68 340 47 404 21 463 Q 93 544 145 655 196 766 212 871 L 325 844 283 713 244 617 244 30 249 -89 130 -89 136 31" horiz-adv-x="995"></glyph><glyph unicode="子" d="M 464 456 L 464 500 461 578 515 578 599 633 689 708 280 708 156 702 156 826 279 820 743 820 799 821 832 825 899 748 867 717 802 656 Q 722 582 584 499 L 584 456 835 456 974 462 974 338 835 344 584 344 584 46 Q 586 -21 550 -45 513 -70 413 -68 L 376 -67 298 -64 286 4 267 60 345 50 415 48 Q 471 44 464 74 L 464 344 189 344 112 342 50 338 50 462 192 456 464 456" horiz-adv-x="974"></glyph><glyph unicode="試" d="M 980 736 L 917 684 989 689 989 574 879 580 802 580 Q 810 319 851 194 867 145 884 111 901 77 909 76 914 75 918 92 L 923 144 926 209 966 174 1012 146 999 45 Q 992 8 981 -14 958 -64 915 -64 869 -63 825 -3 781 58 750 162 725 243 712 344 699 444 694 580 L 519 580 409 574 409 689 520 684 691 684 688 795 684 850 802 850 799 816 798 758 798 724 799 684 897 684 Q 856 747 799 804 L 873 861 Q 929 814 980 736 M 492 373 L 474 373 397 369 397 474 479 469 613 469 684 473 684 370 623 373 600 373 600 150 654 166 721 187 723 89 586 43 Q 531 26 438 4 L 404 -5 383 108 492 125 492 373 M 81 732 L 81 833 164 828 294 828 377 833 377 732 294 736 164 736 81 732 M 47 580 L 47 689 129 684 301 684 383 688 383 581 351 583 305 584 129 584 47 580 M 84 437 L 84 535 112 532 149 532 304 532 367 535 367 437 304 440 149 440 84 437 M 84 293 L 84 391 112 388 149 388 303 388 340 388 367 391 367 293 302 296 148 296 84 293 M 178 -84 L 79 -84 84 17 84 171 80 251 160 248 305 248 375 251 Q 372 230 372 176 L 372 2 376 -70 279 -70 279 -36 178 -36 178 -84 M 176 164 L 176 56 280 56 280 164 176 164" horiz-adv-x="1012"></glyph><glyph unicode="資" d="M 556 704 L 454 704 Q 414 661 356 618 325 662 288 685 412 771 451 870 L 558 850 541 822 519 788 821 788 906 792 967 745 943 710 902 655 853 605 Q 810 628 758 644 L 796 672 827 704 668 704 Q 714 553 993 539 L 969 491 950 438 902 447 857 459 856 371 856 180 860 73 750 76 702 76 Q 759 48 825 32 891 17 987 8 L 956 -32 924 -86 Q 812 -69 740 -43 667 -18 588 31 L 648 76 368 76 430 31 Q 354 -16 283 -42 213 -67 104 -87 L 75 -39 41 4 203 32 Q 265 49 315 76 L 274 76 164 73 168 174 168 377 164 483 270 480 323 480 Q 307 515 280 545 L 212 514 131 482 86 461 46 566 Q 154 588 299 658 L 330 568 293 551 Q 398 563 449 588 539 626 556 704 M 405 480 L 754 480 790 480 Q 668 522 615 614 581 555 519 521 476 495 405 480 M 276 404 L 276 367 748 367 748 404 276 404 M 276 300 L 276 259 748 259 748 300 276 300 M 276 192 L 276 156 748 156 748 192 276 192 M 306 755 L 236 671 156 727 Q 120 749 72 771 L 139 849 228 804 306 755" horiz-adv-x="993"></glyph><glyph unicode="事" d="M 448 304 L 448 348 205 348 111 344 111 435 207 431 448 431 448 468 231 468 145 465 148 533 148 599 145 671 232 668 448 668 448 704 168 704 48 698 48 802 174 795 448 795 446 835 442 865 567 865 562 836 560 795 846 795 972 802 972 698 852 704 560 704 560 668 790 668 875 671 Q 872 642 872 599 L 872 533 Q 872 493 877 465 L 794 468 560 468 560 431 787 431 856 432 899 434 897 397 896 339 896 304 985 309 985 211 896 216 896 156 Q 896 82 901 44 L 784 44 784 84 560 84 560 27 Q 563 -40 532 -63 501 -86 408 -84 L 310 -80 299 -29 278 21 408 12 Q 452 10 448 35 L 448 84 208 84 106 79 106 176 146 172 204 172 448 172 448 216 154 216 42 211 42 309 85 305 152 304 448 304 M 560 304 L 784 304 784 348 560 348 560 304 M 560 216 L 560 172 784 172 784 216 560 216 M 448 588 L 256 588 256 548 448 548 448 588 M 560 588 L 560 548 764 548 764 588 560 588" horiz-adv-x="985"></glyph><glyph unicode="持" d="M 856 452 L 856 364 873 364 973 369 973 258 873 264 856 264 856 17 Q 856 -34 830 -56 802 -85 711 -83 L 676 -82 617 -79 Q 610 -17 588 32 L 703 21 Q 748 18 744 49 L 744 264 489 264 374 259 374 350 323 327 284 312 284 19 Q 286 -42 257 -64 228 -86 148 -84 L 80 -82 72 -27 56 25 142 20 Q 179 17 176 51 L 176 272 127 254 105 246 65 232 48 347 95 356 176 381 176 568 130 568 55 564 55 674 131 668 176 668 176 753 175 810 170 856 290 856 Q 283 816 284 754 L 284 668 317 668 375 672 375 565 318 568 284 568 284 414 325 429 370 448 365 447 365 553 480 548 604 548 604 648 511 648 407 643 407 754 511 748 604 748 604 778 598 855 718 855 Q 712 821 712 779 L 712 748 831 748 936 754 936 643 832 648 712 648 712 548 859 548 975 554 975 447 856 452 M 744 452 L 480 452 423 451 375 449 375 369 489 364 744 364 744 452 M 419 192 L 508 250 571 178 629 95 539 28 487 113 419 192" horiz-adv-x="975"></glyph><glyph unicode="時" d="M 624 648 L 538 648 461 646 429 643 429 754 535 748 624 748 624 775 618 852 737 852 Q 732 820 732 775 L 732 748 844 748 951 754 951 643 845 648 732 648 732 556 874 556 986 562 986 451 886 456 868 456 868 368 882 368 983 373 983 262 882 268 868 268 868 38 Q 871 -45 826 -60 788 -77 714 -76 L 696 -76 633 -75 Q 630 -13 608 32 L 662 26 724 24 Q 765 21 760 51 L 760 268 516 268 408 262 408 373 519 368 760 368 760 456 519 456 407 451 407 562 520 556 624 556 624 648 M 80 104 L 80 701 76 807 112 805 168 804 292 804 346 804 383 805 381 768 380 702 380 119 381 57 383 17 276 17 276 68 183 68 183 -18 74 -18 80 104 M 184 704 L 184 492 276 492 276 704 184 704 M 184 396 L 184 168 276 168 276 396 184 396 M 668 101 L 577 32 Q 520 130 447 200 L 534 257 Q 605 194 668 101" horiz-adv-x="986"></glyph><glyph unicode="次" d="M 536 708 L 806 708 905 714 967 654 958 631 944 600 Q 913 523 880 467 847 411 799 352 L 757 385 705 416 Q 791 502 832 608 L 491 608 Q 460 546 425 496 390 447 340 393 304 442 255 476 415 618 463 858 L 586 837 575 810 555 757 536 708 M 53 741 L 141 814 234 736 317 649 229 566 148 658 53 741 M 282 394 L 353 305 Q 259 183 142 77 L 108 46 32 153 Q 57 165 121 221 L 205 300 282 394 M 524 561 L 644 561 640 518 Q 640 461 649 406 657 351 672 312 717 201 815 123 851 94 889 73 927 52 987 27 947 -25 922 -81 848 -41 802 -8 L 716 64 Q 624 156 586 275 551 158 480 73 404 -16 260 -83 L 234 -35 195 14 Q 315 60 391 141 526 282 528 515 L 524 561" horiz-adv-x="987"></glyph><glyph unicode="示" d="M 464 464 L 188 464 65 458 65 582 118 577 189 576 841 576 965 582 965 458 842 464 584 464 584 52 Q 587 -30 550 -49 525 -69 428 -68 L 312 -64 303 -3 283 52 411 40 456 44 Q 465 48 464 65 L 464 464 M 865 818 L 865 698 741 704 282 704 160 698 160 818 283 812 742 812 865 818 M 243 401 L 355 363 Q 319 255 269 166 218 78 145 -4 108 42 46 73 113 134 165 219 216 305 243 401 M 682 363 L 786 402 Q 812 338 837 291 863 244 900 194 L 945 138 997 85 Q 948 48 903 -3 822 92 775 169 729 246 682 363" horiz-adv-x="997"></glyph><glyph unicode="自" d="M 269 735 L 394 735 Q 427 801 441 871 L 569 858 517 735 754 735 826 736 881 740 877 687 876 612 876 39 877 -31 882 -80 763 -80 763 -28 259 -28 259 -80 142 -80 148 39 148 612 147 686 143 740 198 736 269 735 M 260 628 L 260 512 764 512 764 628 260 628 M 260 412 L 260 296 764 296 764 412 260 412 M 260 196 L 260 75 764 75 764 196 260 196" horiz-adv-x="882"></glyph><glyph unicode="辞" d="M 216 580 L 216 692 90 673 Q 78 723 49 770 160 778 257 801 353 824 407 854 L 466 758 457 755 430 746 380 729 324 714 324 580 395 580 485 584 485 476 396 480 324 480 324 352 373 352 447 355 Q 444 319 444 262 L 444 41 448 -56 336 -56 336 -12 193 -12 193 -75 79 -75 84 36 84 260 80 355 168 352 216 352 216 480 139 480 41 474 41 585 141 580 216 580 M 192 252 L 192 92 336 92 336 252 192 252 M 768 752 L 865 752 925 753 967 757 967 648 869 652 816 652 909 625 879 534 846 460 882 460 987 465 987 355 882 360 768 360 768 252 860 252 968 257 968 147 859 152 768 152 768 23 Q 768 -44 775 -85 L 650 -85 Q 657 -53 656 24 L 656 152 583 152 474 147 474 257 519 253 582 252 656 252 656 360 569 360 464 356 464 465 508 461 570 460 580 460 556 546 528 623 612 652 567 652 472 648 472 757 574 752 656 752 656 787 Q 657 831 651 859 L 773 859 Q 768 828 768 788 L 768 752 M 584 460 L 743 460 779 547 Q 792 587 805 652 L 620 652 652 562 674 489 584 460" horiz-adv-x="987"></glyph><glyph unicode="識" d="M 569 766 L 611 766 685 770 685 678 648 681 636 622 619 563 709 563 Q 706 647 706 754 706 827 700 853 L 810 853 Q 806 828 805 800 L 804 700 805 638 806 563 867 563 931 565 980 570 980 462 866 468 809 468 Q 814 352 825 274 875 368 886 430 L 974 381 961 357 938 306 Q 897 216 856 153 892 67 914 60 927 54 929 183 970 147 1008 129 998 33 984 -6 961 -63 922 -64 852 -61 790 65 726 -11 633 -83 601 -31 562 -4 L 618 32 459 32 459 -36 363 -36 Q 369 2 368 56 L 368 326 367 378 364 419 391 416 431 416 604 416 671 419 Q 668 394 668 325 L 668 93 669 78 669 73 752 165 Q 719 278 712 468 L 438 468 381 467 336 463 336 567 369 565 412 563 Q 406 621 389 681 L 355 678 355 770 420 766 469 766 469 771 Q 470 827 464 854 L 574 854 570 820 569 766 M 496 563 L 532 563 548 621 558 681 478 681 488 631 496 563 M 460 332 L 460 267 576 267 576 332 460 332 M 460 184 L 460 120 576 120 576 184 460 184 M 73 736 L 73 836 144 831 240 831 314 836 314 736 240 740 144 740 73 736 M 333 692 L 333 594 260 596 118 596 43 592 43 693 118 688 255 688 301 689 333 692 M 72 449 L 72 543 144 540 237 540 313 543 313 449 280 451 237 452 144 452 72 449 M 72 304 L 72 399 144 396 237 396 313 399 313 304 280 307 237 308 144 308 72 304 M 64 11 L 64 166 60 255 89 252 128 252 248 252 318 254 316 222 316 169 316 20 Q 316 -27 319 -66 L 232 -66 232 -32 148 -32 148 -83 59 -83 Q 65 -48 64 11 M 148 168 L 148 56 233 56 233 168 148 168 M 824 779 L 896 815 Q 944 744 976 660 L 899 616 867 702 824 779" horiz-adv-x="1008"></glyph><glyph unicode="実" d="M 450 504 L 259 504 163 499 163 554 67 554 Q 73 585 72 629 L 72 703 68 780 182 776 448 776 448 799 442 864 569 864 Q 564 835 564 799 L 564 776 845 776 909 777 960 780 956 705 956 629 960 554 865 554 865 499 767 504 561 504 560 472 559 447 751 447 806 448 842 451 842 352 805 355 751 356 553 356 545 300 865 300 972 305 972 198 860 204 598 204 645 153 693 118 Q 764 75 874 48 L 989 25 Q 955 -25 935 -86 L 823 -57 743 -27 Q 661 9 604 55 546 101 499 168 447 68 349 7 297 -26 240 -47 182 -69 98 -85 L 75 -28 44 21 173 47 Q 223 61 267 84 354 128 397 204 L 171 204 60 198 60 305 165 300 433 300 442 356 269 356 215 355 177 352 177 451 214 448 269 447 449 447 450 476 450 504 M 259 596 L 451 596 447 659 567 659 Q 564 648 563 596 L 767 596 848 599 848 680 180 680 180 599 259 596" horiz-adv-x="989"></glyph><glyph unicode="取" d="M 480 38 L 480 22 Q 480 -54 486 -88 L 366 -88 372 22 372 118 Q 219 72 152 59 L 70 38 41 154 120 165 120 724 81 722 52 720 52 833 144 828 459 828 552 833 552 770 617 768 886 768 969 773 962 707 Q 937 437 815 220 856 163 900 123 945 82 1013 40 972 -20 951 -75 876 -21 833 21 789 62 749 119 705 60 659 17 L 543 -76 Q 519 -13 480 38 M 480 724 L 480 39 Q 552 82 596 121 640 160 685 219 636 310 609 402 593 456 583 512 572 568 562 661 L 519 657 519 723 480 724 M 848 664 L 667 664 Q 681 543 700 471 718 399 752 328 786 396 809 474 831 552 848 664 M 228 724 L 228 612 372 612 372 724 228 724 M 228 520 L 228 416 372 416 372 520 228 520 M 228 320 L 228 188 300 202 372 220 372 320 228 320" horiz-adv-x="1013"></glyph><glyph unicode="殊" d="M 154 344 L 204 421 279 357 297 434 308 520 213 520 Q 161 370 88 286 L 60 337 27 379 Q 85 449 122 559 L 144 633 160 720 135 720 54 715 54 825 151 820 337 820 436 825 436 716 360 720 260 720 251 662 240 612 333 612 419 616 415 594 412 550 Q 390 305 301 144 266 79 221 27 177 -25 111 -80 86 -33 37 11 112 66 158 123 205 179 241 257 L 196 309 154 344 M 644 696 L 644 775 643 835 640 863 753 863 749 775 749 696 852 696 950 701 950 591 853 596 749 596 749 460 883 460 982 466 982 355 891 360 778 360 Q 864 201 1016 96 976 36 961 -16 888 48 838 110 788 172 745 249 L 748 155 748 18 Q 748 -52 753 -86 L 638 -86 644 18 644 155 645 195 647 244 Q 597 151 541 87 486 23 407 -34 380 15 337 52 516 171 610 360 L 518 360 425 355 425 465 453 462 524 460 644 460 644 596 556 596 538 548 513 495 474 518 421 540 Q 475 635 494 757 L 498 789 499 822 601 807 591 743 583 696 644 696" horiz-adv-x="1016"></glyph><glyph unicode="種" d="M 361 598 L 361 492 296 496 281 496 Q 307 442 327 411 348 379 376 350 344 307 329 255 L 299 306 271 367 273 337 274 306 275 274 276 236 276 35 277 -34 281 -87 166 -87 172 34 172 196 173 242 174 271 178 336 Q 144 219 71 114 51 175 19 220 L 74 300 120 388 Q 149 451 162 496 L 119 496 45 491 45 600 121 596 172 596 172 712 131 703 74 693 Q 59 743 35 788 170 801 288 847 L 326 867 380 777 326 756 276 739 276 596 297 596 352 597 352 693 447 688 600 688 600 731 522 727 417 725 Q 403 775 379 813 L 462 811 710 826 Q 830 839 886 860 L 955 772 924 765 Q 838 748 700 737 L 700 688 875 688 978 694 978 596 882 600 700 600 700 560 830 560 931 562 929 527 928 475 928 313 929 256 931 217 892 219 841 220 700 220 700 172 839 172 943 177 943 80 839 84 700 84 700 36 870 36 983 41 983 -58 865 -52 444 -52 331 -58 331 40 442 36 600 36 600 84 468 84 367 81 367 176 408 173 469 172 600 172 600 220 473 220 385 217 388 315 388 473 387 526 385 562 481 560 600 560 600 600 449 600 361 598 M 600 476 L 484 476 484 427 600 427 600 476 M 600 352 L 484 352 484 304 600 304 600 352 M 700 304 L 828 304 828 352 700 352 700 304 M 700 427 L 828 427 828 476 700 476 700 427" horiz-adv-x="983"></glyph><glyph unicode="終" d="M 432 326 L 384 302 373 350 330 345 312 343 312 19 313 -42 318 -88 206 -88 212 20 212 334 156 329 118 327 82 324 58 321 46 425 98 423 117 423 127 424 156 460 185 498 Q 117 586 48 653 L 103 741 120 722 137 703 Q 197 806 212 872 L 314 835 299 808 243 700 200 629 239 578 Q 324 708 339 757 L 430 706 395 651 319 538 235 426 298 430 348 434 335 471 318 511 394 546 428 466 456 385 Q 551 424 629 482 586 528 549 587 L 514 552 460 508 Q 433 561 393 594 474 645 534 737 586 814 599 869 L 711 835 675 772 803 772 893 777 944 715 901 641 845 553 786 484 Q 834 450 886 426 938 401 1015 377 976 331 953 268 870 304 813 337 756 369 704 411 594 320 460 268 L 449 296 432 326 M 800 676 L 620 676 614 666 657 602 706 551 754 604 800 676 M 82 287 L 173 271 162 104 Q 155 37 137 -36 L 43 9 60 70 71 134 80 213 82 287 M 340 266 L 419 287 440 183 460 43 372 17 Q 365 143 340 266 M 885 215 L 829 117 Q 709 200 571 253 L 631 341 770 279 885 215 M 934 16 L 889 -90 Q 799 -43 708 -11 L 483 54 534 156 727 97 Q 813 68 934 16" horiz-adv-x="1015"></glyph><glyph unicode="集" d="M 592 436 L 592 388 834 388 933 392 933 303 835 308 564 308 564 252 855 252 926 253 972 257 972 154 855 160 651 160 Q 712 116 802 82 891 48 990 31 L 952 -30 941 -55 932 -75 Q 816 -45 727 0 674 26 636 53 598 79 561 115 L 564 47 564 -12 Q 563 -62 570 -86 L 446 -86 Q 453 -58 452 -13 L 452 47 455 115 Q 385 41 270 -10 191 -48 88 -74 64 -17 30 29 95 39 147 55 199 70 252 94 321 125 362 160 L 165 160 49 154 49 257 94 253 165 252 452 252 452 308 252 308 164 305 168 387 168 512 Q 168 558 171 600 133 554 77 512 55 569 24 612 138 690 212 810 234 845 245 877 L 363 858 327 800 308 772 488 772 Q 525 823 542 875 L 659 861 629 808 606 772 826 772 926 777 926 680 841 684 592 684 592 636 789 636 845 637 886 641 886 556 847 559 789 560 592 560 592 512 789 512 845 513 886 517 886 432 847 435 789 436 592 436 M 484 436 L 276 436 276 388 484 388 484 436 M 484 512 L 484 560 276 560 276 512 484 512 M 484 636 L 484 684 276 684 276 636 484 636" horiz-adv-x="990"></glyph><glyph unicode="出" d="M 448 528 L 448 752 Q 448 820 442 853 L 570 853 Q 564 816 564 752 L 564 528 780 528 780 695 776 776 901 776 Q 896 736 896 686 L 896 482 Q 896 442 901 417 L 828 420 564 420 564 88 816 88 816 256 Q 817 306 811 342 L 937 342 Q 933 304 932 246 L 932 26 Q 932 -42 938 -77 L 816 -77 816 -24 208 -24 208 -77 86 -77 92 26 92 242 87 339 213 339 Q 208 307 208 252 L 208 88 448 88 448 420 200 420 125 417 128 482 128 685 Q 129 739 123 776 L 248 776 244 694 244 528 448 528" horiz-adv-x="938"></glyph><glyph unicode="純" d="M 56 322 L 46 426 93 422 118 422 147 460 174 495 108 577 42 647 96 733 129 697 Q 191 800 207 866 L 308 827 294 803 267 755 228 686 190 627 213 601 231 580 Q 310 704 329 757 L 422 709 528 715 640 730 640 762 Q 641 814 634 856 L 750 856 Q 743 818 744 764 L 744 749 Q 846 774 903 805 L 970 712 947 705 907 692 822 666 744 648 744 308 840 308 840 494 836 576 945 576 Q 941 535 940 487 L 940 302 941 246 944 207 830 212 744 212 744 59 Q 743 38 753 32 L 801 28 Q 868 26 877 51 L 888 83 893 158 Q 928 139 950 131 971 123 998 117 L 987 37 971 -9 Q 955 -44 915 -58 876 -73 799 -72 706 -73 672 -55 638 -38 640 12 L 640 212 560 212 560 142 455 142 459 185 460 243 460 462 Q 461 512 455 556 L 564 556 560 471 560 308 640 308 640 629 551 618 450 609 Q 444 653 416 701 L 391 662 Q 312 534 225 426 L 287 430 345 436 332 477 316 517 385 542 424 438 452 338 375 308 368 348 334 344 304 342 304 22 305 -40 310 -88 198 -88 203 -40 204 22 204 334 174 332 122 329 56 322 M 82 290 L 174 276 157 109 128 -30 38 14 Q 59 74 68 135 78 195 82 290 M 326 272 L 401 292 424 173 439 51 360 29 348 154 326 272" horiz-adv-x="998"></glyph><glyph unicode="処" d="M 276 736 L 386 736 469 740 467 715 464 679 Q 456 528 432 426 409 325 360 229 422 133 497 101 592 55 812 56 L 1006 64 Q 992 30 985 4 L 975 -56 908 -59 841 -60 693 -54 560 -35 Q 410 -7 303 135 257 70 209 19 L 93 -88 Q 69 -22 29 16 104 72 154 124 204 175 244 236 L 204 323 173 413 137 345 92 278 64 337 27 384 Q 105 481 147 628 L 174 749 185 848 183 864 297 854 286 796 276 736 M 358 636 L 254 636 229 550 265 427 299 342 Q 324 403 337 469 350 535 358 636 M 728 704 L 637 704 632 500 Q 627 420 616 355 603 284 583 230 562 177 524 122 L 484 163 433 199 Q 494 269 515 379 536 488 535 731 L 531 812 607 808 742 808 836 812 832 717 832 273 Q 829 254 857 256 887 250 890 292 L 895 349 899 451 Q 943 427 987 420 984 325 977 271 971 217 959 192 942 145 849 148 778 147 752 164 727 180 728 226 L 728 704" horiz-adv-x="1006"></glyph><glyph unicode="初" d="M 581 688 L 559 688 438 682 438 794 559 788 855 788 954 793 950 744 946 574 Q 938 151 906 34 890 -21 850 -40 821 -57 747 -56 L 706 -55 639 -52 631 12 615 63 744 52 Q 775 50 788 67 801 83 808 133 L 821 238 830 371 834 500 836 688 694 688 Q 692 564 682 475 672 386 652 309 615 164 528 48 L 481 -9 418 -72 Q 385 -14 337 25 440 104 490 207 529 282 550 365 571 449 578 559 L 580 610 581 688 M 292 302 L 296 286 296 44 Q 296 -39 303 -82 L 182 -82 188 44 188 237 188 262 187 288 Q 142 243 72 193 55 247 18 296 103 347 168 414 L 239 498 299 600 151 600 58 595 58 705 99 701 153 700 188 700 188 775 182 859 302 859 Q 295 832 296 775 L 296 700 317 700 389 704 437 644 414 600 Q 374 510 303 415 L 339 381 398 456 Q 420 489 438 526 L 516 465 452 376 409 326 473 285 Q 442 251 416 199 343 251 292 302" horiz-adv-x="954"></glyph><glyph unicode="所" d="M 776 440 L 657 440 Q 653 347 642 281 631 214 611 160 579 68 521 -6 L 455 -82 Q 418 -31 368 3 428 57 463 110 497 164 516 229 532 286 540 378 548 469 548 607 L 547 711 544 770 Q 645 772 753 797 861 822 926 858 L 985 751 937 737 799 699 660 674 660 548 890 548 947 549 990 554 990 435 900 440 884 440 884 34 885 -29 890 -76 770 -76 776 35 776 440 M 64 703 L 64 821 177 816 396 816 466 817 510 821 510 703 402 708 171 708 64 703 M 480 543 L 480 366 481 316 482 282 380 284 213 284 Q 207 159 186 77 165 -5 119 -81 78 -30 27 0 74 76 92 182 109 289 108 493 L 107 575 103 635 153 633 215 632 377 632 483 635 Q 480 603 480 543 M 215 384 L 372 384 372 536 216 536 216 462 216 419 215 384" horiz-adv-x="990"></glyph><glyph unicode="書" d="M 452 700 L 452 732 244 732 143 728 143 818 257 812 452 812 450 841 446 868 567 868 Q 561 845 560 812 L 763 812 879 816 Q 876 795 876 729 L 876 700 884 700 978 705 978 615 881 620 876 620 876 581 Q 876 531 879 509 L 769 512 560 512 560 479 802 479 911 484 911 395 802 400 560 400 560 368 856 368 975 374 975 278 856 284 166 284 47 278 47 374 166 368 452 368 452 400 223 400 116 395 116 484 223 479 452 479 452 512 244 512 142 508 142 592 244 588 452 588 452 620 165 620 47 615 47 705 165 700 452 700 M 768 620 L 560 620 560 588 768 588 768 620 M 768 700 L 768 732 560 732 560 700 768 700 M 168 23 L 168 155 167 219 165 257 204 256 275 255 750 255 822 256 860 257 Q 856 232 856 155 L 856 24 Q 856 -52 862 -83 L 748 -83 748 -48 276 -48 276 -83 163 -83 168 23 M 276 176 L 276 140 748 140 748 176 276 176 M 276 68 L 276 32 748 32 748 68 276 68" horiz-adv-x="978"></glyph><glyph unicode="少" d="M 454 854 L 582 854 Q 576 811 576 731 L 576 355 Q 578 293 540 270 502 247 400 248 L 333 250 325 306 307 363 409 352 Q 466 349 460 375 L 460 730 Q 460 816 454 854 M 680 685 L 786 731 Q 802 669 845 599 897 506 1002 427 962 384 927 325 851 394 802 460 754 526 708 626 L 680 685 M 233 727 L 346 685 335 657 328 635 291 541 246 449 195 365 125 278 79 328 34 368 Q 135 462 196 606 218 656 233 727 M 744 416 L 849 340 829 318 803 281 Q 706 144 549 46 465 -6 374 -39 284 -72 163 -94 L 137 -34 103 21 Q 222 39 309 66 396 93 473 137 641 232 721 369 L 744 416" horiz-adv-x="1002"></glyph><glyph unicode="照" d="M 400 558 L 400 309 Q 400 230 403 204 L 300 208 187 208 85 204 89 310 89 722 85 828 192 824 318 824 403 826 Q 400 800 400 736 L 400 564 Q 457 585 499 616 564 657 578 725 L 530 725 431 720 431 830 546 824 859 824 959 828 956 798 953 736 Q 945 589 915 556 898 533 870 524 L 791 516 705 519 696 575 681 623 740 615 789 612 Q 819 609 829 630 839 651 842 725 L 685 725 Q 663 636 606 576 565 528 468 486 L 542 484 827 484 932 488 928 384 928 285 932 181 831 184 561 184 452 181 456 276 456 398 456 452 454 485 432 521 400 558 M 192 724 L 192 568 301 568 301 724 192 724 M 192 472 L 192 308 301 308 301 472 192 472 M 564 388 L 564 280 816 280 816 388 564 388 M 138 -86 L 43 -19 Q 95 29 122 69 150 108 174 168 L 270 126 Q 241 55 213 10 185 -36 138 -86 M 458 -62 L 349 -73 350 -36 346 44 333 133 434 146 450 48 458 -62 M 697 -52 L 588 -72 Q 581 -14 570 31 L 541 131 641 151 671 63 697 -52 M 984 -27 L 884 -85 821 32 Q 794 77 756 123 L 846 170 918 79 984 -27" horiz-adv-x="984"></glyph><glyph unicode="詳" d="M 526 660 L 717 660 Q 770 750 806 860 L 916 820 865 719 830 660 875 660 967 665 967 555 866 560 744 560 744 460 845 460 942 465 942 359 846 364 744 364 744 248 877 248 984 253 984 138 879 144 744 144 744 36 Q 744 -33 750 -87 L 626 -87 632 35 632 144 537 144 431 139 431 253 538 248 632 248 632 364 555 364 462 359 462 465 555 460 632 460 632 560 536 560 438 555 438 665 475 661 526 660 M 80 728 L 80 832 119 828 168 827 308 827 358 828 396 832 396 728 308 732 168 732 80 728 M 47 580 L 47 689 130 684 333 684 417 688 417 581 386 583 337 584 130 584 47 580 M 84 437 L 84 531 153 528 330 528 369 528 397 531 397 437 367 439 330 440 153 440 115 439 84 437 M 84 293 L 84 387 153 384 330 384 369 384 397 387 397 293 328 296 152 296 114 295 84 293 M 183 -88 L 74 -88 80 12 80 163 Q 81 206 75 244 L 155 240 328 240 372 240 399 243 Q 396 218 396 169 L 396 6 400 -75 296 -75 296 -40 183 -40 183 -88 M 180 152 L 180 52 296 52 296 152 180 152 M 652 708 L 554 663 Q 522 748 477 816 L 571 860 613 791 652 708" horiz-adv-x="984"></glyph><glyph unicode="上" d="M 544 444 L 544 68 839 68 977 74 977 -51 841 -44 191 -44 49 -51 49 74 191 68 424 68 424 731 Q 425 792 417 849 L 551 849 Q 544 796 544 731 L 544 556 785 556 904 562 904 438 785 444 544 444" horiz-adv-x="977"></glyph><glyph unicode="場" d="M 538 228 L 457 228 400 184 Q 373 166 330 143 L 291 196 Q 249 170 202 147 L 86 91 72 83 62 78 37 195 Q 77 203 152 235 L 152 508 123 508 43 503 43 613 124 608 152 608 152 735 146 848 266 848 Q 259 807 260 734 L 260 608 279 608 351 612 351 504 280 508 260 508 260 287 293 304 329 325 329 254 Q 410 302 452 360 L 429 360 333 354 333 457 430 452 878 452 984 458 984 355 879 360 566 360 539 316 863 316 921 317 963 319 959 258 Q 950 60 917 -16 903 -51 871 -64 L 773 -76 687 -73 Q 682 -20 660 21 L 582 -40 Q 543 -66 492 -92 463 -47 416 -14 483 14 525 38 L 604 95 Q 665 145 710 228 L 649 228 Q 561 92 364 8 342 49 298 85 385 116 442 150 499 183 538 228 M 853 228 L 815 228 Q 786 165 752 119 719 73 672 32 L 777 24 Q 828 18 835 77 846 125 853 228 M 811 496 L 489 496 392 492 396 593 396 746 395 798 392 841 439 837 498 836 794 836 904 841 901 798 900 738 900 593 904 493 811 496 M 504 744 L 504 700 792 700 792 744 504 744 M 504 624 L 504 580 792 580 792 624 504 624" horiz-adv-x="984"></glyph><glyph unicode="情" d="M 268 638 L 268 43 Q 268 -32 274 -85 L 153 -85 Q 161 -29 160 46 L 160 752 Q 161 815 153 862 L 274 862 269 812 268 752 268 669 329 691 355 634 381 559 353 546 440 543 588 543 588 584 476 584 428 583 388 580 388 672 427 669 477 668 588 668 588 704 460 704 399 703 358 699 358 798 402 793 465 792 588 792 Q 589 832 582 861 L 702 861 Q 695 832 696 792 L 854 792 917 793 960 798 960 699 856 704 696 704 696 668 841 668 891 669 927 672 927 580 839 584 696 584 696 543 876 543 978 548 978 446 876 452 440 452 336 446 336 538 304 523 Q 290 583 268 638 M 492 76 L 492 35 Q 492 -38 498 -83 L 379 -83 383 -34 384 35 384 325 381 414 464 411 824 411 916 415 912 308 912 25 Q 914 -34 885 -56 857 -77 781 -76 L 745 -75 688 -72 679 -19 664 28 765 20 Q 809 17 804 43 L 804 76 492 76 M 492 160 L 804 160 804 200 492 200 492 160 M 492 284 L 804 284 804 324 492 324 492 284 M 106 357 L 24 391 Q 43 457 50 517 L 58 664 139 645 Q 137 484 106 357" horiz-adv-x="978"></glyph><glyph unicode="親" d="M 332 436 L 332 364 403 364 491 369 491 260 410 264 359 264 Q 390 222 419 197 L 494 147 463 111 435 66 Q 366 118 330 177 L 332 152 333 109 333 9 Q 334 -52 338 -81 L 224 -81 227 -43 229 7 229 94 231 159 Q 199 100 171 65 143 29 100 -6 70 44 30 77 148 158 200 264 L 141 264 91 263 52 259 52 369 141 364 228 364 228 436 141 436 52 431 52 541 138 536 157 536 Q 144 592 120 643 L 202 672 139 672 71 667 71 777 157 772 227 772 227 783 222 858 341 858 Q 336 831 336 783 L 336 772 403 772 491 777 491 668 421 672 208 672 228 623 247 563 167 536 305 536 Q 338 600 354 671 L 448 644 425 587 400 536 415 536 495 540 495 432 407 436 332 436 M 593 252 L 580 252 516 249 519 292 520 356 520 727 515 828 618 823 840 823 940 828 936 716 936 357 940 248 845 252 840 252 840 54 Q 839 34 865 36 896 32 903 54 910 76 909 173 L 957 148 1002 132 Q 999 13 982 -24 966 -71 852 -68 783 -69 759 -54 735 -40 736 2 L 736 252 697 252 Q 686 124 631 44 576 -36 459 -91 L 429 -43 390 -2 Q 506 41 552 116 590 170 593 252 M 624 724 L 624 656 828 656 828 724 624 724 M 624 568 L 624 500 828 500 828 568 624 568 M 624 412 L 624 344 828 344 828 412 624 412" horiz-adv-x="1002"></glyph><glyph unicode="身" d="M 700 56 L 700 220 Q 445 26 120 -78 97 -19 62 26 213 67 335 121 457 174 571 252 L 406 232 290 221 150 210 85 202 70 312 103 310 124 310 208 314 208 680 204 780 252 777 317 776 399 776 Q 427 820 445 876 L 564 861 517 776 705 776 772 777 817 780 Q 812 738 812 667 L 812 451 Q 878 522 904 566 L 981 488 Q 963 473 932 435 881 373 812 311 L 812 26 Q 814 -29 779 -51 745 -73 659 -72 L 629 -72 548 -69 Q 545 -18 521 46 L 590 37 637 36 Q 708 34 700 56 M 320 536 L 320 480 700 480 700 536 320 536 M 700 624 L 700 680 320 680 320 624 700 624 M 320 392 L 320 320 480 332 578 340 700 353 700 392 320 392" horiz-adv-x="981"></glyph><glyph unicode="辛" d="M 444 748 L 444 770 Q 445 830 438 861 L 571 861 Q 564 828 564 770 L 564 748 816 748 925 754 925 639 818 644 681 644 782 612 744 529 705 460 855 460 974 466 974 350 855 356 564 356 564 244 826 244 934 249 934 134 826 140 564 140 564 23 Q 564 -49 571 -87 L 438 -87 444 24 444 140 201 140 92 134 92 249 201 244 444 244 444 356 169 356 50 350 50 466 169 460 308 460 Q 283 535 242 607 L 328 644 208 644 98 639 98 754 207 748 444 748 M 340 460 L 590 460 634 545 Q 651 585 668 644 L 340 644 381 565 413 489 340 460" horiz-adv-x="974"></glyph><glyph unicode="進" d="M 744 300 L 744 216 867 216 971 221 971 115 868 120 467 120 413 119 372 116 375 160 376 220 376 477 378 537 Q 352 498 316 463 L 285 514 251 553 Q 325 621 369 682 414 743 446 820 L 461 865 576 846 560 814 545 780 515 724 640 724 Q 686 795 708 861 L 821 841 796 796 754 724 861 724 962 729 962 624 875 628 744 628 744 552 827 552 891 553 931 556 931 461 889 463 827 464 744 464 744 388 827 388 891 389 931 392 931 297 889 299 827 300 744 300 M 636 300 L 484 300 484 216 636 216 636 300 M 636 388 L 636 464 484 464 484 388 636 388 M 636 552 L 636 628 484 628 484 552 636 552 M 56 770 L 136 847 Q 244 754 315 660 L 230 577 148 679 Q 112 720 56 770 M 47 363 L 47 473 84 469 129 468 206 468 284 473 280 362 280 148 Q 309 91 354 73 387 57 440 51 L 578 44 Q 722 44 825 49 L 1006 66 Q 993 29 987 4 L 976 -58 814 -63 627 -64 454 -59 Q 392 -54 355 -41 281 -18 228 56 L 171 3 109 -46 75 -73 25 47 Q 81 70 172 148 L 172 368 116 368 47 363" horiz-adv-x="1006"></glyph><glyph unicode="須" d="M 514 116 L 483 116 401 113 404 212 404 229 Q 334 130 261 62 188 -7 90 -65 66 -8 25 40 137 97 219 186 279 245 313 307 L 404 236 404 565 400 659 434 657 487 656 573 656 605 728 482 728 374 724 374 779 324 728 290 698 Q 197 618 88 561 61 621 30 665 92 693 135 720 177 746 216 780 264 824 289 862 L 374 797 374 834 493 827 857 827 978 834 978 724 867 728 719 728 686 656 831 656 893 657 932 659 928 561 928 221 932 113 841 116 777 116 Q 822 78 868 56 914 34 996 9 961 -37 941 -90 860 -62 805 -30 750 3 685 60 L 763 116 536 116 601 60 Q 542 8 484 -25 427 -59 341 -92 318 -44 279 2 362 27 413 51 464 76 514 116 M 512 564 L 512 508 820 508 820 564 512 564 M 512 420 L 512 364 820 364 820 420 512 420 M 512 276 L 512 216 820 216 820 276 512 276 M 304 594 L 395 521 378 504 345 469 Q 228 346 83 271 65 319 28 379 85 404 127 430 L 211 493 Q 268 541 304 594" horiz-adv-x="996"></glyph><glyph unicode="数" d="M 994 689 L 994 580 965 583 922 584 Q 916 458 891 361 866 265 818 182 897 79 1012 23 979 -22 953 -86 836 -16 753 90 655 -23 521 -93 L 495 -34 466 9 514 34 547 53 Q 634 110 692 181 657 244 638 298 619 351 606 422 L 584 388 559 354 Q 527 397 485 428 578 542 623 725 L 640 801 648 864 761 841 Q 756 830 746 785 L 720 684 898 684 994 689 M 818 584 L 686 584 672 552 Q 684 473 703 411 722 348 754 284 784 348 799 419 814 490 818 584 M 496 67 L 437 -29 391 5 341 34 Q 294 -9 239 -36 183 -64 95 -88 74 -37 42 6 L 157 38 Q 204 56 245 82 L 177 111 93 142 130 194 160 244 130 244 49 239 49 345 130 340 207 340 220 371 234 412 341 391 320 340 482 340 558 345 558 239 475 244 448 171 Q 436 144 413 113 L 457 91 496 67 M 368 244 L 270 244 253 216 234 186 282 169 322 153 Q 354 193 368 244 M 364 668 L 489 668 555 671 555 577 489 580 421 580 Q 442 551 511 514 L 481 479 451 430 396 480 360 528 363 486 363 449 367 411 256 411 259 445 259 483 262 528 Q 223 474 188 439 152 405 95 367 L 66 411 29 452 Q 147 510 193 580 L 137 580 52 575 52 673 138 668 260 668 260 789 Q 261 832 255 858 L 368 858 364 791 364 668 M 78 815 L 165 848 208 780 237 713 147 679 117 751 78 815 M 456 850 L 549 812 507 731 471 674 384 713 Q 432 778 456 850" horiz-adv-x="1012"></glyph><glyph unicode="制" d="M 289 632 L 179 632 162 593 142 552 93 580 44 603 Q 109 708 126 807 L 131 846 235 827 224 786 211 732 289 732 289 760 287 818 283 860 402 860 Q 398 842 397 820 L 396 762 396 732 483 732 585 737 585 628 483 632 396 632 396 544 516 544 609 548 609 439 512 444 396 444 396 364 496 364 591 368 Q 588 338 588 274 L 588 70 Q 589 23 564 5 539 -13 474 -12 L 427 -10 421 42 408 88 463 84 Q 490 82 489 101 L 489 264 396 264 396 23 Q 395 -54 401 -88 L 283 -88 287 -41 289 24 289 264 192 264 192 82 196 -18 83 -18 87 21 88 83 88 270 84 369 185 364 289 364 289 444 161 444 54 439 54 549 146 544 289 544 289 632 M 643 788 L 761 788 Q 755 753 756 681 L 756 265 757 198 761 157 644 157 648 197 649 266 649 679 643 788 M 839 856 L 959 856 Q 952 819 952 732 L 952 46 Q 954 -31 918 -52 900 -65 873 -71 L 796 -76 698 -73 687 -14 666 38 800 28 Q 849 25 844 59 L 844 729 839 856" horiz-adv-x="959"></glyph><glyph unicode="成" d="M 811 545 L 921 503 913 485 898 449 Q 835 291 760 193 789 139 821 105 853 72 868 68 873 67 881 87 L 889 120 900 207 943 168 992 138 Q 959 -65 877 -60 836 -59 783 -14 730 31 684 105 571 -8 436 -74 L 399 -23 359 15 Q 519 80 634 204 602 281 584 379 565 477 557 612 L 240 612 239 521 238 476 426 476 499 480 493 393 479 200 Q 472 141 459 112 440 53 327 56 L 249 59 240 115 222 168 281 161 322 160 Q 365 156 368 191 380 248 383 376 L 234 376 221 230 202 120 Q 189 60 170 16 L 118 -80 Q 77 -26 29 7 81 85 100 169 130 298 130 573 L 129 661 124 721 256 716 553 716 550 796 549 834 545 860 667 860 Q 662 821 662 763 L 662 740 662 716 797 716 Q 762 765 707 810 L 786 860 840 810 889 753 836 716 867 716 975 722 975 607 850 612 666 612 Q 679 415 713 305 791 433 811 545" horiz-adv-x="992"></glyph><glyph unicode="生" d="M 464 556 L 255 556 Q 196 432 116 341 79 396 32 428 150 550 205 726 L 228 822 344 793 335 766 325 733 297 656 464 656 464 734 Q 465 807 457 856 L 590 856 Q 584 811 584 735 L 584 656 797 656 935 662 935 550 800 556 584 556 584 368 761 368 887 374 887 262 761 268 584 268 584 52 830 52 972 59 972 -59 833 -52 204 -52 59 -59 59 59 201 52 464 52 464 268 307 268 183 262 183 374 306 368 464 368 464 556" horiz-adv-x="972"></glyph><glyph unicode="静" d="M 545 516 L 545 596 516 569 Q 493 610 457 637 L 457 581 390 584 332 584 332 540 412 540 458 541 491 544 491 448 458 451 409 452 123 452 39 448 39 545 122 540 228 540 228 584 151 584 84 581 84 667 114 664 152 663 228 663 228 708 138 708 91 707 58 704 58 796 142 792 228 792 228 799 224 863 336 863 332 800 332 792 399 792 484 796 484 704 406 708 332 708 332 663 392 663 430 664 457 668 457 656 Q 585 751 624 873 L 735 854 725 838 701 792 804 792 867 796 909 751 864 685 838 645 817 616 862 616 948 620 944 530 944 440 996 445 996 336 944 340 944 219 Q 944 161 949 119 L 840 119 840 160 756 160 756 18 Q 758 -40 729 -61 701 -82 619 -80 L 559 -79 Q 554 -14 530 34 L 621 28 Q 652 25 649 50 L 649 160 602 160 523 156 523 260 600 256 649 256 649 340 571 340 497 336 497 444 570 440 649 440 649 520 620 520 545 516 M 764 700 L 640 700 601 654 565 618 621 616 700 616 Q 734 651 764 700 M 756 256 L 841 256 841 340 756 340 756 256 M 841 440 L 841 520 756 520 756 440 841 440 M 357 92 L 192 92 192 20 Q 191 -43 197 -86 L 83 -86 89 28 89 328 84 418 116 416 165 416 377 416 432 416 463 419 461 381 460 321 460 18 Q 461 -39 438 -60 414 -81 350 -80 L 292 -78 Q 288 -21 273 17 L 335 12 Q 359 10 357 33 L 357 92 M 357 291 L 357 332 192 332 192 291 357 291 M 357 212 L 192 212 192 171 357 171 357 212" horiz-adv-x="996"></glyph><glyph unicode="切" d="M 586 692 L 483 692 398 688 398 802 531 796 864 796 969 800 965 748 962 668 957 501 Q 950 324 936 200 921 76 899 20 870 -62 748 -60 L 698 -59 645 -56 Q 640 9 620 59 L 730 48 Q 774 45 790 65 806 85 816 154 835 258 843 404 L 847 471 849 545 851 692 700 692 Q 695 539 682 446 669 353 641 273 600 141 507 33 L 450 -26 373 -83 335 -39 282 4 Q 407 68 470 169 558 300 577 509 L 583 584 586 692 M 140 479 L 111 474 Q 68 465 32 453 L 24 564 99 574 140 582 140 751 139 809 135 850 257 850 Q 252 822 252 758 L 252 605 396 635 467 653 474 544 400 531 252 502 252 245 Q 248 216 283 220 333 219 343 243 355 272 358 394 406 369 458 356 453 260 440 214 427 168 400 146 361 111 253 112 187 111 163 132 139 153 140 210 L 140 479" horiz-adv-x="969"></glyph><glyph unicode="説" d="M 538 336 L 522 336 445 332 448 405 448 582 444 664 531 660 716 660 763 756 801 866 916 829 867 721 833 660 864 660 947 664 944 586 944 402 Q 944 363 947 332 L 869 336 812 336 812 52 Q 807 25 852 28 879 29 887 37 901 53 900 139 L 900 175 Q 956 141 997 131 993 49 986 13 979 -23 966 -41 945 -78 833 -76 757 -77 730 -58 703 -38 704 17 L 704 336 640 336 Q 637 165 598 75 558 -16 454 -89 427 -50 396 -20 L 398 -60 300 -60 300 -28 190 -28 190 -80 83 -80 88 20 88 172 84 252 154 248 338 248 399 251 Q 396 226 396 177 L 396 9 Q 497 74 521 177 L 533 245 538 336 M 188 160 L 188 64 300 64 300 160 188 160 M 552 556 L 552 436 832 436 832 556 552 556 M 89 732 L 89 836 126 832 174 831 314 831 360 832 396 836 396 732 314 736 174 736 89 732 M 49 584 L 49 693 132 688 336 688 417 692 417 584 387 587 340 588 132 588 49 584 M 89 441 L 89 538 155 535 331 535 393 538 393 441 331 444 155 444 89 441 M 89 297 L 89 394 155 391 330 391 393 394 393 297 329 300 154 300 89 297 M 655 715 L 558 664 522 742 473 818 574 866 620 791 655 715" horiz-adv-x="997"></glyph><glyph unicode="先" d="M 460 596 L 253 596 206 533 149 472 106 513 62 545 Q 110 589 141 627 171 665 196 714 233 782 246 849 L 364 822 345 776 325 729 314 704 460 704 460 758 454 858 582 858 Q 575 816 576 758 L 576 704 791 704 902 710 902 590 791 596 576 596 576 460 861 460 976 466 976 342 861 348 664 348 664 62 Q 663 46 678 41 L 740 36 815 40 Q 837 45 844 57 864 84 865 210 L 922 185 976 171 Q 970 92 960 49 950 5 934 -18 908 -54 864 -63 L 722 -72 Q 624 -73 589 -55 554 -37 556 13 L 556 348 441 348 432 257 416 191 Q 377 70 256 -16 227 -37 194 -54 L 101 -95 Q 79 -43 35 13 190 57 263 145 308 199 322 282 L 325 305 328 348 174 348 60 342 60 466 174 460 460 460 460 596" horiz-adv-x="976"></glyph><glyph unicode="前" d="M 166 732 L 317 732 283 786 236 844 344 876 399 800 440 732 578 732 Q 635 796 668 875 L 784 843 Q 741 778 702 732 L 859 732 969 738 969 626 859 632 166 632 56 626 56 738 106 733 166 732 M 220 136 L 220 29 Q 219 -43 226 -81 L 107 -81 Q 113 -37 112 36 L 112 480 111 535 109 572 207 568 402 568 460 569 495 572 Q 492 543 492 470 L 492 27 Q 494 -31 469 -53 443 -74 372 -72 L 309 -71 300 -18 285 30 355 24 Q 388 21 384 47 L 384 136 220 136 M 220 232 L 384 232 384 304 220 304 220 232 M 220 400 L 384 400 384 472 220 472 220 400 M 583 553 L 701 553 697 513 696 456 696 237 697 168 700 126 584 126 588 169 588 236 588 457 587 512 583 553 M 799 579 L 918 579 Q 911 541 912 470 L 912 39 Q 913 -26 889 -49 865 -78 775 -76 L 734 -75 664 -72 653 -18 633 36 757 25 Q 812 20 804 58 L 804 473 803 536 799 579" horiz-adv-x="969"></glyph><glyph unicode="全" d="M 448 416 L 315 416 204 411 204 484 146 451 Q 123 439 92 425 L 60 482 24 534 Q 170 591 272 669 330 715 385 777 412 804 440 850 L 571 850 Q 613 793 656 751 698 709 754 669 816 625 874 595 932 565 1005 539 L 964 476 Q 950 451 939 421 L 878 451 817 486 817 411 709 416 564 416 564 300 730 300 843 305 843 187 730 192 564 192 564 60 830 60 961 66 961 -55 832 -48 191 -48 63 -55 63 66 194 60 448 60 448 192 298 192 184 187 184 305 298 300 448 300 448 416 M 307 520 L 714 520 762 521 Q 679 575 622 628 564 681 509 753 426 627 262 521 L 307 520" horiz-adv-x="1005"></glyph><glyph unicode="素" d="M 639 436 L 718 376 683 348 620 295 552 243 766 256 707 312 796 365 897 264 982 161 889 99 860 141 836 176 731 166 660 160 561 154 561 20 562 -38 567 -82 438 -82 Q 445 -46 444 20 L 444 148 289 141 213 138 151 136 79 129 61 239 163 234 210 235 366 239 Q 275 300 170 347 L 234 426 286 398 329 374 Q 366 404 395 436 L 165 436 47 430 47 529 153 524 448 524 448 576 222 576 126 571 126 664 222 660 448 660 448 708 195 708 89 704 89 802 208 796 448 796 Q 449 844 442 867 L 565 867 Q 560 842 560 796 L 817 796 935 802 935 704 830 708 560 708 560 660 800 660 895 664 895 571 800 576 560 576 560 524 871 524 976 529 976 430 859 436 639 436 M 624 436 L 527 436 Q 471 374 413 324 L 444 304 466 289 Q 571 371 624 436 M 283 136 L 380 76 Q 325 23 270 -14 214 -50 138 -81 104 -31 55 8 L 126 32 183 61 Q 217 81 238 96 L 283 136 M 626 90 L 715 151 767 108 Q 792 91 830 70 L 890 41 Q 919 29 964 15 920 -31 891 -82 741 -18 626 90" horiz-adv-x="982"></glyph><glyph unicode="組" d="M 61 323 L 47 428 114 425 142 425 167 457 188 487 Q 109 592 39 651 L 92 744 137 699 186 788 219 868 326 830 307 797 256 708 202 628 225 603 248 575 Q 336 705 356 764 L 447 713 420 671 330 533 253 429 302 433 368 440 352 475 333 513 410 549 460 439 493 341 412 302 398 354 316 345 316 26 317 -36 322 -84 202 -84 Q 209 -42 208 26 L 208 337 135 332 87 328 61 323 M 88 288 L 178 273 157 100 Q 145 39 123 -25 L 34 16 Q 58 73 71 138 84 202 88 288 M 343 268 L 420 287 439 200 454 93 372 75 360 180 343 268 M 920 55 L 928 55 992 61 992 -54 885 -48 503 -48 401 -54 401 61 471 55 500 55 500 718 496 823 600 819 813 819 924 824 920 711 920 55 M 608 716 L 608 571 812 571 812 716 608 716 M 608 468 L 608 319 812 319 812 468 608 468 M 608 216 L 608 55 812 55 812 216 608 216" horiz-adv-x="992"></glyph><glyph unicode="想" d="M 402 640 L 358 640 Q 389 587 422 555 455 523 503 496 471 451 453 397 413 430 387 459 L 335 529 340 417 340 361 344 272 226 272 232 361 232 415 233 453 234 477 235 492 236 524 Q 207 467 173 420 138 374 87 325 63 374 25 419 L 81 465 134 526 Q 174 576 202 640 L 149 640 57 636 57 744 151 740 232 740 232 780 226 859 345 859 341 824 340 777 340 740 400 740 481 744 481 636 402 640 M 438 246 L 509 294 512 381 512 734 508 831 610 827 832 827 932 829 928 734 928 380 932 281 836 284 603 284 533 283 Q 584 240 651 154 L 563 88 503 173 438 246 M 620 732 L 620 672 820 672 820 732 620 732 M 620 584 L 620 524 820 524 820 584 620 584 M 620 436 L 620 376 820 376 820 436 620 436 M 135 -48 L 41 20 Q 85 77 108 124 130 172 148 249 L 246 207 Q 222 121 202 74 182 27 135 -48 M 408 153 L 408 72 Q 406 46 429 42 L 502 36 615 39 Q 647 43 656 53 672 68 673 151 702 138 725 132 L 783 121 Q 779 -10 734 -42 688 -73 512 -68 L 409 -65 349 -54 Q 292 -39 296 35 L 296 153 295 205 290 248 413 248 409 211 408 153 M 989 25 L 887 -38 820 97 744 208 840 255 921 143 989 25" horiz-adv-x="989"></glyph><glyph unicode="装" d="M 507 264 L 486 264 424 211 424 46 527 67 610 88 610 -11 Q 406 -63 191 -87 L 171 21 191 21 214 21 316 29 316 138 Q 218 79 88 31 L 64 79 31 129 Q 131 154 207 186 283 218 351 264 L 161 264 49 259 49 369 165 364 459 364 459 380 455 437 573 437 Q 568 414 569 379 L 569 364 860 364 971 369 971 259 859 264 616 264 Q 641 214 695 167 L 758 215 804 261 898 209 831 153 773 111 Q 873 52 1002 23 971 -14 942 -85 839 -51 764 -10 689 31 629 86 546 159 507 264 M 268 500 L 268 518 207 489 131 459 99 448 74 438 39 543 141 569 Q 191 585 268 618 L 268 774 262 860 381 860 Q 376 833 376 774 L 376 500 377 441 380 408 262 408 268 500 M 616 660 L 513 660 411 654 411 761 513 756 616 756 616 779 Q 617 831 610 860 L 733 860 Q 728 832 728 781 L 728 756 872 756 974 761 974 654 872 660 728 660 728 556 840 556 936 561 936 455 843 460 533 460 433 455 433 560 527 556 616 556 616 660 M 52 770 L 130 835 193 773 253 701 175 629 Q 146 673 121 701 L 52 770" horiz-adv-x="1002"></glyph><glyph unicode="側" d="M 300 257 L 300 738 300 783 298 822 282 769 259 693 228 614 228 46 Q 228 -38 233 -87 L 118 -86 124 47 124 325 Q 124 389 127 446 103 393 63 341 41 407 9 455 105 571 160 728 L 181 800 194 865 298 826 371 823 552 823 623 826 Q 620 791 620 731 L 620 251 Q 620 193 623 162 L 587 163 555 164 366 164 297 161 299 192 299 207 300 257 M 400 728 L 400 632 520 632 520 728 400 728 M 400 544 L 400 448 520 448 520 544 400 544 M 400 360 L 400 260 520 260 520 360 400 360 M 469 104 L 556 156 Q 581 110 611 73 640 37 684 -4 645 -34 604 -80 561 -35 531 6 501 47 469 104 M 784 164 L 676 164 680 203 681 260 681 687 677 785 785 785 Q 779 755 780 687 L 780 260 781 202 784 164 M 364 156 L 453 106 Q 425 44 395 0 365 -43 316 -91 L 273 -44 234 -11 Q 282 26 311 63 339 100 364 156 M 839 840 L 958 840 Q 952 802 952 721 L 952 35 Q 954 -31 920 -52 886 -74 783 -72 L 732 -71 Q 727 -6 707 35 L 803 28 Q 850 25 845 56 L 845 723 839 840" horiz-adv-x="958"></glyph><glyph unicode="足" d="M 468 90 L 468 464 272 464 164 460 168 547 168 738 164 825 282 820 747 820 864 825 860 738 860 547 864 460 758 464 580 464 580 328 803 328 867 329 909 333 909 219 803 224 580 224 580 58 778 44 866 46 976 52 Q 962 19 955 -6 949 -30 945 -64 L 782 -68 656 -64 545 -49 Q 356 -14 257 142 226 71 194 19 161 -34 117 -83 L 75 -38 29 -2 Q 77 46 108 93 140 141 165 203 189 259 203 317 218 376 219 418 L 334 396 320 340 303 268 Q 362 142 468 90 M 748 716 L 280 716 280 564 748 564 748 716" horiz-adv-x="976"></glyph><glyph unicode="速" d="M 576 676 L 410 676 316 671 316 778 428 772 576 772 576 795 571 860 689 860 Q 684 833 684 800 L 684 772 864 772 928 773 975 778 975 671 934 675 881 676 684 676 684 624 837 624 936 629 Q 931 590 932 536 L 932 439 Q 931 381 936 344 L 835 348 736 348 780 310 821 281 Q 865 253 905 234 945 215 998 198 L 967 149 942 96 Q 895 117 862 136 L 791 184 731 232 680 285 684 213 684 138 Q 684 98 689 68 L 571 68 576 139 576 214 578 282 Q 502 189 355 104 L 326 154 293 196 Q 428 253 529 348 L 441 348 340 344 344 437 344 533 340 629 442 624 576 624 576 676 M 576 532 L 448 532 448 440 576 440 576 532 M 684 532 L 684 440 824 440 824 532 684 532 M 51 773 L 133 849 226 759 308 663 224 580 145 679 51 773 M 49 359 L 49 469 86 465 131 464 206 464 284 469 280 358 280 143 Q 317 84 370 63 422 42 533 44 687 44 802 49 L 1006 65 986 3 Q 981 -18 975 -58 L 818 -63 651 -64 455 -60 Q 386 -55 351 -42 314 -30 286 -8 258 13 228 53 L 172 2 119 -39 75 -73 25 46 Q 55 59 96 86 L 172 145 172 364 118 364 49 359" horiz-adv-x="1006"></glyph><glyph unicode="存" d="M 612 316 L 612 347 609 394 652 394 Q 705 425 752 472 L 491 472 400 467 400 576 492 572 784 572 869 575 935 510 905 479 Q 833 403 724 331 L 724 316 865 316 980 322 980 210 860 216 724 216 724 30 Q 726 -32 696 -55 667 -77 587 -76 L 491 -72 478 -8 463 38 575 28 Q 616 25 612 54 L 612 216 453 216 337 210 337 322 451 316 612 316 M 311 660 L 179 660 53 655 53 770 183 764 359 764 Q 384 827 390 874 L 513 862 507 847 500 826 477 764 842 764 971 770 971 655 844 660 432 660 Q 371 536 292 433 L 292 29 Q 291 -33 298 -81 L 174 -81 180 29 180 313 141 277 88 233 Q 65 291 29 338 120 404 179 471 L 175 534 231 534 Q 277 594 311 660" horiz-adv-x="980"></glyph><glyph unicode="多" d="M 303 584 L 383 640 441 603 496 563 590 634 662 704 424 704 Q 359 644 290 601 222 557 136 520 114 565 69 604 239 670 346 772 415 837 437 880 L 563 857 535 824 510 796 689 796 781 801 834 743 762 660 702 601 Q 576 484 438 407 299 330 125 282 107 336 68 382 273 429 409 508 367 545 303 584 M 813 324 L 578 324 489 260 410 214 316 170 217 135 190 188 158 229 Q 310 267 437 345 564 423 622 513 L 730 479 702 445 676 416 825 416 915 421 975 358 960 338 940 310 Q 870 213 786 144 703 76 585 20 496 -24 406 -51 316 -78 187 -99 L 162 -44 125 5 Q 261 18 364 45 466 72 553 119 L 500 165 439 204 529 260 590 217 645 173 Q 688 201 725 234 763 267 813 324" horiz-adv-x="975"></glyph><glyph unicode="体" d="M 256 172 L 256 33 Q 256 -43 261 -86 L 138 -86 143 -31 144 34 144 316 145 377 146 432 Q 110 369 66 322 49 393 21 446 191 631 238 865 L 352 835 304 703 256 595 256 193 Q 341 258 411 355 481 451 525 564 L 416 564 307 558 307 673 419 668 568 668 568 761 Q 569 811 561 857 L 683 857 Q 677 812 677 760 L 677 668 867 668 984 674 984 558 870 564 719 564 Q 743 507 770 461 796 415 839 358 900 273 1013 187 977 148 942 82 L 878 144 828 201 828 104 753 108 676 108 676 26 Q 676 -32 683 -86 L 561 -86 Q 569 -30 568 26 L 568 108 497 108 424 104 424 200 375 142 317 88 Q 289 139 256 172 M 676 208 L 751 208 820 211 Q 776 267 742 325 707 384 674 458 L 676 391 676 336 676 208 M 568 208 L 568 333 569 396 570 455 Q 537 374 507 320 477 267 433 211 L 501 208 568 208" horiz-adv-x="1013"></glyph><glyph unicode="対" d="M 240 704 L 240 761 Q 241 823 234 857 L 353 857 Q 349 819 348 761 L 348 704 420 704 517 710 517 601 484 603 438 604 Q 427 444 370 293 L 438 203 513 98 433 8 381 94 316 185 Q 275 112 228 55 L 112 -68 76 -15 34 27 Q 104 81 154 140 204 200 244 278 175 366 70 467 L 145 542 170 517 226 459 291 387 Q 322 490 331 604 L 141 604 46 599 46 710 147 704 240 704 M 764 548 L 636 548 540 543 540 657 636 652 764 652 764 733 Q 765 817 757 854 L 882 854 Q 876 811 876 733 L 876 652 889 652 985 658 985 542 961 545 890 548 876 548 876 54 873 -4 Q 869 -24 857 -37 831 -73 732 -72 L 612 -68 601 -4 581 48 646 40 704 36 754 40 Q 766 45 764 60 L 764 548 M 488 434 L 579 484 658 368 722 248 630 187 Q 595 269 564 324 532 380 488 434" horiz-adv-x="985"></glyph><glyph unicode="待" d="M 580 656 L 461 656 360 651 360 762 465 756 580 756 580 784 574 863 697 863 Q 692 828 692 783 L 692 756 823 756 928 762 928 651 825 656 692 656 692 556 862 556 972 561 972 451 864 456 840 456 840 368 865 368 972 373 972 262 867 268 840 268 840 31 Q 842 -33 807 -54 780 -77 690 -76 L 650 -75 593 -72 Q 586 -8 565 43 L 689 32 Q 736 29 732 56 L 732 268 425 268 319 262 319 373 419 368 732 368 732 456 440 456 340 451 340 561 440 556 580 556 580 656 M 250 874 L 341 807 330 794 312 774 Q 213 653 91 581 68 637 34 676 190 768 250 874 M 148 38 L 148 232 149 272 150 342 117 304 73 266 51 327 24 376 Q 76 413 116 452 156 492 197 547 236 597 254 639 L 345 578 332 559 326 549 317 536 256 451 256 37 Q 256 -46 261 -86 L 142 -86 148 38 M 612 97 L 523 29 458 126 387 203 470 263 541 189 612 97" horiz-adv-x="972"></glyph><glyph unicode="替" d="M 872 544 L 794 544 Q 879 445 993 409 955 362 940 307 883 337 844 367 L 840 258 840 34 Q 840 -45 846 -82 L 732 -82 732 -40 296 -40 296 -82 182 -82 188 34 188 258 185 359 141 321 93 287 Q 73 345 37 386 161 447 207 544 L 152 544 50 539 50 641 155 636 236 636 245 696 169 696 116 695 81 692 81 793 174 788 251 788 251 798 250 836 247 859 361 859 355 788 395 788 486 793 486 692 400 696 348 696 344 660 341 636 396 636 488 640 488 540 400 544 358 544 Q 414 480 491 444 L 458 408 432 368 543 368 Q 520 401 489 426 586 478 624 544 L 604 544 516 540 516 640 609 636 657 636 666 696 614 696 526 692 526 793 622 788 671 788 671 836 668 859 782 859 Q 778 838 776 788 L 856 788 948 793 948 692 862 696 769 696 759 636 877 636 934 637 974 640 974 539 872 544 M 590 368 L 735 368 839 371 Q 758 433 711 505 687 461 659 430 632 400 590 368 M 293 368 L 420 368 Q 339 418 291 488 257 428 196 370 L 293 368 M 296 276 L 296 212 732 212 732 276 296 276 M 296 124 L 296 60 732 60 732 124 296 124" horiz-adv-x="993"></glyph><glyph unicode="代" d="M 870 497 L 653 480 Q 681 285 757 164 785 120 814 89 843 57 858 56 887 50 902 228 L 953 188 999 161 Q 982 31 951 -25 921 -82 867 -80 792 -79 710 25 577 192 538 470 L 430 461 327 449 324 564 356 563 434 567 527 574 520 663 518 768 516 807 513 844 637 846 Q 631 818 631 769 L 633 685 642 584 861 602 928 608 972 616 975 500 946 501 870 497 M 172 41 L 172 319 173 383 175 437 126 369 71 309 45 377 17 426 Q 153 560 223 731 254 808 263 865 L 379 825 335 713 284 607 284 39 Q 284 -32 291 -85 L 165 -85 Q 173 -39 172 41 M 681 780 L 760 847 828 785 917 689 832 611 803 650 757 701 712 750 681 780" horiz-adv-x="999"></glyph><glyph unicode="単" d="M 448 252 L 247 252 136 249 140 353 140 568 136 676 232 672 192 740 139 806 243 849 298 778 344 705 266 672 654 672 Q 721 768 751 854 L 873 816 817 731 773 672 840 673 884 676 880 568 880 356 884 249 773 252 564 252 564 188 859 188 971 193 971 78 848 84 564 84 564 17 565 -42 571 -86 442 -86 447 -43 448 17 448 84 171 84 48 78 48 193 161 188 448 188 448 252 M 564 512 L 768 512 768 580 564 580 564 512 M 448 512 L 448 580 252 580 252 512 448 512 M 564 347 L 768 347 768 424 564 424 564 347 M 448 347 L 448 424 252 424 252 347 448 347 M 592 715 L 482 678 449 755 402 837 508 866 554 794 592 715" horiz-adv-x="971"></glyph><glyph unicode="知" d="M 258 628 L 207 628 Q 187 586 167 555 L 118 489 Q 83 532 30 567 79 618 110 675 140 732 161 809 173 846 174 872 L 289 850 272 796 250 732 405 732 506 737 506 623 405 628 367 628 365 527 361 468 422 468 519 473 519 359 419 364 351 364 345 329 Q 361 299 372 283 L 398 248 Q 426 211 456 183 485 154 531 120 494 74 468 7 359 107 310 201 281 125 237 66 193 7 112 -59 84 -5 27 33 145 107 199 220 227 279 241 364 L 162 364 51 358 51 474 97 469 165 468 252 468 258 628 M 654 16 L 654 -54 538 -54 544 65 544 667 538 777 581 773 634 772 848 772 945 780 Q 940 736 940 670 L 940 75 Q 940 3 946 -55 L 828 -55 828 16 654 16 M 656 668 L 656 120 828 120 828 668 656 668" horiz-adv-x="946"></glyph><glyph unicode="置" d="M 488 620 L 203 620 95 617 Q 101 650 100 698 L 100 752 Q 101 802 95 836 L 212 832 820 832 888 833 936 836 932 752 932 698 936 617 830 620 592 620 586 597 583 584 850 584 Q 891 583 917 585 L 967 589 967 491 915 495 850 496 559 496 553 478 547 459 783 459 879 462 Q 876 428 876 362 L 876 165 877 107 879 73 828 75 778 76 390 76 341 76 289 73 292 165 292 362 289 461 331 460 385 459 444 459 451 480 456 496 169 496 53 491 53 589 169 584 480 584 488 620 M 344 704 L 344 748 204 748 204 704 344 704 M 580 704 L 580 748 440 748 440 704 580 704 M 676 704 L 824 704 824 748 676 748 676 704 M 396 384 L 396 351 772 351 772 384 396 384 M 396 284 L 396 251 772 251 772 284 396 284 M 396 184 L 396 151 772 151 772 184 396 184 M 212 40 L 859 40 924 41 976 45 976 -54 924 -49 859 -48 212 -48 212 -87 98 -87 Q 105 -50 104 14 L 104 351 Q 105 406 98 445 L 217 445 Q 212 408 212 352 L 212 40" horiz-adv-x="976"></glyph><glyph unicode="中" d="M 444 688 L 444 750 443 813 438 862 570 862 Q 564 821 564 754 L 564 688 847 688 940 692 936 599 936 290 Q 936 225 941 186 L 820 186 820 248 564 248 564 40 566 -33 571 -87 437 -87 Q 445 -38 444 40 L 444 248 204 248 204 186 83 186 Q 89 230 88 290 L 88 600 87 648 84 692 177 688 444 688 M 444 576 L 204 576 204 360 444 360 444 576 M 564 360 L 820 360 820 576 564 576 564 360" horiz-adv-x="941"></glyph><glyph unicode="抽" d="M 172 672 L 172 756 171 814 166 860 286 860 Q 279 821 280 757 L 280 672 301 672 359 676 359 569 301 572 280 572 280 406 314 417 359 432 362 334 280 302 280 22 Q 280 -45 236 -64 L 124 -76 69 -75 Q 67 -17 46 35 L 139 28 Q 176 25 172 54 L 172 268 148 260 111 250 60 235 38 348 86 355 172 376 172 572 122 572 48 568 48 678 123 672 172 672 M 720 660 L 857 660 956 665 953 621 953 595 952 556 952 41 Q 952 -32 958 -87 L 844 -87 844 -28 500 -28 500 -87 386 -87 392 34 392 559 391 620 388 664 487 660 613 660 613 755 607 856 726 856 Q 720 813 720 751 L 720 660 M 720 76 L 844 76 844 276 720 276 720 76 M 720 376 L 844 376 844 556 720 556 720 376 M 613 556 L 500 556 500 376 613 376 613 556 M 613 276 L 500 276 500 76 613 76 613 276" horiz-adv-x="958"></glyph><glyph unicode="注" d="M 436 652 L 678 652 583 721 Q 537 749 464 782 L 538 866 659 803 759 736 691 652 845 652 911 653 960 658 960 543 845 548 684 548 684 372 816 372 928 378 928 263 816 268 684 268 684 60 859 60 981 66 981 -50 859 -44 412 -44 290 -50 290 66 412 60 568 60 568 268 464 268 351 263 351 378 463 372 568 372 568 548 436 548 373 547 321 543 321 658 436 652 M 79 774 L 148 853 244 792 330 719 261 628 178 708 Q 140 738 79 774 M 38 518 L 103 603 202 541 289 471 227 378 133 459 38 518 M 205 319 L 296 254 236 105 Q 211 47 182 -6 L 154 -56 139 -80 42 6 Q 118 91 205 319" horiz-adv-x="981"></glyph><glyph unicode="張" d="M 605 300 L 544 300 544 60 626 78 696 98 698 0 Q 570 -38 416 -65 L 397 -69 383 -71 363 -75 344 30 379 33 436 41 436 300 419 300 358 299 350 168 339 89 Q 327 22 311 -10 296 -42 266 -56 236 -73 178 -72 L 84 -69 76 -12 62 45 166 36 Q 213 33 220 61 244 119 248 276 L 127 276 57 274 Q 85 429 87 596 L 119 593 172 592 256 592 256 720 153 720 64 716 64 827 159 820 287 820 367 824 Q 363 787 364 744 L 364 587 Q 364 541 367 493 L 293 496 192 496 185 427 178 372 297 372 357 374 357 404 438 400 444 400 444 737 440 832 492 828 554 827 822 827 938 834 938 727 826 732 548 732 548 680 818 680 908 685 908 588 820 592 548 592 548 540 820 540 908 544 908 447 820 452 548 452 548 400 877 400 977 405 977 295 880 300 703 300 Q 723 235 759 189 825 240 866 294 L 947 232 Q 883 168 824 122 865 86 903 64 941 42 998 21 L 964 -29 Q 952 -51 939 -85 800 -14 724 74 639 170 605 300" horiz-adv-x="998"></glyph><glyph unicode="追" d="M 448 764 L 538 764 Q 571 814 593 868 L 713 851 660 764 829 764 903 768 Q 900 734 900 694 L 900 557 900 478 826 480 480 480 480 408 855 408 927 411 Q 924 381 924 332 L 924 180 Q 924 142 927 109 L 857 112 444 112 369 109 372 180 372 694 368 768 448 764 M 480 664 L 480 575 792 575 792 664 480 664 M 480 312 L 480 212 816 212 816 312 480 312 M 47 771 L 129 846 223 756 305 656 218 576 135 681 47 771 M 48 351 L 48 469 84 465 130 464 209 464 288 469 285 421 284 355 284 144 Q 302 103 339 80 368 60 423 52 L 575 44 823 48 1000 60 980 -1 969 -60 804 -63 639 -64 463 -58 Q 397 -52 358 -39 288 -14 230 59 170 -2 114 -44 L 76 -76 27 45 Q 87 70 176 145 L 176 356 119 356 48 351" horiz-adv-x="1000"></glyph><glyph unicode="定" d="M 468 84 L 468 464 318 464 214 459 214 569 318 564 710 564 816 569 816 459 710 464 576 464 576 336 770 336 870 342 870 231 770 236 576 236 576 58 743 48 977 60 958 3 948 -57 838 -59 730 -60 Q 552 -61 442 -18 333 24 272 117 L 215 17 131 -85 Q 113 -58 95 -41 L 43 -1 Q 170 115 219 292 237 362 240 402 L 354 381 348 360 339 321 313 227 Q 367 125 468 84 M 448 756 L 448 794 442 859 569 859 Q 564 831 564 795 L 564 756 841 756 956 760 952 684 952 604 956 524 844 524 844 652 184 652 184 524 71 524 Q 77 557 76 605 L 76 684 72 760 184 756 448 756" horiz-adv-x="977"></glyph><glyph unicode="的" d="M 164 712 L 185 712 Q 214 783 229 861 L 345 845 320 774 293 712 349 712 439 717 437 686 437 676 436 628 436 542 Q 488 604 530 696 573 787 586 865 L 704 846 689 806 676 766 659 720 878 720 965 724 962 694 961 643 957 490 951 330 945 227 Q 934 38 895 -20 856 -78 741 -72 L 640 -68 Q 636 -5 611 48 L 742 36 Q 803 31 811 72 827 122 837 261 847 399 849 612 L 611 612 554 512 Q 525 470 480 419 L 462 444 436 470 436 76 440 -24 328 -24 328 36 185 36 185 -54 71 -54 Q 77 -11 76 78 L 76 612 75 674 72 715 128 712 164 712 M 184 612 L 184 432 328 432 328 612 184 612 M 184 332 L 184 136 328 136 328 332 184 332 M 770 237 L 667 181 Q 641 256 606 324 L 535 441 628 491 704 372 770 237" horiz-adv-x="965"></glyph><glyph unicode="転" d="M 336 76 L 336 8 Q 336 -38 342 -82 L 225 -82 232 13 232 76 144 76 45 70 45 177 85 173 139 172 232 172 232 228 188 228 84 225 88 341 88 510 84 619 126 616 186 615 232 615 232 676 147 676 95 675 53 672 53 777 94 773 152 772 232 772 232 782 226 865 342 865 Q 335 826 335 782 L 335 772 407 772 465 773 506 777 506 672 467 675 412 676 335 676 335 615 400 615 487 618 Q 484 593 484 517 L 484 337 485 267 487 225 396 228 336 228 336 172 416 172 501 177 501 71 407 76 336 76 M 332 319 L 396 319 396 384 332 384 332 319 M 332 464 L 396 464 396 524 332 524 332 464 M 236 524 L 176 524 176 464 236 464 236 524 M 236 384 L 176 384 176 319 236 319 236 384 M 639 420 L 611 420 514 415 514 530 614 524 887 524 987 530 987 415 887 420 753 420 Q 706 234 645 76 L 751 90 842 107 803 209 761 303 855 339 933 161 Q 965 79 997 -27 947 -51 897 -76 L 884 -29 870 17 815 4 760 -8 542 -45 504 -51 482 -55 458 60 493 62 531 64 598 260 Q 626 352 639 420 M 549 683 L 549 798 590 793 648 792 854 792 911 793 952 798 952 685 944 684 928 686 854 688 648 688 549 683" horiz-adv-x="997"></glyph><glyph unicode="倒" d="M 508 328 L 574 328 643 332 643 229 574 232 508 232 508 119 588 133 668 150 670 53 Q 524 15 322 -15 L 265 -27 250 88 260 88 404 104 404 232 339 232 273 228 273 333 342 328 404 328 404 374 400 434 513 434 Q 508 413 508 374 L 508 328 M 291 704 L 291 808 285 788 262 713 224 614 224 37 225 -31 229 -86 114 -86 120 37 120 317 121 382 123 442 90 381 53 330 31 397 6 452 Q 73 535 121 644 169 753 189 866 L 298 829 292 813 383 808 564 808 623 809 666 812 666 705 575 708 490 708 Q 458 620 419 546 L 500 552 550 558 529 597 503 641 585 678 644 578 689 487 689 694 684 783 793 783 Q 787 752 788 694 L 788 251 792 163 684 163 689 250 689 451 612 408 590 472 466 454 323 440 268 433 255 541 292 540 312 540 349 620 380 708 348 708 291 704 M 960 716 L 960 30 Q 962 -30 929 -54 896 -77 811 -76 L 792 -76 722 -75 714 -22 698 33 809 24 Q 862 21 856 50 L 856 722 855 790 850 842 966 842 Q 960 798 960 716" horiz-adv-x="966"></glyph><glyph unicode="等" d="M 267 697 L 211 697 164 638 106 582 Q 73 624 30 656 113 716 151 784 178 826 188 867 L 299 847 279 809 270 793 401 793 501 799 501 714 Q 569 786 594 865 L 698 838 676 792 863 792 975 798 975 691 868 696 788 696 808 663 828 624 727 592 703 648 677 696 619 696 Q 590 655 556 624 L 552 572 786 572 897 577 897 474 787 480 552 480 552 416 853 416 972 422 972 314 854 320 764 320 764 255 845 255 964 261 964 154 844 160 764 160 764 18 Q 766 -56 711 -74 L 589 -84 511 -82 499 -26 480 27 610 20 Q 662 17 656 44 L 656 160 318 160 384 104 460 27 367 -45 Q 330 4 301 34 L 226 101 303 160 178 160 59 154 59 261 177 255 656 255 656 320 172 320 52 314 52 422 170 416 444 416 444 480 246 480 133 475 133 577 247 572 444 572 438 631 514 631 459 674 482 695 426 697 374 697 393 662 409 625 309 594 288 654 267 697" horiz-adv-x="975"></glyph><glyph unicode="動" d="M 268 692 L 268 740 183 733 93 728 Q 84 764 58 809 L 329 825 Q 448 840 503 865 L 565 781 538 777 508 772 368 749 368 692 474 692 570 697 570 604 544 607 495 608 368 608 368 563 469 563 555 565 553 531 552 474 552 334 555 238 462 240 368 240 368 196 457 196 554 200 554 103 482 108 368 108 368 58 444 66 552 80 552 36 Q 619 138 650 273 L 667 389 676 548 628 547 591 544 591 656 664 652 679 652 680 727 679 813 674 857 792 857 Q 788 842 787 810 L 784 652 873 652 969 656 965 601 962 460 Q 958 261 948 149 937 37 918 -6 898 -72 790 -68 L 748 -67 708 -65 701 -8 684 48 650 -19 602 -89 Q 572 -42 521 -6 L 338 -30 120 -50 61 -59 42 53 95 51 159 52 268 57 268 108 164 108 69 104 69 201 165 196 268 196 268 240 180 240 81 237 83 278 84 337 84 471 83 527 81 566 181 563 268 563 268 608 145 608 49 603 49 697 145 692 268 692 M 268 484 L 180 484 180 440 268 440 268 484 M 368 484 L 368 440 456 440 456 484 368 484 M 268 364 L 180 364 180 319 268 319 268 364 M 368 364 L 368 319 456 319 456 364 368 364 M 859 548 L 782 548 Q 775 370 753 259 731 148 685 50 L 742 42 775 40 Q 809 38 821 58 833 78 841 147 L 849 230 855 358 856 400 857 476 858 511 859 548" horiz-adv-x="969"></glyph><glyph unicode="同" d="M 84 43 L 84 723 80 828 129 825 197 824 833 824 944 828 940 715 940 36 Q 942 -25 907 -48 871 -70 772 -68 L 658 -64 648 -8 629 45 773 36 Q 830 33 824 57 L 824 720 200 720 200 40 201 -31 206 -80 78 -80 84 43 M 247 536 L 247 645 281 640 339 639 690 639 746 640 781 645 781 536 692 540 337 540 247 536 M 724 394 L 724 178 Q 724 143 727 113 L 659 116 413 116 413 42 300 42 304 129 304 394 301 462 373 460 649 460 727 462 Q 724 436 724 394 M 412 360 L 412 216 616 216 616 360 412 360" horiz-adv-x="944"></glyph><glyph unicode="特" d="M 212 553 L 152 553 Q 140 475 115 403 75 433 26 448 50 512 64 595 78 678 78 756 L 76 782 176 769 173 748 170 717 168 702 165 660 212 660 212 781 Q 213 825 205 865 L 326 865 Q 320 828 320 781 L 320 660 328 660 410 663 410 555 504 552 620 552 620 652 535 652 429 647 429 758 535 752 620 752 620 783 614 860 733 860 Q 728 828 728 785 L 728 752 838 752 946 758 946 647 838 652 728 652 728 552 866 552 982 557 982 446 874 452 868 452 868 368 877 368 978 373 978 258 877 264 868 264 868 24 Q 870 -34 837 -56 804 -77 717 -76 L 630 -73 Q 625 -5 603 43 L 723 32 Q 765 28 760 62 L 760 264 494 264 394 258 394 306 320 272 320 34 Q 320 -36 326 -89 L 205 -89 Q 212 -45 212 34 L 212 233 144 209 89 189 66 180 40 295 105 309 212 343 212 553 M 320 553 L 320 380 366 397 408 415 409 371 507 368 760 368 760 452 504 452 389 446 389 552 337 553 320 553 M 438 202 L 522 259 Q 596 192 656 102 L 567 34 509 121 438 202" horiz-adv-x="982"></glyph></font>
</defs>
</svg>
