<?xml version="1.0" encoding="utf-8"?>
<!DOCTYPE svg PUBLIC "-//W3C//DTD SVG 1.1//EN" "http://www.w3.org/Graphics/SVG/1.1/DTD/svg11.dtd">
<svg xmlns="http://www.w3.org/2000/svg" xmlns:xlink="http://www.w3.org/1999/xlink" version="1.1" width="4800" height="5600"><defs><path id="cid_1" d="M 3732 2896 L 3864 2805 Q 3712 2892 3732 2896" viewBox="3730 2805 3864 2896" fill="#999999"></path><path id="cid_2" d="M 3798 1604 Q 3867 1085 3600 1085 3386 1085 2662 1495 L 2016 0 36 1520 393 2768 Q 0 2878 0 3025 0 3067 270 3306 529 3536 892 3818 1803 4528 2060 4585 2163 4608 2071 4435 2036 4370 1819 4036 1637 3756 1589 3627 1519 3439 1662 3443 L 3920 4405 3430 3270 Q 3780 3163 3780 3025 3780 2851 3226 2728 L 3192 2721 Q 3172 2717 3324 2630 L 3385 2596 Q 3624 2463 3631 2420 3643 2344 3712 2044 3777 1763 3798 1604" viewBox="0 0 3920 4588" fill="#00ffff"></path></defs></svg>
