<?xml version="1.0" encoding="utf-8"?>
<!DOCTYPE svg PUBLIC "-//W3C//DTD SVG 1.1//EN" "http://www.w3.org/Graphics/SVG/1.1/DTD/svg11.dtd">
<svg xmlns="http://www.w3.org/2000/svg" xmlns:xlink="http://www.w3.org/1999/xlink" version="1.1" width="4800" height="6000"><defs><use id="cid_2" transform="matrix(20,0,0,20,0,0)" xlink:href="#cid_1" viewBox="0 0 4800 6000"></use><path id="cid_3" d="M 8800 400 L 8800 0 13180 0 13180 -181 -400 -181 -400 20 0 20 0 800 4400 800 4400 400 8800 400 M 13180 -182 L 13180 -381 -400 -381 -400 -182 13180 -182" viewBox="-400 -381 13180 800" fill="#ff0000"></path><path id="cid_4" d="M 4800 6400 L 4800 0 0 0 0 6400 4800 6400" viewBox="0 0 4800 6400" fill="#000000"></path><text id="cid_6" font-size="320" font-family="ヒラギノ角ゴ Pro W6" font-weight="bold" fill="ffffff" viewBox="18 68 2846 793"><tspan x="0 320 640 960 1280 1600 1920 2240 2560" y="340">五人ばやし　わたる</tspan><tspan x="160 480 800 1120 1440 1760 2080 2400" y="760">「わたるの限界」</tspan></text><path id="cid_7" d="M -500 -500 L -500 500 500 500 500 -500 -500 -500" viewBox="-500 -500 500 500" fill="#ff0000"></path><path id="cid_9" d="M 6800 3560 L 6800 3640 6800 3920 6800 4400 6800 4780 6800 8000 2000 8000 2000 3440 2000 2000 6800 2000 6800 3300 6800 3560 M 9800 -1000 L -1000 -1000 -1000 11000 9800 11000 9800 -1000" viewBox="-1000 -1000 9800 11000" fill="#000000"></path><g id="cid_11" viewBox="0 0 1616 2036"><path d="M 1392 2032 L 1507 2022 Q 1528 2011 1487 1981 1434 1942 1422 1924 1396 1886 1384 1789 L 1203 1794 1217 1851 Q 1230 1917 1227 1966 1224 2021 1262 2030 L 1392 2032" fill="#fed8ad"></path><path d="M 1396 1860 L 1384 1789 1203 1794 1218 1858 Q 1336 1868 1396 1860" fill="#fe9761"></path><path d="M 1214 1954 Q 1207 1987 1308 2016 1405 2044 1440 2032 1474 2021 1346 1970 1222 1921 1214 1954" fill="#03296a"></path><path d="M 1484 1961 Q 1458 1944 1433 1982 1408 2021 1420 2032 1430 2043 1466 2009 1502 1975 1484 1961" fill="#03296a"></path><path d="M 647 2030 Q 685 2021 682 1966 679 1917 692 1851 L 705 1794 524 1789 Q 513 1885 487 1924 L 421 1981 Q 380 2011 402 2022 L 517 2032 647 2030" fill="#fed8ad"></path><path d="M 512 1860 Q 573 1868 690 1858 L 705 1794 524 1789 512 1860" fill="#fe9761"></path><path d="M 694 1954 Q 686 1921 562 1970 435 2021 469 2032 504 2044 601 2016 702 1987 694 1954" fill="#03296a"></path><path d="M 425 1961 Q 406 1975 442 2009 478 2043 489 2032 501 2020 475 1982 450 1944 425 1961" fill="#03296a"></path><path d="M 1017 137 L 1017 0 888 0 887 137 1017 137" fill="#feac73"></path><path d="M 1422 988 Q 1399 785 1294 720 1261 700 1224 696 L 1194 696 Q 1236 852 1333 936 1382 978 1422 988" fill="#021153"></path><path d="M 1102 186 Q 1108 281 1180 288 1214 291 1263 353 L 1384 496 Q 1350 612 1266 667 1226 693 1221 699 1206 716 1214 745 1239 833 1299 944 1339 894 1339 882 1339 872 1325 857 1311 842 1312 838 1324 795 1365 753 1415 701 1435 663 L 1497 532 Q 1510 492 1502 458 1495 433 1386 312 1266 181 1253 160 1221 108 1177 95 L 1110 92 1102 186" fill="#fed8ad"></path><path d="M 787 110 Q 738 110 710 128 678 149 665 197 L 637 284 606 366 662 534 Q 669 480 700 403 728 333 742 320 772 287 803 303 875 221 838 157 827 137 806 122 L 787 110" fill="#fed8ad"></path><path d="M 665 197 L 657 222 Q 706 287 740 322 L 749 313 749 312 786 110 Q 736 111 709 129 678 149 665 197" fill="#fe9761"></path><path d="M 707 235 Q 740 304 740 345 L 741 451 1160 451 1224 110 Q 1217 103 1182 96 L 1149 90 950 161 764 103 730 111 Q 692 123 674 140 674 167 707 235" fill="#03296a"></path><path d="M 887 28 L 845 56 875 125 Q 913 197 952 213 991 198 1027 124 L 1055 53 1017 31 1002 60 Q 980 91 950 104 923 91 902 58 L 887 28" fill="#ffffff"></path><path d="M 804 71 Q 766 92 764 103 804 219 892 293 935 331 971 345 L 958 220 Q 926 188 882 119 L 845 56 Q 841 49 804 71" fill="#04689b"></path><path d="M 1107 60 Q 1058 38 1051 50 L 979 168 Q 879 307 741 413 L 741 524 Q 823 502 964 361 1116 209 1149 90 1149 79 1107 60" fill="#0492b7"></path><path d="M 1456 1748 L 1171 1756 1171 1788 1358 1796 1456 1788 1456 1748" fill="#70339a"></path><path d="M 448 1748 L 448 1788 547 1796 734 1788 734 1756 448 1748" fill="#70339a"></path><path d="M 1161 651 L 741 651 Q 710 671 685 744 L 632 887 Q 370 1457 326 1501 286 1540 289 1600 291 1665 346 1691 422 1728 441 1746 L 477 1752 582 1758 Q 624 1775 717 1772 821 1770 889 1741 931 1724 919 1672 L 899 1623 Q 934 1333 952 1086 967 1381 1006 1623 L 986 1672 Q 974 1724 1016 1741 1083 1770 1187 1772 1281 1775 1322 1758 L 1464 1746 1483 1732 Q 1511 1714 1559 1691 1613 1665 1616 1600 1618 1540 1579 1501 1549 1471 1425 1214 L 1272 887 1218 744 Q 1191 671 1161 651" fill="#894db1"></path><path d="M 715 1195 L 737 1182 Q 757 1161 753 1127 L 39 720 Q 12 736 3 763 L 0 787 715 1195" fill="#ff5806"></path><path d="M 378 958 Q 681 1130 686 1117 690 1103 393 933 102 767 104 785 106 803 378 958" fill="#febe4a"></path><path d="M 129 839 Q 147 849 156 833 165 817 148 806 130 796 121 812 111 829 129 839" fill="#000000"></path><path d="M 212 886 Q 230 896 240 880 249 864 231 854 213 844 204 860 195 876 212 886" fill="#000000"></path><path d="M 296 934 Q 314 944 323 928 332 912 315 901 297 891 288 908 278 924 296 934" fill="#000000"></path><path d="M 380 982 Q 397 992 407 976 416 959 398 949 380 939 371 955 362 972 380 982" fill="#000000"></path><path d="M 463 1029 Q 481 1039 491 1023 500 1007 482 997 464 987 455 1003 445 1019 463 1029" fill="#000000"></path><path d="M 641 1131 Q 676 1151 685 1134 694 1118 659 1098 625 1078 616 1095 607 1112 641 1131" fill="#000000"></path><path d="M 1222 70 Q 1195 70 1148 127 1099 188 1080 253 L 1046 360 1007 444 1160 451 Q 1169 445 1336 370 1439 324 1463 261 1468 248 1442 222 1413 194 1369 176 1305 150 1264 106 1229 70 1222 70" fill="#894db1"></path><path d="M 1122 451 L 1153 450 Q 1179 424 1295 376 1402 331 1426 296 1456 253 1425 256 1396 259 1337 300 L 1122 451" fill="#220735"></path><path d="M 1369 176 Q 1324 157 1290 131 L 1249 91 Q 1262 118 1246 164 1231 206 1237 212 L 1310 201 Q 1382 184 1414 200 1395 187 1369 176" fill="#6a259a"></path><path d="M 1161 651 L 1160 451 950 443 799 447 740 451 741 651 950 655 1161 651" fill="#ffffff"></path><path d="M 952 550 L 1116 557 Q 1170 560 1170 548 1170 533 1118 528 L 952 522 Q 734 522 734 548 734 558 788 556 L 952 550" fill="#041e76"></path><path d="M 952 1086 Q 1083 1086 1137 1022 1154 1001 1161 977 L 1165 957 953 967 799 963 749 958 751 978 Q 756 1002 772 1022 821 1086 952 1086" fill="#6a259a"></path><path d="M 1065 1061 Q 1161 1054 1217 1036 1045 1049 846 1035 L 682 1018 Q 875 1074 1065 1061" fill="#3f0c65"></path><path d="M 991 1091 Q 1058 1075 1093 1051 994 1077 837 1084 L 700 1085 Q 858 1123 991 1091" fill="#3f0c65"></path><path d="M 1161 651 L 741 651 Q 814 705 939 709 1073 714 1161 651" fill="#6a259a"></path><path d="M 854 532 Q 873 640 873 726 L 869 791 937 776 Q 937 660 896 585 L 854 532" fill="#041e76"></path><path d="M 812 821 Q 812 750 826 630 L 839 524 Q 773 623 756 728 747 781 752 813 L 812 821" fill="#041e76"></path><path d="M 850 575 Q 881 572 881 531 881 492 844 523 803 505 811 541 819 577 850 575" fill="#041e76"></path><path d="M 1384 496 L 1502 458 Q 1495 433 1360 285 L 1263 353 Q 1343 455 1384 496" fill="#fed8ad"></path><path d="M 1308 411 L 1380 492 Q 1314 602 1270 630 1226 658 1194 696 1256 716 1317 839 1379 968 1422 988 1439 918 1438 792 1438 700 1483 613 1546 495 1522 453 1510 434 1456 381 L 1404 333 Q 1369 342 1335 378 1318 395 1308 411" fill="#03296a"></path><path d="M 1456 1746 L 1171 1762 1171 1794 1358 1802 1456 1794 1456 1746" fill="#8c54b1"></path><path d="M 448 1737 L 448 1794 547 1802 734 1794 734 1762 448 1737" fill="#8c54b1"></path><path d="M 1334 1668 Q 1311 1668 1224 1709 1136 1750 1048 1750 1117 1770 1206 1771 1287 1771 1322 1756 L 1464 1744 1511 1714 Q 1462 1727 1415 1700 1360 1668 1334 1668" fill="#6a259a"></path><path d="M 1132 1628 Q 1270 1699 1404 1672 1471 1658 1510 1630 1408 1669 1260 1652 L 1132 1628" fill="#3f0c65"></path><path d="M 573 1668 Q 547 1668 492 1700 445 1727 396 1714 432 1734 442 1744 L 478 1750 584 1756 Q 619 1771 701 1771 790 1770 858 1750 788 1750 693 1709 599 1668 573 1668" fill="#6a259a"></path><path d="M 775 1628 Q 721 1644 647 1652 499 1669 397 1630 L 425 1646 Q 461 1663 503 1672 636 1699 775 1628" fill="#3f0c65"></path><path d="M 1360 285 L 1263 353 1284 380 1313 354 Q 1349 325 1385 312 L 1360 285" fill="#fe9761"></path><path d="M 1380 492 L 1393 473 Q 1411 454 1438 448 1376 396 1356 413 1335 430 1380 492" fill="#010d32"></path><path d="M 344 898 Q 313 947 335 966 L 341 990 Q 351 1013 367 1008 L 373 1033 Q 385 1055 416 1037 L 474 959 426 926 Q 372 894 344 898" fill="#feac73"></path><path d="M 543 925 L 514 956 Q 482 994 470 1023 457 1055 471 1073 L 488 1084 521 1028 Q 535 1001 541 960 L 543 925" fill="#feac73"></path><path d="M 365 867 Q 327 912 349 940 L 352 958 Q 358 977 379 978 383 1011 407 1010 L 429 1002 419 1025 Q 411 1049 422 1057 435 1067 470 1044 L 518 1001 Q 534 980 542 928 L 560 845 433 770 Q 422 798 365 867" fill="#fed8ad"></path><path d="M 675 502 Q 688 450 707 395 L 724 350 Q 710 340 690 332 L 620 328 Q 579 423 505 561 430 701 409 722 L 272 857 371 933 Q 493 1004 609 985 L 611 848 Q 613 804 624 745 L 644 641 Q 660 559 675 502" fill="#03296a"></path><path d="M 609 985 L 609 916 Q 502 928 403 868 L 325 806 272 857 371 933 Q 493 1004 609 985" fill="#0492b7"></path><path d="M 1422 988 L 1436 903 Q 1400 888 1359 769 1321 658 1248 645 1216 670 1194 696 1256 716 1317 839 1379 968 1422 988" fill="#0492b7"></path></g><g id="cid_12" viewBox="-718 -3450 719 -1925"><path d="M -517 -2300 L -526 -2167 Q -553 -2030 -646 -2008 L -528 -2011 Q -398 -2040 -336 -2169 L -517 -2300" fill="#936826"></path><path d="M -394 -2181 L -379 -2096 Q -376 -1996 -435 -1925 -390 -1941 -347 -1979 -260 -2056 -271 -2165 L -394 -2181" fill="#936826"></path><path d="M 513 -2300 L 332 -2169 Q 395 -2040 525 -2011 L 642 -2008 Q 549 -2030 522 -2167 L 513 -2300" fill="#936826"></path><path d="M 390 -2181 L 265 -2165 Q 254 -2056 341 -1979 385 -1941 430 -1925 372 -1996 375 -2096 L 390 -2181" fill="#936826"></path><path d="M -388 -2198 L -529 -2300 -538 -2168 Q -565 -2031 -657 -2009 L -657 -2008 Q -613 -2010 -559 -2035 -451 -2085 -388 -2198" fill="#bc9754"></path><path d="M 372 -2198 Q 435 -2085 543 -2035 597 -2010 640 -2008 L 640 -2009 Q 548 -2031 521 -2168 L 513 -2300 372 -2198" fill="#bc9754"></path><path d="M 715 -2376 Q 730 -2457 688 -2509 641 -2566 551 -2541 L 455 -2236 Q 563 -2200 637 -2249 701 -2292 715 -2376" fill="#feac73"></path><path d="M -548 -2541 Q -640 -2568 -687 -2511 -729 -2460 -714 -2378 -699 -2294 -635 -2250 -560 -2200 -452 -2236 L -548 -2541" fill="#feac73"></path><path d="M 0 -3450 Q -385 -3449 -510 -3073 -603 -2796 -537 -2464 -494 -2242 -385 -2167 -276 -2092 0 -2092 L 2 -2092 Q 278 -2092 387 -2167 496 -2242 539 -2464 605 -2796 512 -3073 387 -3449 2 -3450 L 0 -3450" fill="#fed8ad"></path></g><g id="cid_13" viewBox="-486 -2787 486 -2155"><path d="M 185 -2375 Q 185 -2411 131 -2437 76 -2463 0 -2463 -76 -2463 -131 -2437 -185 -2411 -185 -2375 -185 -2339 -131 -2313 -76 -2287 0 -2287 76 -2287 131 -2313 185 -2339 185 -2375" fill="#febc8f"></path><path d="M 122 -2375 Q 122 -2395 87 -2408 51 -2422 0 -2422 -51 -2422 -86 -2408 -122 -2395 -122 -2375 -122 -2355 -86 -2342 -51 -2328 0 -2328 51 -2328 87 -2342 122 -2355 122 -2375" fill="#ffa37d"></path><path d="M 149 -2206 Q 144 -2215 113 -2202 64 -2181 0 -2181 -65 -2181 -110 -2204 -138 -2218 -143 -2209 -153 -2192 -109 -2174 -62 -2155 0 -2155 64 -2155 112 -2172 159 -2189 149 -2206" fill="#df3452"></path><path d="M 181 -2461 Q 181 -2376 227 -2334 261 -2303 305 -2303 358 -2303 392 -2350 434 -2407 422 -2508 415 -2565 376 -2596 340 -2625 294 -2620 247 -2614 216 -2576 181 -2532 181 -2461" fill="#00c1bb"></path><path d="M 181 -2461 L 182 -2451 424 -2451 422 -2508 Q 415 -2565 376 -2596 340 -2625 294 -2620 247 -2614 216 -2576 181 -2532 181 -2461" fill="#015a6a"></path><path d="M 247 -2461 Q 247 -2429 265 -2413 278 -2402 296 -2402 316 -2402 330 -2420 346 -2441 341 -2479 336 -2526 291 -2521 247 -2516 247 -2461" fill="#01263f"></path><path d="M 114 -2555 L 149 -2557 300 -2577 434 -2579 486 -2583 Q 486 -2597 449 -2612 396 -2633 299 -2630 201 -2627 150 -2596 114 -2575 114 -2555" fill="#01263f"></path><path d="M 157 -2647 Q 291 -2676 432 -2677 328 -2703 232 -2677 L 157 -2647" fill="#ff8e5e"></path><path d="M 62 -2615 Q 198 -2635 301 -2713 353 -2752 377 -2787 222 -2753 127 -2680 79 -2644 62 -2615" fill="#bc9754"></path><path d="M 371 -2390 L 350 -2408 Q 339 -2413 332 -2408 325 -2403 327 -2390 328 -2378 337 -2365 L 357 -2348 375 -2347 Q 382 -2352 381 -2365 L 371 -2390" fill="#98fbff"></path><path d="M -181 -2461 Q -181 -2532 -216 -2576 -247 -2614 -294 -2620 -340 -2625 -375 -2596 -414 -2565 -421 -2508 -433 -2407 -392 -2350 -357 -2303 -305 -2303 -260 -2303 -226 -2334 -181 -2376 -181 -2461" fill="#00c1bb"></path><path d="M -181 -2461 Q -181 -2532 -216 -2576 -247 -2614 -294 -2620 -340 -2625 -375 -2596 -414 -2565 -421 -2508 L -423 -2451 -181 -2451 -181 -2461" fill="#015a6a"></path><path d="M -246 -2461 Q -246 -2516 -290 -2521 -335 -2526 -341 -2479 -346 -2441 -330 -2420 -316 -2402 -295 -2402 -277 -2402 -264 -2413 -246 -2429 -246 -2461" fill="#01263f"></path><path d="M -149 -2557 L -114 -2555 Q -114 -2574 -149 -2596 -201 -2627 -298 -2630 -396 -2633 -449 -2612 -486 -2597 -486 -2583 L -433 -2579 -300 -2577 -149 -2557" fill="#01263f"></path><path d="M -157 -2647 Q -182 -2664 -229 -2677 -322 -2702 -431 -2677 L -344 -2673 -157 -2647" fill="#ff8e5e"></path><path d="M -300 -2713 Q -198 -2635 -62 -2615 -78 -2644 -126 -2680 -221 -2753 -376 -2787 L -300 -2713" fill="#bc9754"></path><path d="M -237 -2390 Q -246 -2403 -258 -2408 -269 -2413 -276 -2408 -283 -2403 -282 -2390 -281 -2378 -272 -2365 -263 -2353 -251 -2348 L -233 -2347 Q -226 -2352 -227 -2365 L -237 -2390" fill="#98fbff"></path></g><g id="cid_14" viewBox="-892 -3840 871 -1995"><path d="M 69 -3066 L 121 -3081 260 -3076 Q 230 -3078 156 -3053 L 213 -3050 Q 287 -3039 370 -2999 L 273 -2999 344 -2979 Q 421 -2946 450 -2884 436 -2960 409 -3036 354 -3188 289 -3188 223 -3188 140 -3127 L 69 -3066" fill="#896236"></path><path d="M -124 -3081 Q -90 -3075 -72 -3066 L -143 -3127 Q -226 -3188 -292 -3188 -357 -3188 -411 -3036 -439 -2960 -453 -2884 -424 -2946 -347 -2979 -308 -2995 -276 -2999 L -373 -2999 Q -290 -3039 -216 -3050 L -159 -3053 Q -205 -3069 -239 -3074 L -263 -3076 -124 -3081" fill="#896236"></path><path d="M 702 -3127 Q 605 -3309 511 -3377 L 567 -3372 Q 632 -3373 680 -3406 569 -3391 499 -3432 403 -3486 383 -3490 L 423 -3500 Q 466 -3518 480 -3556 466 -3544 437 -3534 L 312 -3526 164 -3562 Q 66 -3580 -3 -3541 -72 -3578 -168 -3561 L -315 -3526 Q -384 -3514 -441 -3534 L -483 -3556 Q -469 -3518 -426 -3500 -404 -3491 -386 -3490 -411 -3485 -507 -3426 -589 -3375 -713 -3375 -657 -3334 -600 -3332 L -555 -3337 Q -629 -3272 -723 -3126 -797 -3011 -862 -2986 -831 -2991 -798 -3003 -732 -3027 -717 -3058 -765 -2949 -794 -2902 -840 -2827 -892 -2802 -804 -2813 -744 -2865 L -701 -2915 Q -723 -2831 -740 -2629 -764 -2456 -846 -2401 -765 -2432 -708 -2502 L -667 -2567 -651 -2539 Q -633 -2551 -598 -2549 L -566 -2544 Q -529 -3055 -355 -3140 -239 -3196 -3 -3053 L 0 -3053 Q 236 -3196 352 -3140 526 -3055 563 -2544 L 595 -2549 Q 630 -2551 648 -2539 L 667 -2613 714 -2547 Q 777 -2475 858 -2445 783 -2496 763 -2690 736 -2936 697 -3020 L 732 -2978 Q 784 -2934 871 -2923 790 -2961 702 -3127" fill="#bc9754"></path><path d="M 574 -2651 L 568 -2545 648 -2539 667 -2613 Q 680 -2649 680 -2755 680 -2806 665 -2828 651 -2850 631 -2836 581 -2804 574 -2651" fill="#ac843a"></path><path d="M -579 -2651 Q -586 -2804 -636 -2836 -656 -2850 -670 -2828 -685 -2806 -685 -2755 -685 -2649 -672 -2613 L -654 -2539 -630 -2545 Q -601 -2551 -574 -2545 L -579 -2651" fill="#ac843a"></path><path d="M 592 -2995 L 693 -3047 621 -3200 Q 585 -3178 520 -3147 L 544 -3105 592 -2995 M -717 -3059 Q -642 -3016 -581 -2989 -560 -3069 -510 -3142 -574 -3171 -629 -3205 L -717 -3059" fill="#ddbb7f"></path><path d="M 69 -3066 Q 120 -3117 198 -3137 L 304 -3140 Q 338 -3119 378 -3052 430 -2964 459 -2840 543 -2491 424 -1995 639 -2489 574 -2864 550 -2999 493 -3100 448 -3179 402 -3210 359 -3239 223 -3197 77 -3153 20 -3076 -5 -3051 30 -3056 L 69 -3066" fill="#ddbb7f"></path><path d="M 69 -3066 Q 120 -3117 198 -3137 L 304 -3140 Q 338 -3119 378 -3052 430 -2964 459 -2840 543 -2491 424 -1995 639 -2489 574 -2864 550 -2999 493 -3100 448 -3179 402 -3210 359 -3239 223 -3197 77 -3153 20 -3076 -5 -3051 30 -3056 L 69 -3066" fill="#ddbb7f"></path><path d="M -23 -3076 Q -80 -3153 -226 -3197 -363 -3239 -405 -3210 -451 -3179 -496 -3100 -553 -2999 -576 -2864 -642 -2489 -427 -1995 -546 -2491 -462 -2840 -433 -2964 -381 -3052 -341 -3119 -307 -3140 L -201 -3137 Q -123 -3117 -72 -3066 L -32 -3056 Q 2 -3051 -23 -3076" fill="#ddbb7f"></path><path d="M 7 -3259 Q 88 -3384 223 -3426 375 -3472 511 -3377 401 -3487 255 -3466 92 -3442 7 -3259" fill="#936826"></path><path d="M -21 -3229 Q 215 -3424 439 -3331 639 -3248 697 -3020 678 -3154 600 -3250 526 -3342 418 -3376 309 -3411 196 -3376 75 -3339 -21 -3229" fill="#936826"></path><path d="M 647 -3036 Q 565 -3249 404 -3301 541 -3218 614 -3028 688 -2836 667 -2613 730 -2823 647 -3036" fill="#936826"></path><path d="M 444 -2897 Q 528 -2622 471 -2232 551 -2532 506 -2820 459 -3125 304 -3140 385 -3091 444 -2897" fill="#bc9754"></path><path d="M -162 -3487 Q -264 -3544 -386 -3490 -276 -3518 -171 -3453 -68 -3389 -10 -3259 -53 -3426 -162 -3487" fill="#936826"></path><path d="M -157 -3356 Q -256 -3403 -370 -3383 -486 -3362 -578 -3278 -679 -3187 -724 -3044 -597 -3292 -388 -3344 -169 -3399 2 -3196 -53 -3307 -157 -3356" fill="#936826"></path><path d="M -649 -2998 Q -731 -2778 -667 -2567 -689 -2792 -616 -2990 -543 -3189 -406 -3270 -567 -3219 -649 -2998" fill="#936826"></path><path d="M -446 -2897 Q -388 -3091 -307 -3140 -461 -3125 -508 -2820 -553 -2531 -473 -2231 L -472 -2230 Q -530 -2621 -446 -2897" fill="#bc9754"></path><path d="M 476 -3128 L 435 -3112 Q 472 -3060 494 -3004 L 508 -2958 547 -2974 Q 518 -3063 476 -3128" fill="#fedda3"></path><path d="M -549 -2975 L -512 -2960 -458 -3076 -436 -3112 -478 -3129 Q -523 -3059 -549 -2975" fill="#fedda3"></path><path d="M 1 -3565 Q -136 -3565 -224 -3542 L -285 -3519 -283 -3334 285 -3334 288 -3519 Q 271 -3530 227 -3542 139 -3565 1 -3565" fill="#2b2a49"></path><path d="M 288 -3519 Q 288 -3552 244 -3578 172 -3620 1 -3620 -169 -3620 -241 -3578 -285 -3552 -285 -3519 L 0 -3504 288 -3519" fill="#536590"></path><path d="M 285 -3334 Q 285 -3349 202 -3360 L 1 -3371 -199 -3360 Q -283 -3349 -283 -3334 -283 -3319 -199 -3308 L 1 -3298 202 -3308 Q 285 -3319 285 -3334" fill="#2b2a49"></path><path d="M 531 -3654 L 0 -3840 -531 -3654 531 -3654" fill="#536590"></path><path d="M 0 -3840 L -531 -3654 -444 -3654 0 -3809 443 -3654 531 -3654 0 -3840" fill="#9caac8"></path><path d="M 529 -3584 L 529 -3654 -529 -3654 -529 -3584 529 -3584" fill="#2b2a49"></path><path d="M 373 -3584 L 373 -3654 -373 -3654 -373 -3584 373 -3584" fill="#101028"></path><path d="M 74 -3702 Q 216 -3665 240 -3631 248 -3619 244 -3605 L 235 -3584 Q 230 -3560 266 -3556 302 -3551 312 -3597 324 -3654 287 -3680 257 -3702 135 -3735 -12 -3776 -111 -3786 -238 -3798 -233 -3751 L -151 -3745 Q -46 -3733 74 -3702" fill="#67169f"></path><path d="M 238 -3751 Q 243 -3798 116 -3786 17 -3776 -130 -3735 -252 -3702 -282 -3680 -318 -3654 -307 -3597 -297 -3551 -261 -3556 -225 -3560 -231 -3584 L -239 -3605 Q -243 -3619 -235 -3631 -211 -3665 -69 -3702 51 -3733 157 -3745 L 238 -3751" fill="#67169f"></path><path d="M -2 -3300 Q 76 -3300 122 -3331 163 -3360 163 -3400 163 -3441 122 -3470 76 -3501 -2 -3501 -80 -3501 -126 -3470 -167 -3441 -167 -3400 -167 -3360 -126 -3331 -80 -3300 -2 -3300" fill="#101028"></path><path d="M 2 -3491 Q 109 -3491 109 -3504 108 -3518 0 -3518 -112 -3518 -118 -3504 -124 -3491 2 -3491" fill="#ffffff"></path><path d="M 10 -3766 L -91 -3770 Q -100 -3752 14 -3721 133 -3690 129 -3714 125 -3739 10 -3766" fill="#9b4bd2"></path></g><g id="cid_15" viewBox="60 0 4740 1480"><path d="M 4700 240 L 4740 240 4740 0 4500 0 4500 40 4700 40 4700 240 M 4700 1240 L 4700 1440 4500 1440 M 100 240 L 100 40 300 40 M 300 1440 L 100 1440 100 1240 M 300 40 L 300 0 60 0 60 240 100 240 M 100 1240 L 60 1240 60 1480 300 1480 300 1440 M 4500 1440 L 4500 1480 4740 1480 4740 1240 4700 1240" fill="#091630" fill-opacity="1"></path><path d="M 4660 1400 L 140 1400 140 80 4660 80 4660 1400 M 100 1240 L 100 1440 300 1440 M 300 40 L 100 40 100 240 M 4500 1440 L 4700 1440 4700 1240 M 4500 40 L 300 40 M 100 240 L 100 1240 M 300 1440 L 4500 1440 M 4700 1240 L 4700 240 4700 40 4500 40" fill="#1e8758" fill-opacity="1"></path><path d="M 4660 1400 L 4660 80 140 80 140 1400 4660 1400" fill="#ffffff" fill-opacity="0.69411764705882"></path></g><text id="cid_16" font-size="280" font-family="ヒラギノ角ゴ Pro W6" font-weight="bold" fill="000000" viewBox="13 65 4359 4424"><tspan x="0 280 560 840" y="300">わたる：</tspan><tspan x="0 280 560 840 1120 1400 1680 1960 2240 2520 2800 3080" y="660">「オイオイ聞いてくれよ」</tspan><tspan x="0 280 560 840" y="1420">わたる：</tspan><tspan x="0 280 560 840 1120 1400 1680 1960 2240 2520 2800 3080 3360 3640" y="1780">「あいつマジイケてるよな！」</tspan><tspan x="0 280 560 840" y="2540">わたる：</tspan><tspan x="0 280 560 840 1120 1400 1680 1960 2240" y="2900">「もう我慢出来ねー</tspan><tspan x="2520 2615" y="2900">!!</tspan><tspan x="2710 2990 3270 3550 3830" y="2900">って感じ」</tspan><tspan x="0 280 560 840" y="3660">わたる：</tspan><tspan x="0 280" y="4020">「あ</tspan><tspan x="560" y="4020">、</tspan><tspan x="740 1020 1300 1580 1860 2140 2420 2700 2980 3260 3540 3820 4100" y="4020">話し変わるけどさっき拾った</tspan><tspan x="0 280 560 840 1120 1400 1680" y="4400">　コレいる？」</tspan></text><g id="cid_17" viewBox="-699 -2771 699 -2134"><path d="M -199 -2506 Q -281 -2467 -281 -2412 -281 -2357 -199 -2318 -116 -2279 0 -2279 116 -2279 199 -2318 281 -2357 281 -2412 281 -2467 199 -2506 116 -2545 0 -2545 -116 -2545 -199 -2506" fill="#feb38c"></path><path d="M 182 -2412 Q 182 -2441 129 -2461 75 -2482 0 -2482 -75 -2482 -129 -2461 -182 -2441 -182 -2412 -182 -2383 -129 -2363 -75 -2342 0 -2342 75 -2342 129 -2363 182 -2383 182 -2412" fill="#ff9a7d"></path><path d="M 600 -2424 Q 666 -2387 692 -2445 718 -2504 648 -2539 587 -2570 561 -2515 535 -2460 600 -2424" fill="#ff8a69"></path><path d="M -648 -2539 Q -718 -2504 -692 -2445 -666 -2387 -600 -2424 -535 -2460 -561 -2515 -587 -2570 -648 -2539" fill="#ff8a69"></path><path d="M 165 -2525 Q 165 -2440 211 -2398 245 -2367 289 -2367 342 -2367 376 -2414 417 -2471 405 -2572 398 -2629 359 -2660 324 -2689 278 -2684 231 -2678 200 -2640 165 -2596 165 -2525" fill="#00c1bb"></path><path d="M 165 -2525 L 166 -2515 408 -2515 405 -2572 Q 398 -2629 359 -2660 324 -2689 278 -2684 231 -2678 200 -2640 165 -2596 165 -2525" fill="#015a6a"></path><path d="M 196 -2527 Q 198 -2499 232 -2472 L 265 -2451 Q 282 -2459 300 -2472 334 -2500 334 -2529 334 -2564 308 -2571 281 -2578 265 -2547 245 -2578 219 -2569 194 -2560 196 -2527" fill="#ffffff"></path><path d="M 166 -2608 L 406 -2622 Q 379 -2664 336 -2683 249 -2721 166 -2608" fill="#fed8ad"></path><path d="M 114 -2555 L 149 -2557 300 -2577 434 -2579 486 -2583 Q 486 -2597 449 -2612 396 -2633 299 -2630 201 -2627 150 -2596 114 -2575 114 -2555" fill="#01263f"></path><path d="M 157 -2647 Q 291 -2676 432 -2677 328 -2703 232 -2677 L 157 -2647" fill="#ea8256"></path><path d="M 60 -2761 Q 176 -2689 305 -2683 L 411 -2691 Q 299 -2758 168 -2766 L 60 -2761" fill="#bc9754"></path><path d="M 338 -2454 L 318 -2472 Q 307 -2477 299 -2472 292 -2467 294 -2454 295 -2442 304 -2429 L 324 -2412 343 -2411 Q 350 -2416 348 -2429 347 -2441 338 -2454" fill="#98fbff"></path><path d="M -157 -2525 Q -157 -2596 -192 -2640 -223 -2678 -270 -2684 -316 -2689 -351 -2660 -390 -2629 -397 -2572 -409 -2471 -368 -2414 -333 -2367 -281 -2367 -236 -2367 -202 -2398 -157 -2440 -157 -2525" fill="#00c1bb"></path><path d="M -157 -2525 Q -157 -2596 -192 -2640 -223 -2678 -270 -2684 -316 -2689 -351 -2660 -390 -2629 -397 -2572 L -399 -2515 -157 -2515 -157 -2525" fill="#015a6a"></path><path d="M -155 -2599 Q -226 -2731 -328 -2690 -359 -2677 -390 -2648 L -415 -2622 -155 -2599" fill="#fed8ad"></path><path d="M -157 -2647 Q -182 -2664 -229 -2677 -322 -2702 -431 -2677 L -344 -2673 -157 -2647" fill="#ea8256"></path><path d="M -203 -2454 Q -212 -2467 -223 -2472 -234 -2477 -242 -2472 -249 -2467 -247 -2454 -246 -2442 -237 -2429 L -217 -2412 -198 -2411 Q -191 -2416 -193 -2429 L -203 -2454" fill="#98fbff"></path><path d="M -328 -2527 Q -326 -2499 -292 -2472 L -258 -2451 -224 -2472 Q -190 -2500 -190 -2529 -190 -2564 -216 -2571 -243 -2578 -259 -2547 -279 -2578 -305 -2569 -330 -2560 -328 -2527" fill="#ffffff"></path><path d="M -305 -2683 Q -176 -2689 -59 -2761 L -151 -2770 Q -270 -2764 -411 -2691 L -305 -2683" fill="#bc9754"></path><path d="M -149 -2557 L -114 -2555 Q -114 -2574 -149 -2596 -201 -2627 -298 -2630 -396 -2633 -449 -2612 -486 -2597 -486 -2583 L -433 -2579 -300 -2577 -149 -2557" fill="#01263f"></path><path d="M 106 -2224 L 53 -2228 0 -2220 -55 -2229 -112 -2224 Q -129 -2209 -92 -2173 -53 -2134 0 -2134 52 -2134 88 -2173 122 -2210 106 -2224" fill="#a70226"></path></g><g id="cid_18" viewBox="-952 -1063 953 1064"><path d="M 162 -1047 Q -41 -1069 -201 -993 -377 -910 -415 -745 -584 -791 -722 -706 -846 -629 -904 -475 -962 -323 -928 -173 -891 -11 -758 78 -816 189 -796 300 -777 402 -699 475 -622 547 -516 560 -402 574 -293 512 -187 643 -15 681 143 716 302 663 460 610 544 494 636 368 599 212 738 212 835 99 924 -5 939 -156 954 -311 882 -429 802 -562 636 -596 647 -788 499 -913 368 -1025 162 -1047" fill="#ffffff"></path><path d="M 162 -1047 Q -41 -1069 -201 -993 -377 -910 -415 -745 -584 -791 -722 -706 -846 -629 -904 -475 -962 -323 -928 -173 -891 -11 -758 78 -816 189 -796 300 -777 402 -699 475 -622 547 -516 560 -402 574 -293 512 -187 643 -15 681 143 716 302 663 460 610 544 494 636 368 599 212 738 212 835 99 924 -5 939 -156 954 -311 882 -429 802 -562 636 -596 647 -788 499 -913 368 -1025 162 -1047" fill="none" stroke="#b2b2b2" stroke-width="22" stroke-linecap="round" stroke-linejoin="round"></path><path d="M 239 898 Q 344 898 403 847 456 801 454 734 451 668 396 621 334 570 235 570 136 570 75 621 21 668 20 734 19 801 73 847 133 898 239 898" fill="#ffffff"></path><path d="M 239 898 Q 133 898 73 847 19 801 20 734 21 668 75 621 136 570 235 570 334 570 396 621 451 668 454 734 456 801 403 847 344 898 239 898" fill="none" stroke="#b2b2b2" stroke-width="22" stroke-linecap="round" stroke-linejoin="round"></path><path d="M 515 878 Q 462 878 431 905 403 930 404 966 404 1001 432 1026 464 1053 517 1053 570 1053 602 1026 630 1001 630 966 630 930 601 905 570 878 515 878" fill="#ffffff"></path><path d="M 515 878 Q 570 878 601 905 630 930 630 966 630 1001 602 1026 570 1053 517 1053 464 1053 432 1026 404 1001 404 966 403 930 431 905 462 878 515 878" fill="none" stroke="#b2b2b2" stroke-width="22" stroke-linecap="round" stroke-linejoin="round"></path><path d="M 237 -92 Q 334 -170 334 -360 334 -498 237 -595 140 -692 2 -692 -135 -692 -232 -595 -329 -498 -329 -360 -329 -158 -232 -84 -160 -29 2 -29 159 -29 237 -92" fill="#000000"></path><path d="M 268 113 Q 268 23 231 0 205 -17 135 -6 88 2 64 -14 L 49 -32 -44 -32 -59 -14 Q -83 2 -131 -6 -200 -17 -226 0 -263 24 -263 113 -263 216 -213 342 -168 457 -117 508 L 122 508 Q 173 457 218 342 268 216 268 113" fill="#000000"></path><path d="M 98 -194 L -93 -194 -71 -157 Q -40 -120 2 -120 43 -120 75 -157 L 98 -194" fill="#ffffff"></path><path d="M 235 292 L -231 292 Q -209 362 -177 421 -146 480 -117 508 L 122 508 Q 150 480 181 422 213 362 235 293 L 235 292" fill="#727272"></path><path d="M 191 403 L -186 403 Q -149 478 -117 508 L 122 508 Q 155 475 191 403" fill="#c1c1c1"></path><path d="M -537 54 Q -641 31 -687 82 -729 129 -701 200 -671 274 -585 308 -485 348 -350 308 -274 188 -282 80 -290 -12 -351 -62 -409 -110 -466 -83 -528 -53 -537 54" fill="#ff87b1"></path><path d="M -552 -506 Q -613 -544 -654 -521 -691 -501 -688 -449 -685 -395 -638 -355 -583 -307 -488 -303 -414 -363 -396 -434 -381 -494 -409 -539 -435 -582 -477 -577 -523 -572 -552 -506" fill="#ffb7d0"></path><path d="M 563 -186 Q 547 -269 495 -286 448 -301 405 -258 361 -212 363 -140 366 -54 438 31 549 48 625 7 689 -27 706 -88 722 -145 684 -178 643 -213 563 -186" fill="#ff87b1"></path><path d="M 384 -751 Q 364 -816 321 -826 281 -834 251 -796 219 -756 227 -697 236 -629 301 -566 392 -561 449 -600 498 -633 507 -683 515 -731 482 -754 L 384 -751" fill="#ffb7d0"></path></g><g id="cid_19" viewBox="0 0 1634 2036"><path d="M 1392 2032 L 1507 2022 Q 1528 2011 1487 1981 1434 1942 1422 1924 1396 1886 1384 1789 L 1203 1794 1217 1851 Q 1230 1917 1227 1966 1224 2021 1262 2030 L 1392 2032" fill="#fed8ad"></path><path d="M 1396 1860 L 1384 1789 1203 1794 1218 1858 Q 1336 1868 1396 1860" fill="#fe9761"></path><path d="M 1214 1954 Q 1207 1987 1308 2016 1405 2044 1440 2032 1474 2021 1346 1970 1222 1921 1214 1954" fill="#03296a"></path><path d="M 1484 1961 Q 1458 1944 1433 1982 1408 2021 1420 2032 1430 2043 1466 2009 1502 1975 1484 1961" fill="#03296a"></path><path d="M 647 2030 Q 685 2021 682 1966 679 1917 692 1851 L 705 1794 524 1789 Q 513 1885 487 1924 L 421 1981 Q 380 2011 402 2022 L 517 2032 647 2030" fill="#fed8ad"></path><path d="M 512 1860 Q 573 1868 690 1858 L 705 1794 524 1789 512 1860" fill="#fe9761"></path><path d="M 694 1954 Q 686 1921 562 1970 435 2021 469 2032 504 2044 601 2016 702 1987 694 1954" fill="#03296a"></path><path d="M 425 1961 Q 406 1975 442 2009 478 2043 489 2032 501 2020 475 1982 450 1944 425 1961" fill="#03296a"></path><path d="M 1017 137 L 1017 0 888 0 887 137 1017 137" fill="#feac73"></path><path d="M 787 110 Q 738 110 710 128 678 149 665 197 L 637 284 606 366 662 534 Q 669 480 700 403 728 333 742 320 772 287 803 303 875 221 838 157 827 137 806 122 L 787 110" fill="#fed8ad"></path><path d="M 665 197 L 657 222 Q 706 287 740 322 L 749 313 749 312 786 110 Q 736 111 709 129 678 149 665 197" fill="#fe9761"></path><path d="M 707 235 Q 740 304 740 345 L 741 451 1160 451 1224 110 Q 1217 103 1182 96 L 1149 90 950 161 764 103 730 111 Q 692 123 674 140 674 167 707 235" fill="#03296a"></path><path d="M 887 28 L 845 56 875 125 Q 913 197 952 213 991 198 1027 124 L 1055 53 1017 31 1002 60 Q 980 91 950 104 923 91 902 58 L 887 28" fill="#ffffff"></path><path d="M 804 71 Q 766 92 764 103 804 219 892 293 935 331 971 345 L 958 220 Q 926 188 882 119 L 845 56 Q 841 49 804 71" fill="#04689b"></path><path d="M 1107 60 Q 1058 38 1051 50 L 979 168 Q 879 307 741 413 L 741 524 Q 823 502 964 361 1116 209 1149 90 1149 79 1107 60" fill="#0492b7"></path><path d="M 1456 1748 L 1171 1756 1171 1788 1358 1796 1456 1788 1456 1748" fill="#70339a"></path><path d="M 448 1748 L 448 1788 547 1796 734 1788 734 1756 448 1748" fill="#70339a"></path><path d="M 1161 651 L 741 651 Q 710 671 685 744 L 632 887 Q 370 1457 326 1501 286 1540 289 1600 291 1665 346 1691 422 1728 441 1746 L 477 1752 582 1758 Q 624 1775 717 1772 821 1770 889 1741 931 1724 919 1672 L 899 1623 Q 934 1333 952 1086 967 1381 1006 1623 L 986 1672 Q 974 1724 1016 1741 1083 1770 1187 1772 1281 1775 1322 1758 L 1464 1746 1483 1732 Q 1511 1714 1559 1691 1613 1665 1616 1600 1618 1540 1579 1501 1549 1471 1425 1214 L 1272 887 1218 744 Q 1191 671 1161 651" fill="#894db1"></path><path d="M 715 1195 L 737 1182 Q 757 1161 753 1127 L 39 720 Q 12 736 3 763 L 0 787 715 1195" fill="#ff5806"></path><path d="M 378 958 Q 681 1130 686 1117 690 1103 393 933 102 767 104 785 106 803 378 958" fill="#febe4a"></path><path d="M 129 839 Q 147 849 156 833 165 817 148 806 130 796 121 812 111 829 129 839" fill="#000000"></path><path d="M 212 886 Q 230 896 240 880 249 864 231 854 213 844 204 860 195 876 212 886" fill="#000000"></path><path d="M 296 934 Q 314 944 323 928 332 912 315 901 297 891 288 908 278 924 296 934" fill="#000000"></path><path d="M 380 982 Q 397 992 407 976 416 959 398 949 380 939 371 955 362 972 380 982" fill="#000000"></path><path d="M 463 1029 Q 481 1039 491 1023 500 1007 482 997 464 987 455 1003 445 1019 463 1029" fill="#000000"></path><path d="M 641 1131 Q 676 1151 685 1134 694 1118 659 1098 625 1078 616 1095 607 1112 641 1131" fill="#000000"></path><path d="M 1222 70 Q 1195 70 1148 127 1099 188 1080 253 L 1046 360 1007 444 1160 451 Q 1229 407 1290 349 L 1402 238 Q 1411 229 1393 209 1373 186 1330 170 1285 154 1256 110 1230 70 1222 70" fill="#894db1"></path><path d="M 1132 451 L 1148 450 Q 1207 405 1270 345 L 1356 264 Q 1394 231 1380 229 1366 227 1312 261 1269 287 1218 352 1158 429 1132 451" fill="#220735"></path><path d="M 1330 170 Q 1299 159 1276 135 1264 123 1247 95 L 1243 91 Q 1256 118 1230 164 1206 206 1212 212 1218 219 1263 202 1318 181 1362 185 1346 178 1330 170" fill="#6a259a"></path><path d="M 1161 651 L 1160 451 950 443 799 447 740 451 741 651 950 655 1161 651" fill="#ffffff"></path><path d="M 952 550 L 1116 557 Q 1170 560 1170 548 1170 533 1118 528 L 952 522 Q 734 522 734 548 734 558 788 556 L 952 550" fill="#041e76"></path><path d="M 952 1086 Q 1083 1086 1137 1022 1154 1001 1161 977 L 1165 957 953 967 799 963 749 958 751 978 Q 756 1002 772 1022 821 1086 952 1086" fill="#6a259a"></path><path d="M 1065 1061 Q 1161 1054 1217 1036 1045 1049 846 1035 L 682 1018 Q 875 1074 1065 1061" fill="#3f0c65"></path><path d="M 991 1091 Q 1058 1075 1093 1051 994 1077 837 1084 L 700 1085 Q 858 1123 991 1091" fill="#3f0c65"></path><path d="M 1161 651 L 741 651 Q 814 705 939 709 1073 714 1161 651" fill="#6a259a"></path><path d="M 854 532 Q 873 640 873 726 L 869 791 937 776 Q 937 660 896 585 L 854 532" fill="#041e76"></path><path d="M 812 821 Q 812 750 826 630 L 839 524 Q 773 623 756 728 747 781 752 813 L 812 821" fill="#041e76"></path><path d="M 850 575 Q 881 572 881 531 881 492 844 523 803 505 811 541 819 577 850 575" fill="#041e76"></path><path d="M 1456 1746 L 1171 1762 1171 1794 1358 1802 1456 1794 1456 1746" fill="#8c54b1"></path><path d="M 448 1737 L 448 1794 547 1802 734 1794 734 1762 448 1737" fill="#8c54b1"></path><path d="M 1334 1668 Q 1311 1668 1224 1709 1136 1750 1048 1750 1117 1770 1206 1771 1287 1771 1322 1756 L 1464 1744 1511 1714 Q 1462 1727 1415 1700 1360 1668 1334 1668" fill="#6a259a"></path><path d="M 1132 1628 Q 1270 1699 1404 1672 1471 1658 1510 1630 1408 1669 1260 1652 L 1132 1628" fill="#3f0c65"></path><path d="M 573 1668 Q 547 1668 492 1700 445 1727 396 1714 432 1734 442 1744 L 478 1750 584 1756 Q 619 1771 701 1771 790 1770 858 1750 788 1750 693 1709 599 1668 573 1668" fill="#6a259a"></path><path d="M 775 1628 Q 721 1644 647 1652 499 1669 397 1630 L 425 1646 Q 461 1663 503 1672 636 1699 775 1628" fill="#3f0c65"></path><path d="M 344 898 Q 313 947 335 966 L 341 990 Q 351 1013 367 1008 L 373 1033 Q 385 1055 416 1037 L 474 959 426 926 Q 372 894 344 898" fill="#feac73"></path><path d="M 543 925 L 514 956 Q 482 994 470 1023 457 1055 471 1073 L 488 1084 521 1028 Q 535 1001 541 960 L 543 925" fill="#feac73"></path><path d="M 365 867 Q 327 912 349 940 L 352 958 Q 358 977 379 978 383 1011 407 1010 L 429 1002 419 1025 Q 411 1049 422 1057 435 1067 470 1044 L 518 1001 Q 534 980 542 928 L 560 845 433 770 Q 422 798 365 867" fill="#fed8ad"></path><path d="M 675 502 Q 688 450 707 395 L 724 350 Q 710 340 690 332 L 620 328 Q 579 423 505 561 430 701 409 722 L 272 857 371 933 Q 493 1004 609 985 L 611 848 Q 613 804 624 745 L 644 641 Q 660 559 675 502" fill="#03296a"></path><path d="M 609 985 L 609 916 Q 502 928 403 868 L 325 806 272 857 371 933 Q 493 1004 609 985" fill="#0492b7"></path><path d="M 1272 291 Q 1236 327 1195 382 L 1217 439 Q 1241 502 1245 534 L 1300 366 1272 291" fill="#fe9761"></path><path d="M 1563 898 Q 1535 894 1481 926 1454 942 1433 959 L 1490 1037 Q 1521 1055 1534 1033 L 1540 1008 Q 1556 1013 1565 990 L 1571 966 Q 1593 948 1563 898" fill="#feac73"></path><path d="M 1364 925 L 1366 960 Q 1371 1001 1385 1028 L 1418 1084 1435 1073 Q 1449 1055 1436 1023 1424 994 1393 956 L 1364 925" fill="#feac73"></path><path d="M 1474 770 L 1346 845 1364 928 Q 1373 980 1388 1001 L 1436 1044 Q 1472 1067 1484 1057 1502 1044 1478 1002 L 1500 1010 Q 1523 1011 1528 978 1548 977 1555 958 L 1558 940 Q 1580 912 1542 867 1485 799 1474 770" fill="#fed8ad"></path><path d="M 1286 328 Q 1250 337 1219 360 L 1195 382 1205 411 1232 502 Q 1255 593 1282 745 1293 804 1296 848 L 1297 985 Q 1413 1004 1535 933 L 1634 857 1497 722 Q 1476 701 1402 561 1328 424 1286 328" fill="#03296a"></path><path d="M 1297 985 Q 1413 1004 1535 933 L 1634 857 1582 806 1504 868 Q 1404 928 1297 916 L 1297 985" fill="#0492b7"></path></g><g id="cid_20" viewBox="-699 -2823 699 -2125"><path d="M -243 -2527 Q -344 -2479 -344 -2412 -344 -2344 -243 -2297 -142 -2249 0 -2249 143 -2249 243 -2297 344 -2344 344 -2412 344 -2479 243 -2527 143 -2575 0 -2575 -142 -2575 -243 -2527" fill="#feb18a"></path><path d="M -175 -2479 Q -248 -2451 -248 -2412 -248 -2373 -175 -2345 -103 -2317 0 -2317 102 -2317 175 -2345 247 -2373 247 -2412 247 -2451 175 -2479 102 -2507 0 -2507 -103 -2507 -175 -2479" fill="#ff9678"></path><path d="M 222 -2438 Q 278 -2494 428 -2576 401 -2603 259 -2520 117 -2437 144 -2393 L 248 -2407 427 -2421 Q 420 -2451 320 -2447 L 222 -2438" fill="#01263f"></path><path d="M 82 -2558 Q 204 -2620 276 -2728 312 -2782 324 -2823 188 -2740 122 -2641 88 -2591 82 -2558" fill="#bc9754"></path><path d="M 111 -2270 Q 75 -2276 42 -2255 6 -2232 0 -2232 -6 -2232 -42 -2255 -76 -2276 -112 -2270 -168 -2261 -168 -2196 -168 -2130 -106 -2125 -74 -2123 -41 -2136 L 0 -2150 41 -2136 Q 73 -2123 105 -2125 167 -2130 167 -2196 167 -2261 111 -2270" fill="#a70226"></path><path d="M 48 -2645 Q 14 -2573 55 -2552 76 -2541 103 -2545 63 -2555 52 -2601 L 48 -2645" fill="#dd774c"></path><path d="M -225 -2438 L -323 -2447 Q -422 -2451 -430 -2421 -330 -2421 -147 -2393 -120 -2437 -262 -2520 -404 -2603 -431 -2576 L -349 -2528 Q -260 -2473 -225 -2438" fill="#01263f"></path><path d="M -279 -2728 Q -207 -2620 -85 -2558 -91 -2591 -125 -2641 -191 -2740 -327 -2823 L -279 -2728" fill="#bc9754"></path><path d="M -51 -2645 L -54 -2601 Q -66 -2555 -106 -2545 -78 -2541 -58 -2552 -17 -2573 -51 -2645" fill="#dd774c"></path><path d="M 600 -2424 Q 666 -2387 692 -2445 718 -2504 648 -2539 587 -2570 561 -2515 535 -2460 600 -2424" fill="#ff8a69"></path><path d="M -648 -2539 Q -718 -2504 -692 -2445 -666 -2387 -600 -2424 -535 -2460 -561 -2515 -587 -2570 -648 -2539" fill="#ff8a69"></path></g><g id="cid_21" viewBox="-321 -213 1222 1347"><path d="M 1089 307 L 1074 260 Q 1066 233 1067 213 1078 168 1075 142 1071 94 1043 57 991 -14 894 -14 860 -14 816 -33 763 -51 682 -86 572 -133 538 -157 450 -222 385 -212 322 -200 250 -136 220 -107 117 -54 17 -3 5 2 L -27 13 -60 14 Q -109 17 -149 38 -231 81 -253 170 -265 213 -254 261 L -231 325 Q -226 344 -238 427 L -256 531 Q -260 555 -273 583 L -298 630 Q -342 722 -302 796 -284 832 -219 892 -150 960 -110 1020 -97 1040 -94 1076 -91 1121 -63 1157 -35 1193 8 1206 L 75 1210 141 1214 236 1245 Q 308 1271 334 1304 362 1338 407 1345 450 1353 495 1333 518 1324 552 1298 588 1270 605 1261 633 1246 697 1227 769 1205 789 1209 863 1222 914 1179 940 1158 955 1125 L 962 1095 966 1064 Q 963 1051 1018 967 1073 883 1102 855 1222 744 1222 649 1222 598 1182 530 1131 446 1123 418 L 1089 307" fill="#c13903"></path><path d="M 1065 468 Q 1049 358 1000 260 1041 201 996 117 948 24 824 49 712 -34 561 -58 485 -162 376 -149 276 -136 238 -45 115 -10 26 65 -94 33 -173 124 -258 221 -167 366 -206 462 -215 541 -231 690 -179 871 -63 1091 73 1162 139 1197 326 1221 367 1262 417 1273 497 1289 568 1210 640 1203 747 1150 856 1155 902 1083 924 1048 924 1008 970 963 1003 885 L 1047 774 Q 1121 769 1142 653 1163 531 1065 468" fill="#ef421b"></path><path d="M 948 180 Q 801 -27 574 -73 315 -123 28 64 117 360 251 542 486 865 922 1011 1083 857 1085 610 1086 375 948 180" fill="#febc94"></path><path d="M 891 935 Q 1022 765 1006 534 990 303 839 152 670 -15 405 2 139 19 -7 208 -137 378 -121 610 -106 841 46 992 215 1159 481 1142 747 1125 891 935" fill="#ff721f"></path><path d="M 49 553 Q 49 494 10 459 -24 428 -75 428 -126 428 -162 459 -201 494 -201 553 -201 677 -75 677 49 677 49 553" fill="#ff721f"></path><path d="M 44 750 Q 107 750 107 688 107 623 44 623 -19 623 -19 688 -19 750 44 750" fill="#000000"></path><path d="M 438 538 Q 438 476 398 440 360 408 308 408 255 408 217 440 177 476 177 538 177 599 217 635 255 669 308 669 360 669 398 635 438 599 438 538" fill="#fe8841"></path><path d="M 318 660 Q 382 660 382 597 382 533 318 533 255 533 255 597 255 660 318 660" fill="#000000"></path><path d="M 255 904 Q 318 904 318 841 318 777 255 777 192 777 192 841 192 904 255 904" fill="#000000"></path><path d="M 1017 211 Q 1017 133 966 88 919 46 852 46 785 46 739 88 688 133 688 211 688 288 739 333 785 375 852 375 919 375 966 333 1017 288 1017 211" fill="#ff721f"></path><path d="M 986 102 Q 959 64 899 49 840 34 807 57 776 77 788 126 796 166 828 212 855 251 898 263 940 275 974 252 1006 229 1010 185 1014 141 986 102" fill="#febc94"></path><path d="M 1145 625 Q 1146 550 1107 506 1073 466 1022 466 970 464 934 503 892 546 891 621 890 696 928 740 963 780 1014 780 1066 781 1102 742 1143 700 1145 625" fill="#febc94"></path><path d="M 1121 625 Q 1122 534 1087 534 1053 533 1051 623 1050 714 1085 716 1119 716 1121 625" fill="#ffdac4"></path><path d="M 391 62 Q 542 70 548 -34 550 -77 514 -109 474 -144 403 -148 254 -156 248 -51 242 53 391 62" fill="#febc94"></path><path d="M 685 311 Q 736 280 749 219 763 157 729 102 696 48 636 32 576 15 523 48 471 78 458 140 446 201 479 256 513 311 573 327 633 343 685 311" fill="#ff7422"></path><path d="M 732 108 Q 725 -18 616 -11 507 -5 514 120 521 244 630 239 739 232 732 108" fill="#febc94"></path><path d="M 824 615 Q 844 546 808 483 773 420 703 402 633 384 568 420 503 458 483 527 463 597 498 660 534 722 605 740 674 758 740 721 804 685 824 615" fill="#ff7422"></path><path d="M 250 1003 Q 250 935 204 895 164 859 105 859 46 859 6 895 -39 935 -39 1003 -39 1071 6 1111 46 1147 105 1147 164 1147 204 1111 250 1071 250 1003" fill="#ff721f"></path><path d="M 173 1040 Q 173 935 68 935 -39 935 -39 1040 -39 1147 68 1147 173 1147 173 1040" fill="#ff5f1e"></path><path d="M 89 1060 Q 89 1018 46 1018 2 1018 2 1060 2 1103 46 1103 89 1103 89 1060" fill="#ef421b"></path><path d="M 97 379 Q 163 362 189 308 215 260 199 203 184 146 139 117 88 84 22 101 -43 118 -70 172 -95 221 -79 277 -64 333 -19 363 32 396 97 379" fill="#fe9f66"></path><path d="M 54 329 Q 156 301 129 199 103 97 0 124 -103 150 -76 253 -48 356 54 329" fill="#febc94"></path><path d="M -4 236 Q 37 225 26 184 16 142 -26 153 -67 164 -56 205 -46 247 -4 236" fill="#ffdac4"></path><path d="M 872 519 Q 872 436 817 388 768 344 697 344 625 344 576 388 521 436 521 519 521 602 576 652 625 696 697 696 768 696 817 652 872 602 872 519" fill="#fe8841"></path><path d="M 490 -77 Q 494 -133 410 -140 324 -145 320 -90 316 -34 402 -27 486 -21 490 -77" fill="#ffffff"></path><path d="M 963 169 Q 990 152 964 110 939 69 912 86 886 104 911 145 936 187 963 169" fill="#ffffff"></path><path d="M 466 860 Q 360 864 364 970 370 1076 475 1071 582 1066 577 960 573 855 466 860" fill="#ff5f1e"></path><path d="M 490 943 Q 447 945 449 988 451 1031 494 1028 537 1027 535 984 533 941 490 943" fill="#ef421b"></path><path d="M 896 1087 Q 934 1036 927 970 920 903 874 860 823 813 744 821 665 829 624 885 586 936 593 1003 600 1070 646 1112 699 1159 777 1151 856 1143 896 1087" fill="#ff721f"></path><path d="M 931 1014 Q 919 892 796 904 673 916 686 1038 699 1159 821 1147 944 1135 931 1014" fill="#ff5f1e"></path><path d="M 829 998 Q 780 1003 785 1052 791 1102 840 1096 890 1091 884 1043 879 994 829 998" fill="#ef421b"></path></g><g id="cid_23" viewBox="-420 400 3879 1737"><path d="M 3528 564 L 3440 564 3440 606 3347 566 3347 434 3141 434 3141 447 3002 447 3002 598 2703 598 2725 595 2714 533 Q 2706 489 2689 447 L 2672 403 2608 412 2607 408 2442 426 2443 431 2322 431 2322 503 2162 503 2162 598 1799 598 1799 614 Q 1737 583 1663 558 L 1663 427 1451 427 1451 473 1349 400 1313 438 Q 1231 525 1177 561 1074 630 983 654 L 950 664 940 653 Q 977 642 1001 612 1025 580 1025 540 1025 491 990 457 956 422 907 422 869 422 838 444 808 465 796 500 757 471 710 471 648 471 600 526 L 578 553 578 550 389 453 360 557 310 527 Q 228 479 132 450 L 85 436 72 462 -415 462 -415 666 -135 666 -135 745 -420 745 -420 949 62 949 72 982 123 974 Q 286 948 376 887 445 840 494 763 L 590 881 711 722 930 979 1039 852 1059 845 1137 817 1137 976 1348 976 1348 690 1451 601 1451 977 1663 977 1663 785 Q 1724 818 1755 841 L 1811 881 1849 807 2151 807 2120 839 2268 989 2322 932 2322 974 2528 974 2528 936 2533 943 2573 989 2729 850 2692 807 2959 807 2951 816 2913 858 3060 1008 3103 967 3141 922 3141 975 3203 973 Q 3362 969 3449 861 L 3456 853 3526 925 3527 924 Q 3548 953 3584 967 3630 984 3706 984 L 3849 981 3848 817 3879 811 3847 624 3839 626 3839 564 3720 564 3725 539 3533 529 3528 564 M 2037 1326 L 1976 1326 1976 1490 Q 1924 1452 1900 1396 1870 1328 1873 1209 L 1875 1147 1545 1147 1545 1305 1334 1305 1337 1289 1201 1281 1131 1120 1083 1130 921 1149 747 1156 620 1151 645 1279 645 1374 620 1374 620 1571 707 1571 734 1716 905 1716 Q 956 1716 988 1684 1019 1651 1019 1599 L 1019 1571 1126 1571 Q 1127 1626 1135 1668 L 1144 1721 1332 1709 1329 1691 1430 1702 1503 1698 1532 1695 1559 1736 1607 1711 Q 1705 1661 1766 1575 1820 1655 1925 1711 L 1973 1737 2015 1675 2037 1725 2043 1718 2226 1718 2223 1670 Q 2261 1707 2351 1709 L 2402 1712 2404 1703 2503 1732 2518 1681 2536 1692 Q 2560 1705 2592 1709 L 2675 1713 2783 1710 2780 1522 2777 1522 2777 1362 2665 1363 2665 1310 2594 1310 2598 1274 2408 1268 2405 1310 2347 1310 2347 1340 2342 1334 Q 2309 1299 2254 1299 L 2225 1302 2225 1274 2037 1274 2037 1326 M 2376 1489 L 2380 1489 2376 1508 2376 1489 M 283 691 L 285 687 359 561 Q 331 646 283 691 M 200 707 L 230 727 Q 175 754 79 763 L 75 764 75 643 Q 144 668 200 707 M 1457 1487 L 1550 1487 1550 1350 1661 1350 Q 1634 1446 1537 1508 L 1434 1517 1457 1487" fill="#0b9747"></path><path d="M 16 891 L 16 524 -354 524 -354 607 -75 607 -75 806 -360 806 -360 891 16 891 M 85 824 L 113 916 Q 260 893 336 842 456 763 507 582 L 428 542 Q 388 688 306 752 231 812 85 824 M 234 658 L 279 580 Q 201 534 115 509 L 78 582 Q 159 608 234 658 M 1210 613 Q 1096 687 998 714 L 1041 789 Q 1122 765 1197 721 L 1197 918 1288 918 1288 661 Q 1372 602 1433 534 L 1357 480 1285 554 1210 613 M 930 888 L 998 809 793 581 Q 765 550 746 540 L 710 532 Q 676 532 645 567 L 526 708 590 787 679 665 695 645 Q 701 639 708 639 719 639 736 660 L 930 888 M 948 582 Q 965 565 965 541 965 516 948 500 931 483 907 483 884 483 866 500 849 517 849 541 849 565 866 582 884 599 907 599 931 599 948 582 M 923 526 L 929 541 923 557 907 563 Q 899 563 892 557 886 550 886 541 886 532 892 526 898 520 907 520 916 520 923 526 M 2350 691 L 2271 682 Q 2268 725 2257 755 2241 803 2204 840 L 2267 904 Q 2338 832 2350 691 M 1859 659 L 1859 748 2183 748 2183 659 1859 659 M 1790 793 L 1836 703 Q 1731 641 1603 602 L 1603 488 1511 488 1511 919 1603 919 1603 693 Q 1643 706 1701 738 L 1790 793 M 3148 508 L 3062 508 3062 626 3061 688 3052 749 Q 3043 789 3026 818 L 2996 858 3061 925 Q 3109 879 3130 800 3148 730 3148 618 L 3148 508 M 2664 659 L 2664 748 2987 748 2987 659 2664 659 M 2578 681 L 2500 692 Q 2510 827 2579 905 L 2645 846 Q 2589 783 2578 681 M 2628 564 L 2468 564 2468 493 2382 493 2382 564 2222 564 2222 644 2382 644 2382 915 2468 915 2468 645 2628 645 2628 564 M 2567 474 L 2523 479 2541 552 2588 547 2567 474 M 2634 470 L 2588 476 2609 550 2655 545 2634 470 M 3338 768 L 3287 807 3287 496 3201 496 3201 915 Q 3332 912 3402 825 3441 776 3466 683 L 3384 648 Q 3372 726 3338 768 M 3500 684 L 3561 684 Q 3535 745 3483 797 L 3528 842 3576 780 Q 3609 747 3637 747 3647 747 3656 754 3616 773 3596 791 3564 818 3564 852 3564 874 3577 891 3588 906 3606 912 3638 925 3705 925 L 3788 923 3788 861 3695 866 3650 863 Q 3633 859 3633 845 3633 825 3667 809 L 3666 844 3727 844 3726 786 Q 3766 773 3809 765 L 3798 700 3713 728 Q 3696 698 3658 698 3636 698 3614 709 L 3625 684 3778 684 3778 626 3645 626 3653 597 3584 593 3579 626 3500 626 3500 684" fill="#ffffff"></path><path d="M 1144 1513 L 1144 1436 959 1436 959 1398 1120 1398 1120 1323 959 1323 959 1284 1128 1265 1096 1190 924 1211 747 1218 694 1216 709 1292 873 1289 873 1323 705 1323 705 1398 873 1398 873 1436 680 1436 680 1513 873 1513 873 1565 Q 873 1577 858 1577 L 769 1577 784 1659 905 1659 Q 959 1659 959 1601 L 959 1513 1144 1513" fill="#ffffff"></path><path d="M 1266 1346 L 1198 1342 Q 1186 1452 1186 1538 1186 1613 1194 1660 L 1261 1656 Q 1252 1590 1252 1525 1252 1429 1266 1346 M 1490 1429 L 1490 1366 1299 1366 1299 1429 1490 1429 M 1497 1641 L 1496 1575 1409 1579 1368 1576 Q 1347 1571 1347 1555 1347 1536 1364 1513 L 1312 1490 Q 1288 1527 1288 1567 1288 1615 1334 1633 L 1430 1644 1497 1641" fill="#ffffff"></path><path d="M 1814 1208 L 1605 1208 1605 1291 1730 1291 Q 1724 1484 1528 1583 L 1579 1660 Q 1717 1589 1768 1443 1795 1517 1828 1559 1872 1616 1953 1660 L 2008 1580 Q 1889 1525 1844 1419 1810 1338 1814 1208" fill="#ffffff"></path><path d="M 2353 1652 L 2366 1586 Q 2330 1589 2320 1580 2314 1573 2315 1549 L 2317 1442 Q 2322 1361 2254 1361 2210 1361 2162 1401 L 2164 1336 2098 1336 2098 1388 2036 1388 2036 1449 2098 1448 2098 1469 Q 2068 1512 2025 1551 L 2055 1618 2083 1583 2098 1562 2097 1660 2162 1660 2159 1558 2161 1480 Q 2173 1463 2190 1449 2215 1427 2234 1427 2245 1427 2248 1437 L 2250 1460 2247 1559 Q 2245 1617 2275 1637 2295 1649 2353 1652" fill="#ffffff"></path><path d="M 2717 1486 L 2717 1424 2648 1425 2605 1431 2605 1372 2526 1372 2531 1333 2465 1331 2461 1372 2407 1372 2407 1432 2453 1432 Q 2437 1532 2397 1641 L 2463 1660 2484 1582 2516 1432 2600 1432 2556 1446 2579 1500 Q 2618 1485 2675 1485 L 2717 1486 M 2722 1654 L 2721 1591 2644 1595 2605 1593 Q 2589 1588 2589 1575 2589 1563 2602 1549 L 2559 1522 Q 2530 1555 2530 1589 2530 1623 2564 1641 2589 1655 2675 1655 L 2722 1654" fill="#ffffff"></path></g><g id="cid_24" viewBox="-1770 -210 1770 210"><path d="M 1770 -210 L 510 -210 510 -150 450 -150 450 -210 -90 -210 -90 210 450 210 450 150 510 150 510 210 690 210 690 -30 750 -30 750 210 930 210 930 -30 990 -30 990 210 1770 210 1770 -210 M -1410 210 L -510 210 -510 90 -450 90 -450 210 -270 210 -270 -210 -450 -210 -450 -90 -510 -90 -510 -210 -1170 -210 -1170 30 -1230 30 -1230 -210 -1770 -210 -1770 210 -1590 210 -1590 90 -1410 90 -1410 210" fill="#ff0302"></path><path d="M 1350 -30 L 1110 -30 1110 -90 1350 -90 1350 -150 1050 -150 1050 150 1350 150 1350 90 1110 90 1110 30 1350 30 1350 -30 M 990 -150 L 690 -150 690 -90 810 -90 810 150 870 150 870 -90 990 -90 990 -150 M 1650 -30 L 1470 -30 1470 -90 1650 -90 1650 -30 M 1710 30 L 1710 -150 1410 -150 1410 150 1470 150 1470 30 1590 30 1590 150 1710 150 1710 90 1650 90 1650 30 1710 30 M -1470 -30 L -1650 -30 -1650 -90 -1470 -90 -1470 -30 M -1410 -150 L -1710 -150 -1710 150 -1650 150 -1650 30 -1410 30 -1410 -150 M -1350 150 L -1050 150 -1050 -150 -1110 -150 -1110 90 -1290 90 -1290 -150 -1350 -150 -1350 150 M -690 -150 L -990 -150 -990 30 -750 30 -750 90 -990 90 -990 150 -690 150 -690 -30 -930 -30 -930 -90 -690 -90 -690 -150 M 270 -30 L 30 -30 30 -90 270 -90 270 -150 -30 -150 -30 150 270 150 270 90 30 90 30 30 270 30 270 -30 M -390 -150 L -390 -30 -570 -30 -570 -150 -630 -150 -630 150 -570 150 -570 30 -390 30 -390 150 -330 150 -330 -150 -390 -150 M 450 -30 L 450 -90 390 -90 390 -150 330 -150 330 150 390 150 390 -30 450 -30 450 30 510 30 510 90 570 90 570 150 630 150 630 -150 570 -150 570 30 510 30 510 -30 450 -30" fill="#ffffff"></path></g><path id="cid_26" d="M 1000 0 L 0 0 0 1000 1000 1000 1000 0" viewBox="0 0 1000 1000" fill="#00ff00"></path></defs></svg>
