<?xml version="1.0" encoding="utf-8"?>
<!DOCTYPE svg PUBLIC "-//W3C//DTD SVG 1.1//EN" "http://www.w3.org/Graphics/SVG/1.1/DTD/svg11.dtd">
<svg xmlns="http://www.w3.org/2000/svg" xmlns:xlink="http://www.w3.org/1999/xlink" version="1.1" width="4800" height="6000"><defs><font id="cid_5"><font-face font-family="ヒラギノ角ゴ Pro W6"></font-face><glyph unicode="!" d="M 234 212 L 232 236 232 255 232 267 232 286 234 329 248 678 252 746 257 803 90 803 95 746 99 678 113 329 115 285 116 266 116 256 116 237 114 212 234 212 M 248 -13 L 248 128 100 128 100 -13 248 -13" horiz-adv-x="257"></glyph><glyph unicode="　" d="" horiz-adv-x="248"></glyph><glyph unicode="、" d="M 36 153 L 117 84 187 10 258 -80 354 9 280 95 207 166 123 234 36 153" horiz-adv-x="354"></glyph><glyph unicode="：" d="M 438 683 L 438 533 587 533 587 683 438 683 M 438 244 L 438 95 587 95 587 244 438 244" horiz-adv-x="587"></glyph><glyph unicode="？" d="M 562 207 L 559 234 559 259 Q 558 286 565 305 572 325 589 342 607 360 638 381 L 703 426 740 457 764 486 Q 783 511 792 540 800 570 800 607 800 650 782 686 764 722 728 750 651 812 522 812 449 812 392 794 335 775 295 740 263 711 245 675 226 640 214 586 L 366 567 374 613 391 645 Q 409 673 441 688 473 703 513 703 579 703 617 676 654 649 655 602 655 567 635 539 614 511 565 479 L 515 445 488 424 468 402 Q 447 375 437 342 426 310 426 269 L 427 250 427 230 424 207 562 207 M 418 122 L 418 -19 567 -19 567 122 418 122" horiz-adv-x="800"></glyph><glyph unicode="！" d="M 573 206 L 571 230 571 249 571 261 571 280 573 322 587 671 591 739 596 796 429 796 434 739 438 671 452 322 454 279 455 260 455 250 455 231 453 206 573 206 M 587 -19 L 587 122 439 122 439 -19 587 -19" horiz-adv-x="596"></glyph><glyph unicode="ー" d="M 73 321 L 109 325 155 326 240 326 784 326 869 326 915 325 951 321 951 463 910 459 863 457 785 456 239 456 161 457 113 459 73 463 73 321" horiz-adv-x="951"></glyph><glyph unicode="「" d="M 801 327 L 801 757 986 757 986 868 679 868 679 327 801 327" horiz-adv-x="986"></glyph><glyph unicode="」" d="M 223 451 L 223 21 39 21 39 -90 345 -90 345 451 223 451" horiz-adv-x="345"></glyph><glyph unicode="あ" d="M 640 601 L 633 565 620 523 598 524 581 525 529 524 487 520 439 511 441 552 445 610 520 614 613 622 713 632 805 646 828 648 845 650 840 767 741 744 608 726 452 713 457 772 463 810 470 839 343 845 345 836 345 829 345 797 343 771 341 741 340 725 339 709 320 709 316 709 206 713 125 724 125 610 140 611 149 611 155 611 168 611 284 608 334 607 331 539 330 484 252 443 Q 219 421 189 392 140 343 114 284 88 226 88 162 89 81 132 33 175 -16 248 -17 312 -17 379 20 447 58 516 131 L 583 208 640 295 695 403 Q 749 384 779 347 809 311 809 262 809 209 780 170 751 131 689 102 645 81 600 71 L 494 61 520 17 536 -17 548 -55 664 -35 Q 713 -22 757 0 844 43 889 107 933 172 933 256 933 316 909 364 885 412 836 449 L 785 480 729 499 734 511 744 538 751 558 756 568 640 601 M 332 367 L 336 239 Q 340 185 350 136 326 116 304 106 L 261 97 Q 234 97 219 117 203 137 203 172 203 204 214 235 226 267 249 297 L 281 330 Q 299 346 332 367 M 448 213 L 447 218 447 224 446 231 446 237 442 282 440 317 439 356 438 413 498 428 561 432 574 432 588 431 Q 560 367 528 317 497 266 461 226 L 454 218 450 211 448 213" horiz-adv-x="933"></glyph><glyph unicode="い" d="M 110 752 L 112 733 113 715 114 687 Q 116 546 123 445 130 344 144 273 158 203 178 152 209 78 250 41 292 4 343 4 408 3 456 70 504 138 543 286 L 502 318 472 345 441 380 418 282 386 194 366 162 Q 356 150 344 150 319 151 297 196 275 242 261 322 L 251 401 244 500 242 597 244 686 250 752 110 752 M 627 655 L 710 536 Q 746 473 772 403 799 333 816 256 833 180 838 107 L 965 155 Q 943 323 887 457 831 591 734 706 L 627 655" horiz-adv-x="965"></glyph><glyph unicode="う" d="M 258 716 L 407 684 562 663 736 651 753 777 736 777 725 777 493 793 Q 384 808 298 837 L 258 716 M 167 374 L 250 399 359 422 473 438 573 444 Q 653 444 693 415 734 386 734 329 734 275 702 229 670 183 609 148 549 115 470 95 390 75 301 70 L 326 28 343 -11 354 -58 493 -31 593 -2 Q 635 15 676 39 770 93 820 168 870 244 871 333 870 394 845 443 819 491 772 520 736 542 688 552 L 578 562 488 559 385 548 257 527 191 516 160 511 138 510 167 374" horiz-adv-x="871"></glyph><glyph unicode="き" d="M 143 590 L 161 591 180 592 212 592 318 594 405 599 487 606 496 584 508 560 518 538 526 522 385 507 237 503 185 503 156 504 131 507 135 395 156 397 177 398 318 403 418 409 497 416 574 426 Q 605 374 623 348 L 652 311 567 327 475 333 337 320 Q 277 307 237 281 195 254 173 218 151 181 151 139 151 96 172 59 192 22 230 -1 272 -27 332 -39 L 479 -51 612 -43 741 -16 775 -8 793 -4 808 -1 790 125 Q 756 107 703 92 L 589 68 474 58 391 64 Q 353 70 328 81 308 90 296 105 284 121 284 140 284 159 295 174 306 190 328 203 L 398 224 500 231 589 227 664 214 735 189 825 254 772 317 732 371 688 441 702 445 726 449 770 459 826 472 860 480 891 485 881 597 857 587 829 579 783 567 744 559 642 538 628 565 616 590 602 622 657 631 737 647 816 665 839 669 851 672 841 780 757 756 659 735 564 719 Q 544 768 535 796 525 824 522 843 L 394 825 406 800 435 732 443 715 447 705 375 699 308 695 236 694 181 695 137 698 143 590" horiz-adv-x="891"></glyph><glyph unicode="く" d="M 630 850 L 613 826 591 802 555 765 488 702 414 639 319 565 265 523 241 504 229 491 Q 195 454 195 408 194 385 202 366 210 347 228 327 L 281 281 378 205 445 152 495 109 545 63 628 -17 678 -77 784 29 768 42 754 55 670 131 603 189 530 247 431 322 367 371 343 393 Q 338 400 339 407 L 347 424 378 450 525 565 622 647 690 710 727 743 748 760 630 850" horiz-adv-x="784"></glyph><glyph unicode="け" d="M 377 493 L 392 493 409 493 438 491 484 490 532 489 607 490 671 493 672 456 672 429 Q 672 354 665 301 658 249 642 211 627 173 600 141 571 107 533 80 495 53 443 29 L 482 -1 512 -29 543 -67 606 -27 654 11 Q 697 49 726 98 754 146 771 210 782 248 787 311 L 793 454 793 478 792 504 827 508 855 513 891 521 926 528 948 531 941 653 Q 916 641 879 632 L 789 614 786 692 785 730 783 776 782 795 783 811 785 830 654 828 658 803 661 769 664 708 668 602 625 599 593 598 559 598 454 601 377 611 377 493 M 311 361 L 275 281 244 192 243 212 242 231 242 250 241 304 241 328 240 349 240 360 241 401 247 477 253 548 261 607 274 679 284 729 293 766 303 804 168 817 168 797 166 775 161 741 142 607 130 511 125 433 123 353 Q 123 267 132 187 141 106 160 20 L 165 -1 167 -19 286 -13 Q 287 25 302 78 317 131 343 192 369 254 403 316 L 311 361" horiz-adv-x="948"></glyph><glyph unicode="さ" d="M 136 526 L 154 528 181 529 309 534 437 543 544 554 584 480 609 435 629 403 655 368 572 391 478 398 325 380 Q 261 362 216 325 181 294 162 255 143 216 143 172 143 133 158 98 174 62 203 34 243 -4 316 -24 389 -44 488 -44 L 641 -31 Q 718 -18 812 11 L 796 142 Q 756 121 705 106 L 598 82 488 74 Q 383 74 328 100 273 127 273 177 274 232 331 262 389 291 494 292 L 581 286 656 268 692 251 726 224 845 278 788 360 737 440 711 486 666 570 816 601 856 609 889 615 875 737 769 706 624 677 Q 600 733 586 774 572 815 568 841 L 436 823 446 801 464 756 485 705 502 661 419 653 317 647 226 644 172 645 126 649 136 526" horiz-adv-x="889"></glyph><glyph unicode="し" d="M 209 818 L 213 784 213 748 213 721 212 682 208 472 205 343 204 269 Q 204 167 228 104 252 40 305 6 337 -16 384 -27 L 484 -39 Q 581 -39 657 -7 734 26 791 91 L 836 153 Q 856 187 874 235 L 913 352 871 372 835 395 789 431 770 338 742 259 Q 705 174 641 129 578 84 494 84 445 84 410 98 375 111 357 137 L 341 172 Q 335 192 333 223 330 254 330 302 L 331 378 334 481 337 589 340 678 344 742 348 784 353 816 209 818" horiz-adv-x="913"></glyph><glyph unicode="じ" d="M 208 814 L 211 780 212 744 212 717 211 678 206 468 204 339 203 265 Q 202 163 226 100 250 36 303 2 336 -20 382 -31 L 482 -43 Q 579 -43 656 -11 732 22 790 87 814 115 834 149 L 873 231 911 348 Q 887 359 869 368 852 378 833 391 L 788 427 768 334 740 255 Q 704 170 640 125 576 80 493 80 444 80 409 94 373 107 355 133 L 339 168 331 219 329 298 330 374 332 477 336 585 339 674 343 738 346 780 351 812 208 814 M 590 737 L 646 669 688 595 768 639 735 696 705 738 669 779 590 737 M 878 705 L 847 757 817 798 780 839 706 798 757 732 801 659 878 705" horiz-adv-x="911"></glyph><glyph unicode="た" d="M 95 561 L 107 562 115 562 132 562 156 561 177 560 189 560 248 560 253 560 261 561 228 416 184 266 132 125 Q 105 59 78 10 L 207 -40 249 74 279 157 301 226 322 299 348 395 370 488 385 564 432 568 494 575 553 585 576 589 586 590 581 708 503 690 406 677 410 705 416 736 425 789 430 815 435 834 300 846 301 836 301 828 298 786 291 727 282 671 254 670 235 670 158 673 97 680 95 561 M 908 538 L 859 539 830 539 806 539 732 538 667 533 595 523 501 507 510 394 603 412 688 421 781 424 826 423 866 421 910 417 908 538 M 504 323 Q 462 267 445 226 428 186 428 146 429 107 448 74 468 40 501 20 538 -1 588 -11 L 707 -21 764 -19 824 -14 897 -4 924 0 948 3 938 129 Q 908 118 868 109 L 786 96 706 91 Q 629 91 591 111 552 130 552 170 552 195 564 220 575 245 605 282 L 504 323" horiz-adv-x="948"></glyph><glyph unicode="っ" d="M 173 343 L 205 355 240 365 292 378 445 409 561 418 Q 643 418 686 386 729 355 729 295 729 253 711 218 693 184 657 157 623 130 584 114 544 98 486 87 L 408 76 340 72 334 72 325 72 345 32 359 -2 369 -45 451 -35 506 -27 548 -18 591 -6 Q 714 33 782 111 849 189 850 292 850 329 841 362 832 395 812 424 778 477 718 503 658 528 571 528 L 433 518 254 485 198 473 171 468 148 466 173 343" horiz-adv-x="850"></glyph><glyph unicode="つ" d="M 98 481 L 118 490 141 498 180 510 404 564 584 582 659 575 716 555 Q 753 533 773 499 793 464 794 421 L 791 383 782 349 Q 766 303 725 263 684 223 628 197 585 178 538 166 L 432 147 291 137 315 90 330 51 343 5 499 26 610 52 Q 658 67 704 90 813 143 872 228 930 312 931 417 930 505 889 569 848 634 773 669 698 705 596 705 L 515 703 435 695 334 677 189 647 135 635 100 630 69 626 98 481" horiz-adv-x="931"></glyph><glyph unicode="て" d="M 88 578 L 163 590 258 599 394 609 483 616 546 623 603 631 Q 554 606 522 582 489 559 461 528 414 476 389 414 364 352 364 286 364 206 402 143 439 80 510 40 541 22 575 10 L 651 -12 750 -28 769 -31 785 -34 803 105 789 104 783 104 738 108 684 117 630 131 Q 565 151 530 194 494 237 494 298 494 376 548 448 602 519 701 571 751 597 804 612 L 903 626 914 626 925 625 918 756 898 752 864 750 800 746 460 730 289 721 202 715 155 712 133 711 120 710 107 711 81 711 88 578" horiz-adv-x="925"></glyph><glyph unicode="ど" d="M 296 814 L 300 801 305 783 312 747 336 637 358 549 381 469 324 439 281 412 242 382 Q 198 343 174 296 151 249 151 198 151 142 174 97 197 53 240 27 288 -2 359 -16 L 537 -29 606 -28 681 -23 776 -14 817 -10 840 -8 859 -7 848 133 757 111 643 97 517 92 Q 394 91 338 117 282 143 283 198 283 309 507 392 L 626 433 743 467 845 490 801 619 783 611 762 604 646 566 580 544 538 529 497 514 Q 480 567 466 628 L 441 744 429 834 296 814 M 638 777 L 687 714 730 638 809 676 780 731 752 773 717 814 638 777 M 923 735 L 881 804 831 865 756 829 804 765 846 694 923 735" horiz-adv-x="923"></glyph><glyph unicode="な" d="M 313 848 L 303 770 282 670 252 669 230 669 151 671 91 678 91 562 146 561 169 560 187 560 199 560 217 560 251 561 218 464 189 392 155 319 106 229 56 155 173 90 180 104 193 127 224 184 244 224 265 267 327 414 377 564 469 573 540 582 560 586 573 587 570 705 500 689 406 676 419 729 428 767 435 802 439 820 444 835 313 848 M 968 582 L 880 632 788 676 679 719 618 620 Q 703 591 775 556 847 521 913 477 L 968 582 M 964 121 L 957 127 949 135 930 150 913 163 853 205 808 230 751 257 744 333 742 397 744 450 754 500 635 507 629 457 627 403 629 351 632 286 580 293 537 295 Q 472 294 422 272 372 250 344 210 316 171 316 119 316 66 344 28 371 -11 421 -32 471 -53 539 -53 L 638 -38 Q 682 -24 709 4 729 25 741 54 752 83 753 112 L 752 121 751 133 838 73 907 6 964 121 M 636 177 L 637 163 638 142 Q 638 99 613 78 587 56 535 56 487 56 461 74 435 91 435 123 435 155 465 174 494 193 544 193 L 589 190 636 177" horiz-adv-x="968"></glyph><glyph unicode="ね" d="M 71 542 L 90 546 113 549 153 552 225 558 224 508 223 476 222 448 222 410 117 308 63 257 34 235 95 115 111 134 131 158 168 199 200 236 222 263 221 243 220 225 220 84 219 8 217 -30 214 -56 348 -56 344 -9 341 61 340 176 340 360 420 434 497 493 588 546 Q 628 563 663 563 728 563 760 506 793 450 793 337 L 791 292 785 249 713 273 644 280 Q 587 280 545 260 502 241 478 206 454 170 454 124 454 76 479 41 503 5 548 -14 592 -34 651 -34 L 739 -21 Q 780 -7 810 16 L 837 43 857 77 912 31 950 -8 998 115 990 121 985 125 975 134 966 141 932 167 913 181 898 191 909 262 912 339 Q 911 504 851 593 791 681 678 682 L 603 672 Q 567 662 525 639 484 616 429 576 L 383 541 339 500 342 572 374 608 389 625 399 634 362 678 354 675 346 674 350 754 352 798 355 822 359 840 229 843 230 815 231 785 230 747 230 712 228 663 152 658 96 656 84 656 65 657 71 542 M 762 142 L 760 138 756 129 738 103 715 84 684 72 649 67 Q 612 68 589 82 566 97 565 120 566 147 588 163 611 179 647 180 L 703 171 762 142" horiz-adv-x="998"></glyph><glyph unicode="の" d="M 592 656 L 649 646 Q 672 639 695 625 757 588 789 530 821 472 821 398 821 315 784 247 746 180 679 142 643 121 594 108 L 475 86 502 48 521 12 538 -34 600 -22 651 -9 698 9 Q 777 41 833 97 888 152 918 227 947 302 947 391 947 507 897 592 847 677 756 723 665 770 542 771 432 771 343 734 254 698 190 627 135 567 106 491 77 414 77 329 77 246 103 183 129 119 174 83 219 46 278 46 340 45 391 92 442 139 485 238 524 325 551 430 577 535 592 656 M 467 655 L 448 534 419 414 Q 402 356 382 309 354 243 328 210 302 178 277 178 254 178 236 198 217 218 207 252 196 286 196 328 196 412 233 485 270 557 335 605 366 627 397 639 428 651 467 655" horiz-adv-x="947"></glyph><glyph unicode="ば" d="M 357 508 L 361 509 364 509 368 509 374 508 380 508 391 508 403 507 422 506 489 503 549 502 590 502 641 504 644 389 647 321 649 285 607 296 558 299 Q 496 298 448 277 401 256 374 218 348 180 347 131 348 52 405 8 462 -37 563 -37 638 -37 689 -12 739 13 758 58 L 764 84 766 115 766 123 766 130 787 116 830 88 873 56 907 22 956 146 943 154 Q 937 158 928 165 L 875 200 828 227 767 257 761 358 758 416 757 453 757 488 757 502 757 512 835 522 899 533 917 538 929 540 925 655 916 652 901 647 894 645 830 631 756 619 756 647 756 668 757 758 763 817 635 815 637 794 638 766 638 695 639 611 592 610 545 610 439 614 360 626 357 508 M 651 181 L 651 171 651 153 648 119 638 97 Q 626 82 605 74 L 555 66 Q 511 67 486 83 461 100 461 130 461 161 489 178 518 196 567 196 L 608 193 651 181 M 251 -38 L 249 -19 249 -11 Q 249 24 262 75 274 125 297 185 320 244 350 304 L 265 341 256 317 253 309 245 291 240 279 234 263 226 243 221 229 214 211 209 199 208 199 209 210 209 220 209 229 209 236 209 249 209 263 210 290 217 433 Q 224 508 236 580 247 653 262 711 276 770 292 805 L 154 818 154 816 154 815 151 786 142 739 129 672 122 634 118 612 115 592 100 458 95 321 Q 95 241 102 162 108 83 123 -5 L 127 -30 128 -45 251 -38 M 767 803 L 804 734 832 658 908 687 890 739 869 783 843 829 767 803 M 1018 729 L 990 798 952 865 880 839 915 771 944 699 1018 729" horiz-adv-x="1018"></glyph><glyph unicode="も" d="M 107 329 L 123 327 146 322 209 310 288 299 284 252 283 212 Q 283 88 357 23 430 -42 571 -42 643 -42 700 -25 758 -8 802 25 849 62 875 112 900 162 900 217 900 253 888 293 876 333 856 368 L 838 396 808 432 767 419 729 411 681 406 Q 727 364 750 321 773 278 773 233 773 158 720 117 667 76 569 76 L 495 85 Q 464 94 442 114 422 131 413 156 404 182 404 219 L 405 252 409 292 450 290 474 290 552 292 628 299 646 302 659 302 662 420 573 404 466 399 448 399 416 400 422 443 427 485 435 545 480 544 499 544 536 544 581 547 642 552 666 554 683 556 687 676 627 664 553 658 454 654 468 748 477 796 487 827 350 840 351 834 351 829 347 765 331 659 228 674 146 696 135 584 153 580 170 576 226 565 267 558 317 551 310 505 304 453 298 407 215 420 162 431 118 446 107 329" horiz-adv-x="900"></glyph><glyph unicode="や" d="M 357 613 L 346 653 335 686 314 749 305 780 299 807 172 771 203 700 242 581 204 569 176 560 143 549 103 535 76 528 49 522 89 402 127 419 177 439 221 454 248 463 261 468 273 473 318 306 357 149 385 17 398 -72 533 -41 524 -17 517 8 486 137 463 230 443 308 419 393 387 506 528 545 621 564 695 569 Q 760 569 795 542 830 516 831 467 831 440 820 417 809 394 789 380 765 363 736 355 L 673 346 595 355 Q 555 365 509 386 L 520 339 526 302 528 260 Q 568 246 609 239 L 686 231 Q 745 231 792 246 840 262 876 292 915 324 937 371 958 418 959 470 958 533 929 580 899 627 845 653 792 678 719 679 L 691 678 660 676 660 753 661 795 662 819 665 840 536 840 539 816 541 782 542 717 543 691 543 676 543 660 495 650 456 641 357 613" horiz-adv-x="959"></glyph><glyph unicode="よ" d="M 437 842 L 440 818 441 792 442 752 444 660 447 551 450 443 454 356 457 308 457 301 458 298 417 305 363 308 Q 288 307 232 284 175 261 143 219 110 178 110 125 110 101 117 77 L 135 34 Q 164 -10 218 -32 272 -54 350 -54 465 -54 524 -10 583 35 584 121 L 583 140 582 153 597 144 614 135 684 98 750 51 793 15 822 -16 902 99 887 109 871 120 811 162 773 187 739 206 661 246 580 276 574 362 571 430 568 502 687 508 809 521 842 524 859 526 876 527 865 651 Q 816 635 737 626 L 565 616 565 652 564 670 564 683 566 777 571 841 437 842 M 460 187 L 460 170 461 139 455 105 439 82 Q 424 69 400 62 L 346 54 306 58 272 70 Q 254 79 245 92 237 104 237 123 238 157 272 177 306 198 365 198 L 413 196 460 187" horiz-adv-x="902"></glyph><glyph unicode="る" d="M 403 425 L 416 432 427 439 445 451 480 476 525 510 558 535 604 575 662 627 719 679 750 706 772 721 709 811 Q 698 805 684 802 L 645 797 540 791 431 787 334 785 265 787 213 791 218 668 242 672 267 674 416 681 506 686 557 691 558 690 547 679 540 671 447 584 338 489 234 405 150 344 89 309 159 199 Q 252 282 360 326 468 370 581 370 675 369 729 334 783 299 784 239 784 184 755 149 725 113 662 90 L 640 143 615 182 Q 582 223 537 245 491 266 437 266 386 266 346 247 307 228 284 195 262 163 261 120 261 85 277 54 293 24 323 2 354 -21 405 -33 L 521 -45 656 -30 Q 719 -15 769 13 838 52 873 109 909 166 909 240 908 310 873 361 838 413 773 441 709 469 621 470 L 552 466 486 451 405 423 403 425 M 551 60 L 521 57 498 56 Q 440 56 408 73 376 90 376 121 376 142 392 155 408 167 436 168 479 168 508 141 537 113 551 60" horiz-adv-x="909"></glyph><glyph unicode="れ" d="M 339 482 L 341 496 341 500 343 561 350 570 356 577 364 589 370 596 387 615 400 626 362 669 353 667 350 665 351 712 353 738 354 756 356 782 357 795 358 819 361 833 231 835 234 808 234 778 233 738 233 694 232 671 231 655 182 652 137 650 107 649 87 649 65 651 71 535 100 540 145 544 228 549 227 529 227 514 227 496 225 463 224 435 224 396 206 377 176 347 108 279 74 246 41 221 101 99 120 124 148 157 188 202 209 228 221 243 223 244 221 227 221 206 221 171 221 107 220 37 219 -4 217 -29 213 -56 346 -56 343 -31 342 -5 341 38 340 113 340 194 339 225 339 235 340 280 341 339 Q 372 375 421 419 471 463 528 505 566 532 598 547 630 561 655 561 676 561 686 551 697 541 697 523 L 692 474 675 394 653 290 640 224 634 178 633 137 Q 633 91 646 60 659 29 687 8 704 -5 726 -12 L 775 -19 Q 817 -19 855 -1 892 17 926 55 L 950 82 972 113 998 156 970 197 950 234 929 279 904 220 870 162 Q 853 138 834 124 815 111 798 110 778 110 767 124 756 137 756 161 L 760 201 773 271 799 392 819 487 825 548 Q 824 611 785 647 747 684 681 685 635 685 583 662 531 639 465 588 L 407 544 370 512 340 482 339 482" horiz-adv-x="998"></glyph><glyph unicode="わ" d="M 105 125 L 136 163 184 213 216 244 229 261 231 261 230 234 229 201 229 109 229 28 227 -21 223 -55 356 -55 Q 352 -20 350 61 L 348 252 349 358 Q 434 435 509 474 583 513 647 513 729 512 775 465 821 418 822 335 822 272 795 224 769 177 722 150 675 123 613 123 L 521 132 Q 474 142 431 161 L 443 113 449 74 451 27 527 10 603 5 701 15 Q 746 24 785 44 862 84 905 160 948 236 948 334 948 396 928 450 908 504 869 544 830 584 778 606 726 628 670 628 L 573 617 Q 527 606 479 581 L 375 516 359 504 350 496 348 495 350 515 352 565 381 600 397 619 411 631 372 673 365 670 357 668 357 678 357 687 359 708 360 720 360 735 364 786 366 811 371 833 239 834 242 810 243 789 243 785 243 779 242 761 242 736 241 694 239 659 158 654 106 652 92 652 73 654 80 538 100 542 123 545 163 548 235 554 234 504 233 472 233 444 231 406 134 317 77 267 46 243 105 125" horiz-adv-x="948"></glyph><glyph unicode="イ" d="M 783 831 Q 760 793 710 743 661 693 592 640 471 546 338 480 206 415 55 374 L 84 335 104 300 123 257 243 301 332 338 408 376 489 423 489 62 488 13 486 -20 483 -48 626 -48 622 -2 621 65 621 503 Q 686 551 746 602 L 862 713 881 732 900 749 783 831" horiz-adv-x="900"></glyph><glyph unicode="オ" d="M 589 368 L 592 62 592 52 592 44 591 -10 586 -55 725 -55 721 -4 719 63 714 538 819 538 871 538 907 537 937 534 937 658 905 653 870 651 816 651 713 651 711 734 711 740 712 789 715 827 580 827 583 797 584 773 585 733 586 651 232 651 175 651 137 653 103 658 103 533 135 536 170 537 229 538 509 538 447 453 372 369 Q 296 295 218 242 140 188 49 147 L 86 112 111 81 134 41 199 78 246 107 286 135 392 220 488 313 551 389 592 456 591 431 590 400 589 383 589 368" horiz-adv-x="937"></glyph><glyph unicode="ケ" d="M 821 539 L 862 539 889 538 915 538 931 537 952 535 952 661 915 657 879 656 823 655 618 655 493 655 425 655 393 655 375 654 392 690 406 721 428 772 438 795 445 809 312 840 294 774 260 694 Q 220 607 167 538 115 469 44 412 L 85 389 115 365 149 332 212 394 265 458 319 539 564 539 Q 560 453 543 386 526 320 495 269 464 218 418 177 374 137 324 110 275 82 210 59 L 246 24 272 -10 295 -53 Q 358 -25 406 4 L 491 64 561 134 Q 602 182 629 236 656 291 671 359 687 426 693 513 L 695 528 696 539 821 539" horiz-adv-x="952"></glyph><glyph unicode="コ" d="M 737 50 L 737 -13 874 -13 870 31 869 93 869 655 869 692 870 716 872 740 845 739 822 738 783 738 290 738 231 739 193 741 158 745 158 612 192 615 231 617 289 617 738 617 738 171 272 171 215 171 178 173 144 178 144 46 174 48 213 50 270 50 737 50" horiz-adv-x="874"></glyph><glyph unicode="ジ" d="M 177 700 Q 244 677 313 642 L 451 560 516 673 Q 453 711 387 743 L 244 805 177 700 M 97 451 Q 175 421 244 384 313 347 374 302 L 437 418 308 493 165 557 97 451 M 155 -42 L 185 -34 227 -25 Q 414 11 550 83 686 154 783 266 L 840 341 890 424 936 525 896 554 Q 880 566 865 581 L 830 616 797 533 759 461 711 389 Q 651 308 580 254 509 201 415 165 334 134 256 116 179 98 119 98 L 155 -42 M 713 760 L 763 697 809 622 886 666 855 720 826 760 790 801 713 760 M 995 731 L 951 799 899 859 827 819 876 758 920 687 995 731" horiz-adv-x="995"></glyph><glyph unicode="マ" d="M 204 419 L 273 360 337 297 409 221 486 132 549 50 606 -37 714 49 643 143 579 220 Q 673 299 755 395 837 491 910 608 L 935 646 955 668 883 749 847 743 798 741 229 740 172 741 132 743 95 747 95 617 128 620 164 621 227 622 289 622 342 622 715 622 743 623 762 624 761 622 760 619 757 615 754 610 720 559 675 499 629 443 568 379 495 314 488 321 471 337 431 378 372 433 304 491 204 419" horiz-adv-x="955"></glyph><glyph unicode="レ" d="M 205 806 L 209 779 210 752 210 700 206 147 205 100 202 68 197 42 262 -37 291 -27 324 -20 Q 406 -4 471 16 537 35 591 61 646 86 697 121 765 166 819 222 873 279 925 359 L 889 391 861 421 828 464 Q 790 390 739 333 689 277 619 229 561 189 490 161 419 132 339 116 L 344 701 346 761 350 805 205 806" horiz-adv-x="925"></glyph><glyph unicode="我" d="M 823 444 Q 810 408 784 366 L 718 276 694 370 Q 685 417 679 470 L 856 471 920 470 975 466 975 579 926 575 866 573 671 572 667 637 665 694 665 752 665 798 667 826 672 848 550 848 553 830 555 806 557 758 560 671 563 617 566 571 361 570 361 715 390 722 420 731 462 744 495 755 516 760 460 860 424 841 378 824 Q 305 801 226 785 L 57 762 80 715 97 663 158 672 206 680 252 689 252 570 169 569 102 571 51 574 51 461 103 465 169 468 252 468 252 323 127 303 55 296 51 296 46 296 67 179 93 186 132 193 187 204 252 216 252 61 Q 253 47 246 42 238 36 217 37 L 173 38 125 44 101 48 115 8 123 -26 127 -66 162 -68 198 -69 225 -70 287 -66 327 -53 Q 346 -43 353 -23 361 -3 361 36 L 361 240 406 251 456 264 526 284 523 385 461 368 412 356 361 344 361 469 574 470 Q 580 411 589 363 597 316 608 275 L 636 193 Q 599 161 562 136 524 111 481 90 438 68 384 48 L 425 1 455 -49 Q 523 -18 577 16 632 51 683 95 732 12 779 -30 827 -73 873 -73 898 -73 917 -60 936 -48 949 -23 L 969 36 988 134 957 151 930 171 895 202 880 93 Q 871 58 858 58 843 59 817 91 791 122 765 172 L 826 245 886 333 904 362 921 386 823 444 M 705 778 L 755 725 796 673 849 596 931 664 Q 900 712 865 752 L 784 835 705 778" horiz-adv-x="988"></glyph><glyph unicode="界" d="M 319 406 Q 272 354 199 314 126 274 28 248 L 50 215 67 185 85 143 178 181 Q 219 201 253 222 L 321 269 321 261 322 256 Q 322 197 306 155 291 112 259 86 L 213 53 Q 188 39 154 26 120 14 72 1 L 102 -35 122 -62 140 -93 Q 244 -61 307 -16 370 28 400 94 429 159 432 254 L 434 282 436 301 360 301 413 353 455 406 561 406 594 367 624 336 663 301 604 301 607 266 609 220 609 29 607 -34 603 -84 726 -84 721 -32 720 28 720 256 Q 764 224 820 196 876 168 943 143 L 960 186 977 219 998 254 Q 900 279 825 317 750 356 698 406 L 788 406 847 405 897 402 893 447 892 509 892 723 893 786 897 832 848 828 787 827 238 827 176 828 128 832 132 785 133 723 133 509 132 449 128 402 177 405 236 406 319 406 M 243 734 L 455 734 455 656 243 656 243 734 M 243 569 L 455 569 455 492 243 492 243 569 M 560 734 L 782 734 782 656 560 656 560 734 M 560 569 L 782 569 782 492 560 492 560 569" horiz-adv-x="998"></glyph><glyph unicode="感" d="M 566 332 L 566 437 567 472 568 498 539 496 503 495 315 495 279 496 249 498 251 470 252 436 252 331 249 267 278 269 314 270 503 270 525 270 544 269 560 256 574 242 596 217 643 252 680 283 719 321 Q 756 269 797 240 838 211 874 211 915 210 942 249 969 289 988 377 L 942 407 902 442 Q 897 387 887 355 878 322 867 321 862 322 851 329 L 829 347 808 370 786 401 836 474 879 552 890 574 896 587 904 601 808 641 780 570 738 495 Q 723 536 713 580 702 624 695 680 L 839 680 908 679 965 675 965 779 920 774 854 773 901 803 867 831 838 850 805 869 729 820 765 800 804 773 687 773 686 792 686 803 686 836 688 863 572 863 576 841 579 817 580 796 581 784 581 779 582 773 238 773 173 774 115 778 118 742 120 703 120 649 115 513 100 404 77 329 Q 63 295 39 260 L 89 226 131 184 166 252 Q 182 289 194 337 204 374 210 422 L 220 532 225 680 592 680 Q 602 596 621 529 639 462 668 405 L 621 360 566 317 566 332 M 345 414 L 475 414 475 353 345 353 345 414 M 585 632 L 556 629 521 628 308 628 273 629 245 632 245 538 274 541 308 542 521 542 555 541 585 538 585 632 M 161 218 L 132 130 Q 118 96 97 69 L 42 7 133 -59 185 7 Q 206 37 222 76 L 257 175 161 218 M 667 105 L 665 86 663 65 658 48 649 37 Q 640 29 606 26 L 509 22 435 24 403 31 Q 396 37 397 48 L 397 150 398 182 402 209 285 209 290 177 291 138 291 16 Q 290 -21 306 -40 322 -59 368 -66 L 502 -73 613 -70 684 -60 Q 712 -53 726 -42 745 -29 756 1 766 30 772 87 L 735 96 705 106 667 122 667 118 667 115 667 105 M 753 165 L 821 64 881 -51 977 2 934 80 892 143 844 205 753 165 M 640 134 L 592 179 550 213 503 244 431 192 483 152 522 114 563 67 640 134" horiz-adv-x="988"></glyph><glyph unicode="限" d="M 627 365 Q 639 310 654 267 668 224 686 187 704 151 728 114 766 57 817 9 868 -38 942 -84 L 972 -26 1007 20 Q 947 49 901 84 855 120 818 166 L 867 201 916 239 956 272 972 285 985 294 902 364 913 364 931 362 928 393 927 426 927 474 927 713 927 766 928 801 930 826 891 822 835 821 542 821 481 822 444 826 447 774 448 717 448 49 371 36 327 31 348 -84 370 -78 400 -70 528 -41 628 -16 726 12 723 115 689 104 660 96 620 86 553 71 553 365 627 365 M 848 365 L 873 365 898 364 848 314 765 250 749 285 737 320 725 365 848 365 M 553 723 L 822 723 822 640 553 640 553 723 M 553 550 L 822 550 822 458 553 458 553 550 M 84 34 L 83 -31 78 -83 197 -83 193 -27 192 34 192 731 311 731 286 658 265 604 244 557 215 500 261 443 287 396 304 343 310 290 Q 310 265 298 255 286 245 256 245 L 234 247 211 249 Q 223 225 227 201 L 233 142 293 144 333 149 Q 350 153 363 160 418 186 418 277 L 414 328 402 378 386 419 364 460 329 510 373 601 408 685 424 727 433 749 440 763 381 834 355 831 307 829 156 829 112 830 81 832 83 795 84 767 84 738 84 34" horiz-adv-x="1007"></glyph><glyph unicode="五" d="M 180 75 L 127 75 86 78 50 82 50 -39 115 -33 183 -32 844 -32 914 -33 976 -39 976 82 921 76 851 75 804 75 804 389 805 449 809 504 754 501 688 500 496 500 510 578 519 637 527 705 797 705 866 704 926 699 926 817 869 812 797 811 235 811 161 812 106 817 106 699 165 704 237 705 409 705 402 645 392 584 377 500 270 500 208 501 160 506 160 391 210 395 267 396 356 396 328 279 300 180 265 75 180 75 M 389 75 L 435 227 475 396 688 396 688 75 389 75" horiz-adv-x="976"></glyph><glyph unicode="拾" d="M 377 674 L 352 671 320 670 289 670 289 755 290 814 294 858 176 858 181 814 182 754 182 670 130 670 91 671 54 675 54 566 91 569 127 570 182 570 182 377 102 358 48 351 68 237 90 245 112 251 146 260 165 266 182 271 182 62 Q 182 41 176 35 169 29 147 29 L 111 31 59 35 71 -3 78 -36 82 -73 116 -75 143 -76 195 -74 231 -68 Q 261 -60 275 -38 289 -16 289 21 L 289 306 321 316 343 324 372 335 372 434 339 423 315 415 289 406 289 570 321 570 341 570 360 569 342 558 323 546 348 515 366 488 384 450 429 483 467 514 467 438 507 441 559 442 769 442 822 441 862 438 862 515 889 494 915 476 950 456 969 502 985 532 1006 562 Q 958 587 921 612 884 638 846 673 797 717 765 759 732 802 709 851 L 594 851 Q 564 774 510 707 455 639 377 582 L 377 674 M 551 545 L 526 545 501 546 Q 553 595 590 642 626 689 655 742 687 688 729 640 770 592 824 546 L 803 545 778 545 551 545 M 516 -30 L 805 -30 805 -83 920 -83 916 -28 915 35 915 267 916 321 919 360 882 357 829 356 500 356 450 357 406 359 407 336 408 309 409 265 409 31 407 -27 403 -83 516 -83 516 -30 M 515 254 L 805 254 805 75 515 75 515 254" horiz-adv-x="1006"></glyph><glyph unicode="出" d="M 448 529 L 245 529 245 695 246 741 249 777 126 777 130 736 131 687 131 484 130 451 128 419 164 421 202 422 448 422 448 86 207 86 207 252 208 302 212 340 89 340 92 296 94 241 94 24 92 -31 88 -78 207 -78 207 -25 816 -25 816 -78 936 -78 931 -34 930 24 930 246 931 300 935 343 811 343 815 303 816 256 816 86 563 86 563 422 827 422 864 421 899 419 897 448 896 484 896 688 897 735 901 777 779 777 782 740 783 696 783 529 563 529 563 754 565 811 569 855 442 855 446 813 448 754 448 529" horiz-adv-x="936"></glyph><glyph unicode="人" d="M 444 847 L 447 808 448 761 Q 448 638 429 538 409 439 368 355 326 271 260 195 L 197 131 127 77 37 24 82 -23 117 -81 178 -42 227 -6 276 37 Q 329 86 366 132 403 178 433 233 L 468 303 493 367 513 440 550 334 Q 570 286 594 244 L 650 161 Q 685 113 722 74 758 36 803 -1 L 910 -81 944 -21 990 33 932 65 Q 907 81 884 99 860 117 831 143 777 190 739 235 701 281 669 338 632 402 610 463 588 525 578 592 569 659 569 741 L 570 781 572 820 576 847 444 847" horiz-adv-x="990"></glyph><glyph unicode="聞" d="M 317 109 L 288 108 260 107 254 107 240 108 253 7 276 11 315 15 447 29 526 37 575 42 614 47 614 36 613 -17 609 -57 714 -57 710 -19 709 37 709 378 751 377 786 374 786 470 744 466 690 465 339 465 286 466 244 470 244 373 275 376 317 378 317 109 M 411 378 L 614 378 614 340 411 340 411 378 M 411 268 L 614 268 614 231 411 231 411 268 M 411 160 L 614 160 614 132 553 126 511 122 470 119 411 116 411 160 M 84 43 L 83 -33 78 -84 198 -84 193 -35 192 41 192 510 380 510 431 509 474 507 472 544 471 600 471 739 472 789 474 834 432 831 370 830 185 830 124 831 80 834 83 785 84 720 84 43 M 192 749 L 371 749 371 707 192 707 192 749 M 192 637 L 371 637 371 593 192 593 192 637 M 547 600 L 546 546 544 507 588 509 638 510 836 510 836 56 Q 836 40 830 35 L 801 30 773 31 728 35 747 -17 756 -74 781 -74 796 -74 810 -74 895 -66 Q 924 -57 934 -32 944 -7 943 43 L 943 720 944 783 948 834 903 831 843 830 649 830 588 831 544 834 546 790 547 739 547 600 M 649 749 L 836 749 836 707 649 707 649 749 M 649 637 L 836 637 836 593 649 593 649 637" horiz-adv-x="948"></glyph><glyph unicode="変" d="M 373 674 L 366 594 345 532 319 491 278 455 213 418 266 384 304 349 Q 354 379 386 410 418 441 439 479 L 461 532 474 594 480 674 575 674 575 505 570 489 551 485 515 487 473 492 495 445 505 392 541 391 586 390 Q 639 390 661 407 682 425 681 467 L 681 674 843 674 909 673 964 669 964 779 910 774 840 773 569 773 569 794 570 829 574 860 446 860 450 829 451 793 451 773 181 773 110 774 60 779 60 669 109 673 173 674 373 674 M 755 329 L 722 325 666 323 472 323 482 336 490 346 495 351 506 364 512 372 411 414 Q 394 385 368 358 L 304 301 Q 256 264 202 236 148 209 87 190 L 123 146 150 100 232 135 Q 268 152 306 177 L 355 131 413 88 Q 349 65 293 51 L 173 31 30 24 61 -26 85 -83 259 -60 395 -26 Q 458 -6 522 24 L 573 1 622 -18 680 -36 758 -57 835 -73 935 -88 Q 944 -58 958 -30 L 992 27 848 37 734 56 Q 682 68 629 88 L 693 139 759 198 792 231 808 247 821 258 755 329 M 647 234 L 585 182 518 138 Q 478 160 444 185 L 385 234 647 234 M 217 657 L 183 588 138 529 99 491 48 451 54 446 60 442 77 430 92 418 117 398 139 380 192 430 235 480 266 521 291 561 317 611 217 657 M 699 590 L 768 519 819 455 871 378 967 451 877 554 783 647 699 590" horiz-adv-x="992"></glyph><glyph unicode="慢" d="M 856 250 L 828 247 780 246 420 246 375 247 340 250 340 155 362 157 384 158 417 159 462 115 498 85 540 54 Q 477 33 417 22 L 289 9 313 -36 334 -88 446 -71 545 -44 642 -5 Q 712 -39 787 -59 862 -80 951 -90 L 962 -57 976 -26 998 16 908 20 829 32 748 51 804 89 857 132 919 188 856 250 M 745 159 Q 719 138 694 123 L 639 93 589 123 544 159 745 159 M 110 365 L 118 404 124 442 131 499 138 563 141 604 142 649 60 665 56 567 45 480 26 394 110 365 M 268 -87 L 264 -38 262 22 262 754 264 813 268 862 149 862 154 812 156 754 156 37 154 -30 149 -87 268 -87 M 802 533 L 839 533 866 533 895 531 893 565 892 612 892 760 893 804 896 844 853 840 790 839 497 839 440 840 393 844 396 803 397 764 397 610 396 571 394 530 438 533 488 533 802 533 M 501 759 L 787 759 787 722 501 722 501 759 M 501 648 L 787 648 787 611 501 611 501 648 M 402 496 L 358 497 320 499 322 469 323 430 323 350 322 312 320 282 358 284 402 285 889 285 935 284 975 281 972 312 971 355 971 425 972 467 975 500 934 497 878 496 402 496 M 510 360 L 415 360 415 421 510 421 510 360 M 693 360 L 597 360 597 421 693 421 693 360 M 780 360 L 780 421 877 421 877 360 780 360 M 381 534 L 362 610 334 691 267 671 284 621 296 572 308 506 381 534" horiz-adv-x="998"></glyph><glyph unicode="来" d="M 381 326 L 332 264 288 218 Q 230 164 169 124 107 84 37 53 L 74 5 107 -50 196 3 280 65 Q 334 110 374 156 415 201 450 258 L 447 205 447 162 447 19 445 -37 440 -85 566 -85 561 -35 559 19 559 163 558 199 555 261 620 175 691 103 Q 725 73 760 47 L 834 -2 924 -52 Q 939 -19 955 5 L 992 56 Q 867 107 779 172 690 237 625 326 L 850 326 918 325 973 320 973 436 927 431 855 430 748 430 784 491 812 545 837 602 729 637 687 534 629 430 559 430 559 653 810 653 876 652 925 647 925 762 875 756 803 755 559 755 559 782 560 826 564 862 442 862 445 824 447 783 447 755 221 755 155 756 102 762 102 647 154 652 215 653 447 653 447 430 282 430 363 466 331 542 307 593 278 644 182 601 226 518 260 430 172 430 105 431 54 436 54 320 110 325 173 326 381 326" horiz-adv-x="992"></glyph><glyph unicode="話" d="M 639 566 L 551 566 486 568 435 572 435 461 486 465 550 467 639 467 639 333 536 333 496 334 461 337 464 299 464 255 464 25 463 -35 459 -79 574 -79 574 -33 825 -33 825 -79 940 -79 937 -31 935 28 935 248 936 298 939 337 906 334 863 333 750 333 750 467 862 467 924 465 976 461 976 572 926 568 861 566 750 566 750 715 827 733 913 756 938 763 951 766 962 769 898 867 Q 867 850 816 835 L 699 807 563 786 422 775 447 721 460 675 525 682 567 686 600 690 639 695 639 566 M 574 234 L 825 234 825 64 574 64 574 234 M 83 732 L 121 735 168 736 318 736 365 735 403 732 403 832 366 829 318 828 168 828 120 829 83 832 83 732 M 50 589 L 87 592 133 593 347 593 382 593 405 592 425 590 425 691 391 688 342 687 133 687 87 688 50 692 50 589 M 87 447 L 117 449 155 450 337 450 372 449 403 447 403 544 375 541 337 541 155 541 117 541 87 544 87 447 M 87 303 L 116 306 154 306 335 306 373 306 403 303 403 400 375 398 337 397 155 397 117 398 87 400 87 303 M 192 -35 L 305 -35 305 -70 407 -70 404 -34 403 10 403 182 403 225 406 256 380 253 337 253 165 253 124 254 87 257 90 218 91 176 91 13 90 -38 86 -83 192 -83 192 -35 M 190 163 L 305 163 305 56 190 56 190 163" horiz-adv-x="976"></glyph></font>
</defs>
</svg>
