<?xml version="1.0" encoding="utf-8"?>
<!DOCTYPE svg PUBLIC "-//W3C//DTD SVG 1.1//EN" "http://www.w3.org/Graphics/SVG/1.1/DTD/svg11.dtd">
<svg xmlns="http://www.w3.org/2000/svg" xmlns:xlink="http://www.w3.org/1999/xlink" version="1.1" width="4800" height="5600"><defs><g id="cid_1" viewBox="1200 1040 3780 3620"><path d="M 3046 1597 Q 3287 1838 3287 2178 3287 2518 3046 2759 2805 3000 2465 3000 2125 3000 1884 2759 1643 2518 1643 2178 1643 1838 1884 1597 2125 1356 2465 1356 2805 1356 3046 1597 M 3402 3242 Q 3780 2864 3780 2330 3780 1796 3402 1418 3024 1040 2490 1040 1956 1040 1578 1418 1200 1796 1200 2330 1200 2864 1578 3242 1956 3620 2490 3620 3024 3620 3402 3242" fill="#00ff00"></path><path d="M 2672 2592 Q 2595 2670 2485 2670 2375 2670 2297 2592 2220 2515 2220 2405 2220 2295 2297 2217 2375 2140 2485 2140 2595 2140 2672 2217 2750 2295 2750 2405 2750 2515 2672 2592 M 3046 1597 Q 2805 1356 2465 1356 2125 1356 1884 1597 1643 1838 1643 2178 1643 2518 1884 2759 2125 3000 2465 3000 2805 3000 3046 2759 3287 2518 3287 2178 3287 1838 3046 1597" fill="#999999"></path><path d="M 2672 2592 Q 2750 2515 2750 2405 2750 2295 2672 2217 2595 2140 2485 2140 2375 2140 2297 2217 2220 2295 2220 2405 2220 2515 2297 2592 2375 2670 2485 2670 2595 2670 2672 2592" fill="#0000ff"></path></g></defs></svg>
