<?xml version="1.0" encoding="utf-8"?>
<!DOCTYPE svg PUBLIC "-//W3C//DTD SVG 1.1//EN" "http://www.w3.org/Graphics/SVG/1.1/DTD/svg11.dtd">
<svg xmlns="http://www.w3.org/2000/svg" xmlns:xlink="http://www.w3.org/1999/xlink" version="1.1" width="4800" height="3900"><defs><use id="cid_83" transform="matrix(20,0,0,20,-2400,-1950)" xlink:href="#cid_84" viewBox="-2400 -1950 2400 1950"></use><g id="cid_5" viewBox="-224 -424 214 424"><path d="M 186 -376 Q 128 -453 27 -407 L -63 -346 Q -107 -317 -127 -232 L -162 -20 Q -180 97 -175 210 -169 325 -141 360 -68 450 63 -62 L 171 -180 Q 248 -293 186 -376" fill="#feffbd"></path><path d="M -137 -326 Q -182 -231 -206 1 -215 88 -224 258 -227 341 -195 384 -170 418 -129 423 -92 428 -62 408 -27 384 -8 331 41 189 102 -52 113 -98 74 -103 34 -108 24 -72 L -61 240 Q -92 344 -116 344 -162 344 -133 62 -106 -208 -63 -322 -51 -354 -83 -362 -116 -370 -137 -326" fill="#000000"></path></g><g id="cid_78" viewBox="-388 -429 101 269"><path d="M -111 -379 Q -162 -356 -201 -318 -234 -296 -259 -292 -268 -281 -284 -167 -301 -45 -192 3 -149 22 -115 13 -78 3 -75 -34 L 33 -152 Q 110 -265 48 -348 -9 -425 -111 -379" fill="#faf5ff"></path><path d="M -128 -372 Q -179 -349 -218 -311 -260 -284 -295 -122 L -322 35 -122 134 Q -93 36 -75 -34 11 -126 25 -149 93 -258 31 -341 -26 -418 -128 -372" fill="none" stroke="#000000" stroke-width="80" stroke-linecap="round" stroke-linejoin="round"></path><path d="M -308 115 L -140 189 -131 94 -302 9 -308 115" fill="#000000"></path><path d="M -308 115 L -302 9 -131 94 -140 189 -308 115" fill="none" stroke="#000000" stroke-width="160" stroke-linecap="round" stroke-linejoin="round"></path><path d="M -138 190 L -130 95 -300 10 -307 116 -138 190" fill="#faf5ff"></path><path d="M -130 -22 L -260 -90 -266 -63 -128 9 -130 -22" fill="#b5b3b3"></path></g><g id="cid_8" viewBox="-267 -453 200 412"><path d="M 74 -327 Q 32 -380 -41 -413 -82 -432 -147 -448 -205 -462 -238 -435 -270 -409 -267 -355 -262 -226 -100 -85 L -54 150 Q 9 382 94 371 182 359 145 31 111 -267 74 -327" fill="#feffbd"></path><path d="M 116 99 Q 131 326 87 332 50 337 -9 122 L -61 -95 Q -73 -138 -113 -130 -152 -123 -139 -76 L -99 88 Q -52 265 -23 331 -8 363 16 384 54 420 102 410 181 393 192 295 212 144 181 -65 153 -257 108 -348 89 -388 57 -368 25 -349 40 -306 102 -133 116 99" fill="#000000"></path></g><g id="cid_77" viewBox="-240 -492 262 154"><path d="M 53 -59 Q 162 -107 145 -229 129 -344 120 -354 96 -358 62 -380 23 -418 -28 -441 -129 -487 -187 -410 -249 -327 -172 -214 L -64 -96 Q -61 -60 -24 -50 10 -40 53 -59" fill="#faf5ff"></path><path d="M 156 -184 Q 173 -103 182 -27 83 23 -17 72 L -64 -96 Q -150 -188 -164 -211 -232 -320 -170 -403 -112 -480 -11 -435 40 -412 79 -374 121 -346 156 -184" fill="none" stroke="#000000" stroke-width="80" stroke-linecap="round" stroke-linejoin="round"></path><path d="M 13 74 L 182 0 175 -106 5 -20 13 74" fill="#000000"></path><path d="M 13 74 L 182 0 175 -106 5 -20 13 74" fill="none" stroke="#000000" stroke-width="160" stroke-linecap="round" stroke-linejoin="round"></path><path d="M 11 75 L 180 1 173 -105 3 -19 11 75" fill="#faf5ff"></path><path d="M 119 -163 L 113 -189 -23 -119 -19 -90 119 -163" fill="#b5b3b3"></path></g><g id="cid_11" viewBox="-519 -401 530 552"><path d="M 463 -308 Q 231 -421 -125 -396 -404 -377 -489 -326 -510 -274 -509 -193 -508 -99 -475 -14 -490 113 -471 298 -456 447 -442 482 -440 486 -423 476 -406 467 -401 485 -399 498 -377 513 -349 532 -311 532 -273 532 -250 512 L -231 490 -175 501 -3 511 Q 151 511 228 489 L 259 513 Q 299 535 346 529 394 523 421 484 L 438 447 464 416 Q 482 396 483 378 494 278 481 -28 514 -107 492 -215 L 463 -308" fill="#feffbd"></path><path d="M 227 478 Q 217 439 179 449 L 93 467 -4 472 -122 462 -180 451 Q -220 440 -231 478 -242 517 -202 528 L -145 540 -4 552 Q 105 550 199 527 237 517 227 478" fill="#000000"></path><path d="M 449 167 Q 451 317 437 441 433 481 473 485 512 490 517 451 L 517 450 Q 540 295 521 -31 519 -72 479 -70 439 -67 441 -26 L 449 167" fill="#000000"></path><path d="M -515 234 Q -507 394 -480 496 -469 533 -431 524 -392 515 -402 476 -427 382 -433 209 L -435 -12 Q -433 -51 -473 -53 -513 -55 -515 -16 -523 98 -515 234" fill="#000000"></path></g><g id="cid_13" viewBox="-184 -220 184 231"><path d="M -85 49 Q -16 203 54 191 122 178 138 25 L 144 -181 105 -183 Q 28 -217 -40 -197 -83 -185 -109 -158 -132 -151 -144 -139 -144 -80 -85 49" fill="#feffbd"></path><path d="M 104 -184 L 94 9 Q 83 144 42 151 0 159 -47 46 -83 -41 -104 -143 -111 -182 -150 -178 -188 -175 -184 -136 -178 -83 -147 3 L -97 123 Q -68 187 -20 214 18 235 59 230 95 225 121 202 157 170 164 107 180 -38 184 -179 185 -219 147 -220 109 -221 104 -184" fill="#000000"></path></g><g id="cid_79" viewBox="187 928 634 1449"><path d="M 262 1008 L 307 1175 286 1206 Q 263 1243 255 1276 228 1381 353 1402 478 1423 542 1301 561 1263 573 1215 L 580 1175 586 990 Q 507 970 426 962 266 946 262 1008" fill="#ffb0a1"></path><path d="M 239 1319 Q 266 1387 362 1393 L 453 1386 Q 454 1373 445 1358 429 1327 386 1314 L 287 1309 239 1319" fill="#efdaed"></path><path d="M 252 1273 L 314 1260 Q 387 1253 443 1285 488 1310 503 1351 L 539 1316 521 1283 Q 497 1247 464 1229 411 1202 326 1214 L 252 1232 252 1273" fill="#efdaed"></path><path d="M 301 1110 L 344 1091 Q 399 1073 459 1080 512 1086 548 1107 567 1117 574 1126 L 586 1071 Q 545 1052 469 1038 L 365 1045 Q 320 1058 296 1082 L 301 1110" fill="#efdaed"></path><path d="M 305 1147 L 324 1179 364 1167 457 1170 Q 498 1182 532 1207 L 558 1229 570 1163 533 1141 Q 487 1118 436 1114 386 1110 341 1128 L 305 1147" fill="#efdaed"></path><path d="M 259 1038 L 298 1186 240 1266 Q 200 1352 287 1388 393 1431 470 1385 549 1338 581 1206 594 1153 594 1088 595 1028 586 1011 565 966 418 968 267 970 259 1038" fill="none" stroke="#000000" stroke-width="80" stroke-linecap="round" stroke-linejoin="round"></path></g><g id="cid_16" viewBox="-176 -180 166 241"><path d="M 85 -159 L 20 -178 Q -54 -188 -99 -149 L -136 -133 Q -109 19 -84 85 -36 216 42 201 117 187 123 25 L 114 -133 Q 108 -152 85 -159" fill="#feffbd"></path><path d="M 86 28 Q 89 146 47 158 3 171 -42 58 -77 -29 -97 -140 -104 -180 -143 -173 -182 -166 -175 -126 -150 17 -107 110 -40 256 60 239 156 223 166 63 L 154 -137 Q 151 -178 113 -175 74 -171 74 -129 L 86 28" fill="#000000"></path></g><g id="cid_80" viewBox="-479 919 35 1453"><path d="M -417 1139 Q -399 1258 -378 1300 -352 1353 -242 1381 -127 1411 -51 1373 15 1340 -51 1260 L -131 1186 -132 1000 Q -149 980 -195 974 -287 961 -431 1029 L -417 1139" fill="#ffb0a1"></path><path d="M -217 1398 Q -53 1396 -20 1340 -10 1323 -14 1302 L -20 1285 -118 1288 Q -158 1303 -188 1335 -214 1366 -217 1398" fill="#efdaed"></path><path d="M -52 1241 L -89 1220 -144 1210 Q -210 1208 -264 1249 -299 1277 -310 1316 L -314 1350 -274 1371 -272 1352 Q -265 1328 -238 1300 -199 1261 -122 1247 L -52 1241" fill="#efdaed"></path><path d="M -135 1161 L -135 1126 Q -257 1102 -338 1160 -379 1189 -395 1223 -391 1256 -374 1278 L -358 1294 -356 1278 Q -347 1255 -318 1223 -289 1192 -209 1173 L -135 1161" fill="#efdaed"></path><path d="M -422 1170 L -398 1141 Q -365 1108 -321 1094 -263 1075 -193 1082 L -135 1092 -135 1041 -191 1029 Q -261 1021 -332 1043 -386 1061 -419 1092 L -441 1119 -422 1170" fill="#efdaed"></path><path d="M -434 1039 Q -414 992 -285 969 L -139 974 Q -106 1019 -125 1185 L -53 1229 Q 13 1283 -11 1333 -40 1394 -143 1410 -265 1429 -354 1329 -408 1268 -428 1158 -446 1067 -434 1039" fill="none" stroke="#000000" stroke-width="80" stroke-linecap="round" stroke-linejoin="round"></path></g><g id="cid_76" viewBox="-50 -207 1067 837"><path d="M 962 -34 Q 842 -70 723 -86 622 -103 532 40 487 111 462 186 L 391 47 Q 313 -92 275 -87 L 113 -57 29 -31 Q -63 -6 -48 77 -42 112 3 193 -1 275 23 338 35 371 55 400 L 482 587 975 390 980 318 Q 984 273 997 249 1057 187 1061 88 1065 -24 962 -34" fill="#faf5ff"></path><path d="M 25 265 Q 57 381 51 435 179 461 357 470 712 488 958 403 L 965 325 Q 969 302 988 252" fill="none" stroke="#000000" stroke-width="80" stroke-linecap="round" stroke-linejoin="round"></path><path d="M 650 751 Q 272 777 51 699 58 532 84 473 161 493 308 501 601 518 951 457 997 651 984 710 839 738 650 751" fill="none" stroke="#000000" stroke-width="160" stroke-linecap="round" stroke-linejoin="round"></path><path d="M 644 759 Q 833 742 978 710 991 651 944 457 594 518 301 501 155 493 78 473 51 532 44 715 265 793 644 759" fill="#556619"></path><path d="M 476 518 Q 442 518 442 550 442 581 476 581 510 581 510 550 510 518 476 518" fill="#d8be00"></path><path d="M 837 549 Q 916 530 955 511 L 952 499 Q 875 541 671 564 L 483 578 Q 326 578 181 551 L 67 523 64 533 182 560 Q 331 587 482 587 679 587 837 549" fill="#323d06"></path><path d="M 449 769 L 502 767 Q 492 748 482 684 L 474 625 Q 465 654 449 769" fill="#323d06"></path><path d="M 924 571 Q 912 647 945 674 961 688 980 686 L 980 675 Q 940 676 928 624 L 924 571" fill="#323d06"></path><path d="M 962 547 L 945 550 Q 927 554 924 559 919 566 923 592 928 621 939 625 L 976 632 973 614 942 610 928 585 Q 924 570 928 563 932 557 947 555 L 962 553 962 547" fill="#323d06"></path><path d="M 94 564 L 92 612 Q 83 660 47 661 L 48 671 Q 65 672 80 658 108 632 94 564" fill="#323d06"></path><path d="M 58 545 L 58 550 72 551 Q 86 553 90 558 94 564 90 577 L 80 600 Q 74 607 51 606 L 50 622 83 614 Q 93 609 95 584 98 560 93 554 91 550 74 547 L 58 545" fill="#323d06"></path><path d="M 488 269 Q 475 360 485 421 L 502 421 Q 495 294 502 190 494 223 488 269" fill="#b5b3b3"></path><path d="M 679 -204 Q 635 -194 544 -4 499 90 462 183 L 370 2 Q 351 -33 308 -131 283 -187 268 -191 253 -195 235 -175 L 210 -144 Q 200 -135 184 -131 L 138 -125 Q 144 2 208 232 L 256 182 Q 309 132 335 128 361 124 412 159 L 459 194 Q 444 172 411 147 367 114 332 112 298 110 255 150 L 219 190 Q 166 15 149 -118 216 -122 250 -163 L 266 -181 279 -166 Q 330 -29 347 5 400 107 462 194 L 454 208 Q 438 219 428 298 418 376 426 426 L 437 425 Q 435 384 436 337 439 242 459 210 480 176 534 152 579 132 598 135 624 139 677 190 L 725 240 Q 793 11 799 -116 L 798 -116 801 -134 Q 791 -131 777 -134 750 -141 731 -173 712 -204 693 -207 L 679 -204 M 700 -195 L 724 -161 Q 741 -131 784 -117 767 16 709 189 L 675 153 Q 635 117 601 119 579 121 536 142 487 166 465 191 L 585 -32 Q 668 -186 679 -193 L 700 -195" fill="#b5b3b3"></path><path d="M 950 233 L 956 226 Q 941 160 960 58 970 7 982 -31 L 968 -34 Q 940 69 942 161 943 208 950 233" fill="#b5b3b3"></path><path d="M 65 246 Q 65 221 53 177 30 91 -26 0 L -32 12 -34 12 Q -13 42 9 86 52 174 56 241 L 65 246" fill="#b5b3b3"></path><path d="M 967 624 Q 981 624 981 601 981 577 967 577 954 577 954 601 954 624 967 624" fill="#d8be00"></path><path d="M 51 620 Q 62 620 62 597 62 573 51 573 39 573 39 597 39 620 51 620" fill="#d8be00"></path></g><g id="cid_81" viewBox="10 -6 1068 773"><path d="M 912 101 Q 685 24 404 51 264 64 169 93 L 98 131 Q 43 182 129 248 L 105 269 Q 79 294 68 318 32 395 159 429 L 146 457 Q 134 491 135 516 136 595 266 558 L 266 588 Q 268 623 280 645 317 715 433 631 L 449 659 Q 470 691 494 707 569 760 641 641 685 675 728 682 814 696 810 565 L 841 568 902 561 Q 981 535 917 422 969 408 998 380 1057 324 944 255 981 232 995 201 1023 139 912 101" fill="none" stroke="#000000" stroke-width="100" stroke-linecap="round" stroke-linejoin="round"></path><path d="M 912 101 Q 685 24 404 51 264 64 169 93 L 98 131 Q 43 182 129 248 L 105 269 Q 79 294 68 318 32 395 159 429 L 146 457 Q 134 491 135 516 136 595 266 558 L 266 588 Q 268 623 280 645 317 715 433 631 L 449 659 Q 470 691 494 707 569 760 641 641 685 675 728 682 814 696 810 565 L 841 568 902 561 Q 981 535 917 422 969 408 998 380 1057 324 944 255 981 232 995 201 1023 139 912 101" fill="#ffffff"></path><path d="M 699 75 Q 447 42 185 113 101 337 223 484 330 614 526 622 723 631 836 508 967 367 898 122 825 92 699 75" fill="none" stroke="#ff6b6b" stroke-width="50" stroke-linecap="round" stroke-linejoin="round"></path><path d="M 636 71 Q 346 48 205 121 167 202 216 288 265 375 332 332 357 316 362 352 L 361 443 Q 355 591 408 591 463 591 460 485 457 379 478 379 515 379 509 421 503 462 535 462 569 462 570 406 572 350 596 351 615 352 655 376 691 399 714 396 789 385 898 109 781 83 636 71" fill="none" stroke="#ffe100" stroke-width="60" stroke-linecap="round" stroke-linejoin="round"></path><path d="M 654 442 Q 678 427 711 468 745 509 719 534 690 563 671 544 653 526 667 493 677 470 659 457 646 447 654 442" fill="none" stroke="#ffe100" stroke-width="60" stroke-linecap="round" stroke-linejoin="round"></path><path d="M 611 83 Q 313 48 205 121 167 202 216 288 265 375 332 332 357 316 362 352 L 361 443 Q 355 591 408 591 463 591 460 485 457 379 478 379 515 379 509 421 503 462 535 462 569 462 570 406 572 350 596 351 616 352 655 376 691 399 713 398 785 391 887 132 760 100 611 83" fill="#ffa600"></path><path d="M 654 442 Q 646 447 659 457 677 470 667 493 653 526 671 544 690 563 719 534 745 509 711 468 678 427 654 442" fill="#ffa600"></path></g><g id="cid_22" viewBox="-1038 -752 1038 751"><path d="M 888 -88 Q 681 -365 565 -475 275 -752 -9 -752 -225 -752 -410 -610 -529 -519 -715 -287 -877 -84 -945 37 -1038 203 -1038 344 -1038 605 -821 704 -608 801 -330 684 -174 618 -86 616 31 612 236 691 427 765 611 747 802 728 913 618 1076 455 1027 214 994 55 888 -88" fill="#000000"></path><path d="M -652 -237 Q -809 -41 -876 78 -958 224 -958 344 -958 508 -849 594 -757 666 -616 666 -492 666 -361 611 -269 572 -216 557 -143 536 -74 536 54 536 264 616 406 670 543 670 642 670 723 642 803 614 856 561 1003 415 938 188 902 63 824 -40 631 -285 516 -395 226 -672 -9 -672 -185 -672 -336 -563 -466 -470 -652 -237" fill="#ffaec1"></path><path d="M -65 -675 Q -102 -603 -102 -509 -102 -493 -90 -481 -78 -469 -62 -469 -22 -469 -22 -519 -22 -607 29 -674 L -65 -675" fill="#000000"></path></g><g id="cid_82" viewBox="-1032 -1233 1044 269"><path d="M -3 -1193 Q -181 -1193 -339 -1091 -470 -1006 -596 -846 L -690 -730 -783 -614 Q -937 -410 -977 -252 -1033 -29 -879 125 -740 264 -469 206 L -230 127 Q -82 77 13 95 79 107 244 168 388 221 480 227 606 235 699 212 815 184 891 108 1023 -24 1001 -217 983 -383 862 -545 705 -754 497 -962 266 -1193 -3 -1193" fill="#ffffff"></path><path d="M -3 -1193 Q 266 -1193 497 -962 705 -754 862 -545 983 -383 1001 -217 1023 -24 891 108 815 184 699 212 606 235 480 227 388 221 244 168 79 107 13 95 -82 77 -230 127 L -469 206 Q -740 264 -879 125 -1033 -29 -977 -252 -937 -410 -783 -614 L -690 -730 -596 -846 Q -470 -1006 -339 -1091 -181 -1193 -3 -1193" fill="none" stroke="#000000" stroke-width="80" stroke-linecap="round" stroke-linejoin="round"></path><path d="M -825 -148 L -863 -143 -838 -61 -905 -106 -918 -66 -843 -47 -909 -7 -885 27 -834 -36 -834 50 -797 44 -822 -38 -755 7 -742 -32 -817 -51 -751 -92 -775 -125 -825 -63 -825 -148" fill="#ffa5c1"></path><path d="M 796 -148 L 801 -63 741 -124 715 -89 792 -51 709 -29 726 10 798 -38 775 45 818 50 813 -36 873 25 898 -9 821 -48 904 -69 887 -108 815 -61 838 -144 796 -148" fill="#ffa5c1"></path><path d="M 226 -810 L 486 -743" fill="none" stroke="#000000" stroke-width="40" stroke-linecap="round" stroke-linejoin="round"></path><path d="M -266 -810 L -524 -743" fill="none" stroke="#000000" stroke-width="40" stroke-linecap="round" stroke-linejoin="round"></path><path d="M -23 -132 L -63 -132 Q -91 -42 -111 -25 -127 -12 -153 -16 -180 -20 -184 -41 -187 -64 -171 -94 L -131 -152 -173 -156 Q -224 -91 -222 -42 -219 2 -181 17 L -118 19 Q -95 12 -81 -7 L -72 9 Q -58 24 -29 24 85 24 93 -103 L 88 -156 47 -154 Q 58 -71 26 -37 2 -10 -27 -16 -55 -21 -48 -46 L -23 -132" fill="#000000"></path></g><g id="cid_67" viewBox="-156 205 902 584"><path d="M 12 222 Q -41 222 -77 278 -110 330 -114 403 -118 477 -88 527 -54 583 10 583 75 583 109 527 139 477 136 403 133 330 101 278 65 222 12 222" fill="#010101"></path><path d="M -32 254 Q -65 264 -100 247 -119 237 -136 217 L -152 205 Q -160 210 -151 229 -140 250 -117 267 -89 288 -42 288 L -32 254" fill="#010101"></path><path d="M 21 337 Q 21 320 9 308 -3 296 -20 296 -37 296 -50 308 -62 320 -62 337 -62 354 -50 367 -37 379 -20 379 -3 379 9 367 21 354 21 337" fill="#ffffff"></path><path d="M 770 222 Q 716 222 679 279 646 331 642 403 639 478 670 527 705 584 773 584 841 584 875 527 906 477 901 403 896 331 862 279 824 222 770 222" fill="#010101"></path><path d="M 733 250 L 665 247 Q 646 238 628 220 L 611 208 Q 603 213 614 232 625 253 650 268 678 286 726 285 L 733 250" fill="#010101"></path><path d="M 787 337 Q 787 320 775 308 762 296 745 296 728 296 716 308 704 320 704 337 704 354 716 367 728 379 745 379 762 379 775 367 787 354 787 337" fill="#ffffff"></path></g><g id="cid_68" viewBox="-145 253 945 345"><path d="M 182 295 Q 140 313 60 314 -39 316 -116 282" fill="none" stroke="#010101" stroke-width="58" stroke-linecap="round" stroke-linejoin="round"></path><path d="M 600 295 Q 634 313 731 316 848 320 916 285" fill="none" stroke="#010101" stroke-width="58" stroke-linecap="round" stroke-linejoin="round"></path></g><g id="cid_56" viewBox="-145 253 945 345"><path d="M 182 295 Q 140 313 60 314 -39 316 -116 282" fill="none" stroke="#010101" stroke-width="58" stroke-linecap="round" stroke-linejoin="round"></path><path d="M 600 295 Q 634 313 731 316 848 320 916 285" fill="none" stroke="#010101" stroke-width="58" stroke-linecap="round" stroke-linejoin="round"></path></g><g id="cid_57" viewBox="-175 415 964 582"><path d="M 182 545 Q 135 479 48 467 -60 451 -146 548" fill="none" stroke="#010101" stroke-width="58" stroke-linecap="round" stroke-linejoin="round"></path><path d="M -125 449 Q -156 413 -158 415 -166 426 -148 457 -127 494 -86 502 L -59 488 Q -90 488 -125 449" fill="#010101"></path><path d="M 600 545 Q 642 478 737 464 852 446 933 553" fill="none" stroke="#010101" stroke-width="58" stroke-linecap="round" stroke-linejoin="round"></path><path d="M 959 457 Q 972 421 954 425 949 426 928 458 905 490 869 502 L 904 526 Q 945 495 959 457" fill="#010101"></path></g><g id="cid_58" viewBox="-156 151 901 584"><path d="M 12 222 Q -41 213 -76 268 -109 318 -113 393 -117 470 -88 523 -54 583 10 583 75 583 109 530 139 483 136 412 133 343 101 289 66 231 12 222" fill="#010101"></path><path d="M -32 254 Q -65 264 -100 247 -119 237 -136 217 L -152 205 Q -160 210 -151 229 -140 250 -117 267 -89 288 -42 288 L -32 254" fill="#010101"></path><path d="M 21 337 Q 21 320 9 308 -3 296 -20 296 -37 296 -50 308 -62 320 -62 337 -62 354 -50 367 -37 379 -20 379 -3 379 9 367 21 354 21 337" fill="#ffffff"></path><path d="M 770 222 Q 716 231 679 289 646 343 642 412 639 484 670 531 705 584 773 584 841 584 875 524 905 471 900 394 895 319 861 268 823 213 770 222" fill="#010101"></path><path d="M 733 250 L 665 247 Q 646 238 628 220 L 611 208 Q 603 213 614 232 625 253 650 268 678 286 726 285 L 733 250" fill="#010101"></path><path d="M 787 337 Q 787 320 775 308 762 296 745 296 728 296 716 308 704 320 704 337 704 354 716 367 728 379 745 379 762 379 775 367 787 354 787 337" fill="#ffffff"></path><path d="M 159 231 Q 162 222 107 182 51 142 55 158 61 181 104 218 149 258 159 231" fill="#010101"></path><path d="M 692 152 Q 685 146 634 178 583 210 597 227 616 249 658 204 701 158 692 152" fill="#010101"></path></g><g id="cid_69" viewBox="0 0 1070 340"><path d="M 191 5 Q 141 -14 104 34 70 78 62 152 55 227 81 279 112 339 176 339 307 339 302 191 300 131 270 79 239 24 191 5" fill="#010101"></path><path d="M 130 31 Q 104 52 65 50 43 48 21 36 5 28 2 31 -4 38 12 52 29 68 57 75 91 84 134 66 L 130 31" fill="#010101"></path><path d="M 187 93 Q 187 76 175 64 163 52 146 52 129 52 116 64 104 76 104 93 104 110 116 123 129 135 146 135 163 135 175 123 187 110 187 93" fill="#ffffff"></path><path d="M 204 168 L 198 153 Q 191 146 182 146 173 146 167 153 161 159 161 168 161 177 167 183 173 189 182 189 L 198 183 204 168" fill="#ffffff"></path><path d="M 942 5 Q 889 -7 852 43 818 88 813 159 807 233 837 283 871 340 939 340 1007 340 1042 293 1073 251 1070 186 1066 123 1033 73 997 18 942 5" fill="#010101"></path><path d="M 896 30 Q 870 52 831 50 809 49 787 37 770 29 767 32 761 39 777 53 795 69 823 75 855 83 900 65 L 896 30" fill="#010101"></path><path d="M 953 93 Q 953 76 941 64 928 52 911 52 894 52 882 64 870 76 870 93 870 110 882 123 894 135 911 135 928 135 941 123 953 110 953 93" fill="#ffffff"></path><path d="M 990 168 L 984 153 Q 977 146 969 146 960 146 954 153 947 159 947 168 947 177 954 183 960 189 969 189 L 984 183 990 168" fill="#ffffff"></path><path d="M 943 224 Q 943 211 934 203 925 194 912 194 900 194 891 203 882 211 882 224 882 237 891 246 900 255 912 255 925 255 934 246 943 237 943 224" fill="#ffffff"></path><path d="M 159 224 Q 159 211 150 203 142 194 129 194 116 194 107 203 98 211 98 224 98 237 107 246 116 255 129 255 142 255 150 246 L 159 224" fill="#ffffff"></path></g><g id="cid_70" viewBox="-29 0 1061 165"><path d="M 298 115 Q 256 133 176 134 77 136 0 102" fill="none" stroke="#010101" stroke-width="58" stroke-linecap="round" stroke-linejoin="round"></path><path d="M 716 115 Q 750 133 847 136 964 140 1032 105" fill="none" stroke="#010101" stroke-width="58" stroke-linecap="round" stroke-linejoin="round"></path><path d="M 310 22 Q 320 3 311 0 306 -2 295 9 L 268 29 220 47 Q 199 54 198 57 L 227 59 279 49 Q 299 42 310 22" fill="#010101"></path><path d="M 762 33 L 728 12 Q 714 3 712 12 708 26 719 38 730 50 748 54 L 801 55 Q 828 52 828 47 L 806 43 762 33" fill="#010101"></path></g><g id="cid_60" viewBox="-175 208 902 584"><path d="M 770 222 Q 716 222 679 279 646 331 642 403 639 478 670 527 705 584 773 584 841 584 875 527 906 477 901 403 896 331 862 279 824 222 770 222" fill="#010101"></path><path d="M 733 250 L 665 247 Q 646 238 628 220 L 611 208 Q 603 213 614 232 625 253 650 268 678 286 726 285 L 733 250" fill="#010101"></path><path d="M 787 337 Q 787 320 775 308 762 296 745 296 728 296 716 308 704 320 704 337 704 354 716 367 728 379 745 379 762 379 775 367 787 354 787 337" fill="#ffffff"></path><path d="M 182 545 Q 145 488 61 467 -54 439 -146 548" fill="none" stroke="#010101" stroke-width="58" stroke-linecap="round" stroke-linejoin="round"></path><path d="M -125 449 Q -156 413 -158 415 -166 426 -148 457 -127 494 -86 502 L -59 488 Q -90 488 -125 449" fill="#010101"></path></g><g id="cid_71" viewBox="0 0 1057 445"><path d="M 168 81 Q 117 65 82 115 49 161 45 236 41 314 69 370 102 435 166 442 231 450 265 402 295 359 292 288 289 219 257 161 222 99 168 81" fill="#010101"></path><path d="M 124 113 Q 91 123 56 106 37 96 20 76 L 4 64 Q -4 69 5 88 16 109 39 126 67 147 114 147 L 124 113" fill="#010101"></path><path d="M 926 81 Q 873 98 838 161 805 220 801 290 797 362 827 404 862 453 929 443 997 433 1031 368 1061 311 1056 234 1051 159 1017 114 979 64 926 81" fill="#010101"></path><path d="M 889 109 L 821 106 784 79 767 67 Q 759 72 770 91 781 112 806 127 834 145 882 144 L 889 109" fill="#010101"></path><path d="M 267 67 L 235 27 219 9 Q 215 9 226 37 238 67 252 84 265 100 288 104 309 108 309 99 L 295 87 267 67" fill="#010101"></path><path d="M 797 52 L 767 79 Q 755 92 763 97 L 790 100 Q 804 94 815 78 L 835 29 Q 841 2 836 0 L 823 17 797 52" fill="#010101"></path></g><g id="cid_72" viewBox="-145 442 945 675"><path d="M 182 625 Q 140 643 60 644 -39 646 -116 612" fill="none" stroke="#010101" stroke-width="58" stroke-linecap="round" stroke-linejoin="round"></path><path d="M 600 625 Q 634 643 731 646 848 650 916 615" fill="none" stroke="#010101" stroke-width="58" stroke-linecap="round" stroke-linejoin="round"></path><path d="M 111 508 L 79 469 63 451 Q 59 451 70 479 82 509 96 526 109 542 132 546 153 550 153 541 L 139 528 111 508" fill="#010101"></path><path d="M 641 494 L 611 521 Q 599 533 607 539 L 634 542 659 520 679 471 Q 685 444 680 442 678 441 667 459 L 641 494" fill="#010101"></path></g><g id="cid_62" viewBox="-210 184 998 650"><path d="M 12 184 Q -41 184 -77 246 -110 303 -114 384 -118 466 -88 521 -54 583 10 583 75 583 109 521 139 465 136 384 133 304 101 246 65 184 12 184" fill="#010101"></path><path d="M -32 254 Q -65 264 -100 247 -119 237 -136 217 L -152 205 Q -160 210 -151 229 -140 250 -117 267 -89 288 -42 288 L -32 254" fill="#010101"></path><path d="M 9 337 Q 9 325 1 317 -8 308 -20 308 -32 308 -41 317 -50 325 -50 337 L -41 358 Q -32 367 -20 367 -8 367 1 358 9 349 9 337" fill="#ffffff"></path><path d="M 770 184 Q 716 184 679 247 646 304 642 384 639 466 670 522 705 584 773 584 841 584 875 522 906 466 901 384 896 304 862 247 824 184 770 184" fill="#010101"></path><path d="M 733 250 L 665 247 Q 646 238 628 220 L 611 208 Q 603 213 614 232 625 253 650 268 678 286 726 285 L 733 250" fill="#010101"></path><path d="M 772 337 Q 772 326 764 319 756 311 745 311 735 311 727 319 719 327 719 337 719 348 727 356 734 364 745 364 756 364 764 356 772 348 772 337" fill="#ffffff"></path><path d="M 959 463 L 946 527 Q 921 596 863 620" fill="none" stroke="#010101" stroke-width="20" stroke-linecap="round" stroke-linejoin="round"></path><path d="M 988 517 Q 966 611 897 640" fill="none" stroke="#010101" stroke-width="20" stroke-linecap="round" stroke-linejoin="round"></path><path d="M -172 463 L -158 527 Q -133 596 -76 620" fill="none" stroke="#010101" stroke-width="20" stroke-linecap="round" stroke-linejoin="round"></path><path d="M -200 517 Q -180 611 -110 640" fill="none" stroke="#010101" stroke-width="20" stroke-linecap="round" stroke-linejoin="round"></path></g><g id="cid_73" viewBox="0 0 1071 340"><path d="M 191 5 Q 141 -14 104 34 70 78 62 152 55 227 81 279 112 339 176 339 307 339 302 191 300 131 270 79 239 24 191 5" fill="#010101"></path><path d="M 130 31 Q 104 52 65 50 43 48 21 36 5 28 2 31 -4 38 12 52 29 68 57 75 91 84 134 66 L 130 31" fill="#010101"></path><path d="M 187 93 Q 187 76 175 64 163 52 146 52 129 52 116 64 104 76 104 93 104 110 116 123 129 135 146 135 163 135 175 123 187 110 187 93" fill="#ffffff"></path><path d="M 204 168 L 198 153 Q 191 146 182 146 173 146 167 153 161 159 161 168 161 177 167 183 173 189 182 189 L 198 183 204 168" fill="#ffffff"></path><path d="M 813 215 Q 826 340 939 340 1022 340 1055 279 1084 225 1061 154 1049 116 969 75 894 35 877 46 801 94 813 215" fill="#010101"></path><path d="M 896 75 Q 870 97 831 95 809 94 787 82 770 74 767 77 761 85 777 99 795 114 823 120 855 128 900 110 L 896 75" fill="#010101"></path><path d="M 956 107 Q 961 91 922 77 882 64 877 80 872 97 879 112 887 128 903 133 L 935 131 956 107" fill="#ffffff"></path><path d="M 990 168 L 984 153 Q 977 146 969 146 960 146 954 153 947 159 947 168 947 177 954 183 960 189 969 189 L 984 183 990 168" fill="#ffffff"></path><path d="M 943 224 Q 943 211 934 203 925 194 912 194 900 194 891 203 882 211 882 224 882 237 891 246 900 255 912 255 925 255 934 246 943 237 943 224" fill="#ffffff"></path><path d="M 159 224 Q 159 211 150 203 142 194 129 194 116 194 107 203 98 211 98 224 98 237 107 246 116 255 129 255 142 255 150 246 L 159 224" fill="#ffffff"></path><path d="M 845 43 Q 837 48 850 50 L 900 57 Q 949 64 1022 116 L 1028 112 Q 962 53 897 42 L 845 43" fill="#010101"></path></g><g id="cid_74" viewBox="-29 0 1061 165"><path d="M 298 115 Q 256 133 176 134 77 136 0 102" fill="none" stroke="#010101" stroke-width="58" stroke-linecap="round" stroke-linejoin="round"></path><path d="M 716 115 Q 750 133 847 136 964 140 1032 105" fill="none" stroke="#010101" stroke-width="58" stroke-linecap="round" stroke-linejoin="round"></path><path d="M 310 22 Q 320 3 311 0 306 -2 295 9 L 268 29 220 47 Q 199 54 198 57 L 227 59 279 49 Q 299 42 310 22" fill="#010101"></path><path d="M 762 33 L 728 12 Q 714 3 712 12 708 26 719 38 730 50 748 54 L 801 55 Q 828 52 828 47 L 806 43 762 33" fill="#010101"></path></g><g id="cid_64" viewBox="-175 415 964 582"><path d="M 182 545 Q 152 539 102 516 47 491 25 485 -67 459 -146 548" fill="none" stroke="#010101" stroke-width="58" stroke-linecap="round" stroke-linejoin="round"></path><path d="M -125 449 Q -156 413 -158 415 -166 426 -148 457 -127 494 -86 502 L -59 488 Q -90 488 -125 449" fill="#010101"></path><path d="M 600 545 Q 649 540 757 485 858 454 933 553" fill="none" stroke="#010101" stroke-width="58" stroke-linecap="round" stroke-linejoin="round"></path><path d="M 959 457 Q 972 421 954 425 949 426 928 458 905 490 869 502 L 904 526 Q 945 495 959 457" fill="#010101"></path></g><g id="cid_65" viewBox="-156 205 902 584"><path d="M 12 222 Q -41 222 -77 278 -110 330 -114 403 -118 477 -88 527 -54 583 10 583 75 583 109 527 139 477 136 403 133 330 101 278 65 222 12 222" fill="#010101"></path><path d="M -32 254 Q -65 264 -100 247 -119 237 -136 217 L -152 205 Q -160 210 -151 229 -140 250 -117 267 -89 288 -42 288 L -32 254" fill="#010101"></path><path d="M 21 337 Q 21 320 9 308 -3 296 -20 296 -37 296 -50 308 -62 320 -62 337 -62 354 -50 367 -37 379 -20 379 -3 379 9 367 21 354 21 337" fill="#ffffff"></path><path d="M 770 222 Q 716 222 679 279 646 331 642 403 639 478 670 527 705 584 773 584 841 584 875 527 906 477 901 403 896 331 862 279 824 222 770 222" fill="#010101"></path><path d="M 733 250 L 665 247 Q 646 238 628 220 L 611 208 Q 603 213 614 232 625 253 650 268 678 286 726 285 L 733 250" fill="#010101"></path><path d="M 787 337 Q 787 320 775 308 762 296 745 296 728 296 716 308 704 320 704 337 704 354 716 367 728 379 745 379 762 379 775 367 787 354 787 337" fill="#ffffff"></path></g><g id="cid_66" viewBox="-116 205 922 584"><path d="M 8 222 Q -45 222 -81 278 -113 330 -116 403 -119 477 -89 527 -54 583 10 583 75 583 108 527 138 477 134 403 130 330 97 278 61 222 8 222" fill="#010101"></path><path d="M 35 254 L 45 288 Q 92 288 120 267 144 250 154 229 163 210 155 205 L 139 217 Q 123 237 103 247 68 264 35 254" fill="#010101"></path><path d="M -2 337 Q -2 354 10 367 23 379 40 379 57 379 69 367 81 354 81 337 81 320 69 308 57 296 40 296 23 296 10 308 -2 320 -2 337" fill="#ffffff"></path><path d="M 777 222 Q 723 222 685 279 651 331 646 403 641 478 671 527 705 584 773 584 841 584 876 527 908 478 904 403 901 331 867 279 831 222 777 222" fill="#010101"></path><path d="M 797 250 L 804 285 Q 853 286 880 268 905 253 916 232 927 213 919 208 915 206 902 220 L 865 247 817 254 797 250" fill="#010101"></path><path d="M 760 337 Q 760 354 772 367 784 379 801 379 818 379 831 367 843 354 843 337 843 320 831 308 818 296 801 296 784 296 772 308 760 320 760 337" fill="#ffffff"></path></g><g id="cid_75" viewBox="-1102 -1538 997 -111"><path d="M 842 -1069 L 770 -1130 Q 760 -1268 614 -1348 568 -1374 515 -1390 L 470 -1401 Q 343 -1538 95 -1538 L -63 -1525 -128 -1511 Q -351 -1553 -493 -1419 -537 -1378 -568 -1323 L -590 -1277 Q -691 -1271 -714 -1172 -725 -1123 -716 -1075 -807 -1042 -827 -946 -838 -897 -830 -856 -865 -822 -896 -765 -958 -652 -937 -539 -956 -445 -965 -423 -974 -398 -1005 -367 -1053 -362 -1065 -321 -1071 -301 -1067 -282 -1108 -247 -1101 -199 -1096 -156 -1061 -133 -1025 -109 -990 -132 -950 -159 -935 -245 L -873 -365 Q -823 -456 -769 -510 L -640 -612 Q -583 -656 -583 -710 -583 -808 -541 -871 -520 -902 -499 -914 -478 -886 -424 -882 L -373 -883 Q -373 -833 -333 -780 -376 -737 -321 -672 -293 -640 -257 -616 -275 -648 -277 -677 -281 -735 -200 -723 -119 -710 -80 -757 -60 -780 -57 -806 12 -827 53 -867 L 80 -903 Q 174 -922 215 -951 235 -965 237 -976 307 -960 419 -972 430 -843 494 -737 512 -707 600 -596 L 692 -518 Q 735 -481 715 -425 694 -366 772 -315 812 -289 855 -275 783 -262 728 -304 L 688 -348 Q 688 -271 777 -222 821 -197 865 -188 826 -167 775 -196 L 731 -228 784 -154 Q 853 -87 927 -125 1002 -163 990 -286 L 963 -402 Q 981 -462 991 -549 1010 -722 967 -852 923 -983 842 -1069" fill="#000000"></path><path d="M -144 -1112 Q -22 -1058 15 -920 17 -981 -17 -1039 -84 -1155 -258 -1138 L -224 -1135 Q -182 -1129 -144 -1112" fill="#ffffff"></path><path d="M 89 -1374 L 121 -1355 Q 157 -1329 184 -1295 269 -1187 218 -1044 256 -1101 259 -1171 265 -1311 89 -1374" fill="#ffffff"></path><path d="M -92 -1249 L 1 -1202 Q 94 -1131 94 -1015 108 -1061 91 -1114 58 -1219 -92 -1249" fill="#ffffff"></path><path d="M 2 -1313 Q 97 -1269 135 -1153 154 -1095 154 -1046 177 -1185 92 -1263 65 -1287 31 -1302 L 2 -1313" fill="#ffffff"></path><path d="M 438 -1317 Q 420 -1326 388 -1235 357 -1147 343 -1053 L 400 -1180 Q 453 -1309 438 -1317" fill="#ffffff"></path><path d="M 226 -1414 Q 303 -1311 296 -1173 293 -1104 274 -1056 345 -1186 293 -1313 L 250 -1387 226 -1414" fill="#ffffff"></path><path d="M -182 -1017 Q -75 -971 -43 -864 -47 -918 -79 -968 -143 -1067 -283 -1042 L -182 -1017" fill="#ffffff"></path><path d="M -59 -1168 L 5 -1112 Q 66 -1036 52 -937 70 -976 65 -1024 55 -1121 -59 -1168" fill="#ffffff"></path><path d="M 143 -1262 L 172 -1206 Q 199 -1137 188 -1078 201 -1106 202 -1143 204 -1217 143 -1262" fill="#ffffff"></path><path d="M 698 -1180 Q 584 -1172 506 -1083 L 450 -995 Q 529 -1097 622 -1149 668 -1175 698 -1180" fill="#ffffff"></path><path d="M 649 -1090 Q 586 -1057 491 -977 699 -1081 699 -1101 699 -1116 649 -1090" fill="#ffffff"></path><path d="M 650 -1014 Q 564 -970 483 -898 741 -1023 733 -1039 726 -1053 650 -1014" fill="#ffffff"></path><path d="M -187 -1164 L -92 -1138 Q 7 -1093 24 -1000 35 -1044 14 -1086 -28 -1171 -187 -1164" fill="#ffffff"></path><path d="M 679 -1136 Q 679 -1153 612 -1117 537 -1077 487 -1003 536 -1048 615 -1095 679 -1132 679 -1136" fill="#ffffff"></path><path d="M 356 -1341 L 352 -1255 Q 341 -1153 310 -1072 331 -1103 347 -1153 379 -1252 356 -1341" fill="#ffffff"></path><path d="M -227 -901 Q -255 -904 -238 -894 L -184 -869 Q -157 -856 -132 -836 L -102 -805 Q -93 -792 -93 -804 -92 -816 -104 -834 -139 -890 -227 -901" fill="#ffffff"></path></g><path id="cid_54" d="M 822 -1653 L 366 -1623 581 -1103 822 -1653" viewBox="366 -1653 822 -1103" fill="#f7ed00"></path><g id="cid_86" viewBox="-30 -30 602 810"><path d="M 352 617 Q 323 591 280 590 237 591 208 618 179 644 178 685 179 725 208 752 236 779 280 780 323 779 352 752 382 726 383 685 382 644 352 617 M 441 368 Q 507 323 540 288 572 254 572 201 572 123 502 63 432 3 297 0 182 2 117 40 52 79 25 128 -1 177 0 209 3 251 36 262 L 97 273 Q 183 270 191 230 191 207 208 182 226 157 290 154 L 337 160 Q 371 168 375 204 376 223 353 243 L 269 301 Q 209 344 196 392 183 440 186 463 181 550 282 545 346 543 360 516 374 488 371 463 371 431 387 412 L 441 368" fill="#ff0000"></path><path d="M 441 368 L 387 412 Q 371 431 371 463 374 488 360 516 346 543 282 545 181 550 186 463 183 440 196 392 209 344 269 301 L 353 243 Q 376 223 375 204 371 168 337 160 L 290 154 Q 226 157 208 182 191 207 191 230 183 270 97 273 L 36 262 Q 3 251 0 209 -1 177 25 128 52 79 117 40 182 2 297 0 432 3 502 63 572 123 572 201 572 254 540 288 507 323 441 368 M 352 617 Q 382 644 383 685 382 726 352 752 323 779 280 780 236 779 208 752 179 725 178 685 179 644 208 618 237 591 280 590 323 591 352 617" fill="none" stroke="#000000" stroke-width="60" stroke-linecap="round" stroke-linejoin="round"></path></g><g id="cid_49" viewBox="-121 47 4309 939"><path d="M 4304 616 Q 4288 568 4226 528 4278 490 4290 448 4302 406 4271 368 4237 328 4163 304 4088 280 3992 280 L 3906 285 Q 3877 223 3792 181 3665 117 3475 117 3305 117 3146 171 3042 112 2897 79 2749 47 2585 47 2450 47 2322 69 2195 91 2090 132 1932 69 1723 69 L 1511 88 Q 1410 108 1337 144 1175 78 977 78 850 78 738 106 626 135 548 187 436 165 334 165 208 165 104 197 1 229 -56 286 -112 341 -108 403 -104 465 -44 519 -104 567 -118 615 -130 663 -91 702 -54 740 20 761 95 781 194 781 L 328 773 Q 389 837 505 871 623 906 784 906 938 906 1115 873 1211 905 1351 922 L 1657 939 Q 1903 939 2084 903 2256 934 2465 934 2729 934 2939 885 3114 938 3301 938 3454 938 3575 902 3694 866 3757 802 L 3943 819 Q 4063 819 4154 789 4247 760 4286 709 4320 664 4304 616" fill="#fff000"></path><path d="M 4214 626 Q 4198 571 4105 529 4183 490 4199 444 4212 402 4169 369 4123 336 4037 328 3942 319 3828 347 3828 282 3762 235 3701 190 3594 172 3359 133 3130 235 2958 105 2633 94 2312 83 2088 194 1934 108 1693 115 1457 122 1345 210 1176 114 941 124 703 134 582 246 414 201 269 213 140 225 61 279 -14 329 -16 396 -17 465 66 519 -12 569 -26 618 -40 664 7 696 114 768 383 716 443 826 655 852 856 877 1128 822 1278 884 1588 892 1884 899 2082 854 2270 892 2506 888 2754 884 2945 832 3180 913 3410 886 3641 858 3706 742 3866 780 3995 771 4110 762 4171 720 4230 679 4214 626" fill="#ffffff"></path></g><path id="cid_52" d="M 3452 -80 L 0 -80 0 401 3452 401 3452 -80" viewBox="0 -80 3452 401" fill="#ffffff"></path></defs></svg>
