<?xml version="1.0" encoding="utf-8"?>
<!DOCTYPE svg PUBLIC "-//W3C//DTD SVG 1.1//EN" "http://www.w3.org/Graphics/SVG/1.1/DTD/svg11.dtd">
<svg xmlns="http://www.w3.org/2000/svg" xmlns:xlink="http://www.w3.org/1999/xlink" version="1.1" width="14414" height="10209"><defs><g id="cid_1" viewBox="2719 3687 3492 4624"><path d="M 3476 4623 Q 3493 4624 3491 4586 3076 3559 2720 3706 2975 3677 3245 4147 3320 4276 3408 4472 L 3476 4623" fill="#ffffff"></path><path d="M 3476 4623 L 3408 4472 Q 3320 4276 3245 4147 2975 3677 2720 3706 3076 3559 3491 4586 3493 4624 3476 4623" fill="none" stroke="#000000" stroke-width="3" stroke-linecap="round" stroke-linejoin="round"></path></g><g id="cid_2" viewBox="3135 3435 3563 4558"><path d="M 3535 4556 Q 3551 4562 3562 4525 3521 3419 3136 3436 3385 3497 3479 4030 3507 4187 3522 4391 L 3535 4556" fill="#ffffff"></path><path d="M 3535 4556 L 3522 4391 Q 3507 4187 3479 4030 3385 3497 3136 3436 3521 3419 3562 4525 3551 4562 3535 4556" fill="none" stroke="#000000" stroke-width="3" stroke-linecap="round" stroke-linejoin="round"></path></g><g id="cid_3" viewBox="2952 5289 4138 5530"><path d="M 4135 5405 Q 4144 5391 4111 5372 3026 5151 2953 5529 3070 5301 3610 5333 3881 5350 4135 5405" fill="#ffffff"></path><path d="M 4135 5405 Q 3881 5350 3610 5333 3070 5301 2953 5529 3026 5151 4111 5372 4144 5391 4135 5405" fill="none" stroke="#000000" stroke-width="3" stroke-linecap="round" stroke-linejoin="round"></path></g><g id="cid_4" viewBox="3002 5575 4089 6091"><path d="M 3568 5697 Q 3716 5658 3924 5625 L 4088 5600 Q 4092 5584 4055 5576 2956 5709 3005 6090 3045 5837 3568 5697" fill="#ffffff"></path><path d="M 3568 5697 Q 3045 5837 3005 6090 2956 5709 4055 5576 4092 5584 4088 5600 L 3924 5625 Q 3716 5658 3568 5697" fill="none" stroke="#000000" stroke-width="3" stroke-linecap="round" stroke-linejoin="round"></path></g><g id="cid_5" viewBox="2856 5463 4002 5822"><path d="M 3471 5515 L 3835 5494 4000 5494 Q 4006 5479 3971 5466 2864 5437 2857 5821 2933 5577 3471 5515" fill="#ffffff"></path><path d="M 3471 5515 Q 2933 5577 2857 5821 2864 5437 3971 5466 4006 5479 4000 5494 L 3835 5494 3471 5515" fill="none" stroke="#000000" stroke-width="3" stroke-linecap="round" stroke-linejoin="round"></path></g><g id="cid_6" viewBox="2599 4795 3775 5140"><path d="M 3770 5139 Q 3783 5129 3757 5101 2774 4591 2600 4934 2775 4747 3285 4927 3435 4980 3620 5068 L 3770 5139" fill="#ffffff"></path><path d="M 3770 5139 L 3620 5068 Q 3435 4980 3285 4927 2775 4747 2600 4934 2774 4591 3757 5101 3783 5129 3770 5139" fill="none" stroke="#000000" stroke-width="3" stroke-linecap="round" stroke-linejoin="round"></path></g><g id="cid_7" viewBox="2436 4977 3628 5222"><path d="M 2437 5149 Q 2590 4943 3118 5065 3383 5126 3624 5221 3635 5210 3606 5185 2572 4789 2437 5149" fill="#ffffff"></path><path d="M 2437 5149 Q 2572 4789 3606 5185 3635 5210 3624 5221 3383 5126 3118 5065 2590 4943 2437 5149" fill="none" stroke="#000000" stroke-width="3" stroke-linecap="round" stroke-linejoin="round"></path></g><g id="cid_8" viewBox="2390 5165 3579 5391"><path d="M 2391 5390 Q 2515 5166 3054 5214 3324 5238 3576 5300 3586 5287 3554 5267 2476 5015 2391 5390" fill="#ffffff"></path><path d="M 2391 5390 Q 2476 5015 3554 5267 3586 5287 3576 5300 3324 5238 3054 5214 2515 5166 2391 5390" fill="none" stroke="#000000" stroke-width="3" stroke-linecap="round" stroke-linejoin="round"></path></g><g id="cid_9" viewBox="2641 4857 3783 5319"><path d="M 3777 5318 Q 3791 5310 3769 5279 2860 4647 2642 4964 2841 4801 3324 5045 3464 5116 3638 5228 L 3777 5318" fill="#ffffff"></path><path d="M 3777 5318 L 3638 5228 Q 3464 5116 3324 5045 2841 4801 2642 4964 2860 4647 3769 5279 3791 5310 3777 5318" fill="none" stroke="#000000" stroke-width="3" stroke-linecap="round" stroke-linejoin="round"></path></g><g id="cid_10" viewBox="2396 4005 3379 4741"><path d="M 2397 4056 Q 2635 3962 3021 4342 3135 4455 3264 4613 L 3369 4740 Q 3385 4736 3373 4700 2701 3820 2397 4056" fill="#ffffff"></path><path d="M 2397 4056 Q 2701 3820 3373 4700 3385 4736 3369 4740 L 3264 4613 Q 3135 4455 3021 4342 2635 3962 2397 4056" fill="none" stroke="#000000" stroke-width="3" stroke-linecap="round" stroke-linejoin="round"></path></g><g id="cid_11" viewBox="2294 4333 3399 4881"><path d="M 2295 4421 Q 2507 4277 2965 4565 3100 4650 3261 4777 L 3392 4880 Q 3406 4872 3387 4840 2541 4125 2295 4421" fill="#ffffff"></path><path d="M 2295 4421 Q 2541 4125 3387 4840 3406 4872 3392 4880 L 3261 4777 Q 3100 4650 2965 4565 2507 4277 2295 4421" fill="none" stroke="#000000" stroke-width="3" stroke-linecap="round" stroke-linejoin="round"></path></g><g id="cid_12" viewBox="2257 4505 3399 4967"><path d="M 2258 4612 Q 2457 4449 2940 4693 3080 4764 3254 4876 L 3393 4966 Q 3407 4958 3385 4927 2476 4295 2258 4612" fill="#ffffff"></path><path d="M 2258 4612 Q 2476 4295 3385 4927 3407 4958 3393 4966 L 3254 4876 Q 3080 4764 2940 4693 2457 4449 2258 4612" fill="none" stroke="#000000" stroke-width="3" stroke-linecap="round" stroke-linejoin="round"></path></g><g id="cid_13" viewBox="3330 4491 12153 10206"><path d="M 7357 9334 Q 7609 9722 7469 9164 7693 9324 7717 9324 7445 8860 7621 8956 7517 8748 7877 8988 7557 8668 7909 8860 8069 8988 7917 8788 7629 8468 8069 8828 8289 9139 8315 9206 8117 8628 8029 8572 8197 7844 9021 8156 9157 8500 9245 8132 9501 8004 9725 8556 9805 8284 9789 8228 9925 8252 9909 8228 10173 8316 10197 8300 10333 8436 10341 8364 10522 8419 10486 8350 10661 8660 10669 8732 L 10717 8452 10757 8508 Q 10789 8356 10773 8332 10792 8331 10830 8349 10905 8384 10979 8443 11209 8622 11269 8884 L 11309 9052 Q 11429 8756 11397 8676 11501 8692 11509 8780 11589 8316 11493 8196 11581 8180 11605 8252 L 11605 8108 Q 11749 8124 11749 8076 11837 7996 11877 8092 11629 7388 11997 7772 12141 7988 12069 7612 12045 7487 11978 7266 11965 7224 11971 7211 11977 7199 12013 7196 12029 7124 11989 7092 11949 7060 12013 7092 12109 7172 12005 6732 12133 6764 11893 6180 11949 6132 11869 5964 12029 6052 12085 6020 12077 5988 12013 5908 11581 4812 11989 5252 12226 5523 12098 5067 11916 4587 11931 4501 L 3340 4961 Q 3359 5195 3405 5276 3333 5524 3509 5788 3501 5932 3533 5996 3613 6164 3709 6180 L 3888 6224 Q 4043 6266 4158 6282 4501 6564 4437 6820 4431 7082 4384 7155 4577 6976 4397 7292 L 4309 7668 Q 4821 7236 4509 7604 L 4309 8124 Q 4701 7756 4557 7924 L 4493 8100 Q 5357 7556 4741 8148 4901 8076 4989 8132 5125 8108 5109 8140 4693 8348 4621 8716 4789 8516 4725 8732 L 4733 8964 Q 4813 8532 4805 9284 5189 8924 4957 9340 L 4957 9676 Q 5261 9348 5133 9604 5333 9428 5253 9732 5237 9940 5325 9716 5645 9104 5525 9628 5509 10012 5605 9716 5613 9924 5797 10068 5773 9052 6029 9772 L 6109 10100 Q 6165 9916 6157 9812 6453 9484 6317 9972 6621 9516 6557 9780 6405 10100 6437 10196 6773 9500 6797 9468 6757 10316 6973 9596 7085 9836 7029 9924 7189 9764 7173 9700 7265 9536 7321 9808 7357 9996 7389 9932 7469 10412 7493 9956 7525 9684 7381 9452 7394 9398 7357 9334 M 7341 9308 L 7357 9334" fill="#ffffff"></path><path d="M 7357 9334 Q 7609 9722 7469 9164 7693 9324 7717 9324 7445 8860 7621 8956 7517 8748 7877 8988 7557 8668 7909 8860 8069 8988 7917 8788 7629 8468 8069 8828 8289 9139 8315 9206 8117 8628 8029 8572 8197 7844 9021 8156 9157 8500 9245 8132 9501 8004 9725 8556 9805 8284 9789 8228 9925 8252 9909 8228 10173 8316 10197 8300 10333 8436 10341 8364 10522 8419 10486 8350 10661 8660 10669 8732 L 10717 8452 10757 8508 Q 10789 8356 10773 8332 10792 8331 10830 8349 10905 8384 10979 8443 11209 8622 11269 8884 L 11309 9052 Q 11429 8756 11397 8676 11501 8692 11509 8780 11589 8316 11493 8196 11581 8180 11605 8252 L 11605 8108 Q 11749 8124 11749 8076 11837 7996 11877 8092 11629 7388 11997 7772 12141 7988 12069 7612 12045 7487 11978 7266 11965 7224 11971 7211 11977 7199 12013 7196 12029 7124 11989 7092 11949 7060 12013 7092 12109 7172 12005 6732 12133 6764 11893 6180 11949 6132 11869 5964 12029 6052 12085 6020 12077 5988 12013 5908 11581 4812 11989 5252 12226 5523 12098 5067 11916 4587 11931 4501 L 3340 4961 Q 3359 5195 3405 5276 3333 5524 3509 5788 3501 5932 3533 5996 3613 6164 3709 6180 L 3888 6224 Q 4043 6266 4158 6282 4501 6564 4437 6820 4431 7082 4384 7155 4577 6976 4397 7292 L 4309 7668 Q 4821 7236 4509 7604 L 4309 8124 Q 4701 7756 4557 7924 L 4493 8100 Q 5357 7556 4741 8148 4901 8076 4989 8132 5125 8108 5109 8140 4693 8348 4621 8716 4789 8516 4725 8732 L 4733 8964 Q 4813 8532 4805 9284 5189 8924 4957 9340 L 4957 9676 Q 5261 9348 5133 9604 5333 9428 5253 9732 5237 9940 5325 9716 5645 9104 5525 9628 5509 10012 5605 9716 5613 9924 5797 10068 5773 9052 6029 9772 L 6109 10100 Q 6165 9916 6157 9812 6453 9484 6317 9972 6621 9516 6557 9780 6405 10100 6437 10196 6773 9500 6797 9468 6757 10316 6973 9596 7085 9836 7029 9924 7189 9764 7173 9700 7265 9536 7321 9808 7357 9996 7389 9932 7469 10412 7493 9956 7525 9684 7381 9452 7394 9398 7357 9334 L 7341 9308 M 4384 7155 L 4357 7180 M 8315 9206 L 8317 9212" fill="none" stroke="#000000" stroke-width="20" stroke-linecap="round" stroke-linejoin="round"></path></g><g id="cid_14" viewBox="3307 -10 12125 5142"><path d="M 10789 484 L 10133 508 9980 397 Q 9795 267 9586 180 8902 -103 8085 116 7981 156 7893 132 7525 -188 6549 268 L 6317 308 Q 6229 308 6069 436 L 5861 612 Q 5533 836 5437 852 5205 980 5117 1180 L 5045 1204 5005 1372 Q 4909 1444 4893 1556 4717 1676 4725 1764 4693 1868 4677 1964 4533 2060 4549 2116 4397 2396 4421 2532 4293 2524 4237 2572 4221 2668 4189 2676 4133 2700 4181 2780 4149 2836 4141 2868 4157 2924 4069 3036 3941 3412 3981 3516 3989 3612 3933 3644 3861 3636 4029 3876 4045 3900 3981 3948 3637 4020 3589 4348 3317 4644 3317 4748 L 3336 4949 Q 3325 5116 3877 5132 4429 5148 11931 4505 11980 4520 12013 4564 12149 4780 12045 4412 11861 3836 12037 4060 12157 4204 12093 3932 12016 3603 11965 3476 12197 3572 11661 2780 L 11837 2852 Q 11445 2060 11013 1956 L 10853 1836 Q 11621 1076 11365 340 11229 236 11037 420 10909 516 10789 484" fill="#cc7326"></path><path d="M 10789 484 L 10133 508 9980 397 Q 9795 267 9586 180 8902 -103 8085 116 7981 156 7893 132 7525 -188 6549 268 L 6317 308 Q 6229 308 6069 436 L 5861 612 Q 5533 836 5437 852 5205 980 5117 1180 L 5045 1204 5005 1372 Q 4909 1444 4893 1556 4717 1676 4725 1764 4693 1868 4677 1964 4533 2060 4549 2116 4397 2396 4421 2532 4293 2524 4237 2572 4221 2668 4189 2676 4133 2700 4181 2780 4149 2836 4141 2868 4157 2924 4069 3036 3941 3412 3981 3516 3989 3612 3933 3644 3861 3636 4029 3876 4045 3900 3981 3948 3637 4020 3589 4348 3317 4644 3317 4748 L 3336 4949 Q 3325 5116 3877 5132 4429 5148 11931 4505 11980 4520 12013 4564 12149 4780 12045 4412 11861 3836 12037 4060 12157 4204 12093 3932 12016 3603 11965 3476 12197 3572 11661 2780 L 11837 2852 Q 11445 2060 11013 1956 L 10853 1836 Q 11621 1076 11365 340 11229 236 11037 420 10909 516 10789 484" fill="none" stroke="#000000" stroke-width="20" stroke-linecap="round" stroke-linejoin="round"></path></g><path id="cid_15" d="M 10082 3696 Q 9914 3728 9845 3708 9680 3660 9623 3736 L 9590 3798 Q 9576 3831 9557 3836 9530 3843 9093 3604 8652 3363 8581 3372 8544 3377 8432 3316 L 8252 3227 Q 8062 3160 8245 3548 8357 3786 8192 3953 8051 4097 7739 4167 7461 4228 7162 4210 6867 4192 6741 4108 6405 3884 6885 4476 7253 4876 6565 4540 6137 4381 5715 4574 5587 4633 5455 4726 L 5333 4812 5227 4842 Q 5167 4846 5157 4764 5136 4592 4988 4550 4767 4488 4357 4828 3957 5160 3681 4720 L 3625 4952 Q 3125 4164 3413 5292 3589 5980 6181 5228 9557 4620 9781 4540 10005 4460 11909 4588 L 11797 4252 Q 11000 3681 10437 3662 10288 3657 10082 3696" viewBox="3308 3217 11909 5621" fill="#cc7326"></path><path id="cid_16" d="M 10106 3729 Q 9939 3763 9871 3743 9706 3695 9649 3771 L 9616 3833 Q 9602 3866 9583 3871 9556 3878 9119 3639 8678 3398 8607 3407 8570 3412 8458 3351 L 8278 3262 Q 8088 3195 8271 3583 8387 3829 8223 3999 8084 4144 7769 4211 7490 4270 7189 4249 6894 4228 6767 4143 6431 3919 6911 4511 7279 4911 6591 4575 6163 4416 5741 4609 5613 4668 5481 4761 L 5359 4847 5253 4877 Q 5193 4881 5183 4799 5162 4628 5015 4586 4794 4524 4383 4863 3958 5210 3689 4781 L 3625 4983 Q 3125 4187 3426 5353 3602 6041 6207 5263 9583 4655 9807 4575 10031 4495 11918 4621 L 11807 4275 Q 11010 3705 10455 3691 10312 3687 10106 3729" viewBox="3313 3252 11918 5676" fill="#e87f3a"></path><path id="cid_17" d="M 9897 3778 Q 9732 3730 9675 3806 L 9642 3868 Q 9628 3901 9609 3906 9582 3913 9145 3674 8704 3433 8633 3442 8598 3446 8486 3385 L 8309 3295 Q 8122 3226 8297 3618 8410 3870 8245 4042 8107 4187 7792 4253 7515 4311 7215 4286 6921 4263 6793 4178 6457 3954 6937 4546 7305 4946 6617 4610 6189 4451 5767 4644 5639 4703 5507 4796 L 5385 4882 5279 4912 Q 5219 4916 5209 4834 5188 4664 5042 4623 4822 4561 4409 4898 3960 5260 3696 4841 L 3624 5014 Q 3148 4234 3439 5414 3615 6102 6233 5298 9609 4690 9833 4610 10057 4530 11926 4655 L 11817 4299 Q 11019 3728 10473 3720 10331 3718 10129 3762 9965 3798 9897 3778" viewBox="3329 3285 11926 5731" fill="#ea8c4e"></path><path id="cid_18" d="M 9924 3813 Q 9759 3765 9702 3841 L 9669 3903 Q 9655 3936 9636 3941 9609 3948 9172 3709 8731 3468 8660 3477 8625 3481 8513 3420 L 8336 3330 Q 8148 3261 8324 3653 8441 3914 8276 4086 8136 4233 7819 4295 7544 4349 7238 4322 6945 4296 6820 4213 6484 3989 6964 4581 7332 4981 6644 4645 6216 4486 5794 4679 5666 4738 5534 4831 L 5412 4917 5306 4947 Q 5246 4951 5236 4869 5215 4700 5070 4659 4850 4599 4436 4933 3961 5309 3704 4902 L 3624 5045 Q 3188 4309 3452 5475 3628 6163 6260 5333 9636 4725 9860 4645 10084 4565 11935 4688 L 11828 4322 Q 11031 3751 10492 3749 10355 3748 10154 3795 9992 3833 9924 3813" viewBox="3352 3320 11935 5787" fill="#ed9961"></path><path id="cid_19" d="M 9950 3848 Q 9785 3800 9728 3876 L 9695 3938 Q 9681 3971 9662 3976 9635 3983 9198 3744 8757 3503 8686 3512 8649 3517 8539 3454 L 8365 3363 Q 8181 3294 8350 3688 8467 3962 8304 4137 8165 4287 7850 4346 7577 4397 7270 4365 6976 4334 6846 4248 6510 4024 6990 4616 7358 5016 6670 4680 6242 4521 5820 4714 5692 4773 5560 4866 L 5438 4952 5332 4982 Q 5272 4986 5262 4904 5241 4734 5097 4695 4879 4635 4462 4968 3963 5359 3712 4963 L 3624 5076 Q 3228 4380 3465 5536 3641 6224 6286 5368 9662 4760 9886 4680 10110 4600 11944 4722 L 11838 4345 Q 11041 3774 10510 3778 10375 3779 10177 3828 10021 3869 9950 3848" viewBox="3376 3353 11944 5843" fill="#efa675"></path><path id="cid_20" d="M 10081 3888 L 9976 3883 Q 9811 3835 9754 3911 L 9721 3973 Q 9707 4006 9688 4011 9661 4018 9224 3779 8783 3538 8712 3547 8676 3551 8561 3492 L 8379 3404 Q 8186 3339 8376 3723 8510 3994 8350 4169 8214 4318 7894 4378 7613 4430 7302 4398 7001 4369 6872 4283 6536 4059 7016 4651 7384 5051 6696 4715 6268 4556 5846 4749 5718 4808 5586 4901 L 5464 4987 5358 5017 Q 5298 5021 5288 4939 5267 4770 5124 4731 4906 4673 4488 5003 3964 5409 3719 5024 L 3623 5107 Q 3263 4443 3478 5597 3654 6285 6312 5403 9688 4795 9912 4715 10136 4635 11953 4755 L 11848 4368 Q 11051 3797 10528 3807 10398 3809 10201 3861 L 10081 3888" viewBox="3398 3395 11953 5898" fill="#f1b389"></path><path id="cid_21" d="M 10002 3917 Q 9837 3869 9780 3945 L 9747 4007 Q 9733 4040 9714 4045 9687 4052 9250 3813 8809 3572 8738 3581 8703 3585 8586 3526 L 8402 3440 Q 8207 3375 8402 3757 8544 4036 8386 4213 8252 4364 7929 4421 7646 4471 7331 4436 7028 4404 6898 4317 6562 4093 7042 4685 7410 5085 6722 4749 6294 4590 5872 4783 5744 4842 5612 4935 L 5490 5021 5384 5051 Q 5324 5055 5314 4973 5293 4805 5151 4767 4935 4709 4514 5037 3966 5459 3727 5084 L 3623 5137 Q 3303 4533 3492 5659 3668 6347 6338 5437 9714 4829 9938 4749 10162 4669 11961 4789 L 11858 4392 Q 11063 3823 10546 3836 10418 3839 10224 3893 10072 3938 10002 3917" viewBox="3422 3431 11961 5955" fill="#f4bf9d"></path><path id="cid_22" d="M 10028 3952 Q 9863 3904 9806 3980 L 9773 4042 Q 9759 4075 9740 4080 9713 4087 9276 3848 8835 3607 8764 3616 8728 3620 8608 3563 L 8419 3479 Q 8219 3417 8428 3792 8582 4069 8425 4245 8294 4394 7967 4453 7679 4503 7362 4470 7052 4438 6924 4352 6588 4128 7068 4720 7436 5120 6748 4784 6320 4625 5898 4818 5770 4877 5638 4970 L 5516 5056 5410 5086 Q 5350 5090 5340 5008 5319 4840 5178 4803 4962 4747 4540 5072 3967 5509 3734 5145 L 3622 5168 Q 3334 4600 3505 5720 3681 6408 6364 5472 9740 4864 9964 4784 10188 4704 11970 4822 L 11868 4415 Q 11073 3846 10564 3865 10437 3870 10248 3926 10098 3973 10028 3952" viewBox="3441 3470 11970 6011" fill="#f6ccb0"></path><path id="cid_23" d="M 8635 3598 Q 8489 3527 8446 3514 8247 3452 8454 3827 8608 4104 8451 4280 8320 4429 7993 4488 7705 4538 7388 4505 7078 4473 6950 4387 6614 4163 7094 4755 7462 5155 6774 4819 6346 4660 5924 4853 5796 4912 5664 5005 L 5542 5091 5436 5121 Q 5376 5125 5366 5043 5345 4876 5205 4839 4989 4783 4566 5107 3969 5559 3742 5206 L 3622 5199 Q 3350 4671 3518 5781 3694 6469 6390 5507 9766 4899 9990 4819 10214 4739 11979 4856 L 11878 4438 Q 11083 3869 10582 3894 10456 3900 10271 3960 10125 4008 10054 3987 9889 3939 9832 4015 L 9799 4077 Q 9785 4110 9766 4115 9739 4122 9302 3883 8861 3642 8790 3651 8754 3656 8635 3598" viewBox="3454 3505 11979 6068" fill="#f8d9c4"></path><path id="cid_24" d="M 8663 3632 L 8475 3548 Q 8277 3484 8481 3862 8635 4147 8478 4325 8346 4477 8020 4532 7736 4580 7415 4543 7108 4509 6977 4422 6641 4198 7121 4790 7489 5190 6801 4854 6373 4695 5951 4888 5823 4947 5691 5040 L 5569 5126 5463 5156 Q 5403 5160 5393 5078 5372 4912 5233 4876 5018 4820 4593 5142 3970 5608 3750 5267 L 3622 5230 Q 3362 4750 3531 5842 3707 6530 6417 5542 9793 4934 10017 4854 10241 4774 11988 4889 L 11889 4461 Q 11095 3892 10601 3923 10476 3931 10296 3993 10152 4043 10081 4022 9916 3974 9859 4050 L 9826 4112 Q 9812 4145 9793 4150 9766 4157 9329 3918 8888 3677 8817 3686 8780 3691 8663 3632" viewBox="3464 3539 11988 6124" fill="#fae6d8"></path><path id="cid_25" d="M 8692 3666 L 8510 3578 Q 8317 3513 8507 3897 8655 4195 8498 4377 8366 4530 8040 4582 7757 4626 7439 4584 7133 4544 7003 4457 6667 4233 7147 4825 7515 5225 6827 4889 6399 4730 5977 4923 5849 4982 5717 5075 L 5595 5161 5489 5191 Q 5429 5195 5419 5113 5398 4948 5260 4912 5047 4858 4619 5177 3972 5658 3757 5327 L 3621 5261 Q 3365 4797 3544 5903 3720 6591 6443 5577 9819 4969 10043 4889 10267 4809 11996 4923 L 11899 4485 Q 11105 3916 10619 3953 10504 3961 10319 4026 10178 4078 10107 4057 9942 4009 9885 4085 L 9852 4147 Q 9838 4180 9819 4185 9792 4192 9355 3953 8914 3712 8843 3721 8807 3725 8692 3666" viewBox="3470 3569 11996 6181" fill="#fdf2eb"></path><path id="cid_26" d="M 8542 3611 Q 8353 3544 8533 3932 8687 4263 8525 4448 8391 4604 8055 4641 7773 4672 7447 4619 7145 4570 7029 4492 6693 4268 7173 4860 7541 5260 6853 4924 6425 4765 6003 4958 5875 5017 5743 5110 L 5621 5196 5515 5226 Q 5455 5230 5445 5148 5424 4983 5287 4948 5074 4894 4645 5212 3973 5708 3765 5388 L 3621 5292 Q 3365 4852 3557 5964 3733 6652 6469 5612 9845 5004 10069 4924 10293 4844 12005 4956 L 11909 4508 Q 11115 3940 10637 3982 10518 3993 10343 4060 10205 4113 10133 4092 9968 4044 9911 4120 L 9878 4182 Q 9864 4215 9845 4220 9818 4227 9381 3988 8940 3747 8869 3756 8832 3761 8720 3700 L 8542 3611" viewBox="3475 3601 12005 6238" fill="#ffffff"></path><path id="cid_27" d="M 4453 5892 Q 3949 5772 4045 5884 4141 5996 4237 6084 4269 6292 4393 6332 4753 6416 4725 6388 4309 6124 4453 5892" viewBox="4030 5830 4727 6395" fill="#000000"></path><path id="cid_28" d="M 7595 5572 Q 7548 5950 7629 6052 7693 6132 7869 6796 L 8109 6060 Q 8341 5740 7941 5372 7237 4796 7253 4940 7607 5476 7595 5572" viewBox="7253 4911 8194 6796" fill="#cccccc"></path><path id="cid_29" d="M 5093 6956 L 4933 7004 Q 5242 6472 5029 6444 L 4853 6428 Q 5077 6572 4789 7196 L 4917 7148 Q 4901 7372 4837 7420 L 4981 7356 Q 5077 7516 4997 7612 5333 7772 5317 7900 5445 7740 5365 7612 5342 7575 5296 7544 L 5225 7494 Q 5147 7420 5157 7196 L 4981 7260 Q 5093 7084 5093 6956" viewBox="4789 6428 5396 7900" fill="#000000"></path><path id="cid_30" d="M 5501 6692 Q 5410 6718 5125 6878 4778 7073 4701 7196 5389 6708 5501 6764 5557 6676 5501 6692" viewBox="4701 6690 5529 7196" fill="#cccccc"></path><path id="cid_31" d="M 5709 6852 Q 5618 6878 5333 7038 4986 7233 4909 7356 5597 6868 5709 6924 5765 6836 5709 6852" viewBox="4909 6850 5737 7356" fill="#cccccc"></path><path id="cid_32" d="M 5973 6548 Q 5882 6574 5597 6734 5250 6929 5173 7052 5861 6564 5973 6620 6029 6532 5973 6548" viewBox="5173 6546 6001 7052" fill="#cccccc"></path><path id="cid_33" d="M 5453 7388 Q 5362 7414 5029 7602 4634 7825 4557 7948 5397 7436 5509 7492 5509 7372 5453 7388" viewBox="4557 7386 5509 7948" fill="#cccccc"></path><path id="cid_34" d="M 5501 7196 Q 5447 7196 5187 7336 4891 7496 4813 7620 5405 7188 5533 7276 5557 7180 5501 7196" viewBox="4813 7194 5540 7620" fill="#cccccc"></path><path id="cid_35" d="M 5821 8620 Q 5901 8468 5981 8500 6109 8460 6093 8692 6093 8865 6082 8933 6190 8428 6237 8420 6395 8396 6491 8568 6415 8421 6509 8460 6701 8488 6773 8599 6660 8392 6765 8452 6901 8452 6925 8580 7093 9004 7133 9036 6981 8604 7013 8604 6973 8364 7077 8660 7013 8380 7125 8396 7160 8401 7288 8504 7397 8592 7493 8564 7685 8676 7725 7292 L 5245 8228 5045 8380 Q 5253 8228 5325 8252 5189 8476 5173 8580 5381 8324 5493 8332 5645 8340 5645 8556 5757 8348 5821 8356 5845 8484 5821 8620" viewBox="5045 7292 7725 9036" fill="#cccccc"></path><path id="cid_36" d="M 7725 6076 L 7709 6052 7517 5924 Q 7411 5891 7120 5983 6812 6081 6717 6204 6581 6380 6437 6372 5637 6252 5341 6372 5401 6407 5424 6737 L 5453 7276 Q 5477 7564 5389 7732 5109 8036 5165 8196 5221 8356 5805 8388 6317 8308 6733 8388 6995 8421 7189 8266 7330 8153 7501 7868 7637 7642 7816 7089 7988 6560 7981 6436 7973 6284 7725 6076" viewBox="5156 5915 7981 8394" fill="#000000"></path><path id="cid_37" d="M 7421 6476 Q 7069 6412 5781 6412 5949 6780 5357 8084 5320 8114 5493 8166 5675 8220 5813 8188 6032 8135 6837 8220 7309 7908 7565 7020 7773 6540 7421 6476" viewBox="5350 6412 7642 8220" fill="#e6668c"></path><path id="cid_38" d="M 7625 6772 Q 7632 6614 7473 6316 7312 6012 7253 6124 7029 6540 5781 6412 5858 6579 5740 7030 L 6069 6836 Q 6365 7060 7625 6772" viewBox="5740 6094 7625 7030" fill="#b33359"></path><path id="cid_39" d="M 6813 7804 Q 6860 7788 6869 7708 6880 7601 6981 7500 L 7109 7336 Q 7205 7201 7189 7196 7165 7188 5829 7356 5869 7500 5821 7580 L 5765 7604 Q 5789 7676 5909 7708 5949 7796 5997 7804 L 6097 7864 Q 6174 7914 6221 7900 L 6525 7796 Q 6637 7732 6813 7804" viewBox="5765 7196 7191 7903" fill="#a6264c"></path><g id="cid_40" viewBox="5705 6049 7426 7734"><path d="M 7389 6204 Q 7319 6064 7135 6059 6921 6054 6701 6268 6591 6375 6500 6397 L 6326 6391 Q 6172 6357 6099 6352 5935 6341 5741 6388 5685 6836 5749 7004 5792 7116 5795 7181 5797 7214 5781 7292 5769 7353 5825 7477 5882 7603 5965 7692 L 6205 7724 Q 6509 7652 6693 7708 6873 7735 6941 7436 7037 7308 7181 7252 7286 7211 7369 6767 7451 6328 7389 6204" fill="#ff737f"></path><path d="M 7389 6204 Q 7319 6064 7135 6059 6921 6054 6701 6268 6591 6375 6500 6397 L 6326 6391 Q 6172 6357 6099 6352 5935 6341 5741 6388 5685 6836 5749 7004 5792 7116 5795 7181 5797 7214 5781 7292 5769 7353 5825 7477 5882 7603 5965 7692 L 6205 7724 Q 6509 7652 6693 7708 6873 7735 6941 7436 7037 7308 7181 7252 7286 7211 7369 6767 7451 6328 7389 6204" fill="none" stroke="#000000" stroke-width="20" stroke-linecap="round" stroke-linejoin="round"></path></g><g id="cid_41" viewBox="4965 7475 5778 8122"><path d="M 5005 7636 Q 5213 8044 5349 8100 5677 8180 5773 7884 5757 7844 5669 7836 5221 7764 5053 7516 4917 7404 5005 7636" fill="#ffffcc"></path><path d="M 5005 7636 Q 5213 8044 5349 8100 5677 8180 5773 7884 5757 7844 5669 7836 5221 7764 5053 7516 4917 7404 5005 7636" fill="none" stroke="#000000" stroke-width="10" stroke-linecap="round" stroke-linejoin="round"></path></g><path id="cid_42" d="M 7398 6370 Q 7410 6247 7389 6204 7297 6022 7078 6058 6882 6092 6701 6268 6591 6375 6500 6397 L 6326 6391 Q 6172 6357 6099 6352 5935 6341 5741 6388 5706 6667 5723 6868 6469 6636 6485 6748 6517 6684 6701 6684 L 7093 6665 Q 7351 6641 7372 6605 L 7398 6370" viewBox="5717 6052 7402 6868" fill="#cc404c"></path><path id="cid_43" d="M 6509 6404 Q 6605 6500 6533 6692 6245 7012 6285 7292" viewBox="6260 6384 6584 7312" fill="none" stroke="#a61a26" stroke-width="40" stroke-linecap="round" stroke-linejoin="round"></path><g id="cid_44" viewBox="5515 7928 5719 8130"><path d="M 5637 7980 Q 5461 7844 5549 8100 5565 8142 5629 8112 5683 8087 5709 8052 5733 8020 5637 7980" fill="#ffffcc"></path><path d="M 5637 7980 Q 5733 8020 5709 8052 5683 8087 5629 8112 5565 8142 5549 8100 5461 7844 5637 7980" fill="none" stroke="#000000" stroke-width="10" stroke-linecap="round" stroke-linejoin="round"></path></g><g id="cid_45" viewBox="5621 7985 5791 8141"><path d="M 5778 8086 Q 5809 8077 5720 8028 5579 7919 5650 8124 L 5727 8128 Q 5742 8095 5778 8086" fill="#ffffcc"></path><path d="M 5778 8086 Q 5742 8095 5727 8128 L 5650 8124 Q 5579 7919 5720 8028 5809 8077 5778 8086" fill="none" stroke="#000000" stroke-width="10" stroke-linecap="round" stroke-linejoin="round"></path></g><g id="cid_46" viewBox="5717 7985 5887 8141"><path d="M 5874 8086 Q 5904 8074 5816 8028 5675 7919 5746 8124 L 5832 8128 Q 5859 8091 5874 8086" fill="#ffffcc"></path><path d="M 5874 8086 Q 5859 8091 5832 8128 L 5746 8124 Q 5675 7919 5816 8028 5904 8074 5874 8086" fill="none" stroke="#000000" stroke-width="10" stroke-linecap="round" stroke-linejoin="round"></path></g><g id="cid_47" viewBox="5849 7989 6019 8135"><path d="M 6006 8090 Q 6036 8079 5948 8032 5807 7923 5878 8128 L 5967 8130 Q 5997 8093 6006 8090" fill="#ffffcc"></path><path d="M 6006 8090 Q 5997 8093 5967 8130 L 5878 8128 Q 5807 7923 5948 8032 6036 8079 6006 8090" fill="none" stroke="#000000" stroke-width="10" stroke-linecap="round" stroke-linejoin="round"></path></g><g id="cid_48" viewBox="5979 7988 6144 8144"><path d="M 6135 8088 Q 6155 8062 6078 8030 5937 7922 6007 8126 L 6111 8131 6135 8088" fill="#ffffcc"></path><path d="M 6135 8088 L 6111 8131 6007 8126 Q 5937 7922 6078 8030 6155 8062 6135 8088" fill="none" stroke="#000000" stroke-width="10" stroke-linecap="round" stroke-linejoin="round"></path></g><g id="cid_49" viewBox="6103 7971 6311 8162"><path d="M 6301 8092 Q 6325 8060 6229 8020 6045 7892 6141 8140 6242 8170 6272 8146 L 6301 8092" fill="#ffffcc"></path><path d="M 6301 8092 L 6272 8146 Q 6242 8170 6141 8140 6045 7892 6229 8020 6325 8060 6301 8092" fill="none" stroke="#000000" stroke-width="10" stroke-linecap="round" stroke-linejoin="round"></path></g><path id="cid_50" d="M 5573 7796 Q 5837 7740 5957 7804 6077 7828 6101 7820 L 6189 7804" viewBox="5553 7750 6209 7842" fill="none" stroke="#a6264c" stroke-width="40" stroke-linecap="round" stroke-linejoin="round"></path><path id="cid_51" d="M 6253 7972 Q 6493 7700 6733 7788 L 6847 7791 6897 7617 Q 6926 7554 6989 7516" viewBox="6233 7496 7009 7992" fill="none" stroke="#a6264c" stroke-width="40" stroke-linecap="round" stroke-linejoin="round"></path><g id="cid_52" viewBox="6304 7548 6707 8178"><path d="M 6309 8076 Q 6309 8180 6477 8172 6693 8164 6701 8108 6708 8056 6682 7922 6651 7766 6597 7652 6517 7436 6461 7692 6425 7855 6376 7959 L 6309 8076" fill="#ffffcc"></path><path d="M 6309 8076 Q 6309 8180 6477 8172 6693 8164 6701 8108 6708 8056 6682 7922 6651 7766 6597 7652 6517 7436 6461 7692 6425 7855 6376 7959 L 6309 8076" fill="none" stroke="#000000" stroke-width="10" stroke-linecap="round" stroke-linejoin="round"></path></g><path id="cid_53" d="M 6877 7796 Q 6949 7748 6997 7772" viewBox="6857 7744 7017 7816" fill="none" stroke="#a6264c" stroke-width="40" stroke-linecap="round" stroke-linejoin="round"></path><path id="cid_54" d="M 7007 7468 Q 7065 7370 7161 7354" viewBox="6987 7334 7181 7488" fill="none" stroke="#a6264c" stroke-width="40" stroke-linecap="round" stroke-linejoin="round"></path><path id="cid_55" d="M 5877 8276 Q 6045 8236 5869 8236 5781 8268 5421 8204 5229 8140 5461 8252 L 5877 8276" viewBox="5334 8181 5959 8276" fill="#b2b2b2"></path><g id="cid_56" viewBox="5631 6335 6194 7148"><path d="M 6093 6356 L 5701 6340 Q 5602 6340 5653 6372 5717 6412 6085 7068 6141 7180 6165 7124 6237 6972 6093 6356" fill="#ffffcc"></path><path d="M 6093 6356 Q 6237 6972 6165 7124 6141 7180 6085 7068 5717 6412 5653 6372 5602 6340 5701 6340 L 6093 6356" fill="none" stroke="#000000" stroke-width="10" stroke-linecap="round" stroke-linejoin="round"></path></g><g id="cid_57" viewBox="4154 6281 4780 6999"><path d="M 4589 6372 L 4159 6286 4261 6532 Q 4288 6591 4453 6756 L 4669 6956 Q 4728 7002 4760 6993 4794 6984 4749 6916 4685 6820 4589 6372" fill="#ffffcc"></path><path d="M 4589 6372 Q 4685 6820 4749 6916 4794 6984 4760 6993 4728 7002 4669 6956 L 4453 6756 Q 4288 6591 4261 6532 L 4159 6286 4589 6372" fill="none" stroke="#000000" stroke-width="10" stroke-linecap="round" stroke-linejoin="round"></path></g><g id="cid_58" viewBox="4589 6371 4744 6607"><path d="M 4732 6452 Q 4712 6407 4596 6376 4587 6384 4615 6468 L 4664 6585 Q 4688 6628 4708 6562 4753 6496 4732 6452" fill="#ffffcc"></path><path d="M 4732 6452 Q 4753 6496 4708 6562 4688 6628 4664 6585 L 4615 6468 Q 4587 6384 4596 6376 4712 6407 4732 6452" fill="none" stroke="#000000" stroke-width="10" stroke-linecap="round" stroke-linejoin="round"></path></g><path id="cid_59" d="M 4741 6476 L 4877 6480 Q 4921 6489 4970 6480 L 5171 6486 Q 5220 6486 5253 6500 5295 6518 5337 6508 5379 6498 5397 6468 5421 6428 5517 6344 5261 6380 5205 6396 4757 6420 4597 6372 4669 6476 4741 6476" viewBox="4597 6344 5517 6512" fill="#000000"></path><g id="cid_60" viewBox="5346 6371 5532 6681"><path d="M 5352 6494 Q 5344 6542 5457 6616 5512 6708 5524 6660 5533 6624 5516 6503 5501 6382 5489 6376 5360 6446 5352 6494" fill="#ffffcc"></path><path d="M 5352 6494 Q 5344 6542 5457 6616 5512 6708 5524 6660 5533 6624 5516 6503 5501 6382 5489 6376 5360 6446 5352 6494" fill="none" stroke="#000000" stroke-width="10" stroke-linecap="round" stroke-linejoin="round"></path></g><g id="cid_61" viewBox="4734 6425 4892 6602"><path d="M 4739 6485 Q 4879 6709 4884 6485 4895 6460 4860 6459 4812 6458 4764 6430 4755 6425 4739 6485" fill="#ffffcc"></path><path d="M 4739 6485 Q 4879 6709 4884 6485 4895 6460 4860 6459 4812 6458 4764 6430 4755 6425 4739 6485" fill="none" stroke="#000000" stroke-width="10" stroke-linecap="round" stroke-linejoin="round"></path></g><g id="cid_62" viewBox="4878 6432 5035 6607"><path d="M 5029 6488 Q 5029 6482 4994 6479 4958 6475 4911 6439 4895 6428 4883 6490 5041 6714 5029 6488" fill="#ffffcc"></path><path d="M 5029 6488 Q 5029 6482 4994 6479 4958 6475 4911 6439 4895 6428 4883 6490 5041 6714 5029 6488" fill="none" stroke="#000000" stroke-width="10" stroke-linecap="round" stroke-linejoin="round"></path></g><g id="cid_63" viewBox="5022 6438 5179 6607"><path d="M 5173 6510 Q 5175 6485 5142 6479 L 5067 6445 Q 5046 6435 5027 6490 5186 6703 5173 6510" fill="#ffffcc"></path><path d="M 5173 6510 Q 5175 6485 5142 6479 L 5067 6445 Q 5046 6435 5027 6490 5186 6703 5173 6510" fill="none" stroke="#000000" stroke-width="10" stroke-linecap="round" stroke-linejoin="round"></path></g><g id="cid_64" viewBox="5160 6442 5351 6622"><path d="M 5330 6528 Q 5362 6500 5328 6496 5290 6491 5225 6450 5200 6435 5165 6492 5323 6723 5330 6528" fill="#ffffcc"></path><path d="M 5330 6528 Q 5362 6500 5328 6496 5290 6491 5225 6450 5200 6435 5165 6492 5323 6723 5330 6528" fill="none" stroke="#000000" stroke-width="10" stroke-linecap="round" stroke-linejoin="round"></path></g><path id="cid_65" d="M 4288 6532 L 4441 6563 4618 6567 4571 6385 4194 6309 Q 4236 6432 4288 6532" viewBox="4194 6309 4618 6567" fill="#e6e6b3"></path><path id="cid_66" d="M 5670 6376 L 5743 6469 Q 5907 6433 6108 6474 L 6084 6361 5715 6346 Q 5623 6346 5670 6376" viewBox="5654 6346 6108 6474" fill="#e6e6b3"></path><path id="cid_67" d="M 6797 1735 Q 6596 1724 6331 1957 6172 2097 6084 2219 6067 2241 6125 2646 L 6207 3134 Q 6234 3249 6181 3777 6523 3686 6546 3643 6537 3666 6815 3706 7179 3759 7559 3394 7698 3261 7805 3100 7900 2959 7915 2879 7950 2686 7747 2448 7766 2403 7708 2229 7650 2058 7571 1920 7503 1800 7275 1765 L 6797 1735" viewBox="6080 1735 7920 3777" fill="#cc7326"></path><path id="cid_68" d="M 6799 1757 Q 6602 1746 6341 1975 6200 2100 6099 2232 6081 2255 6139 2651 L 6220 3131 Q 6246 3243 6194 3761 6520 3672 6545 3630 6544 3653 6816 3692 7174 3743 7546 3386 7686 3252 7788 3097 7881 2958 7896 2880 7930 2690 7732 2457 7751 2412 7693 2242 7637 2075 7559 1938 7491 1819 7269 1786 L 6799 1757" viewBox="6095 1756 7901 3761" fill="#eb8f52"></path><path id="cid_69" d="M 6800 1779 Q 6609 1768 6351 1992 6213 2114 6113 2245 6095 2268 6153 2657 L 6232 3127 Q 6257 3237 6207 3746 6405 3688 6491 3647 6536 3626 6547 3614 L 6584 3630 Q 6651 3655 6817 3678 7168 3728 7534 3377 7670 3247 7771 3094 7862 2960 7877 2881 7911 2695 7716 2466 7734 2421 7678 2255 7621 2089 7546 1957 7480 1841 7261 1808 L 6800 1779" viewBox="6109 1778 7882 3746" fill="#f0ab7d"></path><path id="cid_70" d="M 6802 1800 Q 6613 1790 6361 2010 6209 2143 6128 2258 6111 2279 6167 2662 L 6244 3123 Q 6269 3232 6219 3731 6403 3673 6486 3632 L 6542 3600 6585 3616 Q 6657 3641 6818 3664 7163 3713 7522 3369 7654 3242 7754 3091 7843 2956 7858 2882 7892 2699 7700 2474 7718 2432 7663 2268 7609 2105 7534 1975 7469 1861 7254 1828 L 6802 1800" viewBox="6124 1800 7863 3731" fill="#f5c7a8"></path><path id="cid_71" d="M 6803 1822 Q 6618 1812 6371 2028 6219 2161 6142 2271 6126 2292 6180 2668 L 6257 3120 Q 6281 3226 6232 3715 6408 3658 6486 3618 L 6542 3588 6589 3603 6820 3650 Q 7158 3699 7509 3361 7639 3236 7737 3089 7825 2959 7840 2883 7872 2704 7685 2483 7703 2440 7648 2280 7596 2124 7521 1994 7457 1881 7247 1850 L 6803 1822" viewBox="6138 1822 7845 3715" fill="#fae3d4"></path><path id="cid_72" d="M 6805 1844 Q 6624 1834 6382 2046 6246 2166 6157 2284 6141 2305 6195 2673 L 6269 3116 Q 6293 3220 6245 3700 6403 3647 6478 3607 L 6535 3576 6589 3591 6821 3636 Q 7153 3683 7498 3353 7629 3227 7722 3085 7808 2956 7821 2884 7853 2708 7669 2492 7687 2451 7634 2294 7582 2140 7509 2012 7447 1903 7240 1871 L 6805 1844" viewBox="6153 1844 7826 3700" fill="#ffffff"></path><path id="cid_73" d="M 6961 3076 Q 6645 2944 6469 3380 6397 3524 6357 3564 6317 3604 7749 2956 7193 3108 6961 3076" viewBox="6356 2956 7749 3566" fill="#cccccc"></path><path id="cid_74" d="M 6549 3348 Q 6381 3532 6317 3564 6309 3596 6437 3516 L 6645 3620 Q 6941 3812 7133 3492 7213 3268 7213 3228 7213 3203 7429 3136 L 7669 3068 Q 7704 3059 7762 3011 7830 2954 7825 2912 7245 3156 7045 3148 6717 3056 6549 3348" viewBox="6317 2912 7825 3692" fill="#000000"></path><path id="cid_75" d="M 6673 3575 Q 6766 3630 6877 3630 6978 3630 7052 3563 7126 3497 7126 3404 7126 3309 7052 3243 6979 3178 6877 3178 6772 3178 6673 3255 6572 3335 6572 3428 6572 3515 6673 3575" viewBox="6572 3178 7126 3630" fill="#99cc33"></path><path id="cid_76" d="M 6607 3337 Q 6708 3311 6805 3297 6977 3271 7083 3277 7010 3178 6877 3178 6790 3178 6711 3222 6629 3268 6607 3337" viewBox="6607 3178 7083 3337" fill="#669900"></path><path id="cid_77" d="M 6957 3272 Q 7029 3360 7045 3292 6957 3228 6957 3272" viewBox="6957 3254 7045 3322" fill="#ffffff"></path><path id="cid_78" d="M 6781 3427 Q 6807 3455 6845 3455 6882 3455 6908 3427 6936 3401 6936 3364 6936 3326 6908 3300 6882 3274 6845 3274 6807 3274 6781 3300 6755 3326 6755 3364 6755 3401 6781 3427" viewBox="6755 3274 6936 3455" fill="#000000"></path><path id="cid_79" d="M 4437 2548 Q 4285 2540 4253 2580 4229 2684 4205 2692 4149 2740 4189 2796 4149 2844 4157 2924 L 4309 3004 Q 4349 3292 4565 3396 4677 3451 4765 3188 4701 2764 4749 2676 4965 2476 4957 2404 4949 2044 4925 2028 4738 1903 4629 2020 4421 2380 4437 2508 L 4437 2548" viewBox="4156 1963 4957 3406" fill="#cc7326"></path><path id="cid_80" d="M 4450 2539 L 4450 2575 Q 4313 2568 4284 2604 4263 2698 4241 2705 4191 2748 4227 2798 4191 2842 4198 2914 L 4335 2986 Q 4371 3245 4565 3338 4666 3387 4745 3151 4687 2770 4731 2690 4925 2510 4918 2446 4911 2122 4889 2107 4718 1998 4623 2100 4435 2424 4450 2539" viewBox="4197 2051 4918 3346" fill="#ffffff"></path><path id="cid_81" d="M 4440 2555 Q 4292 2547 4261 2586 4237 2687 4214 2695 4159 2742 4198 2797 4159 2843 4167 2921 L 4315 2999 Q 4354 3280 4565 3382 4675 3435 4760 3179 4698 2765 4744 2680 4955 2485 4947 2414 4939 2063 4916 2048 4744 1915 4627 2040 4425 2391 4440 2516 L 4440 2555" viewBox="4166 1979 4947 3391" fill="#ec965d"></path><path id="cid_82" d="M 4443 2562 Q 4299 2554 4269 2592 4246 2691 4223 2698 4170 2744 4208 2797 4170 2843 4177 2919 L 4322 2995 Q 4360 3268 4565 3367 4672 3418 4755 3170 4694 2767 4740 2683 4945 2493 4937 2425 4930 2083 4907 2068 4867 2028 4801 2010 4698 1983 4626 2060 4428 2402 4443 2524 L 4443 2562" viewBox="4176 2003 4937 3376" fill="#f2b993"></path><path id="cid_83" d="M 4447 2531 L 4447 2568 Q 4306 2561 4276 2598 4254 2694 4232 2702 4180 2746 4217 2798 4180 2842 4188 2916 L 4328 2990 Q 4365 3257 4565 3353 4669 3403 4750 3160 4691 2768 4735 2687 4935 2502 4928 2435 4920 2102 4898 2087 4865 2051 4795 2032 4694 2005 4624 2080 4432 2413 4447 2531" viewBox="4187 2025 4928 3362" fill="#f9dcc9"></path><path id="cid_84" d="M 4450 2539 L 4450 2575 Q 4313 2568 4284 2604 4263 2698 4241 2705 4191 2748 4227 2798 4191 2842 4198 2914 L 4335 2986 Q 4371 3245 4565 3338 4666 3387 4745 3149 4687 2770 4731 2690 4925 2510 4918 2446 4911 2122 4889 2107 4863 2071 4790 2051 4692 2026 4623 2100 4435 2424 4450 2539" viewBox="4197 2045 4918 3346" fill="#ffffff"></path><path id="cid_85" d="M 4431 2968 L 4683 3024 Q 4253 2821 4233 2804 4415 2968 4431 2968" viewBox="4233 2804 4683 3024" fill="#cccccc"></path><path id="cid_86" d="M 4597 3356 Q 4709 3388 4709 3060 4709 2972 4341 2900 4417 2957 4466 3155 4510 3331 4597 3356" viewBox="4341 2900 4709 3359" fill="#000000"></path><path id="cid_87" d="M 4712 3173 Q 4725 3103 4709 3060 4689 3005 4509 2976 4492 3075 4525 3178 4561 3293 4625 3280 4695 3266 4712 3173" viewBox="4503 2976 4718 3281" fill="#99cc33"></path><path id="cid_88" d="M 7857 2912 Q 7805 2904 7693 3044 7723 3042 7772 3085 7823 3130 7845 3132 7873 3134 7909 3108 L 7961 3072 Q 7993 3060 8049 3176 8057 3228 7945 3324 7937 3416 7905 3384 7838 3371 7801 3540 7781 3632 7697 3640 7665 3788 7641 3728 7637 3616 7517 3732 7493 3772 7401 3728 7265 3688 7313 3648 7349 3604 7573 3648 7617 3616 7457 3536 7445 3500 7465 3412 7489 3348 7625 3236 7813 3212 7757 3180 7633 3076 7517 3228 7473 3352 7125 3652 7076 3687 7057 3652 7040 3619 7001 3652 6921 3720 6509 3540 6376 3526 6270 3668 L 6204 3755 Q 6175 3789 6153 3769 6261 3939 6229 3827 6223 3804 6237 3796 L 6281 3784 Q 6564 3699 6581 3644 6597 3592 6861 3680 L 6985 3748 Q 7081 3772 7213 3780 7261 3800 7329 3856 7621 4060 7869 3916 8269 3784 8149 3440 8089 3260 8153 3192 8157 3116 8301 3244 8353 3328 8369 3428 8529 3652 8461 3296 L 8409 3180 Q 8409 3156 8373 3088 8313 3020 8361 2880 8397 2604 8353 2640 8329 2604 8145 2804 8101 2872 7981 2904 7925 2940 7857 2912" viewBox="6153 2635 8481 3976" fill="#000000"></path><path id="cid_89" d="M 10829 476 L 10125 500 Q 9613 660 9557 1036 9509 1492 9917 1844 9925 1972 9965 2036 9933 2132 10309 1980 L 10853 1812 Q 10981 1764 11085 1588 L 11191 1419 Q 11272 1289 11319 1183 11467 852 11421 532 11445 308 11325 300 11157 268 11013 420 10877 484 10829 476" viewBox="9552 294 11432 2073" fill="#000000"></path><path id="cid_90" d="M 11163 398 Q 11022 513 10872 513 10582 557 10494 821 10415 1358 10573 1472 10670 1622 10811 1490 10933 1375 11082 1037 11247 666 11217 480 11259 302 11163 398" viewBox="10468 364 11230 1552" fill="#000000"></path><path id="cid_91" d="M 11157 408 Q 11018 520 10872 520 10586 563 10500 822 10422 1349 10578 1462 10673 1608 10811 1479 10931 1366 11078 1034 11239 672 11210 487 11252 312 11157 408" viewBox="10474 374 11223 1540" fill="#333333"></path><path id="cid_92" d="M 11151 417 Q 11015 527 10871 527 10591 569 10506 824 10430 1341 10583 1451 10676 1595 10812 1468 10930 1355 11073 1031 11231 675 11202 495 11244 323 11151 417" viewBox="10481 384 11215 1528" fill="#666666"></path><path id="cid_93" d="M 11145 426 Q 11012 534 10870 534 10596 576 10513 825 10438 1333 10587 1441 10679 1582 10812 1457 10927 1349 11068 1029 11224 679 11195 502 11236 334 11145 426" viewBox="10488 393 11208 1516" fill="#999999"></path><path id="cid_94" d="M 11139 435 Q 11008 541 10870 541 10600 582 10519 827 10445 1324 10592 1430 10682 1569 10813 1447 10927 1339 11063 1026 11216 682 11188 509 11229 345 11139 435" viewBox="10494 403 11201 1504" fill="#cccccc"></path><path id="cid_95" d="M 11133 444 Q 11005 548 10869 548 10605 588 10525 828 10453 1316 10597 1420 10685 1556 10813 1436 10923 1333 11059 1024 11208 687 11180 516 11221 356 11133 444" viewBox="10501 413 11193 1492" fill="#ffffff"></path><path id="cid_96" d="M 6905 4534 Q 6872 4493 6600 4232 6349 3993 6349 3980 6349 3940 6149 3740 6089 3680 6283 3588 6118 3654 5661 3636 5493 3620 5045 3780 4892 3821 4705 3953 4616 4002 4565 4060 L 4705 3953 Q 4981 3802 5629 3748 5909 3740 6021 3940 6141 4008 6167 4046 6193 4083 6109 4044 6005 3996 5717 3932 5309 3876 5037 4052 4741 4196 4661 4484 4917 3956 5525 4004 5697 3970 6039 4065 5831 4027 5485 4100 5117 4220 5037 4516 L 5093 4420 Q 5285 4140 5621 4140 5854 4080 6248 4154 5783 4080 5465 4388 5767 4109 6381 4180 6541 4196 6949 4580 L 6905 4534" viewBox="4565 3588 6949 4580" fill="#9a2700"></path><path id="cid_97" d="M 9717 8460 Q 9747 8420 9747 8220 9677 7860 9157 7540 9407 7730 9717 8460" viewBox="9157 7540 9747 8460" fill="#cccccc"></path><path id="cid_98" d="M 10737 8420 L 10727 8310 Q 10627 7780 9757 7030 10127 7510 10657 8610 10667 8550 10677 8370 L 10737 8420" viewBox="9757 7030 10737 8610" fill="#cccccc"></path><path id="cid_99" d="M 11787 7640 Q 10762 6664 10558 6455 11718 7723 11777 7870 11737 7690 11787 7640" viewBox="10558 6455 11787 7870" fill="#cccccc"></path><path id="cid_100" d="M 9077 8180 Q 9087 8120 8787 7920 8407 7470 8017 8510 8257 8000 8637 8060 8997 8050 9077 8180" viewBox="8017 7784 9077 8510" fill="#cccccc"></path><path id="cid_101" d="M 10833 5433 L 11195 5658 Q 11812 6035 11867 6150 11907 6100 11827 5960 10927 5390 10777 5360 10699 5344 10833 5433" viewBox="10748 5358 11880 6150" fill="#cccccc"></path><path id="cid_102" d="M 10241 1925 Q 10201 1950 10203 1974 10205 2001 10261 2012 10421 2044 10597 2244 L 10501 2212 Q 10213 2084 10589 2492 10658 2630 10821 2908 10413 2556 10837 3220 10837 3228 10709 3140 10581 3052 10717 3332 L 10629 3260 Q 10485 3164 10717 3716 10781 3780 10869 4028 10565 3812 10677 4156 10765 4212 10837 4516 10573 4276 10797 4756 10713 4678 10659 4694 10605 4710 10677 4788 10736 4852 10784 5114 L 10837 5428 Q 10861 5516 10821 5972 10389 5684 10909 6644 10997 6780 10885 6652 10434 6137 10645 6740 10477 6580 10525 6892 10381 6756 10397 6988 10125 6708 10141 6868 10157 7028 9869 7324 L 9797 7220 9445 7988 9357 7916 Q 9221 8052 8813 8092 9021 8180 9621 8060 9645 7940 9653 8188 L 9885 7860 Q 9981 7532 10221 7780 10234 7667 10301 7820 10380 8001 10405 7980 10502 7897 10589 7660 10645 7508 10709 7844 10709 8020 10773 7804 10837 7628 10861 7468 10829 7180 11125 7636 11189 7708 11213 7684 11223 7617 11162 7408 L 11012 6897 Q 11006 6864 11117 6980 11232 7100 11230 7023 11229 6963 11181 6868 10941 6389 11021 6244 11077 6142 11085 5807 11090 5583 11077 5412 11069 5308 11101 4988 10925 4644 11253 4748 10981 4156 11389 4596 L 11277 4308 Q 11157 4044 11381 4284 L 11277 4108 11365 4148 Q 11277 3972 11237 3964 11197 3956 10853 3484 10629 3044 11117 3540 L 10981 3212 Q 10684 2700 11053 3068 10957 2892 11077 2748 11221 2756 10933 2476 10817 2322 11186 2458 11096 2405 10877 2084 10565 1932 10437 1892 10339 1861 10241 1925" viewBox="8813 1882 11389 8188" fill="#000000"></path><path id="cid_103" d="M 10067 515 Q 9898 539 9841 520 L 9507 385 Q 9200 262 9129 248 8793 116 9033 156 9749 232 10113 496 9969 328 9601 188 9157 -64 8453 36 8097 100 7941 136 L 7877 116 Q 7809 65 7679 36 7423 -20 7077 68 6737 160 6565 256 6261 280 6189 344 5817 636 5777 652 L 5493 828 Q 5985 696 6033 648 6068 613 6255 583 L 6477 576 Q 6500 589 6579 596 L 6501 604 Q 8013 900 8029 940 8045 980 8125 956 7893 796 7813 804 7797 806 7815 799 L 7878 788 Q 8007 773 8162 788 8677 837 9189 1180 9285 1236 9357 1228 9421 1276 9365 1348 9189 1540 9413 1764 9781 1900 9669 1724 9885 1804 9933 1884 9981 1964 9957 1884 9829 1740 9709 1636 9605 1596 9549 1428 9445 1115 9511 1019 9455 1072 9469 1004 9480 949 9523 897 9561 851 9589 844 L 9798 678 Q 9982 534 10067 515" viewBox="5493 8 10113 1924" fill="#000000"></path><path id="cid_104" d="M 9309 624 Q 9349 624 9553 772 9673 720 9665 688 9701 636 9585 576 9577 540 9401 496 9337 516 9113 452 8989 328 8805 276 8661 204 8257 288 8249 300 8121 344 8049 360 8061 400 8396 300 8673 355 8744 369 8841 403 8915 430 8937 428 8986 423 9139 523 9297 624 9309 624" viewBox="8059 243 9674 772" fill="#cc7326"></path><path id="cid_105" d="M 8977 577 L 8969 583 8880 555 Q 8842 542 8816 559 L 8809 553 8756 561 8705 568 8608 521 8585 519 8440 449 8433 456 Q 8425 443 8401 450 L 8323 454 Q 8273 454 8250 466 8207 488 8121 494 8031 502 7993 520 L 8084 526 8176 532 8265 560 8362 562 8377 575 8385 569 8496 586 8584 618 8681 665 8825 696 Q 8853 723 8912 736 L 9009 759 9016 753 9081 767 Q 9123 771 9145 784 L 9248 780 9280 782 9312 776 9345 775 9352 761 9329 743 9041 601 9033 608 Q 9027 597 8977 577" viewBox="7993 448 9352 784" fill="#cc7326"></path><path id="cid_106" d="M 7880 328 Q 7873 318 7865 320 L 7872 305 Q 7842 273 7784 250 7760 241 7717 239 L 7649 231 7633 217 7529 204 Q 7467 200 7425 223 7418 227 7409 216 L 7361 240 7552 313 7610 351 7624 353 7771 445 Q 7792 459 7814 415 L 7825 392 Q 7823 400 7833 408 L 7841 369 Q 7843 347 7858 338 7865 333 7855 343 7851 355 7865 353 L 7880 344 7880 328" viewBox="7361 203 7880 448" fill="#cc7326"></path><path id="cid_107" d="M 7313 584 Q 7315 576 7305 568 7115 478 7041 458 L 6993 424 6968 424 Q 6954 426 6945 416 L 6937 423 6929 417 6921 423 6913 417 Q 6888 415 6880 423 6875 428 6865 416 L 6857 423 6849 417 6705 440 6735 459 6769 474 6785 487 6826 493 6862 507 Q 6906 549 6929 559 L 6937 553 7377 646 Q 7389 639 7384 632 7374 616 7328 585 L 7313 584" viewBox="6705 416 7385 646" fill="#cc7326"></path><path id="cid_108" d="M 6998 1467 L 6921 1416 6815 1371 6785 1361 Q 6773 1369 6778 1376 L 6865 1505 7009 1552 Q 7013 1543 7030 1543 7046 1545 7046 1536 7046 1497 6998 1467" viewBox="6777 1361 7046 1552" fill="#cc7326"></path><path id="cid_109" d="M 6117 500 L 6273 456 6436 432 6293 425 6117 500" viewBox="6117 425 6436 500" fill="#cc7326"></path><path id="cid_110" d="M 6724 890 L 6703 902 6653 920 Q 6601 936 6509 856 6397 764 6221 836 5609 1088 5569 1100 5497 1156 5449 1228 5333 1316 5273 1344 L 4993 1604 Q 4928 1703 4911 1715 5037 1640 5077 1600 5357 1400 5465 1384 5553 1324 5569 1296 5857 1112 5941 1112 6125 1216 6173 1076 6289 1040 6401 1064 6465 1012 6449 968 6481 932 6501 1008 6569 1080 6665 1040 6745 1036 6705 1084 6617 1160 6381 1164 6133 1176 5805 1328 5209 1536 5025 1744 4897 1920 4789 1944 4673 1960 4553 2108 4749 1992 4929 1992 5009 1944 4933 2016 4861 2168 4893 2276 4881 2380 4865 2412 4709 2668 4709 2716 L 4741 2972 4743 2966 Q 4759 2964 4797 2988 4907 3058 4937 3106 L 4930 3086 4901 2980 4857 2870 Q 4820 2780 4829 2752 L 4863 2798 Q 4854 2782 4865 2716 4881 2612 4909 2548 L 4985 2392 4995 2326 Q 5004 2281 5021 2312 L 5089 2364 Q 5033 2312 5077 2268 5057 2156 5093 2104 5233 1936 5265 1916 5297 1896 5269 1904 5389 1820 5273 1852 5193 1884 5133 1884 4981 1924 5061 1840 5121 1777 5240 1713 5361 1649 5417 1652 L 5433 1684 5657 1636 5637 1650 5713 1640 5848 1642 Q 5924 1646 5941 1624 5962 1597 5998 1586 6035 1575 6029 1596 L 6017 1664 Q 6117 1548 6105 1592 6102 1603 6009 1698 5917 1792 5901 1864 L 6181 1640 Q 6253 1684 6257 1652 6260 1628 6309 1566 6360 1505 6377 1508 L 6417 1490 Q 6439 1478 6437 1508 6433 1560 6585 1668 6649 1632 6677 1660 6705 1688 6789 1264 L 7289 1052 8161 984 7821 848 6601 620 Q 6305 656 6217 680 L 5946 782 Q 5740 867 5697 896 5429 1004 5089 1404 5241 1336 5285 1280 5557 1028 5553 1080 5797 908 5785 952 6273 728 6233 792 6665 700 6645 740 7021 828 6965 832 6849 856 6977 928 6909 1016 6801 936 6735 887 6724 890" viewBox="4553 620 8161 3106" fill="#000000"></path><path id="cid_111" d="M 6965 4600 Q 6665 4264 6497 4212 6229 4076 5737 4232" viewBox="5717 4129 6985 4620" fill="none" stroke="#4c0000" stroke-width="40" stroke-linecap="round" stroke-linejoin="round"></path><path id="cid_112" d="M 6433 4184 Q 5929 4024 5621 4108 5253 4148 5085 4424" viewBox="5065 4059 6453 4444" fill="none" stroke="#4c0000" stroke-width="40" stroke-linecap="round" stroke-linejoin="round"></path><path id="cid_113" d="M 6361 4160 Q 6021 4016 5725 3972 5393 3920 5061 4064 4817 4184 4709 4388" viewBox="4689 3938 6381 4408" fill="none" stroke="#4c0000" stroke-width="40" stroke-linecap="round" stroke-linejoin="round"></path><path id="cid_114" d="M 6381 4168 Q 6073 3948 6053 3920 5913 3700 5653 3692 5225 3708 4881 3868" viewBox="4861 3672 6401 4188" fill="none" stroke="#4c0000" stroke-width="40" stroke-linecap="round" stroke-linejoin="round"></path><path id="cid_115" d="M 10117 2740 Q 9725 2748 9941 2532 10061 2540 10029 2492 9925 2468 9733 2340 9653 2268 9725 2284 10061 2308 9485 2084 9645 2084 9285 1876 9245 1844 9181 1692 9061 1588 8965 1452 8957 1364 8861 1268 8629 996 8517 1004 8221 932 8117 948 L 7061 1036 Q 6533 1292 6689 1712 6817 1880 7001 1804 7093 1680 7325 1724 7733 1788 7681 1716 7652 1660 7476 1572 L 7305 1488 Q 7301 1476 7125 1408 7065 1384 6977 1200 6913 1132 7229 1248 7205 1268 7353 1348 7701 1328 7913 1544 8129 1876 8133 1712 8189 1524 7953 1100 7961 1060 8125 1192 8153 1152 8169 1268 8173 1316 8249 1476 8305 1736 8377 1588 L 8469 1776 Q 8497 1828 8377 1980 L 8367 2046 Q 8353 2081 8277 2184 8165 2336 8233 2424 8205 2556 8381 2548 8433 2592 8501 2592 8537 2632 8585 2620 8617 2544 8741 2584 8769 2536 8933 2528 8966 2443 9029 2432 9097 2420 8605 1560 8733 1544 8569 1296 8543 1217 8650 1330 L 8797 1484 Q 8830 1505 8841 1530 8854 1555 8829 1552 8806 1549 8786 1571 8768 1593 8789 1596 8819 1600 8952 1775 9100 1969 9145 2104 9189 2236 9280 2337 L 9457 2508 Q 9581 2628 9565 3112 9557 3288 9677 3500 9717 3576 9633 3940 9593 3984 9621 4000 9641 4024 9777 4288 9741 4284 9813 4356 9917 4476 9789 4416 9669 4384 9809 4580 9833 4616 9653 4524 9469 4512 9701 4656 9873 4800 9645 4712 9553 4676 9617 4812 L 10025 4984 Q 10033 5060 9973 5160 9981 5240 9937 5308 9913 5472 9901 5488 9817 5492 9669 5768 9633 5820 9429 6060 9389 6200 9029 6056 8897 6124 8937 6056 8929 6012 9025 5892 9165 5840 9113 5624 9159 5608 9071 5568 8972 5524 8973 5516 8977 5492 9093 5464 9253 5424 9165 5376 9153 5296 9213 5184 9445 5168 9213 4844 8997 4692 8977 4576 9133 4474 9116 4299 L 9069 4092 9097 3588 Q 9057 3464 8997 3192 9041 3088 9189 2836 L 9320 2707 Q 9403 2631 9377 2596 9333 2536 9177 2572 9021 2544 9033 2648 9001 2668 8985 2768 8971 2927 8793 3052 8569 3176 8753 3256 8873 3388 8677 3392 8457 3356 8621 3560 8837 3816 8777 3872 8578 3891 8813 4067 8810 4039 8825 4076 L 8813 4067 8813 4072 8893 4232 Q 8909 4272 8829 4276 8841 4468 8533 4384 L 8501 4388 8346 4378 Q 8205 4361 8129 4332 8013 4288 7877 4288 7797 4324 7645 4320 7493 4316 7333 4372 7245 4364 7421 4280 7537 4172 7377 4184 6941 4217 6725 4012 6685 3984 6633 3928 6433 3888 6661 4176 6685 4204 6657 4224 6641 4192 6485 4084 6431 4065 6364 3998 L 6925 4596 Q 7629 5328 7069 4644 6917 4548 6733 4172 6709 4116 7013 4316 7093 4332 7365 4716 7229 4668 7325 4812 L 7789 5164 Q 7861 5244 7941 5276 8221 5172 8093 5436 8141 5572 8253 5340 8477 5004 8149 5052 7549 5108 7413 4788 7365 4740 7541 4788 7709 4828 7397 4540 7445 4540 7629 4676 7837 4860 7877 4820 8237 4644 8445 4796 8463 4811 8428 4905 8388 5013 8405 5068 8437 5172 8533 5420 8485 5452 8493 5668 8829 6132 8637 6092 8325 6084 8621 6236 8685 6276 8861 6420 8805 6396 8773 6500 8869 6580 8813 6676 8693 6700 8669 6780 8805 6940 8605 6948 8677 7036 8581 7276 8485 7276 8357 7388 8405 7484 8197 7596 8029 7628 8085 7764 7925 7884 7877 8204 L 7852 8413 Q 7851 8462 7917 8436 8021 8396 8005 8148 7909 7836 8765 7516 8845 7484 8861 7380 8901 7388 9077 7540 9229 7764 9237 7580 9261 7508 9229 7388 9349 6956 9069 6828 8869 6156 9149 6324 9205 6436 9421 6540 L 9493 6492 Q 9461 6396 9629 6276 9685 6404 9805 6244 9877 5756 10125 6044 10205 6068 10229 5932 10301 5724 10229 5452 10301 5444 10493 5564 10522 5526 10460 5339 10408 5182 10445 5204 10525 5252 10613 5284 10629 5244 10429 4996 10341 4940 10237 4532 10381 4604 10181 4300 10181 4236 10301 4012 10285 3876 10301 3884 10368 3913 10413 3905 10470 3896 10381 3812 10245 3684 10397 3588 10485 3532 10213 3540 10109 3452 10117 3372 10216 3397 10107 3254 L 9941 3052 Q 9893 2980 10085 2876 10349 2804 10117 2740" viewBox="6364 945 10614 8445" fill="#000000"></path><path id="cid_116" d="M 5884 3760 Q 5991 3816 6065 3932 L 6333 4132 Q 6385 4168 6493 4208 6213 3980 6161 3924 6110 3869 5884 3760" viewBox="5884 3760 6493 4208" fill="#4c0000"></path><path id="cid_117" d="M 4709 3064 Q 4689 3009 4509 2980 L 4505 3072 Q 4603 3182 4717 3132 4731 3126 4709 3064" viewBox="4505 2980 4722 3148" fill="#99cc33"></path><path id="cid_118" d="M 4712 3100 L 4713 3064 Q 4693 3009 4509 2978 L 4505 3070 Q 4591 3172 4717 3128 L 4712 3100" viewBox="4505 2978 4717 3141" fill="#669900"></path><path id="cid_119" d="M 4606 3080 Q 4606 3131 4629 3131 4652 3131 4652 3080 4652 3029 4629 3029 4606 3029 4606 3080" viewBox="4606 3029 4652 3131" fill="#000000"></path><path id="cid_120" d="M 5121 4842 Q 5185 4810 5129 4810 5073 4810 4981 5020 4813 5220 4677 5188 L 4429 5100 Q 4381 5148 4101 5172 3605 5292 3717 5092 3500 5371 3819 5662 4025 5920 4221 5988 4424 6058 4421 5980 L 4557 5748 Q 4717 5620 4501 5628 4453 5580 4277 5628 4250 5511 4573 5492 4893 5476 4997 5076 4989 5044 5121 4842" viewBox="3629 4810 5155 6021" fill="#000000"></path><path id="cid_121" d="M 3757 5521 Q 3842 5650 3917 5732 3982 5803 4082 5880 4180 5956 4205 5956 L 4270 5986 Q 4318 6013 4341 6004 4436 5966 4445 5892 4453 5828 4397 5780 4301 5732 4221 5588 4213 5492 4477 5460 4709 5492 4853 5220 L 4692 5211 4525 5172 Q 4477 5156 4389 5156 3679 5357 3691 5185 L 3669 5340 Q 3663 5379 3757 5521" viewBox="3669 5156 4853 6006" fill="#e69999"></path><path id="cid_122" d="M 3861 5461 Q 3838 5440 3861 5492 3923 5631 3973 5644 3989 5648 3991 5662 L 3949 5668 Q 3878 5656 3815 5605 3868 5678 3917 5732 3982 5803 4082 5880 4180 5956 4205 5956 L 4270 5986 Q 4318 6013 4341 6004 4436 5966 4445 5892 4453 5828 4397 5780 4324 5743 4249 5633 4253 5684 4149 5668 3963 5639 3909 5532 L 3861 5461 M 3815 5605 L 3757 5521 3757 5548 3815 5605" viewBox="3757 5455 4446 6006" fill="#b36666"></path><path id="cid_123" d="M 4786 3156 L 4767 3186 Q 4746 3230 4742 3259 4686 3352 4581 3464 4481 3636 4377 3696 4034 3894 4009 3972 3958 4135 3881 4196 3790 4269 3777 4380 3753 4460 3725 4484 3693 4511 3693 4612 L 3673 4681 Q 3655 4731 3657 4756 3673 5136 3665 5176 L 3705 5100 Q 3741 4828 3765 4748 3749 4612 3797 4528 L 4009 4073 Q 4041 4011 4089 3992 4132 3975 4226 3875 4320 3777 4345 3768 4401 3748 4397 3764 4517 3503 4742 3535 4515 3472 4797 3304 4731 3319 4742 3259 L 4772 3201 4786 3156" viewBox="3657 3156 4797 5176" fill="#9a2700"></path><path id="cid_124" d="M 3405 5284 Q 3551 5944 3551 5972 3573 5930 3547 5786 3521 5642 3503 5388 L 3533 5192 Q 3493 5164 3405 5284" viewBox="3405 5187 3561 5972" fill="#ffffff"></path><path id="cid_125" d="M 3568 4455 Q 3546 4565 3557 4580 3581 4612 3605 5124 L 3621 4628 Q 3613 4044 3965 3980 4055 3924 3941 3970 3633 4074 3597 4362 3543 4408 3371 4642 3333 4698 3329 4742 3307 4870 3399 5122 3459 5214 3429 5148 3269 4724 3549 4444 L 3573 4409 3568 4455" viewBox="3325 3949 4005 5176" fill="#9a2700"></path><path id="cid_126" d="M 6714 2191 L 6712 2173 Q 6712 2163 6705 2162 6656 2157 6653 2169 6642 2218 6681 2320 6668 2331 6675 2368 6685 2417 6650 2576 L 6656 2584 Q 6618 2665 6566 2734 L 6524 2793 Q 6508 2826 6513 2848 6461 2890 6347 3057 6328 3086 6355 3101 6377 3112 6399 3071 L 6424 3031 6426 3017 6561 2864 Q 6594 2858 6666 2817 L 6688 2815 Q 6721 2793 6725 2712 6728 2669 6753 2656 L 6765 2639 6778 2626 Q 6788 2623 6814 2582 L 6847 2495 Q 6857 2471 6847 2449 L 6766 2265 6714 2191" viewBox="6339 2161 6852 3103" fill="#000000"></path><path id="cid_127" d="M 6513 2208 L 6520 2216 6507 2232 6497 2276 Q 6492 2302 6500 2319 L 6545 2424 Q 6535 2441 6528 2489 6524 2533 6506 2553 L 6506 2568 6530 2591 6545 2591 6576 2567 6578 2552 6592 2536 6594 2521 Q 6660 2452 6625 2352 6657 2333 6638 2297 L 6598 2194 Q 6560 2134 6523 2170 6505 2186 6513 2208" viewBox="6495 2157 6645 2591" fill="#000000"></path><path id="cid_128" d="M 7826 1824 L 7792 1794 Q 7752 1772 7755 1832 7764 1841 7761 1848 L 7754 1856 7761 1864 7708 1913 Q 7695 1960 7721 2017 L 7774 2114 Q 7787 2137 7756 2186 7743 2206 7755 2239 7766 2275 7832 2360 7891 2435 7825 2480 7831 2521 7872 2516 L 7945 2496 Q 7943 2488 7953 2481 L 7980 2470 8009 2464 8063 2391 Q 8119 2273 8034 2167 L 8032 2144 Q 8020 2110 7937 2080 L 7865 1848 Q 7847 1845 7826 1824" viewBox="7704 1788 8085 2517" fill="#000000"></path><path id="cid_129" d="M 6770 1978 Q 6748 1990 6700 2050 L 6684 2095 Q 6686 2125 6707 2132 6724 2138 6756 2116 6789 2093 6809 2097 6819 2104 6817 2112 L 6833 2104 6892 2149 6967 2178 Q 6979 2190 6992 2234 7003 2274 7025 2288 L 6994 2368 Q 6984 2417 7033 2415 7056 2413 7073 2376 L 7087 2392 7048 2528 7033 2536 Q 7027 2587 6977 2640 L 6892 2730 Q 6873 2754 6892 2773 6905 2786 6993 2760 7000 2716 7041 2718 L 7057 2705 7080 2703 7178 2633 7193 2631 7209 2617 Q 7216 2613 7225 2624 L 7200 2654 7160 2679 7139 2681 7035 2790 Q 7012 2831 7050 2855 L 7064 2855 Q 7121 2812 7194 2794 7201 2803 7209 2800 L 7260 2784 Q 7291 2775 7305 2760 7393 2765 7519 2716 L 7592 2686 Q 7631 2669 7666 2633 L 7681 2632 7689 2613 7704 2600 7706 2585 Q 7777 2532 7744 2465 L 7722 2431 7689 2422 7657 2424 7645 2433 7632 2437 7570 2443 7490 2468 Q 7468 2467 7465 2480 L 7457 2473 Q 7393 2487 7368 2519 L 7354 2521 7305 2575 7290 2577 7256 2607 7243 2600 Q 7253 2502 7249 2488 L 7377 2344 7389 2216 7380 2191 7381 2163 Q 7385 2146 7375 2138 7336 2104 7305 2160 L 7195 2157 7148 2102 Q 7134 2084 7136 2016 L 7130 2008 7137 2000 7119 1976 7097 1960 Q 7106 1925 7072 1914 7049 1906 7015 1921 L 6961 1940 6945 1929 6928 1913 6898 1914 6858 1930 6770 1978" viewBox="6684 1911 7754 2855" fill="#000000"></path><path id="cid_130" d="M 5987 1758 L 5981 1740 Q 5796 1683 5573 2196 5525 2300 5477 2340 L 5318 2421 Q 5189 2485 5165 2532 L 4957 2852 Q 5253 2532 5317 2484 5477 2316 5413 2452 5133 2668 5157 2852 L 5029 3180 Q 5349 2540 5397 2516 5474 2478 5445 2564 L 5413 2796 5397 2902 Q 5515 2588 5501 2532 5565 2460 5613 2564 L 5589 2884 5677 3124 Q 5629 2900 5661 2588 5621 2380 5701 2492 5723 2523 5867 2662 5933 2725 5958 2771 5856 2461 5685 2372 L 5605 2492 5581 2452 Q 5509 2436 5597 2300 5685 2164 5677 2148 5805 2292 5837 2292 6101 2140 6125 2628 6261 2340 6077 2204 5781 2164 5805 2060 L 5949 1812 5987 1758 M 5397 2902 L 5357 3004 Q 5379 2988 5397 2902 M 5987 1758 L 5989 1764 Q 6010 1728 5987 1758" viewBox="4957 1734 6183 3180" fill="#000000"></path><path id="cid_131" d="M 5117 2364 Q 5461 2164 5541 2140 5621 2116 5581 2068 5325 2068 5261 2172 L 5117 2364" viewBox="5117 2068 5594 2364" fill="#000000"></path><path id="cid_132" d="M 4733 2276 Q 4730 2298 4704 2336 4684 2365 4693 2396 4707 2444 4727 2459 4749 2475 4749 2420 4749 2348 4797 2276 L 4819 2215 Q 4823 2175 4781 2196 4741 2220 4733 2276" viewBox="4690 2189 4819 2463" fill="#000000"></path><path id="cid_133" d="M 4309 3255 Q 4264 3295 4221 3292 4104 3283 4125 2964 L 4045 3116 Q 4021 3404 4181 3356 L 4258 3353 Q 4281 3366 4253 3380 4241 3386 4290 3402 4340 3418 4309 3436 4295 3444 4320 3441 L 4398 3438 Q 4522 3446 4493 3572 L 4605 3420 Q 4437 3340 4373 3268 4338 3229 4309 3255" viewBox="4042 2964 4605 3572" fill="#000000"></path><path id="cid_134" d="M 3921 3712 Q 3965 3772 3989 3780 4097 3804 4085 3820 L 4025 3904 4353 3708 Q 4045 3796 3973 3604 3877 3652 3921 3712" viewBox="3907 3604 4353 3904" fill="#000000"></path><path id="cid_135" d="M 8855 4941 L 8822 4943 Q 8801 4941 8796 4953 L 8785 4984 8761 4992 Q 8740 4974 8715 4977 8691 4982 8682 5008 8674 5029 8689 5031 L 8697 5024 8682 5040 Q 8678 5047 8688 5056 8705 5122 8649 5144 8645 5169 8670 5225 L 8681 5280 8713 5304 Q 8737 5278 8776 5301 L 8841 5344 Q 8911 5320 8921 5272 9023 5248 9004 5183 L 9025 5175 Q 9036 5167 9032 5160 L 9002 5126 Q 8986 5108 8994 5088 L 9013 5073 9029 5064 Q 9031 5028 9014 5002 8984 4958 8919 4923 8897 4910 8855 4941" viewBox="8648 4919 9033 5344" fill="#ffffff"></path><path id="cid_136" d="M 8721 5560 Q 8707 5580 8716 5611 L 8729 5664 8726 5718 8705 5808 8777 5832 8798 5771 Q 8810 5737 8833 5720 8822 5712 8828 5698 L 8837 5680 Q 8838 5647 8798 5614 L 8737 5560 8729 5567 8721 5560" viewBox="8705 5560 8837 5832" fill="#ffffff"></path><path id="cid_137" d="M 6837 4820 Q 6752 4770 6614 4791 L 6445 4828 Q 6394 4834 6005 4964 5933 4988 5725 5076 5525 5188 5349 5380 5068 5687 5405 5484 5429 5444 5589 5316 5698 5229 5746 5227 5787 5225 5765 5276 L 5728 5331 Q 5715 5347 5733 5356 5751 5365 5873 5249 L 6037 5100 Q 6101 5060 6397 4972 6459 4939 6583 4914 6699 4891 6733 4868 6805 4820 7133 4988 L 6837 4820" viewBox="5221 4785 7133 5565" fill="#cccccc"></path><path id="cid_138" d="M 7048 4924 Q 6843 4842 6834 4862 L 6630 4858 Q 6383 4862 6159 4968 L 5970 5014 Q 5915 5054 5751 5137 5581 5104 5553 5365 5755 5171 5806 5173 5835 5174 5946 5113 L 6095 5030 Q 6248 4951 6522 4918 6773 4887 6911 4914 7033 4938 7185 5006 L 7309 5064 Q 7259 5007 7048 4924" viewBox="5553 4858 7309 5365" fill="#000000"></path><path id="cid_139" d="M 6941 5260 Q 6936 5291 6627 5375 L 6277 5460 Q 6221 5468 5949 5652 5869 5756 5509 5796 5173 5828 5477 5876 5693 5876 5789 5852 5829 5842 6005 5752 6175 5665 6245 5652 6320 5638 6676 5465 L 7053 5284 Q 7150 5256 7093 5228 7064 5213 7008 5220 6946 5227 6941 5260" viewBox="5333 5218 7114 5876" fill="#cccccc"></path><path id="cid_140" d="M 6919 5233 Q 6569 5345 6565 5373 6562 5388 6418 5431 L 6253 5475 Q 6224 5479 6085 5573 6044 5627 5868 5695 5696 5711 5867 5728 5954 5688 6003 5676 L 6237 5573 6635 5415 7006 5257 Q 7108 5210 7266 5191 7365 5179 7339 5160 7280 5118 6919 5233" viewBox="5782 5149 7344 5728" fill="#000000"></path><path id="cid_141" d="M 5789 5796 Q 5813 5764 5709 5772 L 5717 5812 Q 5765 5828 5789 5796" viewBox="5709 5770 5794 5817" fill="#000000"></path><path id="cid_142" d="M 5565 5804 L 5573 5844 Q 5621 5860 5645 5828 5669 5796 5565 5804" viewBox="5565 5802 5650 5849" fill="#000000"></path><path id="cid_143" d="M 5437 5860 Q 5461 5828 5357 5836 L 5365 5876 Q 5413 5892 5437 5860" viewBox="5357 5834 5442 5881" fill="#000000"></path><path id="cid_144" d="M 5285 5876 Q 5309 5844 5205 5852 L 5213 5892 Q 5261 5908 5285 5876" viewBox="5205 5850 5290 5897" fill="#000000"></path><path id="cid_145" d="M 6037 5092 Q 6061 5060 5973 5060 L 5949 5116 Q 6013 5124 6037 5092" viewBox="5949 5060 6042 5118" fill="#000000"></path><path id="cid_146" d="M 5853 5196 Q 5903 5129 5773 5172 L 5781 5212 Q 5829 5228 5853 5196" viewBox="5773 5155 5867 5217" fill="#000000"></path><path id="cid_147" d="M 5549 5268 L 5557 5308 Q 5605 5324 5629 5292 5653 5260 5549 5268" viewBox="5549 5266 5634 5313" fill="#000000"></path><path id="cid_148" d="M 5477 5412 Q 5501 5380 5397 5388 L 5405 5428 Q 5453 5444 5477 5412" viewBox="5397 5386 5482 5433" fill="#000000"></path><path id="cid_149" d="M 5341 5508 Q 5365 5476 5261 5484 L 5269 5524 Q 5317 5540 5341 5508" viewBox="5261 5482 5346 5529" fill="#000000"></path><path id="cid_150" d="M 6149 5644 Q 6181 5601 6043 5612 L 6053 5665 Q 6117 5687 6149 5644" viewBox="6043 5610 6155 5672" fill="#000000"></path><path id="cid_151" d="M 6357 5548 Q 6389 5505 6251 5516 L 6261 5569 Q 6325 5591 6357 5548" viewBox="6251 5514 6363 5576" fill="#000000"></path><path id="cid_152" d="M 6467 5428 L 6477 5481 Q 6541 5502 6573 5460 6605 5417 6467 5428" viewBox="6467 5426 6579 5488" fill="#000000"></path><path id="cid_153" d="M 6781 5364 Q 6813 5321 6675 5332 L 6685 5385 Q 6749 5407 6781 5364" viewBox="6675 5330 6787 5392" fill="#000000"></path><path id="cid_154" d="M 6229 5004 Q 6261 4961 6123 4972 L 6117 5041 Q 6197 5047 6229 5004" viewBox="6117 4970 6235 5042" fill="#000000"></path><path id="cid_155" d="M 6429 4940 Q 6461 4897 6323 4908 L 6309 4977 Q 6397 4982 6429 4940" viewBox="6309 4906 6435 4978" fill="#000000"></path><path id="cid_156" d="M 5949 5732 Q 5973 5700 5869 5708 L 5877 5748 Q 5925 5764 5949 5732" viewBox="5869 5706 5954 5753" fill="#000000"></path><path id="cid_157" d="M 4405 3724 Q 4373 3708 4349 3748 4325 3788 4309 3964 4317 3900 4405 3724" viewBox="4309 3719 4405 3964" fill="#9a2700"></path><path id="cid_158" d="M 3965 4092 Q 3957 4116 3981 4343 3976 4279 4037 4004 3973 4068 3965 4092" viewBox="3963 4004 4037 4343" fill="#9a2700"></path><path id="cid_159" d="M 4449 2576 L 4405 2580 Q 4689 2832 4701 2984 4717 2820 4453 2512 L 4449 2576" viewBox="4405 2512 4702 2984" fill="#cccccc"></path><path id="cid_160" d="M 4716 2184 Q 4717 2174 4678 2168 4666 2166 4664 2188 L 4633 2209 4608 2234 4589 2259 Q 4571 2275 4569 2318 4567 2365 4554 2381 L 4535 2433 4542 2483 Q 4544 2490 4526 2497 4512 2504 4520 2509 L 4533 2537 Q 4549 2553 4542 2587 4537 2607 4580 2658 4584 2662 4565 2680 4608 2727 4635 2739 4648 2763 4648 2785 L 4665 2831 4686 2926 Q 4692 2949 4742 2967 L 4713 2919 Q 4705 2894 4700 2822 4698 2771 4675 2738 4683 2724 4679 2693 L 4623 2503 4629 2498 Q 4638 2367 4656 2332 4668 2305 4662 2294 4714 2225 4716 2184" viewBox="4517 2168 4742 2967" fill="#000000"></path><path id="cid_161" d="M 4431 2540 Q 4335 2538 4313 2554 4333 2636 4333 2692 4333 2730 4413 2781 4486 2828 4517 2828 4535 2828 4429 2740 4381 2700 4437 2692 4413 2708 4477 2732 L 4539 2757 4517 2740 Q 4469 2708 4461 2572 4459 2554 4431 2540" viewBox="4313 2540 4541 2828" fill="#000000"></path><g id="cid_162" viewBox="3904 2918 4561 2970"><path d="M 4445 2944 Q 4292 2894 3977 2944 L 4461 2960 Q 4667 2985 4445 2944" fill="#ffffff"></path><path d="M 4445 2944 Q 4292 2894 3977 2944 L 4461 2960 Q 4667 2985 4445 2944 M 3977 2944 L 3905 2956" fill="none" stroke="#000000" stroke-width="2" stroke-linecap="round" stroke-linejoin="round"></path></g><g id="cid_163" viewBox="3947 2895 4601 2979"><path d="M 4018 2902 Q 4196 2896 4502 2960 4705 3003 4487 2943 4338 2879 4018 2902" fill="#ffffff"></path><path d="M 4018 2902 L 3948 2908 M 4018 2902 Q 4196 2896 4502 2960 4705 3003 4487 2943 4338 2879 4018 2902" fill="none" stroke="#000000" stroke-width="2" stroke-linecap="round" stroke-linejoin="round"></path></g><g id="cid_164" viewBox="3987 2868 4633 2989"><path d="M 4056 2870 Q 4234 2876 4536 2963 4735 3021 4523 2944 4378 2870 4056 2870" fill="#ffffff"></path><path d="M 4056 2870 Q 4234 2876 4536 2963 4735 3021 4523 2944 4378 2870 4056 2870 L 3988 2870" fill="none" stroke="#000000" stroke-width="2" stroke-linecap="round" stroke-linejoin="round"></path></g><g id="cid_165" viewBox="4073 2840 4644 2997"><path d="M 4141 2846 Q 4299 2866 4559 2966 4733 3033 4548 2949 4426 2872 4141 2846" fill="#ffffff"></path><path d="M 4141 2846 Q 4299 2866 4559 2966 4733 3033 4548 2949 4426 2872 4141 2846 L 4074 2841" fill="none" stroke="#000000" stroke-width="2" stroke-linecap="round" stroke-linejoin="round"></path></g><g id="cid_166" viewBox="6837 2865 7481 3165"><path d="M 6839 3148 Q 6835 3172 6854 3159 6875 3131 7480 2866 7432 2862 7134 2996 6842 3127 6839 3148" fill="#ffffff"></path><path d="M 6839 3148 Q 6842 3127 7134 2996 7432 2862 7480 2866 6875 3131 6854 3159 6835 3172 6839 3148" fill="none" stroke="#000000" stroke-width="2" stroke-linecap="round" stroke-linejoin="round"></path></g><g id="cid_167" viewBox="6770 2830 7388 3178"><path d="M 6771 3162 Q 6768 3186 6786 3172 6805 3142 7387 2831 7338 2831 7052 2987 6773 3142 6771 3162" fill="#ffffff"></path><path d="M 6771 3162 Q 6773 3142 7052 2987 7338 2831 7387 2831 6805 3142 6786 3172 6768 3186 6771 3162" fill="none" stroke="#000000" stroke-width="2" stroke-linecap="round" stroke-linejoin="round"></path></g><g id="cid_168" viewBox="6703 2819 7299 3207"><path d="M 6704 3191 Q 6704 3215 6720 3200 6937 2982 7298 2820 7170 2844 6927 3010 6704 3163 6704 3191" fill="#ffffff"></path><path d="M 6704 3191 Q 6704 3163 6927 3010 7170 2844 7298 2820 6937 2982 6720 3200 6704 3215 6704 3191" fill="none" stroke="#000000" stroke-width="2" stroke-linecap="round" stroke-linejoin="round"></path></g><g id="cid_169" viewBox="6648 2894 7184 3243"><path d="M 6649 3229 Q 6648 3251 6663 3237 6858 3041 7183 2895 7066 2917 6849 3066 6649 3205 6649 3229" fill="#ffffff"></path><path d="M 6649 3229 Q 6649 3205 6849 3066 7066 2917 7183 2895 6858 3041 6663 3237 6648 3251 6649 3229" fill="none" stroke="#000000" stroke-width="2" stroke-linecap="round" stroke-linejoin="round"></path></g><path id="cid_170" d="M 7043 5731 L 6829 5780 Q 6773 5788 6501 5972 6421 6076 6061 6116 5725 6148 6029 6196 6245 6196 6341 6172 6381 6162 6557 6072 6727 5985 6797 5972 6874 5958 7104 5877 L 7357 5788 Q 7396 5777 7402 5680 7408 5585 7381 5572 7355 5559 7292 5588 7227 5618 7221 5652 7216 5683 7043 5731" viewBox="5885 5568 7403 6196" fill="#cccccc"></path><path id="cid_171" d="M 7029 5815 Q 7236 5744 7257 5724 7496 5507 7489 5448 7429 5480 7405 5532 7277 5744 6993 5808 6533 5988 6377 6028 6109 6128 5961 6112 5821 6116 5945 6148 6349 6108 6417 6072 6729 5968 6789 5916 6820 5890 7029 5815" viewBox="5887 5448 7489 6148" fill="#000000"></path><path id="cid_172" d="M 6396 6105 Q 6419 6074 6315 6078 L 6324 6118 Q 6373 6136 6396 6105" viewBox="6315 6078 6400 6125" fill="#000000"></path><path id="cid_173" d="M 6252 6132 Q 6275 6101 6171 6105 L 6180 6145 Q 6229 6163 6252 6132" viewBox="6171 6105 6256 6152" fill="#000000"></path><path id="cid_174" d="M 6044 6157 Q 6067 6126 5962 6130 L 5972 6170 Q 6020 6188 6044 6157" viewBox="5962 6130 6048 6177" fill="#000000"></path><path id="cid_175" d="M 5891 6168 Q 5914 6137 5809 6141 L 5819 6181 Q 5868 6199 5891 6168" viewBox="5809 6141 5895 6188" fill="#000000"></path><path id="cid_176" d="M 6658 5983 Q 6723 6007 6754 5965 6785 5924 6645 5930 L 6658 5983" viewBox="6645 5929 6760 5992" fill="#000000"></path><path id="cid_177" d="M 6960 5877 Q 6971 5776 6852 5842 L 6864 5895 Q 6955 5928 6960 5877" viewBox="6852 5816 6961 5908" fill="#000000"></path><path id="cid_178" d="M 7143 5821 Q 7177 5711 7034 5785 L 7047 5839 Q 7127 5870 7143 5821" viewBox="7034 5755 7150 5851" fill="#000000"></path><path id="cid_179" d="M 7225 5689 L 7237 5742 Q 7341 5775 7333 5724 7312 5591 7225 5689" viewBox="7225 5647 7334 5755" fill="#000000"></path><path id="cid_180" d="M 6483 6060 Q 6532 6077 6555 6046 6578 6015 6474 6020 L 6483 6060" viewBox="6474 6019 6559 6066" fill="#000000"></path><g id="cid_181" viewBox="7170 3269 7699 3598"><path d="M 7171 3584 Q 7171 3605 7186 3592 7376 3404 7698 3270 7583 3287 7367 3428 7171 3559 7171 3584" fill="#ffffff"></path><path d="M 7171 3584 Q 7171 3559 7367 3428 7583 3287 7698 3270 7376 3404 7186 3592 7171 3605 7171 3584" fill="none" stroke="#000000" stroke-width="2" stroke-linecap="round" stroke-linejoin="round"></path></g><path id="cid_182" d="M 7245 4868 Q 6877 4620 7221 4908 7447 5097 7601 5300 7726 5464 7717 5500 7709 5532 7645 5492 7517 5486 7685 5684 7909 5364 7845 5868 7909 6284 7973 6132 8053 5612 7869 5388 7685 5316 7245 4868" viewBox="7055 4753 7997 6173" fill="#000000"></path><g id="cid_183" viewBox="6076 5618 8662 6245"><path d="M 8661 6244 Q 8268 5945 7161 5760 6842 5706 6433 5659 L 6109 5624 Q 6073 5608 6077 5644 7757 5780 8661 6244" fill="#ffffff"></path><path d="M 8661 6244 Q 7757 5780 6077 5644 6073 5608 6109 5624 L 6433 5659 Q 6842 5706 7161 5760 8268 5945 8661 6244" fill="none" stroke="#000000" stroke-width="2" stroke-linecap="round" stroke-linejoin="round"></path></g><g id="cid_184" viewBox="6284 5530 9558 6181"><path d="M 7773 5621 Q 7317 5573 6771 5551 L 6317 5536 Q 6281 5520 6285 5556 9117 5676 9557 6180 9263 5777 7773 5621" fill="#ffffff"></path><path d="M 7773 5621 Q 9263 5777 9557 6180 9117 5676 6285 5556 6281 5520 6317 5536 L 6771 5551 Q 7317 5573 7773 5621" fill="none" stroke="#000000" stroke-width="2" stroke-linecap="round" stroke-linejoin="round"></path></g><g id="cid_185" viewBox="6516 5417 10526 5861"><path d="M 6549 5456 Q 6513 5440 6517 5476 9227 5385 10110 5617 10419 5715 10525 5860 10469 5712 10110 5617 9561 5444 8373 5421 7798 5410 7118 5434 L 6549 5456" fill="#ffffff"></path><path d="M 6549 5456 L 7118 5434 Q 7798 5410 8373 5421 9561 5444 10110 5617 10469 5712 10525 5860 10419 5715 10110 5617 9227 5385 6517 5476 6513 5440 6549 5456" fill="none" stroke="#000000" stroke-width="2" stroke-linecap="round" stroke-linejoin="round"></path></g><g id="cid_186" viewBox="6716 4991 9702 5381"><path d="M 9701 5252 Q 9660 5176 9561 5127 9648 5179 9701 5252 M 9561 5127 Q 9164 4890 8061 5069 7649 5136 7158 5258 L 6749 5360 Q 6713 5344 6717 5380 9015 4855 9561 5127" fill="#ffffff"></path><path d="M 9701 5252 Q 9660 5176 9561 5127 9648 5179 9701 5252 M 9561 5127 Q 9015 4855 6717 5380 6713 5344 6749 5360 L 7158 5258 Q 7649 5136 8061 5069 9164 4890 9561 5127" fill="none" stroke="#000000" stroke-width="2" stroke-linecap="round" stroke-linejoin="round"></path></g><g id="cid_187" viewBox="5556 5810 6022 6653"><path d="M 5589 5816 Q 5553 5800 5557 5836 5877 5812 6021 6652 5996 6163 5803 5949 5741 5880 5666 5843 L 5589 5816" fill="#ffffff"></path><path d="M 5589 5816 L 5666 5843 Q 5741 5880 5803 5949 5996 6163 6021 6652 5877 5812 5557 5836 5553 5800 5589 5816" fill="none" stroke="#000000" stroke-width="2" stroke-linecap="round" stroke-linejoin="round"></path></g><g id="cid_188" viewBox="5380 5842 5685 6549"><path d="M 5413 5848 Q 5377 5832 5381 5868 5701 5844 5677 6548 5712 6060 5579 5913 5537 5866 5477 5854 L 5413 5848" fill="#ffffff"></path><path d="M 5413 5848 L 5477 5854 Q 5537 5866 5579 5913 5712 6060 5677 6548 5701 5844 5381 5868 5377 5832 5413 5848" fill="none" stroke="#000000" stroke-width="2" stroke-linecap="round" stroke-linejoin="round"></path></g><g id="cid_189" viewBox="5220 5850 5446 6333"><path d="M 5253 5856 Q 5217 5840 5221 5876 5541 5852 5349 6332 5505 6050 5407 5932 5377 5895 5318 5873 L 5253 5856" fill="#ffffff"></path><path d="M 5253 5856 L 5318 5873 Q 5377 5895 5407 5932 5505 6050 5349 6332 5541 5852 5221 5876 5217 5840 5253 5856" fill="none" stroke="#000000" stroke-width="2" stroke-linecap="round" stroke-linejoin="round"></path></g><g id="cid_190" viewBox="6165 3432 8275 5015"><path d="M 6934 4180 Q 7587 3531 8274 3462 7507 3220 6168 4989 6159 5029 6190 5005 6268 4942 6493 4672 6762 4351 6934 4180" fill="#ffffff"></path><path d="M 6934 4180 Q 7587 3531 8274 3462 7507 3220 6168 4989 6159 5029 6190 5005 6268 4942 6493 4672 6762 4351 6934 4180" fill="none" stroke="#000000" stroke-width="2" stroke-linecap="round" stroke-linejoin="round"></path></g><g id="cid_191" viewBox="6379 3600 9475 4954"><path d="M 9318 3602 Q 8795 3612 7656 4200 7244 4413 6786 4684 L 6402 4917 Q 6364 4929 6392 4953 8630 3640 9318 3602" fill="#ffffff"></path><path d="M 9318 3602 L 9474 3614 M 9318 3602 Q 8630 3640 6392 4953 6364 4929 6402 4917 L 6786 4684 Q 7244 4413 7656 4200 8795 3612 9318 3602" fill="none" stroke="#000000" stroke-width="2" stroke-linecap="round" stroke-linejoin="round"></path></g><g id="cid_192" viewBox="5972 3768 7123 5096"><path d="M 6300 4422 Q 6594 3831 7122 3816 6474 3522 5975 5075 5965 5107 5999 5088 6049 5058 6126 4848 6244 4534 6300 4422" fill="#ffffff"></path><path d="M 6300 4422 Q 6594 3831 7122 3816 6474 3522 5975 5075 5965 5107 5999 5088 6049 5058 6126 4848 6244 4534 6300 4422" fill="none" stroke="#000000" stroke-width="2" stroke-linecap="round" stroke-linejoin="round"></path></g><g id="cid_193" viewBox="5568 4502 7117 5319"><path d="M 5594 5317 Q 5653 5309 5792 5173 6005 4968 6098 4893 6579 4505 7116 4566 6476 4279 5576 5296 5555 5322 5594 5317" fill="#ffffff"></path><path d="M 5594 5317 Q 5653 5309 5792 5173 6005 4968 6098 4893 6579 4505 7116 4566 6476 4279 5576 5296 5555 5322 5594 5317" fill="none" stroke="#000000" stroke-width="2" stroke-linecap="round" stroke-linejoin="round"></path></g><g id="cid_194" viewBox="5795 4142 7173 5195"><path d="M 5822 5190 Q 5879 5170 5989 5011 6166 4759 6235 4677 6633 4204 7172 4162 6489 4003 5801 5173 5785 5203 5822 5190" fill="#ffffff"></path><path d="M 5822 5190 Q 5879 5170 5989 5011 6166 4759 6235 4677 6633 4204 7172 4162 6489 4003 5801 5173 5785 5203 5822 5190" fill="none" stroke="#000000" stroke-width="2" stroke-linecap="round" stroke-linejoin="round"></path></g><g id="cid_195" viewBox="5428 4755 6683 5417"><path d="M 5450 5415 Q 5498 5408 5611 5298 5797 5120 5858 5071 6247 4757 6682 4807 6164 4575 5435 5398 5418 5419 5450 5415" fill="#ffffff"></path><path d="M 5450 5415 Q 5498 5408 5611 5298 5797 5120 5858 5071 6247 4757 6682 4807 6164 4575 5435 5398 5418 5419 5450 5415" fill="none" stroke="#000000" stroke-width="2" stroke-linecap="round" stroke-linejoin="round"></path></g><g id="cid_196" viewBox="5274 5047 6362 5536"><path d="M 5295 5535 Q 5315 5533 5444 5432 5607 5306 5720 5237 6134 4987 6361 5177 6120 4803 5283 5516 5263 5537 5295 5535" fill="#ffffff"></path><path d="M 5295 5535 Q 5315 5533 5444 5432 5607 5306 5720 5237 6134 4987 6361 5177 6120 4803 5283 5516 5263 5537 5295 5535" fill="none" stroke="#000000" stroke-width="2" stroke-linecap="round" stroke-linejoin="round"></path></g><g id="cid_197" viewBox="6664 3900 9902 4879"><path d="M 9743 3907 Q 9222 3853 8024 4291 7603 4444 7099 4661 L 6689 4843 Q 6650 4851 6674 4878 9053 3862 9743 3907" fill="#ffffff"></path><path d="M 9743 3907 Q 9832 3915 9901 3939 M 9743 3907 Q 9053 3862 6674 4878 6650 4851 6689 4843 L 7099 4661 Q 7603 4444 8024 4291 9222 3853 9743 3907" fill="none" stroke="#000000" stroke-width="2" stroke-linecap="round" stroke-linejoin="round"></path></g><g id="cid_198" viewBox="6004 6138 6230 6621"><path d="M 6037 6144 Q 6001 6128 6005 6164 6325 6140 6133 6620 6289 6338 6191 6220 6161 6183 6102 6161 L 6037 6144" fill="#ffffff"></path><path d="M 6037 6144 L 6102 6161 Q 6161 6183 6191 6220 6289 6338 6133 6620 6325 6140 6005 6164 6001 6128 6037 6144" fill="none" stroke="#000000" stroke-width="2" stroke-linecap="round" stroke-linejoin="round"></path></g><g id="cid_199" viewBox="6212 6106 6678 6949"><path d="M 6245 6112 Q 6209 6096 6213 6132 6533 6108 6677 6948 6652 6459 6459 6245 6397 6176 6322 6139 L 6245 6112" fill="#ffffff"></path><path d="M 6245 6112 L 6322 6139 Q 6397 6176 6459 6245 6652 6459 6677 6948 6533 6108 6213 6132 6209 6096 6245 6112" fill="none" stroke="#000000" stroke-width="2" stroke-linecap="round" stroke-linejoin="round"></path></g><g id="cid_200" viewBox="6348 6074 7382 6813"><path d="M 6717 6209 Q 6600 6146 6485 6109 L 6381 6080 Q 6345 6064 6349 6100 6669 6076 7381 6812 7085 6406 6717 6209" fill="#ffffff"></path><path d="M 6717 6209 Q 7085 6406 7381 6812 6669 6076 6349 6100 6345 6064 6381 6080 L 6485 6109 Q 6600 6146 6717 6209" fill="none" stroke="#000000" stroke-width="2" stroke-linecap="round" stroke-linejoin="round"></path></g><g id="cid_201" viewBox="6499 6031 7740 6693"><path d="M 6531 6035 Q 6493 6024 6501 6059 6815 5993 7739 6692 7262 6264 6862 6110 6738 6062 6627 6044 L 6531 6035" fill="#ffffff"></path><path d="M 6531 6035 L 6627 6044 Q 6738 6062 6862 6110 7262 6264 7739 6692 6815 5993 6501 6059 6493 6024 6531 6035" fill="none" stroke="#000000" stroke-width="2" stroke-linecap="round" stroke-linejoin="round"></path></g><g id="cid_202" viewBox="6707 5943 8508 6749"><path d="M 6739 5947 Q 6701 5936 6710 5971 7023 5905 8507 6748 7859 6310 7248 6088 7059 6019 6884 5977 L 6739 5947" fill="#ffffff"></path><path d="M 6739 5947 L 6884 5977 Q 7059 6019 7248 6088 7859 6310 8507 6748 7023 5905 6710 5971 6701 5936 6739 5947" fill="none" stroke="#000000" stroke-width="2" stroke-linecap="round" stroke-linejoin="round"></path></g><g id="cid_203" viewBox="5900 5714 7646 6325"><path d="M 7645 6324 Q 7266 5990 6574 5827 6366 5778 6129 5745 L 5933 5720 Q 5897 5704 5901 5740 6947 5829 7645 6324" fill="#ffffff"></path><path d="M 7645 6324 Q 6947 5829 5901 5740 5897 5704 5933 5720 L 6129 5745 Q 6366 5778 6574 5827 7266 5990 7645 6324" fill="none" stroke="#000000" stroke-width="2" stroke-linecap="round" stroke-linejoin="round"></path></g><g id="cid_204" viewBox="5700 5794 6734 6533"><path d="M 5733 5800 Q 5697 5784 5701 5820 6021 5796 6733 6532 6437 6126 6069 5929 5952 5866 5837 5829 L 5733 5800" fill="#ffffff"></path><path d="M 5733 5800 L 5837 5829 Q 5952 5866 6069 5929 6437 6126 6733 6532 6021 5796 5701 5820 5697 5784 5733 5800" fill="none" stroke="#000000" stroke-width="2" stroke-linecap="round" stroke-linejoin="round"></path></g><g id="cid_205" viewBox="6924 5850 8778 6523"><path d="M 6954 5853 Q 6916 5845 6927 5879 7223 5834 8777 6522 8097 6132 7473 5956 7281 5902 7102 5872 L 6954 5853" fill="#ffffff"></path><path d="M 6954 5853 L 7102 5872 Q 7281 5902 7473 5956 8097 6132 8777 6522 7223 5834 6927 5879 6916 5845 6954 5853" fill="none" stroke="#000000" stroke-width="2" stroke-linecap="round" stroke-linejoin="round"></path></g><g id="cid_206" viewBox="7092 5802 8946 6475"><path d="M 7122 5805 Q 7084 5797 7095 5831 7403 5778 8945 6474 8265 6084 7641 5908 7449 5854 7270 5824 L 7122 5805" fill="#ffffff"></path><path d="M 7122 5805 L 7270 5824 Q 7449 5854 7641 5908 8265 6084 8945 6474 7403 5778 7095 5831 7084 5797 7122 5805" fill="none" stroke="#000000" stroke-width="2" stroke-linecap="round" stroke-linejoin="round"></path></g><g id="cid_207" viewBox="7284 5702 10010 6487"><path d="M 7498 5733 L 7314 5705 Q 7276 5697 7287 5731 7595 5678 10009 6486 8882 6056 8002 5840 L 7498 5733" fill="#ffffff"></path><path d="M 7498 5733 L 8002 5840 Q 8882 6056 10009 6486 7595 5678 7287 5731 7276 5697 7314 5705 L 7498 5733" fill="none" stroke="#000000" stroke-width="2" stroke-linecap="round" stroke-linejoin="round"></path></g><path id="cid_208" d="M 5141 5892 Q 5165 5860 5061 5868 L 5069 5908 Q 5117 5924 5141 5892" viewBox="5061 5866 5146 5913" fill="#000000"></path><path id="cid_209" d="M 5757 6172 Q 5781 6140 5677 6148 L 5685 6188 Q 5733 6204 5757 6172" viewBox="5677 6146 5762 6193" fill="#000000"></path><path id="cid_210" d="M 5581 6164 Q 5605 6132 5501 6140 L 5509 6180 Q 5557 6196 5581 6164" viewBox="5501 6138 5586 6185" fill="#000000"></path><path id="cid_211" d="M 3588 5944 Q 3628 5975 3661 5952 3695 5930 3594 5904 L 3588 5944" viewBox="3588 5904 3670 5962" fill="#000000"></path><path id="cid_212" d="M 3701 5760 Q 3735 5738 3634 5712 L 3628 5752 Q 3668 5783 3701 5760" viewBox="3628 5712 3710 5770" fill="#000000"></path><path id="cid_213" d="M 3557 5672 Q 3591 5650 3490 5624 L 3484 5664 Q 3524 5695 3557 5672" viewBox="3484 5624 3566 5682" fill="#000000"></path><path id="cid_214" d="M 4597 7436 Q 4845 7244 5085 7124 5053 7124 4973 7164 4918 7164 4812 7225 4669 7307 4597 7436" viewBox="4597 7124 5085 7436" fill="#cccccc"></path><path id="cid_215" d="M 6741 8764 L 6724 8784 Q 6720 8847 6725 8871 6729 8892 6754 8892 6779 8894 6793 8872 L 6839 8977 Q 6843 8991 6849 8991 6886 8994 6884 8985 6847 8799 6767 8764 L 6741 8764" viewBox="6722 8764 6884 8992" fill="#cccccc"></path><path id="cid_216" d="M 6702 9113 L 6650 8991 6648 8969 Q 6627 8925 6585 8936 6558 8991 6616 9057 L 6618 9072 6632 9116 Q 6641 9141 6658 9148 L 6688 9140 Q 6708 9128 6702 9113" viewBox="6576 8934 6703 9148" fill="#cccccc"></path><path id="cid_217" d="M 5804 8875 L 5781 8914 5754 8986 Q 5733 9005 5738 9036 5735 9240 5740 9235 L 5822 8988 5826 8968 5826 8945 Q 5851 8897 5846 8881 5835 8849 5804 8875" viewBox="5737 8863 5847 9235" fill="#cccccc"></path><path id="cid_218" d="M 5413 8649 Q 5410 8634 5391 8638 L 5371 8656 Q 5351 8747 5263 8830 5236 8855 5204 8930 L 5177 9008 5313 8832 Q 5422 8729 5413 8649" viewBox="5177 8637 5414 9008" fill="#cccccc"></path><path id="cid_219" d="M 4969 8760 L 4949 8859 4993 8775 5041 8713 Q 5052 8705 5050 8689 5095 8620 5096 8600 5088 8588 5081 8593 L 5067 8602 Q 5025 8653 4969 8760" viewBox="4949 8592 5096 8859" fill="#cccccc"></path><path id="cid_220" d="M 5414 9044 Q 5410 9006 5403 9011 L 5345 9055 Q 5307 9099 5304 9173 L 5333 9152 5399 9073 5414 9044" viewBox="5304 9010 5414 9173" fill="#cccccc"></path><path id="cid_221" d="M 5750 8590 L 5729 8624 Q 5713 8603 5692 8615 L 5657 8639 5649 8633 5619 8653 5592 8679 5578 8681 5555 8696 5540 8713 5484 8800 Q 5440 8869 5417 8960 5421 8970 5466 8898 L 5517 8813 Q 5525 8801 5536 8818 5549 8839 5562 8833 L 5569 8840 5585 8832 5586 8810 5608 8778 5625 8744 5665 8760 5679 8752 5696 8751 Q 5720 8736 5727 8719 L 5785 8592 5750 8590" viewBox="5417 8582 5785 8961" fill="#cccccc"></path><path id="cid_222" d="M 6921 9216 Q 7009 9440 6861 9848 6889 9820 6969 9564 7049 9664 7057 9872 7149 9648 6921 9216" viewBox="6861 9216 7083 9872" fill="#cccccc"></path><path id="cid_223" d="M 6513 9252 Q 6497 9660 6361 9880 6645 9476 6565 9796 6673 9620 6513 9252" viewBox="6361 9252 6609 9880" fill="#cccccc"></path><path id="cid_224" d="M 6089 9820 Q 6351 9602 6365 9728 6361 9354 6369 9296 6293 9628 6089 9820" viewBox="6089 9296 6369 9820" fill="#cccccc"></path><path id="cid_225" d="M 6173 9116 Q 6177 9304 6125 9372 6215 9503 6109 9726 6288 9377 6173 9116" viewBox="6109 9116 6218 9726" fill="#cccccc"></path><path id="cid_226" d="M 5805 9392 Q 5769 9436 5789 9748 5837 9148 6037 9752 6041 9624 5969 9516 5913 9424 5885 9268 5881 9120 5801 9244 5809 9264 5805 9392" viewBox="5782 9187 6037 9752" fill="#cccccc"></path><path id="cid_227" d="M 5597 9380 Q 5521 9668 5549 9792 5585 9412 5717 9196 5681 9072 5597 9380" viewBox="5541 9160 5717 9792" fill="#cccccc"></path><path id="cid_228" d="M 5409 9384 Q 5481 9068 5353 9240 5357 9400 5193 9548 5289 9500 5281 9592 5381 9484 5409 9384" viewBox="5193 9179 5435 9592" fill="#cccccc"></path><path id="cid_229" d="M 5249 9128 Q 5285 9060 5229 9124 5053 9508 4973 9640 5133 9456 5165 9492 5233 9144 5249 9128" viewBox="4973 9093 5263 9640" fill="#cccccc"></path><path id="cid_230" d="M 5049 9160 Q 5281 8712 4845 9228 5065 9032 5049 9160" viewBox="4845 8952 5130 9228" fill="#cccccc"></path><path id="cid_231" d="M 4921 8528 Q 5053 8316 4889 8496 4837 8492 4741 8868 4799 8729 4813 8905 4805 8714 4921 8528" viewBox="4741 8413 4980 8905" fill="#cccccc"></path><path id="cid_232" d="M 11327 8880 Q 11377 8730 11347 8640 11119 8450 11063 8378 11327 8741 11327 8880" viewBox="11063 8378 11358 8880" fill="#cccccc"></path><path id="cid_233" d="M 11457 8200 Q 11278 8072 11163 7972 11497 8359 11497 8430 11507 8250 11457 8200 M 11163 7972 L 10967 7750 Q 11007 7836 11163 7972" viewBox="10967 7750 11499 8430" fill="#cccccc"></path><path id="cid_234" d="M 11797 5120 Q 11557 4960 11527 5000 11737 5130 11787 5300 11757 5120 11797 5120" viewBox="11527 4992 11797 5300" fill="#cccccc"></path><path id="cid_235" d="M 11617 6490 Q 11978 6813 12005 6902 L 11967 6730 11617 6490" viewBox="11617 6490 12005 6902" fill="#cccccc"></path><path id="cid_236" d="M 4152 6280 L 4592 6375" viewBox="4142 6270 4602 6385" fill="none" stroke="#000000" stroke-width="20" stroke-linecap="round" stroke-linejoin="round"></path><path id="cid_237" d="M 5157 9520 Q 5147 9450 4967 9660" viewBox="4957 9493 5167 9670" fill="none" stroke="#000000" stroke-width="20" stroke-linecap="round" stroke-linejoin="round"></path><path id="cid_238" d="M 5267 9620 Q 5307 9490 5177 9580" viewBox="5167 9533 5286 9630" fill="none" stroke="#000000" stroke-width="20" stroke-linecap="round" stroke-linejoin="round"></path><path id="cid_239" d="M 6347 9790 Q 6377 9570 6147 9830" viewBox="6137 9679 6360 9840" fill="none" stroke="#000000" stroke-width="20" stroke-linecap="round" stroke-linejoin="round"></path></defs></svg>
