<?xml version="1.0" encoding="utf-8"?>
<!DOCTYPE svg PUBLIC "-//W3C//DTD SVG 1.1//EN" "http://www.w3.org/Graphics/SVG/1.1/DTD/svg11.dtd">
<svg xmlns="http://www.w3.org/2000/svg" xmlns:xlink="http://www.w3.org/1999/xlink" version="1.1" width="4800" height="3600"><defs><use id="cid_55" transform="matrix(20,0,0,20,0,0)" xlink:href="#cid_54" viewBox="0 0 4800 3600"></use><g id="cid_56" viewBox="-394 1309 5190 2600"><path d="M 2400 2075 L 2400 1530 -394 2123 605 2600 2400 2075" fill="#000000"></path><path d="M 2395 2075 L 4190 2600 5190 2123 2395 1530 2395 2075" fill="#000000"></path><path d="M 2501 1415 L 2501 1987 Q 2501 2019 2575 2043 2649 2066 2754 2066 2858 2066 2932 2043 3006 2019 3006 1987 L 3006 1415 2501 1415" fill="#fedeba"></path><path d="M 2538 1415 L 2538 1987 Q 2538 2019 2601 2043 2665 2066 2754 2066 2843 2066 2907 2043 2970 2019 2970 1987 L 2970 1415 2538 1415" fill="#fec98f"></path><path d="M 2609 1415 L 2609 1987 Q 2609 2019 2652 2043 2694 2066 2754 2066 2814 2066 2857 2043 2899 2019 2899 1987 L 2899 1415 2609 1415" fill="#f4b173"></path><path d="M 3006 1857 Q 3005 1887 2932 1909 2858 1931 2754 1931 2649 1931 2575 1909 2502 1887 2501 1857 L 2501 1987 Q 2501 2019 2575 2043 2649 2066 2754 2066 2858 2066 2932 2043 3006 2019 3006 1987 L 3006 1857" fill="#772f16"></path><path d="M 2754 1931 Q 2612 1931 2538 1894 L 2538 2008 Q 2538 2020 2547 2032 2625 2066 2754 2066 2884 2066 2960 2032 L 2970 2008 2970 1894 Q 2894 1931 2754 1931" fill="#3a1b10"></path><path d="M 2725 1510 L 2725 1930 2787 1930 2787 1520 2725 1510 M 2980 1889 L 2980 1463 2946 1496 2945 1904 2980 1889 M 2848 1925 L 2899 1917 2899 1507 2848 1498 2848 1925 M 2607 1917 L 2657 1925 2657 1498 2607 1507 2607 1917 M 2560 1496 L 2526 1463 2526 1888 2560 1904 2560 1496" fill="#f6ad5a"></path><path d="M 2725 1510 L 2725 1930 2787 1930 2787 1520 2725 1510 M 2848 1498 L 2848 1925 2899 1917 2899 1507 2848 1498 M 2609 1917 L 2657 1925 2657 1498 2609 1506 2609 1917" fill="#e79449"></path><path d="M 2787 1930 L 2787 1520 2725 1510 2725 1930 2787 1930" fill="#da8334"></path><path d="M 2501 1415 L 2501 1530 Q 2501 1571 2521 1567 L 2546 1565 Q 2559 1605 2577 1634 2608 1684 2637 1660 L 2691 1606 Q 2714 1589 2730 1638 2749 1693 2787 1680 2824 1669 2835 1617 2844 1574 2867 1576 2887 1578 2899 1607 2910 1634 2929 1630 2950 1625 2970 1580 2983 1551 2993 1556 L 3006 1568 3006 1415 2501 1415" fill="#f6af6e"></path><path d="M 2538 1415 L 2538 1562 Q 2545 1560 2546 1565 2559 1605 2577 1634 2608 1684 2637 1660 L 2691 1606 Q 2714 1589 2730 1638 2749 1693 2787 1680 2824 1669 2835 1617 2844 1574 2867 1576 2887 1578 2899 1607 2910 1634 2929 1630 2950 1625 2970 1581 L 2970 1415 2538 1415" fill="#e79449"></path><path d="M 2594 1399 L 2501 1418 2501 1456 Q 2501 1488 2575 1511 2649 1534 2754 1534 2858 1534 2932 1511 3006 1488 3006 1456 L 3006 1418 Q 2828 1379 2754 1379 L 2594 1399" fill="#ec2a47"></path><path d="M 2538 1415 L 2538 1496 Q 2611 1534 2754 1534 2896 1534 2970 1496 L 2970 1415 2538 1415" fill="#d0021f"></path><path d="M 2575 1365 Q 2501 1386 2501 1415 2501 1444 2575 1465 2649 1486 2754 1486 2858 1486 2932 1465 3006 1444 3006 1415 3006 1386 2932 1365 2858 1344 2754 1344 2649 1344 2575 1365" fill="#fee0c7"></path><path d="M 2622 1367 Q 2525 1385 2555 1419 2584 1452 2673 1433 2762 1413 2732 1383 2701 1352 2622 1367" fill="#ffffff"></path><path d="M 2589 1383 Q 2659 1366 2754 1366 2848 1366 2919 1383 2989 1400 3003 1426 L 3006 1415 Q 3006 1386 2932 1365 2858 1344 2754 1344 2649 1344 2575 1365 2501 1386 2501 1415 L 2505 1426 Q 2519 1400 2589 1383" fill="#ffffff"></path><path d="M 2718 1427 Q 2753 1435 2784 1426 2819 1414 2825 1385 2830 1362 2800 1334 2770 1304 2744 1310 2705 1319 2690 1367 2675 1416 2718 1427" fill="#df1b38"></path><path d="M 2565 1907 Q 2631 1925 2607 1894 2581 1861 2547 1861 2521 1861 2519 1877 2516 1894 2565 1907" fill="#d0021f"></path><path d="M 2945 1907 Q 2994 1894 2991 1877 2989 1861 2963 1861 2929 1861 2903 1894 2879 1925 2945 1907" fill="#d0021f"></path><path d="M 2754 1935 Q 2823 1935 2828 1912 2833 1888 2760 1888 2690 1888 2694 1912 2699 1935 2754 1935" fill="#d0021f"></path><path d="M 2650 1893 L 2607 1936 2678 1964 2650 1893" fill="#81361d"></path><path d="M 2682 2052 L 2755 2047 2721 2019 2738 1991 2687 1979 2682 2052" fill="#81361d"></path><path d="M 2733 1944 L 2770 1981 2805 1967 2787 1928 2733 1944" fill="#b95938"></path><path d="M 2531 2002 L 2550 1902 Q 2520 1921 2489 1939 L 2531 2002" fill="#b95938"></path><path d="M 2587 1884 L 2566 2014 2603 1978 2652 1974 2587 1884" fill="#81361d"></path><path d="M 2786 2016 L 2891 1999 2848 1973 2786 2016" fill="#81361d"></path><path d="M 2822 1949 L 2838 1965 2826 2018 2885 1971 2916 1982 2907 1908 2866 1954 2840 1894 2822 1949" fill="#81361d"></path><path d="M 2933 2052 L 2962 2031 2976 2059 2991 1989 2941 2001 2933 2052" fill="#b95938"></path><path d="M 2841 2070 L 2898 2051 2876 2026 2841 2070" fill="#81361d"></path><path d="M 2950 1966 L 2966 1927 2995 1903 2922 1903 2950 1966" fill="#81361d"></path><path d="M 2975 1974 L 3017 1974 3015 1929 2975 1974" fill="#b95938"></path><path d="M 2616 2061 L 2665 2002 2601 2013 2616 2061" fill="#b95938"></path><path d="M 2844 1529 L 2548 1502 Q 2566 1508 2574 1563 2582 1615 2603 1615 2623 1615 2636 1568 2647 1525 2667 1532 2687 1539 2698 1558 2707 1575 2720 1576 2732 1577 2774 1554 2817 1529 2844 1529" fill="#d0021f"></path><path d="M 2767 1420 Q 2806 1420 2806 1377 2805 1335 2763 1360 2721 1385 2724 1403 2726 1420 2767 1420" fill="#b9021c"></path><path d="M 2732 1318 Q 2709 1331 2719 1345 L 2751 1346 Q 2771 1333 2761 1320 L 2732 1318" fill="#ff7884"></path><path d="M 2578 1529 Q 2578 1564 2588 1574 2598 1585 2598 1544 2598 1505 2588 1502 2578 1500 2578 1529" fill="#ff7884"></path><path d="M 2700 1514 Q 2683 1517 2697 1540 2711 1562 2727 1562 2743 1562 2730 1537 2717 1512 2700 1514" fill="#ff7884"></path><path d="M 2580 1607 Q 2542 1607 2546 1709 2550 1810 2577 1810 2605 1810 2612 1709 2619 1607 2580 1607" fill="#fedeba"></path><path d="M 2580 1607 Q 2560 1607 2559 1661 2557 1715 2577 1715 2597 1715 2599 1661 2600 1607 2580 1607" fill="#ffffff"></path><path d="M 2438 1728 L 1495 1755 1495 1800 1880 1910 2438 1773 2438 1728" fill="#fee0c7"></path><path d="M 1878 1910 L 1495 1800 1495 1847 1880 1960 2431 1820 2431 1773 1878 1910" fill="#3a1b10"></path><path d="M 1880 1960 L 1495 1847 1495 1893 1880 2008 2428 1868 2428 1820 1880 1960" fill="#fee0c7"></path><path d="M 1880 2008 L 1495 1893 1495 1951 1880 2066 2432 1918 2432 1867 1880 2008" fill="#bc5b39"></path><path d="M 1880 2067 L 1490 1948 1495 2001 1879 2119 2434 1967 2434 1918 1880 2067" fill="#3a1b10"></path><path d="M 1836 1897 Q 1862 1904 1865 1881 1868 1859 1833 1849 L 1567 1753 1495 1755 1495 1800 1836 1897" fill="#fea475"></path><path d="M 1828 1944 Q 1854 1951 1858 1929 1861 1906 1826 1896 L 1815 1892 1501 1802 1495 1803 1495 1847 1828 1944" fill="#250b00"></path><path d="M 1508 1851 L 1495 1851 1495 1893 1832 1994 Q 1856 1997 1858 1976 1859 1955 1826 1945 L 1508 1851" fill="#fea475"></path><path d="M 1816 2047 Q 1853 2049 1857 2026 1861 2003 1826 1993 L 1514 1898 1495 1899 1495 1947 1816 2047" fill="#93391f"></path><path d="M 1491 1956 L 1495 2001 1829 2104 Q 1854 2101 1856 2083 1859 2064 1835 2053 L 1515 1956 1491 1956" fill="#250b00"></path><path d="M 2441 1624 L 1488 1657 1478 1688 Q 1472 1725 1495 1755 L 1811 1843 1873 1855 1947 1848 2441 1728 2453 1702 Q 2461 1667 2441 1624" fill="#df1b38"></path><path d="M 1844 1851 Q 1880 1857 1882 1813 1883 1768 1855 1762 1789 1741 1739 1731 1644 1711 1635 1747 1625 1781 1709 1815 L 1844 1851" fill="#be0a25"></path><path d="M 1905 1764 L 1990 1747 2354 1664 Q 2430 1647 2440 1629 2449 1613 2406 1604 L 2146 1546 2078 1534 2006 1541 1585 1627 Q 1498 1645 1489 1656 1479 1666 1533 1681 L 1798 1751 1905 1764" fill="#ff3e51"></path><path d="M 2006 1541 L 1585 1627 Q 1513 1641 1495 1651 1477 1661 1502 1671 L 1585 1650 2006 1564 2078 1557 2146 1569 2406 1627 2432 1636 Q 2460 1616 2406 1604 L 2146 1546 2078 1534 2006 1541" fill="#ff7884"></path><path d="M 1867 1694 Q 1988 1709 2092 1693 2212 1675 2159 1635 2107 1595 2003 1607 2018 1588 1989 1576 L 1899 1580 Q 1857 1593 1817 1627 L 1768 1677 1867 1694" fill="#fee0c7"></path><path d="M 2130 1620 Q 2074 1600 2005 1607 2013 1617 2005 1628 L 2108 1634 Q 2154 1645 2169 1663 2184 1640 2130 1620 M 1899 1580 Q 1857 1593 1817 1627 L 1768 1677 1786 1681 Q 1844 1618 1901 1601 1940 1589 1969 1592 1994 1594 2004 1606 2016 1587 1988 1576 L 1899 1580" fill="#fea475"></path><path d="M 2223 1489 Q 2226 1450 2202 1421 2178 1391 2141 1388 2103 1386 2075 1411 2047 1436 2043 1475 2040 1514 2064 1544 2088 1573 2125 1576 2162 1579 2191 1554 2219 1528 2223 1489" fill="#3a1b10"></path><path d="M 2209 1489 Q 2212 1450 2190 1421 2168 1391 2134 1388 2099 1386 2073 1411 2046 1436 2043 1475 2040 1514 2062 1544 2085 1573 2119 1576 2153 1579 2180 1554 2206 1528 2209 1489" fill="#bc5b39"></path><path d="M 2096 1403 Q 2056 1419 2056 1457 2057 1494 2108 1463 2157 1434 2142 1412 2127 1390 2096 1403" fill="#df8b6f"></path><path d="M 2043 1488 Q 2047 1449 2073 1424 2100 1399 2134 1402 2165 1404 2187 1430 2208 1455 2209 1489 2212 1450 2190 1421 2168 1391 2134 1388 2099 1386 2073 1411 2046 1436 2043 1475 L 2043 1488" fill="#df8b6f"></path><path d="M 2129 1405 Q 2101 1402 2080 1423 2059 1444 2057 1476 2055 1508 2072 1533 2090 1557 2117 1560 2144 1562 2165 1541 2186 1520 2189 1488 2191 1456 2174 1432 2156 1407 2129 1405 M 2177 1487 Q 2176 1513 2158 1531 2141 1548 2118 1546 2095 1544 2081 1524 2067 1504 2068 1477 2070 1451 2088 1433 2106 1416 2128 1418 2151 1420 2165 1441 2179 1461 2177 1487" fill="#3a1b10"></path><path d="M 1914 1763 L 1982 1759 2101 1738 Q 2228 1708 2226 1697 2224 1686 2085 1715 2013 1729 1958 1745 1905 1761 1914 1763" fill="#ffa0a9"></path><path d="M 2019 1732 Q 1965 1744 1970 1752 L 2029 1748 Q 2091 1735 2086 1727 L 2019 1732" fill="#ffffff"></path><path d="M 1929 1636 Q 1977 1614 1951 1608 1925 1601 1886 1624 1845 1647 1863 1653 1881 1658 1929 1636" fill="#ffffff"></path><path d="M 1573 1699 L 1636 1708 Q 1643 1702 1576 1684 1516 1668 1518 1677 1520 1685 1573 1699" fill="#ffffff"></path><path d="M 1094 1985 L 973 2016 973 2106 Q 973 2169 1078 2214 1184 2259 1333 2259 1482 2259 1588 2214 1693 2169 1693 2106 L 1691 2093 1691 2017 1673 2017 Q 1641 1976 1544 1962 L 1333 1953 Q 1234 1953 1094 1985" fill="#84361b"></path><path d="M 1691 2072 Q 1680 2131 1577 2172 1474 2212 1333 2212 1184 2212 1078 2168 974 2124 973 2062 L 973 2106 Q 973 2169 1078 2214 1184 2259 1333 2259 1482 2259 1588 2214 1693 2169 1693 2106 L 1691 2093 1691 2072" fill="#a74f31"></path><path d="M 1541 2224 Q 1610 2206 1603 2172 1596 2138 1527 2151 L 1322 2162 1185 2161 Q 1130 2150 1126 2187 1121 2224 1201 2239 L 1379 2249 Q 1465 2244 1541 2224" fill="#6a260f"></path><path d="M 1126 2185 Q 1123 2200 1140 2215 1159 2231 1201 2239 L 1379 2249 Q 1465 2244 1541 2224 1581 2214 1596 2195 1610 2177 1598 2163 1492 2212 1333 2212 1218 2212 1126 2185" fill="#953a1b"></path><path d="M 1693 2037 Q 1693 1979 1588 1937 1482 1896 1333 1896 1184 1896 1078 1937 973 1979 973 2037 973 2095 1078 2136 1184 2177 1333 2177 1482 2177 1588 2136 1693 2095 1693 2037" fill="#2d0c00"></path><path d="M 1693 1904 Q 1693 1843 1588 1799 1482 1756 1333 1756 1184 1756 1078 1799 973 1843 973 1904 L 974 2004 Q 974 2043 1065 2083 1174 2129 1333 2129 1494 2129 1599 2085 1688 2048 1692 2004 L 1693 1904" fill="#84361b"></path><path d="M 1065 2070 Q 975 2031 974 1993 L 974 2004 Q 974 2043 1065 2083 1174 2129 1333 2129 1494 2129 1599 2085 1688 2048 1692 2004 L 1692 1992 Q 1688 2035 1599 2072 1494 2116 1333 2116 1173 2116 1065 2070" fill="#bc5b39"></path><path d="M 1541 2092 Q 1610 2074 1603 2040 1596 2006 1527 2019 L 1322 2030 1185 2029 Q 1130 2017 1126 2055 1121 2092 1201 2107 L 1379 2117 Q 1465 2112 1541 2092" fill="#722910"></path><path d="M 1693 1896 Q 1693 1836 1588 1794 1482 1751 1333 1751 1184 1751 1078 1794 973 1836 973 1896 973 1957 1078 1999 1184 2042 1333 2042 1482 2042 1588 1999 1693 1957 1693 1896" fill="#bc5b39"></path><path d="M 1066 1879 Q 1137 1923 1247 1884 1299 1866 1306 1842 1312 1820 1282 1802 1209 1759 1106 1795 1053 1814 1044 1839 1036 1861 1066 1879" fill="#e58a6a"></path><path d="M 1078 1794 Q 973 1836 973 1896 973 1911 980 1924 L 979 1921 Q 979 1861 1084 1819 1190 1776 1339 1776 1470 1776 1570 1810 1669 1843 1692 1894 1690 1835 1585 1793 1480 1751 1333 1751 1184 1751 1078 1794" fill="#e58a6a"></path><path d="M 1225 1879 Q 1225 1871 1210 1864 L 1173 1858 1136 1864 Q 1120 1871 1120 1879 1120 1888 1136 1895 L 1173 1901 1210 1895 Q 1225 1888 1225 1879" fill="#411e11"></path><path d="M 1280 1798 Q 1280 1790 1265 1784 L 1229 1779 1192 1784 Q 1177 1790 1177 1798 1177 1806 1192 1811 L 1229 1817 1265 1811 Q 1280 1806 1280 1798" fill="#411e11"></path><path d="M 1414 1858 Q 1414 1849 1399 1843 L 1363 1837 1327 1843 Q 1312 1849 1312 1858 1312 1866 1327 1873 L 1363 1879 1399 1873 1414 1858" fill="#411e11"></path><path d="M 1312 2199 Q 1337 2217 1357 2218 1379 2219 1392 2200 1407 2180 1432 2176 1458 2172 1464 2203 1470 2235 1492 2234 1516 2232 1529 2198 1543 2162 1558 2159 L 1609 2145 Q 1636 2132 1654 2098 1624 2115 1558 2133 1425 2168 1242 2170 1282 2178 1312 2199" fill="#2d0c00"></path><path d="M 1302 2152 Q 1285 2152 1307 2177 1329 2202 1352 2202 1375 2202 1349 2177 1322 2152 1302 2152" fill="#72210b"></path><path d="M 1473 2143 Q 1456 2146 1466 2173 1475 2200 1488 2200 1500 2200 1494 2170 1487 2140 1473 2143" fill="#72210b"></path><path d="M 1303 2043 L 1402 2035 Q 1402 2024 1293 2020 1222 2018 1227 2029 1232 2041 1303 2043" fill="#e58a6a"></path><path d="M 1249 2038 L 1314 2031 Q 1310 2021 1240 2015 1169 2010 1174 2022 1178 2035 1249 2038" fill="#ffffff"></path><path d="M 1606 1974 Q 1586 1981 1588 1990 L 1616 1987 Q 1643 1975 1641 1969 L 1606 1974" fill="#ffffff"></path><path d="M 1119 1779 Q 1069 1791 1070 1805 L 1125 1802 Q 1186 1783 1190 1773 1194 1761 1119 1779" fill="#ffffff"></path><path d="M 4452 2035 L 3736 1883 Q 3726 1893 3727 2027 L 3730 2178 Q 3730 2191 3704 2225 3686 2262 3723 2299 3773 2349 3853 2386 3946 2430 4063 2447 L 4263 2440 Q 4370 2421 4411 2393 4445 2369 4450 2311 L 4452 2035" fill="#ef5655"></path><path d="M 4453 2184 Q 4421 2216 4313 2235 L 4083 2246 Q 3773 2227 3727 2079 L 3730 2178 Q 3730 2191 3704 2225 3686 2262 3723 2299 3773 2349 3853 2386 3946 2430 4063 2447 L 4263 2440 Q 4370 2421 4411 2393 4441 2372 4447 2337 4454 2303 4453 2184" fill="#e53736"></path><path d="M 4421 2331 Q 4381 2359 4273 2378 L 4073 2386 Q 3955 2368 3863 2325 3782 2287 3733 2237 L 3713 2209 Q 3698 2231 3698 2248 3697 2273 3723 2299 3773 2349 3853 2386 3946 2430 4063 2447 L 4263 2440 Q 4370 2421 4411 2393 4432 2378 4441 2360 L 4452 2295 Q 4443 2317 4421 2331" fill="#ff4746"></path><path d="M 4444 2063 Q 4470 2037 4418 1892 4370 1762 4244 1735 4122 1708 4092 1800 3812 1760 3745 1863 3718 1904 3751 1949 3786 1996 3872 2023 4026 2070 4241 2076 L 4444 2063" fill="#ffa5a5"></path><path d="M 4018 1793 Q 3929 1800 3959 1834 3989 1867 4088 1860 4185 1853 4143 1820 4100 1787 4018 1793" fill="#ffffff"></path><path d="M 4308 1845 L 4370 1703 4258 1577 4052 1740 4145 1845 4308 1845" fill="#6f2d17"></path><path d="M 4212 1845 L 4273 1845 4127 1681 4092 1709 4212 1845" fill="#aa5a3e"></path><path d="M 4340 1772 L 4210 1625 4174 1653 4321 1816 4340 1772" fill="#aa5a3e"></path><path d="M 4370 1703 L 4258 1577 4052 1740 4065 1755 4252 1607 4359 1728 4370 1703" fill="#c8805a"></path><path d="M 3908 2012 Q 3784 1975 3794 2003 3803 2031 3910 2062 4070 2109 4228 2106 4368 2103 4368 2074 L 4244 2063 Q 4071 2061 3908 2012" fill="#ff7f7f"></path><path d="M 4078 1815 L 4092 1800 Q 3865 1767 3771 1836 3733 1864 3734 1902 3735 1940 3774 1973 3717 1903 3796 1851 3883 1793 4078 1815" fill="#ffffff"></path><path d="M 3807 1899 Q 3802 1947 3884 1947 3966 1947 3962 1904 3957 1840 3885 1839 3813 1838 3807 1899" fill="#ffc4b3"></path><path d="M 3810 1907 Q 3815 1853 3878 1848 3939 1842 3960 1891 3945 1836 3879 1839 3813 1842 3807 1899 3806 1910 3810 1917 L 3810 1907" fill="#ffffff"></path><path d="M 3907 1928 Q 3941 1919 3944 1901 3947 1883 3918 1896 L 3867 1901 Q 3839 1900 3837 1907 3835 1919 3857 1927 L 3907 1928" fill="#ff9b8e"></path><path d="M 3855 1849 Q 3828 1857 3837 1869 3845 1882 3873 1874 3902 1866 3894 1853 3886 1840 3855 1849" fill="#ffffff"></path><path d="M 4313 2012 Q 4383 2012 4380 1972 4375 1911 4314 1910 4253 1909 4248 1967 4244 2012 4313 2012" fill="#ffc4b3"></path><path d="M 4309 1910 Q 4253 1913 4248 1967 L 4251 1984 4250 1975 Q 4255 1923 4308 1918 4360 1914 4378 1960 4365 1907 4309 1910" fill="#ffffff"></path><path d="M 4333 1995 Q 4362 1986 4364 1969 4367 1952 4342 1964 L 4299 1969 Q 4276 1967 4274 1975 4272 1986 4291 1994 L 4333 1995" fill="#ff9b8e"></path><path d="M 4304 1943 Q 4329 1936 4322 1924 4315 1912 4289 1920 4266 1928 4273 1939 4281 1951 4304 1943" fill="#ffffff"></path><path d="M 4067 1948 Q 4067 1929 4053 1915 4040 1901 4020 1901 4001 1901 3987 1915 3973 1929 3973 1948 3973 1968 3987 1982 4000 1996 4020 1996 4040 1996 4053 1982 4067 1968 4067 1948" fill="#c3c3c3"></path><path d="M 4048 1964 Q 4048 1955 4040 1949 4031 1942 4020 1942 4008 1942 4000 1949 3992 1955 3992 1964 L 4000 1979 4020 1985 4040 1979 4048 1964" fill="#7f7f7f"></path><path d="M 4026 1931 L 4021 1918 Q 4015 1913 4007 1913 4000 1913 3994 1918 L 3989 1931 3994 1944 4007 1950 4021 1944 4026 1931" fill="#ffffff"></path><path d="M 4197 1985 Q 4197 1967 4184 1955 4171 1942 4154 1942 4136 1942 4123 1955 4110 1967 4110 1985 4110 2003 4123 2016 4136 2028 4154 2028 4171 2028 4184 2016 4197 2003 4197 1985" fill="#c3c3c3"></path><path d="M 4179 1999 L 4172 1985 4154 1979 Q 4143 1979 4135 1985 4128 1991 4128 1999 4128 2007 4135 2013 L 4154 2018 4172 2013 4179 1999" fill="#7f7f7f"></path><path d="M 4159 1969 L 4154 1958 Q 4149 1953 4142 1953 4126 1953 4126 1969 4126 1986 4142 1986 4159 1986 4159 1969" fill="#ffffff"></path><path d="M 3774 2341 Q 3852 2398 3865 2372 3878 2347 3810 2300 3740 2253 3716 2267 3692 2282 3774 2341" fill="#ff6968"></path><path d="M 4340 1695 Q 4308 1745 4308 1824 4308 1864 4315 1893 L 4367 1907 Q 4420 1923 4427 1930 4438 1941 4449 1999 4525 1999 4588 1965 4655 1930 4673 1875 4693 1814 4651 1781 4605 1745 4505 1768 4505 1681 4442 1657 4380 1633 4340 1695" fill="#fee0c7"></path><path d="M 4430 1684 Q 4493 1708 4493 1795 4592 1772 4638 1808 4680 1839 4662 1899 L 4673 1875 Q 4693 1814 4651 1781 4605 1745 4505 1768 4505 1681 4442 1657 4380 1633 4340 1695 L 4321 1733 4328 1722 Q 4368 1660 4430 1684" fill="#ffffff"></path><path d="M 4427 1930 Q 4438 1941 4449 1999 L 4472 1998 4497 1995 4524 1989 4527 1988 4547 1983 4551 1981 Q 4574 1974 4593 1963 L 4595 1961 4613 1950 4614 1949 4639 1929 4651 1916 Q 4672 1883 4656 1854 4636 1820 4567 1827 4507 1833 4455 1861 4408 1886 4390 1915 4420 1923 4427 1930" fill="#fecda6"></path><path d="M 4217 2386 Q 4081 2395 4088 2423 4096 2451 4216 2447 4314 2443 4332 2410 4350 2377 4217 2386" fill="#ff6968"></path><path d="M 4146 2092 Q 4216 2092 4225 2077 4234 2062 4153 2059 4075 2056 4082 2074 4089 2092 4146 2092" fill="#ffffff"></path><path d="M 642 1873 Q 465 1873 362 1969 245 2078 245 2295 245 2350 361 2402 486 2457 642 2457 794 2457 921 2402 1040 2350 1040 2296 1040 2086 922 1974 816 1873 642 1873" fill="#2d0c00"></path><path d="M 370 2315 Q 250 2252 261 2147 L 253 2196 Q 245 2253 245 2295 245 2350 361 2402 486 2457 642 2457 794 2457 921 2402 1040 2350 1040 2296 1043 2259 1034 2204 L 1024 2157 Q 1028 2246 908 2310 793 2372 642 2372 478 2372 370 2315" fill="#4c1607"></path><path d="M 359 2308 Q 308 2279 281 2282 258 2285 261 2310 270 2373 365 2407 453 2440 440 2393 429 2347 359 2308" fill="#72210b"></path><path d="M 642 1873 Q 467 1873 366 1974 257 2062 351 2154 445 2245 642 2245 841 2245 931 2165 1022 2083 922 1983 816 1873 642 1873" fill="#491e11"></path><path d="M 826 1971 Q 826 1931 772 1902 718 1873 642 1873 566 1873 512 1902 458 1931 458 1971 458 2011 512 2040 566 2069 642 2069 718 2069 772 2040 826 2011 826 1971" fill="#772f18"></path><path d="M 642 1916 Q 784 1916 885 1983 993 2054 1031 2190 1003 2033 893 1949 792 1873 642 1873 491 1873 393 1944 283 2023 254 2182 292 2046 400 1977 498 1916 642 1916" fill="#6a2a15"></path><path d="M 726 1982 Q 864 1912 844 1840 826 1775 772 1770 725 1766 688 1800 659 1740 599 1748 538 1755 526 1824 516 1881 578 1953 656 1959 726 1982" fill="#ff8989"></path><path d="M 819 1918 Q 834 1874 794 1868 758 1862 695 1885 640 1906 624 1932 609 1956 642 1961 L 726 1982 Q 791 1949 819 1918" fill="#ff6a6a"></path><path d="M 772 1803 Q 826 1808 844 1872 L 845 1874 Q 850 1857 844 1840 826 1775 772 1770 725 1766 688 1800 659 1740 599 1748 538 1755 526 1824 523 1840 526 1855 539 1787 599 1780 659 1773 688 1832 725 1799 772 1803" fill="#ffc3c3"></path><path d="M 870 1794 Q 795 1767 726 1845 662 1917 645 2033 630 2132 648 2151 671 2174 783 2176 910 2179 979 2135 1066 2080 1054 1987 1041 1895 948 1895 939 1818 870 1794 M 913 1921 Q 927 1944 905 1980 883 2017 855 1996 826 1974 852 1944 877 1914 913 1921 M 859 1831 Q 901 1853 901 1895 843 1881 815 1933 786 1984 830 2022 872 2058 916 2022 959 1987 949 1931 1029 1950 1015 2021 1001 2093 914 2125 843 2152 755 2140 L 681 2122 Q 676 2092 681 2046 693 1956 749 1882 808 1805 859 1831" fill="#fedac1"></path><path d="M 870 1794 Q 795 1767 726 1845 662 1917 645 2033 630 2132 648 2151 671 2174 783 2176 910 2179 979 2135 1066 2080 1054 1987 1041 1895 948 1895 939 1818 870 1794 M 913 1921 Q 927 1944 905 1980 883 2017 855 1996 826 1974 852 1944 877 1914 913 1921 M 859 1831 Q 901 1853 901 1895 843 1881 815 1933 786 1984 830 2022 872 2058 916 2022 959 1987 949 1931 1029 1950 1015 2021 1001 2093 914 2125 843 2152 755 2140 L 681 2122 Q 676 2092 681 2046 693 1956 749 1882 808 1805 859 1831" fill="#fedac1"></path><path d="M 913 2308 Q 843 2347 832 2393 819 2440 907 2407 1002 2373 1011 2310 1014 2285 991 2282 964 2279 913 2308" fill="#72210b"></path><path d="M 523 2069 Q 490 2113 486 2153 483 2189 503 2201 524 2214 551 2191 584 2164 609 2099 637 2027 598 2023 561 2019 523 2069" fill="#bc6345"></path><path d="M 523 2083 Q 493 2133 534 2137 576 2141 593 2099 617 2040 585 2037 554 2034 523 2083" fill="#ffffff"></path><path d="M 786 1822 Q 833 1802 865 1812 891 1820 913 1854 L 929 1870 942 1868 Q 919 1804 857 1790 788 1775 726 1845 668 1909 648 2011 642 2055 653 2047 663 2039 671 2000 683 1949 707 1904 741 1842 786 1822" fill="#ffffff"></path><path d="M 825 1956 Q 830 1926 875 1910 L 890 1899 Q 892 1894 885 1892 850 1891 826 1918 803 1943 805 1975 810 1977 817 1971 L 825 1956" fill="#ffffff"></path><path d="M 914 2125 Q 843 2152 755 2140 L 681 2122 680 2135 Q 690 2149 743 2155 L 876 2151 Q 942 2138 979 2106 1018 2073 1026 2027 1035 1975 989 1949 1032 1983 1009 2040 986 2098 914 2125" fill="#feb58f"></path><path d="M 586 1750 Q 556 1758 555 1773 554 1789 595 1781 639 1772 631 1756 623 1741 586 1750" fill="#ffffff"></path><path d="M 172 1980 Q 192 2087 435 2079 465 2054 503 2032 L 534 2014 Q 559 1952 564 1894 570 1821 539 1778 485 1703 409 1729 334 1755 334 1842 270 1824 217 1856 156 1894 172 1980" fill="#953f1e"></path><path d="M 191 2019 Q 175 1933 237 1895 289 1863 353 1881 353 1795 427 1768 503 1741 557 1814 L 539 1778 Q 485 1703 409 1729 334 1755 334 1842 270 1824 217 1856 156 1894 172 1980 176 2003 192 2022 L 191 2019" fill="#b76242"></path><path d="M 409 1961 Q 415 2039 436 2078 466 2053 503 2031 L 534 2014 543 1988 544 1986 Q 564 1913 545 1866 529 1826 493 1822 458 1818 433 1853 405 1892 409 1961" fill="#863414"></path><path d="M 391 1738 Q 360 1754 366 1776 L 413 1775 Q 457 1752 446 1733 436 1714 391 1738" fill="#ffffff"></path><path d="M 225 1852 Q 193 1871 194 1888 L 246 1890 Q 296 1875 276 1855 256 1834 225 1852" fill="#ffffff"></path><path d="M 3505 1475 Q 3424 1463 3371 1477 3360 1408 3269 1406 3183 1403 3141 1454 3109 1492 3114 1537 3117 1559 3126 1574 L 3088 1637 Q 3060 1710 3110 1759 3084 1752 3056 1785 3029 1816 3015 1862 2977 1980 3055 1987 L 2968 1992 Q 2931 2006 2939 2069 2949 2136 3027 2152 3094 2167 3153 2142 L 3195 2164 Q 3249 2185 3313 2185 3364 2259 3446 2252 3525 2245 3576 2172 3619 2192 3659 2153 3695 2118 3714 2050 3760 1886 3671 1817 L 3692 1796 Q 3713 1769 3713 1742 3755 1745 3775 1695 3794 1648 3780 1591 3764 1528 3717 1498 3661 1464 3576 1490 L 3505 1475" fill="#6f2d17"></path><path d="M 3505 1475 Q 3424 1463 3371 1477 3360 1408 3269 1406 3183 1403 3141 1454 3119 1480 3115 1512 L 3141 1479 Q 3183 1428 3269 1431 3360 1433 3371 1502 3424 1488 3505 1500 L 3576 1515 Q 3673 1485 3731 1534 3780 1575 3784 1649 3790 1569 3741 1518 3682 1457 3576 1490 L 3505 1475" fill="#aa5a3e"></path><path d="M 3473 1590 Q 3395 1597 3404 1675 3414 1752 3488 1745 3566 1739 3557 1662 3547 1584 3473 1590" fill="#fee0c7"></path><path d="M 3424 1720 Q 3448 1749 3488 1745 3531 1742 3549 1708 3564 1678 3552 1643 3550 1670 3533 1687 3515 1707 3483 1710 3454 1712 3432 1697 3413 1683 3404 1658 3402 1694 3424 1720" fill="#fea475"></path><path d="M 3325 1570 Q 3263 1550 3234 1614 3205 1678 3268 1705 3347 1741 3370 1667 3393 1593 3325 1570" fill="#fee0c7"></path><path d="M 3268 1663 Q 3240 1650 3230 1624 3223 1648 3231 1670 3241 1694 3268 1705 3322 1729 3354 1696 3383 1665 3371 1621 3363 1653 3337 1666 L 3268 1663" fill="#fea475"></path><path d="M 3446 1597 Q 3411 1612 3430 1648 3449 1684 3485 1669 3521 1654 3504 1617 3486 1580 3446 1597" fill="#421809"></path><path d="M 3333 1698 Q 3369 1688 3357 1649 3345 1610 3306 1627 3267 1644 3282 1676 3297 1709 3333 1698" fill="#421809"></path><path d="M 3126 1574 Q 3149 1596 3188 1524 3227 1455 3178 1455 3130 1455 3116 1505 3104 1552 3126 1574" fill="#421809"></path><path d="M 3310 1490 Q 3242 1509 3210 1541 3244 1519 3324 1507 3431 1492 3527 1519 L 3577 1523 Q 3592 1518 3576 1506 3530 1472 3371 1477 L 3310 1490" fill="#aa5a3e"></path><path d="M 3719 1742 Q 3781 1729 3763 1651 3745 1573 3675 1595 3603 1618 3626 1687 3649 1756 3719 1742" fill="#421809"></path><path d="M 3154 1952 Q 3136 1952 3133 2005 3129 2066 3153 2142 3168 2153 3198 2165 3251 2185 3313 2185 L 3345 2221 Q 3317 2192 3319 2158 3324 2090 3493 2059 3519 2034 3512 1929 3490 1966 3428 1990 3367 2015 3300 2015 3246 2015 3199 1984 L 3154 1952" fill="#58220f"></path><path d="M 3333 2134 Q 3359 2099 3390 2090 3419 2081 3423 2074 3437 2053 3428 2044 3419 2035 3368 2053 3305 2075 3260 2070 3211 2064 3175 2038 3145 2015 3140 2016 3119 2020 3156 2073 3194 2130 3258 2138 L 3333 2134" fill="#421809"></path><path d="M 3550 1561 Q 3572 1538 3642 1517 3685 1503 3654 1490 3609 1470 3567 1504 3526 1537 3550 1561" fill="#d57a5a"></path><path d="M 3586 1980 Q 3640 1987 3655 1913 3669 1840 3633 1829 3597 1818 3565 1896 3533 1973 3586 1980" fill="#aa5a3e"></path><path d="M 3164 1844 Q 3159 1814 3151 1814 3142 1814 3127 1859 3109 1911 3090 1930 3063 1958 3037 1938 3011 1918 3011 1872 L 2980 1922 Q 2967 1974 3055 1987 3145 2001 3163 1908 3169 1876 3164 1844" fill="#421809"></path><path d="M 2999 2144 Q 3033 2158 3079 2157 3121 2155 3153 2142 L 3160 2037 Q 3044 2013 2990 2061 2970 2080 2969 2102 2967 2124 2985 2136 L 2999 2144" fill="#58220f"></path><path d="M 3116 1759 Q 3196 1862 3329 1881 3456 1899 3585 1835 L 3317 1826 Q 3250 1812 3116 1759" fill="#421809"></path><path d="M 3574 1844 Q 3543 1870 3520 1912 3491 1963 3492 2036 3493 2136 3576 2172 3623 2193 3665 2148 3703 2106 3719 2031 3711 2059 3693 2078 3659 2117 3601 2109 3535 2100 3542 1997 3547 1908 3586 1854 3604 1817 3574 1844" fill="#421809"></path><path d="M 3360 2231 Q 3309 2198 3342 2144 3374 2092 3430 2092 3474 2092 3491 2104 3500 2109 3499 2115 3503 2096 3497 2075 3483 2035 3428 2029 3342 2020 3309 2100 3275 2183 3360 2231" fill="#aa5a3e"></path><path d="M 3038 1810 Q 3003 1853 3040 1864 3076 1874 3103 1824 3136 1764 3107 1762 3079 1759 3038 1810" fill="#aa5a3e"></path><path d="M 3237 1919 Q 3241 1955 3255 1978 3266 1998 3275 1998 L 3310 1988 3310 2012 Q 3308 2037 3320 2039 3330 2042 3331 2016 3332 1985 3338 1979 L 3367 1954 Q 3402 1919 3372 1899 3342 1879 3305 1917 3305 1865 3269 1872 3232 1878 3237 1919" fill="#fee0c7"></path><path d="M 3273 1574 Q 3250 1586 3260 1607 3269 1628 3298 1616 3327 1604 3311 1583 3296 1561 3273 1574" fill="#ffffff"></path><path d="M 3445 1605 Q 3422 1617 3429 1635 3436 1653 3465 1641 3494 1629 3481 1611 3468 1592 3445 1605" fill="#6f2d17"></path><path d="M 3327 1495 Q 3261 1520 3292 1552 3323 1583 3396 1557 3470 1531 3433 1500 3395 1469 3327 1495" fill="#d57a5a"></path><path d="M 3353 1505 Q 3325 1514 3333 1527 3341 1541 3373 1533 3406 1525 3394 1510 3383 1496 3353 1505" fill="#ffffff"></path><path d="M 3055 1987 L 3028 1987 2980 1989 Q 2955 1994 2946 2010 2934 2029 2939 2069 L 2942 2082 2951 2104 Q 2938 2064 2957 2045 2977 2024 3036 2024 3087 2024 3088 2006 3090 1988 3050 1986 L 3055 1987" fill="#aa5a3e"></path><path d="M 3132 2044 Q 3044 2054 3034 2091 3024 2127 3118 2119 3207 2111 3201 2074 3195 2037 3132 2044" fill="#421809"></path><path d="M 3386 2048 Q 3355 2057 3347 2080 3339 2103 3386 2089 3435 2075 3431 2056 3426 2038 3386 2048" fill="#ffffff"></path><path d="M 3591 1872 Q 3578 1901 3591 1914 3603 1927 3616 1889 3629 1851 3616 1848 3603 1845 3591 1872" fill="#ffffff"></path><path d="M 3062 1785 Q 3041 1806 3049 1819 3058 1832 3081 1809 3103 1787 3092 1776 3081 1766 3062 1785" fill="#ffffff"></path><path d="M 2980 1989 Q 2958 1991 2958 2007 2959 2022 2990 2015 3023 2008 3020 1998 3016 1988 2980 1989" fill="#ffffff"></path></g><path id="cid_57" d="M 1004 567 Q 1004 381 878 332 L 2 0 0 677 1005 1213 1004 567" viewBox="0 0 1005 1213" fill="#ffffff"></path><path id="cid_59" d="M 132 373 L 645 106 645 0 0 331 132 373" viewBox="0 0 645 373" fill="#ffffff"></path><path id="cid_61" d="M 0 400 L 55 418 803 36 803 0 0 400" viewBox="0 0 803 418" fill="#ffffff"></path><path id="cid_63" d="M 0 295 L 43 318 457 50 457 0 0 295" viewBox="0 0 457 318" fill="#ffffff"></path><path id="cid_65" d="M 0 213 L 91 262 321 103 320 0 0 213" viewBox="0 0 321 262" fill="#ffffff"></path><path id="cid_67" d="M 993 1948 Q 783 1997 750 2031 719 2063 1023 1985 1324 1907 1266 1902 1209 1897 993 1948" viewBox="747 1902 1275 2040" fill="#ffffff"></path><path id="cid_68" d="M 4838 387 L 2597 14 2416 0 2275 9 0 387 0 608 501 797 Q 629 848 629 1034 L 630 1679 2419 1107 4206 1679 4207 1034 Q 4207 848 4335 797 L 4838 608 4838 387" viewBox="0 0 4838 1679" fill="#ffffff"></path><path id="cid_70" d="M 20 628 L 521 817 Q 649 868 649 1054 L 650 1699 2439 1127 4226 1699 4227 1054 Q 4227 868 4355 817 L 4858 628 M 4858 407 L 2617 34 2436 20 2295 29 20 407" viewBox="0 0 4878 1719" fill="none" stroke="#ffffff" stroke-width="40" stroke-linecap="round" stroke-linejoin="round"></path><path id="cid_72" d="M 128 183 Q 1 232 1 418 L 0 1064 612 739 608 0 128 183" viewBox="0 0 612 1064" fill="#ffffff"></path><path id="cid_74" d="M 3578 417 L 1983 23 Q 1900 0 1790 0 L 1660 10 0 417 1 1076 1790 504 3577 1076 3578 417" viewBox="0 0 3578 1076" fill="#ffffff"></path><path id="cid_76" d="M 3470 386 Q 3390 340 3229 303 L 1933 14 Q 1887 0 1807 0 L 1715 7 276 327 Q 111 367 41 411 -20 449 8 477 35 505 128 508 228 511 353 483 L 1693 153 1863 143 1933 156 3098 443 Q 3273 486 3392 488 3498 489 3520 458 3542 428 3470 386" viewBox="-1 0 3525 508" fill="#ffffff"></path><g id="cid_78" viewBox="-334 1229 5134 3008"><path d="M 3746 1948 Q 3530 1897 3473 1902 3415 1907 3716 1985 4020 2063 3989 2031 3956 1997 3746 1948" fill="#ffffff"></path><path d="M 2396 1637 Q 2317 1637 2188 1674 2067 1709 2067 1723 L 2171 1711 Q 2305 1686 2395 1686 2478 1686 2619 1718 2723 1741 2725 1727 2727 1704 2604 1671 2481 1637 2396 1637" fill="#ffffff"></path><path d="M 942 1441 Q 910 1425 626 1472 298 1527 297 1548 297 1569 640 1512 973 1456 942 1441" fill="#ffffff"></path><path d="M 1867 1308 Q 2241 1249 2201 1233 2161 1217 1857 1263 1472 1321 1474 1345 1477 1369 1867 1308" fill="#ffffff"></path><path d="M -30 2295 L -30 2666 540 2984 540 2571 -30 2295" fill="#230b00"></path><path d="M 2400 2082 L 672 2581 672 3000 2400 2421 2400 2082" fill="#371001"></path><path d="M -30 2251 L -30 2295 540 2571 610 2551 -30 2251" fill="#e2a20f"></path><path d="M 2399 2044 L 610 2551 671 2580 2399 2082 2399 2044" fill="#e2a20f"></path><path d="M 540 2571 L 540 2984 672 3001 672 2581 540 2571" fill="#5b1c03"></path><path d="M -30 2295 L -30 2666 540 2984 540 2571 -30 2295" fill="#280b00"></path><path d="M 2400 2082 L 672 2581 672 3000 2400 2421 2400 2082" fill="#371001"></path><path d="M 540 2571 L 540 2984 672 3001 672 2581 540 2571" fill="#5b1c03"></path><path d="M 540 2525 L 540 2571 672 2581 672 2534 540 2525" fill="#e2a20f"></path><path d="M 4258 2984 L 4830 2666 4830 2295 4258 2571 4258 2984" fill="#230b00"></path><path d="M 2399 2082 L 2399 2421 4126 3000 4126 2581 2399 2082" fill="#371001"></path><path d="M 4830 2251 L 4188 2551 4258 2571 4830 2295 4830 2251" fill="#e2a20f"></path><path d="M 2400 2044 L 2399 2082 4127 2580 4188 2551 2400 2044" fill="#e2a20f"></path><path d="M 4258 2571 L 4126 2581 4126 3001 4258 2984 4258 2571" fill="#5b1c03"></path><path d="M 4258 2525 L 4126 2534 4126 2581 4258 2571 4258 2525" fill="#e2a20f"></path><path d="M 1946 2272 L 1888 2230 1888 2602 1945 2601 1946 2272" fill="#230b01"></path><path d="M 1946 2272 L 2399 2139 2393 2084 1888 2230 1946 2272" fill="#7f3314"></path><path d="M 2400 2447 L 2399 2139 1946 2272 1945 2601 2400 2447" fill="#4c1b09"></path><path d="M 1999 2299 L 2030 2325 2336 2231 2370 2187 1999 2299" fill="#130600"></path><path d="M 2370 2187 L 2336 2226 2336 2399 2369 2414 2370 2187" fill="#68280f"></path><path d="M 2369 2414 L 2336 2399 2030 2500 1999 2537 2369 2414" fill="#7f3314"></path><path d="M 1999 2299 L 1999 2537 2030 2500 2030 2325 1999 2299" fill="#280b00"></path><path d="M 1388 2433 L 1325 2393 1325 2789 1388 2788 1388 2433" fill="#230b01"></path><path d="M 1893 2228 L 1325 2393 1392 2436 1922 2279 1893 2228" fill="#7f3314"></path><path d="M 1921 2609 L 1922 2279 1388 2437 1388 2790 1921 2609" fill="#4c1b09"></path><path d="M 1871 2366 L 1872 2332 1449 2465 1481 2494 1871 2366" fill="#130600"></path><path d="M 1871 2339 L 1834 2378 1834 2564 1871 2580 1871 2339" fill="#68280f"></path><path d="M 1834 2564 L 1481 2681 1449 2721 1871 2580 1834 2564" fill="#7f3314"></path><path d="M 1481 2494 L 1449 2465 1449 2721 1481 2683 1481 2494" fill="#280b00"></path><path d="M 672 2581 L 672 3001 744 3008 744 2628 672 2581" fill="#230b01"></path><path d="M 1325 2393 L 672 2581 744 2628 1357 2447 1325 2393" fill="#7f3314"></path><path d="M 744 2628 L 744 3008 1357 2800 1357 2447 744 2628" fill="#4c1b09"></path><path d="M 812 2658 L 851 2687 1299 2549 1299 2510 812 2658" fill="#130600"></path><path d="M 1299 2518 L 1257 2564 1257 2755 1298 2771 1299 2518" fill="#68280f"></path><path d="M 851 2888 L 812 2933 1299 2771 1257 2755 851 2888" fill="#7f3314"></path><path d="M 812 2658 L 812 2933 851 2888 851 2687 812 2658" fill="#280b00"></path><path d="M 2852 2272 L 2852 2601 2909 2602 2909 2230 2852 2272" fill="#230b01"></path><path d="M 2852 2272 L 2909 2230 2404 2084 2398 2139 2852 2272" fill="#7f3314"></path><path d="M 2398 2447 L 2852 2601 2852 2272 2398 2139 2398 2447" fill="#4c1b09"></path><path d="M 2798 2299 L 2427 2187 2461 2231 2767 2325 2798 2299" fill="#130600"></path><path d="M 2427 2187 L 2428 2414 2461 2399 2461 2226 2427 2187" fill="#280b00"></path><path d="M 2428 2414 L 2798 2537 2767 2500 2461 2399 2428 2414" fill="#7f3314"></path><path d="M 2798 2299 L 2767 2325 2767 2500 2798 2537 2798 2299" fill="#68280f"></path><path d="M 35 2384 L 35 2730 97 2734 97 2357 35 2384" fill="#230b01"></path><path d="M 35 2384 L 97 2357 -317 2157 -334 2207 35 2384" fill="#7f3314"></path><path d="M -334 2207 L -334 2522 35 2730 35 2384 -334 2207" fill="#4c1b09"></path><path d="M -14 2402 L -291 2265 -285 2305 -41 2429 -14 2402" fill="#280b00"></path><path d="M -267 2277 L -299 2260 -300 2494 -267 2487 -267 2277" fill="#280b00"></path><path d="M -300 2494 L -14 2652 -41 2610 -267 2487 -300 2494" fill="#7f3314"></path><path d="M -14 2402 L -41 2420 -41 2610 -14 2652 -14 2402" fill="#280b00"></path><path d="M 540 2571 L 473 2600 473 2977 540 2982 540 2571" fill="#230b01"></path><path d="M 88 2353 L 69 2407 473 2600 540 2571 88 2353" fill="#7f3314"></path><path d="M 69 2750 L 473 2977 473 2600 69 2407 69 2750" fill="#4c1b09"></path><path d="M 122 2514 L 389 2649 418 2619 116 2470 122 2514" fill="#130600"></path><path d="M 107 2720 L 143 2712 143 2483 107 2465 107 2720" fill="#280b00"></path><path d="M 107 2720 L 418 2892 389 2846 143 2712 107 2720" fill="#7f3314"></path><path d="M 418 2619 L 389 2639 389 2846 418 2892 418 2619" fill="#280b00"></path><path d="M 4764 2384 L 4702 2357 4702 2734 4764 2730 4764 2384" fill="#230b01"></path><path d="M 5117 2157 L 4702 2357 4764 2384 5134 2207 5117 2157" fill="#7f3314"></path><path d="M 5134 2522 L 5134 2207 4764 2384 4764 2730 5134 2522" fill="#4c1b09"></path><path d="M 4814 2402 L 4841 2429 5085 2305 5091 2265 4814 2402" fill="#280b00"></path><path d="M 5067 2277 L 5067 2487 5100 2494 5100 2260 5067 2277" fill="#280b00"></path><path d="M 5100 2494 L 5067 2487 4841 2610 4814 2652 5100 2494" fill="#7f3314"></path><path d="M 4814 2402 L 4814 2652 4841 2610 4841 2420 4814 2402" fill="#280b00"></path><path d="M 4259 2571 L 4259 2982 4326 2977 4326 2600 4259 2571" fill="#230b01"></path><path d="M 4712 2353 L 4259 2571 4326 2600 4730 2407 4712 2353" fill="#7f3314"></path><path d="M 4326 2600 L 4326 2977 4730 2750 4730 2407 4326 2600" fill="#4c1b09"></path><path d="M 4381 2619 L 4410 2649 4677 2514 4683 2470 4381 2619" fill="#130600"></path><path d="M 4692 2720 L 4692 2465 4657 2483 4656 2712 4692 2720" fill="#280b00"></path><path d="M 4692 2720 L 4656 2712 4410 2846 4381 2892 4692 2720" fill="#7f3314"></path><path d="M 4381 2619 L 4381 2892 4410 2846 4410 2639 4381 2619" fill="#280b00"></path><path d="M 3409 2433 L 3409 2788 3472 2789 3472 2393 3409 2433" fill="#230b01"></path><path d="M 3405 2436 L 3472 2393 2904 2228 2875 2279 3405 2436" fill="#7f3314"></path><path d="M 2875 2279 L 2876 2609 3409 2790 3409 2437 2875 2279" fill="#4c1b09"></path><path d="M 2926 2366 L 3316 2494 3348 2465 2925 2332 2926 2366" fill="#130600"></path><path d="M 2963 2378 L 2926 2339 2926 2580 2963 2564 2963 2378" fill="#280b00"></path><path d="M 2926 2580 L 3348 2721 3316 2681 2963 2564 2926 2580" fill="#7f3314"></path><path d="M 3316 2494 L 3317 2683 3348 2721 3348 2465 3316 2494" fill="#68280f"></path><path d="M 4125 2581 L 4053 2628 4053 3008 4125 3001 4125 2581" fill="#230b01"></path><path d="M 3473 2393 L 3440 2447 4053 2628 4125 2581 3473 2393" fill="#7f3314"></path><path d="M 3441 2800 L 4053 3008 4053 2628 3440 2447 3441 2800" fill="#4c1b09"></path><path d="M 3985 2658 L 3498 2510 3498 2549 3946 2687 3985 2658" fill="#130600"></path><path d="M 3498 2518 L 3499 2771 3540 2755 3540 2564 3498 2518" fill="#280b00"></path><path d="M 3498 2771 L 3985 2933 3946 2888 3540 2755 3498 2771" fill="#7f3314"></path><path d="M 3985 2658 L 3946 2687 3946 2888 3985 2933 3985 2658" fill="#68280f"></path><path d="M 1237 2404 Q 1456 2340 1441 2333 1425 2325 1224 2382 1031 2436 1025 2452 1020 2468 1237 2404" fill="#fef89d"></path><path d="M 855 2533 Q 692 2579 732 2597 771 2614 927 2568 1085 2521 1056 2503 1028 2484 855 2533" fill="#ac512d"></path><path d="M 873 2541 Q 791 2564 811 2573 831 2582 910 2559 990 2535 975 2526 961 2517 873 2541" fill="#f4885e"></path><path d="M 1479 2353 Q 1373 2383 1396 2401 1420 2420 1545 2383 1674 2346 1636 2332 1598 2319 1479 2353" fill="#ac512d"></path><path d="M 1498 2360 Q 1444 2376 1456 2385 1468 2395 1532 2376 1598 2357 1578 2350 1559 2342 1498 2360" fill="#f4885e"></path><path d="M 2023 2195 Q 1941 2217 1952 2238 1963 2258 2073 2226 2187 2193 2157 2180 2127 2167 2023 2195" fill="#ac512d"></path><path d="M 351 2530 Q 457 2580 475 2564 493 2548 399 2503 314 2462 284 2474 255 2485 351 2530" fill="#ac512d"></path><path d="M 365 2525 Q 416 2548 425 2541 433 2534 388 2512 348 2492 334 2498 320 2504 365 2525" fill="#e78159"></path><path d="M 960 2724 Q 982 2693 1021 2668 1056 2646 1092 2637 L 1097 2636 1087 2649 Q 1055 2695 1038 2742 L 1013 2805 Q 996 2834 971 2841 946 2848 936 2824 918 2782 960 2724 M 1015 2667 Q 972 2692 943 2725 913 2760 905 2790 899 2817 911 2834 927 2857 971 2845 1008 2835 1042 2798 1073 2762 1088 2717 L 1115 2642 1120 2635 Q 1142 2638 1144 2658 1145 2672 1135 2686 L 1113 2704 1100 2706 1092 2711 1103 2713 1112 2709 Q 1118 2706 1131 2709 1145 2713 1150 2725 1158 2748 1144 2772 1131 2795 1109 2800 1094 2804 1091 2796 L 1099 2784 Q 1110 2776 1106 2766 1103 2754 1087 2758 1062 2765 1065 2787 1067 2800 1081 2804 L 1110 2803 1111 2803 Q 1150 2793 1173 2770 1196 2747 1187 2723 1183 2709 1164 2704 1146 2699 1122 2704 L 1161 2683 Q 1179 2668 1176 2651 1170 2625 1124 2628 1135 2611 1149 2600 1167 2587 1188 2582 L 1218 2583 1221 2585 1219 2581 1186 2579 Q 1163 2584 1142 2598 L 1102 2631 1096 2632 Q 1057 2641 1015 2667" fill="#2a0d04"></path><path d="M 2207 2301 L 2211 2300 2203 2310 Q 2177 2348 2164 2385 L 2144 2435 Q 2131 2459 2110 2464 2090 2469 2082 2450 2068 2416 2101 2370 2119 2345 2150 2325 2179 2307 2207 2301 M 2233 2293 L 2253 2271 Q 2264 2262 2284 2256 L 2308 2257 2310 2258 2309 2256 2282 2254 Q 2264 2257 2247 2269 L 2215 2295 2210 2296 Q 2178 2304 2145 2324 2111 2344 2088 2371 2040 2426 2062 2458 2075 2476 2110 2467 2140 2459 2167 2429 2192 2401 2204 2365 L 2225 2304 2229 2298 Q 2247 2301 2249 2317 2249 2328 2241 2339 L 2224 2354 2213 2355 2207 2360 2215 2361 2223 2358 2238 2358 Q 2250 2361 2253 2371 2260 2389 2249 2408 2238 2426 2221 2431 2209 2435 2206 2428 2205 2424 2213 2418 2222 2412 2218 2403 2215 2395 2203 2397 2183 2402 2185 2421 2188 2442 2222 2434 L 2222 2433 Q 2253 2425 2271 2407 2290 2388 2283 2369 2279 2358 2265 2354 2250 2350 2231 2354 2250 2348 2262 2337 2276 2325 2274 2312 2270 2290 2233 2293" fill="#2a0d04"></path><path d="M 4545 2610 L 4549 2609 4544 2620 Q 4528 2662 4523 2702 L 4515 2757 Q 4508 2782 4489 2790 4472 2799 4460 2779 L 4459 2779 Q 4439 2744 4459 2693 4470 2666 4496 2642 4520 2620 4545 2610 M 4609 2556 L 4633 2554 4636 2555 4634 2552 4607 2553 Q 4590 2560 4577 2573 L 4552 2603 4548 2605 Q 4519 2616 4492 2640 4463 2666 4447 2696 4413 2759 4441 2789 4458 2808 4490 2793 4517 2782 4536 2748 4554 2715 4558 2677 L 4564 2612 4567 2605 Q 4585 2607 4590 2623 4593 2634 4588 2647 4583 2659 4574 2664 L 4564 2666 Q 4558 2669 4559 2672 L 4568 2672 4574 2668 4589 2666 Q 4601 2668 4606 2678 4617 2697 4611 2718 4605 2738 4589 2744 4578 2751 4574 2742 4573 2739 4578 2732 4586 2724 4580 2716 4576 2707 4564 2711 L 4553 2721 Q 4549 2729 4552 2737 4560 2759 4590 2747 L 4591 2747 Q 4619 2735 4633 2714 4646 2692 4635 2673 4629 2662 4614 2659 L 4581 2663 4607 2642 Q 4618 2627 4613 2614 4604 2592 4569 2599 4576 2581 4583 2574 L 4609 2556" fill="#2a0d04"></path><path d="M 1743 2441 Q 1717 2420 1681 2428 1646 2436 1621 2469 1595 2502 1596 2540 1596 2579 1622 2601 1647 2623 1683 2615 1719 2607 1744 2574 1769 2541 1768 2502 1768 2463 1743 2441" fill="#2a0d04"></path><path d="M 1697 2477 L 1693 2466 1682 2464 Q 1667 2467 1667 2483 1667 2499 1682 2496 L 1693 2490 1697 2477" fill="#4c1b09"></path><path d="M 1663 2523 Q 1663 2516 1659 2512 L 1648 2510 Q 1633 2514 1633 2529 1633 2546 1648 2542 1663 2540 1663 2523" fill="#4c1b09"></path><path d="M 1731 2508 L 1727 2497 1716 2495 Q 1701 2497 1701 2514 1701 2530 1716 2527 L 1727 2521 1731 2508" fill="#4c1b09"></path><path d="M 3114 2470 L 3173 2480 3177 2482 3168 2487 Q 3134 2510 3114 2540 L 3083 2580 Q 3066 2596 3045 2589 3024 2582 3022 2557 L 3021 2557 Q 3017 2512 3058 2485 3080 2471 3114 2470 M 3255 2478 L 3218 2472 3182 2479 3177 2477 Q 3146 2465 3110 2465 3073 2465 3045 2478 3015 2492 3004 2514 2994 2532 3001 2552 3009 2580 3044 2592 L 3106 2588 Q 3137 2574 3156 2545 L 3190 2495 3195 2492 Q 3211 2505 3209 2523 3207 2535 3197 2542 L 3177 2546 3167 2541 3160 2541 3168 2548 3175 2549 Q 3182 2551 3190 2559 L 3201 2582 Q 3203 2605 3188 2618 3174 2630 3157 2624 3144 2620 3144 2612 L 3152 2606 Q 3161 2604 3161 2594 3159 2582 3148 2578 L 3133 2579 Q 3127 2582 3126 2591 3123 2615 3157 2627 L 3210 2631 Q 3232 2623 3230 2599 3229 2586 3216 2572 L 3184 2550 3217 2552 Q 3233 2548 3234 2533 3235 2509 3200 2488 3210 2480 3223 2477 L 3256 2482 Q 3269 2486 3279 2498 L 3280 2501 Q 3284 2501 3280 2497 3273 2484 3255 2478" fill="#2a0d04"></path><path d="M 2529 2342 Q 2529 2377 2551 2407 2574 2436 2606 2443 2638 2451 2661 2431 2684 2412 2684 2377 2684 2342 2662 2313 2639 2283 2607 2276 2575 2269 2552 2288 2529 2307 2529 2342" fill="#2a0d04"></path><path d="M 2593 2320 Q 2593 2335 2607 2337 2620 2341 2620 2326 2620 2312 2607 2308 L 2597 2310 2593 2320" fill="#4c1b09"></path><path d="M 2623 2361 Q 2623 2376 2637 2379 2650 2381 2650 2367 2650 2353 2637 2349 2623 2347 2623 2361" fill="#4c1b09"></path><path d="M 2563 2347 Q 2563 2363 2576 2365 2590 2369 2590 2354 2590 2338 2576 2336 L 2567 2338 Q 2563 2341 2563 2347" fill="#4c1b09"></path><path d="M 3648 2702 Q 3648 2741 3674 2774 3699 2808 3735 2816 3771 2824 3797 2802 3823 2780 3823 2741 3824 2702 3798 2668 3773 2635 3736 2627 3700 2619 3674 2641 3648 2662 3648 2702" fill="#2a0d04"></path><path d="M 3721 2676 Q 3720 2683 3725 2689 L 3736 2696 3747 2694 3751 2683 Q 3751 2666 3736 2663 L 3726 2665 Q 3721 2669 3721 2676" fill="#4c1b09"></path><path d="M 3755 2723 Q 3755 2740 3770 2743 L 3781 2741 3785 2730 Q 3785 2713 3770 2710 L 3760 2712 Q 3755 2716 3755 2723" fill="#4c1b09"></path><path d="M 3686 2708 Q 3686 2724 3701 2728 3717 2730 3717 2714 3717 2698 3702 2694 L 3691 2697 Q 3686 2701 3686 2708" fill="#4c1b09"></path><path d="M 182 2657 Q 181 2695 203 2729 225 2762 257 2771 290 2780 314 2760 339 2739 340 2701 342 2663 319 2629 297 2596 265 2587 232 2578 208 2599 184 2619 182 2657" fill="#2a0d04"></path><path d="M 249 2635 Q 247 2651 262 2655 L 272 2653 276 2642 273 2630 Q 269 2625 263 2623 L 253 2625 249 2635" fill="#4c1b09"></path><path d="M 278 2681 Q 278 2697 291 2701 304 2704 306 2689 306 2673 293 2669 280 2666 278 2681" fill="#4c1b09"></path><path d="M 217 2664 Q 215 2680 230 2684 L 240 2682 244 2672 Q 246 2656 231 2652 217 2649 217 2664" fill="#4c1b09"></path><path d="M 305 2458 Q 437 2521 460 2516 483 2512 333 2439 183 2365 179 2380 175 2396 305 2458" fill="#fef89d"></path><path d="M 3576 2382 Q 3375 2325 3360 2333 3344 2340 3563 2404 3780 2468 3775 2452 3769 2436 3576 2382" fill="#fef89d"></path><path d="M 3945 2533 Q 3772 2484 3744 2503 3715 2521 3873 2568 4029 2614 4068 2597 4108 2579 3945 2533" fill="#ac512d"></path><path d="M 3926 2541 Q 3839 2517 3825 2526 3811 2535 3890 2559 3969 2582 3989 2573 4009 2564 3926 2541" fill="#f4885e"></path><path d="M 3321 2353 Q 3203 2319 3164 2332 3126 2346 3254 2383 3380 2420 3403 2401 3427 2383 3321 2353" fill="#ac512d"></path><path d="M 3302 2360 Q 3241 2342 3222 2350 3202 2357 3268 2376 3332 2395 3344 2385 3356 2376 3302 2360" fill="#f4885e"></path><path d="M 2777 2195 Q 2673 2167 2643 2180 2613 2193 2727 2226 2837 2258 2848 2238 2859 2217 2777 2195" fill="#ac512d"></path><path d="M 4449 2530 Q 4545 2485 4515 2474 4486 2462 4400 2503 4306 2548 4324 2564 4343 2580 4449 2530" fill="#ac512d"></path><path d="M 4435 2525 Q 4481 2504 4466 2498 4452 2492 4412 2512 4367 2534 4376 2541 4384 2548 4435 2525" fill="#e78159"></path><path d="M 4467 2439 Q 4317 2512 4340 2516 4363 2521 4495 2458 4625 2396 4621 2380 4617 2365 4467 2439" fill="#fef89d"></path><path d="M 610 2576 Q 666 2576 670 2564 673 2552 615 2552 555 2552 552 2564 549 2576 610 2576" fill="#fef89d"></path><path d="M 4193 2576 Q 4253 2576 4252 2562 4251 2547 4191 2547 4133 2547 4137 2562 4141 2576 4193 2576" fill="#fef89d"></path></g><path id="cid_79" d="M 300 -50 L 300 -1550 0 -800 300 -50 -300 -50 -300 -1550 300 -1550 M -300 -50 L 0 -800 -300 -1550" viewBox="-350 -1600 350 0" fill="none" stroke="#ff0000" stroke-width="100" stroke-linecap="round" stroke-linejoin="round"></path><use id="cid_32" transform="matrix(20,0,0,20,-800,-1600)" xlink:href="#cid_31" viewBox="-800 -1600 800 0"></use><use id="cid_35" transform="matrix(20,0,0,20,-800,-1600)" xlink:href="#cid_34" viewBox="-800 -1600 800 0"></use><use id="cid_38" transform="matrix(20,0,0,20,-800,-1600)" xlink:href="#cid_37" viewBox="-800 -1600 800 0"></use><use id="cid_41" transform="matrix(20,0,0,20,-800,-1600)" xlink:href="#cid_40" viewBox="-800 -1600 800 0"></use><use id="cid_44" transform="matrix(20,0,0,20,-800,-1600)" xlink:href="#cid_43" viewBox="-800 -1600 800 0"></use><path id="cid_46" d="M 391 -353 L 278 -353 206 1 Q 113 7 57 71 0 134 0 226 0 318 57 381 119 452 226 452 333 452 395 381 452 318 452 226 452 134 395 71 368 40 333 23 L 391 -353" viewBox="0 -353 452 452" fill="#f9f4a8"></path><path id="cid_83" d="M 380 274 L 230 46 Q 179 -36 33 27 -21 80 13 184 47 288 174 417 L 380 274" viewBox="0 0 380 417" fill="#ff0302"></path><g id="cid_82" viewBox="0 0 780 1101"><path d="M 0 830 L 780 825 744 324 Q 733 190 640 94 547 0 428 0 L 344 1 Q 224 1 132 98 41 194 31 328 L 0 830" fill="#ff0302"></path><path d="M 0 830 Q 9 946 84 1023 160 1101 266 1101 L 518 1099 Q 624 1098 699 1019 774 940 780 825 L 0 830" fill="#062244"></path></g><g id="cid_81" viewBox="-206 -253 1638 1586"><path d="M 427 1144 Q 556 1201 733 1201 910 1201 1044 1169 1110 1152 1141 1136 L 336 1085 427 1144" fill="#faf1a6"></path><path d="M 824 -251 Q 557 -265 350 -166 152 -71 43 109 -65 291 -60 522 -55 764 73 1021 270 1147 770 1161 1254 1176 1346 1084 1483 947 1532 726 1581 507 1523 294 1461 65 1296 -76 1108 -236 824 -251" fill="#582f01"></path><path d="M 175 330 Q 238 393 330 226 365 162 380 102 396 40 378 27 360 15 309 45 258 75 215 124 99 254 175 330" fill="#be8550"></path><path d="M 370 354 Q 407 391 459 294 511 198 486 180 459 162 393 235 326 310 370 354" fill="#be8550"></path><path d="M 6 184 Q -73 140 -96 260 -107 319 -103 388 -103 410 -142 459 -166 513 -101 577 1 679 299 726 583 770 634 718 L 634 459 Q 618 421 529 392 493 381 337 345 57 280 6 184" fill="#dddddd"></path><path d="M 1473 156 Q 1420 253 1084 331 895 375 854 388 746 421 730 459 L 730 718 Q 783 771 1129 726 1490 679 1591 577 1655 513 1631 459 1592 410 1592 388 1596 309 1582 240 1554 102 1473 156" fill="#dddddd"></path><path d="M 548 541 Q 373 542 171 484 70 455 4 426 186 546 385 555 485 561 548 541" fill="#909090"></path><path d="M 868 528 L 912 539 1031 549 Q 1231 551 1417 440 1351 465 1248 490 1044 537 868 528" fill="#909090"></path><path d="M 511 388 Q 419 338 341 471 268 598 246 814 214 1120 34 1312 -80 1432 -206 1475 L -19 1470 Q 178 1474 221 1516 317 1422 369 1345 487 1171 502 974 516 805 551 738 L 583 706 511 388" fill="#ececec"></path><path d="M 876 436 L 802 700 841 724 Q 879 776 879 907 L 870 1216 Q 877 1465 960 1578 1041 1599 1161 1562 1308 1519 1390 1519 1284 1505 1207 1232 1144 1008 1144 830 1144 667 1083 548 1008 401 876 436" fill="#ececec"></path><path d="M 516 483 Q 429 542 395 626 368 697 388 740 409 784 449 746 495 703 529 568 L 516 483" fill="#c8c8c8"></path><path d="M 859 480 L 846 568 Q 903 709 955 753 999 791 1012 745 1024 699 989 626 946 540 859 480" fill="#c8c8c8"></path><path d="M 876 436 Q 866 364 797 362 L 708 375 679 346 Q 654 317 580 317 536 317 513 386 491 452 498 540 517 764 659 785 786 803 845 634 887 510 876 436" fill="#f6f6f6"></path><path d="M 677 626 Q 694 645 728 511 759 383 708 375 664 368 662 491 659 609 677 626" fill="#dddddd"></path></g></defs></svg>
