<?xml version="1.0" encoding="utf-8"?>
<!DOCTYPE svg PUBLIC "-//W3C//DTD SVG 1.1//EN" "http://www.w3.org/Graphics/SVG/1.1/DTD/svg11.dtd">
<svg xmlns="http://www.w3.org/2000/svg" xmlns:xlink="http://www.w3.org/1999/xlink" version="1.1" width="4800" height="3600"><defs><use id="cid_55" transform="matrix(20,0,0,20,0,0)" xlink:href="#cid_54" viewBox="0 0 4800 3600"></use><g id="cid_56" viewBox="170 1431 4626 2865"><path d="M 1571 2485 Q 1378 2457 1111 2482 844 2507 659 2569 475 2631 480 2695 486 2758 679 2785 872 2813 1139 2788 1405 2763 1591 2701 1775 2638 1770 2575 1764 2512 1571 2485" fill="#beb5a8"></path><path d="M 1111 2482 Q 898 2501 733 2547 L 1190 2744 1767 2564 Q 1744 2506 1555 2482 1365 2458 1111 2482 M 1036 2795 L 1139 2788 1262 2773 1198 2745 1036 2795" fill="#21222a"></path><path d="M 2241 2426 Q 2241 2389 2146 2364 2051 2338 1916 2338 1781 2338 1686 2364 1591 2389 1591 2426 1591 2462 1686 2488 1781 2513 1916 2513 2050 2513 2146 2488 2241 2462 2241 2426" fill="#beb5a8"></path><path d="M 2240 2421 L 1935 2513 Q 2063 2511 2152 2486 2241 2460 2241 2426 L 2240 2421 M 1772 2504 L 1596 2441 Q 1624 2485 1772 2504" fill="#21222a"></path><path d="M 3200 2550 Q 3200 2525 3143 2508 3086 2490 3005 2490 2924 2490 2867 2508 2810 2525 2810 2550 2810 2575 2867 2592 2924 2610 3005 2610 3086 2610 3143 2592 3200 2575 3200 2550" fill="#beb5a8"></path><path d="M 3123 2502 L 2990 2551 3132 2595 Q 3200 2577 3200 2550 3200 2520 3123 2502 M 2810 2550 Q 2810 2576 2872 2594 L 2990 2551 2858 2511 Q 2810 2527 2810 2550" fill="#21222a"></path><path d="M 4049 2805 Q 4049 2780 3988 2763 3926 2745 3839 2745 3752 2745 3691 2763 3629 2780 3629 2805 3629 2830 3691 2847 3752 2865 3839 2865 L 3988 2847 Q 4049 2830 4049 2805" fill="#beb5a8"></path><path d="M 3682 2765 Q 3629 2783 3629 2805 3629 2830 3691 2847 3752 2865 3839 2865 L 3966 2853 3682 2765" fill="#21222a"></path><path d="M 2254 1431 L 2254 2230 Q 2254 2248 2297 2261 L 2400 2273 2504 2261 Q 2547 2248 2547 2230 L 2547 1431 2254 1431" fill="#21222a"></path><path d="M 4276 1862 L 4276 2813 Q 4276 2834 4328 2849 4379 2864 4451 2864 4524 2864 4575 2849 4626 2834 4626 2813 L 4626 1862 4276 1862" fill="#beb5a8"></path><path d="M 170 1862 L 170 2813 Q 170 2834 221 2849 272 2864 345 2864 417 2864 468 2849 519 2834 519 2813 L 519 1862 170 1862" fill="#beb5a8"></path><path d="M 3653 2003 Q 3497 2092 3450 2264 3403 2436 3491 2592 3579 2747 3752 2795 3924 2842 4079 2754 4235 2665 4282 2493 4330 2321 4242 2165 4154 2010 3981 1962 3808 1915 3653 2003" fill="#9122c0"></path><path d="M 3685 2048 Q 3628 2109 3606 2190 3569 2326 3638 2448 3707 2570 3843 2607 3978 2645 4100 2575 4223 2506 4260 2370 4280 2296 4266 2218 4234 2128 4165 2062 4094 1995 3998 1968 L 3817 1961 Q 3740 1989 3685 2048" fill="#a543cd"></path><path d="M 4207 2316 Q 4130 2196 3984 2161 3832 2124 3692 2201 3552 2277 3507 2422 3478 2516 3503 2612 3591 2750 3752 2795 3901 2836 4042 2773 4181 2710 4250 2575 4283 2436 4207 2316" fill="#a543cd"></path><path d="M 3529 2108 Q 3474 2178 3450 2264 3403 2436 3491 2592 3579 2747 3752 2795 3924 2842 4079 2754 4235 2665 4282 2493 4320 2356 4268 2222 4282 2299 4260 2379 4219 2528 4085 2604 3952 2680 3803 2639 3655 2599 3579 2465 3503 2331 3544 2182 3574 2072 3659 2000 3583 2041 3529 2108" fill="#6a198d"></path><path d="M 4071 2612 Q 3942 2677 3803 2639 3699 2610 3627 2531 3557 2454 3537 2352 3519 2386 3507 2422 3478 2516 3503 2612 L 3550 2672 3550 2673 3579 2701 3643 2748 3712 2782 3791 2804 3830 2809 3902 2809 3977 2796 4007 2786 4011 2785 4072 2758 4076 2756 4108 2736 4137 2715 4186 2668 4189 2665 4209 2640 4213 2636 4231 2609 4233 2605 4250 2575 Q 4270 2496 4249 2413 4199 2546 4071 2612" fill="#9122c0"></path><path d="M 3639 2012 Q 3495 2101 3450 2264 3403 2436 3491 2592 3579 2747 3752 2795 3924 2842 4079 2754 4235 2665 4282 2493 4325 2335 4253 2188 4300 2304 4264 2427 4218 2579 4076 2659 3933 2738 3776 2698 3619 2657 3540 2522 3461 2386 3506 2234 3547 2094 3674 2014 3801 1935 3947 1955 3782 1923 3639 2012" fill="#6a198d"></path><path d="M 3639 2012 Q 3495 2101 3450 2264 3425 2355 3440 2447 3454 2536 3503 2612 3480 2524 3503 2435 3476 2334 3506 2234 3547 2094 3674 2014 3801 1935 3947 1955 3782 1923 3639 2012 M 4256 2450 Q 4266 2513 4251 2574 L 4282 2493 Q 4325 2335 4253 2188 4300 2304 4264 2427 L 4256 2450" fill="#4b1165"></path><path d="M 3530 2649 Q 3563 2696 3623 2736 3685 2777 3752 2795 3899 2835 4038 2774 4176 2714 4246 2583 4160 2736 3924 2766 3679 2798 3530 2649" fill="#753c8d"></path><path d="M 4151 2230 Q 4083 2165 3999 2142 3909 2117 3788 2151 3655 2188 3600 2269 3612 2359 3677 2435 3746 2514 3844 2538 3969 2568 4079 2522 4191 2476 4236 2372 4220 2296 4151 2230" fill="#c45dd9"></path><path d="M 4031 2013 Q 4019 2023 4023 2043 4027 2062 4044 2082 4061 2101 4082 2107 L 4113 2104 Q 4125 2094 4121 2074 4117 2054 4100 2035 4083 2016 4063 2010 L 4031 2013" fill="#eea1fd"></path><path d="M 3977 2027 Q 3927 2027 3901 2058 3875 2090 3888 2134 3902 2178 3947 2210 3992 2241 4042 2241 4092 2241 4118 2210 4144 2178 4130 2134 4117 2090 4072 2058 4027 2027 3977 2027" fill="#d881e9"></path><path d="M 4047 2071 Q 4020 2052 3989 2052 3959 2052 3943 2071 3928 2090 3936 2116 3944 2143 3971 2162 3998 2181 4029 2181 4059 2181 4075 2162 4091 2143 4083 2116 4075 2090 4047 2071" fill="#f6ccfe"></path><path d="M 4027 2026 Q 4016 2036 4019 2056 4023 2076 4040 2095 4057 2114 4078 2120 L 4110 2117 Q 4121 2107 4117 2087 4114 2067 4097 2048 4080 2029 4059 2023 L 4027 2026" fill="#28013a"></path><path d="M 4027 2026 Q 4017 2034 4019 2048 L 4050 2047 Q 4070 2054 4086 2072 4107 2096 4107 2118 L 4110 2117 Q 4121 2107 4117 2087 4114 2067 4097 2048 4080 2029 4059 2023 L 4027 2026" fill="#6a198d"></path><path d="M 4228 2259 Q 4235 2281 4245 2296 4255 2310 4262 2308 4268 2306 4267 2288 L 4259 2249 4242 2212 Q 4232 2198 4225 2200 4219 2202 4220 2219 4221 2237 4228 2259" fill="#28013a"></path><path d="M 4235 2236 Q 4247 2272 4242 2290 4253 2309 4262 2308 4268 2306 4267 2288 L 4259 2249 4242 2212 Q 4232 2198 4225 2200 L 4221 2205 4235 2236" fill="#6a198d"></path><path d="M 4087 2363 Q 4111 2356 4123 2332 4134 2307 4126 2279 4118 2251 4096 2236 4074 2220 4050 2227 4026 2234 4014 2258 4003 2283 4011 2311 4019 2339 4041 2354 4063 2370 4087 2363" fill="#eea1fd"></path><path d="M 4078 2379 Q 4102 2372 4114 2348 4125 2323 4117 2295 4109 2267 4087 2252 4065 2236 4041 2243 4017 2250 4005 2275 3994 2299 4001 2327 4009 2356 4032 2371 4054 2386 4078 2379" fill="#28013a"></path><path d="M 4078 2379 Q 4102 2372 4114 2348 4125 2323 4117 2295 4111 2273 4095 2258 4079 2244 4059 2242 4073 2256 4079 2276 4087 2304 4075 2329 4063 2353 4039 2360 L 4021 2362 Q 4049 2388 4078 2379" fill="#6a198d"></path><path d="M 3804 2333 Q 3810 2319 3790 2300 3771 2280 3737 2267 3704 2253 3676 2253 3648 2253 3643 2267 3637 2281 3657 2300 3676 2320 3710 2333 3743 2347 3771 2347 3799 2347 3804 2333" fill="#eea1fd"></path><path d="M 3776 2322 Q 3780 2314 3767 2301 L 3731 2280 3692 2271 Q 3674 2270 3670 2278 3667 2286 3680 2299 3693 2311 3715 2320 L 3755 2329 Q 3773 2330 3776 2322" fill="#ffffff"></path><path d="M 4206 2323 Q 4193 2312 4170 2320 4146 2328 4127 2350 4107 2373 4102 2396 4098 2420 4111 2432 4124 2444 4148 2436 4171 2429 4191 2406 4211 2383 4215 2359 4219 2335 4206 2323" fill="#eea1fd"></path><path d="M 4190 2342 L 4168 2341 Q 4153 2347 4140 2361 4127 2376 4123 2391 4120 2406 4127 2413 L 4150 2415 4177 2394 4194 2364 Q 4198 2349 4190 2342" fill="#ffffff"></path><path d="M 3925 2389 Q 3928 2382 3918 2371 L 3890 2353 3857 2346 Q 3842 2346 3839 2353 3836 2361 3847 2371 L 3875 2389 3908 2397 Q 3922 2397 3925 2389" fill="#eea1fd"></path><path d="M 3911 2383 Q 3915 2372 3886 2361 L 3865 2356 3854 2359 Q 3849 2369 3878 2382 L 3911 2383" fill="#ffffff"></path><path d="M 3394 1910 Q 3305 1754 3133 1707 2961 1660 2805 1748 2650 1837 2602 2009 2555 2181 2643 2336 2732 2492 2904 2539 3076 2587 3232 2499 3387 2411 3435 2238 3482 2065 3394 1910" fill="#f17509"></path><path d="M 3318 1807 Q 3246 1740 3150 1713 L 2969 1706 Q 2893 1733 2837 1793 2780 1854 2758 1935 2721 2070 2790 2192 2859 2315 2995 2352 3131 2389 3253 2320 3374 2250 3412 2115 3433 2038 3419 1962 3387 1873 3318 1807" fill="#ff6908"></path><path d="M 3359 2061 Q 3283 1941 3137 1906 2984 1869 2844 1945 2704 2021 2659 2166 2630 2261 2655 2356 2745 2496 2904 2539 3053 2581 3195 2517 3334 2455 3403 2320 3435 2181 3359 2061" fill="#fe870c"></path><path d="M 3421 1967 Q 3434 2048 3412 2124 3372 2272 3238 2349 3104 2425 2955 2384 2807 2343 2731 2209 2656 2075 2696 1927 2725 1820 2811 1745 2735 1786 2682 1853 2626 1922 2602 2009 2555 2181 2643 2336 2732 2492 2904 2539 3076 2587 3232 2499 3387 2411 3435 2238 3472 2100 3421 1967" fill="#e55005"></path><path d="M 3401 2158 Q 3351 2291 3223 2357 3095 2422 2955 2384 2852 2355 2780 2276 2710 2198 2690 2096 2672 2126 2659 2166 2630 2261 2655 2356 L 2702 2417 2703 2417 2731 2445 2758 2468 2762 2470 2791 2490 2830 2512 2864 2526 2867 2527 2904 2539 2976 2553 2982 2553 3015 2555 3020 2555 3054 2553 3087 2549 3123 2542 3129 2540 3159 2531 3164 2530 3224 2502 3256 2484 3286 2462 3289 2459 3338 2413 3341 2410 3362 2385 3386 2350 3403 2320 Q 3422 2239 3401 2158" fill="#f17509"></path><path d="M 3406 1933 Q 3452 2048 3416 2172 3371 2323 3228 2403 3085 2482 2928 2442 2771 2402 2692 2266 2613 2131 2658 1979 2700 1839 2827 1759 2953 1680 3099 1699 2934 1668 2791 1757 2647 1846 2602 2009 2555 2181 2643 2336 2732 2492 2904 2539 3076 2587 3232 2499 3387 2411 3435 2238 3478 2079 3406 1933" fill="#e55005"></path><path d="M 3435 2238 Q 3478 2079 3406 1933 3452 2048 3416 2172 L 3408 2194 Q 3417 2258 3403 2319 L 3435 2238 M 2602 2009 Q 2577 2100 2592 2192 2606 2280 2655 2356 2631 2268 2656 2180 2628 2081 2658 1979 2700 1839 2827 1759 2953 1680 3099 1699 2934 1668 2791 1757 2647 1846 2602 2009" fill="#be4203"></path><path d="M 2682 2394 Q 2715 2441 2775 2480 2836 2520 2904 2539 3051 2580 3191 2519 3329 2459 3399 2327 3312 2480 3076 2511 2831 2542 2682 2394" fill="#ff6908"></path><path d="M 3303 1974 Q 3235 1910 3151 1887 3061 1863 2940 1896 2807 1933 2753 2013 2764 2103 2830 2179 2898 2258 2996 2282 3121 2313 3231 2267 3343 2221 3388 2117 3372 2040 3303 1974" fill="#fea714"></path><path d="M 3265 1848 Q 3277 1838 3273 1819 3270 1799 3253 1780 3236 1761 3215 1755 L 3183 1758 Q 3172 1768 3175 1788 3179 1807 3196 1826 3213 1845 3234 1851 L 3265 1848" fill="#fee8b3"></path><path d="M 3270 1954 Q 3297 1923 3283 1879 3270 1835 3224 1803 3179 1772 3129 1772 3079 1772 3053 1803 3027 1835 3040 1879 3053 1923 3099 1954 3144 1985 3194 1985 3244 1985 3270 1954" fill="#fecd74"></path><path d="M 3235 1861 Q 3227 1834 3199 1815 3172 1796 3142 1796 3111 1796 3096 1815 3080 1834 3088 1861 3096 1888 3124 1907 3151 1926 3181 1926 3212 1926 3228 1907 3243 1888 3235 1861" fill="#fee8b3"></path><path d="M 3262 1861 Q 3273 1852 3270 1832 3266 1812 3249 1793 3232 1774 3212 1768 L 3180 1771 Q 3168 1781 3172 1801 3175 1820 3192 1839 3209 1858 3230 1864 L 3262 1861" fill="#581400"></path><path d="M 3260 1863 L 3262 1861 Q 3273 1852 3270 1832 3266 1812 3249 1793 3232 1774 3212 1768 L 3180 1771 Q 3171 1777 3171 1793 L 3202 1792 Q 3222 1798 3238 1816 3258 1838 3260 1863" fill="#d55805"></path><path d="M 3380 2003 L 3397 2040 Q 3407 2054 3414 2052 3420 2050 3419 2033 L 3411 1993 3394 1957 3378 1945 Q 3371 1947 3372 1964 3373 1981 3380 2003" fill="#581400"></path><path d="M 3387 1981 Q 3400 2017 3394 2034 3406 2055 3414 2052 3420 2050 3419 2033 L 3411 1993 3394 1957 3378 1945 3374 1950 3387 1981" fill="#d55805"></path><path d="M 3275 2077 Q 3287 2052 3279 2024 3271 1996 3248 1980 3226 1965 3202 1972 3178 1978 3167 2003 3155 2027 3163 2056 3171 2084 3193 2099 3215 2114 3239 2108 3263 2101 3275 2077" fill="#feb448"></path><path d="M 3266 2093 Q 3278 2068 3270 2040 3262 2012 3239 1996 3217 1981 3193 1988 3169 1995 3157 2019 3146 2044 3154 2072 3162 2100 3184 2115 3206 2131 3230 2124 3254 2117 3266 2093" fill="#581400"></path><path d="M 3266 2093 Q 3278 2068 3270 2040 3263 2017 3247 2002 3231 1988 3211 1986 3225 2000 3231 2021 3239 2049 3227 2074 3216 2098 3192 2105 L 3173 2106 Q 3199 2132 3230 2124 3254 2117 3266 2093" fill="#d55805"></path><path d="M 2956 2078 Q 2962 2064 2942 2045 2923 2025 2889 2011 2856 1997 2828 1998 2800 1998 2795 2012 2789 2026 2809 2045 2828 2065 2862 2078 2896 2092 2923 2092 2951 2092 2956 2078" fill="#fee8b3"></path><path d="M 2929 2066 Q 2932 2058 2919 2046 L 2884 2025 2844 2015 Q 2826 2015 2823 2023 2819 2031 2832 2043 L 2868 2064 2908 2074 Q 2925 2074 2929 2066" fill="#ffffff"></path><path d="M 3359 2068 Q 3345 2057 3322 2064 3298 2072 3279 2094 3259 2116 3254 2141 3250 2165 3263 2177 3276 2188 3300 2181 3323 2173 3343 2151 3363 2129 3367 2104 3372 2080 3359 2068" fill="#fee8b3"></path><path d="M 3342 2087 L 3320 2086 Q 3305 2091 3292 2106 3279 2121 3276 2136 3272 2151 3280 2158 L 3302 2159 3330 2139 3347 2109 Q 3350 2094 3342 2087" fill="#ffffff"></path><path d="M 3071 2116 Q 3060 2105 3042 2098 L 3009 2091 Q 2994 2091 2991 2098 2988 2106 2999 2116 L 3027 2134 3060 2141 Q 3075 2140 3078 2133 3081 2126 3071 2116" fill="#fee8b3"></path><path d="M 3039 2105 L 3006 2104 Q 3002 2115 3030 2126 L 3063 2127 Q 3067 2118 3039 2105" fill="#ffffff"></path><path d="M 1910 1770 L 1907 1891 Q 1858 1876 1821 1892 L 1763 1885 1734 1891 1734 1825 Q 1733 1775 1703 1775 1650 1775 1634 1995 1628 2082 1657 2210 1667 2253 1665 2291 L 1660 2368 1708 2376 1821 2384 1980 2368 1976 2287 Q 1974 2248 1984 2211 L 2009 2103 Q 2016 2054 2013 1985 2002 1822 2002 1770 2002 1650 1954 1650 1910 1650 1910 1770" fill="#000000"></path><path d="M 1644 1902 L 1655 1897 1695 1898 Q 1693 1850 1705 1806 L 1669 1804 Q 1653 1837 1644 1902" fill="#50bcfd"></path><path d="M 1687 1897 L 1695 1898 Q 1693 1850 1705 1806 L 1669 1804 1668 1806 1697 1812 Q 1687 1846 1687 1897" fill="#0a89dc"></path><path d="M 1636 2102 Q 1642 2156 1651 2182 L 1713 2190 1821 2184 1957 2184 Q 1974 2122 1974 2052 1965 2043 1941 2034 1893 2015 1819 2015 1726 2015 1670 2034 L 1633 2052 1636 2102" fill="#0a89dc"></path><path d="M 1716 2077 L 1714 2023 Q 1682 2028 1661 2037 1642 2056 1645 2095 1649 2146 1667 2189 1684 2193 1727 2189 L 1821 2184 1957 2184 1958 2181 Q 1952 2164 1866 2166 1772 2169 1751 2154 1724 2134 1716 2077" fill="#50bcfd"></path><path d="M 1651 2182 L 1654 2193 1715 2199 1821 2193 1957 2193 1957 2184 1821 2184 1713 2190 1651 2182" fill="#3c3c3c"></path><path d="M 1819 2015 Q 1726 2015 1670 2034 L 1633 2052 1633 2064 Q 1647 2053 1677 2044 1731 2027 1819 2027 1893 2027 1940 2045 1969 2056 1973 2064 L 1974 2052 Q 1965 2043 1941 2034 1893 2015 1819 2015" fill="#044284"></path><path d="M 1638 1951 L 1637 1963 Q 1701 1943 1822 1943 1909 1943 1966 1961 1998 1971 2007 1980 L 2007 1968 Q 1997 1959 1968 1950 1911 1931 1822 1931 1702 1931 1638 1951" fill="#5d5d5d"></path><path d="M 1974 2052 L 1962 2044 1946 2184 1957 2184 Q 1974 2122 1974 2052" fill="#044284"></path><path d="M 2009 2103 Q 2016 2054 2013 1985 2002 1822 2002 1770 2002 1650 1954 1650 1910 1650 1910 1770 L 1908 1845 Q 1978 1835 1976 1995 1975 2080 1949 2242 1961 2266 1976 2268 1976 2240 1984 2211 L 2009 2103" fill="#626262"></path><path d="M 1977 2245 Q 1986 2205 1973 2198 1960 2191 1947 2242 L 1977 2245" fill="#2f2f2f"></path><path d="M 1942 1853 Q 1944 1736 1929 1713 1913 1689 1909 1819 L 1908 1845 Q 1928 1842 1942 1853" fill="#9d9d9d"></path><path d="M 1908 1845 Q 1978 1835 1976 1990 1975 2069 1949 2231 1942 2268 1946 2282 1950 2296 1961 2226 1988 2070 1988 1987 1989 1827 1909 1833 L 1906 1836 Q 1904 1841 1908 1845" fill="#989898"></path><path d="M 1958 2243 L 1966 2199 Q 1955 2206 1947 2242 L 1958 2243" fill="#353535"></path><path d="M 1980 2368 L 1977 2245 1821 2237 1703 2241 1664 2245 1660 2368 1703 2376 1821 2384 1980 2368" fill="#161616"></path><path d="M 1951 2242 Q 1958 2294 1951 2374 L 1980 2368 1977 2245 1951 2242" fill="#353535"></path><path d="M 1977 2257 L 1977 2245 1821 2237 1703 2241 1664 2245 1664 2257 1703 2254 1821 2250 1977 2257" fill="#4c4c4c"></path><path d="M 1977 2266 L 1977 2254 1821 2247 1703 2251 1664 2254 1664 2266 1703 2263 1821 2259 1977 2266" fill="#252525"></path><path d="M 1952 2255 L 1977 2257 1977 2245 1951 2242 1952 2255" fill="#898989"></path><path d="M 1977 2254 L 1952 2252 1953 2264 1977 2267 1977 2254" fill="#515151"></path><path d="M 1833 2229 L 1720 2232 1664 2236 Q 1646 2303 1660 2354 1741 2373 1833 2369 1850 2368 1867 2359 1901 2340 1901 2298 1901 2256 1867 2238 L 1833 2229" fill="#444444"></path><path d="M 1693 2249 Q 1682 2254 1680 2296 1677 2338 1689 2350 1702 2363 1734 2346 1767 2328 1767 2298 1767 2269 1736 2255 1710 2242 1693 2249" fill="#626262"></path><path d="M 1666 2236 L 1664 2236 Q 1646 2303 1660 2354 L 1672 2357 1671 2350 Q 1665 2321 1667 2283 L 1671 2251 1666 2236" fill="#747474"></path><path d="M 1842 2258 Q 1877 2272 1877 2306 1877 2342 1842 2356 L 1806 2362 1659 2349 Q 1762 2373 1825 2364 1894 2353 1894 2306 1894 2264 1860 2246 L 1826 2237 1662 2244 1659 2259 1725 2254 1806 2252 1842 2258" fill="#282828"></path><path d="M 1867 2359 Q 1901 2340 1901 2298 1901 2256 1867 2238 L 1833 2229 1720 2232 1664 2236 Q 1656 2237 1655 2245 1655 2252 1660 2251 L 1728 2247 1813 2244 1849 2250 Q 1885 2264 1885 2298 1885 2334 1849 2348 L 1813 2354 1657 2339 Q 1651 2339 1652 2346 1653 2353 1660 2354 1741 2373 1833 2369 1850 2368 1867 2359" fill="#626262"></path><path d="M 1664 2236 Q 1656 2237 1655 2245 1655 2252 1660 2251 L 1677 2250 Q 1672 2245 1674 2240 L 1677 2235 1664 2236" fill="#9d9d9d"></path><path d="M 1657 2339 Q 1651 2339 1652 2346 1653 2353 1660 2354 L 1676 2357 Q 1670 2351 1673 2346 L 1677 2343 1657 2339" fill="#9d9d9d"></path><path d="M 1859 2235 L 1823 2233 Q 1818 2243 1848 2250 1875 2256 1878 2250 1880 2243 1859 2235" fill="#b4b4b4"></path><path d="M 1918 2044 Q 1865 2021 1851 2043 1837 2064 1883 2087 L 1941 2085 Q 1956 2060 1918 2044" fill="#50bcfd"></path><path d="M 1750 2089 Q 1736 2099 1737 2129 1738 2151 1752 2163 1764 2174 1781 2174 L 1862 2174 Q 1874 2174 1874 2162 L 1874 2051 Q 1874 2039 1862 2039 L 1792 2039 Q 1772 2039 1761 2050 1750 2061 1750 2080 L 1750 2089" fill="#003f14"></path><path d="M 1755 2084 Q 1741 2094 1742 2124 1743 2146 1757 2158 1769 2169 1786 2169 L 1867 2169 Q 1879 2169 1879 2157 L 1879 2046 Q 1879 2034 1867 2034 L 1796 2034 Q 1775 2034 1765 2045 1755 2057 1755 2075 L 1755 2084" fill="#161d1e"></path><path d="M 1872 2035 L 1855 2034 Q 1830 2036 1832 2053 1835 2071 1866 2087 L 1879 2092 1879 2046 Q 1879 2039 1872 2035" fill="#4c6365"></path><path d="M 1879 2046 Q 1879 2034 1867 2034 L 1796 2034 Q 1775 2034 1765 2045 L 1762 2049 Q 1773 2041 1789 2041 L 1860 2041 1868 2045 1872 2053 1872 2165 1871 2168 Q 1879 2166 1879 2157 L 1879 2046" fill="#556465"></path><path d="M 1872 2035 L 1855 2034 Q 1843 2034 1836 2041 L 1859 2041 Q 1871 2041 1871 2053 L 1871 2089 1879 2092 1879 2046 Q 1879 2039 1872 2035" fill="#96a0a5"></path><path d="M 1856 2041 L 1871 2038 1855 2034 Q 1840 2034 1841 2038 L 1856 2041" fill="#d5e3ea"></path><path d="M 1785 2119 L 1791 2118 1821 2118 1821 2097 1789 2097 1789 2088 Q 1790 2079 1801 2079 L 1835 2079 1835 2135 1791 2135 Q 1778 2134 1778 2126 1778 2122 1785 2119 M 1766 2083 L 1766 2097 Q 1752 2103 1754 2128 1755 2144 1766 2153 1774 2159 1784 2159 L 1859 2159 1859 2056 1793 2056 Q 1779 2056 1773 2062 1766 2069 1766 2083" fill="#000000"></path><path d="M 1797 2050 Q 1783 2050 1777 2056 1770 2063 1770 2077 L 1770 2091 Q 1756 2097 1758 2122 1759 2138 1770 2147 L 1788 2153 1863 2153 1863 2050 1797 2050 M 1789 2113 L 1795 2112 1825 2112 1825 2091 1793 2091 1793 2082 Q 1794 2073 1805 2073 L 1839 2073 1839 2129 1795 2129 Q 1782 2128 1782 2120 1782 2116 1789 2113" fill="#feb716"></path><path d="M 1863 2085 L 1863 2050 1833 2050 Q 1831 2068 1863 2085" fill="#fee983"></path><path d="M 1732 1842 Q 1734 1807 1728 1803 1722 1798 1720 1828 1717 1878 1723 1887 1729 1896 1732 1842" fill="#323232"></path><path d="M 1817 1895 Q 1806 1884 1788 1888 1769 1891 1789 1911 1809 1931 1819 1919 1829 1908 1817 1895" fill="#323232"></path><path d="M 1907 1898 Q 1897 1887 1878 1890 1860 1893 1880 1913 1900 1933 1910 1921 1920 1910 1907 1898" fill="#323232"></path><path d="M 1802 1808 L 1789 2045 Q 1786 2121 1795 2175 1799 2203 1822 2293 1832 2334 1830 2378 L 1826 2466 1878 2475 2002 2483 2178 2466 2172 2381 Q 2170 2339 2181 2292 2214 2149 2206 2056 2190 1815 2130 1815 2097 1815 2097 1869 L 2096 1941 2002 1943 Q 1976 1932 1939 1935 L 1907 1941 Q 1904 1878 1904 1808 1904 1677 1855 1677 1802 1677 1802 1808" fill="#000000"></path><path d="M 2196 1954 Q 2186 1881 2168 1846 L 2144 1844 2128 1849 Q 2142 1896 2139 1950 L 2196 1954" fill="#0a89dc"></path><path d="M 2148 1948 Q 2148 1892 2137 1855 L 2148 1851 2169 1848 2168 1846 2144 1844 2128 1849 Q 2142 1896 2139 1950 L 2148 1948" fill="#50bcfd"></path><path d="M 2208 2119 Q 2198 2109 2167 2099 2106 2078 2003 2078 1921 2078 1869 2099 L 1833 2119 Q 1833 2195 1851 2264 L 2002 2264 2120 2271 Q 2168 2274 2187 2262 2198 2234 2204 2174 L 2208 2119" fill="#0a89dc"></path><path d="M 2119 2087 L 2117 2145 Q 2109 2208 2078 2230 2055 2247 1952 2244 1857 2241 1850 2260 L 1851 2264 2002 2264 2105 2270 Q 2152 2273 2170 2269 2190 2223 2195 2166 2198 2123 2177 2102 2151 2092 2119 2087" fill="#0961c0"></path><path d="M 2187 2262 Q 2168 2274 2120 2271 L 2002 2264 1851 2264 1851 2274 2002 2274 2118 2281 2185 2273 2187 2262" fill="#3c3c3c"></path><path d="M 2003 2091 Q 2099 2091 2160 2110 2192 2119 2207 2131 L 2208 2119 Q 2198 2109 2167 2099 2106 2078 2003 2078 1921 2078 1869 2099 L 1833 2119 1833 2132 1871 2111 Q 1923 2091 2003 2091" fill="#044284"></path><path d="M 2202 2008 Q 2127 1985 1999 1985 1902 1985 1840 2006 L 1797 2026 1797 2039 1842 2018 Q 1903 1998 1999 1998 2129 1998 2204 2021 L 2202 2008" fill="#5d5d5d"></path><path d="M 1833 2119 Q 1833 2195 1851 2264 L 1864 2264 Q 1851 2181 1846 2109 L 1833 2119" fill="#044284"></path><path d="M 1789 2045 Q 1786 2121 1795 2175 1799 2203 1822 2293 L 1831 2356 Q 1848 2354 1861 2327 1833 2150 1831 2056 1829 1879 1905 1891 L 1904 1808 Q 1904 1677 1855 1677 1802 1677 1802 1808 L 1789 2045" fill="#626262"></path><path d="M 1905 1891 Q 1914 1883 1905 1878 1817 1870 1818 2047 1818 2135 1847 2309 1860 2387 1864 2372 1869 2356 1861 2315 1832 2138 1831 2051 1829 1881 1905 1891" fill="#989898"></path><path d="M 1826 2466 L 1873 2475 2002 2483 2178 2466 2174 2330 2002 2322 1872 2326 1829 2330 1826 2466" fill="#161616"></path><path d="M 1859 2327 L 1829 2330 1826 2466 1858 2472 Q 1850 2380 1859 2327" fill="#353535"></path><path d="M 1829 2344 L 1872 2340 2002 2336 2174 2344 2174 2330 2002 2322 1872 2326 1829 2330 1829 2344" fill="#4c4c4c"></path><path d="M 1829 2354 L 1872 2350 2002 2346 2174 2354 2174 2341 2002 2332 1872 2337 1829 2341 1829 2354" fill="#252525"></path><path d="M 1857 2341 L 1859 2327 1829 2330 1829 2344 1857 2341" fill="#898989"></path><path d="M 1829 2341 L 1829 2355 1856 2352 1857 2338 1829 2341" fill="#515151"></path><path d="M 1988 2314 L 1951 2324 Q 1913 2343 1913 2389 1913 2435 1951 2456 L 1988 2467 2050 2466 2178 2450 Q 2193 2394 2174 2321 L 1988 2314" fill="#444444"></path><path d="M 2171 2321 L 2165 2337 2170 2372 Q 2173 2414 2165 2446 L 2164 2453 2178 2450 Q 2193 2394 2174 2321 L 2171 2321" fill="#747474"></path><path d="M 2179 2346 L 2176 2330 1996 2322 1959 2332 Q 1921 2352 1921 2398 1921 2450 1996 2461 2066 2471 2179 2445 L 2068 2458 2018 2459 1979 2453 Q 1939 2438 1939 2398 1939 2360 1979 2346 L 2018 2339 2106 2341 2179 2346" fill="#282828"></path><path d="M 2064 2449 L 2010 2451 1971 2444 Q 1931 2429 1931 2389 1931 2351 1971 2337 L 2010 2330 2104 2333 2178 2338 Q 2184 2339 2183 2331 2182 2322 2174 2321 L 1988 2314 1951 2324 Q 1913 2343 1913 2389 1913 2435 1951 2456 L 1988 2467 2050 2466 2178 2450 2187 2442 Q 2189 2434 2181 2434 L 2064 2449" fill="#626262"></path><path d="M 2174 2321 L 2160 2320 Q 2168 2328 2159 2337 L 2178 2338 Q 2184 2339 2183 2331 2182 2322 2174 2321" fill="#9d9d9d"></path><path d="M 2181 2434 L 2160 2438 2165 2442 2161 2454 2178 2450 2187 2442 Q 2189 2434 2181 2434" fill="#9d9d9d"></path><path d="M 1959 2320 Q 1936 2329 1939 2336 1941 2343 1972 2336 2005 2328 1999 2318 L 1959 2320" fill="#b4b4b4"></path><path d="M 1834 1684 Q 1812 1700 1823 1716 1835 1733 1853 1714 1871 1697 1861 1684 1851 1672 1834 1684" fill="#9d9d9d"></path><path d="M 1802 1795 Q 1798 1916 1811 1901 1824 1886 1827 1778 1828 1728 1816 1728 1805 1729 1802 1795" fill="#9d9d9d"></path><path d="M 1968 2108 L 1894 2110 Q 1852 2128 1869 2155 L 1933 2157 Q 1984 2132 1968 2108" fill="#50bcfd"></path><path d="M 2067 2116 Q 2057 2104 2033 2104 L 1956 2104 Q 1943 2104 1943 2117 L 1943 2240 Q 1943 2253 1956 2253 L 2045 2253 Q 2063 2253 2077 2241 2092 2227 2093 2203 2096 2171 2079 2159 L 2079 2150 Q 2079 2128 2067 2116" fill="#003f14"></path><path d="M 2062 2111 Q 2049 2098 2028 2098 L 1951 2098 Q 1937 2098 1937 2112 L 1937 2234 Q 1937 2247 1951 2247 L 2039 2247 Q 2057 2247 2071 2235 2087 2222 2088 2198 2089 2166 2073 2153 L 2073 2144 Q 2073 2121 2062 2111" fill="#161d1e"></path><path d="M 1937 2112 L 1937 2234 Q 1937 2244 1946 2246 L 1945 2243 1945 2120 Q 1945 2107 1959 2107 L 2036 2107 Q 2054 2107 2066 2116 L 2062 2111 Q 2049 2098 2028 2098 L 1951 2098 Q 1937 2098 1937 2112" fill="#556465"></path><path d="M 1962 2107 Q 1979 2107 1980 2103 1981 2098 1963 2098 1946 2098 1946 2103 1946 2107 1962 2107" fill="#d5e3ea"></path><path d="M 2034 2191 L 2041 2193 2048 2200 Q 2048 2208 2034 2210 L 1986 2210 1986 2149 2023 2149 Q 2041 2149 2037 2168 L 2001 2168 2001 2191 2034 2191 M 2054 2130 Q 2047 2123 2031 2123 L 1959 2123 1959 2236 2042 2236 2062 2229 Q 2074 2220 2075 2202 2077 2173 2061 2168 L 2061 2152 Q 2061 2137 2054 2130" fill="#000000"></path><path d="M 2044 2194 L 2030 2204 1981 2204 1981 2142 2019 2142 Q 2037 2142 2032 2162 L 1997 2162 1997 2184 2030 2184 2037 2186 2044 2194 M 2027 2116 L 1955 2116 1955 2230 2037 2230 2057 2223 Q 2069 2213 2070 2195 2072 2167 2057 2162 L 2057 2146 Q 2057 2130 2050 2123 2043 2116 2027 2116" fill="#feb716"></path><path d="M 2098 1888 Q 2102 1946 2109 1937 2116 1927 2112 1872 2110 1839 2103 1844 2096 1850 2098 1888" fill="#323232"></path><path d="M 2006 1946 Q 1993 1959 2003 1972 2014 1985 2036 1963 2058 1941 2038 1938 2018 1934 2006 1946" fill="#323232"></path><path d="M 1906 1949 Q 1893 1962 1904 1975 1915 1988 1937 1966 1959 1944 1938 1941 1918 1937 1906 1949" fill="#323232"></path><path d="M 989 2611 L 1150 2598 Q 1278 2583 1279 2494 1281 2277 1143 2217 1083 2191 947 2237 830 2278 766 2327 730 2354 622 2399 514 2443 498 2450 470 2465 432 2508 387 2560 371 2609 359 2605 364 2635 368 2660 378 2682 393 2714 405 2725 427 2744 476 2751 736 2787 874 2724 906 2709 938 2667 971 2622 989 2611" fill="#f4edea"></path><path d="M 972 2624 L 989 2611 Q 1029 2570 1010 2521 991 2473 932 2531 873 2589 748 2613 L 602 2608 578 2580 577 2556 Q 577 2535 548 2502 519 2468 502 2468 L 467 2473 Q 395 2536 371 2609 355 2604 368 2652 L 378 2682 Q 393 2714 405 2725 427 2744 476 2751 L 519 2756 521 2756 Q 744 2780 868 2726 L 951 2648 972 2624" fill="#3a3a3a"></path><path d="M 991 2424 Q 925 2492 987 2530 1049 2567 1163 2531 1218 2514 1237 2456 1256 2402 1232 2358 1207 2310 1150 2319 1081 2330 991 2424" fill="#d5c6c0"></path><path d="M 1002 2297 Q 982 2284 918 2351 842 2432 801 2446 L 731 2451 Q 689 2447 679 2437 670 2428 681 2407 691 2387 703 2387 718 2387 895 2274 L 882 2263 Q 805 2296 766 2327 727 2355 669 2378 640 2405 624 2437 607 2471 619 2486 641 2516 730 2516 806 2516 841 2502 864 2493 949 2429 L 1054 2344 1002 2297" fill="#3a3a3a"></path><path d="M 822 2439 Q 786 2457 743 2417 699 2376 722 2369 L 707 2361 Q 685 2361 689 2383 692 2405 715 2429 775 2492 839 2455 L 822 2439" fill="#c4e21d"></path><path d="M 837 2357 Q 876 2392 870 2409 L 892 2421 Q 924 2397 857 2339 790 2282 766 2327 L 786 2334 Q 798 2322 837 2357" fill="#c4e21d"></path><path d="M 1266 2376 Q 1218 2391 1156 2466 1097 2537 1060 2544 1016 2552 971 2502 906 2427 867 2404 L 860 2402 Q 849 2401 832 2412 804 2428 806 2444 L 873 2498 Q 936 2556 918 2574 870 2622 738 2639 633 2653 572 2643 493 2630 478 2717 478 2736 508 2755 746 2782 874 2724 906 2709 938 2667 971 2622 989 2611 L 1150 2598 Q 1278 2583 1279 2494 1279 2427 1266 2376" fill="#4fac14"></path><path d="M 1242 2387 Q 1208 2405 1148 2476 1097 2537 1060 2544 L 1034 2545 Q 1034 2582 1098 2561 1148 2545 1198 2487 1250 2426 1242 2387" fill="#3f8b0f"></path><path d="M 1266 2442 Q 1251 2500 1130 2545 1047 2576 972 2586 950 2592 933 2622 913 2658 888 2674 863 2691 795 2707 L 694 2710 527 2712 Q 380 2712 357 2607 355 2607 355 2627 L 360 2680 Q 367 2718 399 2752 436 2791 486 2798 584 2811 701 2798 833 2782 906 2737 930 2722 949 2673 968 2623 989 2611 L 1150 2598 Q 1278 2583 1279 2494 L 1266 2442" fill="#c4e21d"></path><path d="M 997 2607 L 1160 2596 Q 1278 2579 1279 2494 L 1266 2442 Q 1252 2494 1154 2536 1086 2564 999 2581 L 997 2607" fill="#7baf15"></path><path d="M 1060 2567 L 972 2586 Q 955 2591 945 2604 L 927 2634 918 2666 Q 915 2696 946 2680 L 963 2641 Q 973 2620 989 2611 L 1027 2603 1086 2601 1100 2584 Q 1105 2567 1060 2567" fill="#a6cb19"></path><path d="M 1255 2511 Q 1261 2496 1227 2532 1192 2570 1109 2583 L 992 2603 Q 960 2614 934 2650 L 898 2699 Q 874 2720 771 2746 748 2751 749 2759 L 777 2761 Q 875 2738 903 2714 L 946 2657 Q 972 2617 994 2609 L 1105 2595 Q 1196 2583 1230 2546 L 1255 2511" fill="#ffffff"></path><path d="M 1227 2532 Q 1192 2570 1109 2583 L 992 2603 979 2609 985 2613 994 2609 1105 2595 Q 1196 2583 1230 2546 L 1255 2511 Q 1261 2496 1227 2532" fill="#2f0707"></path><path d="M 1100 2585 L 1041 2593 992 2603 Q 967 2612 946 2635 L 918 2675 Q 918 2685 928 2685 L 957 2640 Q 975 2615 994 2609 L 994 2608 1001 2606 1002 2606 1007 2605 1091 2597 1100 2585" fill="#680f0e"></path><path d="M 693 2723 L 622 2715 482 2724 Q 444 2735 439 2755 435 2770 449 2787 L 486 2798 762 2788 Q 758 2761 725 2739 L 693 2723" fill="#a6cb19"></path><path d="M 382 2581 Q 374 2581 367 2588 355 2600 355 2622 356 2651 386 2680 425 2718 492 2726 568 2734 656 2727 745 2720 694 2710 L 693 2710 527 2712 Q 461 2712 425 2682 390 2653 377 2593 L 382 2581" fill="#ffffff"></path><path d="M 707 2361 L 722 2369 786 2334 766 2327 707 2361" fill="#4fac14"></path><path d="M 834 2274 Q 793 2277 811 2298 L 848 2296 Q 879 2302 896 2324 909 2330 909 2320 L 905 2308 901 2303 Q 875 2271 834 2274" fill="#c4e21d"></path><path d="M 930 2362 L 944 2357 Q 944 2310 914 2279 896 2279 889 2285 886 2287 886 2290 896 2290 909 2333 920 2371 930 2362" fill="#c4e21d"></path><path d="M 395 2656 Q 436 2709 455 2673 474 2637 428 2599 394 2571 379 2593 363 2615 395 2656" fill="#1e1e1e"></path><path d="M 534 2505 Q 499 2468 476 2485 454 2502 485 2533 516 2564 543 2553 569 2542 534 2505" fill="#565656"></path></g><path id="cid_57" d="M 277 182 L 274 161 274 156 269 131 268 131 264 116 70 0 0 97 Q 21 107 45 181 75 270 62 355 L 62 357 176 349 177 349 188 346 190 346 199 343 202 343 220 336 224 335 230 332 239 326 243 324 251 318 258 311 262 306 265 303 275 284 277 278 279 266 280 262 281 249 280 211 277 182" viewBox="0 0 281 357" fill="#252525"></path><g id="cid_59" viewBox="-25 1350 4825 2840"><path d="M 1016 1891 L 926 1978 Q 862 2049 875 2117 858 2141 856 2218 883 2280 972 2328 L 1137 2406 1147 2449 Q 1160 2500 1178 2542 1198 2589 1317 2638 1430 2684 1503 2682 1561 2680 1607 2651 L 1642 2623 Q 1690 2521 1625 2426 L 1509 2301 1387 2162 Q 1318 2088 1283 2078 1194 2051 1146 2000 L 1085 1920 Q 1050 1878 1016 1891" fill="#f4edea"></path><path d="M 1278 2453 Q 1246 2429 1234 2483 1222 2536 1244 2602 1300 2636 1377 2660 1454 2684 1503 2682 1561 2680 1607 2651 L 1642 2623 Q 1672 2558 1659 2501 L 1643 2487 1602 2490 Q 1585 2496 1562 2520 1544 2538 1522 2538 1480 2538 1415 2518 1332 2494 1278 2453" fill="#3a3a3a"></path><path d="M 1056 1942 Q 1039 1907 1031 1984 1023 2057 1062 2109 1116 2181 1194 2176 1258 2172 1287 2133 1299 2118 1208 2071 1094 2013 1056 1942" fill="#252525"></path><path d="M 1284 2534 Q 1222 2487 1117 2358 1001 2288 925 2201 L 870 2128 Q 857 2158 856 2218 883 2280 972 2328 L 1137 2406 1147 2449 Q 1160 2500 1178 2542 1198 2589 1317 2638 1430 2684 1503 2682 1543 2681 1589 2661 1624 2644 1642 2623 L 1652 2603 1657 2583 Q 1611 2613 1564 2620 L 1451 2610 Q 1346 2580 1284 2534" fill="#c4e21d"></path><path d="M 1358 2180 L 1215 2232 1408 2444 Q 1428 2464 1480 2462 1529 2460 1543 2445 1557 2432 1555 2400 1552 2365 1533 2346 L 1358 2180" fill="#3a3a3a"></path><path d="M 1331 2236 Q 1344 2249 1371 2313 1398 2376 1398 2394 1398 2413 1439 2423 1481 2434 1502 2413 1523 2392 1520 2366 1517 2341 1493 2330 L 1430 2306 Q 1381 2283 1331 2236" fill="#d5c6c0"></path><path d="M 1408 2388 Q 1349 2423 1255 2415 1166 2408 1134 2375 1186 2574 1516 2621 1530 2608 1533 2581 1537 2550 1507 2550 1467 2550 1333 2508 1304 2499 1292 2479 1278 2458 1317 2458 1377 2458 1416 2440 L 1443 2422 1408 2388" fill="#4fac14"></path><path d="M 1509 2301 L 1507 2315 1498 2335 1525 2367 Q 1535 2351 1535 2328 L 1509 2301" fill="#4fac14"></path><path d="M 1361 2115 L 1343 2106 Q 1336 2134 1251 2175 L 1172 2200 Q 1127 2213 1127 2227 1127 2266 1147 2289 L 1166 2303 Q 1163 2300 1166 2296 1172 2287 1203 2282 1257 2272 1323 2240 1406 2199 1413 2158 L 1361 2115" fill="#c4e21d"></path><path d="M 1436 2428 L 1408 2444 Q 1469 2487 1527 2429 1549 2407 1553 2382 1556 2356 1534 2343 L 1525 2367 Q 1525 2395 1484 2417 1446 2438 1436 2428" fill="#c4e21d"></path><path d="M 1372 2383 Q 1388 2385 1408 2336 1427 2287 1412 2287 1397 2287 1376 2334 1356 2381 1372 2383" fill="#c4e21d"></path><path d="M 1492 2321 Q 1492 2306 1451 2304 1409 2301 1409 2314 1409 2328 1451 2332 1492 2336 1492 2321" fill="#c4e21d"></path><path d="M 1317 2304 Q 1330 2318 1349 2286 1367 2253 1356 2244 1345 2235 1324 2263 1304 2291 1317 2304" fill="#c4e21d"></path><path d="M 1441 2259 Q 1441 2245 1395 2247 1349 2248 1349 2264 1349 2280 1395 2276 1441 2272 1441 2259" fill="#c4e21d"></path><path d="M 1142 2428 Q 1163 2544 1295 2604 1361 2634 1423 2641 1457 2641 1423 2624 1276 2597 1194 2510 1169 2482 1153 2452 L 1142 2428" fill="#ffffff"></path><path d="M 919 2035 Q 922 2085 952 2133 1074 2330 1086 2317 L 1011 2181 Q 934 2032 962 1942 L 934 1969 Q 916 1989 919 2035" fill="#7aac14"></path><path d="M 988 1919 Q 941 1946 940 2011 939 2070 973 2134 996 2178 1046 2255 L 1108 2353 1125 2368 991 2134 Q 963 2088 962 2011 961 1935 988 1919" fill="#252525"></path><path d="M 971 2284 Q 961 2294 1033 2342 1103 2388 1137 2397 L 1137 2386 Q 1070 2354 1013 2311 L 971 2284" fill="#680f0e"></path><path d="M 909 1994 L 892 2023 Q 875 2056 874 2077 873 2107 887 2132 906 2167 957 2207 1007 2247 1001 2228 L 955 2160 Q 924 2119 910 2064 898 2014 909 1994" fill="#d5c6c0"></path><path d="M 2254 1407 L 2254 2206 Q 2254 2224 2297 2237 L 2400 2249 2504 2237 Q 2547 2224 2547 2206 L 2547 1407 2254 1407" fill="#282828"></path><path d="M 2428 1407 L 2428 2248 2513 2233 Q 2547 2222 2547 2206 L 2547 1407 2428 1407" fill="#0e0e0e"></path><path d="M 2516 1407 L 2516 2232 Q 2547 2221 2547 2206 L 2547 1407 2516 1407" fill="#414141"></path><path d="M 2254 1407 L 2254 2206 Q 2254 2219 2277 2229 L 2338 2245 2338 1407 2254 1407" fill="#3c3c3c"></path><path d="M 2301 1407 L 2301 2238 2364 2248 2376 2248 2376 1407 2301 1407" fill="#6f6f6f"></path><path d="M 4276 1838 L 4276 2789 Q 4276 2810 4328 2825 4379 2840 4451 2840 4524 2840 4575 2825 4626 2810 4626 2789 L 4626 1838 4276 1838" fill="#282828"></path><path d="M 4484 1838 L 4484 2839 4585 2821 Q 4626 2807 4626 2789 L 4626 1838 4484 1838" fill="#0e0e0e"></path><path d="M 4589 1838 L 4589 2820 Q 4626 2806 4626 2789 L 4626 1838 4589 1838" fill="#414141"></path><path d="M 4276 1838 L 4276 2789 Q 4276 2804 4304 2816 L 4376 2835 4376 1838 4276 1838" fill="#3c3c3c"></path><path d="M 4333 1838 L 4333 2826 4408 2838 4422 2838 4422 1838 4333 1838" fill="#6f6f6f"></path><path d="M 170 1838 L 170 2789 Q 170 2810 221 2825 272 2840 345 2840 417 2840 468 2825 519 2810 519 2789 L 519 1838 170 1838" fill="#282828"></path><path d="M 377 1838 L 377 2839 Q 438 2835 478 2821 519 2807 519 2789 L 519 1838 377 1838" fill="#0e0e0e"></path><path d="M 482 1838 L 482 2820 Q 519 2806 519 2789 L 519 1838 482 1838" fill="#414141"></path><path d="M 170 1838 L 170 2789 Q 170 2820 270 2835 L 270 1838 170 1838" fill="#3c3c3c"></path><path d="M 226 1838 L 226 2826 302 2838 315 2838 315 1838 226 1838" fill="#6f6f6f"></path><path d="M 4817 1739 L 2537 1358 Q 2434 1346 2335 1353 L -18 1739 -18 1825 498 2008 Q 559 2031 598 2032 L 735 2014 2399 1663 4064 2014 4201 2032 Q 4240 2031 4301 2008 L 4817 1825 4817 1739" fill="#f11c02"></path><path d="M 4818 2027 L 4825 1824 4209 1997 2399 1662 2396 1841 4107 2244 4173 2254 Q 4254 2257 4331 2223 L 4818 2027" fill="#ac1501"></path><path d="M 3525 2108 L 4107 2245 4173 2255 Q 4254 2258 4331 2224 L 4362 2211 4390 2150 Q 4406 2095 4132 2011 3905 1942 3615 1890 3502 1870 3439 1894 3384 1914 3380 1961 3375 2005 3415 2047 3457 2092 3525 2108" fill="#930100"></path><path d="M 4296 2010 Q 4227 2042 4223 2147 4220 2252 4269 2245 L 4276 2243 4331 2224 4818 2028 4825 1825 4472 1924 4296 2010" fill="#c11801"></path><path d="M 4276 1967 L 4277 2037 Q 4608 1905 4567 1886 4526 1867 4276 1967" fill="#ff432b"></path><path d="M 4114 2053 Q 4171 2078 4195 2078 4221 2078 4267 2052 L 4339 2012 Q 4400 1985 4381 1963 L 4276 1967 Q 4220 1985 4111 1968 L 3916 1927 2396 1596 2363 1644 4027 2021 Q 4050 2025 4114 2053" fill="#ff7a6b"></path><path d="M 2399 1663 L 590 1998 -25 1825 -18 2028 468 2224 Q 546 2258 627 2255 L 692 2245 2403 1842 2399 1663" fill="#ac1501"></path><path d="M 1274 2108 Q 1342 2092 1384 2047 1424 2005 1420 1961 1415 1914 1360 1894 1297 1870 1184 1890 894 1942 667 2011 393 2095 409 2150 415 2171 436 2211 L 468 2224 Q 546 2258 627 2255 L 692 2245 1274 2108" fill="#930100"></path><path d="M 503 2010 L 327 1924 -25 1825 -18 2028 468 2224 523 2243 530 2245 Q 579 2252 575 2147 572 2041 503 2010" fill="#c11801"></path><path d="M 523 1967 Q 273 1867 231 1886 190 1905 521 2037 L 523 1967" fill="#ff432b"></path><path d="M 2402 1596 L 883 1927 687 1968 Q 579 1985 523 1967 L 418 1963 Q 399 1985 460 2012 L 532 2052 Q 579 2078 604 2078 628 2078 685 2053 749 2025 772 2021 L 2436 1644 2402 1596" fill="#ff7a6b"></path><path d="M 346 1966 Q 546 2037 543 2027 541 2017 357 1949 92 1850 89 1862 86 1874 346 1966" fill="#ffffff"></path><path d="M 844 2000 Q 1122 1946 1119 1934 1115 1922 844 1980 638 2024 645 2031 653 2038 844 2000" fill="#ffffff"></path><path d="M 2107 1717 L 2233 1693 2398 1664 Q 2428 1664 2569 1694 L 2699 1719 Q 2699 1713 2564 1678 2428 1643 2398 1643 2369 1643 2237 1677 2107 1711 2107 1717" fill="#ffffff"></path><path d="M 4452 1958 Q 4713 1866 4710 1854 4707 1842 4442 1941 4259 2009 4256 2019 4253 2029 4452 1958" fill="#ffffff"></path><path d="M 3954 1992 Q 4146 2030 4154 2023 4161 2016 3954 1972 3684 1914 3680 1926 3676 1938 3954 1992" fill="#ffffff"></path></g><path id="cid_60" d="M 300 -50 L 300 -1550 0 -800 300 -50 -300 -50 -300 -1550 300 -1550 M -300 -50 L 0 -800 -300 -1550" viewBox="-350 -1600 350 0" fill="none" stroke="#ff0000" stroke-width="100" stroke-linecap="round" stroke-linejoin="round"></path><use id="cid_32" transform="matrix(20,0,0,20,-800,-1600)" xlink:href="#cid_31" viewBox="-800 -1600 800 0"></use><use id="cid_35" transform="matrix(20,0,0,20,-800,-1600)" xlink:href="#cid_34" viewBox="-800 -1600 800 0"></use><use id="cid_38" transform="matrix(20,0,0,20,-800,-1600)" xlink:href="#cid_37" viewBox="-800 -1600 800 0"></use><use id="cid_41" transform="matrix(20,0,0,20,-800,-1600)" xlink:href="#cid_40" viewBox="-800 -1600 800 0"></use><use id="cid_44" transform="matrix(20,0,0,20,-800,-1600)" xlink:href="#cid_43" viewBox="-800 -1600 800 0"></use><path id="cid_46" d="M 391 -353 L 278 -353 206 1 Q 113 7 57 71 0 134 0 226 0 318 57 381 119 452 226 452 333 452 395 381 452 318 452 226 452 134 395 71 368 40 333 23 L 391 -353" viewBox="0 -353 452 452" fill="#f9f4a8"></path><g id="cid_64" viewBox="11 7 394 424"><path d="M 135 362 L 189 424 394 273 357 202 135 362" fill="#fdfe2a"></path><path d="M 134 386 L 371 207 Q 313 104 237 48 135 -27 47 34 -15 87 29 208 62 298 134 386" fill="#3e6c0f"></path></g><g id="cid_63" viewBox="-120 -22 876 1227"><path d="M 19 837 Q 26 928 77 1001 150 1108 285 1108 L 537 1106 Q 645 1106 724 1019 800 936 800 832 L 19 837" fill="#000000"></path><path d="M -5 939 Q -6 956 10 957 27 959 28 942 30 926 13 924 -3 923 -5 939 M -77 1057 Q -60 1059 -59 1042 -57 1026 -74 1024 -90 1023 -92 1039 -93 1056 -77 1057 M -21 953 Q -37 952 -39 968 -40 985 -24 986 -7 988 -6 971 -4 955 -21 953 M -48 989 Q -64 988 -66 1004 -67 1020 -51 1021 -34 1023 -33 1007 -31 991 -48 989 M 103 919 Q 105 903 88 901 72 900 70 916 69 933 85 934 102 936 103 919 M 43 894 Q 27 893 25 909 24 926 40 927 57 929 58 912 60 896 43 894 M 113 967 Q 115 951 98 949 82 948 80 964 79 980 95 981 112 983 113 967 M 83 1010 Q 81 1026 97 1027 114 1029 116 1013 118 997 101 995 85 994 83 1010 M 97 1075 Q 114 1077 115 1060 117 1044 100 1042 84 1041 82 1057 81 1074 97 1075 M 97 1091 Q 80 1090 78 1106 76 1123 93 1124 110 1126 112 1109 114 1093 97 1091 M 35 1198 Q 34 1215 50 1216 67 1218 68 1201 70 1185 53 1183 37 1182 35 1198 M 97 1161 Q 99 1145 82 1143 66 1142 64 1158 63 1175 79 1176 96 1178 97 1161 M -47 1181 Q -63 1179 -65 1195 -66 1212 -50 1213 -33 1215 -32 1199 -30 1183 -47 1181 M -87 1181 Q -70 1183 -69 1166 -67 1150 -84 1148 -100 1147 -102 1163 -103 1180 -87 1181 M -102 1106 Q -118 1105 -120 1121 -121 1138 -105 1139 -88 1141 -87 1124 -85 1108 -102 1106 M -97 1096 Q -80 1098 -79 1081 -77 1065 -94 1063 -110 1062 -112 1078 -113 1095 -97 1096 M 20 1212 Q 22 1196 5 1194 -11 1193 -13 1209 -14 1226 2 1227 19 1229 20 1212" fill="#762701"></path><path d="M 95 1069 Q 47 1182 -30 1149 -66 1134 -72 1090 -78 1050 -58 1004 -39 958 -6 934 30 908 66 923 143 956 95 1069" fill="none" stroke="#762701" stroke-width="15" stroke-linecap="round" stroke-linejoin="round"></path><path d="M 33 792 L 9 816 Q -13 850 -2 904 8 953 86 988 198 1039 422 1039 631 1039 753 988 845 950 855 904 866 850 844 816 L 820 792 33 792" fill="#fdfe2a"></path><path d="M 179 918 Q 306 941 434 941 L 691 917 Q 819 894 845 868 886 826 873 749 L 852 680 Q 852 381 766 206 660 -10 434 -10 185 -10 87 206 16 363 16 680 L -5 749 Q -18 826 23 868 51 896 179 918" fill="#3e6c0f"></path><path d="M 410 432 L 372 510 286 523 348 583 334 669 410 629 487 669 473 583 535 523 449 510 410 432" fill="#ffffff"></path><path d="M 461 380 Q 520 395 556 437 596 485 596 556 596 627 556 675 520 718 462 732" fill="none" stroke="#ffffff" stroke-width="14" stroke-linecap="round" stroke-linejoin="round"></path><path d="M 367 732 Q 309 718 273 675 233 627 233 556 233 486 273 438 308 396 366 381" fill="none" stroke="#ffffff" stroke-width="14" stroke-linecap="round" stroke-linejoin="round"></path><path d="M 590 728 Q 558 698 520 711 L 488 729 Q 513 757 554 745 575 740 590 728" fill="#ffffff"></path><path d="M 555 674 Q 581 645 569 612 L 553 585 Q 529 608 539 643 L 555 674" fill="#ffffff"></path><path d="M 590 508 Q 583 470 550 459 L 518 455 Q 521 488 556 501 L 590 508" fill="#ffffff"></path><path d="M 671 512 Q 627 512 606 547 596 565 595 582 633 586 656 549 L 671 512" fill="#ffffff"></path><path d="M 529 346 Q 513 387 539 418 L 567 441 Q 585 407 559 373 L 529 346" fill="#ffffff"></path><path d="M 310 346 L 281 373 Q 255 407 272 441 288 434 300 418 326 387 310 346" fill="#ffffff"></path><path d="M 241 728 L 277 745 Q 318 757 344 729 332 717 312 711 274 698 241 728" fill="#ffffff"></path><path d="M 276 674 L 292 643 Q 302 608 278 585 L 262 612 Q 251 645 276 674" fill="#ffffff"></path><path d="M 242 508 L 276 501 Q 311 488 313 455 L 282 459 Q 249 470 242 508" fill="#ffffff"></path><path d="M 161 512 L 176 549 Q 199 586 236 582 L 225 547 Q 205 512 161 512" fill="#ffffff"></path><path d="M 146 49 Q 55 109 50 168 41 272 129 356 231 453 410 453 574 453 683 318 774 206 758 139 745 84 663 37 561 -22 408 -22 255 -22 146 49" fill="#2c4804"></path></g><g id="cid_62" viewBox="-270 -648 1813 1410"><path d="M 1567 434 Q 1708 456 1775 349 1808 295 1813 237 1776 277 1721 290 1612 316 1524 185 1428 41 1326 -51 1215 -151 1068 -217 1101 -316 1054 -492 L 1001 -648 Q 1001 -358 903 -264 542 -310 284 -135 121 -24 8 172 -81 328 -185 279 -217 263 -247 229 L -270 198 -260 235 Q -247 280 -225 317 -156 435 -35 429 L -39 470 Q -47 519 -66 564 -125 709 -267 753 L -185 816 Q -79 874 38 843 L 44 943 Q 38 1049 -28 1075 L 18 1079 Q 78 1071 146 1008 L 144 1039 Q 145 1077 157 1114 194 1233 329 1296 292 1269 338 1148 L 419 1212 Q 502 1296 509 1397 L 537 1367 Q 570 1319 596 1235 L 634 1311 Q 684 1391 746 1410 L 899 1233 Q 913 1309 947 1362 L 979 1399 Q 992 1299 1078 1219 1121 1178 1161 1158 1202 1283 1163 1306 1301 1249 1344 1132 1357 1096 1359 1058 L 1359 1027 Q 1425 1093 1484 1104 L 1531 1102 Q 1467 1073 1464 967 L 1475 868 Q 1591 904 1699 851 1753 825 1784 792 1626 740 1581 582 1566 532 1565 478 L 1567 434" fill="#c56c2b"></path><path d="M 1008 -225 L 1079 -146 Q 1201 -169 1237 -296 1248 -335 1249 -381 L 1248 -418 Q 1223 -354 1113 -283 L 1008 -225" fill="#c56c2b"></path><path d="M 372 123 Q 387 60 372 45 357 30 307 58 257 86 212 135 93 265 171 343 236 408 323 245 356 183 372 123" fill="#fec224"></path><path d="M 384 244 Q 317 321 363 367 400 404 454 315 508 225 478 196 451 168 384 244" fill="#fec224"></path></g></defs></svg>
