<?xml version="1.0" encoding="utf-8"?>
<!DOCTYPE svg PUBLIC "-//W3C//DTD SVG 1.1//EN" "http://www.w3.org/Graphics/SVG/1.1/DTD/svg11.dtd">
<svg xmlns="http://www.w3.org/2000/svg" xmlns:xlink="http://www.w3.org/1999/xlink" version="1.1" width="4800" height="5600"><defs><g id="cid_1" viewBox="810 790 4250 4850"><path d="M 1700 3520 L 1700 4840 4240 4840 4240 2320 3020 2320 3020 3520 1700 3520" fill="#ffff00"></path><path d="M 1700 3520 L 3020 3520 3020 2320 1700 2320 1700 3520" fill="#00ff00"></path><path d="M 1700 3520 L 1700 2320 3020 2320 3020 800 820 800 820 3520 1700 3520" fill="#ff0000"></path><path d="M 3020 2320 L 4240 2320 4240 4840 1700 4840 1700 3520" fill="none" stroke="#0000ff" stroke-width="20" stroke-linecap="round" stroke-linejoin="round"></path><path d="M 3020 2320 L 3020 800 820 800 820 3520 1700 3520" fill="none" stroke="#000000" stroke-width="20" stroke-linecap="round" stroke-linejoin="round"></path><path d="M 1700 3520 L 1700 2320 3020 2320 M 1700 3520 L 3020 3520 3020 2320" fill="none" stroke="#3300ff" stroke-width="20" stroke-linecap="round" stroke-linejoin="round"></path></g></defs></svg>
